<svg width="522" height="300" fill="none" xmlns="http://www.w3.org/2000/svg"><path d="M522 246.918a53.007 53.007 0 0 1-15.506 37.542c-9.58 9.609-22.799 15.54-37.412 15.54H52.89C27.163 300 5.731 281.593.976 257.185A51.677 51.677 0 0 1 0 247.953c.516-18.575 15.701-33.471 34.33-33.471 2.315 0 4.574.237 6.763.671a74.038 74.038 0 0 1-.306-6.616c0-4.644.432-9.19 1.283-13.596 6.33-33.136 35.376-58.173 70.25-58.173a71.844 71.844 0 0 1 20.93 3.119c1.688-34.129 27.15-61.978 60.128-67.237 0-.294-.014-.601-.014-.895C193.364 32.129 225.394 0 264.897 0c27.387 0 51.176 15.442 63.195 38.115a52.49 52.49 0 0 1 16.789-2.741c23.58 0 43.534 15.596 50.171 37.066 34.861 4.798 61.717 34.787 61.717 71.084 0 8.364-1.422 16.393-4.058 23.848 6.68 7.148 11.239 16.296 12.69 26.45h3.681c29.227 0 52.918 23.765 52.918 53.068v.028Z" fill="#fff"/></svg>