<svg width="508" height="297" fill="none" xmlns="http://www.w3.org/2000/svg"><path d="M10.23 240.028a35.549 35.549 0 0 1 8.448-6.267c-7.947-9.379-12.651-20.949-12.651-33.482 0-20.893 13.069-39.135 32.499-48.932a56.53 56.53 0 0 1-3.605-19.903c0-31.249 25.261-56.58 56.424-56.58 3.688 0 7.307.363 10.801 1.047a56.669 56.669 0 0 1-3.383-19.344C98.75 25.33 124.011 0 155.174 0c20.877 0 39.082 11.375 48.839 28.276a71.364 71.364 0 0 1 33.348-8.234c39.639 0 71.79 32.226 71.79 71.989v.907c33.083 5.275 58.637 33.217 60.335 67.453a71.554 71.554 0 0 1 21.003-3.141c39.319 0 71.233 31.682 71.776 70.97l10.564-.042c19.402-.069 35.171 15.688 35.171 35.157a35.123 35.123 0 0 1-10.23 24.816 34.918 34.918 0 0 1-24.705 10.341L35.171 300C15.77 300.07 0 284.312 0 264.843a35.048 35.048 0 0 1 10.23-24.815Z" fill="#fff"/></svg>