<svg id="_レイヤー_2" data-name="レイヤー 2" xmlns="http://www.w3.org/2000/svg" width="134" height="107.8"><defs><style>.cls-1{fill:#fff}.cls-2{fill:#f39800}.cls-3{fill:#ff5a00}.cls-4{fill:#74210f}</style></defs><g id="_レイヤー_1-2" data-name="レイヤー 1"><path class="cls-2" d="M81.64 107.67c-1.23.15-2.45.12-3.58-.18-1.14-.32-2.18-.82-3.06-1.55-1.76-1.48-2.66-3.49-2.71-5.66a8.11 8.11 0 0 1 1.55-.19c2.14-.05 4.2.59 6 1.89.89.67 1.66 1.43 2.27 2.3.61.88 1.05 1.86 1.28 2.93-.56.2-1.14.36-1.74.46Z"/><path class="cls-2" d="M73.84 100.13c-.51.01-1.01.07-1.51.18.06 2.14.96 4.13 2.7 5.59.88.72 1.92 1.22 3.05 1.54 1.13.3 2.34.33 3.56.18.57-.1 1.14-.25 1.69-.44a8.156 8.156 0 0 0-1.27-2.89c-.6-.86-1.36-1.62-2.24-2.28-1.79-1.3-3.84-1.93-5.97-1.88m0-.09c2.22-.05 4.29.64 6.02 1.9.87.65 1.64 1.4 2.25 2.28.62.88 1.09 1.9 1.32 3.01-.57.21-1.16.37-1.79.48-1.28.16-2.53.12-3.67-.2-1.14-.33-2.17-.83-3.02-1.54-1.71-1.43-2.68-3.46-2.72-5.72.52-.12 1.05-.19 1.59-.2ZM73.81 99.28c-.51.01-1.03-.02-1.53-.11.06-2.17.88-4.23 2.14-5.78.64-.79 1.35-1.46 2.12-1.92.77-.47 1.6-.82 2.48-.92.42-.08.86-.1 1.29-.08.17 1.07.17 2.14-.03 3.16s-.6 2-1.21 2.83a6.608 6.608 0 0 1-5.27 2.81Z"/><path class="cls-2" d="M79.04 90.6c-.88.1-1.7.44-2.47.91-.77.45-1.48 1.12-2.11 1.91a9.622 9.622 0 0 0-2.12 5.71c.49.08.99.12 1.48.11a6.6 6.6 0 0 0 5.24-2.8c.6-.82 1-1.79 1.2-2.8.2-1.01.21-2.07.04-3.13-.42-.02-.85 0-1.26.08m-.01-.09c.45-.08.89-.11 1.33-.08.19 1.12.18 2.22-.03 3.25-.21 1.04-.61 2.01-1.2 2.81a6.698 6.698 0 0 1-5.3 2.83 8.12 8.12 0 0 1-1.57-.12c.05-2.27.93-4.34 2.15-5.85.61-.76 1.32-1.44 2.09-1.9.78-.47 1.61-.84 2.53-.95ZM92.59 104.94c-.59.2-1.18.34-1.78.43-.59.09-1.2.08-1.78.05a8.73 8.73 0 0 1-1.71-.29c-.56-.17-1.09-.4-1.59-.68-1.99-1.08-3.25-2.96-3.69-5.08.48-.19.99-.32 1.49-.45 1.04-.25 2.11-.25 3.15-.15 1.05.12 2.1.45 3.09.91.99.47 1.89 1.1 2.65 1.86.76.75 1.37 1.63 1.79 2.63-.51.32-1.06.57-1.63.75Z"/><path class="cls-2" d="M83.54 98.97c-.49.12-.98.25-1.45.43.45 2.1 1.7 3.94 3.67 5.01.5.28 1.03.5 1.58.67.55.15 1.12.25 1.7.29.58.04 1.18.04 1.77-.05.59-.09 1.18-.23 1.77-.43a7.08 7.08 0 0 0 1.58-.73 8.08 8.08 0 0 0-1.78-2.6 9.51 9.51 0 0 0-2.63-1.84c-1.99-.94-4.13-1.21-6.21-.76m-.02-.08c1.08-.26 2.18-.25 3.22-.14 1.05.13 2.09.46 3.05.9.96.45 1.87 1.08 2.64 1.85.77.75 1.41 1.66 1.85 2.7-.51.32-1.07.59-1.67.78-.61.21-1.23.35-1.83.44-.61.08-1.22.08-1.81.03a8.51 8.51 0 0 1-1.7-.3c-.55-.17-1.07-.4-1.55-.66-1.94-1.05-3.27-2.93-3.72-5.14.49-.2 1.01-.33 1.53-.46ZM83.36 98.14c-.5.13-1.02.15-1.53.14-.34-2.15.11-4.26 1.05-6.07.24-.45.51-.86.8-1.23.29-.39.6-.74.93-1.04.33-.31.7-.55 1.07-.79.37-.24.77-.43 1.19-.57.41-.13.84-.23 1.26-.3.37 1.02.56 2.08.55 3.12a7.242 7.242 0 0 1-.67 2.99c-.44.98-1.09 1.77-1.89 2.41-.79.67-1.75 1.07-2.78 1.32Z"/><path class="cls-2" d="M86.9 88.63c-.42.14-.82.33-1.19.57-.37.23-.74.48-1.07.79-.33.3-.64.65-.93 1.04-.29.37-.56.77-.8 1.22-.93 1.78-1.37 3.87-1.05 6 .5 0 1-.02 1.48-.14 2.05-.45 3.77-1.8 4.64-3.71.43-.94.65-1.94.67-2.96a9.17 9.17 0 0 0-.53-3.09c-.41.07-.83.16-1.23.29m-.03-.08c.43-.14.86-.24 1.3-.3.39 1.07.58 2.15.57 3.21a7.456 7.456 0 0 1-.67 2.97c-.42.94-1.06 1.74-1.86 2.39-.79.68-1.77 1.11-2.84 1.36-.52.13-1.05.15-1.57.14-.36-2.24.14-4.38 1.05-6.13.23-.43.49-.84.78-1.2.28-.38.59-.74.93-1.04.33-.31.7-.57 1.08-.81.38-.25.79-.44 1.23-.59ZM102.85 100.26c-2.14 1.25-4.66 1.5-6.83.78-2.16-.71-3.74-2.32-4.56-4.32.44-.28.9-.52 1.39-.71.98-.42 2.02-.66 3.07-.72 1.04-.09 2.13.04 3.2.33 2.1.55 4.01 1.8 5.19 3.61-.45.39-.95.73-1.47 1.03Z"/><path class="cls-2" d="M92.87 96.05c-.47.19-.92.42-1.35.69.82 1.97 2.39 3.56 4.52 4.26 2.15.72 4.66.47 6.79-.77.5-.29.99-.62 1.43-.99-1.18-1.79-3.06-3.02-5.14-3.56-1.06-.29-2.15-.41-3.19-.33-1.05.05-2.08.29-3.06.71m-.03-.08c1.02-.44 2.08-.67 3.14-.72 1.05-.08 2.13.06 3.16.33 2.04.53 4.01 1.77 5.24 3.66-.45.4-.96.75-1.51 1.06-2.23 1.3-4.78 1.48-6.87.78-2.1-.69-3.75-2.29-4.6-4.38.44-.29.92-.53 1.43-.73ZM92.54 95.27c-.48.19-.97.33-1.48.42-.73-2.06-.67-4.22-.08-6.15.61-1.95 1.74-3.41 3.27-4.3.37-.22.78-.38 1.19-.52 1.1 1.88 1.5 3.98 1 6.04-.26 1.02-.76 1.92-1.41 2.72-.67.76-1.52 1.38-2.49 1.8Z"/><path class="cls-2" d="M94.28 85.27c-1.53.89-2.64 2.35-3.26 4.28-.59 1.92-.65 4.05.07 6.09a7.8 7.8 0 0 0 1.43-.41A6.96 6.96 0 0 0 95 93.44c.65-.79 1.15-1.69 1.41-2.7.5-2.03.11-4.11-.97-5.97-.41.13-.8.29-1.16.5m-.04-.08c.39-.23.81-.39 1.23-.53 1.16 1.96 1.52 4.1 1.02 6.1-.25.99-.73 1.88-1.39 2.69-.67.78-1.54 1.42-2.54 1.86-.5.2-1.01.34-1.52.43-.76-2.15-.66-4.34-.08-6.22.59-1.88 1.69-3.4 3.28-4.32ZM112.08 93.81c-.93.81-2.04 1.36-3.14 1.73-1.13.33-2.3.42-3.42.28-2.27-.34-4.09-1.59-5.27-3.42a8.2 8.2 0 0 1 1.23-.97c.92-.56 1.85-1.03 2.9-1.26 1.03-.25 2.09-.36 3.21-.26 2.18.17 4.25 1.03 5.75 2.61-.38.46-.8.89-1.25 1.28Z"/><path class="cls-2" d="M101.5 91.47c-.43.27-.83.59-1.19.94 1.17 1.79 2.98 3.03 5.22 3.36 1.12.14 2.28.05 3.4-.28 1.1-.36 2.2-.91 3.12-1.72.44-.38.85-.8 1.22-1.24-1.49-1.55-3.54-2.4-5.7-2.57-1.11-.1-2.17 0-3.19.26-1.04.23-1.97.7-2.88 1.25m-.05-.07c.47-.29.96-.55 1.44-.77.49-.22 1-.38 1.52-.5 1.03-.25 2.09-.35 3.17-.25 2.11.16 4.25.99 5.81 2.64-.38.47-.81.91-1.28 1.32-.97.85-2.11 1.4-3.22 1.76-1.15.32-2.3.4-3.38.26-2.21-.33-4.1-1.56-5.32-3.47.38-.37.8-.7 1.26-1ZM101.03 90.76c-.43.28-.89.51-1.36.7a9.716 9.716 0 0 1-1.19-6.04c.11-1.03.39-1.94.81-2.74.39-.84.96-1.5 1.63-2.09.33-.28.69-.53 1.08-.73 1.41 1.64 2.21 3.66 2.07 5.76-.09 1.03-.38 2.05-.9 2.93-.54.86-1.23 1.67-2.13 2.22Z"/><path class="cls-2" d="M100.94 80.62c-.66.59-1.23 1.25-1.62 2.08-.41.8-.69 1.71-.8 2.73-.26 1.96.11 4.11 1.17 5.97.46-.18.91-.41 1.32-.68.9-.55 1.58-1.36 2.12-2.21.52-.87.81-1.89.89-2.91.14-2.08-.65-4.08-2.04-5.7-.38.2-.73.44-1.04.71m-.06-.07c.34-.3.71-.55 1.11-.75 1.49 1.71 2.25 3.77 2.11 5.82-.08 1-.37 2-.88 2.9-.26.44-.57.86-.93 1.25-.35.4-.77.74-1.24 1.03-.45.29-.93.53-1.41.71a9.684 9.684 0 0 1-1.21-6.1c.11-.99.37-1.91.79-2.71.38-.85.96-1.54 1.65-2.15ZM120 85.8c-.8.94-1.74 1.72-2.79 2.26-1.06.52-2.16.85-3.32.89-2.29.08-4.3-.81-5.8-2.4.32-.4.65-.82 1.03-1.17.38-.37.81-.69 1.25-.99.43-.3.89-.56 1.37-.78.98-.42 1.99-.73 3.11-.83 2.2-.21 4.36.24 6.13 1.53-.28.52-.62 1.03-.99 1.5Z"/><path class="cls-2" d="M109.16 85.4c-.37.34-.69.74-1 1.14 1.49 1.57 3.48 2.44 5.74 2.36 1.15-.04 2.24-.37 3.3-.89 1.04-.53 1.97-1.31 2.77-2.24.36-.46.69-.95.96-1.45-1.76-1.26-3.89-1.7-6.07-1.5-1.11.1-2.12.41-3.09.83-.48.21-.94.47-1.37.77-.43.3-.86.61-1.24.98m-.06-.06a9.792 9.792 0 0 1 5.75-2.61c2.13-.2 4.35.2 6.19 1.55-.28.53-.62 1.05-1.01 1.54-.84.98-1.8 1.77-2.86 2.3-1.07.52-2.16.84-3.28.87-2.22.08-4.3-.77-5.85-2.45.33-.41.66-.83 1.06-1.2ZM108.57 84.79c-.38.35-.77.68-1.22.93-1.4-1.64-2.16-3.73-2.27-5.73-.05-1 .03-1.99.3-2.84.26-.87.65-1.67 1.23-2.34.27-.34.57-.65.91-.92 1.68 1.35 2.86 3.22 3.08 5.29.11 1.03.02 2.1-.35 3.04-.18.48-.41.94-.68 1.38-.28.44-.63.82-1.01 1.19Z"/><path class="cls-2" d="M106.65 74.84c-.58.67-.97 1.47-1.23 2.33-.27.85-.35 1.83-.3 2.83.11 1.98.86 4.04 2.24 5.67.43-.25.81-.57 1.18-.91.38-.37.73-.75 1-1.18.27-.44.5-.9.68-1.37.37-.94.46-2 .35-3.03-.1-1.01-.46-2-.98-2.89a8.64 8.64 0 0 0-2.05-2.35c-.33.27-.63.57-.89.9m-.07-.06c.28-.36.59-.67.94-.95 1.76 1.4 2.92 3.33 3.13 5.34.23 2.01-.44 4.14-2.06 5.65-.39.37-.8.71-1.26.95-1.46-1.71-2.19-3.84-2.3-5.78-.04-.97.02-1.95.29-2.81.26-.87.64-1.7 1.25-2.4ZM126.32 76.48c-1.21 2.16-3.19 3.71-5.44 4.2-2.21.52-4.38-.03-6.14-1.32.24-.46.52-.9.81-1.33.63-.87 1.4-1.6 2.25-2.21.43-.3.9-.57 1.39-.79.48-.24.98-.43 1.51-.59 2.13-.6 4.34-.55 6.31.39-.18.56-.39 1.14-.7 1.65Z"/><path class="cls-2" d="M115.6 78.06c-.29.42-.55.85-.79 1.29a7.79 7.79 0 0 0 2.87 1.31c1.03.23 2.1.22 3.2-.03 2.23-.49 4.2-2.03 5.4-4.18.3-.5.51-1.05.69-1.6-1.95-.92-4.14-.97-6.24-.37-.53.15-1.03.35-1.51.59-.49.23-.95.49-1.39.79-.85.61-1.62 1.33-2.24 2.2m-.07-.05c.32-.45.68-.86 1.08-1.23.39-.37.79-.72 1.23-1.02.44-.3.91-.56 1.39-.79.47-.23.97-.42 1.48-.57 2.07-.58 4.32-.59 6.37.4-.19.57-.4 1.16-.72 1.7-.64 1.12-1.43 2.08-2.4 2.78-.94.72-1.98 1.21-3.07 1.45-2.15.5-4.38 0-6.2-1.35.24-.47.52-.92.83-1.37ZM114.91 77.56c-.29.42-.64.8-1.04 1.13-.84-.68-1.54-1.5-2.07-2.39-.54-.89-.96-1.86-1.19-2.83-.22-.98-.32-1.95-.22-2.85.12-.89.33-1.76.79-2.53.23-.37.45-.74.74-1.07 1.9 1.03 3.4 2.65 3.99 4.64.15.5.25 1.02.29 1.54.03.51 0 1.02-.09 1.52-.15 1.02-.58 1.98-1.19 2.84Z"/><path class="cls-2" d="M111.21 68.11c-.87 1.54-1.03 3.39-.56 5.35.23.97.64 1.93 1.18 2.81.53.87 1.22 1.68 2.05 2.36a5.5 5.5 0 0 0 1-1.1c.61-.85 1.03-1.81 1.19-2.82.08-.5.11-1.01.09-1.51-.04-.52-.14-1.03-.29-1.53-.58-1.97-2.05-3.58-3.93-4.6-.28.32-.49.68-.71 1.04m-.08-.04c.24-.39.46-.77.76-1.1 1.99 1.06 3.48 2.74 4.04 4.68.15.49.24.99.29 1.5.04.51 0 1.01-.08 1.52s-.21 1.02-.41 1.51c-.21.48-.47.95-.79 1.4-.3.44-.67.83-1.07 1.16a9.443 9.443 0 0 1-2.13-2.45c-.54-.9-.95-1.87-1.18-2.82-.22-.94-.31-1.9-.23-2.81.11-.9.33-1.79.79-2.59ZM130.85 66.15c-.2.59-.44 1.15-.74 1.67-.31.52-.67 1-1.06 1.44-.76.89-1.73 1.56-2.78 2.02-1.03.46-2.11.65-3.19.61a7.643 7.643 0 0 1-3.09-.79c.14-.5.34-.98.56-1.45.9-1.94 2.44-3.47 4.41-4.48 1.95-.99 4.19-1.33 6.28-.77-.05.6-.21 1.18-.4 1.75Z"/><path class="cls-2" d="M120.61 69.67c-.22.46-.41.92-.55 1.41 1.92.92 4.17 1.07 6.21.16a7.714 7.714 0 0 0 2.77-2.01c.39-.44.74-.92 1.05-1.43.29-.52.53-1.08.73-1.66.18-.55.34-1.12.4-1.7-2.06-.54-4.28-.21-6.21.77-1.96 1-3.49 2.53-4.39 4.46m-.08-.04c.94-2.01 2.53-3.52 4.43-4.5.94-.48 1.99-.82 3.07-.96 1.08-.15 2.18-.11 3.27.19-.05.61-.21 1.2-.41 1.8-.21.61-.46 1.19-.77 1.72-.32.53-.69 1.01-1.08 1.45-.77.89-1.75 1.54-2.75 1.98-1 .44-2.08.65-3.17.61a7.833 7.833 0 0 1-3.17-.81c.14-.51.34-1 .58-1.49ZM119.84 69.3c-.22.46-.51.89-.82 1.29a9.42 9.42 0 0 1-2.48-1.97c-.68-.77-1.25-1.64-1.68-2.57-.42-.93-.64-1.85-.74-2.76-.04-.45-.03-.9.03-1.33.04-.44.13-.87.27-1.3.13-.41.34-.8.54-1.18 2.08.67 3.8 1.97 4.77 3.83.98 1.87 1 4.06.11 5.98Z"/><path class="cls-2" d="M114.47 60.69c-.14.42-.23.85-.27 1.29-.06.43-.07.87-.04 1.32.09.91.32 1.82.73 2.75.85 1.83 2.21 3.45 4.11 4.49.3-.39.58-.81.8-1.26.89-1.91.87-4.09-.11-5.94-.96-1.84-2.65-3.13-4.7-3.8-.19.37-.39.75-.52 1.15m-.08-.03c.14-.43.35-.83.56-1.21 2.18.69 3.89 2.05 4.83 3.86.95 1.8 1.04 4.01.11 6.01-.23.49-.53.92-.85 1.33a9.52 9.52 0 0 1-2.55-2.03c-.69-.78-1.25-1.65-1.66-2.55-.41-.9-.63-1.8-.73-2.72-.04-.46-.04-.91.02-1.35.04-.45.13-.9.28-1.33ZM133.42 55.17c-.14 1.23-.61 2.38-1.19 3.39-.61 1-1.44 1.85-2.37 2.49-1.9 1.27-4.12 1.54-6.21.97.04-.52.14-1.04.28-1.54.29-1.03.69-2 1.32-2.87.58-.88 1.31-1.67 2.21-2.34 1.72-1.33 3.85-2.07 6.02-1.9.03.59 0 1.2-.07 1.79Z"/><path class="cls-2" d="M123.99 60.5c-.14.49-.23.99-.27 1.49 2.06.55 4.26.28 6.14-.98.92-.64 1.75-1.48 2.35-2.48.57-1 1.04-2.14 1.18-3.37.07-.58.1-1.16.08-1.74-2.15-.16-4.25.58-5.95 1.89-.9.67-1.63 1.45-2.2 2.32-.62.86-1.02 1.83-1.31 2.86m-.08-.02c.3-1.07.72-2.06 1.36-2.93.58-.88 1.32-1.66 2.19-2.3 1.67-1.29 3.82-2.1 6.09-1.92.03.6 0 1.22-.07 1.84-.15 1.28-.64 2.45-1.23 3.46a8.262 8.262 0 0 1-2.35 2.46c-1.85 1.24-4.1 1.57-6.27.96.04-.53.13-1.05.28-1.58ZM123.17 60.28c-.14.49-.33.97-.56 1.43-2.07-.68-3.77-2.05-4.92-3.7-.6-.84-.99-1.7-1.23-2.58-.27-.88-.28-1.75-.18-2.64.05-.43.16-.85.31-1.26 2.15.28 4.08 1.24 5.39 2.9.63.83 1.07 1.78 1.29 2.78.17.99.18 2.06-.11 3.07Z"/><path class="cls-2" d="M116.32 52.79c-.09.88-.09 1.75.18 2.63.24.87.62 1.73 1.22 2.57 1.14 1.63 2.81 2.99 4.86 3.67.22-.44.41-.91.54-1.39.29-1.01.28-2.07.1-3.05-.22-1-.66-1.94-1.28-2.77-1.29-1.64-3.21-2.6-5.33-2.88-.15.4-.25.81-.3 1.23m-.09-.01c.06-.45.17-.88.33-1.3 2.25.28 4.19 1.31 5.46 2.92.61.8 1.05 1.73 1.29 2.74.18 1 .2 2.09-.1 3.14-.15.52-.34 1.01-.58 1.47-2.16-.71-3.86-2.13-4.97-3.73-.58-.81-.98-1.66-1.22-2.54-.28-.89-.3-1.78-.2-2.7ZM133.95 43.93c.12 2.47-.78 4.82-2.43 6.41-1.64 1.59-3.74 2.27-5.92 2.08-.03-.52-.06-1.04-.02-1.56.04-.53.14-1.06.27-1.57.12-.51.28-1.01.5-1.49.21-.48.49-.95.77-1.4.28-.45.61-.88.98-1.29 1.48-1.62 3.46-2.73 5.6-2.95.17.58.21 1.18.24 1.77Z"/><path class="cls-2" d="M125.63 50.87c-.04.5-.01 1.01.01 1.52 2.16.17 4.22-.5 5.85-2.08s2.53-3.92 2.41-6.37c-.03-.58-.07-1.16-.23-1.72-2.12.23-4.08 1.33-5.54 2.93-.37.41-.69.84-.97 1.29-.28.45-.56.91-.77 1.4-.21.48-.38.98-.49 1.49-.14.51-.23 1.03-.27 1.56m-.09 0c.04-.56.15-1.09.28-1.61.12-.52.29-1.03.51-1.51.46-.97 1.02-1.87 1.73-2.66s1.57-1.47 2.54-1.99c.96-.52 1.99-.87 3.13-.98.17.58.23 1.2.25 1.82.12 2.58-.86 4.91-2.44 6.45-1.6 1.55-3.71 2.29-5.99 2.09-.03-.52-.07-1.06-.02-1.6ZM124.79 50.8c-.05.51-.11 1.02-.28 1.51-2.14-.29-4.1-1.33-5.52-2.75-1.44-1.44-2.25-3.11-2.34-4.89-.02-.43.05-.87.09-1.3 2.19-.12 4.25.49 5.81 1.89.39.35.75.74 1.06 1.16.31.42.53.87.72 1.35.19.47.33.97.42 1.48.07.51.08 1.03.04 1.56Z"/><path class="cls-2" d="M116.69 44.67c.09 1.77.89 3.44 2.33 4.87 1.4 1.4 3.34 2.43 5.45 2.72.16-.47.23-.97.27-1.46.04-.52.03-1.04-.04-1.55-.09-.51-.23-1-.42-1.47a6.42 6.42 0 0 0-.72-1.34c-.31-.42-.66-.8-1.05-1.15-1.55-1.38-3.58-1.99-5.74-1.88-.04.42-.11.84-.09 1.26m-.09 0c-.02-.45.05-.9.09-1.34 1.13-.06 2.24.07 3.23.39.99.32 1.89.83 2.65 1.51.76.67 1.4 1.51 1.77 2.47.19.48.34.98.44 1.5.08.52.09 1.06.05 1.61-.05.54-.12 1.06-.3 1.55-2.23-.3-4.2-1.39-5.58-2.77-1.39-1.39-2.26-3.07-2.35-4.91ZM132.44 32.76c.28 1.21.34 2.43.09 3.59-.23 1.16-.63 2.23-1.31 3.17-1.35 1.86-3.29 2.91-5.45 3.11-.15-.5-.25-1.02-.3-1.53-.06-.53-.03-1.07-.01-1.59.02-.52.09-1.04.22-1.56.12-.51.29-1.02.51-1.52.22-.5.44-.98.73-1.45 1.14-1.86 2.9-3.32 4.97-3.93.24.54.42 1.12.55 1.71Z"/><path class="cls-2" d="M125.51 41.1c.05.5.14 1 .29 1.49 2.13-.22 4.05-1.25 5.39-3.1.68-.93 1.07-2 1.31-3.15.25-1.15.18-2.37-.09-3.57-.13-.57-.3-1.13-.53-1.66-2.05.61-3.79 2.06-4.92 3.89-.55.93-.99 1.93-1.24 2.96-.12.51-.19 1.03-.21 1.55-.02.52-.05 1.05.01 1.58m-.09 0c-.06-.55-.03-1.1 0-1.64.02-.54.1-1.06.23-1.58s.3-1.02.52-1.51c.21-.49.43-.96.72-1.41 1.11-1.8 2.87-3.33 5.03-3.96.25.55.43 1.14.57 1.75.14.63.22 1.26.25 1.87.03.61-.06 1.22-.17 1.8-.24 1.16-.64 2.22-1.31 3.12a7.532 7.532 0 0 1-5.52 3.13c-.15-.51-.26-1.03-.31-1.57ZM124.67 41.18c.05.51.05 1.03 0 1.53-2.17.1-4.28-.57-5.91-1.71-.82-.58-1.57-1.24-2.08-1.97-.5-.74-.91-1.54-1.1-2.4-.1-.42-.13-.86-.14-1.29 2.13-.51 4.24-.29 6.05.8.45.27.89.59 1.24.95.36.36.67.76.94 1.19.27.43.5.9.68 1.38.18.49.26 1 .32 1.53Z"/><path class="cls-2" d="M115.61 36.62c.2.86.6 1.65 1.1 2.39.51.73 1.25 1.39 2.07 1.96a9.61 9.61 0 0 0 5.84 1.7c.05-.49.05-.99 0-1.49-.06-.52-.14-1.03-.32-1.52-.18-.48-.41-.94-.68-1.37a6.324 6.324 0 0 0-2.17-2.13c-1.79-1.07-3.88-1.3-5.98-.81 0 .42.04.85.14 1.26m-.08.02c-.1-.44-.13-.89-.14-1.33 2.22-.55 4.36-.26 6.12.79.43.26.86.57 1.22.92a7.407 7.407 0 0 1 1.65 2.59c.19.5.27 1.03.33 1.57.05.54.05 1.06 0 1.58-2.27.11-4.39-.62-5.98-1.72-.78-.56-1.54-1.2-2.06-1.94-.27-.37-.47-.76-.68-1.17-.2-.41-.36-.83-.46-1.28ZM128.93 22.05c.24.57.44 1.15.57 1.74.13.59.17 1.19.17 1.78-.02 1.18-.2 2.31-.72 3.36-.98 2.08-2.7 3.46-4.78 4.05-.24-.47-.43-.95-.58-1.45-.15-.51-.24-1.04-.3-1.56-.08-.52-.1-1.04-.08-1.57.05-1.05.31-2.13.68-3.15.78-2.04 2.24-3.79 4.17-4.77.33.49.61 1.03.85 1.58Z"/><path class="cls-2" d="M123.64 31.51c.14.49.33.96.56 1.41 2.06-.6 3.75-1.97 4.72-4.03.52-1.05.69-2.16.71-3.34 0-.58-.04-1.18-.17-1.77-.14-.58-.33-1.16-.57-1.72-.23-.54-.51-1.05-.82-1.53-1.91.98-3.35 2.71-4.12 4.73-.37 1.01-.63 2.08-.68 3.13-.02.52 0 1.05.08 1.56.05.52.14 1.05.29 1.56m-.08.02c-.16-.53-.25-1.08-.3-1.61-.07-.53-.1-1.06-.07-1.59.06-1.06.32-2.12.68-3.11.76-1.97 2.21-3.8 4.22-4.81.35.49.63 1.04.88 1.62.25.59.45 1.19.59 1.79.12.6.16 1.22.16 1.81-.02 1.19-.22 2.3-.72 3.31-.95 2.02-2.66 3.47-4.84 4.08-.24-.47-.45-.97-.6-1.49ZM122.82 31.75c.14.49.24 1 .28 1.51-2.12.49-4.32.22-6.14-.6-.89-.42-1.76-.93-2.4-1.56-.33-.31-.6-.66-.86-1.01-.27-.36-.49-.74-.67-1.14-.17-.4-.29-.82-.37-1.25 1.99-.89 4.12-1.06 6.09-.32 1.01.36 1.84.96 2.54 1.71.35.37.66.79.93 1.23.25.45.44.94.59 1.44Z"/><path class="cls-2" d="M113.08 28.92c.17.41.4.79.66 1.14.26.36.53.7.86 1.01.63.63 1.5 1.13 2.39 1.55 1.8.81 3.97 1.08 6.07.6a7.882 7.882 0 0 0-.86-2.9c-.27-.44-.58-.85-.92-1.22-.69-.74-1.52-1.34-2.53-1.7-1.95-.73-4.06-.56-6.03.3.08.42.2.83.36 1.21m-.08.03c-.18-.41-.29-.85-.38-1.28 2.08-.94 4.24-1.06 6.16-.34.98.35 1.81.93 2.52 1.68.35.37.67.79.95 1.24.26.46.46.96.61 1.49.15.52.24 1.04.28 1.55-2.21.52-4.44.2-6.2-.6-.86-.41-1.72-.91-2.37-1.53-.34-.31-.61-.66-.88-1.02-.28-.36-.51-.75-.69-1.18ZM123.52 12.16c.34.51.64 1.05.88 1.6s.38 1.14.49 1.71c.2 1.16.22 2.3-.09 3.43-.58 2.22-2.02 3.89-3.96 4.86-.32-.41-.6-.86-.84-1.32-.24-.48-.43-.98-.58-1.48-.17-.5-.29-1.01-.36-1.53-.14-1.05-.09-2.15.1-3.22.4-2.14 1.52-4.14 3.23-5.45.42.42.79.9 1.13 1.39Z"/><path class="cls-2" d="M120.04 22.43c.23.45.5.88.81 1.29 1.91-.97 3.33-2.62 3.91-4.82.31-1.12.29-2.25.09-3.41-.11-.57-.25-1.16-.49-1.7-.24-.55-.53-1.08-.87-1.59-.33-.48-.68-.95-1.09-1.36-1.69 1.3-2.8 3.27-3.19 5.4-.18 1.07-.24 2.16-.1 3.2.07.52.19 1.03.36 1.52.15.51.33 1 .57 1.48m-.08.04c-.25-.5-.44-1.01-.59-1.53-.17-.51-.29-1.03-.36-1.55-.13-1.06-.07-2.14.1-3.18.39-2.08 1.49-4.14 3.27-5.5.44.42.81.91 1.16 1.43.36.54.66 1.09.9 1.65.24.57.38 1.16.49 1.74.19 1.17.2 2.3-.1 3.39-.56 2.16-1.98 3.9-4.02 4.9-.33-.42-.62-.87-.86-1.35ZM119.28 22.81c.23.46.42.94.55 1.43-1.99.87-4.2 1-6.14.53-.96-.25-1.9-.59-2.64-1.1-.38-.25-.71-.54-1.03-.84-.33-.3-.62-.64-.86-1.01-.24-.36-.43-.76-.6-1.16 1.8-1.24 3.86-1.79 5.94-1.43 1.06.17 1.99.6 2.81 1.21.41.3.79.65 1.14 1.04.32.4.6.84.84 1.31Z"/><path class="cls-2" d="M109.19 21.8c.25.37.53.7.86 1 .33.3.65.59 1.03.84.74.5 1.68.84 2.63 1.09 1.92.47 4.11.34 6.08-.52-.13-.47-.31-.94-.54-1.39-.24-.47-.51-.91-.83-1.31-.34-.39-.72-.73-1.13-1.04-.82-.61-1.74-1.04-2.79-1.21-2.05-.36-4.09.18-5.88 1.39.16.39.35.78.58 1.13m-.07.05c-.26-.37-.44-.78-.61-1.19 1.88-1.31 3.98-1.81 6-1.46 1.02.16 1.95.58 2.78 1.19.42.3.81.66 1.16 1.05.34.4.62.86.87 1.35.24.48.43.97.56 1.47-2.08.92-4.33 1-6.21.55-.92-.24-1.86-.58-2.61-1.08-.39-.24-.72-.54-1.05-.85-.34-.31-.64-.65-.89-1.03ZM108.91 4.18c.9.83 1.62 1.82 2.07 2.9.41 1.12.58 2.3.46 3.45-.53.04-1.06.05-1.58 0-1.88-.19-3.63-.85-4.97-2.04-.86-.68-1.5-1.58-2.01-2.55-.52-.96-.85-2.06-.97-3.25.49-.15 1.01-.25 1.53-.29.96-.07 1.97.01 2.89.33.92.32 1.8.81 2.57 1.45Z"/><path class="cls-2" d="M104.92 8.46c1.33 1.19 3.08 1.85 4.95 2.03.5.04 1.02.04 1.53 0 .11-1.15-.05-2.31-.47-3.42a8.426 8.426 0 0 0-2.05-2.87 8.55 8.55 0 0 0-2.56-1.44c-.92-.32-1.92-.4-2.87-.33-.51.04-1.01.14-1.49.28.13 1.17.46 2.26.97 3.21.5.96 1.14 1.85 1.99 2.53m-.06.07c-.84-.67-1.48-1.55-2-2.53-.53-.96-.87-2.09-.99-3.33.5-.16 1.03-.26 1.58-.31 1-.08 2.03.02 2.96.34.92.33 1.78.83 2.54 1.44.88.81 1.6 1.79 2.07 2.88.43 1.12.6 2.33.47 3.55-.54.05-1.08.05-1.62 0-1.97-.19-3.69-.89-4.99-2.05ZM116.39 3.41c.86.89 1.56 1.9 1.95 3.02.41 1.11.64 2.23.54 3.39-.17 2.29-1.28 4.2-3.01 5.5-.39-.35-.75-.74-1.06-1.15-.33-.43-.59-.89-.84-1.35a7.67 7.67 0 0 1-.63-1.44c-.17-.5-.29-1.03-.36-1.57-.08-.53-.14-1.07-.13-1.62 0-2.19.74-4.35 2.19-5.94.51.32.94.74 1.37 1.16Z"/><path class="cls-2" d="M114.84 14.15c.31.4.65.78 1.03 1.12 1.71-1.3 2.8-3.19 2.97-5.46.1-1.15-.13-2.27-.53-3.37-.39-1.11-1.09-2.11-1.94-3-.41-.41-.84-.82-1.32-1.13-1.42 1.58-2.15 3.72-2.15 5.89 0 .55.05 1.08.13 1.61.07.54.19 1.06.36 1.56.16.5.37.98.63 1.44.25.46.51.92.84 1.35m-.07.05c-.34-.44-.61-.92-.87-1.4-.26-.47-.47-.96-.63-1.47-.16-.51-.28-1.03-.35-1.57-.08-.52-.13-1.05-.13-1.58 0-2.13.7-4.34 2.22-6 .52.32.96.75 1.41 1.19.9.93 1.59 1.97 1.98 3.09.4 1.12.62 2.23.52 3.35-.16 2.23-1.24 4.2-3.06 5.55-.4-.35-.76-.74-1.09-1.18ZM114.17 14.66c.31.41.58.85.8 1.31a9.668 9.668 0 0 1-5.94 1.63c-.99-.07-1.98-.24-2.8-.6-.81-.37-1.59-.84-2.2-1.48-.31-.31-.55-.68-.8-1.03 1.55-1.55 3.48-2.47 5.59-2.48.53 0 1.06.04 1.56.16.49.12.97.3 1.43.53.46.23.9.5 1.31.82.4.33.75.72 1.07 1.14Z"/><path class="cls-2" d="M104.05 15.49c.62.64 1.38 1.1 2.19 1.47.82.36 1.8.53 2.79.6 1.97.12 4.1-.41 5.88-1.6-.22-.44-.48-.87-.78-1.27-.32-.42-.66-.81-1.06-1.13a7.68 7.68 0 0 0-1.3-.82c-.46-.23-.93-.4-1.42-.52-.49-.12-1.03-.16-1.55-.16-2.08.01-3.99.91-5.53 2.43.24.35.48.7.78 1m-.06.06c-.32-.32-.57-.7-.82-1.06 1.61-1.62 3.6-2.51 5.64-2.52.51 0 1.03.04 1.53.15.49.12.97.29 1.43.52.46.22.91.5 1.33.83.42.33.77.73 1.11 1.17.33.43.6.88.82 1.35a9.8 9.8 0 0 1-6.01 1.66c-.95-.07-1.94-.23-2.77-.59-.82-.37-1.61-.84-2.26-1.5ZM54.97 90.56c.88.1 1.71.45 2.48.92.77.45 1.49 1.13 2.12 1.92a9.693 9.693 0 0 1 2.14 5.78c-.5.09-1.02.13-1.53.11a6.636 6.636 0 0 1-5.27-2.81c-.61-.83-1.01-1.81-1.21-2.83-.2-1.02-.2-2.09-.03-3.16.44-.02.87 0 1.29.08Z"/><path class="cls-2" d="M60.19 99.24c.5.01 1-.02 1.48-.11a9.598 9.598 0 0 0-2.12-5.71c-.63-.79-1.34-1.46-2.11-1.91-.77-.47-1.59-.81-2.47-.91-.41-.08-.83-.1-1.26-.08-.17 1.06-.16 2.12.04 3.13.2 1.01.6 1.98 1.2 2.8a6.6 6.6 0 0 0 5.24 2.8m0 .09a6.683 6.683 0 0 1-5.3-2.83c-.59-.81-1-1.78-1.2-2.81a8.857 8.857 0 0 1-.03-3.25c.44-.03.88 0 1.33.08.92.1 1.76.47 2.53.95.78.46 1.48 1.14 2.09 1.9 1.22 1.51 2.1 3.58 2.15 5.85-.51.09-1.03.13-1.57.12ZM60.16 100.09c.52.01 1.04.08 1.55.19-.05 2.17-.95 4.18-2.71 5.66-.88.73-1.93 1.23-3.06 1.55-1.14.3-2.36.34-3.58.18-.59-.1-1.18-.26-1.74-.46.23-1.06.67-2.05 1.28-2.93a9.9 9.9 0 0 1 2.27-2.3c1.8-1.3 3.86-1.94 6-1.89Z"/><path class="cls-2" d="M52.36 107.63c1.22.15 2.43.12 3.56-.18 1.13-.32 2.17-.82 3.05-1.54 1.74-1.46 2.63-3.45 2.7-5.59-.5-.11-1-.17-1.51-.18-2.13-.05-4.18.59-5.97 1.88-.88.66-1.64 1.42-2.24 2.28-.6.87-1.05 1.84-1.27 2.89.54.19 1.11.34 1.69.44m-.01.09c-.62-.11-1.22-.27-1.79-.48.23-1.11.7-2.12 1.32-3.01.62-.88 1.39-1.64 2.26-2.28a9.772 9.772 0 0 1 6.02-1.9c.54.01 1.08.08 1.59.2-.04 2.27-1.01 4.29-2.72 5.72-.85.71-1.88 1.21-3.02 1.54-1.14.32-2.39.36-3.67.2ZM47.11 88.59c.42.14.82.33 1.19.57.38.23.74.48 1.07.79.34.3.65.65.93 1.04.29.37.56.78.8 1.23.94 1.8 1.39 3.92 1.05 6.07-.51 0-1.03-.02-1.53-.14-1.03-.24-1.99-.65-2.78-1.32-.8-.64-1.45-1.44-1.89-2.41-.44-.95-.66-1.96-.67-2.99 0-1.05.19-2.1.55-3.12.43.07.85.17 1.26.3Z"/><path class="cls-2" d="M50.65 98.1c.48.12.99.15 1.48.14.33-2.12-.12-4.22-1.05-6-.24-.45-.5-.85-.8-1.22-.29-.39-.6-.73-.93-1.04-.33-.31-.69-.55-1.07-.79-.37-.24-.77-.43-1.19-.57-.4-.13-.81-.22-1.23-.29-.36 1.01-.55 2.05-.53 3.09.02 1.02.24 2.02.67 2.96.87 1.91 2.58 3.26 4.64 3.71m-.02.09c-1.07-.25-2.05-.69-2.84-1.36-.8-.65-1.43-1.45-1.86-2.39-.43-.93-.66-1.93-.67-2.97-.01-1.06.18-2.14.57-3.21.43.07.87.17 1.3.3.44.15.85.35 1.23.59s.75.49 1.08.81c.34.31.64.67.93 1.04.29.37.55.77.78 1.2.91 1.75 1.41 3.89 1.05 6.13-.52 0-1.05-.01-1.57-.14ZM50.47 98.93c.5.13 1.01.25 1.49.45-.44 2.12-1.7 4-3.69 5.08-.5.28-1.03.5-1.59.68-.55.15-1.12.25-1.71.29-.58.04-1.19.04-1.78-.05-.59-.09-1.19-.24-1.78-.43-.57-.19-1.12-.44-1.63-.75.42-1 1.04-1.89 1.79-2.63.76-.76 1.66-1.39 2.65-1.86.99-.46 2.04-.79 3.09-.91 1.04-.1 2.11-.1 3.15.15Z"/><path class="cls-2" d="M41.43 104.9c.58.2 1.18.34 1.77.43.59.09 1.19.08 1.77.05.58-.04 1.15-.14 1.7-.29.55-.17 1.08-.4 1.58-.67 1.97-1.07 3.22-2.92 3.67-5.01-.47-.18-.96-.31-1.45-.43-2.08-.46-4.22-.18-6.21.76a9.51 9.51 0 0 0-2.63 1.84 8.08 8.08 0 0 0-1.78 2.6c.49.31 1.03.55 1.58.73m-.03.08c-.6-.2-1.16-.46-1.67-.78a8.018 8.018 0 0 1 1.85-2.7c.77-.76 1.68-1.39 2.64-1.85.96-.44 1.99-.77 3.05-.9 1.05-.11 2.14-.12 3.22.14.53.13 1.05.26 1.53.46-.45 2.22-1.78 4.09-3.72 5.14-.48.27-1 .49-1.55.66-.54.16-1.11.26-1.7.3-.59.04-1.2.05-1.81-.03-.61-.09-1.22-.24-1.83-.44ZM39.74 85.23c1.53.9 2.66 2.36 3.27 4.3.6 1.93.65 4.09-.08 6.15-.5-.09-1-.23-1.48-.42a7.056 7.056 0 0 1-2.49-1.8c-.66-.8-1.15-1.7-1.41-2.72-.51-2.05-.11-4.15 1-6.04.42.13.82.3 1.19.51Z"/><path class="cls-2" d="M41.48 95.23c.46.18.94.32 1.43.41.71-2.04.66-4.17.07-6.09-.61-1.94-1.73-3.39-3.26-4.28-.36-.21-.76-.37-1.16-.5-1.08 1.86-1.47 3.94-.97 5.97.26 1.01.75 1.91 1.41 2.7.67.76 1.52 1.37 2.48 1.79m-.03.08a6.955 6.955 0 0 1-2.54-1.86c-.66-.81-1.14-1.7-1.39-2.69-.5-2-.14-4.14 1.02-6.1.42.14.84.3 1.23.53 1.59.93 2.69 2.44 3.28 4.32.58 1.88.68 4.07-.08 6.22a7.68 7.68 0 0 1-1.52-.43ZM41.15 96.01c.48.19.95.43 1.39.71-.82 1.99-2.4 3.61-4.56 4.32-2.16.72-4.68.47-6.83-.78-.52-.3-1.02-.64-1.47-1.03 1.18-1.81 3.09-3.06 5.19-3.61 1.07-.28 2.16-.41 3.2-.33 1.06.06 2.09.29 3.07.72Z"/><path class="cls-2" d="M31.17 100.23c2.13 1.24 4.64 1.49 6.79.77 2.13-.7 3.7-2.29 4.52-4.26-.43-.27-.88-.5-1.35-.69-.98-.42-2.01-.66-3.06-.71-1.04-.09-2.12.04-3.19.33-2.08.54-3.96 1.78-5.14 3.56.44.37.92.7 1.43.99m-.04.08c-.54-.32-1.06-.66-1.51-1.06 1.23-1.89 3.2-3.13 5.24-3.66 1.03-.27 2.11-.41 3.16-.33 1.06.05 2.12.28 3.14.72.51.2.98.45 1.43.73-.84 2.09-2.5 3.69-4.6 4.38-2.08.7-4.63.52-6.87-.78ZM33.09 80.58c.67.59 1.24 1.26 1.63 2.09.42.8.69 1.72.81 2.74.26 1.98-.11 4.15-1.19 6.04-.47-.18-.93-.42-1.36-.7-.9-.55-1.59-1.36-2.13-2.22-.52-.88-.81-1.9-.9-2.93-.14-2.1.66-4.12 2.07-5.76.39.2.75.45 1.08.73Z"/><path class="cls-2" d="M32.99 90.72c.42.27.86.5 1.32.68a9.573 9.573 0 0 0 1.17-5.97 7.77 7.77 0 0 0-.8-2.73c-.39-.83-.96-1.49-1.62-2.08-.32-.28-.67-.52-1.04-.71-1.39 1.63-2.17 3.63-2.04 5.7.09 1.03.38 2.04.89 2.91.53.85 1.22 1.66 2.12 2.21m-.05.07c-.47-.29-.88-.64-1.24-1.03a7.37 7.37 0 0 1-.93-1.25c-.51-.9-.79-1.9-.88-2.9-.13-2.04.63-4.11 2.11-5.82.4.2.77.45 1.11.75.7.61 1.27 1.3 1.65 2.15.42.8.68 1.72.79 2.71.25 1.92-.08 4.14-1.21 6.1-.48-.18-.95-.42-1.41-.71ZM32.53 91.43c.44.28.85.6 1.23.97-1.18 1.82-3 3.08-5.27 3.42a8.48 8.48 0 0 1-3.42-.28c-1.1-.37-2.21-.91-3.14-1.73-.45-.39-.88-.82-1.25-1.28 1.5-1.58 3.58-2.44 5.75-2.61 1.12-.1 2.18 0 3.21.26 1.04.23 1.98.7 2.9 1.26Z"/><path class="cls-2" d="M21.95 93.78c.93.81 2.03 1.35 3.12 1.72 1.13.33 2.29.42 3.4.28 2.25-.33 4.05-1.57 5.22-3.36-.37-.35-.77-.66-1.19-.94-.91-.56-1.84-1.02-2.88-1.25a9.652 9.652 0 0 0-3.19-.26c-2.16.17-4.21 1.02-5.7 2.57.37.44.78.86 1.22 1.24m-.06.07c-.48-.41-.91-.86-1.28-1.32 1.56-1.65 3.7-2.48 5.81-2.64 1.08-.1 2.14 0 3.17.25.52.12 1.03.28 1.52.5.49.22.97.48 1.44.77.46.29.88.63 1.26 1-1.22 1.91-3.1 3.14-5.32 3.47-1.08.14-2.24.06-3.38-.26-1.11-.36-2.25-.91-3.22-1.76ZM27.38 74.81c.58.67.97 1.48 1.23 2.34.27.85.35 1.84.3 2.84-.11 2-.87 4.08-2.27 5.73-.45-.25-.84-.58-1.22-.93-.38-.37-.73-.75-1.01-1.19-.28-.44-.5-.9-.68-1.38-.37-.94-.46-2.01-.35-3.04.22-2.07 1.4-3.94 3.08-5.29.34.27.65.58.91.92Z"/><path class="cls-2" d="M25.46 84.76c.36.34.75.66 1.18.91A9.768 9.768 0 0 0 28.88 80c.05-1-.03-1.98-.3-2.83-.26-.86-.65-1.66-1.23-2.33-.26-.33-.56-.63-.89-.9-.83.68-1.53 1.47-2.05 2.35-.52.89-.88 1.87-.98 2.89-.11 1.03-.02 2.09.35 3.03.18.48.4.93.68 1.37.28.43.63.82 1 1.18m-.06.06a6.699 6.699 0 0 1-2.06-5.65c.21-2.01 1.37-3.94 3.13-5.34.35.27.66.59.94.95.61.7.99 1.53 1.25 2.4.27.86.33 1.84.29 2.81-.11 1.94-.84 4.07-2.3 5.78-.46-.25-.86-.59-1.26-.95ZM24.87 85.37c.38.35.71.77 1.03 1.17-1.5 1.59-3.51 2.49-5.8 2.4-1.16-.04-2.26-.37-3.32-.89-1.05-.53-1.98-1.32-2.79-2.26-.37-.47-.7-.98-.99-1.5 1.77-1.29 3.93-1.73 6.13-1.53 1.11.1 2.13.42 3.11.83.48.22.94.47 1.37.78.43.3.86.61 1.25.99Z"/><path class="cls-2" d="M14.04 85.77c.8.93 1.73 1.71 2.77 2.24 1.06.52 2.15.85 3.3.89 2.27.08 4.25-.79 5.74-2.36-.31-.39-.63-.79-1-1.14-.38-.37-.81-.69-1.24-.98-.43-.3-.88-.56-1.37-.77-.98-.42-1.98-.73-3.09-.83-2.18-.2-4.31.24-6.07 1.5.28.51.6 1 .96 1.45m-.07.06c-.39-.49-.73-1.01-1.01-1.54 1.84-1.35 4.06-1.75 6.19-1.55 2.13.22 4.13 1.09 5.75 2.61.4.37.73.8 1.06 1.2-1.55 1.67-3.63 2.53-5.85 2.45-1.12-.03-2.21-.35-3.28-.87-1.06-.52-2.02-1.32-2.86-2.3ZM22.82 68.09c.45.77.67 1.64.79 2.53.1.9 0 1.87-.22 2.85-.23.98-.65 1.95-1.19 2.83-.54.88-1.23 1.7-2.07 2.39a5.87 5.87 0 0 1-1.04-1.13c-.62-.86-1.04-1.82-1.19-2.84-.08-.5-.12-1.01-.09-1.52.04-.52.14-1.03.29-1.54.59-1.99 2.09-3.61 3.99-4.64.29.33.51.7.74 1.07Z"/><path class="cls-2" d="M19.12 77.53c.28.41.62.78 1 1.1.83-.68 1.51-1.49 2.05-2.36.54-.88.94-1.84 1.18-2.81.47-1.96.3-3.81-.56-5.35-.22-.36-.43-.72-.71-1.04-1.88 1.03-3.35 2.63-3.93 4.6-.15.5-.25 1.01-.29 1.53-.03.5 0 1.01.09 1.51.15 1.01.57 1.97 1.19 2.82m-.07.05c-.32-.45-.58-.92-.79-1.4-.21-.49-.33-1-.41-1.51-.08-.51-.11-1.02-.08-1.52.04-.51.14-1.01.29-1.5.57-1.94 2.05-3.62 4.04-4.68.3.33.52.71.76 1.1.47.8.68 1.69.79 2.59.09.91 0 1.87-.23 2.81-.23.95-.64 1.92-1.18 2.82-.54.9-1.25 1.74-2.13 2.45-.4-.33-.77-.72-1.07-1.16ZM18.44 78.03c.29.43.57.87.81 1.33-1.75 1.29-3.92 1.83-6.14 1.32-2.24-.49-4.22-2.04-5.44-4.2-.31-.52-.52-1.09-.7-1.65 1.97-.94 4.18-.99 6.31-.39.53.16 1.04.35 1.51.59.49.23.96.49 1.39.79.85.62 1.63 1.34 2.25 2.21Z"/><path class="cls-2" d="M7.71 76.46c1.2 2.15 3.17 3.69 5.4 4.18 1.1.25 2.18.25 3.2.03 1.04-.23 2-.68 2.87-1.31-.24-.44-.5-.88-.79-1.29-.62-.87-1.4-1.59-2.24-2.2-.43-.3-.89-.56-1.39-.79a9.11 9.11 0 0 0-1.51-.59c-2.1-.6-4.3-.55-6.24.37.18.55.39 1.1.69 1.6m-.08.04c-.32-.54-.53-1.13-.72-1.7 2.05-.99 4.31-.98 6.37-.4.51.15 1.01.34 1.48.57.48.23.95.48 1.39.79.44.3.84.65 1.23 1.02.4.37.76.78 1.08 1.23.31.45.59.9.83 1.37-1.82 1.36-4.05 1.85-6.2 1.35-1.09-.23-2.13-.73-3.07-1.45-.96-.7-1.75-1.67-2.4-2.78ZM19.57 60.67c.14.42.23.85.27 1.3.06.43.07.88.03 1.33-.09.91-.32 1.83-.74 2.76-.43.93-1 1.8-1.68 2.57a9.42 9.42 0 0 1-2.48 1.97c-.31-.4-.61-.83-.82-1.29-.9-1.92-.87-4.11.11-5.98.97-1.86 2.69-3.16 4.77-3.83.2.38.41.77.54 1.18Z"/><path class="cls-2" d="M14.2 69.28c.21.45.49.87.8 1.26 1.89-1.05 3.26-2.66 4.11-4.49.42-.92.64-1.84.73-2.75.04-.45.03-.89-.04-1.32-.04-.44-.13-.87-.27-1.29-.13-.4-.33-.78-.52-1.15-2.05.67-3.74 1.96-4.7 3.8-.97 1.85-1 4.04-.11 5.94m-.08.04c-.93-2-.84-4.21.11-6.01.94-1.81 2.65-3.17 4.83-3.86.2.39.41.78.56 1.21.15.44.23.88.28 1.33.06.44.07.9.02 1.35-.1.92-.33 1.83-.73 2.72-.41.9-.97 1.77-1.66 2.55a9.52 9.52 0 0 1-2.55 2.03c-.32-.41-.62-.84-.85-1.33ZM13.43 69.65c.22.47.42.95.56 1.45-.98.47-2.02.74-3.09.79-1.08.05-2.16-.15-3.19-.61a7.576 7.576 0 0 1-2.78-2.02c-.39-.44-.74-.92-1.06-1.44-.29-.53-.54-1.09-.74-1.67-.19-.57-.35-1.15-.4-1.75 2.08-.56 4.32-.22 6.28.77 1.97 1.01 3.51 2.54 4.41 4.48Z"/><path class="cls-2" d="M3.19 66.13c.2.58.44 1.14.73 1.66.31.51.66.99 1.05 1.43a7.63 7.63 0 0 0 2.77 2.01c2.04.91 4.29.76 6.21-.16-.14-.49-.34-.95-.55-1.41-.9-1.93-2.43-3.45-4.39-4.46-1.93-.98-4.15-1.32-6.21-.77.05.58.21 1.14.4 1.7m-.08.03c-.2-.6-.36-1.2-.41-1.8 1.1-.3 2.19-.34 3.27-.19 1.08.15 2.13.48 3.07.96 1.9.97 3.49 2.48 4.43 4.5.23.49.44.99.58 1.49-1.02.5-2.09.77-3.17.81-1.09.04-2.17-.16-3.17-.61-1.01-.44-1.98-1.1-2.75-1.98-.4-.44-.76-.93-1.08-1.45-.31-.53-.56-1.11-.77-1.72ZM17.73 52.78c.09.89.09 1.76-.18 2.64-.24.87-.63 1.74-1.23 2.58-1.15 1.65-2.85 3.02-4.92 3.7-.23-.45-.42-.93-.56-1.43-.29-1.02-.28-2.08-.11-3.07.22-1 .66-1.96 1.29-2.78 1.31-1.66 3.25-2.62 5.39-2.9.15.41.26.83.31 1.26Z"/><path class="cls-2" d="M10.88 60.27c.14.48.32.95.54 1.39 2.05-.68 3.72-2.03 4.86-3.67.6-.84.98-1.69 1.22-2.57.27-.88.27-1.75.18-2.63-.05-.42-.15-.83-.3-1.23-2.12.28-4.04 1.25-5.33 2.88-.62.82-1.07 1.77-1.28 2.77-.17.99-.18 2.04.11 3.05m-.08.02c-.3-1.06-.28-2.15-.1-3.14a7.07 7.07 0 0 1 1.29-2.74c1.27-1.61 3.21-2.64 5.46-2.92.16.41.27.85.33 1.3.1.92.08 1.81-.2 2.7-.24.88-.64 1.73-1.22 2.54-1.11 1.6-2.81 3.03-4.97 3.73-.24-.46-.43-.95-.58-1.47ZM10.06 60.49c.14.5.24 1.02.28 1.54-2.08.57-4.31.3-6.21-.97a8.296 8.296 0 0 1-2.37-2.49C1.18 57.56.71 56.41.57 55.18c-.08-.6-.1-1.2-.07-1.79 2.17-.17 4.3.57 6.02 1.9.9.67 1.64 1.46 2.21 2.34.63.87 1.03 1.84 1.32 2.87Z"/><path class="cls-2" d="M.62 55.16c.14 1.22.61 2.36 1.18 3.37.6 1 1.43 1.84 2.35 2.48 1.88 1.26 4.07 1.53 6.14.98-.04-.51-.14-1.01-.27-1.49-.29-1.03-.69-1.99-1.31-2.86a9.29 9.29 0 0 0-2.2-2.32C4.8 54 2.7 53.27.56 53.43c-.02.58 0 1.16.08 1.74m-.09.01c-.08-.62-.1-1.24-.07-1.84 2.26-.18 4.42.62 6.09 1.92.87.65 1.61 1.42 2.19 2.3.64.87 1.06 1.86 1.36 2.93.15.52.24 1.05.28 1.58-2.18.61-4.43.27-6.27-.96-.9-.62-1.72-1.45-2.35-2.46C1.19 57.64.7 56.47.55 55.19ZM17.35 44.67c-.09 1.78-.9 3.45-2.34 4.89-1.42 1.42-3.38 2.46-5.52 2.75-.17-.48-.24-1-.28-1.51-.04-.53-.03-1.05.04-1.56.09-.51.23-1.01.42-1.48.19-.47.42-.93.72-1.35.31-.42.66-.81 1.06-1.16 1.56-1.4 3.62-2 5.81-1.89.04.43.11.87.09 1.3Z"/><path class="cls-2" d="M9.26 50.8c.04.5.11.99.27 1.46 2.11-.29 4.05-1.32 5.45-2.72 1.44-1.43 2.24-3.1 2.33-4.87.02-.42-.05-.85-.09-1.26-2.16-.1-4.19.5-5.74 1.88-.39.35-.74.73-1.05 1.15-.3.42-.52.87-.72 1.34-.19.47-.33.97-.42 1.47-.07.51-.08 1.03-.04 1.55m-.09 0c-.04-.55-.03-1.09.05-1.61.1-.52.24-1.03.44-1.5.37-.95 1-1.79 1.77-2.47.76-.68 1.66-1.19 2.65-1.51.99-.32 2.1-.45 3.23-.39.05.43.11.88.09 1.34-.09 1.85-.96 3.53-2.35 4.91-1.38 1.37-3.35 2.47-5.58 2.77-.18-.49-.25-1.01-.3-1.55ZM8.41 50.86c.05.52.01 1.04-.02 1.56-2.18.18-4.27-.49-5.92-2.08C.83 48.75-.07 46.4.04 43.93c.03-.6.07-1.2.24-1.77 2.14.22 4.12 1.33 5.6 2.95.37.41.7.84.98 1.29.28.45.56.92.77 1.4.21.48.38.98.5 1.49.14.51.23 1.03.27 1.57Z"/><path class="cls-2" d="M.1 43.93c-.12 2.46.78 4.79 2.41 6.37 1.63 1.57 3.69 2.25 5.85 2.08.03-.5.06-1.01.01-1.52a9.09 9.09 0 0 0-.27-1.56c-.12-.51-.28-1.01-.49-1.49-.21-.48-.48-.95-.77-1.4-.28-.45-.6-.88-.97-1.29-1.46-1.6-3.42-2.7-5.54-2.93-.16.56-.2 1.14-.23 1.72m-.09 0c.03-.63.08-1.24.25-1.82 1.13.11 2.16.46 3.13.98.96.52 1.82 1.2 2.54 1.99.71.79 1.27 1.69 1.73 2.66.22.49.39.99.51 1.51.14.52.24 1.06.28 1.61.05.54 0 1.08-.02 1.6-2.27.21-4.39-.54-5.99-2.09C.87 48.84-.11 46.5.01 43.93ZM18.43 36.63c-.2.87-.61 1.66-1.1 2.4-.51.74-1.26 1.39-2.08 1.97a9.655 9.655 0 0 1-5.91 1.71c-.05-.51-.05-1.02 0-1.53.06-.52.14-1.04.32-1.53s.41-.95.68-1.38c.27-.43.59-.83.94-1.19.36-.36.8-.67 1.24-.95 1.81-1.08 3.92-1.31 6.05-.8 0 .44-.04.87-.14 1.29Z"/><path class="cls-2" d="M9.38 41.19c-.05.49-.05 1 0 1.49a9.57 9.57 0 0 0 5.84-1.7c.82-.57 1.56-1.23 2.07-1.96.5-.74.9-1.53 1.1-2.39.09-.41.13-.83.14-1.26-2.1-.49-4.19-.27-5.98.81-.92.54-1.64 1.27-2.17 2.13-.27.43-.5.89-.68 1.37-.18.48-.26 1-.32 1.52m-.09 0c.06-.55.14-1.08.33-1.57.19-.5.43-.96.7-1.4.28-.43.6-.83.95-1.19.36-.35.79-.66 1.22-.92 1.76-1.05 3.9-1.34 6.12-.79-.01.44-.04.89-.14 1.33-.1.45-.26.88-.46 1.28-.21.41-.4.8-.68 1.17-.52.74-1.27 1.38-2.06 1.94a9.729 9.729 0 0 1-5.98 1.72c-.06-.51-.06-1.04 0-1.58ZM8.53 41.1c-.05.52-.15 1.03-.3 1.53-2.16-.21-4.1-1.25-5.45-3.11-.69-.94-1.08-2.01-1.31-3.17-.25-1.16-.19-2.38.09-3.59.14-.59.31-1.16.55-1.71 2.07.61 3.83 2.07 4.97 3.93.29.47.52.95.73 1.45.22.5.39 1.01.51 1.52s.19 1.03.22 1.56c.02.52.05 1.06-.01 1.59Z"/><path class="cls-2" d="M1.6 32.77c-.27 1.2-.34 2.41-.09 3.57.23 1.15.63 2.22 1.31 3.15 1.33 1.84 3.25 2.88 5.39 3.1.14-.49.24-.99.29-1.49.06-.53.03-1.06.01-1.58-.02-.52-.09-1.04-.21-1.55-.25-1.02-.69-2.02-1.24-2.96-1.13-1.84-2.87-3.28-4.92-3.89-.23.53-.4 1.09-.53 1.66m-.08-.02c.14-.61.32-1.21.57-1.75 2.16.63 3.92 2.16 5.03 3.96.28.45.5.92.72 1.41.22.49.39 1 .52 1.51.13.52.21 1.04.23 1.58.02.53.05 1.09 0 1.64-.05.54-.16 1.07-.31 1.57a7.532 7.532 0 0 1-5.52-3.13c-.67-.9-1.06-1.96-1.31-3.12-.11-.58-.2-1.19-.17-1.8.02-.61.11-1.24.25-1.87ZM20.96 28.94c-.18.41-.4.79-.67 1.14-.26.36-.53.7-.86 1.01-.64.63-1.51 1.14-2.4 1.56a9.764 9.764 0 0 1-6.14.6c.04-.51.14-1.01.28-1.51.15-.51.34-.99.59-1.44.27-.44.58-.86.93-1.23.7-.75 1.53-1.35 2.54-1.71 1.98-.73 4.1-.56 6.09.32-.08.43-.2.85-.37 1.25Z"/><path class="cls-2" d="M11.22 31.76c-.14.48-.23.97-.28 1.46 2.09.48 4.27.21 6.07-.6.89-.42 1.75-.92 2.39-1.55.33-.31.59-.65.86-1.01.27-.35.49-.73.66-1.14.17-.39.28-.79.36-1.21-1.97-.87-4.07-1.03-6.03-.3-1.01.36-1.83.95-2.53 1.7-.35.37-.66.78-.92 1.22-.24.45-.43.93-.58 1.44m-.08-.02c.16-.53.35-1.03.61-1.49.28-.45.6-.87.95-1.24.7-.75 1.54-1.33 2.52-1.68 1.92-.71 4.08-.6 6.16.34-.09.43-.2.87-.38 1.28-.18.42-.41.82-.69 1.18-.26.37-.54.71-.88 1.02-.65.63-1.51 1.13-2.37 1.53-1.77.79-4 1.12-6.2.6.04-.51.13-1.03.28-1.55ZM10.41 31.52c-.15.5-.34.99-.58 1.45-2.09-.6-3.8-1.97-4.78-4.05-.52-1.05-.7-2.18-.72-3.36 0-.59.04-1.19.17-1.78.14-.58.33-1.17.57-1.74.24-.55.52-1.09.85-1.58 1.93.98 3.39 2.74 4.17 4.77.37 1.02.63 2.09.68 3.15.02.53 0 1.05-.08 1.57-.05.53-.14 1.05-.3 1.56Z"/><path class="cls-2" d="M5.11 22.06c-.24.57-.43 1.14-.57 1.72a8.11 8.11 0 0 0-.17 1.77c.02 1.18.2 2.29.71 3.34.97 2.06 2.66 3.42 4.72 4.03.23-.45.42-.93.56-1.41.15-.51.24-1.03.29-1.56.08-.52.1-1.04.08-1.56-.05-1.05-.31-2.12-.68-3.13-.77-2.01-2.21-3.75-4.12-4.73-.32.48-.59 1-.82 1.53m-.08-.03c.25-.58.54-1.13.88-1.62 2.01 1.02 3.46 2.84 4.22 4.81.36.98.62 2.04.68 3.11.03.53 0 1.06-.07 1.59-.06.54-.14 1.08-.3 1.61-.15.52-.35 1.02-.6 1.49-2.18-.61-3.89-2.06-4.84-4.08-.5-1.01-.7-2.13-.72-3.31 0-.59.03-1.2.16-1.81.14-.6.33-1.2.59-1.79ZM24.85 21.83c-.25.37-.54.71-.86 1.01-.33.3-.65.6-1.03.84-.74.5-1.69.84-2.64 1.1a9.76 9.76 0 0 1-6.14-.53c.13-.49.32-.97.55-1.43.24-.47.52-.91.84-1.31.35-.39.73-.74 1.14-1.04.82-.61 1.75-1.04 2.81-1.21 2.08-.36 4.13.19 5.94 1.43-.17.4-.35.8-.6 1.16Z"/><path class="cls-2" d="M14.76 22.83c-.22.44-.41.91-.54 1.39 1.97.85 4.16.98 6.08.52.95-.25 1.89-.59 2.63-1.09.38-.24.7-.54 1.03-.84a5.475 5.475 0 0 0 1.44-2.13c-1.78-1.21-3.82-1.75-5.88-1.39-1.06.17-1.98.6-2.79 1.21-.41.3-.79.65-1.13 1.04-.32.4-.6.84-.83 1.31m-.08-.04c.25-.49.53-.95.87-1.35.36-.39.75-.75 1.16-1.05a6.45 6.45 0 0 1 2.78-1.19c2.02-.35 4.12.15 6 1.46-.17.41-.36.82-.61 1.19-.26.39-.56.73-.89 1.03-.33.31-.67.6-1.05.85-.76.5-1.69.83-2.61 1.08-1.88.46-4.13.37-6.21-.55.13-.5.32-.99.56-1.47ZM14 22.45c-.23.46-.51.91-.84 1.32-1.94-.97-3.38-2.64-3.96-4.86-.32-1.13-.29-2.27-.09-3.43.11-.58.25-1.16.49-1.71s.53-1.09.88-1.6c.34-.5.7-.98 1.13-1.39 1.71 1.31 2.83 3.3 3.23 5.45.18 1.07.24 2.17.1 3.22-.07.52-.19 1.03-.36 1.53a7.84 7.84 0 0 1-.58 1.48Z"/><path class="cls-2" d="M10.52 12.19c-.34.51-.63 1.05-.87 1.59-.24.55-.38 1.13-.49 1.7-.2 1.16-.22 2.29.09 3.41.58 2.2 1.99 3.85 3.91 4.82a8.073 8.073 0 0 0 1.38-2.77c.17-.49.29-1 .36-1.52.14-1.04.08-2.14-.1-3.2-.39-2.12-1.5-4.09-3.19-5.4-.41.41-.76.87-1.09 1.36m-.07-.05c.35-.52.73-1.01 1.16-1.43 1.79 1.36 2.89 3.42 3.27 5.5.18 1.03.23 2.12.1 3.18a8.12 8.12 0 0 1-.36 1.55c-.15.52-.34 1.03-.59 1.53-.25.49-.53.94-.86 1.35-2.03-1-3.45-2.74-4.02-4.9-.3-1.09-.3-2.22-.1-3.39.11-.58.25-1.18.49-1.74s.54-1.12.9-1.65ZM28.94 8.63c-.81.74-1.77 1.27-2.82 1.61-1.02.37-2.16.54-3.34.49-.08-.51-.1-1.04-.07-1.57.09-1.96 1.07-3.8 2.57-5.14.95-.77 2.03-1.35 3.18-1.61 1.16-.25 2.35-.24 3.47.05a8.89 8.89 0 0 1-.23 1.56c-.21.94-.59 1.77-1.04 2.56-.45.79-1.02 1.49-1.72 2.05Z"/><path class="cls-2" d="M25.3 4.06c-1.49 1.33-2.46 3.15-2.55 5.11-.03.51-.01 1.02.06 1.52 1.17.05 2.3-.12 3.31-.49 1.05-.33 2-.86 2.8-1.59.69-.56 1.27-1.25 1.71-2.04.45-.79.82-1.61 1.03-2.55.11-.49.19-1 .22-1.52-1.11-.28-2.29-.28-3.44-.03-1.14.26-2.2.84-3.14 1.6M25.24 4c.93-.75 1.99-1.34 3.15-1.62 1.17-.26 2.39-.26 3.57.05-.03.54-.11 1.08-.23 1.61-.22.99-.61 1.83-1.07 2.61-.45.79-1.03 1.47-1.71 2.02a7.48 7.48 0 0 1-2.8 1.6c-1.03.38-2.19.56-3.43.5-.08-.52-.11-1.06-.07-1.61.1-2.06 1.12-3.87 2.58-5.17ZM29.98 15.52c-.62.64-1.39 1.11-2.2 1.48-.82.36-1.81.53-2.8.6a9.65 9.65 0 0 1-5.94-1.63c.22-.46.49-.9.8-1.31.32-.42.67-.81 1.07-1.14.41-.32.85-.6 1.31-.82.46-.23.94-.4 1.43-.53.5-.12 1.03-.16 1.56-.16 2.1.01 4.04.93 5.59 2.48-.25.35-.5.72-.8 1.03Z"/><path class="cls-2" d="M19.87 14.69c-.3.4-.56.83-.78 1.27a9.597 9.597 0 0 0 5.88 1.6c.99-.07 1.97-.24 2.79-.6.81-.37 1.58-.83 2.19-1.47.3-.3.54-.65.78-1-1.54-1.52-3.45-2.42-5.53-2.43-.52 0-1.06.04-1.55.16s-.97.3-1.42.52c-.46.23-.89.5-1.3.82-.4.33-.74.72-1.06 1.13m-.07-.05c.34-.44.69-.84 1.11-1.17.42-.33.87-.6 1.33-.83.46-.22.94-.4 1.43-.52.5-.11 1.02-.15 1.53-.15 2.04 0 4.03.89 5.64 2.52-.26.36-.5.74-.82 1.06-.65.67-1.44 1.14-2.26 1.5-.83.36-1.82.52-2.77.59a9.8 9.8 0 0 1-6.01-1.66c.22-.47.5-.92.82-1.35ZM19.19 14.18c-.31.42-.67.8-1.06 1.15-1.73-1.31-2.84-3.21-3.01-5.5-.1-1.16.13-2.28.54-3.39.4-1.12 1.09-2.13 1.95-3.02.42-.43.86-.84 1.37-1.16 1.44 1.6 2.18 3.75 2.19 5.94 0 .55-.05 1.09-.13 1.62-.07.54-.19 1.06-.36 1.57-.17.5-.38.99-.63 1.44-.25.46-.51.93-.84 1.35Z"/><path class="cls-2" d="M17.64 3.44c-.86.89-1.55 1.88-1.94 3-.4 1.11-.63 2.22-.53 3.37.17 2.27 1.26 4.16 2.97 5.46.38-.34.72-.72 1.03-1.12.33-.42.59-.88.84-1.35.26-.46.47-.94.63-1.44.16-.5.28-1.02.36-1.56.08-.53.14-1.06.13-1.61 0-2.16-.73-4.3-2.15-5.89-.49.32-.91.72-1.32 1.13m-.06-.06c.45-.45.89-.87 1.41-1.19 1.51 1.66 2.21 3.88 2.22 6 0 .53-.05 1.06-.13 1.58-.07.53-.19 1.06-.35 1.57-.16.51-.37 1-.63 1.47s-.52.95-.87 1.4c-.33.44-.7.83-1.09 1.18-1.82-1.35-2.9-3.32-3.06-5.55-.1-1.12.12-2.23.52-3.35.39-1.13 1.09-2.17 1.98-3.09Z"/><path class="cls-1" d="M23.59 65.65c-2.21 0-4-1.79-4-4V55.6c0-1.1.45-2.15 1.25-2.91L36.39 38c1.3-1.18 1.9-1.91 2.19-2.33.44-.64.56-1.01.6-1.14.11-.42.16-.79.16-1.11 0-.47-.09-.55-.15-.6-.18-.15-.88-.41-2.3-.41-1.12 0-2.1.21-2.97.63-.84.41-1.55 1.01-2.17 1.84a3.987 3.987 0 0 1-5.39.97l-6.74-4.38a4.01 4.01 0 0 1-1.73-2.52c-.22-1.04-.02-2.12.56-3.01 1.89-2.91 4.58-5.23 8-6.89 3.3-1.61 7.11-2.42 11.31-2.42 3.52 0 6.7.59 9.45 1.76 2.96 1.25 5.31 3.11 6.99 5.51 1.72 2.46 2.59 5.38 2.59 8.66 0 1.62-.23 3.28-.69 4.93-.48 1.71-1.33 3.48-2.53 5.25-1.14 1.68-2.72 3.47-4.84 5.46l-1.96 1.84h7.35c2.21 0 4 1.79 4 4v7.6c0 2.21-1.79 4-4 4H23.59Z"/><path class="cls-1" d="M23.59 65.65c-2.21 0-4-1.79-4-4V55.6c0-1.1.45-2.15 1.25-2.91L36.39 38c1.3-1.18 1.9-1.91 2.19-2.33.44-.64.56-1.01.6-1.14.11-.42.16-.79.16-1.11 0-.47-.09-.55-.15-.6-.18-.15-.88-.41-2.3-.41-1.12 0-2.1.21-2.97.63-.84.41-1.55 1.01-2.17 1.84a3.987 3.987 0 0 1-5.39.97l-6.74-4.38a4.01 4.01 0 0 1-1.73-2.52c-.22-1.04-.02-2.12.56-3.01 1.89-2.91 4.58-5.23 8-6.89 3.3-1.61 7.11-2.42 11.31-2.42 3.52 0 6.7.59 9.45 1.76 2.96 1.25 5.31 3.11 6.99 5.51 1.72 2.46 2.59 5.38 2.59 8.66 0 1.62-.23 3.28-.69 4.93-.48 1.71-1.33 3.48-2.53 5.25-1.14 1.68-2.72 3.47-4.84 5.46l-1.96 1.84h7.35c2.21 0 4 1.79 4 4v7.6c0 2.21-1.79 4-4 4H23.59Z"/><path class="cls-1" d="M73.09 66.34c-4.05 0-7.75-1.03-10.97-3.06-3.22-2.03-5.78-4.96-7.62-8.71-1.78-3.63-2.68-8.03-2.68-13.08s.9-9.45 2.68-13.08c1.84-3.75 4.41-6.68 7.62-8.71 3.23-2.03 6.92-3.06 10.97-3.06s7.8 1.03 11.03 3.06c3.22 2.03 5.78 4.96 7.62 8.71 1.78 3.63 2.68 8.03 2.68 13.08s-.9 9.45-2.68 13.08c-1.84 3.75-4.41 6.68-7.62 8.71-3.23 2.03-6.94 3.06-11.03 3.06Zm0-33.87c-.62 0-1.12.17-1.62.54-.55.42-1.06 1.25-1.48 2.4-.53 1.47-.8 3.52-.8 6.08s.27 4.6.8 6.08c.42 1.15.92 1.98 1.47 2.4.5.38 1 .54 1.62.54.69 0 1.21-.16 1.68-.52.53-.41 1.03-1.24 1.43-2.39.52-1.49.78-3.54.78-6.11s-.26-4.62-.78-6.11c-.4-1.15-.9-1.97-1.43-2.39-.47-.36-.99-.52-1.68-.52Z"/><path class="cls-1" d="M73.09 66.34c-4.05 0-7.75-1.03-10.97-3.06-3.22-2.03-5.78-4.96-7.62-8.71-1.78-3.63-2.68-8.03-2.68-13.08s.9-9.45 2.68-13.08c1.84-3.75 4.41-6.68 7.62-8.71 3.23-2.03 6.92-3.06 10.97-3.06s7.8 1.03 11.03 3.06c3.22 2.03 5.78 4.96 7.62 8.71 1.78 3.63 2.68 8.03 2.68 13.08s-.9 9.45-2.68 13.08c-1.84 3.75-4.41 6.68-7.62 8.71-3.23 2.03-6.94 3.06-11.03 3.06Zm0-33.87c-.62 0-1.12.17-1.62.54-.55.42-1.06 1.25-1.48 2.4-.53 1.47-.8 3.52-.8 6.08s.27 4.6.8 6.08c.42 1.15.92 1.98 1.47 2.4.5.38 1 .54 1.62.54.69 0 1.21-.16 1.68-.52.53-.41 1.03-1.24 1.43-2.39.52-1.49.78-3.54.78-6.11s-.26-4.62-.78-6.11c-.4-1.15-.9-1.97-1.43-2.39-.47-.36-.99-.52-1.68-.52Z"/><path class="cls-1" d="M104.34 65.41c-2.21 0-4-1.79-4-4v-.95h-8.67c-2.21 0-4-1.79-4-4V52.6c0-1.35.67-2.55 1.7-3.28a3.967 3.967 0 0 1-1.51-2.22c-.28-1.05-.11-2.17.46-3.1 1.03-1.69 1.96-3.44 2.78-5.21.81-1.76 1.52-3.59 2.09-5.41a4.003 4.003 0 0 1 4.55-2.72l4.44.83c1.12.21 2.1.89 2.69 1.87.02.04.04.07.06.11h12.35c2.21 0 4 1.79 4 4v3.74c0 .99-.36 1.9-.96 2.6.06.28.1.58.1.88v3.74c0 .21-.02.42-.05.63 1.25.68 2.09 2 2.09 3.52v3.86c0 2.21-1.79 4-4 4h-5.42v.95c0 2.21-1.79 4-4 4h-4.69Z"/><path class="cls-1" d="M104.34 65.41c-2.21 0-4-1.79-4-4v-.95h-8.67c-2.21 0-4-1.79-4-4V52.6c0-1.35.67-2.55 1.7-3.28a3.967 3.967 0 0 1-1.51-2.22c-.28-1.05-.11-2.17.46-3.1 1.03-1.69 1.96-3.44 2.78-5.21.81-1.76 1.52-3.59 2.09-5.41a4.003 4.003 0 0 1 4.55-2.72l4.44.83c1.12.21 2.1.89 2.69 1.87.02.04.04.07.06.11h12.35c2.21 0 4 1.79 4 4v3.74c0 .99-.36 1.9-.96 2.6.06.28.1.58.1.88v3.74c0 .21-.02.42-.05.63 1.25.68 2.09 2 2.09 3.52v3.86c0 2.21-1.79 4-4 4h-5.42v.95c0 2.21-1.79 4-4 4h-4.69ZM25.24 84.17c-.59 0-1.18-.13-1.73-.39L21.87 83a3.99 3.99 0 0 1-2.14-4.62c.18-.69.32-1.45.43-2.27.05-.41.1-.82.13-1.23-.27-.54-.42-1.14-.42-1.78v-1.82c0-.53.1-1.04.29-1.51v-1.36c0-1.83 1.22-3.37 2.9-3.85a3.99 3.99 0 0 1 3.06-1.43h2.13c.79 0 1.54.23 2.16.63h6.2c2.21 0 4 1.79 4 4 0 .94-.01 1.73-.04 2.36-.03.83-.11 1.51-.23 2.09-.02.08-.03.16-.05.24.03.19.04.39.04.58v3.46c.26.58.38 1.23.34 1.88l-.11 1.82a4.005 4.005 0 0 1-3.99 3.76h-3.43c-1.22 0-2.3-.03-3.22-.1-.92-.07-1.72-.18-2.46-.34-.16.11-.34.21-.52.29-.54.25-1.12.38-1.7.38Z"/><path class="cls-1" d="M25.24 84.17c-.59 0-1.18-.13-1.73-.39L21.87 83a3.99 3.99 0 0 1-2.14-4.62c.18-.69.32-1.45.43-2.27.05-.41.1-.82.13-1.23-.27-.54-.42-1.14-.42-1.78v-1.82c0-.53.1-1.04.29-1.51v-1.36c0-1.83 1.22-3.37 2.9-3.85a3.99 3.99 0 0 1 3.06-1.43h2.13c.79 0 1.54.23 2.16.63h6.2c2.21 0 4 1.79 4 4 0 .94-.01 1.73-.04 2.36-.03.83-.11 1.51-.23 2.09-.02.08-.03.16-.05.24.03.19.04.39.04.58v3.46c.26.58.38 1.23.34 1.88l-.11 1.82a4.005 4.005 0 0 1-3.99 3.76h-3.43c-1.22 0-2.3-.03-3.22-.1-.92-.07-1.72-.18-2.46-.34-.16.11-.34.21-.52.29-.54.25-1.12.38-1.7.38Z"/><path class="cls-1" d="M45.36 83.33c-.83 0-1.63-.26-2.29-.72-.72.27-1.48.41-2.27.41-1.19 0-2.31-.29-3.33-.86a7.53 7.53 0 0 1-2.32-2.04c-.6-.78-1.06-1.7-1.37-2.71-.29-.94-.43-1.95-.43-3.01 0-1.46.28-2.85.84-4.12A9.815 9.815 0 0 1 36.52 67c.97-.91 2.13-1.61 3.44-2.1 1.27-.47 2.65-.72 4.1-.72 1.75 0 3.37.35 4.81 1.03 1.59.76 2.87 1.89 3.79 3.35.93 1.47 1.4 3.19 1.4 5.11 0 1.2-.19 2.35-.56 3.42a9.563 9.563 0 0 1-1.64 2.95c-.74.9-1.63 1.63-2.65 2.19-1.01.55-2.12.9-3.32 1.06-.17.02-.35.03-.52.03Z"/><path class="cls-1" d="M45.36 83.33c-.83 0-1.63-.26-2.29-.72-.72.27-1.48.41-2.27.41-1.19 0-2.31-.29-3.33-.86a7.53 7.53 0 0 1-2.32-2.04c-.6-.78-1.06-1.7-1.37-2.71-.29-.94-.43-1.95-.43-3.01 0-1.46.28-2.85.84-4.12A9.815 9.815 0 0 1 36.52 67c.97-.91 2.13-1.61 3.44-2.1 1.27-.47 2.65-.72 4.1-.72 1.75 0 3.37.35 4.81 1.03 1.59.76 2.87 1.89 3.79 3.35.93 1.47 1.4 3.19 1.4 5.11 0 1.2-.19 2.35-.56 3.42a9.563 9.563 0 0 1-1.64 2.95c-.74.9-1.63 1.63-2.65 2.19-1.01.55-2.12.9-3.32 1.06-.17.02-.35.03-.52.03Z"/><path class="cls-1" d="M57.17 83.98c-.27 0-1.35-.04-1.57-.04-.3 0-.55-.01-.74-.03-.97-.06-1.69-.18-2.29-.36-1.46-.45-2.59-1.51-3.11-2.89-.02-.05-.04-.1-.06-.16a4.01 4.01 0 0 1-1.87-2.13l-.74-1.97c-.31-.82-.33-1.7-.09-2.53-.05-.25-.08-.51-.08-.78v-1.82c0-1.09.44-2.08 1.15-2.8v-.18c0-2.21 1.79-4 4-4h.64c.72-.73 1.73-1.19 2.85-1.19h2.28c.87 0 1.67.28 2.33.75.35-.18.73-.31 1.12-.38a4.025 4.025 0 0 1 3.02.68l1.71 1.22a4 4 0 0 1 1.62 2.6c.09.53.07 1.07-.05 1.58.25.52.39 1.11.39 1.72v1.82c0 .89-.29 1.72-.79 2.38.15.46.22.95.19 1.46-.05.85-.11 1.53-.2 2.08-.17 1.07-.51 1.94-1.06 2.68-.71.96-1.72 1.63-2.93 1.94-.58.15-1.23.24-1.99.28l-.92.04c-.36.02-.75.03-1.14.03h-1.67Z"/><path class="cls-1" d="M57.17 83.98c-.27 0-1.35-.04-1.57-.04-.3 0-.55-.01-.74-.03-.97-.06-1.69-.18-2.29-.36-1.46-.45-2.59-1.51-3.11-2.89-.02-.05-.04-.1-.06-.16a4.01 4.01 0 0 1-1.87-2.13l-.74-1.97c-.31-.82-.33-1.7-.09-2.53-.05-.25-.08-.51-.08-.78v-1.82c0-1.09.44-2.08 1.15-2.8v-.18c0-2.21 1.79-4 4-4h.64c.72-.73 1.73-1.19 2.85-1.19h2.28c.87 0 1.67.28 2.33.75.35-.18.73-.31 1.12-.38a4.025 4.025 0 0 1 3.02.68l1.71 1.22a4 4 0 0 1 1.62 2.6c.09.53.07 1.07-.05 1.58.25.52.39 1.11.39 1.72v1.82c0 .89-.29 1.72-.79 2.38.15.46.22.95.19 1.46-.05.85-.11 1.53-.2 2.08-.17 1.07-.51 1.94-1.06 2.68-.71.96-1.72 1.63-2.93 1.94-.58.15-1.23.24-1.99.28l-.92.04c-.36.02-.75.03-1.14.03h-1.67Z"/><path class="cls-1" d="M70.21 84.18c-.42 0-.82-.06-1.2-.18h-1.1c-.32 0-.62-.04-.92-.11-.29.07-.6.11-.92.11h-1.88c-2.21 0-4-1.79-4-4v-3.87c-.15-.42-.22-.86-.22-1.33v-1.65c0-.39.05-.76.16-1.11l-.3-1.69c-.25-1.39.25-2.81 1.32-3.74.29-.25.55-.5.79-.76.25-.27.51-.59.76-.94a4.007 4.007 0 0 1 3.22-1.63h2.27c.72 0 1.41.19 2.02.55.65-.47 1.46-.74 2.32-.74h2c.17 0 .33 0 .49.03l.34-.08c.3-.07.61-.1.91-.1 1.48 0 2.87.83 3.56 2.19a4 4 0 0 1 1.36 3v1.75c0 .42-.06.82-.18 1.2v6.66c0 .72-.02 1.28-.07 1.75-.1 1.04-.41 1.92-.94 2.66-.68.94-1.69 1.6-2.85 1.86-.5.11-1.06.17-1.72.17-.14 0-.29 0-.47-.01-.12 0-.28-.01-.45-.03-.36-.03-.71-.1-1.05-.22-.45.18-.94.27-1.45.27H70.2Z"/><path class="cls-1" d="M70.21 84.18c-.42 0-.82-.06-1.2-.18h-1.1c-.32 0-.62-.04-.92-.11-.29.07-.6.11-.92.11h-1.88c-2.21 0-4-1.79-4-4v-3.87c-.15-.42-.22-.86-.22-1.33v-1.65c0-.39.05-.76.16-1.11l-.3-1.69c-.25-1.39.25-2.81 1.32-3.74.29-.25.55-.5.79-.76.25-.27.51-.59.76-.94a4.007 4.007 0 0 1 3.22-1.63h2.27c.72 0 1.41.19 2.02.55.65-.47 1.46-.74 2.32-.74h2c.17 0 .33 0 .49.03l.34-.08c.3-.07.61-.1.91-.1 1.48 0 2.87.83 3.56 2.19a4 4 0 0 1 1.36 3v1.75c0 .42-.06.82-.18 1.2v6.66c0 .72-.02 1.28-.07 1.75-.1 1.04-.41 1.92-.94 2.66-.68.94-1.69 1.6-2.85 1.86-.5.11-1.06.17-1.72.17-.14 0-.29 0-.47-.01-.12 0-.28-.01-.45-.03-.36-.03-.71-.1-1.05-.22-.45.18-.94.27-1.45.27H70.2Z"/><path class="cls-1" d="M80.51 83.54a4.01 4.01 0 0 1-3.92-3.2l-.42-2.04c-.08-.4-.1-.8-.06-1.2-.34-.53-.56-1.14-.62-1.8a3.996 3.996 0 0 1-2.05-3.49v-2.03c0-1.6.94-2.98 2.3-3.62a4.003 4.003 0 0 1 3.73-2.55h2.34c.84 0 1.62.26 2.26.7.64-.44 1.42-.7 2.26-.7h2.31c1.72 0 3.18 1.08 3.75 2.61 1.3.66 2.18 2.01 2.18 3.56v2.03c0 1.51-.84 2.83-2.07 3.51-.12.8-.31 1.54-.57 2.23a8.298 8.298 0 0 1-2.73 3.66c-1.09.83-2.44 1.44-4.01 1.81-1.33.32-2.84.49-4.61.52h-.08Z"/><path class="cls-1" d="M80.51 83.54a4.01 4.01 0 0 1-3.92-3.2l-.42-2.04c-.08-.4-.1-.8-.06-1.2-.34-.53-.56-1.14-.62-1.8a3.996 3.996 0 0 1-2.05-3.49v-2.03c0-1.6.94-2.98 2.3-3.62a4.003 4.003 0 0 1 3.73-2.55h2.34c.84 0 1.62.26 2.26.7.64-.44 1.42-.7 2.26-.7h2.31c1.72 0 3.18 1.08 3.75 2.61 1.3.66 2.18 2.01 2.18 3.56v2.03c0 1.51-.84 2.83-2.07 3.51-.12.8-.31 1.54-.57 2.23a8.298 8.298 0 0 1-2.73 3.66c-1.09.83-2.44 1.44-4.01 1.81-1.33.32-2.84.49-4.61.52h-.08Z"/><path class="cls-1" d="M96.83 83.79c-2.21 0-4-1.79-4-4v-.96c-.19.04-.37.07-.56.1-.22.04-.44.06-.66.06-.83 0-1.64-.26-2.32-.74a4 4 0 0 1-1.62-2.6l-.35-2.1c-.18-1.06.08-2.14.71-3.01.63-.87 1.58-1.45 2.64-1.6.7-.1 1.46-.29 2.25-.56.84-.28 1.69-.63 2.52-1.04.83-.41 1.61-.86 2.32-1.35.66-.45 1.22-.91 1.68-1.37.75-.75 1.77-1.17 2.83-1.17h.14c1.11.04 2.15.54 2.88 1.37l1.41 1.62a4.005 4.005 0 0 1-.16 5.43c-.71.72-1.53 1.42-2.43 2.07-.27.19-.55.38-.83.57v5.29c0 2.21-1.79 4-4 4h-2.44Z"/><path class="cls-1" d="M96.83 83.79c-2.21 0-4-1.79-4-4v-.96c-.19.04-.37.07-.56.1-.22.04-.44.06-.66.06-.83 0-1.64-.26-2.32-.74a4 4 0 0 1-1.62-2.6l-.35-2.1c-.18-1.06.08-2.14.71-3.01.63-.87 1.58-1.45 2.64-1.6.7-.1 1.46-.29 2.25-.56.84-.28 1.69-.63 2.52-1.04.83-.41 1.61-.86 2.32-1.35.66-.45 1.22-.91 1.68-1.37.75-.75 1.77-1.17 2.83-1.17h.14c1.11.04 2.15.54 2.88 1.37l1.41 1.62a4.005 4.005 0 0 1-.16 5.43c-.71.72-1.53 1.42-2.43 2.07-.27.19-.55.38-.83.57v5.29c0 2.21-1.79 4-4 4h-2.44Z"/><path class="cls-1" d="M106.61 83.79c-2.21 0-4-1.79-4-4V67.58c0-2.21 1.79-4 4-4h2.38c2.21 0 4 1.79 4 4v.98c.31.08.63.17.94.26 1.54.43 3.03.9 4.44 1.39 2.07.72 3.18 2.97 2.48 5.04l-.71 2.14a4.02 4.02 0 0 1-3.8 2.74 4.1 4.1 0 0 1-1.29-.21c-.69-.24-1.38-.46-2.08-.68v.54c0 2.21-1.79 4-4 4h-2.38Z"/><path class="cls-1" d="M106.61 83.79c-2.21 0-4-1.79-4-4V67.58c0-2.21 1.79-4 4-4h2.38c2.21 0 4 1.79 4 4v.98c.31.08.63.17.94.26 1.54.43 3.03.9 4.44 1.39 2.07.72 3.18 2.97 2.48 5.04l-.71 2.14a4.02 4.02 0 0 1-3.8 2.74 4.1 4.1 0 0 1-1.29-.21c-.69-.24-1.38-.46-2.08-.68v.54c0 2.21-1.79 4-4 4h-2.38ZM23.59 65.65c-2.21 0-4-1.79-4-4V55.6c0-1.1.45-2.15 1.25-2.91L36.39 38c1.3-1.18 1.9-1.91 2.19-2.33.44-.64.56-1.01.6-1.14.11-.42.16-.79.16-1.11 0-.47-.09-.55-.15-.6-.18-.15-.88-.41-2.3-.41-1.12 0-2.1.21-2.97.63-.84.41-1.55 1.01-2.17 1.84a3.987 3.987 0 0 1-5.39.97l-6.74-4.38a4.01 4.01 0 0 1-1.73-2.52c-.22-1.04-.02-2.12.56-3.01 1.89-2.91 4.58-5.23 8-6.89 3.3-1.61 7.11-2.42 11.31-2.42 3.52 0 6.7.59 9.45 1.76 2.96 1.25 5.31 3.11 6.99 5.51 1.72 2.46 2.59 5.38 2.59 8.66 0 1.62-.23 3.28-.69 4.93-.48 1.71-1.33 3.48-2.53 5.25-1.14 1.68-2.72 3.47-4.84 5.46l-1.96 1.84h7.35c2.21 0 4 1.79 4 4v7.6c0 2.21-1.79 4-4 4H23.59Z"/><path class="cls-1" d="M23.59 65.65c-2.21 0-4-1.79-4-4V55.6c0-1.1.45-2.15 1.25-2.91L36.39 38c1.3-1.18 1.9-1.91 2.19-2.33.44-.64.56-1.01.6-1.14.11-.42.16-.79.16-1.11 0-.47-.09-.55-.15-.6-.18-.15-.88-.41-2.3-.41-1.12 0-2.1.21-2.97.63-.84.41-1.55 1.01-2.17 1.84a3.987 3.987 0 0 1-5.39.97l-6.74-4.38a4.01 4.01 0 0 1-1.73-2.52c-.22-1.04-.02-2.12.56-3.01 1.89-2.91 4.58-5.23 8-6.89 3.3-1.61 7.11-2.42 11.31-2.42 3.52 0 6.7.59 9.45 1.76 2.96 1.25 5.31 3.11 6.99 5.51 1.72 2.46 2.59 5.38 2.59 8.66 0 1.62-.23 3.28-.69 4.93-.48 1.71-1.33 3.48-2.53 5.25-1.14 1.68-2.72 3.47-4.84 5.46l-1.96 1.84h7.35c2.21 0 4 1.79 4 4v7.6c0 2.21-1.79 4-4 4H23.59Z"/><path class="cls-1" d="M73.09 66.34c-4.05 0-7.75-1.03-10.97-3.06-3.22-2.03-5.78-4.96-7.62-8.71-1.78-3.63-2.68-8.03-2.68-13.08s.9-9.45 2.68-13.08c1.84-3.75 4.41-6.68 7.62-8.71 3.23-2.03 6.92-3.06 10.97-3.06s7.8 1.03 11.03 3.06c3.22 2.03 5.78 4.96 7.62 8.71 1.78 3.63 2.68 8.03 2.68 13.08s-.9 9.45-2.68 13.08c-1.84 3.75-4.41 6.68-7.62 8.71-3.23 2.03-6.94 3.06-11.03 3.06Zm0-33.87c-.62 0-1.12.17-1.62.54-.55.42-1.06 1.25-1.48 2.4-.53 1.47-.8 3.52-.8 6.08s.27 4.6.8 6.08c.42 1.15.92 1.98 1.47 2.4.5.38 1 .54 1.62.54.69 0 1.21-.16 1.68-.52.53-.41 1.03-1.24 1.43-2.39.52-1.49.78-3.54.78-6.11s-.26-4.62-.78-6.11c-.4-1.15-.9-1.97-1.43-2.39-.47-.36-.99-.52-1.68-.52Z"/><path class="cls-1" d="M73.09 66.34c-4.05 0-7.75-1.03-10.97-3.06-3.22-2.03-5.78-4.96-7.62-8.71-1.78-3.63-2.68-8.03-2.68-13.08s.9-9.45 2.68-13.08c1.84-3.75 4.41-6.68 7.62-8.71 3.23-2.03 6.92-3.06 10.97-3.06s7.8 1.03 11.03 3.06c3.22 2.03 5.78 4.96 7.62 8.71 1.78 3.63 2.68 8.03 2.68 13.08s-.9 9.45-2.68 13.08c-1.84 3.75-4.41 6.68-7.62 8.71-3.23 2.03-6.94 3.06-11.03 3.06Zm0-33.87c-.62 0-1.12.17-1.62.54-.55.42-1.06 1.25-1.48 2.4-.53 1.47-.8 3.52-.8 6.08s.27 4.6.8 6.08c.42 1.15.92 1.98 1.47 2.4.5.38 1 .54 1.62.54.69 0 1.21-.16 1.68-.52.53-.41 1.03-1.24 1.43-2.39.52-1.49.78-3.54.78-6.11s-.26-4.62-.78-6.11c-.4-1.15-.9-1.97-1.43-2.39-.47-.36-.99-.52-1.68-.52Z"/><path class="cls-1" d="M104.34 65.41c-2.21 0-4-1.79-4-4v-.95h-8.67c-2.21 0-4-1.79-4-4V52.6c0-1.35.67-2.55 1.7-3.28a3.967 3.967 0 0 1-1.51-2.22c-.28-1.05-.11-2.17.46-3.1 1.03-1.69 1.96-3.44 2.78-5.21.81-1.76 1.52-3.59 2.09-5.41a4.003 4.003 0 0 1 4.55-2.72l4.44.83c1.12.21 2.1.89 2.69 1.87.02.04.04.07.06.11h12.35c2.21 0 4 1.79 4 4v3.74c0 .99-.36 1.9-.96 2.6.06.28.1.58.1.88v3.74c0 .21-.02.42-.05.63 1.25.68 2.09 2 2.09 3.52v3.86c0 2.21-1.79 4-4 4h-5.42v.95c0 2.21-1.79 4-4 4h-4.69Z"/><path class="cls-1" d="M104.34 65.41c-2.21 0-4-1.79-4-4v-.95h-8.67c-2.21 0-4-1.79-4-4V52.6c0-1.35.67-2.55 1.7-3.28a3.967 3.967 0 0 1-1.51-2.22c-.28-1.05-.11-2.17.46-3.1 1.03-1.69 1.96-3.44 2.78-5.21.81-1.76 1.52-3.59 2.09-5.41a4.003 4.003 0 0 1 4.55-2.72l4.44.83c1.12.21 2.1.89 2.69 1.87.02.04.04.07.06.11h12.35c2.21 0 4 1.79 4 4v3.74c0 .99-.36 1.9-.96 2.6.06.28.1.58.1.88v3.74c0 .21-.02.42-.05.63 1.25.68 2.09 2 2.09 3.52v3.86c0 2.21-1.79 4-4 4h-5.42v.95c0 2.21-1.79 4-4 4h-4.69ZM25.24 84.17c-.59 0-1.18-.13-1.73-.39L21.87 83a3.99 3.99 0 0 1-2.14-4.62c.18-.69.32-1.45.43-2.27.05-.41.1-.82.13-1.23-.27-.54-.42-1.14-.42-1.78v-1.82c0-.53.1-1.04.29-1.51v-1.36c0-1.83 1.22-3.37 2.9-3.85a3.99 3.99 0 0 1 3.06-1.43h2.13c.79 0 1.54.23 2.16.63h6.2c2.21 0 4 1.79 4 4 0 .94-.01 1.73-.04 2.36-.03.83-.11 1.51-.23 2.09-.02.08-.03.16-.05.24.03.19.04.39.04.58v3.46c.26.58.38 1.23.34 1.88l-.11 1.82a4.005 4.005 0 0 1-3.99 3.76h-3.43c-1.22 0-2.3-.03-3.22-.1-.92-.07-1.72-.18-2.46-.34-.16.11-.34.21-.52.29-.54.25-1.12.38-1.7.38Z"/><path class="cls-1" d="M25.24 84.17c-.59 0-1.18-.13-1.73-.39L21.87 83a3.99 3.99 0 0 1-2.14-4.62c.18-.69.32-1.45.43-2.27.05-.41.1-.82.13-1.23-.27-.54-.42-1.14-.42-1.78v-1.82c0-.53.1-1.04.29-1.51v-1.36c0-1.83 1.22-3.37 2.9-3.85a3.99 3.99 0 0 1 3.06-1.43h2.13c.79 0 1.54.23 2.16.63h6.2c2.21 0 4 1.79 4 4 0 .94-.01 1.73-.04 2.36-.03.83-.11 1.51-.23 2.09-.02.08-.03.16-.05.24.03.19.04.39.04.58v3.46c.26.58.38 1.23.34 1.88l-.11 1.82a4.005 4.005 0 0 1-3.99 3.76h-3.43c-1.22 0-2.3-.03-3.22-.1-.92-.07-1.72-.18-2.46-.34-.16.11-.34.21-.52.29-.54.25-1.12.38-1.7.38Z"/><path class="cls-1" d="M45.36 83.33c-.83 0-1.63-.26-2.29-.72-.72.27-1.48.41-2.27.41-1.19 0-2.31-.29-3.33-.86a7.53 7.53 0 0 1-2.32-2.04c-.6-.78-1.06-1.7-1.37-2.71-.29-.94-.43-1.95-.43-3.01 0-1.46.28-2.85.84-4.12A9.815 9.815 0 0 1 36.52 67c.97-.91 2.13-1.61 3.44-2.1 1.27-.47 2.65-.72 4.1-.72 1.75 0 3.37.35 4.81 1.03 1.59.76 2.87 1.89 3.79 3.35.93 1.47 1.4 3.19 1.4 5.11 0 1.2-.19 2.35-.56 3.42a9.563 9.563 0 0 1-1.64 2.95c-.74.9-1.63 1.63-2.65 2.19-1.01.55-2.12.9-3.32 1.06-.17.02-.35.03-.52.03Z"/><path class="cls-1" d="M45.36 83.33c-.83 0-1.63-.26-2.29-.72-.72.27-1.48.41-2.27.41-1.19 0-2.31-.29-3.33-.86a7.53 7.53 0 0 1-2.32-2.04c-.6-.78-1.06-1.7-1.37-2.71-.29-.94-.43-1.95-.43-3.01 0-1.46.28-2.85.84-4.12A9.815 9.815 0 0 1 36.52 67c.97-.91 2.13-1.61 3.44-2.1 1.27-.47 2.65-.72 4.1-.72 1.75 0 3.37.35 4.81 1.03 1.59.76 2.87 1.89 3.79 3.35.93 1.47 1.4 3.19 1.4 5.11 0 1.2-.19 2.35-.56 3.42a9.563 9.563 0 0 1-1.64 2.95c-.74.9-1.63 1.63-2.65 2.19-1.01.55-2.12.9-3.32 1.06-.17.02-.35.03-.52.03Z"/><path class="cls-1" d="M57.17 83.98c-.27 0-1.35-.04-1.57-.04-.3 0-.55-.01-.74-.03-.97-.06-1.69-.18-2.29-.36-1.46-.45-2.59-1.51-3.11-2.89-.02-.05-.04-.1-.06-.16a4.01 4.01 0 0 1-1.87-2.13l-.74-1.97c-.31-.82-.33-1.7-.09-2.53-.05-.25-.08-.51-.08-.78v-1.82c0-1.09.44-2.08 1.15-2.8v-.18c0-2.21 1.79-4 4-4h.64c.72-.73 1.73-1.19 2.85-1.19h2.28c.87 0 1.67.28 2.33.75.35-.18.73-.31 1.12-.38a4.025 4.025 0 0 1 3.02.68l1.71 1.22a4 4 0 0 1 1.62 2.6c.09.53.07 1.07-.05 1.58.25.52.39 1.11.39 1.72v1.82c0 .89-.29 1.72-.79 2.38.15.46.22.95.19 1.46-.05.85-.11 1.53-.2 2.08-.17 1.07-.51 1.94-1.06 2.68-.71.96-1.72 1.63-2.93 1.94-.58.15-1.23.24-1.99.28l-.92.04c-.36.02-.75.03-1.14.03h-1.67Z"/><path class="cls-1" d="M57.17 83.98c-.27 0-1.35-.04-1.57-.04-.3 0-.55-.01-.74-.03-.97-.06-1.69-.18-2.29-.36-1.46-.45-2.59-1.51-3.11-2.89-.02-.05-.04-.1-.06-.16a4.01 4.01 0 0 1-1.87-2.13l-.74-1.97c-.31-.82-.33-1.7-.09-2.53-.05-.25-.08-.51-.08-.78v-1.82c0-1.09.44-2.08 1.15-2.8v-.18c0-2.21 1.79-4 4-4h.64c.72-.73 1.73-1.19 2.85-1.19h2.28c.87 0 1.67.28 2.33.75.35-.18.73-.31 1.12-.38a4.025 4.025 0 0 1 3.02.68l1.71 1.22a4 4 0 0 1 1.62 2.6c.09.53.07 1.07-.05 1.58.25.52.39 1.11.39 1.72v1.82c0 .89-.29 1.72-.79 2.38.15.46.22.95.19 1.46-.05.85-.11 1.53-.2 2.08-.17 1.07-.51 1.94-1.06 2.68-.71.96-1.72 1.63-2.93 1.94-.58.15-1.23.24-1.99.28l-.92.04c-.36.02-.75.03-1.14.03h-1.67Z"/><path class="cls-1" d="M70.21 84.18c-.42 0-.82-.06-1.2-.18h-1.1c-.32 0-.62-.04-.92-.11-.29.07-.6.11-.92.11h-1.88c-2.21 0-4-1.79-4-4v-3.87c-.15-.42-.22-.86-.22-1.33v-1.65c0-.39.05-.76.16-1.11l-.3-1.69c-.25-1.39.25-2.81 1.32-3.74.29-.25.55-.5.79-.76.25-.27.51-.59.76-.94a4.007 4.007 0 0 1 3.22-1.63h2.27c.72 0 1.41.19 2.02.55.65-.47 1.46-.74 2.32-.74h2c.17 0 .33 0 .49.03l.34-.08c.3-.07.61-.1.91-.1 1.48 0 2.87.83 3.56 2.19a4 4 0 0 1 1.36 3v1.75c0 .42-.06.82-.18 1.2v6.66c0 .72-.02 1.28-.07 1.75-.1 1.04-.41 1.92-.94 2.66-.68.94-1.69 1.6-2.85 1.86-.5.11-1.06.17-1.72.17-.14 0-.29 0-.47-.01-.12 0-.28-.01-.45-.03-.36-.03-.71-.1-1.05-.22-.45.18-.94.27-1.45.27H70.2Z"/><path class="cls-1" d="M70.21 84.18c-.42 0-.82-.06-1.2-.18h-1.1c-.32 0-.62-.04-.92-.11-.29.07-.6.11-.92.11h-1.88c-2.21 0-4-1.79-4-4v-3.87c-.15-.42-.22-.86-.22-1.33v-1.65c0-.39.05-.76.16-1.11l-.3-1.69c-.25-1.39.25-2.81 1.32-3.74.29-.25.55-.5.79-.76.25-.27.51-.59.76-.94a4.007 4.007 0 0 1 3.22-1.63h2.27c.72 0 1.41.19 2.02.55.65-.47 1.46-.74 2.32-.74h2c.17 0 .33 0 .49.03l.34-.08c.3-.07.61-.1.91-.1 1.48 0 2.87.83 3.56 2.19a4 4 0 0 1 1.36 3v1.75c0 .42-.06.82-.18 1.2v6.66c0 .72-.02 1.28-.07 1.75-.1 1.04-.41 1.92-.94 2.66-.68.94-1.69 1.6-2.85 1.86-.5.11-1.06.17-1.72.17-.14 0-.29 0-.47-.01-.12 0-.28-.01-.45-.03-.36-.03-.71-.1-1.05-.22-.45.18-.94.27-1.45.27H70.2Z"/><path class="cls-1" d="M80.51 83.54a4.01 4.01 0 0 1-3.92-3.2l-.42-2.04c-.08-.4-.1-.8-.06-1.2-.34-.53-.56-1.14-.62-1.8a3.996 3.996 0 0 1-2.05-3.49v-2.03c0-1.6.94-2.98 2.3-3.62a4.003 4.003 0 0 1 3.73-2.55h2.34c.84 0 1.62.26 2.26.7.64-.44 1.42-.7 2.26-.7h2.31c1.72 0 3.18 1.08 3.75 2.61 1.3.66 2.18 2.01 2.18 3.56v2.03c0 1.51-.84 2.83-2.07 3.51-.12.8-.31 1.54-.57 2.23a8.298 8.298 0 0 1-2.73 3.66c-1.09.83-2.44 1.44-4.01 1.81-1.33.32-2.84.49-4.61.52h-.08Z"/><path class="cls-1" d="M80.51 83.54a4.01 4.01 0 0 1-3.92-3.2l-.42-2.04c-.08-.4-.1-.8-.06-1.2-.34-.53-.56-1.14-.62-1.8a3.996 3.996 0 0 1-2.05-3.49v-2.03c0-1.6.94-2.98 2.3-3.62a4.003 4.003 0 0 1 3.73-2.55h2.34c.84 0 1.62.26 2.26.7.64-.44 1.42-.7 2.26-.7h2.31c1.72 0 3.18 1.08 3.75 2.61 1.3.66 2.18 2.01 2.18 3.56v2.03c0 1.51-.84 2.83-2.07 3.51-.12.8-.31 1.54-.57 2.23a8.298 8.298 0 0 1-2.73 3.66c-1.09.83-2.44 1.44-4.01 1.81-1.33.32-2.84.49-4.61.52h-.08Z"/><path class="cls-1" d="M96.83 83.79c-2.21 0-4-1.79-4-4v-.96c-.19.04-.37.07-.56.1-.22.04-.44.06-.66.06-.83 0-1.64-.26-2.32-.74a4 4 0 0 1-1.62-2.6l-.35-2.1c-.18-1.06.08-2.14.71-3.01.63-.87 1.58-1.45 2.64-1.6.7-.1 1.46-.29 2.25-.56.84-.28 1.69-.63 2.52-1.04.83-.41 1.61-.86 2.32-1.35.66-.45 1.22-.91 1.68-1.37.75-.75 1.77-1.17 2.83-1.17h.14c1.11.04 2.15.54 2.88 1.37l1.41 1.62a4.005 4.005 0 0 1-.16 5.43c-.71.72-1.53 1.42-2.43 2.07-.27.19-.55.38-.83.57v5.29c0 2.21-1.79 4-4 4h-2.44Z"/><path class="cls-1" d="M96.83 83.79c-2.21 0-4-1.79-4-4v-.96c-.19.04-.37.07-.56.1-.22.04-.44.06-.66.06-.83 0-1.64-.26-2.32-.74a4 4 0 0 1-1.62-2.6l-.35-2.1c-.18-1.06.08-2.14.71-3.01.63-.87 1.58-1.45 2.64-1.6.7-.1 1.46-.29 2.25-.56.84-.28 1.69-.63 2.52-1.04.83-.41 1.61-.86 2.32-1.35.66-.45 1.22-.91 1.68-1.37.75-.75 1.77-1.17 2.83-1.17h.14c1.11.04 2.15.54 2.88 1.37l1.41 1.62a4.005 4.005 0 0 1-.16 5.43c-.71.72-1.53 1.42-2.43 2.07-.27.19-.55.38-.83.57v5.29c0 2.21-1.79 4-4 4h-2.44Z"/><path class="cls-1" d="M106.61 83.79c-2.21 0-4-1.79-4-4V67.58c0-2.21 1.79-4 4-4h2.38c2.21 0 4 1.79 4 4v.98c.31.08.63.17.94.26 1.54.43 3.03.9 4.44 1.39 2.07.72 3.18 2.97 2.48 5.04l-.71 2.14a4.02 4.02 0 0 1-3.8 2.74 4.1 4.1 0 0 1-1.29-.21c-.69-.24-1.38-.46-2.08-.68v.54c0 2.21-1.79 4-4 4h-2.38Z"/><path class="cls-1" d="M106.61 83.79c-2.21 0-4-1.79-4-4V67.58c0-2.21 1.79-4 4-4h2.38c2.21 0 4 1.79 4 4v.98c.31.08.63.17.94.26 1.54.43 3.03.9 4.44 1.39 2.07.72 3.18 2.97 2.48 5.04l-.71 2.14a4.02 4.02 0 0 1-3.8 2.74 4.1 4.1 0 0 1-1.29-.21c-.69-.24-1.38-.46-2.08-.68v.54c0 2.21-1.79 4-4 4h-2.38ZM23.59 65.65c-2.21 0-4-1.79-4-4V55.6c0-1.1.45-2.15 1.25-2.91L36.39 38c1.3-1.18 1.9-1.91 2.19-2.33.44-.64.56-1.01.6-1.14.11-.42.16-.79.16-1.11 0-.47-.09-.55-.15-.6-.18-.15-.88-.41-2.3-.41-1.12 0-2.1.21-2.97.63-.84.41-1.55 1.01-2.17 1.84a3.987 3.987 0 0 1-5.39.97l-6.74-4.38a4.01 4.01 0 0 1-1.73-2.52c-.22-1.04-.02-2.12.56-3.01 1.89-2.91 4.58-5.23 8-6.89 3.3-1.61 7.11-2.42 11.31-2.42 3.52 0 6.7.59 9.45 1.76 2.96 1.25 5.31 3.11 6.99 5.51 1.72 2.46 2.59 5.38 2.59 8.66 0 1.62-.23 3.28-.69 4.93-.48 1.71-1.33 3.48-2.53 5.25-1.14 1.68-2.72 3.47-4.84 5.46l-1.96 1.84h7.35c2.21 0 4 1.79 4 4v7.6c0 2.21-1.79 4-4 4H23.59Z"/><path class="cls-1" d="M23.59 65.65c-2.21 0-4-1.79-4-4V55.6c0-1.1.45-2.15 1.25-2.91L36.39 38c1.3-1.18 1.9-1.91 2.19-2.33.44-.64.56-1.01.6-1.14.11-.42.16-.79.16-1.11 0-.47-.09-.55-.15-.6-.18-.15-.88-.41-2.3-.41-1.12 0-2.1.21-2.97.63-.84.41-1.55 1.01-2.17 1.84a3.987 3.987 0 0 1-5.39.97l-6.74-4.38a4.01 4.01 0 0 1-1.73-2.52c-.22-1.04-.02-2.12.56-3.01 1.89-2.91 4.58-5.23 8-6.89 3.3-1.61 7.11-2.42 11.31-2.42 3.52 0 6.7.59 9.45 1.76 2.96 1.25 5.31 3.11 6.99 5.51 1.72 2.46 2.59 5.38 2.59 8.66 0 1.62-.23 3.28-.69 4.93-.48 1.71-1.33 3.48-2.53 5.25-1.14 1.68-2.72 3.47-4.84 5.46l-1.96 1.84h7.35c2.21 0 4 1.79 4 4v7.6c0 2.21-1.79 4-4 4H23.59Z"/><path class="cls-1" d="M73.09 66.34c-4.05 0-7.75-1.03-10.97-3.06-3.22-2.03-5.78-4.96-7.62-8.71-1.78-3.63-2.68-8.03-2.68-13.08s.9-9.45 2.68-13.08c1.84-3.75 4.41-6.68 7.62-8.71 3.23-2.03 6.92-3.06 10.97-3.06s7.8 1.03 11.03 3.06c3.22 2.03 5.78 4.96 7.62 8.71 1.78 3.63 2.68 8.03 2.68 13.08s-.9 9.45-2.68 13.08c-1.84 3.75-4.41 6.68-7.62 8.71-3.23 2.03-6.94 3.06-11.03 3.06Zm0-33.87c-.62 0-1.12.17-1.62.54-.55.42-1.06 1.25-1.48 2.4-.53 1.47-.8 3.52-.8 6.08s.27 4.6.8 6.08c.42 1.15.92 1.98 1.47 2.4.5.38 1 .54 1.62.54.69 0 1.21-.16 1.68-.52.53-.41 1.03-1.24 1.43-2.39.52-1.49.78-3.54.78-6.11s-.26-4.62-.78-6.11c-.4-1.15-.9-1.97-1.43-2.39-.47-.36-.99-.52-1.68-.52Z"/><path class="cls-1" d="M73.09 66.34c-4.05 0-7.75-1.03-10.97-3.06-3.22-2.03-5.78-4.96-7.62-8.71-1.78-3.63-2.68-8.03-2.68-13.08s.9-9.45 2.68-13.08c1.84-3.75 4.41-6.68 7.62-8.71 3.23-2.03 6.92-3.06 10.97-3.06s7.8 1.03 11.03 3.06c3.22 2.03 5.78 4.96 7.62 8.71 1.78 3.63 2.68 8.03 2.68 13.08s-.9 9.45-2.68 13.08c-1.84 3.75-4.41 6.68-7.62 8.71-3.23 2.03-6.94 3.06-11.03 3.06Zm0-33.87c-.62 0-1.12.17-1.62.54-.55.42-1.06 1.25-1.48 2.4-.53 1.47-.8 3.52-.8 6.08s.27 4.6.8 6.08c.42 1.15.92 1.98 1.47 2.4.5.38 1 .54 1.62.54.69 0 1.21-.16 1.68-.52.53-.41 1.03-1.24 1.43-2.39.52-1.49.78-3.54.78-6.11s-.26-4.62-.78-6.11c-.4-1.15-.9-1.97-1.43-2.39-.47-.36-.99-.52-1.68-.52Z"/><path class="cls-1" d="M104.34 65.41c-2.21 0-4-1.79-4-4v-.95h-8.67c-2.21 0-4-1.79-4-4V52.6c0-1.35.67-2.55 1.7-3.28a3.967 3.967 0 0 1-1.51-2.22c-.28-1.05-.11-2.17.46-3.1 1.03-1.69 1.96-3.44 2.78-5.21.81-1.76 1.52-3.59 2.09-5.41a4.003 4.003 0 0 1 4.55-2.72l4.44.83c1.12.21 2.1.89 2.69 1.87.02.04.04.07.06.11h12.35c2.21 0 4 1.79 4 4v3.74c0 .99-.36 1.9-.96 2.6.06.28.1.58.1.88v3.74c0 .21-.02.42-.05.63 1.25.68 2.09 2 2.09 3.52v3.86c0 2.21-1.79 4-4 4h-5.42v.95c0 2.21-1.79 4-4 4h-4.69Z"/><path class="cls-1" d="M104.34 65.41c-2.21 0-4-1.79-4-4v-.95h-8.67c-2.21 0-4-1.79-4-4V52.6c0-1.35.67-2.55 1.7-3.28a3.967 3.967 0 0 1-1.51-2.22c-.28-1.05-.11-2.17.46-3.1 1.03-1.69 1.96-3.44 2.78-5.21.81-1.76 1.52-3.59 2.09-5.41a4.003 4.003 0 0 1 4.55-2.72l4.44.83c1.12.21 2.1.89 2.69 1.87.02.04.04.07.06.11h12.35c2.21 0 4 1.79 4 4v3.74c0 .99-.36 1.9-.96 2.6.06.28.1.58.1.88v3.74c0 .21-.02.42-.05.63 1.25.68 2.09 2 2.09 3.52v3.86c0 2.21-1.79 4-4 4h-5.42v.95c0 2.21-1.79 4-4 4h-4.69ZM25.24 84.17c-.59 0-1.18-.13-1.73-.39L21.87 83a3.99 3.99 0 0 1-2.14-4.62c.18-.69.32-1.45.43-2.27.05-.41.1-.82.13-1.23-.27-.54-.42-1.14-.42-1.78v-1.82c0-.53.1-1.04.29-1.51v-1.36c0-1.83 1.22-3.37 2.9-3.85a3.99 3.99 0 0 1 3.06-1.43h2.13c.79 0 1.54.23 2.16.63h6.2c2.21 0 4 1.79 4 4 0 .94-.01 1.73-.04 2.36-.03.83-.11 1.51-.23 2.09-.02.08-.03.16-.05.24.03.19.04.39.04.58v3.46c.26.58.38 1.23.34 1.88l-.11 1.82a4.005 4.005 0 0 1-3.99 3.76h-3.43c-1.22 0-2.3-.03-3.22-.1-.92-.07-1.72-.18-2.46-.34-.16.11-.34.21-.52.29-.54.25-1.12.38-1.7.38Z"/><path class="cls-1" d="M25.24 84.17c-.59 0-1.18-.13-1.73-.39L21.87 83a3.99 3.99 0 0 1-2.14-4.62c.18-.69.32-1.45.43-2.27.05-.41.1-.82.13-1.23-.27-.54-.42-1.14-.42-1.78v-1.82c0-.53.1-1.04.29-1.51v-1.36c0-1.83 1.22-3.37 2.9-3.85a3.99 3.99 0 0 1 3.06-1.43h2.13c.79 0 1.54.23 2.16.63h6.2c2.21 0 4 1.79 4 4 0 .94-.01 1.73-.04 2.36-.03.83-.11 1.51-.23 2.09-.02.08-.03.16-.05.24.03.19.04.39.04.58v3.46c.26.58.38 1.23.34 1.88l-.11 1.82a4.005 4.005 0 0 1-3.99 3.76h-3.43c-1.22 0-2.3-.03-3.22-.1-.92-.07-1.72-.18-2.46-.34-.16.11-.34.21-.52.29-.54.25-1.12.38-1.7.38Z"/><path class="cls-1" d="M45.36 83.33c-.83 0-1.63-.26-2.29-.72-.72.27-1.48.41-2.27.41-1.19 0-2.31-.29-3.33-.86a7.53 7.53 0 0 1-2.32-2.04c-.6-.78-1.06-1.7-1.37-2.71-.29-.94-.43-1.95-.43-3.01 0-1.46.28-2.85.84-4.12A9.815 9.815 0 0 1 36.52 67c.97-.91 2.13-1.61 3.44-2.1 1.27-.47 2.65-.72 4.1-.72 1.75 0 3.37.35 4.81 1.03 1.59.76 2.87 1.89 3.79 3.35.93 1.47 1.4 3.19 1.4 5.11 0 1.2-.19 2.35-.56 3.42a9.563 9.563 0 0 1-1.64 2.95c-.74.9-1.63 1.63-2.65 2.19-1.01.55-2.12.9-3.32 1.06-.17.02-.35.03-.52.03Z"/><path class="cls-1" d="M45.36 83.33c-.83 0-1.63-.26-2.29-.72-.72.27-1.48.41-2.27.41-1.19 0-2.31-.29-3.33-.86a7.53 7.53 0 0 1-2.32-2.04c-.6-.78-1.06-1.7-1.37-2.71-.29-.94-.43-1.95-.43-3.01 0-1.46.28-2.85.84-4.12A9.815 9.815 0 0 1 36.52 67c.97-.91 2.13-1.61 3.44-2.1 1.27-.47 2.65-.72 4.1-.72 1.75 0 3.37.35 4.81 1.03 1.59.76 2.87 1.89 3.79 3.35.93 1.47 1.4 3.19 1.4 5.11 0 1.2-.19 2.35-.56 3.42a9.563 9.563 0 0 1-1.64 2.95c-.74.9-1.63 1.63-2.65 2.19-1.01.55-2.12.9-3.32 1.06-.17.02-.35.03-.52.03Z"/><path class="cls-1" d="M57.17 83.98c-.27 0-1.35-.04-1.57-.04-.3 0-.55-.01-.74-.03-.97-.06-1.69-.18-2.29-.36-1.46-.45-2.59-1.51-3.11-2.89-.02-.05-.04-.1-.06-.16a4.01 4.01 0 0 1-1.87-2.13l-.74-1.97c-.31-.82-.33-1.7-.09-2.53-.05-.25-.08-.51-.08-.78v-1.82c0-1.09.44-2.08 1.15-2.8v-.18c0-2.21 1.79-4 4-4h.64c.72-.73 1.73-1.19 2.85-1.19h2.28c.87 0 1.67.28 2.33.75.35-.18.73-.31 1.12-.38a4.025 4.025 0 0 1 3.02.68l1.71 1.22a4 4 0 0 1 1.62 2.6c.09.53.07 1.07-.05 1.58.25.52.39 1.11.39 1.72v1.82c0 .89-.29 1.72-.79 2.38.15.46.22.95.19 1.46-.05.85-.11 1.53-.2 2.08-.17 1.07-.51 1.94-1.06 2.68-.71.96-1.72 1.63-2.93 1.94-.58.15-1.23.24-1.99.28l-.92.04c-.36.02-.75.03-1.14.03h-1.67Z"/><path class="cls-1" d="M57.17 83.98c-.27 0-1.35-.04-1.57-.04-.3 0-.55-.01-.74-.03-.97-.06-1.69-.18-2.29-.36-1.46-.45-2.59-1.51-3.11-2.89-.02-.05-.04-.1-.06-.16a4.01 4.01 0 0 1-1.87-2.13l-.74-1.97c-.31-.82-.33-1.7-.09-2.53-.05-.25-.08-.51-.08-.78v-1.82c0-1.09.44-2.08 1.15-2.8v-.18c0-2.21 1.79-4 4-4h.64c.72-.73 1.73-1.19 2.85-1.19h2.28c.87 0 1.67.28 2.33.75.35-.18.73-.31 1.12-.38a4.025 4.025 0 0 1 3.02.68l1.71 1.22a4 4 0 0 1 1.62 2.6c.09.53.07 1.07-.05 1.58.25.52.39 1.11.39 1.72v1.82c0 .89-.29 1.72-.79 2.38.15.46.22.95.19 1.46-.05.85-.11 1.53-.2 2.08-.17 1.07-.51 1.94-1.06 2.68-.71.96-1.72 1.63-2.93 1.94-.58.15-1.23.24-1.99.28l-.92.04c-.36.02-.75.03-1.14.03h-1.67Z"/><path class="cls-1" d="M70.21 84.18c-.42 0-.82-.06-1.2-.18h-1.1c-.32 0-.62-.04-.92-.11-.29.07-.6.11-.92.11h-1.88c-2.21 0-4-1.79-4-4v-3.87c-.15-.42-.22-.86-.22-1.33v-1.65c0-.39.05-.76.16-1.11l-.3-1.69c-.25-1.39.25-2.81 1.32-3.74.29-.25.55-.5.79-.76.25-.27.51-.59.76-.94a4.007 4.007 0 0 1 3.22-1.63h2.27c.72 0 1.41.19 2.02.55.65-.47 1.46-.74 2.32-.74h2c.17 0 .33 0 .49.03l.34-.08c.3-.07.61-.1.91-.1 1.48 0 2.87.83 3.56 2.19a4 4 0 0 1 1.36 3v1.75c0 .42-.06.82-.18 1.2v6.66c0 .72-.02 1.28-.07 1.75-.1 1.04-.41 1.92-.94 2.66-.68.94-1.69 1.6-2.85 1.86-.5.11-1.06.17-1.72.17-.14 0-.29 0-.47-.01-.12 0-.28-.01-.45-.03-.36-.03-.71-.1-1.05-.22-.45.18-.94.27-1.45.27H70.2Z"/><path class="cls-1" d="M70.21 84.18c-.42 0-.82-.06-1.2-.18h-1.1c-.32 0-.62-.04-.92-.11-.29.07-.6.11-.92.11h-1.88c-2.21 0-4-1.79-4-4v-3.87c-.15-.42-.22-.86-.22-1.33v-1.65c0-.39.05-.76.16-1.11l-.3-1.69c-.25-1.39.25-2.81 1.32-3.74.29-.25.55-.5.79-.76.25-.27.51-.59.76-.94a4.007 4.007 0 0 1 3.22-1.63h2.27c.72 0 1.41.19 2.02.55.65-.47 1.46-.74 2.32-.74h2c.17 0 .33 0 .49.03l.34-.08c.3-.07.61-.1.91-.1 1.48 0 2.87.83 3.56 2.19a4 4 0 0 1 1.36 3v1.75c0 .42-.06.82-.18 1.2v6.66c0 .72-.02 1.28-.07 1.75-.1 1.04-.41 1.92-.94 2.66-.68.94-1.69 1.6-2.85 1.86-.5.11-1.06.17-1.72.17-.14 0-.29 0-.47-.01-.12 0-.28-.01-.45-.03-.36-.03-.71-.1-1.05-.22-.45.18-.94.27-1.45.27H70.2Z"/><path class="cls-1" d="M80.51 83.54a4.01 4.01 0 0 1-3.92-3.2l-.42-2.04c-.08-.4-.1-.8-.06-1.2-.34-.53-.56-1.14-.62-1.8a3.996 3.996 0 0 1-2.05-3.49v-2.03c0-1.6.94-2.98 2.3-3.62a4.003 4.003 0 0 1 3.73-2.55h2.34c.84 0 1.62.26 2.26.7.64-.44 1.42-.7 2.26-.7h2.31c1.72 0 3.18 1.08 3.75 2.61 1.3.66 2.18 2.01 2.18 3.56v2.03c0 1.51-.84 2.83-2.07 3.51-.12.8-.31 1.54-.57 2.23a8.298 8.298 0 0 1-2.73 3.66c-1.09.83-2.44 1.44-4.01 1.81-1.33.32-2.84.49-4.61.52h-.08Z"/><path class="cls-1" d="M80.51 83.54a4.01 4.01 0 0 1-3.92-3.2l-.42-2.04c-.08-.4-.1-.8-.06-1.2-.34-.53-.56-1.14-.62-1.8a3.996 3.996 0 0 1-2.05-3.49v-2.03c0-1.6.94-2.98 2.3-3.62a4.003 4.003 0 0 1 3.73-2.55h2.34c.84 0 1.62.26 2.26.7.64-.44 1.42-.7 2.26-.7h2.31c1.72 0 3.18 1.08 3.75 2.61 1.3.66 2.18 2.01 2.18 3.56v2.03c0 1.51-.84 2.83-2.07 3.51-.12.8-.31 1.54-.57 2.23a8.298 8.298 0 0 1-2.73 3.66c-1.09.83-2.44 1.44-4.01 1.81-1.33.32-2.84.49-4.61.52h-.08Z"/><path class="cls-1" d="M96.83 83.79c-2.21 0-4-1.79-4-4v-.96c-.19.04-.37.07-.56.1-.22.04-.44.06-.66.06-.83 0-1.64-.26-2.32-.74a4 4 0 0 1-1.62-2.6l-.35-2.1c-.18-1.06.08-2.14.71-3.01.63-.87 1.58-1.45 2.64-1.6.7-.1 1.46-.29 2.25-.56.84-.28 1.69-.63 2.52-1.04.83-.41 1.61-.86 2.32-1.35.66-.45 1.22-.91 1.68-1.37.75-.75 1.77-1.17 2.83-1.17h.14c1.11.04 2.15.54 2.88 1.37l1.41 1.62a4.005 4.005 0 0 1-.16 5.43c-.71.72-1.53 1.42-2.43 2.07-.27.19-.55.38-.83.57v5.29c0 2.21-1.79 4-4 4h-2.44Z"/><path class="cls-1" d="M96.83 83.79c-2.21 0-4-1.79-4-4v-.96c-.19.04-.37.07-.56.1-.22.04-.44.06-.66.06-.83 0-1.64-.26-2.32-.74a4 4 0 0 1-1.62-2.6l-.35-2.1c-.18-1.06.08-2.14.71-3.01.63-.87 1.58-1.45 2.64-1.6.7-.1 1.46-.29 2.25-.56.84-.28 1.69-.63 2.52-1.04.83-.41 1.61-.86 2.32-1.35.66-.45 1.22-.91 1.68-1.37.75-.75 1.77-1.17 2.83-1.17h.14c1.11.04 2.15.54 2.88 1.37l1.41 1.62a4.005 4.005 0 0 1-.16 5.43c-.71.72-1.53 1.42-2.43 2.07-.27.19-.55.38-.83.57v5.29c0 2.21-1.79 4-4 4h-2.44Z"/><path class="cls-1" d="M106.61 83.79c-2.21 0-4-1.79-4-4V67.58c0-2.21 1.79-4 4-4h2.38c2.21 0 4 1.79 4 4v.98c.31.08.63.17.94.26 1.54.43 3.03.9 4.44 1.39 2.07.72 3.18 2.97 2.48 5.04l-.71 2.14a4.02 4.02 0 0 1-3.8 2.74 4.1 4.1 0 0 1-1.29-.21c-.69-.24-1.38-.46-2.08-.68v.54c0 2.21-1.79 4-4 4h-2.38Z"/><path class="cls-1" d="M106.61 83.79c-2.21 0-4-1.79-4-4V67.58c0-2.21 1.79-4 4-4h2.38c2.21 0 4 1.79 4 4v.98c.31.08.63.17.94.26 1.54.43 3.03.9 4.44 1.39 2.07.72 3.18 2.97 2.48 5.04l-.71 2.14a4.02 4.02 0 0 1-3.8 2.74 4.1 4.1 0 0 1-1.29-.21c-.69-.24-1.38-.46-2.08-.68v.54c0 2.21-1.79 4-4 4h-2.38Z"/><path class="cls-3" d="M23.59 61.65V55.6l15.55-14.69c1.23-1.11 2.14-2.1 2.74-2.97.59-.86.99-1.67 1.18-2.42.19-.75.29-1.45.29-2.1 0-1.57-.54-2.8-1.61-3.69-1.08-.88-2.69-1.33-4.84-1.33-1.73 0-3.3.35-4.72 1.04-1.42.69-2.63 1.71-3.63 3.05l-6.74-4.38c1.5-2.3 3.63-4.13 6.39-5.47 2.76-1.34 5.95-2.02 9.56-2.02 3 0 5.62.48 7.89 1.44 2.27.96 4.02 2.33 5.27 4.12s1.87 3.91 1.87 6.37c0 1.27-.18 2.55-.55 3.86-.37 1.31-1.03 2.67-1.99 4.09s-2.38 3.02-4.26 4.78l-12.9 12.1-1.79-3.34h22.81v7.6H23.58ZM73.09 62.34c-3.3 0-6.25-.82-8.84-2.45-2.59-1.63-4.65-3.99-6.16-7.08-1.52-3.09-2.27-6.86-2.27-11.32s.76-8.23 2.27-11.32c1.52-3.09 3.57-5.45 6.16-7.08 2.59-1.63 5.54-2.45 8.84-2.45s6.31.82 8.9 2.45c2.59 1.63 4.65 3.99 6.16 7.08 1.52 3.09 2.28 6.86 2.28 11.32s-.76 8.23-2.28 11.32c-1.52 3.09-3.57 5.45-6.16 7.08-2.59 1.63-5.56 2.45-8.9 2.45Zm0-7.83c1.57 0 2.95-.45 4.12-1.35 1.17-.9 2.09-2.31 2.76-4.23.67-1.92 1.01-4.4 1.01-7.43s-.34-5.51-1.01-7.43c-.67-1.92-1.59-3.33-2.76-4.23-1.17-.9-2.54-1.35-4.12-1.35s-2.84.45-4.03 1.35c-1.19.9-2.13 2.31-2.82 4.23-.69 1.92-1.04 4.4-1.04 7.43s.35 5.51 1.04 7.43c.69 1.92 1.63 3.33 2.82 4.23 1.19.9 2.53 1.35 4.03 1.35Z"/><path class="cls-4" d="M104.34 61.41v-4.95H91.67V52.6h4.49v-7.89h20.25v3.74h-15.75v4.15h3.69V41.22h-6.77v-3.74h19.7v3.74h-8.24V52.6h9.42v3.86h-9.42v4.95h-4.69Zm-8.64-13.1-3.97-2.22c1.11-1.82 2.11-3.7 3-5.62.88-1.92 1.64-3.88 2.27-5.88l4.44.83c-.69 2.23-1.52 4.43-2.48 6.6s-2.04 4.26-3.25 6.28ZM25.24 80.17l-1.64-.78c.22-.86.4-1.79.52-2.78s.2-1.98.23-2.96l1.69.18c0 1.06-.08 2.13-.22 3.21a27.12 27.12 0 0 1-.59 3.13Zm1.27-1.58v-5.5h-2.65v-1.82h2.25v-1.12h-1.96V68.4h1.96v-1.27h2.13v1.27h1.71v1.75h-1.71v1.12h1.85v1.82h-1.46v1.26h1.39v1.78h-1.39v2.46H26.5Zm6.62 1.36c-1.13 0-2.1-.03-2.93-.09s-1.53-.17-2.11-.32c-.59-.15-1.1-.36-1.53-.62-.43-.27-.82-.6-1.16-1.01-.35-.41-.7-.89-1.05-1.46l1.01-1.09c.27.48.54.88.8 1.2.27.33.58.59.93.8.35.21.79.37 1.32.48.52.11 1.17.18 1.93.22.76.04 1.69.06 2.79.06h3.54l-.11 1.82h-3.43Zm-2.34-6.89-.87-1.61c.4-.15.74-.36 1.02-.64s.51-.61.69-1c.18-.39.29-.85.35-1.39l1.64.35c-.07.72-.22 1.36-.46 1.93-.24.57-.56 1.05-.96 1.44s-.87.7-1.41.91Zm4.16-.43h-.43c-.2 0-.42-.01-.65-.03-.23-.01-.46-.03-.69-.04l-.17-1.64c.18 0 .34.02.48.03.14.01.27.02.37.03s.18 0 .24 0c.09 0 .17-.01.22-.04.05-.03.09-.09.13-.19.03-.1.06-.25.07-.44s.02-.46.02-.78h-4.3v-1.78h6.36c0 .88-.01 1.61-.04 2.2-.02.59-.07 1.07-.15 1.42-.07.35-.17.62-.29.8a.86.86 0 0 1-.48.36c-.2.06-.43.09-.7.09Zm-4.58 4.79v-4.38h5.95v4.38H32.3v-1.55h1.95v-1.33H32.3v2.88h-1.93ZM44.72 77.34c.47-.06.89-.19 1.28-.39.39-.21.72-.47.99-.79.28-.32.49-.7.63-1.12.14-.42.22-.88.22-1.36 0-.72-.16-1.33-.48-1.85a3.23 3.23 0 0 0-1.34-1.19c-.57-.28-1.23-.42-1.97-.42-.63 0-1.23.11-1.79.33-.55.22-1.04.52-1.47.9-.42.38-.76.83-.99 1.33s-.36 1.05-.36 1.62c0 .37.06.74.18 1.1s.28.66.47.9c.19.24.38.36.58.36.3 0 .59-.32.86-.95s.54-1.54.79-2.72c.25-1.19.48-2.62.67-4.3l2.21.24c-.23 1.83-.49 3.38-.76 4.66-.28 1.27-.59 2.3-.93 3.09-.34.78-.74 1.36-1.19 1.71s-.96.54-1.53.54c-.5 0-.96-.12-1.38-.35-.42-.23-.78-.56-1.09-.97-.31-.41-.56-.9-.73-1.46-.17-.56-.26-1.18-.26-1.84 0-.91.17-1.74.5-2.5s.8-1.42 1.39-1.97 1.3-.98 2.12-1.29 1.72-.46 2.7-.46c1.16 0 2.19.21 3.09.64.9.43 1.61 1.06 2.13 1.88.52.82.78 1.81.78 2.97 0 .76-.11 1.46-.34 2.11-.22.65-.54 1.22-.95 1.72-.41.5-.9.91-1.48 1.22s-1.22.52-1.92.61l-.64-1.99ZM51.27 76.96l-.74-1.97c1.63-.49 3.15-1.12 4.55-1.88 1.4-.76 2.66-1.62 3.77-2.58 1.12-.96 2.06-2 2.82-3.12l1.71 1.22c-.79 1.11-1.8 2.19-3.02 3.23a25.602 25.602 0 0 1-4.13 2.88c-1.54.88-3.19 1.62-4.96 2.23Zm-.66-3.88v-1.82h4.63v-1.22h-3.49v-1.76h3.49v-1.19h2.28v1.19h2.65v1.76h-2.65v1.22h6.13v1.82H50.6Zm7.27 6.9h-.63c-.25 0-.52-.01-.79-.02-.28 0-.53-.02-.78-.02-.24 0-.44-.01-.6-.02-.6-.04-1.04-.1-1.32-.19s-.47-.25-.56-.48c-.09-.23-.13-.58-.13-1.04v-3.75h2.28v3.15c0 .15.01.26.04.34.03.08.1.12.22.14.12.02.31.03.58.04.13 0 .3.02.5.02.21 0 .41 0 .62.01h1.33c.32 0 .59-.02.79-.03.3 0 .54-.03.71-.06.18-.03.3-.1.38-.2.07-.1.13-.26.15-.48.03-.22.06-.54.1-.94l2.3.27c-.04.7-.09 1.26-.15 1.67s-.17.73-.33.94-.39.35-.7.43c-.31.08-.72.13-1.22.16-.23 0-.52.02-.85.03l-1.03.03h-.9Zm-2.59-2.77-.41-1.72a44.71 44.71 0 0 0 4.84-1.26c.75-.24 1.49-.52 2.24-.83l.74 1.78c-1.09.42-2.25.8-3.46 1.13-1.21.34-2.53.63-3.96.9ZM64.16 71.82l-.39-2.18c.41-.35.79-.72 1.13-1.09.34-.37.68-.79 1.03-1.26h2.27c.35.4.73.79 1.11 1.16.39.37.8.74 1.24 1.11l-.9 1.76c-.45-.41-.89-.85-1.32-1.31-.43-.46-.85-.94-1.26-1.44-.43.62-.89 1.2-1.39 1.76-.5.55-1.01 1.05-1.52 1.49Zm-.18 2.98v-1.65h2.06v-.66h-1.36v-1.58h1.36v-1.19h2.04v1.19h1.44v1.58h-1.44v.66h1.81v1.65h-5.91Zm.22 5.19v-4.66h5.52v1.54h-3.64v1.05h1.83v-1.05h1.81v3.12h-1.81v-.53h-1.83v.53H64.2Zm6.01.18v-9.48h2.32v-.83h-2.42v-1.75h2.42v-1.04h2v1.04h2.66v1.75h-2.66v.83h2.48v7.03c0 .57-.02 1.02-.05 1.35-.03.33-.1.57-.21.72s-.27.25-.48.29-.49.07-.85.07h-.29c-.11 0-.22-.01-.34-.02l-.18-1.69c.07 0 .12.01.17.01h.12c.11 0 .19 0 .23-.02s.07-.05.08-.12c0-.06.01-.17.01-.32v-5.64h-.84v7.42H72.7v-7.42h-.8v.92h3.32v1.53H71.9v.99h3.32v1.53H72v2.86h-1.81Zm5.38-10.74c-.14-.37-.29-.74-.44-1.11-.15-.36-.3-.71-.44-1.04l1.57-.36a25.102 25.102 0 0 1 .87 2.15l-1.55.35ZM77.45 71.81v-2.03h13.13v2.03H77.45Zm2.03 3.12v-7.32h2.34v7.32h-2.34Zm.62 2.56c1.22 0 2.24-.08 3.04-.22s1.44-.37 1.91-.69.8-.74.99-1.28.29-1.21.29-2.01v-5.68h2.31v5.68c0 1.1-.15 2.04-.45 2.82-.3.78-.77 1.41-1.41 1.9-.64.49-1.48.86-2.52 1.11-1.04.25-2.29.38-3.75.41l-.42-2.04ZM91.25 72.89c.93-.14 1.91-.38 2.93-.72 1.02-.34 2.02-.76 3.02-1.25 1-.5 1.93-1.04 2.8-1.63.87-.59 1.62-1.21 2.25-1.84l1.41 1.62c-.55.56-1.19 1.1-1.91 1.62s-1.51 1.01-2.35 1.48c-.84.47-1.7.89-2.58 1.27s-1.77.7-2.65.96c-.89.26-1.75.46-2.58.6l-.35-2.1Zm5.57 6.9v-8.02h2.44v8.02h-2.44ZM106.61 79.79V67.58h2.38v12.21h-2.38Zm9.74-3.65c-1.46-.5-2.89-.94-4.31-1.34-1.41-.4-2.75-.74-4-1.02l.59-2.16c1.34.3 2.75.65 4.21 1.06 1.46.41 2.87.85 4.21 1.32l-.71 2.14ZM44.51 11.32l-.72-1.26c.45-.3.86-.59 1.24-.89.38-.3.73-.63 1.07-.99l.86 1.04c-.32.38-.68.73-1.08 1.07s-.86.68-1.37 1.03ZM46 3.8c-.34-.38-.68-.75-1.03-1.12-.35-.37-.7-.73-1.05-1.09l1.06-.94c.34.35.69.71 1.03 1.09s.68.75 1.01 1.12L46 3.8Zm-.83 5.28v-2.9h-1.2V4.85h2.68v4.24h-1.48Zm6.36 2.05c-.88 0-1.64-.03-2.27-.08s-1.17-.13-1.61-.24c-.44-.11-.8-.26-1.09-.44-.29-.19-.52-.42-.7-.7-.18-.28-.32-.6-.44-.97l1.21-.04c.1.19.23.35.37.49.14.13.32.24.53.34.21.09.49.16.83.22.34.05.76.09 1.27.11.51.02 1.13.03 1.87.03h3.4l-.08 1.28h-3.28Zm-1.42-1.19v-.83h-3.02V7.99h3.02V3.28h-2.54V2.25h2.54v-.48h-1.69v1.14h-1.45V.61h7.76V2.9h-1.44V1.76h-1.64v.48h2.48v1.03h-2.48v4.72h3.12v1.12h-3.12v.83h-1.54Zm-2.75-2.41V3.75h6.96v3.78h-5.56v-.96h4.16v-.52h-4.16V5.2h4.16v-.49h-4.16v2.82h-1.4ZM55.81 4.88V1.6h10.63v3.29h-1.57v-2.1h-7.49v2.1h-1.57Zm.88 6.35V7.22h8.88v4.01h-1.61v-.58H58.3V9.56h5.66V8.41H58.3v2.82h-1.61Zm1.34-8.56c-.16-.36-.33-.71-.52-1.06-.18-.35-.37-.68-.56-.99l1.39-.5c.2.31.39.64.57 1 .18.35.35.71.51 1.07l-1.39.49Zm-.62 3.85V3.28h7.44v3.24h-5.84V5.46h4.25v-.98h-4.25v2.04h-1.6Zm3.74 1.61-1.62-.19c.15-.34.28-.7.4-1.08s.22-.78.31-1.2l1.64.19c-.1.42-.2.82-.32 1.2s-.26.74-.41 1.08Zm-.3-5.54c-.17-.37-.34-.73-.52-1.08-.18-.35-.36-.69-.55-1.01l1.38-.5c.19.31.38.65.56 1.01.18.36.35.72.52 1.09l-1.39.49Zm3.35-.06-1.42-.35c.22-.35.42-.7.62-1.06.2-.35.37-.7.53-1.04l1.43.34c-.16.34-.34.68-.53 1.04-.2.36-.41.72-.63 1.07ZM67.88 11.2l-.55-1.38c.78-.11 1.46-.26 2.03-.43.57-.18 1.04-.38 1.41-.61.37-.23.64-.48.82-.74h2.22c.18.26.45.51.83.74.38.23.85.43 1.42.62.57.18 1.24.33 2.03.43l-.55 1.38c-.71-.12-1.37-.3-1.99-.53-.61-.24-1.15-.51-1.61-.82-.46-.31-.85-.64-1.15-.98-.3.34-.68.67-1.16.98-.48.31-1.04.59-1.67.82-.63.24-1.32.41-2.06.53Zm-.53-3.07V6.88h10.7v1.25h-10.7Zm.14-4.67V1.13h4.39V.25h1.63v.88h4.39v2.33h-1.49V2.37h-7.44v1.09h-1.49Zm4.39 3.71V6.13H68.5V4.99h3.38v-.7h-3.5V3.1h3.5v-.92h1.63v.92h3.5v1.19h-3.5v.7h3.38v1.14h-3.38v1.04h-1.63ZM80.28 5.22c-.15-.22-.32-.47-.51-.74s-.38-.54-.57-.82-.37-.52-.54-.76l.66-1.31c.26.37.54.76.83 1.18s.54.8.76 1.14l-.62 1.31Zm-.59 5.48-1.01-.18c.1-.54.18-1.09.25-1.65.07-.56.12-1.11.16-1.67l1.01.08c-.03.58-.08 1.15-.15 1.73-.07.58-.15 1.14-.26 1.69Zm-.84-3.96-.05-1.27 4.01-.24v1.24l-3.96.28Zm1.56-3.25-.96-.68c.22-.42.41-.83.59-1.25s.35-.85.52-1.29l1.19.44c-.2.46-.41.93-.64 1.39-.22.46-.46.93-.7 1.39Zm.08 2.87-.98-.64c.46-.68.89-1.36 1.29-2.05.4-.69.79-1.4 1.16-2.12l1.12.52c-.39.75-.8 1.48-1.22 2.19s-.87 1.41-1.36 2.11Zm-.17 4.93V6.25h1.42v5.04h-1.42Zm2.23-4.38c-.06-.3-.14-.62-.22-.96-.08-.34-.16-.69-.25-1.03-.08-.34-.17-.65-.26-.92l.97-.28c.09.3.18.62.26.96s.17.69.25 1.04c.08.35.15.67.2.97l-.97.22Zm-.4 3.13c-.02-.27-.04-.57-.06-.9-.02-.33-.05-.66-.08-1-.03-.34-.06-.64-.1-.91l.96-.13c.04.27.08.58.11.91.03.34.06.67.1 1.01.03.34.05.65.06.92l-.98.1Zm.77 1.34-.47-1.09c.6-.17 1.16-.36 1.69-.58.53-.22.97-.44 1.33-.67l.54 1.02c-.35.24-.8.48-1.35.72s-1.13.44-1.75.6Zm-.05-6.83v-1h2.77v-.34h-2.33v-.85h2.33v-.34h-2.57V.96h2.57V.28h1.64v.68h2.68v1.08h-2.68v.34h2.4v.85h-2.4v.34h2.88v1h-7.3Zm.43 4.81V4.9h6.43v4.46h-4.85v-.97h3.23v-.34h-3.23v-.78h3.23v-.34h-3.23v-.78h3.23V5.8h-3.23v3.55H83.3Zm6.41 2.06c-.38-.22-.84-.43-1.36-.64-.52-.21-1.07-.41-1.64-.61l.44-1.08c.6.18 1.16.38 1.69.6s1 .43 1.4.65l-.54 1.08Z"/></g></svg>