<svg width="1599" height="1200" fill="none" xmlns="http://www.w3.org/2000/svg"><g clip-path="url(#a)"><path d="M870.81 0h-13.35l740.88 954.9V764.14L870.81 0Zm38.09 0h-20.67l710.11 609.63V480.25L908.9 0Zm69.51 0h-40.6l660.53 367.31V266.44L978.41 0Zm191.53 0h-128.46l556.86 174.39V87.66L1169.94 0Zm378.93 0 49.47 4.97V0h-49.47ZM846.11 0h-10.08l590.26 1200h169.73L846.11 0Zm-18.53 0h-8.49l311 1200h142.39L827.58 0Zm-16.17 0h-7.79l60.56 1200h130.38L811.41 0Zm-24.85 0L605.21 1200h130.32L794.34 0h-7.78Zm-15.4 0L327.39 1200h142.67L779.65 0h-8.49Zm-18.7 0L4.25 1200h169.54L762.53 0h-10.07Zm-25.49 0L0 765.76v191.31L740.35 0h-13.38Zm-38.15 0L0 481.25V610.9L709.54 0h-20.72Zm-67.5 0L0 267.68v100.85L661.55 0h-40.23ZM432.21 0 0 88.82v86.8L559.08 0H432.21ZM0 0v5.88L57.83 0H0Z" fill="#BDECF8"/></g><defs><clipPath id="a"><path fill="#fff" d="M0 0h1598.34v1200H0z"/></clipPath></defs></svg>