<?xml version="1.0" encoding="UTF-8"?>
<svg id="_レイヤー_2" data-name="レイヤー 2" xmlns="http://www.w3.org/2000/svg" width="340" height="100" xmlns:xlink="http://www.w3.org/1999/xlink" viewBox="0 0 340 100">
  <defs>
    <style>
      .cls-1 {
        fill: #fff;
      }

      .cls-2 {
        fill: #74210f;
      }

      .cls-3 {
        fill: url(#_名称未設定グラデーション_55-6);
      }

      .cls-4 {
        fill: url(#_名称未設定グラデーション_55-4);
      }

      .cls-5 {
        fill: url(#_名称未設定グラデーション_55-5);
      }

      .cls-6 {
        fill: url(#_名称未設定グラデーション_55-2);
      }

      .cls-7 {
        fill: url(#_名称未設定グラデーション_55-3);
      }

      .cls-8 {
        fill: url(#_名称未設定グラデーション_55);
      }
    </style>
    <linearGradient id="_名称未設定グラデーション_55" data-name="名称未設定グラデーション 55" x1="48.27" y1="93.92" x2="48.27" y2="47.38" gradientUnits="userSpaceOnUse">
      <stop offset=".5" stop-color="#f39800"/>
      <stop offset=".5" stop-color="#faca06"/>
      <stop offset="1" stop-color="#f39800"/>
    </linearGradient>
    <linearGradient id="_名称未設定グラデーション_55-2" data-name="名称未設定グラデーション 55" x1="95.75" x2="95.75" y2="47.38" xlink:href="#_名称未設定グラデーション_55"/>
    <linearGradient id="_名称未設定グラデーション_55-3" data-name="名称未設定グラデーション 55" x1="146.05" x2="146.05" xlink:href="#_名称未設定グラデーション_55"/>
    <linearGradient id="_名称未設定グラデーション_55-4" data-name="名称未設定グラデーション 55" x1="194.36" y1="93.92" x2="194.36" y2="47.38" xlink:href="#_名称未設定グラデーション_55"/>
    <linearGradient id="_名称未設定グラデーション_55-5" data-name="名称未設定グラデーション 55" x1="240.33" x2="240.33" y2="47.38" xlink:href="#_名称未設定グラデーション_55"/>
    <linearGradient id="_名称未設定グラデーション_55-6" data-name="名称未設定グラデーション 55" x1="285.5" x2="285.5" y2="47.38" xlink:href="#_名称未設定グラデーション_55"/>
  </defs>
  <g id="_レイヤー_1-2" data-name="レイヤー 1">
    <g>
      <g>
        <g>
          <path class="cls-1" d="m44.02,85.62c-3.32,0-6.02-2.72-6.02-6.08v-15.65c0-3.36,2.69-6.08,6.02-6.08h17.65c3.32,0,6.02,2.72,6.02,6.08v15.65c0,3.36-2.69,6.08-6.02,6.08h-17.65Z"/>
          <path class="cls-1" d="m134.45,85.62c-3.32,0-6.02-2.72-6.02-6.08v-14.26c0-3.36,2.69-6.08,6.02-6.08h24.16c3.32,0,6.02,2.72,6.02,6.08v14.26c0,3.36-2.69,6.08-6.02,6.08h-24.16Z"/>
          <path class="cls-1" d="m44.02,68.21c-3.32,0-6.02-2.72-6.02-6.08V25.21c0-3.36,2.69-6.08,6.02-6.08h247.87c3.32,0,6.02,2.72,6.02,6.08v36.92c0,3.36-2.69,6.08-6.02,6.08H44.02Z"/>
        </g>
        <g>
          <g>
            <g>
              <path class="cls-1" d="m7.94,47.39c-2.76,0-5.21-1.91-5.85-4.69-.66-2.83-1.16-5.7-1.49-8.53-.33-2.84-.5-5.85-.5-8.95s.17-6.1.5-8.93c.33-2.81.81-5.65,1.44-8.46.62-2.8,3.08-4.74,5.86-4.74.22,0,.45.01.67.04l6.13.69c1.72.19,3.27,1.12,4.26,2.55.34.49.6,1.01.78,1.57h1.59c.19-3.18,2.81-5.7,6.01-5.7h6.02c3.2,0,5.81,2.52,6.01,5.7h.55c3.32,0,6.02,2.72,6.02,6.08v5.23c0,3.36-2.69,6.08-6.02,6.08h-.54v.93c1.58,1.43,3.43,3.22,5.52,5.32,2.28,2.31,2.36,6.03.16,8.42l-3.73,4.08c-1.12,1.22-2.68,1.92-4.32,1.95-.03,0-.07,0-.1,0-1.39,0-2.72-.48-3.79-1.36-2.41,1.47-5.37,2.21-8.82,2.21-2.58,0-4.9-.42-6.92-1.24-.78.52-1.67.86-2.62.97l-6.1.73c-.24.03-.48.04-.71.04Z"/>
              <path class="cls-1" d="m58.43,47.32c-4.01,0-7.31-.64-10.08-1.97-3.18-1.52-5.65-4.04-7.15-7.3-1.3-2.83-1.93-6.19-1.93-10.28V9.45c0-3.36,2.69-6.08,6.02-6.08h6.36c2.35,0,4.39,1.37,5.38,3.36.07-.04.15-.09.23-.13l3.96-2.16c.9-.49,1.88-.73,2.85-.73.27,0,.53.02.8.05l2.76-1.45c.88-.46,1.83-.68,2.77-.68,1.91,0,3.77.92,4.93,2.59,1.02,1.47,1.93,2.95,2.7,4.4.74,1.4,1.45,2.89,2.1,4.44,1.22,2.9.04,6.24-2.66,7.72l1.18.52c2.99,1.32,4.39,4.81,3.16,7.86-1.19,2.96-2.48,5.55-3.82,7.69-1.52,2.43-3.27,4.44-5.21,5.97-1.99,1.57-4.24,2.74-6.69,3.47-2.28.68-4.85,1.02-7.65,1.02Zm-.66-18.03c.17.02.39.03.66.03.88,0,1.6-.14,2.15-.42.53-.27,1.12-.83,1.71-1.63.38-.52.77-1.13,1.17-1.85-.35-.06-.7-.15-1.04-.27-1.54-.54-2.79-1.69-3.47-3.19-.4-.89-.84-1.74-1.29-2.56v8.36c0,.7.05,1.19.11,1.51Z"/>
              <path class="cls-1" d="m102.31,47.43c-2.51,0-4.79-1.59-5.65-4.01-2.7,1.64-5.52,2.47-8.4,2.47s-5.4-.78-7.57-2.31c-2.09-1.48-3.69-3.54-4.75-6.13-.92-2.25-1.39-4.86-1.39-7.75,0-3.36.59-6.5,1.76-9.33.94-2.28,2.21-4.33,3.8-6.11-.22-.88-.44-1.77-.66-2.67-.39-1.59-.12-3.27.73-4.66.86-1.39,2.23-2.37,3.81-2.72l5.87-1.31c.44-.1.87-.14,1.3-.14,2.47,0,4.72,1.55,5.61,3.9.42-.02.84-.04,1.27-.05.05-.2.1-.4.15-.6.67-2.77,3.12-4.64,5.84-4.64.41,0,.82.04,1.23.13l5.68,1.19c1.6.34,2.99,1.31,3.86,2.7.87,1.39,1.15,3.08.76,4.68-.18.77-.38,1.53-.57,2.28,1.21,1.12,2.27,2.38,3.17,3.78,2.01,3.13,3.02,6.8,3.02,10.9,0,3.55-.77,6.82-2.28,9.71-1.52,2.91-3.69,5.32-6.43,7.18-2.68,1.81-5.82,2.97-9.33,3.45-.27.04-.55.06-.82.06Z"/>
              <path class="cls-1" d="m140.03,46.89c-4.01,0-7.63-.72-10.76-2.13-3.4-1.53-6.1-3.78-8.03-6.69-1.97-2.96-2.96-6.43-2.96-10.31,0-1.62.18-3.2.54-4.72,0,0-2.75.06-2.8.06-1.57,0-3.08-.62-4.21-1.73-1.16-1.14-1.81-2.71-1.81-4.35v-5.58c0-3.3,2.61-6,5.88-6.08,0,0,32.64-.77,32.68-.77,1.57,0,3.08.62,4.2,1.73,1.16,1.14,1.81,2.71,1.81,4.35v5.58c0,3.3-2.61,6-5.88,6.08l-4.88.12c-1.22.02-2.3.19-3.26.51-.86.29-1.58.66-2.18,1.15-.51.41-.89.88-1.16,1.41-.22.43-.32.96-.32,1.63,0,.5.07.91.2,1.12.03.05.1.17.46.33.42.19,1.21.41,2.59.41.51,0,1.14-.03,1.88-.09.66-.06,1.24-.14,1.74-.24.4-.08.81-.13,1.22-.13,1.26,0,2.49.4,3.53,1.15,1.37,1,2.26,2.54,2.45,4.23l.65,5.73c.36,3.21-1.83,6.15-4.99,6.68-1.08.18-2.2.32-3.33.41-1.12.09-2.22.13-3.26.13Z"/>
              <path class="cls-1" d="m171.53,46.82c-2.18,0-4.19-1.2-5.24-3.1-2.12,1.48-4.58,2.26-7.17,2.26-2.41,0-4.66-.59-6.7-1.74-1.85-1.05-3.47-2.49-4.81-4.27-1.28-1.7-2.27-3.69-2.95-5.93-.64-2.12-.97-4.42-.97-6.84,0-3.33.63-6.47,1.89-9.33,1.24-2.84,2.99-5.33,5.2-7.4,2.18-2.05,4.79-3.66,7.76-4.78,2.9-1.1,6.09-1.66,9.47-1.66,4.04,0,7.73.79,10.99,2.36,3.48,1.68,6.27,4.17,8.29,7.4,2.02,3.23,3.04,7.07,3.04,11.4,0,2.75-.42,5.36-1.24,7.78-.84,2.46-2.06,4.68-3.63,6.61-1.6,1.97-3.55,3.59-5.79,4.82-2.21,1.21-4.67,2.01-7.33,2.36-.26.04-.53.05-.79.05Z"/>
              <path class="cls-1" d="m201.52,47.55c-.54,0-1.23-.02-2.08-.07-.76-.04-1.56-.1-2.4-.17-.81-.07-1.62-.14-2.44-.22-2.28-.22-4.15-1.71-4.98-3.72-.18-.06-.35-.14-.53-.22l-5.3-2.54c-1.51-.72-2.66-2.05-3.16-3.67-.5-1.61-.32-3.36.51-4.83,1.02-1.81,1.98-3.78,2.85-5.86.29-.69.56-1.37.81-2.05-1.86-1.03-3.12-3.03-3.12-5.33v-5.58c0-3.36,2.69-6.08,6.02-6.08h8.54c.36-3.01,2.89-5.35,5.97-5.35h6.33c.99,0,1.92.24,2.74.66.4-.31.82-.6,1.27-.86,1.78-1.04,3.74-1.58,5.83-1.58s4.16.54,5.93,1.62c1.67,1.01,3.03,2.39,4.05,4.08,1.08,1.81,1.63,3.82,1.63,6s-.55,4.19-1.63,6c-.18.3-.37.59-.58.87v.21c0,2.04-1,3.85-2.53,4.95.35.76.69,1.54,1.02,2.32,1.14,2.69,2.08,5.37,2.81,7.97.87,3.1-.81,6.35-3.83,7.4l-5.64,1.96c-.64.22-1.3.33-1.96.33-.94,0-1.87-.22-2.73-.66-.63-.33-1.2-.76-1.67-1.27-.47.98-1.09,1.84-1.84,2.58-1.32,1.3-3.01,2.18-5.03,2.64-1.36.3-2.96.45-4.89.45Z"/>
              <path class="cls-1" d="m240.03,48.09c-3.32,0-6.02-2.72-6.02-6.08v-8.88c-2.45.71-4.87,1.27-7.2,1.67-.33.06-.67.08-1,.08-1.24,0-2.47-.39-3.49-1.13-1.3-.94-2.18-2.36-2.44-3.95l-.95-5.77c-.26-1.61.12-3.25,1.07-4.57.95-1.32,2.38-2.2,3.98-2.44,2.19-.33,4.52-.91,6.95-1.73,2.5-.85,5.01-1.9,7.47-3.13,2.46-1.23,4.78-2.59,6.9-4.06,2.04-1.41,3.82-2.87,5.27-4.34,1.13-1.14,2.66-1.78,4.25-1.78.07,0,.14,0,.21,0,1.67.06,3.24.81,4.33,2.08l3.85,4.46c2.06,2.39,1.96,5.99-.25,8.25-1.73,1.78-3.75,3.51-5.99,5.12-1.36.98-2.79,1.94-4.29,2.86v17.24c0,3.36-2.69,6.08-6.02,6.08h-6.63Z"/>
              <path class="cls-1" d="m265.28,48.78c-1.13,0-2.24-.32-3.21-.94l-4.76-3.04c-2.76-1.76-3.62-5.42-1.95-8.25.88-1.49,1.75-3.21,2.57-5.1.53-1.21,1.02-2.44,1.48-3.68-1.04-.87-2.16-1.74-3.31-2.59-1.34-.99-2.21-2.49-2.42-4.16-.2-1.66.28-3.34,1.34-4.63l1.13-1.37c-.45-.73-.75-1.55-.86-2.42-.22-1.66.26-3.35,1.31-4.64l3.28-4.04c1.18-1.46,2.91-2.23,4.66-2.23,1.18,0,2.37.35,3.41,1.07.86.6,1.69,1.2,2.49,1.8.55-.17,1.13-.25,1.72-.25,2.61,0,5.2-.11,7.7-.32,2.46-.21,4.75-.52,6.79-.91,2.02-.39,3.7-.8,4.99-1.21.59-.19,1.21-.28,1.82-.28.97,0,1.94.24,2.82.71,1.43.76,2.49,2.07,2.95,3.64l1.49,5.04c.35,1.2.32,2.43-.02,3.55.72,1,1.15,2.24,1.15,3.57v5c0,1.63-.64,3.12-1.68,4.21v15.3c0,3.36-2.69,6.08-6.02,6.08h-5.87c-1.62,0-3.09-.64-4.17-1.69h-1.92c-1.08,1.05-2.55,1.69-4.17,1.69h-5.79c-1.26,0-2.42-.39-3.39-1.05-.64.48-1.38.82-2.17,1.01-.45.11-.92.16-1.37.16Z"/>
            </g>
            <g>
              <path class="cls-1" d="m7.86,47.51c-2.76,0-5.2-1.91-5.85-4.68l-.02-.09c-.66-2.84-1.16-5.71-1.49-8.55-.33-2.84-.5-5.85-.5-8.96s.17-6.11.5-8.94c.33-2.81.81-5.65,1.44-8.47,0,0,.02-.1.02-.11.63-2.79,3.09-4.72,5.86-4.72.22,0,.45.01.67.04l6.34.72c1.72.19,3.27,1.13,4.26,2.56.33.48.59,1,.77,1.55h1.37c.19-3.18,2.81-5.7,6.01-5.7h6.22c3.2,0,5.81,2.52,6.01,5.7h.55c3.32,0,6.02,2.72,6.02,6.08v5.44c0,3.36-2.69,6.08-6.02,6.08h-.54v.78c1.57,1.42,3.41,3.2,5.49,5.3,2.28,2.31,2.43,6.09.23,8.49l-3.87,4.23c-1.11,1.22-2.67,1.92-4.31,1.95-.04,0-.07,0-.11,0-1.4,0-2.74-.49-3.81-1.38-2.41,1.45-5.36,2.18-8.8,2.18-2.55,0-4.85-.41-6.87-1.21-.76.5-1.63.82-2.55.93l-6.3.76c-.24.03-.48.04-.72.04Z"/>
              <path class="cls-1" d="m58.43,47.42c-3.97,0-7.38-.67-10.13-1.98-3.2-1.53-5.69-4.07-7.2-7.35-1.29-2.8-1.94-6.27-1.94-10.32V9.35c0-3.36,2.69-6.08,6.02-6.08h6.56c2.33,0,4.35,1.34,5.35,3.3,0,0,4.15-2.26,4.15-2.26.9-.49,1.88-.73,2.85-.73.27,0,.54.02.8.05l2.76-1.45c.88-.46,1.83-.69,2.77-.69,1.91,0,3.78.92,4.94,2.61,1.07,1.54,1.97,3.02,2.74,4.47.74,1.4,1.45,2.9,2.1,4.44,1.21,2.86.11,6.24-2.52,7.75l1.08.48c2.99,1.32,4.39,4.81,3.16,7.86-1.23,3.06-2.52,5.65-3.86,7.79-1.53,2.44-3.29,4.46-5.23,5.99-2,1.58-4.26,2.75-6.73,3.48-2.28.68-4.87,1.02-7.67,1.02Zm-.57-18.23c.15.01.34.02.57.02.85,0,1.58-.14,2.1-.41.29-.15.9-.55,1.67-1.6.28-.38.64-.93,1.07-1.67-.3-.06-.6-.14-.9-.24-1.54-.54-2.79-1.69-3.47-3.18l-.04-.09c-.35-.77-.72-1.51-1.1-2.21v7.97c0,.64.04,1.1.09,1.42Z"/>
              <path class="cls-1" d="m102.31,47.53c-2.51,0-4.83-1.57-5.72-3.95-2.68,1.6-5.49,2.41-8.35,2.41s-5.47-.81-7.62-2.33c-2.11-1.49-3.72-3.57-4.79-6.18-.93-2.26-1.4-4.88-1.4-7.79,0-3.37.59-6.52,1.77-9.36.94-2.27,2.21-4.32,3.78-6.1-.21-.86-.43-1.73-.65-2.62l-.03-.1c-.39-1.59-.12-3.27.74-4.66.86-1.39,2.23-2.37,3.81-2.72l6.07-1.35c.44-.1.87-.14,1.3-.14,2.47,0,4.73,1.55,5.62,3.92.37-.02.74-.03,1.11-.04.04-.17.09-.35.13-.53.67-2.78,3.16-4.73,5.9-4.73.39,0,.79.04,1.19.12l5.87,1.23c1.6.34,2.99,1.31,3.86,2.7s1.14,3.08.76,4.68l-.02.1c-.18.75-.37,1.49-.56,2.22,1.2,1.11,2.25,2.37,3.14,3.76,2.02,3.15,3.04,6.84,3.04,10.96,0,3.57-.77,6.85-2.29,9.76-1.53,2.92-3.7,5.35-6.47,7.21-2.69,1.81-5.84,2.98-9.38,3.47-.28.04-.55.06-.82.06Z"/>
              <path class="cls-1" d="m140.03,46.99c-4.02,0-7.66-.72-10.8-2.13-3.42-1.54-6.13-3.8-8.07-6.72-1.98-2.98-2.98-6.46-2.98-10.37,0-1.58.17-3.12.52-4.62,0,0-2.72.06-2.77.06-1.57,0-3.08-.62-4.21-1.73-1.16-1.14-1.81-2.71-1.81-4.35v-5.78c0-3.3,2.61-6,5.88-6.08,0,0,32.84-.78,32.89-.78,1.57,0,3.08.62,4.2,1.73,1.16,1.14,1.81,2.71,1.81,4.35v5.78c0,3.3-2.61,6-5.88,6.08l-4.98.12c-1.21.02-2.28.19-3.23.5-.84.28-1.56.66-2.15,1.14-.5.41-.87.86-1.14,1.38-.21.41-.31.94-.31,1.58,0,.56.1.92.18,1.06.06.09.2.19.41.29.33.15,1.11.4,2.54.4.5,0,1.15-.03,1.87-.09.64-.05,1.24-.14,1.73-.24l.12-.03c.4-.08.8-.12,1.21-.12,1.26,0,2.5.4,3.53,1.16,1.37,1,2.25,2.54,2.44,4.23l.67,5.94c.36,3.21-1.83,6.15-4.99,6.68-1.18.2-2.31.34-3.44.43-1.13.09-2.22.13-3.26.13Z"/>
              <path class="cls-1" d="m171.54,46.92c-2.18,0-4.22-1.18-5.29-3.05-2.11,1.45-4.56,2.21-7.13,2.21-2.43,0-4.7-.59-6.75-1.75-1.86-1.05-3.49-2.5-4.84-4.3-1.29-1.71-2.29-3.71-2.96-5.96-.64-2.13-.97-4.44-.97-6.87,0-3.34.64-6.49,1.89-9.37,1.25-2.85,3-5.36,5.22-7.44,2.19-2.06,4.81-3.67,7.79-4.8,2.91-1.1,6.11-1.66,9.5-1.66,4.05,0,7.76.8,11.03,2.37,3.5,1.69,6.31,4.19,8.34,7.44,2.03,3.25,3.06,7.1,3.06,11.46,0,2.76-.42,5.39-1.25,7.81-.84,2.47-2.07,4.71-3.65,6.64-1.61,1.98-3.57,3.61-5.82,4.85-2.22,1.22-4.7,2.02-7.37,2.37-.27.04-.53.05-.8.05Z"/>
              <path class="cls-1" d="m201.52,47.65c-.54,0-1.24-.02-2.08-.07-.77-.04-1.57-.1-2.4-.17-.81-.07-1.62-.14-2.44-.22-2.29-.22-4.21-1.72-5.06-3.74-.13-.05-.26-.11-.4-.17l-5.48-2.63c-1.51-.73-2.66-2.05-3.16-3.67s-.32-3.36.51-4.83l.05-.09c1.02-1.8,1.97-3.77,2.84-5.85.27-.65.53-1.29.77-1.93-1.84-1.04-3.08-3.03-3.08-5.31v-5.78c0-3.36,2.69-6.08,6.02-6.08h8.54c.36-3.01,2.89-5.35,5.97-5.35h6.53c.95,0,1.86.22,2.66.62.38-.29.78-.56,1.2-.8,1.79-1.05,3.77-1.59,5.88-1.59s4.2.55,5.98,1.63c1.69,1.02,3.06,2.41,4.09,4.12,1.08,1.79,1.65,3.89,1.65,6.05s-.57,4.26-1.65,6.05c-.18.3-.37.58-.56.86v.18c.03,1.63-.6,3.2-1.73,4.36-.24.24-.49.46-.76.66.33.73.65,1.47.97,2.21,1.14,2.69,2.08,5.37,2.81,7.98.87,3.1-.79,6.44-3.8,7.49l-5.83,2.03c-.64.22-1.3.33-1.96.33-.94,0-1.88-.22-2.73-.66-.6-.31-1.14-.71-1.6-1.19-.47.92-1.06,1.74-1.78,2.44-1.33,1.31-3.04,2.21-5.08,2.66-1.36.31-2.97.45-4.91.45Z"/>
              <path class="cls-1" d="m239.93,48.19c-3.32,0-6.02-2.72-6.02-6.08v-8.84c-2.41.69-4.79,1.24-7.08,1.63l-.1.02c-.33.06-.67.08-1,.08-1.24,0-2.47-.39-3.49-1.13-1.3-.94-2.18-2.36-2.44-3.95l-.99-5.98c-.26-1.61.12-3.25,1.07-4.57.95-1.32,2.38-2.2,3.97-2.44l.1-.02c2.18-.33,4.51-.91,6.93-1.73,2.49-.84,5-1.89,7.46-3.12,2.46-1.23,4.77-2.59,6.89-4.05,2.04-1.41,3.81-2.86,5.26-4.33l.08-.08c1.13-1.14,2.66-1.78,4.25-1.78.07,0,.14,0,.21,0,1.67.06,3.23.81,4.33,2.08l3.98,4.62c2.06,2.39,1.96,5.98-.24,8.24,0,0-.07.08-.08.08-1.74,1.79-3.76,3.51-6,5.14-1.34.97-2.76,1.92-4.25,2.83v17.28c0,3.36-2.69,6.08-6.02,6.08h-6.83Z"/>
              <path class="cls-1" d="m265.31,48.92c-1.13,0-2.24-.32-3.21-.94l-4.93-3.15c-2.76-1.76-3.62-5.42-1.95-8.25,0,0,.05-.09.05-.09.88-1.49,1.74-3.2,2.57-5.09.52-1.19,1-2.4,1.45-3.6-1.02-.85-2.12-1.71-3.26-2.55l-.07-.05c-1.34-.99-2.22-2.49-2.43-4.16s.28-3.34,1.34-4.64l1.13-1.37c-.45-.73-.74-1.55-.86-2.41-.22-1.67.25-3.35,1.31-4.65l3.4-4.2c1.18-1.46,2.91-2.23,4.66-2.23,1.17,0,2.36.35,3.39,1.06,0,0,.08.06.09.06.83.58,1.65,1.17,2.43,1.76.52-.15,1.07-.23,1.62-.23h.11c2.61,0,5.2-.11,7.69-.32,2.46-.21,4.74-.52,6.78-.91,2.01-.39,3.69-.79,4.98-1.21l.1-.03c.59-.19,1.21-.28,1.82-.28.97,0,1.94.24,2.82.71,1.43.76,2.49,2.07,2.95,3.64l1.54,5.24c.34,1.17.32,2.36,0,3.45.69.99,1.1,2.2,1.1,3.5v5.21c0,1.63-.64,3.12-1.68,4.21v15.3c0,3.36-2.69,6.08-6.02,6.08h-6.07c-1.62,0-3.09-.64-4.17-1.69h-1.72c-1.08,1.05-2.55,1.69-4.17,1.69h-5.99c-1.21,0-2.34-.36-3.29-.99-.63.46-1.36.8-2.13.98-.46.11-.92.16-1.38.16Z"/>
            </g>
            <g>
              <path class="cls-1" d="m7.94,47.39c-2.76,0-5.21-1.91-5.85-4.69-.66-2.83-1.16-5.7-1.49-8.53-.33-2.84-.5-5.85-.5-8.95s.17-6.1.5-8.93c.33-2.81.81-5.65,1.44-8.46.62-2.8,3.08-4.74,5.86-4.74.22,0,.45.01.67.04l6.13.69c1.72.19,3.27,1.12,4.26,2.55.34.49.6,1.01.78,1.57h1.59c.19-3.18,2.81-5.7,6.01-5.7h6.02c3.2,0,5.81,2.52,6.01,5.7h.55c3.32,0,6.02,2.72,6.02,6.08v5.23c0,3.36-2.69,6.08-6.02,6.08h-.54v.93c1.58,1.43,3.43,3.22,5.52,5.32,2.28,2.31,2.36,6.03.16,8.42l-3.73,4.08c-1.12,1.22-2.68,1.92-4.32,1.95-.03,0-.07,0-.1,0-1.39,0-2.72-.48-3.79-1.36-2.41,1.47-5.37,2.21-8.82,2.21-2.58,0-4.9-.42-6.92-1.24-.78.52-1.67.86-2.62.97l-6.1.73c-.24.03-.48.04-.71.04Z"/>
              <path class="cls-1" d="m58.43,47.32c-4.01,0-7.31-.64-10.08-1.97-3.18-1.52-5.65-4.04-7.15-7.3-1.3-2.83-1.93-6.19-1.93-10.28V9.45c0-3.36,2.69-6.08,6.02-6.08h6.36c2.35,0,4.39,1.37,5.38,3.36.07-.04.15-.09.23-.13l3.96-2.16c.9-.49,1.88-.73,2.85-.73.27,0,.53.02.8.05l2.76-1.45c.88-.46,1.83-.68,2.77-.68,1.91,0,3.77.92,4.93,2.59,1.02,1.47,1.93,2.95,2.7,4.4.74,1.4,1.45,2.89,2.1,4.44,1.22,2.9.04,6.24-2.66,7.72l1.18.52c2.99,1.32,4.39,4.81,3.16,7.86-1.19,2.96-2.48,5.55-3.82,7.69-1.52,2.43-3.27,4.44-5.21,5.97-1.99,1.57-4.24,2.74-6.69,3.47-2.28.68-4.85,1.02-7.65,1.02Zm-.66-18.03c.17.02.39.03.66.03.88,0,1.6-.14,2.15-.42.53-.27,1.12-.83,1.71-1.63.38-.52.77-1.13,1.17-1.85-.35-.06-.7-.15-1.04-.27-1.54-.54-2.79-1.69-3.47-3.19-.4-.89-.84-1.74-1.29-2.56v8.36c0,.7.05,1.19.11,1.51Z"/>
              <path class="cls-1" d="m102.31,47.43c-2.51,0-4.79-1.59-5.65-4.01-2.7,1.64-5.52,2.47-8.4,2.47s-5.4-.78-7.57-2.31c-2.09-1.48-3.69-3.54-4.75-6.13-.92-2.25-1.39-4.86-1.39-7.75,0-3.36.59-6.5,1.76-9.33.94-2.28,2.21-4.33,3.8-6.11-.22-.88-.44-1.77-.66-2.67-.39-1.59-.12-3.27.73-4.66.86-1.39,2.23-2.37,3.81-2.72l5.87-1.31c.44-.1.87-.14,1.3-.14,2.47,0,4.72,1.55,5.61,3.9.42-.02.84-.04,1.27-.05.05-.2.1-.4.15-.6.67-2.77,3.12-4.64,5.84-4.64.41,0,.82.04,1.23.13l5.68,1.19c1.6.34,2.99,1.31,3.86,2.7.87,1.39,1.15,3.08.76,4.68-.18.77-.38,1.53-.57,2.28,1.21,1.12,2.27,2.38,3.17,3.78,2.01,3.13,3.02,6.8,3.02,10.9,0,3.55-.77,6.82-2.28,9.71-1.52,2.91-3.69,5.32-6.43,7.18-2.68,1.81-5.82,2.97-9.33,3.45-.27.04-.55.06-.82.06Z"/>
              <path class="cls-1" d="m140.03,46.89c-4.01,0-7.63-.72-10.76-2.13-3.4-1.53-6.1-3.78-8.03-6.69-1.97-2.96-2.96-6.43-2.96-10.31,0-1.62.18-3.2.54-4.72,0,0-2.75.06-2.8.06-1.57,0-3.08-.62-4.21-1.73-1.16-1.14-1.81-2.71-1.81-4.35v-5.58c0-3.3,2.61-6,5.88-6.08,0,0,32.64-.77,32.68-.77,1.57,0,3.08.62,4.2,1.73,1.16,1.14,1.81,2.71,1.81,4.35v5.58c0,3.3-2.61,6-5.88,6.08l-4.88.12c-1.22.02-2.3.19-3.26.51-.86.29-1.58.66-2.18,1.15-.51.41-.89.88-1.16,1.41-.22.43-.32.96-.32,1.63,0,.5.07.91.2,1.12.03.05.1.17.46.33.42.19,1.21.41,2.59.41.51,0,1.14-.03,1.88-.09.66-.06,1.24-.14,1.74-.24.4-.08.81-.13,1.22-.13,1.26,0,2.49.4,3.53,1.15,1.37,1,2.26,2.54,2.45,4.23l.65,5.73c.36,3.21-1.83,6.15-4.99,6.68-1.08.18-2.2.32-3.33.41-1.12.09-2.22.13-3.26.13Z"/>
              <path class="cls-1" d="m171.53,46.82c-2.18,0-4.19-1.2-5.24-3.1-2.12,1.48-4.58,2.26-7.17,2.26-2.41,0-4.66-.59-6.7-1.74-1.85-1.05-3.47-2.49-4.81-4.27-1.28-1.7-2.27-3.69-2.95-5.93-.64-2.12-.97-4.42-.97-6.84,0-3.33.63-6.47,1.89-9.33,1.24-2.84,2.99-5.33,5.2-7.4,2.18-2.05,4.79-3.66,7.76-4.78,2.9-1.1,6.09-1.66,9.47-1.66,4.04,0,7.73.79,10.99,2.36,3.48,1.68,6.27,4.17,8.29,7.4,2.02,3.23,3.04,7.07,3.04,11.4,0,2.75-.42,5.36-1.24,7.78-.84,2.46-2.06,4.68-3.63,6.61-1.6,1.97-3.55,3.59-5.79,4.82-2.21,1.21-4.67,2.01-7.33,2.36-.26.04-.53.05-.79.05Z"/>
              <path class="cls-1" d="m201.52,47.55c-.54,0-1.23-.02-2.08-.07-.76-.04-1.56-.1-2.4-.17-.81-.07-1.62-.14-2.44-.22-2.28-.22-4.15-1.71-4.98-3.72-.18-.06-.35-.14-.53-.22l-5.3-2.54c-1.51-.72-2.66-2.05-3.16-3.67-.5-1.61-.32-3.36.51-4.83,1.02-1.81,1.98-3.78,2.85-5.86.29-.69.56-1.37.81-2.05-1.86-1.03-3.12-3.03-3.12-5.33v-5.58c0-3.36,2.69-6.08,6.02-6.08h8.54c.36-3.01,2.89-5.35,5.97-5.35h6.33c.99,0,1.92.24,2.74.66.4-.31.82-.6,1.27-.86,1.78-1.04,3.74-1.58,5.83-1.58s4.16.54,5.93,1.62c1.67,1.01,3.03,2.39,4.05,4.08,1.08,1.81,1.63,3.82,1.63,6s-.55,4.19-1.63,6c-.18.3-.37.59-.58.87v.21c0,2.04-1,3.85-2.53,4.95.35.76.69,1.54,1.02,2.32,1.14,2.69,2.08,5.37,2.81,7.97.87,3.1-.81,6.35-3.83,7.4l-5.64,1.96c-.64.22-1.3.33-1.96.33-.94,0-1.87-.22-2.73-.66-.63-.33-1.2-.76-1.67-1.27-.47.98-1.09,1.84-1.84,2.58-1.32,1.3-3.01,2.18-5.03,2.64-1.36.3-2.96.45-4.89.45Z"/>
              <path class="cls-1" d="m240.03,48.09c-3.32,0-6.02-2.72-6.02-6.08v-8.88c-2.45.71-4.87,1.27-7.2,1.67-.33.06-.67.08-1,.08-1.24,0-2.47-.39-3.49-1.13-1.3-.94-2.18-2.36-2.44-3.95l-.95-5.77c-.26-1.61.12-3.25,1.07-4.57.95-1.32,2.38-2.2,3.98-2.44,2.19-.33,4.52-.91,6.95-1.73,2.5-.85,5.01-1.9,7.47-3.13,2.46-1.23,4.78-2.59,6.9-4.06,2.04-1.41,3.82-2.87,5.27-4.34,1.13-1.14,2.66-1.78,4.25-1.78.07,0,.14,0,.21,0,1.67.06,3.24.81,4.33,2.08l3.85,4.46c2.06,2.39,1.96,5.99-.25,8.25-1.73,1.78-3.75,3.51-5.99,5.12-1.36.98-2.79,1.94-4.29,2.86v17.24c0,3.36-2.69,6.08-6.02,6.08h-6.63Z"/>
              <path class="cls-1" d="m265.28,48.78c-1.13,0-2.24-.32-3.21-.94l-4.76-3.04c-2.76-1.76-3.62-5.42-1.95-8.25.88-1.49,1.75-3.21,2.57-5.1.53-1.21,1.02-2.44,1.48-3.68-1.04-.87-2.16-1.74-3.31-2.59-1.34-.99-2.21-2.49-2.42-4.16-.2-1.66.28-3.34,1.34-4.63l1.13-1.37c-.45-.73-.75-1.55-.86-2.42-.22-1.66.26-3.35,1.31-4.64l3.28-4.04c1.18-1.46,2.91-2.23,4.66-2.23,1.18,0,2.37.35,3.41,1.07.86.6,1.69,1.2,2.49,1.8.55-.17,1.13-.25,1.72-.25,2.61,0,5.2-.11,7.7-.32,2.46-.21,4.75-.52,6.79-.91,2.02-.39,3.7-.8,4.99-1.21.59-.19,1.21-.28,1.82-.28.97,0,1.94.24,2.82.71,1.43.76,2.49,2.07,2.95,3.64l1.49,5.04c.35,1.2.32,2.43-.02,3.55.72,1,1.15,2.24,1.15,3.57v5c0,1.63-.64,3.12-1.68,4.21v15.3c0,3.36-2.69,6.08-6.02,6.08h-5.87c-1.62,0-3.09-.64-4.17-1.69h-1.92c-1.08,1.05-2.55,1.69-4.17,1.69h-5.79c-1.26,0-2.42-.39-3.39-1.05-.64.48-1.38.82-2.17,1.01-.45.11-.92.16-1.37.16Z"/>
            </g>
          </g>
          <g>
            <path class="cls-1" d="m304.27,48.81c-2.76,0-5.21-1.91-5.85-4.68-.6-2.57-1.05-5.17-1.35-7.75-.3-2.58-.45-5.31-.45-8.12s.15-5.54.45-8.11c.3-2.55.74-5.13,1.31-7.67.62-2.8,3.08-4.74,5.86-4.74.22,0,.45.01.67.04l5.52.62c1.72.19,3.27,1.12,4.26,2.55.25.36.46.75.63,1.15h.47c.45-2.9,2.94-5.13,5.94-5.13h5.42c3,0,5.49,2.22,5.94,5.13,3.3.02,5.97,2.74,5.97,6.08v4.71c0,3.3-2.61,5.99-5.86,6.07,1.37,1.25,2.96,2.79,4.74,4.59,2.29,2.31,2.36,6.03.16,8.42l-3.36,3.67c-1.12,1.22-2.68,1.92-4.32,1.95-.03,0-.07,0-.1,0-1.24,0-2.45-.39-3.46-1.1-2.2,1.24-4.84,1.86-7.9,1.86-2.28,0-4.34-.35-6.17-1.05-.71.42-1.51.7-2.35.8l-5.49.66c-.24.03-.48.04-.71.04Z"/>
            <path class="cls-1" d="m304.12,49.04c-2.76,0-5.2-1.91-5.85-4.68l-.04-.18c-.6-2.57-1.06-5.19-1.36-7.77-.3-2.59-.45-5.33-.45-8.15s.15-5.55.45-8.13c.3-2.56.74-5.15,1.31-7.69l.04-.18c.63-2.79,3.09-4.74,5.86-4.74.22,0,.45.01.67.04l5.93.67c1.72.19,3.27,1.13,4.26,2.56.24.35.45.73.61,1.12h.03c.45-2.9,2.94-5.13,5.94-5.13h5.82c3,0,5.49,2.22,5.94,5.13,3.3.02,5.97,2.74,5.97,6.08v5.12c0,3.2-2.45,5.82-5.55,6.06,1.28,1.19,2.75,2.62,4.38,4.26l.14.15c2.28,2.31,2.35,6.02.16,8.42l-3.63,3.97c-1.11,1.22-2.67,1.92-4.31,1.95-.03,0-.07,0-.1,0-1.27,0-2.49-.4-3.51-1.14-2.2,1.2-4.83,1.81-7.85,1.81-2.23,0-4.26-.33-6.06-1-.67.38-1.42.62-2.2.72l-5.89.71c-.24.03-.48.04-.71.04Z"/>
            <path class="cls-1" d="m304.27,48.81c-2.76,0-5.21-1.91-5.85-4.68-.6-2.57-1.05-5.17-1.35-7.75-.3-2.58-.45-5.31-.45-8.12s.15-5.54.45-8.11c.3-2.55.74-5.13,1.31-7.67.62-2.8,3.08-4.74,5.86-4.74.22,0,.45.01.67.04l5.52.62c1.72.19,3.27,1.12,4.26,2.55.25.36.46.75.63,1.15h.47c.45-2.9,2.94-5.13,5.94-5.13h5.42c3,0,5.49,2.22,5.94,5.13,3.3.02,5.97,2.74,5.97,6.08v4.71c0,3.3-2.61,5.99-5.86,6.07,1.37,1.25,2.96,2.79,4.74,4.59,2.29,2.31,2.36,6.03.16,8.42l-3.36,3.67c-1.12,1.22-2.68,1.92-4.32,1.95-.03,0-.07,0-.1,0-1.24,0-2.45-.39-3.46-1.1-2.2,1.24-4.84,1.86-7.9,1.86-2.28,0-4.34-.35-6.17-1.05-.71.42-1.51.7-2.35.8l-5.49.66c-.24.03-.48.04-.71.04Z"/>
          </g>
        </g>
        <g>
          <g>
            <path class="cls-1" d="m50.73,97.74c-3.91,0-7.6-.65-10.96-1.94-3.45-1.32-6.49-3.24-9.04-5.71-2.54-2.46-4.54-5.39-5.95-8.69-1.42-3.33-2.14-6.99-2.14-10.88s.72-7.55,2.14-10.88c1.42-3.33,3.46-6.26,6.06-8.73,2.58-2.45,5.62-4.36,9.05-5.67,3.37-1.29,7.08-1.94,11.02-1.94,4.36,0,8.39.77,11.98,2.28,3.73,1.57,6.93,3.89,9.5,6.9,2.2,2.56,2,6.38-.47,8.7l-2.95,2.78c2.43.85,4.18,3.19,4.18,5.93v16.43c0,1.94-.91,3.81-2.44,4.99-2.82,2.16-6.04,3.79-9.61,4.87-3.43,1.04-6.92,1.57-10.38,1.57Zm.57-33.96c-1.12,0-2.13.18-3,.52-.81.32-1.51.77-2.06,1.32-.55.54-.98,1.21-1.29,1.98-.33.82-.5,1.81-.5,2.92,0,1.05.17,2.01.5,2.86.31.78.73,1.44,1.27,1.98.58.58,1.3,1.05,2.12,1.39.83.34,1.8.52,2.89.52.33,0,.67-.02,1-.05v-7.32c0-2.18,1.11-4.1,2.78-5.23-.17-.1-.35-.18-.52-.26-.93-.41-2-.61-3.2-.61Z"/>
            <path class="cls-1" d="m109.67,97.05c-3.41,0-6.2-2.81-6.22-6.25v-1.74s-.37.61-.37.61c-1.13,1.88-3.17,3.04-5.33,3.04h-4.12c-2.14,0-4.17-1.15-5.3-2.99l-.28-.47v1.52c0,3.46-2.79,6.28-6.22,6.28h-8.65c-3.43,0-6.22-2.82-6.22-6.28v-40.5c0-3.46,2.79-6.28,6.22-6.28h7.68c2.16,0,4.2,1.16,5.32,3.02l9.65,16.15,9.42-16.09c1.12-1.9,3.17-3.08,5.35-3.08h7.73c3.43,0,6.22,2.82,6.22,6.28v40.5c0,3.46-2.79,6.28-6.22,6.28h-8.65Z"/>
            <path class="cls-1" d="m146.1,97.74c-3.92,0-7.63-.67-11-1.98-3.42-1.33-6.45-3.24-9.02-5.69-2.6-2.47-4.63-5.41-6.05-8.73-1.42-3.32-2.14-6.96-2.14-10.82s.72-7.55,2.15-10.86c1.42-3.3,3.46-6.22,6.05-8.69,2.56-2.44,5.58-4.35,8.97-5.68,3.36-1.32,7.06-1.99,10.99-1.99s7.6.65,10.95,1.95c3.41,1.31,6.44,3.22,9.01,5.66,2.6,2.48,4.64,5.41,6.06,8.73,1.42,3.32,2.14,6.98,2.14,10.88s-.72,7.5-2.14,10.84c-1.42,3.35-3.46,6.3-6.06,8.78-2.57,2.45-5.6,4.36-9.01,5.67-3.35,1.29-7.02,1.95-10.89,1.95Zm-.06-33.96c-.97,0-1.85.16-2.61.48-.73.3-1.36.73-1.88,1.28-.57.59-1.02,1.3-1.35,2.11-.32.8-.48,1.76-.48,2.86s.16,2.07.49,2.87c.33.81.78,1.52,1.35,2.11.52.55,1.16.98,1.89,1.28.76.32,1.64.48,2.61.48s1.82-.16,2.56-.47c.73-.31,1.39-.76,1.94-1.33.57-.59,1.02-1.28,1.34-2.08.32-.8.48-1.76.48-2.87s-.16-2.07-.49-2.87c-.32-.79-.77-1.49-1.34-2.07-.56-.57-1.21-1.02-1.94-1.33-.74-.31-1.6-.47-2.56-.47Z"/>
            <path class="cls-1" d="m189.72,98.44c-.71,0-1.57-.03-2.56-.08-.94-.05-1.94-.12-2.97-.2-1.02-.08-2.03-.18-3.06-.27-2.61-.26-4.67-2.07-5.36-4.45-.37-.09-.72-.22-1.05-.37l-6.77-3.25c-1.55-.73-2.76-2.13-3.27-3.82-.51-1.63-.32-3.46.54-4.97,1.31-2.32,2.55-4.86,3.67-7.54.55-1.31,1.05-2.6,1.51-3.88-2.5-.82-4.31-3.19-4.31-5.98v-7.05c0-3.46,2.79-6.28,6.22-6.28h12.12v-.48c0-3.46,2.79-6.28,6.22-6.28h7.99c1.33,0,2.57.43,3.58,1.15.66-.6,1.39-1.13,2.17-1.59,2.03-1.19,4.27-1.8,6.66-1.8s4.77.62,6.78,1.84c1.92,1.16,3.48,2.74,4.65,4.69,1.23,2.06,1.86,4.36,1.86,6.85s-.63,4.79-1.86,6.85c-.28.47-.59.93-.93,1.36v.73c0,2.52-1.48,4.7-3.6,5.7.62,1.32,1.22,2.67,1.8,4.04,1.41,3.34,2.59,6.67,3.49,9.9.89,3.2-.84,6.55-3.93,7.64,0,0-7.21,2.51-7.25,2.52-.6.2-1.29.31-1.93.31-.91,0-1.89-.23-2.71-.63-.06-.03-.12-.06-.18-.09-1.42-.75-2.48-2-3-3.53-.53,2.2-1.52,4.04-2.96,5.46-1.48,1.46-3.39,2.46-5.69,2.97-1.62.36-3.54.54-5.88.54Z"/>
            <path class="cls-1" d="m238.14,99.12c-3.43,0-6.22-2.82-6.22-6.28v-13.08c-.37.12-.75.23-1.12.34-3.28.98-6.5,1.73-9.58,2.26-.33.06-.7.09-1.03.09-1.3,0-2.55-.4-3.61-1.17-1.36-1-2.24-2.43-2.52-4.06l-1.21-7.31c-.27-1.64.12-3.34,1.08-4.69.97-1.36,2.4-2.26,4.03-2.54,2.94-.45,5.97-1.2,9.1-2.26,3.21-1.09,6.45-2.44,9.61-4.02,3.17-1.58,6.15-3.34,8.88-5.22,2.65-1.83,4.96-3.73,6.86-5.65,1.17-1.19,2.74-1.84,4.4-1.84.13,0,.25,0,.38.01,1.65.1,3.22.88,4.31,2.14l4.86,5.64c2.11,2.44,2.01,6.18-.24,8.51-2.15,2.21-4.64,4.33-7.4,6.34-1.88,1.36-3.89,2.69-6,3.96v22.56c0,3.46-2.79,6.28-6.22,6.28h-8.38Z"/>
            <path class="cls-1" d="m269.79,100c-1.18,0-2.34-.34-3.34-.98l-6-3.83c-2.83-1.79-3.74-5.63-2.01-8.54,1.14-1.93,2.26-4.15,3.32-6.59.81-1.86,1.56-3.76,2.24-5.65-.18-.15-.36-.3-.54-.45-1.4-1.17-2.9-2.35-4.47-3.51-1.38-1.01-2.3-2.6-2.5-4.34-.2-1.64.29-3.38,1.36-4.7l2.14-2.6c-.79-.92-1.3-2.06-1.47-3.28-.23-1.72.26-3.47,1.35-4.81l4.14-5.11c1.2-1.47,2.95-2.3,4.81-2.3,1.25,0,2.45.37,3.48,1.08,1.31.91,2.55,1.82,3.73,2.72.76-.32,1.58-.49,2.42-.49,3.35,0,6.66-.14,9.84-.41,3.16-.27,6.1-.67,8.72-1.18,2.61-.5,4.78-1.03,6.46-1.57.59-.19,1.26-.29,1.88-.29,1.02,0,2.03.26,2.93.74,1.47.8,2.54,2.11,3.02,3.71l1.89,6.41c.44,1.5.31,3.04-.27,4.36,1.02,1.12,1.64,2.61,1.64,4.24v6.32c0,1.88-.82,3.57-2.12,4.72v19.93c0,3.46-2.79,6.28-6.22,6.28h-7.41c-1.86,0-3.53-.83-4.67-2.14h-3.61c-1.14,1.31-2.81,2.14-4.67,2.14h-7.32c-1.67,0-3.19-.67-4.31-1.75-.83.86-1.91,1.48-3.09,1.75h0c-.44.1-.92.15-1.36.15Z"/>
          </g>
          <g>
            <path class="cls-1" d="m50.73,97.74c-3.91,0-7.6-.65-10.96-1.94-3.45-1.32-6.49-3.24-9.04-5.71-2.54-2.46-4.54-5.39-5.95-8.69-1.42-3.33-2.14-6.99-2.14-10.88s.72-7.55,2.14-10.88c1.42-3.33,3.46-6.26,6.06-8.73,2.58-2.45,5.62-4.36,9.05-5.67,3.37-1.29,7.08-1.94,11.02-1.94,4.36,0,8.39.77,11.98,2.28,3.73,1.57,6.93,3.89,9.5,6.9,2.2,2.56,2,6.38-.47,8.7l-2.95,2.78c2.43.85,4.18,3.19,4.18,5.93v16.43c0,1.94-.91,3.81-2.44,4.99-2.82,2.16-6.04,3.79-9.61,4.87-3.43,1.04-6.92,1.57-10.38,1.57Zm.57-33.96c-1.12,0-2.13.18-3,.52-.81.32-1.51.77-2.06,1.32-.55.54-.98,1.21-1.29,1.98-.33.82-.5,1.81-.5,2.92,0,1.05.17,2.01.5,2.86.31.78.73,1.44,1.27,1.98.58.58,1.3,1.05,2.12,1.39.83.34,1.8.52,2.89.52.33,0,.67-.02,1-.05v-7.32c0-2.18,1.11-4.1,2.78-5.23-.17-.1-.35-.18-.52-.26-.93-.41-2-.61-3.2-.61Z"/>
            <path class="cls-1" d="m109.67,97.05c-3.41,0-6.2-2.81-6.22-6.25v-1.74s-.37.61-.37.61c-1.13,1.88-3.17,3.04-5.33,3.04h-4.12c-2.14,0-4.17-1.15-5.3-2.99l-.28-.47v1.52c0,3.46-2.79,6.28-6.22,6.28h-8.65c-3.43,0-6.22-2.82-6.22-6.28v-40.5c0-3.46,2.79-6.28,6.22-6.28h7.68c2.16,0,4.2,1.16,5.32,3.02l9.65,16.15,9.42-16.09c1.12-1.9,3.17-3.08,5.35-3.08h7.73c3.43,0,6.22,2.82,6.22,6.28v40.5c0,3.46-2.79,6.28-6.22,6.28h-8.65Z"/>
            <path class="cls-1" d="m146.1,97.74c-3.92,0-7.63-.67-11-1.98-3.42-1.33-6.45-3.24-9.02-5.69-2.6-2.47-4.63-5.41-6.05-8.73-1.42-3.32-2.14-6.96-2.14-10.82s.72-7.55,2.15-10.86c1.42-3.3,3.46-6.22,6.05-8.69,2.56-2.44,5.58-4.35,8.97-5.68,3.36-1.32,7.06-1.99,10.99-1.99s7.6.65,10.95,1.95c3.41,1.31,6.44,3.22,9.01,5.66,2.6,2.48,4.64,5.41,6.06,8.73,1.42,3.32,2.14,6.98,2.14,10.88s-.72,7.5-2.14,10.84c-1.42,3.35-3.46,6.3-6.06,8.78-2.57,2.45-5.6,4.36-9.01,5.67-3.35,1.29-7.02,1.95-10.89,1.95Zm-.06-33.96c-.97,0-1.85.16-2.61.48-.73.3-1.36.73-1.88,1.28-.57.59-1.02,1.3-1.35,2.11-.32.8-.48,1.76-.48,2.86s.16,2.07.49,2.87c.33.81.78,1.52,1.35,2.11.52.55,1.16.98,1.89,1.28.76.32,1.64.48,2.61.48s1.82-.16,2.56-.47c.73-.31,1.39-.76,1.94-1.33.57-.59,1.02-1.28,1.34-2.08.32-.8.48-1.76.48-2.87s-.16-2.07-.49-2.87c-.32-.79-.77-1.49-1.34-2.07-.56-.57-1.21-1.02-1.94-1.33-.74-.31-1.6-.47-2.56-.47Z"/>
            <path class="cls-1" d="m189.72,98.44c-.71,0-1.57-.03-2.56-.08-.94-.05-1.94-.12-2.97-.2-1.02-.08-2.03-.18-3.06-.27-2.61-.26-4.67-2.07-5.36-4.45-.37-.09-.72-.22-1.05-.37l-6.77-3.25c-1.55-.73-2.76-2.13-3.27-3.82-.51-1.63-.32-3.46.54-4.97,1.31-2.32,2.55-4.86,3.67-7.54.55-1.31,1.05-2.6,1.51-3.88-2.5-.82-4.31-3.19-4.31-5.98v-7.05c0-3.46,2.79-6.28,6.22-6.28h12.12v-.48c0-3.46,2.79-6.28,6.22-6.28h7.99c1.33,0,2.57.43,3.58,1.15.66-.6,1.39-1.13,2.17-1.59,2.03-1.19,4.27-1.8,6.66-1.8s4.77.62,6.78,1.84c1.92,1.16,3.48,2.74,4.65,4.69,1.23,2.06,1.86,4.36,1.86,6.85s-.63,4.79-1.86,6.85c-.28.47-.59.93-.93,1.36v.73c0,2.52-1.48,4.7-3.6,5.7.62,1.32,1.22,2.67,1.8,4.04,1.41,3.34,2.59,6.67,3.49,9.9.89,3.2-.84,6.55-3.93,7.64,0,0-7.21,2.51-7.25,2.52-.6.2-1.29.31-1.93.31-.91,0-1.89-.23-2.71-.63-.06-.03-.12-.06-.18-.09-1.42-.75-2.48-2-3-3.53-.53,2.2-1.52,4.04-2.96,5.46-1.48,1.46-3.39,2.46-5.69,2.97-1.62.36-3.54.54-5.88.54Z"/>
            <path class="cls-1" d="m238.14,99.12c-3.43,0-6.22-2.82-6.22-6.28v-13.08c-.37.12-.75.23-1.12.34-3.28.98-6.5,1.73-9.58,2.26-.33.06-.7.09-1.03.09-1.3,0-2.55-.4-3.61-1.17-1.36-1-2.24-2.43-2.52-4.06l-1.21-7.31c-.27-1.64.12-3.34,1.08-4.69.97-1.36,2.4-2.26,4.03-2.54,2.94-.45,5.97-1.2,9.1-2.26,3.21-1.09,6.45-2.44,9.61-4.02,3.17-1.58,6.15-3.34,8.88-5.22,2.65-1.83,4.96-3.73,6.86-5.65,1.17-1.19,2.74-1.84,4.4-1.84.13,0,.25,0,.38.01,1.65.1,3.22.88,4.31,2.14l4.86,5.64c2.11,2.44,2.01,6.18-.24,8.51-2.15,2.21-4.64,4.33-7.4,6.34-1.88,1.36-3.89,2.69-6,3.96v22.56c0,3.46-2.79,6.28-6.22,6.28h-8.38Z"/>
            <path class="cls-1" d="m269.79,100c-1.18,0-2.34-.34-3.34-.98l-6-3.83c-2.83-1.79-3.74-5.63-2.01-8.54,1.14-1.93,2.26-4.15,3.32-6.59.81-1.86,1.56-3.76,2.24-5.65-.18-.15-.36-.3-.54-.45-1.4-1.17-2.9-2.35-4.47-3.51-1.38-1.01-2.3-2.6-2.5-4.34-.2-1.64.29-3.38,1.36-4.7l2.14-2.6c-.79-.92-1.3-2.06-1.47-3.28-.23-1.72.26-3.47,1.35-4.81l4.14-5.11c1.2-1.47,2.95-2.3,4.81-2.3,1.25,0,2.45.37,3.48,1.08,1.31.91,2.55,1.82,3.73,2.72.76-.32,1.58-.49,2.42-.49,3.35,0,6.66-.14,9.84-.41,3.16-.27,6.1-.67,8.72-1.18,2.61-.5,4.78-1.03,6.46-1.57.59-.19,1.26-.29,1.88-.29,1.02,0,2.03.26,2.93.74,1.47.8,2.54,2.11,3.02,3.71l1.89,6.41c.44,1.5.31,3.04-.27,4.36,1.02,1.12,1.64,2.61,1.64,4.24v6.32c0,1.88-.82,3.57-2.12,4.72v19.93c0,3.46-2.79,6.28-6.22,6.28h-7.41c-1.86,0-3.53-.83-4.67-2.14h-3.61c-1.14,1.31-2.81,2.14-4.67,2.14h-7.32c-1.67,0-3.19-.67-4.31-1.75-.83.86-1.91,1.48-3.09,1.75h0c-.44.1-.92.15-1.36.15Z"/>
          </g>
          <g>
            <path class="cls-1" d="m50.73,97.74c-3.91,0-7.6-.65-10.96-1.94-3.45-1.32-6.49-3.24-9.04-5.71-2.54-2.46-4.54-5.39-5.95-8.69-1.42-3.33-2.14-6.99-2.14-10.88s.72-7.55,2.14-10.88c1.42-3.33,3.46-6.26,6.06-8.73,2.58-2.45,5.62-4.36,9.05-5.67,3.37-1.29,7.08-1.94,11.02-1.94,4.36,0,8.39.77,11.98,2.28,3.73,1.57,6.93,3.89,9.5,6.9,2.2,2.56,2,6.38-.47,8.7l-2.95,2.78c2.43.85,4.18,3.19,4.18,5.93v16.43c0,1.94-.91,3.81-2.44,4.99-2.82,2.16-6.04,3.79-9.61,4.87-3.43,1.04-6.92,1.57-10.38,1.57Zm.57-33.96c-1.12,0-2.13.18-3,.52-.81.32-1.51.77-2.06,1.32-.55.54-.98,1.21-1.29,1.98-.33.82-.5,1.81-.5,2.92,0,1.05.17,2.01.5,2.86.31.78.73,1.44,1.27,1.98.58.58,1.3,1.05,2.12,1.39.83.34,1.8.52,2.89.52.33,0,.67-.02,1-.05v-7.32c0-2.18,1.11-4.1,2.78-5.23-.17-.1-.35-.18-.52-.26-.93-.41-2-.61-3.2-.61Z"/>
            <path class="cls-1" d="m109.67,97.05c-3.41,0-6.2-2.81-6.22-6.25v-1.74s-.37.61-.37.61c-1.13,1.88-3.17,3.04-5.33,3.04h-4.12c-2.14,0-4.17-1.15-5.3-2.99l-.28-.47v1.52c0,3.46-2.79,6.28-6.22,6.28h-8.65c-3.43,0-6.22-2.82-6.22-6.28v-40.5c0-3.46,2.79-6.28,6.22-6.28h7.68c2.16,0,4.2,1.16,5.32,3.02l9.65,16.15,9.42-16.09c1.12-1.9,3.17-3.08,5.35-3.08h7.73c3.43,0,6.22,2.82,6.22,6.28v40.5c0,3.46-2.79,6.28-6.22,6.28h-8.65Z"/>
            <path class="cls-1" d="m146.1,97.74c-3.92,0-7.63-.67-11-1.98-3.42-1.33-6.45-3.24-9.02-5.69-2.6-2.47-4.63-5.41-6.05-8.73-1.42-3.32-2.14-6.96-2.14-10.82s.72-7.55,2.15-10.86c1.42-3.3,3.46-6.22,6.05-8.69,2.56-2.44,5.58-4.35,8.97-5.68,3.36-1.32,7.06-1.99,10.99-1.99s7.6.65,10.95,1.95c3.41,1.31,6.44,3.22,9.01,5.66,2.6,2.48,4.64,5.41,6.06,8.73,1.42,3.32,2.14,6.98,2.14,10.88s-.72,7.5-2.14,10.84c-1.42,3.35-3.46,6.3-6.06,8.78-2.57,2.45-5.6,4.36-9.01,5.67-3.35,1.29-7.02,1.95-10.89,1.95Zm-.06-33.96c-.97,0-1.85.16-2.61.48-.73.3-1.36.73-1.88,1.28-.57.59-1.02,1.3-1.35,2.11-.32.8-.48,1.76-.48,2.86s.16,2.07.49,2.87c.33.81.78,1.52,1.35,2.11.52.55,1.16.98,1.89,1.28.76.32,1.64.48,2.61.48s1.82-.16,2.56-.47c.73-.31,1.39-.76,1.94-1.33.57-.59,1.02-1.28,1.34-2.08.32-.8.48-1.76.48-2.87s-.16-2.07-.49-2.87c-.32-.79-.77-1.49-1.34-2.07-.56-.57-1.21-1.02-1.94-1.33-.74-.31-1.6-.47-2.56-.47Z"/>
            <path class="cls-1" d="m189.72,98.44c-.71,0-1.57-.03-2.56-.08-.94-.05-1.94-.12-2.97-.2-1.02-.08-2.03-.18-3.06-.27-2.61-.26-4.67-2.07-5.36-4.45-.37-.09-.72-.22-1.05-.37l-6.77-3.25c-1.55-.73-2.76-2.13-3.27-3.82-.51-1.63-.32-3.46.54-4.97,1.31-2.32,2.55-4.86,3.67-7.54.55-1.31,1.05-2.6,1.51-3.88-2.5-.82-4.31-3.19-4.31-5.98v-7.05c0-3.46,2.79-6.28,6.22-6.28h12.12v-.48c0-3.46,2.79-6.28,6.22-6.28h7.99c1.33,0,2.57.43,3.58,1.15.66-.6,1.39-1.13,2.17-1.59,2.03-1.19,4.27-1.8,6.66-1.8s4.77.62,6.78,1.84c1.92,1.16,3.48,2.74,4.65,4.69,1.23,2.06,1.86,4.36,1.86,6.85s-.63,4.79-1.86,6.85c-.28.47-.59.93-.93,1.36v.73c0,2.52-1.48,4.7-3.6,5.7.62,1.32,1.22,2.67,1.8,4.04,1.41,3.34,2.59,6.67,3.49,9.9.89,3.2-.84,6.55-3.93,7.64,0,0-7.21,2.51-7.25,2.52-.6.2-1.29.31-1.93.31-.91,0-1.89-.23-2.71-.63-.06-.03-.12-.06-.18-.09-1.42-.75-2.48-2-3-3.53-.53,2.2-1.52,4.04-2.96,5.46-1.48,1.46-3.39,2.46-5.69,2.97-1.62.36-3.54.54-5.88.54Z"/>
            <path class="cls-1" d="m238.14,99.12c-3.43,0-6.22-2.82-6.22-6.28v-13.08c-.37.12-.75.23-1.12.34-3.28.98-6.5,1.73-9.58,2.26-.33.06-.7.09-1.03.09-1.3,0-2.55-.4-3.61-1.17-1.36-1-2.24-2.43-2.52-4.06l-1.21-7.31c-.27-1.64.12-3.34,1.08-4.69.97-1.36,2.4-2.26,4.03-2.54,2.94-.45,5.97-1.2,9.1-2.26,3.21-1.09,6.45-2.44,9.61-4.02,3.17-1.58,6.15-3.34,8.88-5.22,2.65-1.83,4.96-3.73,6.86-5.65,1.17-1.19,2.74-1.84,4.4-1.84.13,0,.25,0,.38.01,1.65.1,3.22.88,4.31,2.14l4.86,5.64c2.11,2.44,2.01,6.18-.24,8.51-2.15,2.21-4.64,4.33-7.4,6.34-1.88,1.36-3.89,2.69-6,3.96v22.56c0,3.46-2.79,6.28-6.22,6.28h-8.38Z"/>
            <path class="cls-1" d="m269.79,100c-1.18,0-2.34-.34-3.34-.98l-6-3.83c-2.83-1.79-3.74-5.63-2.01-8.54,1.14-1.93,2.26-4.15,3.32-6.59.81-1.86,1.56-3.76,2.24-5.65-.18-.15-.36-.3-.54-.45-1.4-1.17-2.9-2.35-4.47-3.51-1.38-1.01-2.3-2.6-2.5-4.34-.2-1.64.29-3.38,1.36-4.7l2.14-2.6c-.79-.92-1.3-2.06-1.47-3.28-.23-1.72.26-3.47,1.35-4.81l4.14-5.11c1.2-1.47,2.95-2.3,4.81-2.3,1.25,0,2.45.37,3.48,1.08,1.31.91,2.55,1.82,3.73,2.72.76-.32,1.58-.49,2.42-.49,3.35,0,6.66-.14,9.84-.41,3.16-.27,6.1-.67,8.72-1.18,2.61-.5,4.78-1.03,6.46-1.57.59-.19,1.26-.29,1.88-.29,1.02,0,2.03.26,2.93.74,1.47.8,2.54,2.11,3.02,3.71l1.89,6.41c.44,1.5.31,3.04-.27,4.36,1.02,1.12,1.64,2.61,1.64,4.24v6.32c0,1.88-.82,3.57-2.12,4.72v19.93c0,3.46-2.79,6.28-6.22,6.28h-7.41c-1.86,0-3.53-.83-4.67-2.14h-3.61c-1.14,1.31-2.81,2.14-4.67,2.14h-7.32c-1.67,0-3.19-.67-4.31-1.75-.83.86-1.91,1.48-3.09,1.75h0c-.44.1-.92.15-1.36.15Z"/>
          </g>
        </g>
      </g>
      <g>
        <g>
          <rect class="cls-1" x="44.02" y="63.9" width="17.65" height="15.65"/>
          <rect class="cls-1" x="134.45" y="65.29" width="24.16" height="14.26"/>
          <rect class="cls-1" x="44.02" y="25.21" width="247.87" height="36.92"/>
        </g>
        <g>
          <g>
            <path class="cls-2" d="m7.85,41.34c-.61-2.61-1.07-5.26-1.37-7.86-.3-2.61-.46-5.38-.46-8.25s.15-5.63.46-8.23c.3-2.6.75-5.24,1.34-7.84l.02-.09,6.34.72-.03.11c-.58,2.42-1.02,4.94-1.31,7.47-.29,2.54-.44,5.18-.44,7.86s.15,5.32.44,7.86c.29,2.54.73,5.05,1.31,7.47l.03.11-6.3.76-.02-.09Zm16.45-.42c-2.88,0-5.17-.69-6.81-2.06-1.64-1.37-2.48-3.3-2.48-5.74s.83-4.36,2.46-5.74c1.62-1.37,3.92-2.06,6.83-2.06,1.03,0,2.02.11,2.95.33v-6.28h-11.7v-5.44h11.7v-5.7h6.22v5.7h6.55v5.44h-6.55v9.72c.55.39,1.18.93,1.83,1.52,1.52,1.37,3.34,3.13,5.42,5.22l.07.07-3.87,4.23-.07-.08c-1.48-1.52-2.8-2.83-3.92-3.91-.39,1.06-1.01,1.96-1.83,2.69-1.57,1.4-3.86,2.1-6.79,2.1Zm-.27-10.16c-2.21,0-3.29.77-3.29,2.36s1.08,2.36,3.29,2.36c1.19,0,2.03-.24,2.5-.72.47-.48.71-1.28.71-2.37v-.83c-.32-.17-.63-.3-.92-.41-.75-.26-1.52-.4-2.29-.4Z"/>
            <path class="cls-2" d="m58.43,41.34c-3.08,0-5.61-.47-7.55-1.4-1.94-.93-3.4-2.42-4.32-4.42-.92-1.99-1.38-4.6-1.38-7.76V9.35h6.56v18.42c0,2.66.52,4.59,1.56,5.76,1.03,1.17,2.75,1.76,5.13,1.76,1.8,0,3.42-.35,4.79-1.05,1.38-.7,2.66-1.84,3.81-3.41,1.16-1.58,2.35-3.74,3.53-6.45l.04-.09,5.74,2.54-.04.09c-1.06,2.64-2.19,4.91-3.34,6.75-1.16,1.85-2.45,3.35-3.85,4.45-1.4,1.11-2.99,1.93-4.72,2.44-1.73.51-3.74.77-5.97.77Zm5.89-21.88c-.61-1.32-1.26-2.6-1.96-3.78-.7-1.19-1.48-2.42-2.34-3.67l-.06-.09,4.14-2.25.05.07c.86,1.26,1.65,2.51,2.35,3.72.7,1.22,1.36,2.54,1.97,3.92l.04.09-4.14,2.09-.04-.09Zm6.21-2.12c-.58-1.33-1.21-2.61-1.86-3.82-.66-1.21-1.41-2.46-2.24-3.71l-.06-.09,4.06-2.13.05.07c.89,1.28,1.67,2.56,2.33,3.8.66,1.24,1.29,2.57,1.87,3.95l.04.09-4.14,1.93-.04-.09Z"/>
            <path class="cls-2" d="m100.66,35.85l.11-.02c1.78-.28,3.33-.81,4.59-1.58,1.26-.77,2.24-1.78,2.92-3,.67-1.22,1.02-2.64,1.02-4.2,0-1.74-.43-3.26-1.28-4.52-.51-.75-1.16-1.41-1.93-1.96-.13.34-.27.67-.41,1-1.6,3.82-3.36,7.14-5.23,9.85-1.88,2.72-3.87,4.84-5.93,6.3-2.07,1.47-4.18,2.21-6.27,2.21-1.61,0-3.02-.41-4.17-1.23s-2.06-2-2.68-3.53c-.62-1.52-.94-3.36-.94-5.47,0-2.57.44-4.93,1.3-7.02.86-2.09,2.11-3.91,3.7-5.4.39-.37.81-.72,1.25-1.05-.51-1.94-1.02-3.96-1.52-6.05l-.02-.1,6.07-1.35.02.1c.36,1.58.72,3.12,1.09,4.61,1.91-.56,4.02-.84,6.28-.84,1.34,0,2.62.1,3.82.28.54-1.75,1.04-3.58,1.49-5.44l.02-.1,5.87,1.23-.02.1c-.51,2.11-1.07,4.15-1.67,6.08,2.11,1.15,3.81,2.71,5.04,4.64,1.38,2.15,2.07,4.72,2.07,7.66,0,2.57-.54,4.9-1.59,6.92s-2.57,3.7-4.49,5c-1.92,1.3-4.22,2.14-6.84,2.5h-.09s-1.58-5.61-1.58-5.61Zm-12.21-13.36c-.29.34-.56.72-.8,1.1-1,1.62-1.51,3.55-1.51,5.76,0,1.04.11,1.92.32,2.63.21.7.53,1.23.94,1.59.41.35.91.53,1.5.53.91,0,1.91-.45,2.97-1.32l.06-.05c-.8-2.16-1.56-4.32-2.26-6.42-.42-1.26-.83-2.53-1.21-3.81Zm5.4-3.32c.53,1.89,1.1,3.76,1.69,5.57.25.78.52,1.57.78,2.36.7-1.18,1.4-2.49,2.1-3.91.7-1.42,1.37-2.95,2-4.55-.57-.05-1.18-.08-1.8-.08-1.74,0-3.34.21-4.77.61Z"/>
            <path class="cls-2" d="m140.03,40.92c-3.17,0-5.98-.54-8.35-1.61-2.37-1.07-4.23-2.6-5.53-4.56-1.3-1.96-1.96-4.31-1.96-6.98,0-1.8.32-3.53.94-5.14.62-1.61,1.52-3.06,2.67-4.32.5-.55,1.04-1.05,1.63-1.49l-13.51.31v-5.78l32.74-.77v5.78l-4.98.12c-1.76.03-3.43.3-4.96.8-1.53.51-2.89,1.24-4.05,2.18-1.15.94-2.07,2.06-2.72,3.34-.65,1.27-.98,2.74-.98,4.36s.36,3.07,1.07,4.24c.71,1.17,1.76,2.07,3.12,2.67,1.36.61,3.04.91,4.97.91.68,0,1.48-.04,2.37-.11.9-.08,1.72-.19,2.45-.35l.11-.02.67,5.94-.09.02c-.92.15-1.87.27-2.83.35-.97.08-1.9.12-2.79.12Z"/>
            <path class="cls-2" d="m169.65,35.19h.12c1.25-.17,2.41-.53,3.45-1.08,1.04-.55,1.94-1.28,2.68-2.15.74-.87,1.31-1.9,1.7-3.05.39-1.15.59-2.4.59-3.72,0-1.95-.44-3.64-1.3-5.03-.86-1.39-2.08-2.48-3.62-3.23-.78-.39-1.64-.68-2.54-.87-.5,3.47-1.03,6.55-1.59,9.17-.75,3.49-1.6,6.35-2.54,8.51-.94,2.16-2.04,3.76-3.27,4.75-1.23,1-2.65,1.5-4.22,1.5-1.38,0-2.66-.33-3.8-.97-1.14-.65-2.15-1.55-3-2.68-.85-1.13-1.53-2.5-2-4.05-.47-1.55-.71-3.27-.71-5.09,0-2.49.46-4.82,1.38-6.91.92-2.09,2.2-3.92,3.81-5.44,1.61-1.52,3.57-2.71,5.81-3.56,2.24-.85,4.72-1.28,7.39-1.28,3.15,0,5.99.6,8.45,1.78,2.46,1.18,4.42,2.93,5.83,5.2,1.41,2.26,2.13,5.03,2.13,8.21,0,2.08-.31,4.04-.92,5.83-.61,1.79-1.49,3.39-2.61,4.76-1.12,1.38-2.48,2.51-4.05,3.37-1.57.86-3.34,1.43-5.27,1.69h-.08s-1.82-5.65-1.82-5.65Zm-5.23-18.94c-.44.12-.87.27-1.29.43-1.49.6-2.83,1.43-3.97,2.46-1.14,1.04-2.04,2.26-2.68,3.62-.64,1.36-.96,2.85-.96,4.42,0,1.01.16,2.02.49,2.99.32.97.75,1.79,1.26,2.43.5.63,1,.94,1.5.94.77,0,1.52-.85,2.25-2.54.74-1.72,1.47-4.23,2.15-7.47.45-2.13.87-4.59,1.25-7.3Z"/>
            <path class="cls-2" d="m201.52,41.57c-.46,0-1.05-.02-1.76-.06-.71-.04-1.46-.09-2.23-.15-.78-.06-1.56-.13-2.34-.21h-.1s.36-5.71.36-5.71h.1c.64.06,1.24.12,1.81.18.56.06,1.09.1,1.57.12.48.01.87.02,1.18.02.68,0,1.16-.03,1.45-.09.25-.06.41-.23.48-.52.07-.32.11-.86.11-1.59v-14.56h-14.52v-5.78h14.52v-5.35h6.53v5.35h4.22c-.1-.43-.15-.89-.15-1.36,0-1.06.25-2.05.76-2.92.5-.87,1.19-1.57,2.06-2.08.86-.51,1.82-.76,2.85-.76,1.08,0,2.05.26,2.89.77.84.51,1.52,1.2,2.03,2.06.52.86.78,1.83.78,2.9s-.26,2.04-.78,2.9c-.39.66-.89,1.22-1.47,1.68l.04,2.6h-13.22v15.33c0,1.49-.1,2.72-.29,3.66-.19.95-.56,1.7-1.08,2.21-.52.51-1.25.88-2.18,1.08-.92.21-2.13.31-3.6.31Zm16.88-31.52c-.48,0-.89.17-1.22.51s-.5.75-.5,1.24.17.91.51,1.26c.34.35.74.53,1.22.53.51,0,.92-.17,1.24-.53.32-.35.49-.77.49-1.26s-.16-.9-.49-1.24c-.32-.34-.74-.51-1.24-.51Zm-.82,27.72c-.48-1.58-1.03-3.23-1.64-4.88-.61-1.66-1.27-3.3-1.96-4.88-.7-1.58-1.42-3.06-2.15-4.38l-.06-.1,5.68-2.11.04.08c1.19,2.2,2.32,4.56,3.36,7.01s1.9,4.89,2.56,7.25l.03.09-5.83,2.03-.03-.1Zm-31.33-2.6l.05-.09c1.14-2.01,2.2-4.2,3.16-6.49.96-2.29,1.77-4.56,2.4-6.72l.03-.1,5.83,1.71-.03.1c-.61,2.2-1.44,4.57-2.46,7.06-1.02,2.48-2.19,4.87-3.45,7.09l-.05.08-5.48-2.63Z"/>
            <path class="cls-2" d="m239.93,42.11v-17.43c-2.34,1.01-4.72,1.87-7.07,2.57-2.4.72-4.77,1.27-7.02,1.66l-.1.02-.99-5.98.1-.02c2.53-.38,5.2-1.05,7.95-1.98,2.75-.93,5.52-2.09,8.22-3.44,2.7-1.35,5.26-2.86,7.61-4.48,2.35-1.62,4.4-3.32,6.12-5.05l.08-.08,3.98,4.62-.07.07c-1.5,1.54-3.25,3.04-5.21,4.46-1.96,1.42-4.11,2.79-6.39,4.07l-.37.2v20.78h-6.83Z"/>
            <path class="cls-2" d="m260.38,39.69l.05-.08c1.01-1.7,1.99-3.64,2.91-5.76.92-2.12,1.75-4.28,2.45-6.42l.03-.1,5.14,1.91-.02.09c-.38,1.53-.87,3.13-1.47,4.74-.59,1.61-1.25,3.18-1.97,4.67-.71,1.48-1.43,2.83-2.14,4.01l-.05.09-4.93-3.15Zm27.78,2.99v-1.69h-10.05v1.69h-5.99v-16.25h7.89v-3.26h-9.26v-5.21h9.26v-2.7c-2.4.16-4.95.25-7.6.25h-.09l-.28-5.24h.11c2.78,0,5.54-.12,8.2-.35,2.67-.23,5.16-.57,7.4-1,2.25-.43,4.15-.9,5.67-1.38l.1-.03,1.54,5.24-.09.03c-1.63.54-3.62,1.02-5.92,1.43-.84.15-1.72.29-2.62.41v3.35h9.49v5.21h-9.49v3.26h7.81v16.25h-6.07Zm0-6.36v-5.19h-10.05v5.19h10.05Zm-21.46-10.06c-1.04-.97-2.17-1.97-3.35-2.96-1.19-.99-2.45-1.99-3.77-2.96l-.09-.06,3.44-4.2.08.05c1.32.95,2.6,1.92,3.8,2.87,1.2.96,2.33,1.95,3.34,2.95l.07.06-3.44,4.31-.08-.07Zm.88-9.2c-.94-.84-1.95-1.72-3.03-2.59-1.08-.88-2.21-1.75-3.37-2.59l-.09-.06,3.4-4.2.08.05c1.21.84,2.37,1.7,3.43,2.54,1.06.84,2.08,1.7,3.01,2.54l.07.06-3.44,4.31-.08-.07Z"/>
          </g>
          <path class="cls-2" d="m304.08,42.78c-.55-2.35-.96-4.73-1.24-7.09-.27-2.35-.41-4.85-.41-7.44s.14-5.08.41-7.42c.28-2.35.68-4.72,1.2-7.07l.04-.18,5.93.67-.05.22c-.52,2.18-.92,4.44-1.18,6.71-.26,2.28-.39,4.65-.39,7.06s.13,4.78.39,7.06c.26,2.28.66,4.54,1.18,6.71l.05.22-5.89.71-.04-.18Zm14.91-.29c-2.62,0-4.71-.63-6.2-1.88-1.5-1.26-2.27-3.02-2.27-5.25s.76-3.99,2.25-5.25c1.48-1.25,3.57-1.88,6.22-1.88.88,0,1.74.09,2.54.27v-5.4h-10.53v-5.12h10.53v-5.13h5.82v5.13h5.9v5.12h-5.9v8.54c.51.41,1.05.87,1.61,1.38,1.36,1.23,3.01,2.81,4.88,4.7l.14.14-3.63,3.97-.15-.15c-1.28-1.32-2.43-2.46-3.41-3.4-.36.9-.9,1.68-1.61,2.31-1.44,1.27-3.52,1.92-6.19,1.92Zm-.24-9.14c-1.92,0-2.85.66-2.85,2.01s.93,2.01,2.85,2.01c1.04,0,1.77-.21,2.17-.62s.61-1.1.61-2.06v-.68c-.26-.13-.52-.24-.76-.33-.66-.23-1.34-.35-2.03-.35Z"/>
        </g>
        <g>
          <path class="cls-8" d="m50.73,91.67c-3.18,0-6.15-.52-8.83-1.55-2.69-1.03-5.04-2.51-7-4.41-1.96-1.9-3.5-4.16-4.6-6.72-1.09-2.56-1.65-5.41-1.65-8.47s.55-5.91,1.65-8.47c1.09-2.56,2.66-4.82,4.66-6.72,2-1.9,4.37-3.38,7.06-4.41,2.68-1.03,5.68-1.55,8.89-1.55,3.56,0,6.81.61,9.67,1.81,2.86,1.2,5.3,2.97,7.26,5.26.07.08.06.21-.02.28l-5.9,5.55s-.09.05-.14.05c-.05,0-.11-.02-.15-.06-1.47-1.55-3.06-2.72-4.75-3.45-1.68-.74-3.57-1.11-5.59-1.11-1.87,0-3.62.32-5.2.94-1.57.62-2.95,1.51-4.09,2.65-1.14,1.13-2.03,2.49-2.65,4.04-.62,1.55-.93,3.3-.93,5.19s.31,3.53.93,5.1c.62,1.57,1.51,2.94,2.65,4.07,1.14,1.13,2.51,2.03,4.06,2.68,1.55.64,3.29.97,5.17.97s3.58-.31,5.29-.91c.58-.21,1.16-.46,1.73-.76v-11.78c0-.11.09-.2.2-.2h8.48c.11,0,.2.09.2.2v16.43c0,.06-.03.12-.08.16-2.22,1.7-4.81,3.01-7.68,3.88-2.87.87-5.78,1.31-8.65,1.31Z"/>
          <path class="cls-6" d="m109.67,90.97c-.11,0-.2-.09-.2-.2l-.1-23.43-11.44,19.2c-.04.06-.1.1-.17.1h-4.12c-.07,0-.13-.04-.17-.1l-11.43-18.93v23.16c0,.11-.09.2-.2.2h-8.65c-.11,0-.2-.09-.2-.2v-40.5c0-.11.09-.2.2-.2h7.68c.07,0,.14.04.17.1l14.84,24.85,14.54-24.85c.04-.06.1-.1.17-.1h7.73c.11,0,.2.09.2.2v40.5c0,.11-.09.2-.2.2h-8.65Z"/>
          <path class="cls-7" d="m146.1,91.67c-3.18,0-6.15-.53-8.84-1.58-2.69-1.05-5.06-2.54-7.05-4.44-2-1.9-3.56-4.16-4.66-6.72-1.09-2.56-1.65-5.39-1.65-8.41s.56-5.9,1.65-8.44c1.09-2.54,2.66-4.79,4.66-6.69s4.36-3.39,7.03-4.44c2.66-1.05,5.63-1.58,8.81-1.58s6.14.52,8.81,1.55c2.66,1.03,5.03,2.51,7.03,4.41,2,1.9,3.56,4.16,4.66,6.72,1.09,2.56,1.65,5.41,1.65,8.47s-.55,5.86-1.65,8.44c-1.09,2.58-2.66,4.85-4.66,6.75-2,1.9-4.36,3.38-7.03,4.41-2.67,1.03-5.61,1.55-8.75,1.55Zm-.06-33.96c-1.76,0-3.41.32-4.91.94-1.49.62-2.81,1.52-3.91,2.67-1.1,1.15-1.98,2.51-2.59,4.04-.62,1.53-.93,3.27-.93,5.16s.31,3.63.93,5.16c.62,1.53,1.49,2.89,2.59,4.04,1.1,1.15,2.42,2.05,3.91,2.67,1.5.62,3.15.94,4.91.94s3.4-.32,4.88-.94c1.48-.63,2.8-1.52,3.92-2.67,1.12-1.15,2-2.51,2.62-4.04.62-1.53.93-3.27.93-5.16s-.31-3.63-.93-5.16c-.62-1.53-1.5-2.89-2.62-4.04s-2.44-2.05-3.92-2.67c-1.48-.62-3.12-.94-4.88-.94Z"/>
          <path class="cls-4" d="m189.72,92.37c-.58,0-1.32-.02-2.23-.07-.9-.05-1.84-.11-2.82-.19-.98-.08-1.97-.17-2.96-.27-.11-.01-.19-.11-.18-.21l.43-6.95c0-.05.03-.1.07-.14.04-.03.08-.05.13-.05,0,0,.01,0,.02,0,.8.07,1.57.14,2.29.22.71.08,1.38.13,1.98.14.61.02,1.1.02,1.49.02.85,0,1.46-.04,1.81-.12.29-.06.47-.26.54-.6.09-.4.14-1.07.14-2v-18.32h-18.14c-.11,0-.2-.09-.2-.2v-7.05c0-.11.09-.2.2-.2h18.14v-6.56c0-.11.09-.2.2-.2h7.99c.11,0,.2.09.2.2v6.56h5.17c-.12-.53-.18-1.08-.18-1.64,0-1.36.33-2.61.97-3.72.64-1.11,1.52-2,2.62-2.65,1.1-.65,2.33-.98,3.64-.98,1.38,0,2.62.33,3.69.98,1.07.65,1.94,1.53,2.6,2.62.66,1.1.99,2.34.99,3.7s-.33,2.61-.99,3.7c-.48.81-1.09,1.51-1.8,2.08v3.16c0,.11-.09.2-.2.2h-16.5v19.29c0,1.89-.12,3.45-.37,4.63-.25,1.22-.71,2.17-1.38,2.83-.67.65-1.61,1.12-2.79,1.39-1.16.26-2.7.39-4.57.39Zm21.32-39.82c-.59,0-1.08.2-1.49.62-.41.42-.62.91-.62,1.51s.2,1.1.62,1.54c.41.43.9.64,1.49.64.62,0,1.12-.21,1.51-.64.4-.43.6-.94.6-1.54s-.19-1.09-.59-1.51c-.4-.42-.89-.62-1.52-.62Zm-.91,35.1s-.06,0-.09-.02c-.05-.03-.08-.07-.1-.12-.61-2-1.3-4.07-2.07-6.16-.76-2.09-1.6-4.16-2.47-6.16-.88-1.99-1.79-3.85-2.71-5.53-.03-.05-.03-.11-.01-.17s.06-.1.12-.12l6.93-2.58s.05-.01.07-.01c.07,0,.14.04.18.11,1.5,2.78,2.93,5.76,4.24,8.87,1.31,3.1,2.4,6.19,3.23,9.16.03.1-.03.21-.13.25l-7.12,2.48s-.04.01-.07.01Zm-32.83-.1s-.06,0-.09-.02l-6.69-3.21c-.05-.02-.09-.07-.11-.12-.02-.05-.01-.11.02-.16,1.43-2.54,2.77-5.29,3.99-8.2,1.21-2.89,2.23-5.75,3.02-8.49.03-.09.11-.15.19-.15.02,0,.04,0,.06,0l7.12,2.09c.11.03.17.14.14.25-.77,2.78-1.82,5.78-3.11,8.92-1.29,3.13-2.76,6.15-4.37,8.97-.04.07-.1.1-.17.1Z"/>
          <path class="cls-5" d="m238.14,93.05c-.11,0-.2-.09-.2-.2v-21.78c-2.93,1.26-5.9,2.33-8.84,3.21-3.05.91-6.04,1.61-8.88,2.1-.01,0-.02,0-.03,0-.04,0-.08-.01-.12-.04-.04-.03-.07-.08-.08-.13l-1.2-7.29c0-.05,0-.11.04-.15.03-.04.08-.07.13-.08,3.19-.48,6.56-1.32,10.03-2.49,3.47-1.18,6.96-2.64,10.37-4.34,3.41-1.71,6.64-3.61,9.6-5.65,2.96-2.04,5.56-4.19,7.72-6.37.04-.04.09-.06.14-.06,0,0,0,0,0,0,.06,0,.11.03.14.07l4.86,5.64c.07.08.07.2,0,.27-1.89,1.94-4.11,3.84-6.6,5.64-2.48,1.79-5.2,3.52-8.08,5.14l-.43.24v26.08c0,.11-.09.2-.2.2h-8.38Z"/>
          <path class="cls-3" d="m269.79,93.92s-.07-.01-.11-.03l-6.02-3.84c-.09-.06-.12-.18-.07-.27,1.27-2.15,2.51-4.6,3.67-7.27,1.16-2.67,2.2-5.39,3.1-8.1.02-.05.05-.09.1-.12.03-.01.06-.02.09-.02.02,0,.05,0,.07.01l6.26,2.33c.1.04.15.14.12.24-.48,1.94-1.11,3.96-1.86,6-.75,2.04-1.59,4.02-2.49,5.9-.9,1.88-1.81,3.58-2.7,5.07-.03.05-.07.08-.13.09-.02,0-.03,0-.05,0Zm29.03-.15c-.11,0-.2-.09-.2-.2v-1.94h-12.55v1.94c0,.11-.09.2-.2.2h-7.32c-.11,0-.2-.09-.2-.2v-20.27c0-.11.09-.2.2-.2h9.76v-3.97h-11.5c-.11,0-.2-.09-.2-.2v-6.32c0-.11.09-.2.2-.2h11.5v-3.25c-3.01.2-6.21.3-9.52.3-.11,0-.19-.08-.2-.19l-.34-6.37c0-.06.02-.11.05-.15.04-.04.09-.06.15-.06,3.51,0,7-.15,10.36-.44,3.37-.29,6.51-.72,9.34-1.26,2.83-.55,5.24-1.13,7.15-1.74.02,0,.04,0,.06,0,.03,0,.06,0,.09.02.05.03.08.07.1.12l1.88,6.37c.03.1-.03.22-.13.25-2.05.68-4.57,1.29-7.49,1.81-1.04.18-2.13.36-3.25.51v4.09h11.78c.11,0,.2.09.2.2v6.32c0,.11-.09.2-.2.2h-11.78v3.97h9.67c.11,0,.2.09.2.2v20.27c0,.11-.09.2-.2.2h-7.41Zm-.2-8.18v-6.4h-12.55v6.4h12.55Zm-26.95-12.53c-.05,0-.1-.02-.14-.05-1.31-1.23-2.74-2.49-4.23-3.74-1.49-1.25-3.09-2.51-4.76-3.74-.04-.03-.07-.08-.08-.14,0-.06,0-.11.04-.15l4.19-5.1s.1-.07.15-.07c.04,0,.08.01.12.04,1.67,1.2,3.29,2.42,4.8,3.63,1.53,1.22,2.95,2.47,4.23,3.73.07.07.08.19.02.27l-4.19,5.25s-.09.07-.14.08c0,0,0,0-.01,0Zm1.11-11.62s-.1-.02-.13-.05c-1.18-1.06-2.46-2.17-3.82-3.28-1.36-1.11-2.79-2.21-4.25-3.27-.05-.03-.07-.08-.08-.14s0-.11.04-.16l4.14-5.1s.1-.07.16-.07c.04,0,.08.01.11.04,1.53,1.06,2.99,2.14,4.34,3.22,1.34,1.06,2.62,2.14,3.81,3.22.08.07.09.19.02.28l-4.19,5.25s-.09.07-.14.08c0,0-.01,0-.02,0Z"/>
        </g>
      </g>
    </g>
  </g>
</svg>