<svg id="_レイヤー_2" data-name="レイヤー 2" xmlns="http://www.w3.org/2000/svg" width="700" height="58" xmlns:xlink="http://www.w3.org/1999/xlink"><defs><linearGradient id="_名称未設定グラデーション_55-6" data-name="名称未設定グラデーション 55" x1="580.55" y1="51.49" x2="580.55" y2="5.95" xlink:href="#_名称未設定グラデーション_55"/><linearGradient id="_名称未設定グラデーション_55-11" data-name="名称未設定グラデーション 55" x1="671.12" y1="51.49" x2="671.12" y2="5.95" xlink:href="#_名称未設定グラデーション_55"/><linearGradient id="_名称未設定グラデーション_55-2" data-name="名称未設定グラデーション 55" x1="482.55" y1="51.49" x2="482.55" y2="5.95" xlink:href="#_名称未設定グラデーション_55"/><linearGradient id="_名称未設定グラデーション_55-3" data-name="名称未設定グラデーション 55" x1="482.55" y1="51.49" x2="482.55" y2="5.95" xlink:href="#_名称未設定グラデーション_55"/><linearGradient id="_名称未設定グラデーション_55-4" data-name="名称未設定グラデーション 55" x1="532.53" x2="532.53" xlink:href="#_名称未設定グラデーション_55"/><linearGradient id="_名称未設定グラデーション_55-5" data-name="名称未設定グラデーション 55" x1="532.53" x2="532.53" xlink:href="#_名称未設定グラデーション_55"/><linearGradient id="_名称未設定グラデーション_55" data-name="名称未設定グラデーション 55" x1="435.36" y1="51.49" x2="435.36" y2="5.95" gradientUnits="userSpaceOnUse"><stop offset=".5" stop-color="#f39800"/><stop offset=".5" stop-color="#faca06"/><stop offset="1" stop-color="#f39800"/></linearGradient><linearGradient id="_名称未設定グラデーション_55-7" data-name="名称未設定グラデーション 55" x1="580.55" y1="51.49" x2="580.55" y2="5.95" xlink:href="#_名称未設定グラデーション_55"/><linearGradient id="_名称未設定グラデーション_55-8" data-name="名称未設定グラデーション 55" x1="626.23" y1="51.49" x2="626.23" y2="5.95" xlink:href="#_名称未設定グラデーション_55"/><linearGradient id="_名称未設定グラデーション_55-9" data-name="名称未設定グラデーション 55" x1="626.23" y1="51.49" x2="626.23" y2="5.95" xlink:href="#_名称未設定グラデーション_55"/><linearGradient id="_名称未設定グラデーション_55-10" data-name="名称未設定グラデーション 55" x1="671.12" y1="51.49" x2="671.12" y2="5.95" xlink:href="#_名称未設定グラデーション_55"/><style>.cls-1{fill:#fff}.cls-2{fill:#74210f}.cls-13{fill:url(#_名称未設定グラデーション_55)}</style></defs><g id="_レイヤー_1-2" data-name="レイヤー 1"><path class="cls-1" d="M8.27 56.29c-2.74 0-5.17-1.87-5.82-4.59A93.95 93.95 0 0 1 .61 41.33C.2 37.88 0 34.22 0 30.46s.21-7.42.62-10.85c.41-3.41 1-6.87 1.78-10.29.62-2.74 3.07-4.64 5.83-4.64.22 0 .44.01.67.04l7.7.86a5.98 5.98 0 0 1 5.26 5.1h4.79V9.59c0-3.28 2.68-5.95 5.98-5.95h7.56c3.3 0 5.98 2.66 5.98 5.95v1.09h2.25c3.3 0 5.98 2.66 5.98 5.95v6.47c0 3.28-2.68 5.95-5.98 5.95h-2.25v3.42c.11.1.23.2.34.3 1.99 1.76 4.35 4.01 7.04 6.68 2.27 2.26 2.34 5.9.16 8.24l-4.69 5.04a6.02 6.02 0 0 1-4.29 1.91h-.1c-1.6 0-3.13-.64-4.26-1.77l-.33-.33c-2.94 2.09-6.71 3.15-11.25 3.15-3.38 0-6.37-.6-8.91-1.77-.9.79-2.03 1.3-3.25 1.45l-7.65.9c-.24.03-.48.04-.71.04Z"/><path class="cls-1" d="M71.42 56.19c-4.8 0-8.72-.75-11.98-2.29-3.71-1.75-6.47-4.53-8.22-8.27-1.53-3.28-2.28-7.22-2.28-12.04V10.95c0-3.28 2.68-5.95 5.98-5.95h7.99c3.09 0 5.64 2.33 5.95 5.33a5.9 5.9 0 0 1 1.84-1.52l4.98-2.66c.9-.48 1.87-.71 2.83-.71.42 0 .85.04 1.26.13l3.93-2.03a6.03 6.03 0 0 1 2.75-.67c1.9 0 3.75.9 4.9 2.54 1.24 1.77 2.35 3.55 3.29 5.28a66.59 66.59 0 0 1 2.58 5.36c1.27 2.96-.06 6.38-3 7.73l-2.72 1.25 4.67 2.04c2.97 1.29 4.36 4.71 3.14 7.69-1.47 3.57-3.04 6.69-4.67 9.26-1.81 2.85-3.89 5.2-6.18 6.98-2.34 1.82-5 3.17-7.88 4.02-2.71.79-5.79 1.19-9.15 1.19Zm-2.09-19.4c.2.09.8.28 2.09.28 1.35 0 2.49-.23 3.4-.68.9-.45 1.81-1.28 2.7-2.48.91-1.22 1.87-2.85 2.85-4.86-.47.12-.96.18-1.45.18-.67 0-1.34-.11-1.98-.34a5.96 5.96 0 0 1-3.45-3.12c-.68-1.46-1.41-2.85-2.18-4.15-.73-1.22-1.55-2.49-2.44-3.79V33.6c0 2.06.33 2.94.45 3.2Z"/><path class="cls-1" d="M126.31 56.34c-2.64 0-5.01-1.74-5.75-4.32l-.44-1.53-.22.16c-3.6 2.52-7.38 3.79-11.24 3.79-3.25 0-6.14-.87-8.6-2.57-2.37-1.65-4.2-3.97-5.42-6.9-1.08-2.58-1.63-5.61-1.63-8.99 0-3.95.7-7.62 2.09-10.92 1.22-2.91 2.92-5.5 5.05-7.71-.35-1.35-.69-2.72-1.03-4.11-.38-1.55-.12-3.2.73-4.56a6.009 6.009 0 0 1 3.79-2.67l7.37-1.62c.43-.1.87-.14 1.29-.14 2.73 0 5.19 1.87 5.82 4.63.02.1.04.19.07.29 1.13-.1 2.3-.16 3.48-.16h.49c.17-.64.33-1.29.49-1.93.66-2.71 3.1-4.54 5.8-4.54.4 0 .81.04 1.22.13l7.13 1.48c1.59.33 2.97 1.28 3.84 2.64s1.14 3.02.76 4.58c-.31 1.26-.63 2.5-.97 3.72 1.73 1.44 3.21 3.11 4.44 4.99 2.35 3.61 3.54 7.86 3.54 12.62 0 4.13-.9 7.93-2.68 11.27-1.79 3.36-4.33 6.15-7.56 8.3-3.16 2.1-6.88 3.45-11.06 4.02-.27.04-.54.05-.81.05Z"/><path class="cls-1" d="M173.38 55.67c-4.81 0-9.14-.84-12.86-2.49-3.99-1.77-7.16-4.36-9.42-7.71-2.29-3.4-3.45-7.39-3.45-11.88 0-2.58.41-5.08 1.21-7.45l-5.61.13a6.03 6.03 0 0 1-4.18-1.69 5.932 5.932 0 0 1-1.8-4.25v-6.9c0-3.23 2.59-5.87 5.84-5.94l40.99-.95c1.56 0 3.06.61 4.18 1.69a5.932 5.932 0 0 1 1.8 4.25v6.9c0 3.23-2.59 5.87-5.84 5.94l-6.12.14c-1.67.02-3.18.26-4.54.7-1.27.41-2.32.97-3.23 1.69-.82.65-1.43 1.39-1.88 2.25-.39.75-.58 1.65-.58 2.73 0 .94.16 1.68.48 2.2.18.29.49.67 1.28 1.02.96.42 2.27.64 3.88.64.69 0 1.53-.04 2.49-.12.89-.07 1.69-.18 2.38-.33.4-.08.81-.12 1.21-.12 1.25 0 2.48.39 3.51 1.13a5.93 5.93 0 0 1 2.43 4.14l.81 7.09c.36 3.14-1.82 6.02-4.96 6.54-1.31.22-2.67.38-4.05.49-1.36.11-2.69.16-3.96.16Z"/><path class="cls-1" d="M212.66 55.57c-2.56 0-4.88-1.64-5.68-4.11l-.22-.69c-.24.21-.48.42-.73.62-2.58 2.05-5.67 3.14-8.96 3.14-2.75 0-5.32-.66-7.64-1.95-2.13-1.19-4-2.83-5.56-4.87-1.49-1.95-2.65-4.25-3.45-6.83-.76-2.47-1.15-5.16-1.15-7.99 0-3.89.75-7.56 2.23-10.89a26 26 0 0 1 6.16-8.64c2.59-2.39 5.69-4.27 9.22-5.59 3.47-1.29 7.28-1.95 11.33-1.95 4.83 0 9.24.93 13.12 2.77 4.1 1.94 7.38 4.83 9.76 8.57 2.37 3.74 3.58 8.2 3.58 13.26 0 3.22-.5 6.28-1.48 9.1-1 2.86-2.44 5.45-4.29 7.69a23.079 23.079 0 0 1-6.8 5.58c-2.6 1.41-5.51 2.33-8.66 2.74-.26.03-.53.05-.79.05Z"/><path class="cls-1" d="M250.11 56.48c-.69 0-1.51-.03-2.52-.08-.95-.05-1.94-.12-2.97-.2-1.01-.08-2.02-.17-3.03-.27a5.966 5.966 0 0 1-5.18-4.31c-.41-.09-.81-.23-1.21-.42l-6.65-3.14a5.97 5.97 0 0 1-3.14-3.59c-.5-1.58-.32-3.29.51-4.73 1.31-2.29 2.54-4.78 3.66-7.41.57-1.35 1.1-2.69 1.57-4-2.51-.71-4.34-3-4.34-5.72v-6.9c0-3.28 2.68-5.95 5.98-5.95h12.25v-.67c0-3.28 2.68-5.95 5.98-5.95h7.94c1.34 0 2.58.44 3.58 1.18.68-.62 1.43-1.16 2.24-1.63 1.99-1.15 4.19-1.73 6.52-1.73s4.66.6 6.64 1.77c1.88 1.12 3.41 2.64 4.55 4.51 1.21 1.99 1.82 4.21 1.82 6.6s-.61 4.62-1.82 6.6c-.29.48-.61.94-.95 1.37v.78c0 2.46-1.5 4.57-3.65 5.48.65 1.35 1.27 2.73 1.87 4.13 1.4 3.26 2.56 6.51 3.46 9.66.86 3.04-.81 6.21-3.81 7.24l-7.08 2.43c-.63.22-1.29.32-1.95.32-.93 0-1.86-.22-2.71-.65a5.954 5.954 0 0 1-3-3.56c-.05-.18-.11-.36-.17-.54-.02.09-.03.17-.05.25-.48 2.34-1.49 4.26-3 5.72-1.45 1.4-3.31 2.36-5.55 2.86-1.6.35-3.49.52-5.8.52Z"/><path class="cls-1" d="M298.23 57.14c-3.3 0-5.98-2.66-5.98-5.95V38.12c-.46.14-.92.28-1.37.41-3.24.95-6.44 1.69-9.5 2.2-.33.06-.66.08-.99.08a5.97 5.97 0 0 1-5.9-4.96l-1.2-7.14c-.26-1.57.12-3.18 1.06-4.47s2.37-2.15 3.95-2.39c2.84-.42 5.86-1.17 8.99-2.21 3.2-1.07 6.43-2.39 9.58-3.95 3.15-1.55 6.13-3.28 8.85-5.12 2.65-1.8 4.95-3.66 6.85-5.55a5.987 5.987 0 0 1 4.23-1.74h.21c1.66.06 3.22.8 4.3 2.04l4.83 5.52a5.918 5.918 0 0 1-.25 8.07c-2.11 2.14-4.57 4.21-7.31 6.16-1.9 1.35-3.92 2.67-6.04 3.92v22.19c0 3.28-2.68 5.95-5.98 5.95h-8.32Z"/><path class="cls-1" d="M329.68 58c-1.12 0-2.23-.31-3.19-.92l-5.98-3.76c-2.74-1.72-3.6-5.31-1.94-8.07 1.14-1.9 2.26-4.08 3.32-6.48.83-1.87 1.59-3.77 2.27-5.67-.21-.18-.43-.36-.64-.54-1.39-1.15-2.89-2.3-4.45-3.44a5.932 5.932 0 0 1-1.07-8.6l2.21-2.65a5.919 5.919 0 0 1-.22-7.78l4.11-4.99a5.983 5.983 0 0 1 4.63-2.18c1.17 0 2.35.34 3.38 1.05 1.31.89 2.57 1.8 3.75 2.7.76-.33 1.58-.51 2.43-.51 3.32 0 6.62-.14 9.8-.41 3.15-.27 6.07-.66 8.69-1.15 2.6-.49 4.76-1.01 6.44-1.54.59-.19 1.2-.28 1.81-.28a5.96 5.96 0 0 1 5.73 4.25l1.87 6.23c.44 1.46.28 2.95-.32 4.23a5.925 5.925 0 0 1 1.67 4.12v6.18c0 1.81-.82 3.44-2.1 4.53v19.59c0 3.28-2.68 5.95-5.98 5.95h-7.37c-1.82 0-3.46-.81-4.55-2.09h-3.76a5.982 5.982 0 0 1-4.55 2.09h-7.27c-1.68 0-3.2-.69-4.29-1.8a6.035 6.035 0 0 1-4.43 1.95ZM8.27 56.29c-2.74 0-5.17-1.87-5.82-4.59A93.95 93.95 0 0 1 .61 41.33C.2 37.88 0 34.22 0 30.46s.21-7.42.62-10.85c.41-3.41 1-6.87 1.78-10.29.62-2.74 3.07-4.64 5.83-4.64.22 0 .44.01.67.04l7.7.86a5.98 5.98 0 0 1 5.26 5.1h4.79V9.59c0-3.28 2.68-5.95 5.98-5.95h7.56c3.3 0 5.98 2.66 5.98 5.95v1.09h2.25c3.3 0 5.98 2.66 5.98 5.95v6.47c0 3.28-2.68 5.95-5.98 5.95h-2.25v3.42c.11.1.23.2.34.3 1.99 1.76 4.35 4.01 7.04 6.68 2.27 2.26 2.34 5.9.16 8.24l-4.69 5.04a6.02 6.02 0 0 1-4.29 1.91h-.1c-1.6 0-3.13-.64-4.26-1.77l-.33-.33c-2.94 2.09-6.71 3.15-11.25 3.15-3.38 0-6.37-.6-8.91-1.77-.9.79-2.03 1.3-3.25 1.45l-7.65.9c-.24.03-.48.04-.71.04Z"/><path class="cls-1" d="M71.42 56.19c-4.8 0-8.72-.75-11.98-2.29-3.71-1.75-6.47-4.53-8.22-8.27-1.53-3.28-2.28-7.22-2.28-12.04V10.95c0-3.28 2.68-5.95 5.98-5.95h7.99c3.09 0 5.64 2.33 5.95 5.33a5.9 5.9 0 0 1 1.84-1.52l4.98-2.66c.9-.48 1.87-.71 2.83-.71.42 0 .85.04 1.26.13l3.93-2.03a6.03 6.03 0 0 1 2.75-.67c1.9 0 3.75.9 4.9 2.54 1.24 1.77 2.35 3.55 3.29 5.28a66.59 66.59 0 0 1 2.58 5.36c1.27 2.96-.06 6.38-3 7.73l-2.72 1.25 4.67 2.04c2.97 1.29 4.36 4.71 3.14 7.69-1.47 3.57-3.04 6.69-4.67 9.26-1.81 2.85-3.89 5.2-6.18 6.98-2.34 1.82-5 3.17-7.88 4.02-2.71.79-5.79 1.19-9.15 1.19Zm-2.09-19.4c.2.09.8.28 2.09.28 1.35 0 2.49-.23 3.4-.68.9-.45 1.81-1.28 2.7-2.48.91-1.22 1.87-2.85 2.85-4.86-.47.12-.96.18-1.45.18-.67 0-1.34-.11-1.98-.34a5.96 5.96 0 0 1-3.45-3.12c-.68-1.46-1.41-2.85-2.18-4.15-.73-1.22-1.55-2.49-2.44-3.79V33.6c0 2.06.33 2.94.45 3.2Z"/><path class="cls-1" d="M126.31 56.34c-2.64 0-5.01-1.74-5.75-4.32l-.44-1.53-.22.16c-3.6 2.52-7.38 3.79-11.24 3.79-3.25 0-6.14-.87-8.6-2.57-2.37-1.65-4.2-3.97-5.42-6.9-1.08-2.58-1.63-5.61-1.63-8.99 0-3.95.7-7.62 2.09-10.92 1.22-2.91 2.92-5.5 5.05-7.71-.35-1.35-.69-2.72-1.03-4.11-.38-1.55-.12-3.2.73-4.56a6.009 6.009 0 0 1 3.79-2.67l7.37-1.62c.43-.1.87-.14 1.29-.14 2.73 0 5.19 1.87 5.82 4.63.02.1.04.19.07.29 1.13-.1 2.3-.16 3.48-.16h.49c.17-.64.33-1.29.49-1.93.66-2.71 3.1-4.54 5.8-4.54.4 0 .81.04 1.22.13l7.13 1.48c1.59.33 2.97 1.28 3.84 2.64s1.14 3.02.76 4.58c-.31 1.26-.63 2.5-.97 3.72 1.73 1.44 3.21 3.11 4.44 4.99 2.35 3.61 3.54 7.86 3.54 12.62 0 4.13-.9 7.93-2.68 11.27-1.79 3.36-4.33 6.15-7.56 8.3-3.16 2.1-6.88 3.45-11.06 4.02-.27.04-.54.05-.81.05Z"/><path class="cls-1" d="M173.38 55.67c-4.81 0-9.14-.84-12.86-2.49-3.99-1.77-7.16-4.36-9.42-7.71-2.29-3.4-3.45-7.39-3.45-11.88 0-2.58.41-5.08 1.21-7.45l-5.61.13a6.03 6.03 0 0 1-4.18-1.69 5.932 5.932 0 0 1-1.8-4.25v-6.9c0-3.23 2.59-5.87 5.84-5.94l40.99-.95c1.56 0 3.06.61 4.18 1.69a5.932 5.932 0 0 1 1.8 4.25v6.9c0 3.23-2.59 5.87-5.84 5.94l-6.12.14c-1.67.02-3.18.26-4.54.7-1.27.41-2.32.97-3.23 1.69-.82.65-1.43 1.39-1.88 2.25-.39.75-.58 1.65-.58 2.73 0 .94.16 1.68.48 2.2.18.29.49.67 1.28 1.02.96.42 2.27.64 3.88.64.69 0 1.53-.04 2.49-.12.89-.07 1.69-.18 2.38-.33.4-.08.81-.12 1.21-.12 1.25 0 2.48.39 3.51 1.13a5.93 5.93 0 0 1 2.43 4.14l.81 7.09c.36 3.14-1.82 6.02-4.96 6.54-1.31.22-2.67.38-4.05.49-1.36.11-2.69.16-3.96.16Z"/><path class="cls-1" d="M212.66 55.57c-2.56 0-4.88-1.64-5.68-4.11l-.22-.69c-.24.21-.48.42-.73.62-2.58 2.05-5.67 3.14-8.96 3.14-2.75 0-5.32-.66-7.64-1.95-2.13-1.19-4-2.83-5.56-4.87-1.49-1.95-2.65-4.25-3.45-6.83-.76-2.47-1.15-5.16-1.15-7.99 0-3.89.75-7.56 2.23-10.89a26 26 0 0 1 6.16-8.64c2.59-2.39 5.69-4.27 9.22-5.59 3.47-1.29 7.28-1.95 11.33-1.95 4.83 0 9.24.93 13.12 2.77 4.1 1.94 7.38 4.83 9.76 8.57 2.37 3.74 3.58 8.2 3.58 13.26 0 3.22-.5 6.28-1.48 9.1-1 2.86-2.44 5.45-4.29 7.69a23.079 23.079 0 0 1-6.8 5.58c-2.6 1.41-5.51 2.33-8.66 2.74-.26.03-.53.05-.79.05Z"/><path class="cls-1" d="M250.11 56.48c-.69 0-1.51-.03-2.52-.08-.95-.05-1.94-.12-2.97-.2-1.01-.08-2.02-.17-3.03-.27a5.966 5.966 0 0 1-5.18-4.31c-.41-.09-.81-.23-1.21-.42l-6.65-3.14a5.97 5.97 0 0 1-3.14-3.59c-.5-1.58-.32-3.29.51-4.73 1.31-2.29 2.54-4.78 3.66-7.41.57-1.35 1.1-2.69 1.57-4-2.51-.71-4.34-3-4.34-5.72v-6.9c0-3.28 2.68-5.95 5.98-5.95h12.25v-.67c0-3.28 2.68-5.95 5.98-5.95h7.94c1.34 0 2.58.44 3.58 1.18.68-.62 1.43-1.16 2.24-1.63 1.99-1.15 4.19-1.73 6.52-1.73s4.66.6 6.64 1.77c1.88 1.12 3.41 2.64 4.55 4.51 1.21 1.99 1.82 4.21 1.82 6.6s-.61 4.62-1.82 6.6c-.29.48-.61.94-.95 1.37v.78c0 2.46-1.5 4.57-3.65 5.48.65 1.35 1.27 2.73 1.87 4.13 1.4 3.26 2.56 6.51 3.46 9.66.86 3.04-.81 6.21-3.81 7.24l-7.08 2.43c-.63.22-1.29.32-1.95.32-.93 0-1.86-.22-2.71-.65a5.954 5.954 0 0 1-3-3.56c-.05-.18-.11-.36-.17-.54-.02.09-.03.17-.05.25-.48 2.34-1.49 4.26-3 5.72-1.45 1.4-3.31 2.36-5.55 2.86-1.6.35-3.49.52-5.8.52Z"/><path class="cls-1" d="M298.23 57.14c-3.3 0-5.98-2.66-5.98-5.95V38.12c-.46.14-.92.28-1.37.41-3.24.95-6.44 1.69-9.5 2.2-.33.06-.66.08-.99.08a5.97 5.97 0 0 1-5.9-4.96l-1.2-7.14c-.26-1.57.12-3.18 1.06-4.47s2.37-2.15 3.95-2.39c2.84-.42 5.86-1.17 8.99-2.21 3.2-1.07 6.43-2.39 9.58-3.95 3.15-1.55 6.13-3.28 8.85-5.12 2.65-1.8 4.95-3.66 6.85-5.55a5.987 5.987 0 0 1 4.23-1.74h.21c1.66.06 3.22.8 4.3 2.04l4.83 5.52a5.918 5.918 0 0 1-.25 8.07c-2.11 2.14-4.57 4.21-7.31 6.16-1.9 1.35-3.92 2.67-6.04 3.92v22.19c0 3.28-2.68 5.95-5.98 5.95h-8.32Z"/><path class="cls-1" d="M329.68 58c-1.12 0-2.23-.31-3.19-.92l-5.98-3.76c-2.74-1.72-3.6-5.31-1.94-8.07 1.14-1.9 2.26-4.08 3.32-6.48.83-1.87 1.59-3.77 2.27-5.67-.21-.18-.43-.36-.64-.54-1.39-1.15-2.89-2.3-4.45-3.44a5.932 5.932 0 0 1-1.07-8.6l2.21-2.65a5.919 5.919 0 0 1-.22-7.78l4.11-4.99a5.983 5.983 0 0 1 4.63-2.18c1.17 0 2.35.34 3.38 1.05 1.31.89 2.57 1.8 3.75 2.7.76-.33 1.58-.51 2.43-.51 3.32 0 6.62-.14 9.8-.41 3.15-.27 6.07-.66 8.69-1.15 2.6-.49 4.76-1.01 6.44-1.54.59-.19 1.2-.28 1.81-.28a5.96 5.96 0 0 1 5.73 4.25l1.87 6.23c.44 1.46.28 2.95-.32 4.23a5.925 5.925 0 0 1 1.67 4.12v6.18c0 1.81-.82 3.44-2.1 4.53v19.59c0 3.28-2.68 5.95-5.98 5.95h-7.37c-1.82 0-3.46-.81-4.55-2.09h-3.76a5.982 5.982 0 0 1-4.55 2.09h-7.27c-1.68 0-3.2-.69-4.29-1.8a6.035 6.035 0 0 1-4.43 1.95ZM8.27 56.29c-2.74 0-5.17-1.87-5.82-4.59A93.95 93.95 0 0 1 .61 41.33C.2 37.88 0 34.22 0 30.46s.21-7.42.62-10.85c.41-3.41 1-6.87 1.78-10.29.62-2.74 3.07-4.64 5.83-4.64.22 0 .44.01.67.04l7.7.86a5.98 5.98 0 0 1 5.26 5.1h4.79V9.59c0-3.28 2.68-5.95 5.98-5.95h7.56c3.3 0 5.98 2.66 5.98 5.95v1.09h2.25c3.3 0 5.98 2.66 5.98 5.95v6.47c0 3.28-2.68 5.95-5.98 5.95h-2.25v3.42c.11.1.23.2.34.3 1.99 1.76 4.35 4.01 7.04 6.68 2.27 2.26 2.34 5.9.16 8.24l-4.69 5.04a6.02 6.02 0 0 1-4.29 1.91h-.1c-1.6 0-3.13-.64-4.26-1.77l-.33-.33c-2.94 2.09-6.71 3.15-11.25 3.15-3.38 0-6.37-.6-8.91-1.77-.9.79-2.03 1.3-3.25 1.45l-7.65.9c-.24.03-.48.04-.71.04Z"/><path class="cls-1" d="M71.42 56.19c-4.8 0-8.72-.75-11.98-2.29-3.71-1.75-6.47-4.53-8.22-8.27-1.53-3.28-2.28-7.22-2.28-12.04V10.95c0-3.28 2.68-5.95 5.98-5.95h7.99c3.09 0 5.64 2.33 5.95 5.33a5.9 5.9 0 0 1 1.84-1.52l4.98-2.66c.9-.48 1.87-.71 2.83-.71.42 0 .85.04 1.26.13l3.93-2.03a6.03 6.03 0 0 1 2.75-.67c1.9 0 3.75.9 4.9 2.54 1.24 1.77 2.35 3.55 3.29 5.28a66.59 66.59 0 0 1 2.58 5.36c1.27 2.96-.06 6.38-3 7.73l-2.72 1.25 4.67 2.04c2.97 1.29 4.36 4.71 3.14 7.69-1.47 3.57-3.04 6.69-4.67 9.26-1.81 2.85-3.89 5.2-6.18 6.98-2.34 1.82-5 3.17-7.88 4.02-2.71.79-5.79 1.19-9.15 1.19Zm-2.09-19.4c.2.09.8.28 2.09.28 1.35 0 2.49-.23 3.4-.68.9-.45 1.81-1.28 2.7-2.48.91-1.22 1.87-2.85 2.85-4.86-.47.12-.96.18-1.45.18-.67 0-1.34-.11-1.98-.34a5.96 5.96 0 0 1-3.45-3.12c-.68-1.46-1.41-2.85-2.18-4.15-.73-1.22-1.55-2.49-2.44-3.79V33.6c0 2.06.33 2.94.45 3.2Z"/><path class="cls-1" d="M126.31 56.34c-2.64 0-5.01-1.74-5.75-4.32l-.44-1.53-.22.16c-3.6 2.52-7.38 3.79-11.24 3.79-3.25 0-6.14-.87-8.6-2.57-2.37-1.65-4.2-3.97-5.42-6.9-1.08-2.58-1.63-5.61-1.63-8.99 0-3.95.7-7.62 2.09-10.92 1.22-2.91 2.92-5.5 5.05-7.71-.35-1.35-.69-2.72-1.03-4.11-.38-1.55-.12-3.2.73-4.56a6.009 6.009 0 0 1 3.79-2.67l7.37-1.62c.43-.1.87-.14 1.29-.14 2.73 0 5.19 1.87 5.82 4.63.02.1.04.19.07.29 1.13-.1 2.3-.16 3.48-.16h.49c.17-.64.33-1.29.49-1.93.66-2.71 3.1-4.54 5.8-4.54.4 0 .81.04 1.22.13l7.13 1.48c1.59.33 2.97 1.28 3.84 2.64s1.14 3.02.76 4.58c-.31 1.26-.63 2.5-.97 3.72 1.73 1.44 3.21 3.11 4.44 4.99 2.35 3.61 3.54 7.86 3.54 12.62 0 4.13-.9 7.93-2.68 11.27-1.79 3.36-4.33 6.15-7.56 8.3-3.16 2.1-6.88 3.45-11.06 4.02-.27.04-.54.05-.81.05Z"/><path class="cls-1" d="M173.38 55.67c-4.81 0-9.14-.84-12.86-2.49-3.99-1.77-7.16-4.36-9.42-7.71-2.29-3.4-3.45-7.39-3.45-11.88 0-2.58.41-5.08 1.21-7.45l-5.61.13a6.03 6.03 0 0 1-4.18-1.69 5.932 5.932 0 0 1-1.8-4.25v-6.9c0-3.23 2.59-5.87 5.84-5.94l40.99-.95c1.56 0 3.06.61 4.18 1.69a5.932 5.932 0 0 1 1.8 4.25v6.9c0 3.23-2.59 5.87-5.84 5.94l-6.12.14c-1.67.02-3.18.26-4.54.7-1.27.41-2.32.97-3.23 1.69-.82.65-1.43 1.39-1.88 2.25-.39.75-.58 1.65-.58 2.73 0 .94.16 1.68.48 2.2.18.29.49.67 1.28 1.02.96.42 2.27.64 3.88.64.69 0 1.53-.04 2.49-.12.89-.07 1.69-.18 2.38-.33.4-.08.81-.12 1.21-.12 1.25 0 2.48.39 3.51 1.13a5.93 5.93 0 0 1 2.43 4.14l.81 7.09c.36 3.14-1.82 6.02-4.96 6.54-1.31.22-2.67.38-4.05.49-1.36.11-2.69.16-3.96.16Z"/><path class="cls-1" d="M212.66 55.57c-2.56 0-4.88-1.64-5.68-4.11l-.22-.69c-.24.21-.48.42-.73.62-2.58 2.05-5.67 3.14-8.96 3.14-2.75 0-5.32-.66-7.64-1.95-2.13-1.19-4-2.83-5.56-4.87-1.49-1.95-2.65-4.25-3.45-6.83-.76-2.47-1.15-5.16-1.15-7.99 0-3.89.75-7.56 2.23-10.89a26 26 0 0 1 6.16-8.64c2.59-2.39 5.69-4.27 9.22-5.59 3.47-1.29 7.28-1.95 11.33-1.95 4.83 0 9.24.93 13.12 2.77 4.1 1.94 7.38 4.83 9.76 8.57 2.37 3.74 3.58 8.2 3.58 13.26 0 3.22-.5 6.28-1.48 9.1-1 2.86-2.44 5.45-4.29 7.69a23.079 23.079 0 0 1-6.8 5.58c-2.6 1.41-5.51 2.33-8.66 2.74-.26.03-.53.05-.79.05Z"/><path class="cls-1" d="M250.11 56.48c-.69 0-1.51-.03-2.52-.08-.95-.05-1.94-.12-2.97-.2-1.01-.08-2.02-.17-3.03-.27a5.966 5.966 0 0 1-5.18-4.31c-.41-.09-.81-.23-1.21-.42l-6.65-3.14a5.97 5.97 0 0 1-3.14-3.59c-.5-1.58-.32-3.29.51-4.73 1.31-2.29 2.54-4.78 3.66-7.41.57-1.35 1.1-2.69 1.57-4-2.51-.71-4.34-3-4.34-5.72v-6.9c0-3.28 2.68-5.95 5.98-5.95h12.25v-.67c0-3.28 2.68-5.95 5.98-5.95h7.94c1.34 0 2.58.44 3.58 1.18.68-.62 1.43-1.16 2.24-1.63 1.99-1.15 4.19-1.73 6.52-1.73s4.66.6 6.64 1.77c1.88 1.12 3.41 2.64 4.55 4.51 1.21 1.99 1.82 4.21 1.82 6.6s-.61 4.62-1.82 6.6c-.29.48-.61.94-.95 1.37v.78c0 2.46-1.5 4.57-3.65 5.48.65 1.35 1.27 2.73 1.87 4.13 1.4 3.26 2.56 6.51 3.46 9.66.86 3.04-.81 6.21-3.81 7.24l-7.08 2.43c-.63.22-1.29.32-1.95.32-.93 0-1.86-.22-2.71-.65a5.954 5.954 0 0 1-3-3.56c-.05-.18-.11-.36-.17-.54-.02.09-.03.17-.05.25-.48 2.34-1.49 4.26-3 5.72-1.45 1.4-3.31 2.36-5.55 2.86-1.6.35-3.49.52-5.8.52Z"/><path class="cls-1" d="M298.23 57.14c-3.3 0-5.98-2.66-5.98-5.95V38.12c-.46.14-.92.28-1.37.41-3.24.95-6.44 1.69-9.5 2.2-.33.06-.66.08-.99.08a5.97 5.97 0 0 1-5.9-4.96l-1.2-7.14c-.26-1.57.12-3.18 1.06-4.47s2.37-2.15 3.95-2.39c2.84-.42 5.86-1.17 8.99-2.21 3.2-1.07 6.43-2.39 9.58-3.95 3.15-1.55 6.13-3.28 8.85-5.12 2.65-1.8 4.95-3.66 6.85-5.55a5.987 5.987 0 0 1 4.23-1.74h.21c1.66.06 3.22.8 4.3 2.04l4.83 5.52a5.918 5.918 0 0 1-.25 8.07c-2.11 2.14-4.57 4.21-7.31 6.16-1.9 1.35-3.92 2.67-6.04 3.92v22.19c0 3.28-2.68 5.95-5.98 5.95h-8.32Z"/><path class="cls-1" d="M329.68 58c-1.12 0-2.23-.31-3.19-.92l-5.98-3.76c-2.74-1.72-3.6-5.31-1.94-8.07 1.14-1.9 2.26-4.08 3.32-6.48.83-1.87 1.59-3.77 2.27-5.67-.21-.18-.43-.36-.64-.54-1.39-1.15-2.89-2.3-4.45-3.44a5.932 5.932 0 0 1-1.07-8.6l2.21-2.65a5.919 5.919 0 0 1-.22-7.78l4.11-4.99a5.983 5.983 0 0 1 4.63-2.18c1.17 0 2.35.34 3.38 1.05 1.31.89 2.57 1.8 3.75 2.7.76-.33 1.58-.51 2.43-.51 3.32 0 6.62-.14 9.8-.41 3.15-.27 6.07-.66 8.69-1.15 2.6-.49 4.76-1.01 6.44-1.54.59-.19 1.2-.28 1.81-.28a5.96 5.96 0 0 1 5.73 4.25l1.87 6.23c.44 1.46.28 2.95-.32 4.23a5.925 5.925 0 0 1 1.67 4.12v6.18c0 1.81-.82 3.44-2.1 4.53v19.59c0 3.28-2.68 5.95-5.98 5.95h-7.37c-1.82 0-3.46-.81-4.55-2.09h-3.76a5.982 5.982 0 0 1-4.55 2.09h-7.27c-1.68 0-3.2-.69-4.29-1.8a6.035 6.035 0 0 1-4.43 1.95ZM437.81 57.21c-3.88 0-7.55-.64-10.9-1.9-3.43-1.29-6.45-3.17-8.98-5.59a26.185 26.185 0 0 1-5.92-8.5c-1.41-3.25-2.13-6.83-2.13-10.64s.72-7.39 2.13-10.64c1.41-3.25 3.44-6.13 6.02-8.55 2.56-2.4 5.59-4.26 8.99-5.55 3.35-1.26 7.03-1.9 10.95-1.9 4.33 0 8.34.75 11.91 2.23 3.71 1.54 6.89 3.81 9.45 6.75a6.097 6.097 0 0 1-.48 8.53l-2.92 2.7c2.42.83 4.16 3.12 4.16 5.81v16.08c0 1.92-.92 3.75-2.45 4.9-2.77 2.09-5.98 3.69-9.52 4.75a35.99 35.99 0 0 1-10.32 1.53Zm.57-33.23c-1.11 0-2.11.17-2.98.51-.81.32-1.5.75-2.05 1.29-.54.53-.97 1.18-1.28 1.93-.33.81-.49 1.77-.49 2.86 0 1.02.17 1.96.5 2.79.3.76.73 1.42 1.27 1.94.58.57 1.29 1.02 2.11 1.36.82.33 1.78.5 2.87.5.33 0 .66-.02.99-.05v-7.16c0-2.13 1.1-4.02 2.76-5.12-.17-.09-.35-.18-.52-.25-.92-.4-1.99-.6-3.18-.6Z"/><path class="cls-1" d="M437.81 57.21c-3.88 0-7.55-.64-10.9-1.9-3.43-1.29-6.45-3.17-8.98-5.59a26.185 26.185 0 0 1-5.92-8.5c-1.41-3.25-2.13-6.83-2.13-10.64s.72-7.39 2.13-10.64c1.41-3.25 3.44-6.13 6.02-8.55 2.56-2.4 5.59-4.26 8.99-5.55 3.35-1.26 7.03-1.9 10.95-1.9 4.33 0 8.34.75 11.91 2.23 3.71 1.54 6.89 3.81 9.45 6.75a6.097 6.097 0 0 1-.48 8.53l-2.92 2.7c2.42.83 4.16 3.12 4.16 5.81v16.08c0 1.92-.92 3.75-2.45 4.9-2.77 2.09-5.98 3.69-9.52 4.75a35.99 35.99 0 0 1-10.32 1.53Zm.57-33.23c-1.11 0-2.11.17-2.98.51-.81.32-1.5.75-2.05 1.29-.54.53-.97 1.18-1.28 1.93-.33.81-.49 1.77-.49 2.86 0 1.02.17 1.96.5 2.79.3.76.73 1.42 1.27 1.94.58.57 1.29 1.02 2.11 1.36.82.33 1.78.5 2.87.5.33 0 .66-.02.99-.05v-7.16c0-2.13 1.1-4.02 2.76-5.12-.17-.09-.35-.18-.52-.25-.92-.4-1.99-.6-3.18-.6Z"/><path class="cls-1" d="M496.39 56.53c-3.39 0-6.16-2.74-6.18-6.12v-1.7l-.37.6a6.207 6.207 0 0 1-5.29 2.98h-4.1c-2.15 0-4.17-1.13-5.28-2.96l-.27-.43v1.49c0 3.39-2.77 6.14-6.18 6.14h-8.6c-3.41 0-6.18-2.76-6.18-6.14V10.76c0-3.39 2.77-6.14 6.18-6.14h7.63a6.21 6.21 0 0 1 5.29 2.98l9.57 15.78 9.36-15.74a6.231 6.231 0 0 1 5.32-3.02h7.68c3.41 0 6.18 2.76 6.18 6.14v39.63c0 3.39-2.77 6.14-6.18 6.14h-8.6Z"/><path class="cls-1" d="M496.39 56.53c-3.39 0-6.16-2.74-6.18-6.12v-1.7l-.37.6a6.207 6.207 0 0 1-5.29 2.98h-4.1c-2.15 0-4.17-1.13-5.28-2.96l-.27-.43v1.49c0 3.39-2.77 6.14-6.18 6.14h-8.6c-3.41 0-6.18-2.76-6.18-6.14V10.76c0-3.39 2.77-6.14 6.18-6.14h7.63a6.21 6.21 0 0 1 5.29 2.98l9.57 15.78 9.36-15.74a6.231 6.231 0 0 1 5.32-3.02h7.68c3.41 0 6.18 2.76 6.18 6.14v39.63c0 3.39-2.77 6.14-6.18 6.14h-8.6Z"/><path class="cls-1" d="M532.59 57.21c-3.9 0-7.58-.65-10.93-1.94-3.4-1.3-6.41-3.18-8.96-5.56a25.68 25.68 0 0 1-6.02-8.54c-1.41-3.25-2.13-6.81-2.13-10.59s.72-7.39 2.14-10.63c1.41-3.23 3.43-6.09 6.01-8.5 2.55-2.39 5.55-4.26 8.92-5.56 3.34-1.29 7.01-1.95 10.92-1.95s7.55.64 10.88 1.9c3.38 1.28 6.4 3.15 8.95 5.54 2.58 2.42 4.61 5.3 6.02 8.55 1.41 3.25 2.13 6.83 2.13 10.64s-.71 7.33-2.12 10.6a25.423 25.423 0 0 1-6.03 8.59c-2.55 2.39-5.57 4.26-8.95 5.54-3.34 1.26-6.98 1.9-10.83 1.9Zm-.06-33.23c-.96 0-1.84.16-2.6.47-.72.3-1.35.72-1.87 1.25-.56.58-1.01 1.27-1.34 2.06-.32.78-.48 1.73-.48 2.81s.16 2.02.48 2.8c.32.79.77 1.49 1.34 2.07.52.54 1.15.96 1.87 1.25.76.31 1.63.47 2.6.47s1.81-.15 2.54-.46c.73-.3 1.38-.74 1.93-1.3.57-.57 1.01-1.25 1.33-2.03.32-.78.48-1.73.48-2.81s-.16-2.02-.48-2.8c-.32-.78-.77-1.46-1.33-2.03a5.92 5.92 0 0 0-1.93-1.3c-.73-.3-1.59-.46-2.54-.46Z"/><path class="cls-1" d="M532.59 57.21c-3.9 0-7.58-.65-10.93-1.94-3.4-1.3-6.41-3.18-8.96-5.56a25.68 25.68 0 0 1-6.02-8.54c-1.41-3.25-2.13-6.81-2.13-10.59s.72-7.39 2.14-10.63c1.41-3.23 3.43-6.09 6.01-8.5 2.55-2.39 5.55-4.26 8.92-5.56 3.34-1.29 7.01-1.95 10.92-1.95s7.55.64 10.88 1.9c3.38 1.28 6.4 3.15 8.95 5.54 2.58 2.42 4.61 5.3 6.02 8.55 1.41 3.25 2.13 6.83 2.13 10.64s-.71 7.33-2.12 10.6a25.423 25.423 0 0 1-6.03 8.59c-2.55 2.39-5.57 4.26-8.95 5.54-3.34 1.26-6.98 1.9-10.83 1.9Zm-.06-33.23c-.96 0-1.84.16-2.6.47-.72.3-1.35.72-1.87 1.25-.56.58-1.01 1.27-1.34 2.06-.32.78-.48 1.73-.48 2.81s.16 2.02.48 2.8c.32.79.77 1.49 1.34 2.07.52.54 1.15.96 1.87 1.25.76.31 1.63.47 2.6.47s1.81-.15 2.54-.46c.73-.3 1.38-.74 1.93-1.3.57-.57 1.01-1.25 1.33-2.03.32-.78.48-1.73.48-2.81s-.16-2.02-.48-2.8c-.32-.78-.77-1.46-1.33-2.03a5.92 5.92 0 0 0-1.93-1.3c-.73-.3-1.59-.46-2.54-.46Z"/><path class="cls-1" d="M575.93 55.91c-.69 0-1.52-.03-2.53-.08-.95-.05-1.94-.12-2.97-.2-1.01-.08-2.02-.17-3.04-.27-2.58-.25-4.64-2.02-5.33-4.35-.39-.1-.77-.23-1.12-.4l-6.66-3.14a6.199 6.199 0 0 1-3.25-3.72c-.51-1.63-.31-3.42.54-4.9 1.29-2.26 2.52-4.74 3.63-7.36.54-1.28 1.04-2.55 1.5-3.8-2.48-.8-4.28-3.12-4.28-5.85v-6.9c0-3.39 2.77-6.14 6.18-6.14h12.05v-.47c0-3.39 2.77-6.14 6.18-6.14h7.94c1.32 0 2.55.42 3.56 1.12.66-.58 1.38-1.1 2.16-1.55C592.51.59 594.74 0 597.11 0s4.73.61 6.74 1.8c1.91 1.14 3.46 2.68 4.62 4.58 1.23 2.02 1.85 4.28 1.85 6.71s-.62 4.69-1.85 6.7c-.28.47-.59.91-.92 1.34v.71c0 2.46-1.47 4.6-3.58 5.57.62 1.29 1.21 2.61 1.79 3.95 1.4 3.27 2.57 6.53 3.47 9.68.9 3.13-.83 6.43-3.95 7.49l-7.06 2.42c-.63.21-1.35.34-2.01.34-.96 0-1.99-.25-2.84-.69a6.168 6.168 0 0 1-3.01-3.48c-.53 2.16-1.51 3.95-2.95 5.34-1.47 1.43-3.37 2.4-5.65 2.91-1.61.35-3.52.53-5.84.53Z"/><path class="cls-1" d="M575.93 55.91c-.69 0-1.52-.03-2.53-.08-.95-.05-1.94-.12-2.97-.2-1.01-.08-2.02-.17-3.04-.27-2.58-.25-4.64-2.02-5.33-4.35-.39-.1-.77-.23-1.12-.4l-6.66-3.14a6.199 6.199 0 0 1-3.25-3.72c-.51-1.63-.31-3.42.54-4.9 1.29-2.26 2.52-4.74 3.63-7.36.54-1.28 1.04-2.55 1.5-3.8-2.48-.8-4.28-3.12-4.28-5.85v-6.9c0-3.39 2.77-6.14 6.18-6.14h12.05v-.47c0-3.39 2.77-6.14 6.18-6.14h7.94c1.32 0 2.55.42 3.56 1.12.66-.58 1.38-1.1 2.16-1.55C592.51.59 594.74 0 597.11 0s4.73.61 6.74 1.8c1.91 1.14 3.46 2.68 4.62 4.58 1.23 2.02 1.85 4.28 1.85 6.71s-.62 4.69-1.85 6.7c-.28.47-.59.91-.92 1.34v.71c0 2.46-1.47 4.6-3.58 5.57.62 1.29 1.21 2.61 1.79 3.95 1.4 3.27 2.57 6.53 3.47 9.68.9 3.13-.83 6.43-3.95 7.49l-7.06 2.42c-.63.21-1.35.34-2.01.34-.96 0-1.99-.25-2.84-.69a6.168 6.168 0 0 1-3.01-3.48c-.53 2.16-1.51 3.95-2.95 5.34-1.47 1.43-3.37 2.4-5.65 2.91-1.61.35-3.52.53-5.84.53Z"/><path class="cls-1" d="M624.05 56.58c-3.41 0-6.18-2.76-6.18-6.14v-12.8c-.37.12-.75.23-1.12.34-3.25.95-6.45 1.7-9.52 2.21-.33.06-.69.09-1.03.09-1.3 0-2.54-.4-3.59-1.14a6.206 6.206 0 0 1-2.5-3.99l-1.2-7.14c-.27-1.6.12-3.28 1.08-4.6 1-1.36 2.48-2.25 4.11-2.49 2.81-.42 5.82-1.16 8.94-2.2 3.2-1.06 6.41-2.39 9.55-3.94 3.14-1.55 6.11-3.27 8.82-5.11 2.64-1.79 4.93-3.65 6.82-5.53a6.166 6.166 0 0 1 4.37-1.8h.22c1.7.06 3.32.83 4.44 2.1l4.84 5.52c2.11 2.4 2 6.07-.26 8.35-2.11 2.14-4.58 4.22-7.33 6.17a86.212 86.212 0 0 1-5.96 3.87v22.07c0 3.39-2.77 6.14-6.18 6.14h-8.32Z"/><path class="cls-1" d="M624.05 56.58c-3.41 0-6.18-2.76-6.18-6.14v-12.8c-.37.12-.75.23-1.12.34-3.25.95-6.45 1.7-9.52 2.21-.33.06-.69.09-1.03.09-1.3 0-2.54-.4-3.59-1.14a6.206 6.206 0 0 1-2.5-3.99l-1.2-7.14c-.27-1.6.12-3.28 1.08-4.6 1-1.36 2.48-2.25 4.11-2.49 2.81-.42 5.82-1.16 8.94-2.2 3.2-1.06 6.41-2.39 9.55-3.94 3.14-1.55 6.11-3.27 8.82-5.11 2.64-1.79 4.93-3.65 6.82-5.53a6.166 6.166 0 0 1 4.37-1.8h.22c1.7.06 3.32.83 4.44 2.1l4.84 5.52c2.11 2.4 2 6.07-.26 8.35-2.11 2.14-4.58 4.22-7.33 6.17a86.212 86.212 0 0 1-5.96 3.87v22.07c0 3.39-2.77 6.14-6.18 6.14h-8.32Z"/><path class="cls-1" d="M655.5 57.43a6.2 6.2 0 0 1-3.32-.96l-5.96-3.75c-2.81-1.75-3.71-5.5-2-8.34 1.14-1.9 2.25-4.07 3.31-6.46.81-1.83 1.55-3.68 2.22-5.53l-.54-.45c-1.39-1.14-2.88-2.3-4.44-3.43a6.193 6.193 0 0 1-2.48-4.2c-.21-1.68.29-3.38 1.37-4.68l2.1-2.52a6.15 6.15 0 0 1-1.46-3.26c-.22-1.63.27-3.35 1.35-4.65l4.12-5a6.17 6.17 0 0 1 4.78-2.25c1.24 0 2.44.36 3.46 1.06 1.3.89 2.54 1.78 3.71 2.66.75-.31 1.57-.48 2.4-.48 3.32 0 6.61-.14 9.78-.41 3.15-.27 6.06-.65 8.67-1.15 2.59-.49 4.75-1.01 6.42-1.53.58-.18 1.25-.29 1.87-.29 1.01 0 2.02.25 2.91.72 1.42.74 2.52 2.07 3 3.63l1.88 6.27c.44 1.47.31 2.97-.27 4.26a6.092 6.092 0 0 1 1.63 4.15v6.18c0 1.84-.82 3.49-2.1 4.62v19.5c0 3.39-2.77 6.14-6.18 6.14h-7.37c-1.85 0-3.51-.81-4.64-2.09h-3.58a6.174 6.174 0 0 1-4.64 2.09h-7.27c-1.66 0-3.17-.65-4.28-1.72-.82.83-1.87 1.43-3.02 1.7-.45.1-.95.16-1.41.16Z"/><path class="cls-1" d="M655.5 57.43a6.2 6.2 0 0 1-3.32-.96l-5.96-3.75c-2.81-1.75-3.71-5.5-2-8.34 1.14-1.9 2.25-4.07 3.31-6.46.81-1.83 1.55-3.68 2.22-5.53l-.54-.45c-1.39-1.14-2.88-2.3-4.44-3.43a6.193 6.193 0 0 1-2.48-4.2c-.21-1.68.29-3.38 1.37-4.68l2.1-2.52a6.15 6.15 0 0 1-1.46-3.26c-.22-1.63.27-3.35 1.35-4.65l4.12-5a6.17 6.17 0 0 1 4.78-2.25c1.24 0 2.44.36 3.46 1.06 1.3.89 2.54 1.78 3.71 2.66.75-.31 1.57-.48 2.4-.48 3.32 0 6.61-.14 9.78-.41 3.15-.27 6.06-.65 8.67-1.15 2.59-.49 4.75-1.01 6.42-1.53.58-.18 1.25-.29 1.87-.29 1.01 0 2.02.25 2.91.72 1.42.74 2.52 2.07 3 3.63l1.88 6.27c.44 1.47.31 2.97-.27 4.26a6.092 6.092 0 0 1 1.63 4.15v6.18c0 1.84-.82 3.49-2.1 4.62v19.5c0 3.39-2.77 6.14-6.18 6.14h-7.37c-1.85 0-3.51-.81-4.64-2.09h-3.58a6.174 6.174 0 0 1-4.64 2.09h-7.27c-1.66 0-3.17-.65-4.28-1.72-.82.83-1.87 1.43-3.02 1.7-.45.1-.95.16-1.41.16ZM437.81 57.21c-3.88 0-7.55-.64-10.9-1.9-3.43-1.29-6.45-3.17-8.98-5.59a26.185 26.185 0 0 1-5.92-8.5c-1.41-3.25-2.13-6.83-2.13-10.64s.72-7.39 2.13-10.64c1.41-3.25 3.44-6.13 6.02-8.55 2.56-2.4 5.59-4.26 8.99-5.55 3.35-1.26 7.03-1.9 10.95-1.9 4.33 0 8.34.75 11.91 2.23 3.71 1.54 6.89 3.81 9.45 6.75a6.097 6.097 0 0 1-.48 8.53l-2.92 2.7c2.42.83 4.16 3.12 4.16 5.81v16.08c0 1.92-.92 3.75-2.45 4.9-2.77 2.09-5.98 3.69-9.52 4.75a35.99 35.99 0 0 1-10.32 1.53Zm.57-33.23c-1.11 0-2.11.17-2.98.51-.81.32-1.5.75-2.05 1.29-.54.53-.97 1.18-1.28 1.93-.33.81-.49 1.77-.49 2.86 0 1.02.17 1.96.5 2.79.3.76.73 1.42 1.27 1.94.58.57 1.29 1.02 2.11 1.36.82.33 1.78.5 2.87.5.33 0 .66-.02.99-.05v-7.16c0-2.13 1.1-4.02 2.76-5.12-.17-.09-.35-.18-.52-.25-.92-.4-1.99-.6-3.18-.6Z"/><path class="cls-1" d="M437.81 57.21c-3.88 0-7.55-.64-10.9-1.9-3.43-1.29-6.45-3.17-8.98-5.59a26.185 26.185 0 0 1-5.92-8.5c-1.41-3.25-2.13-6.83-2.13-10.64s.72-7.39 2.13-10.64c1.41-3.25 3.44-6.13 6.02-8.55 2.56-2.4 5.59-4.26 8.99-5.55 3.35-1.26 7.03-1.9 10.95-1.9 4.33 0 8.34.75 11.91 2.23 3.71 1.54 6.89 3.81 9.45 6.75a6.097 6.097 0 0 1-.48 8.53l-2.92 2.7c2.42.83 4.16 3.12 4.16 5.81v16.08c0 1.92-.92 3.75-2.45 4.9-2.77 2.09-5.98 3.69-9.52 4.75a35.99 35.99 0 0 1-10.32 1.53Zm.57-33.23c-1.11 0-2.11.17-2.98.51-.81.32-1.5.75-2.05 1.29-.54.53-.97 1.18-1.28 1.93-.33.81-.49 1.77-.49 2.86 0 1.02.17 1.96.5 2.79.3.76.73 1.42 1.27 1.94.58.57 1.29 1.02 2.11 1.36.82.33 1.78.5 2.87.5.33 0 .66-.02.99-.05v-7.16c0-2.13 1.1-4.02 2.76-5.12-.17-.09-.35-.18-.52-.25-.92-.4-1.99-.6-3.18-.6Z"/><path class="cls-1" d="M496.39 56.53c-3.39 0-6.16-2.74-6.18-6.12v-1.7l-.37.6a6.207 6.207 0 0 1-5.29 2.98h-4.1c-2.15 0-4.17-1.13-5.28-2.96l-.27-.43v1.49c0 3.39-2.77 6.14-6.18 6.14h-8.6c-3.41 0-6.18-2.76-6.18-6.14V10.76c0-3.39 2.77-6.14 6.18-6.14h7.63a6.21 6.21 0 0 1 5.29 2.98l9.57 15.78 9.36-15.74a6.231 6.231 0 0 1 5.32-3.02h7.68c3.41 0 6.18 2.76 6.18 6.14v39.63c0 3.39-2.77 6.14-6.18 6.14h-8.6Z"/><path class="cls-1" d="M496.39 56.53c-3.39 0-6.16-2.74-6.18-6.12v-1.7l-.37.6a6.207 6.207 0 0 1-5.29 2.98h-4.1c-2.15 0-4.17-1.13-5.28-2.96l-.27-.43v1.49c0 3.39-2.77 6.14-6.18 6.14h-8.6c-3.41 0-6.18-2.76-6.18-6.14V10.76c0-3.39 2.77-6.14 6.18-6.14h7.63a6.21 6.21 0 0 1 5.29 2.98l9.57 15.78 9.36-15.74a6.231 6.231 0 0 1 5.32-3.02h7.68c3.41 0 6.18 2.76 6.18 6.14v39.63c0 3.39-2.77 6.14-6.18 6.14h-8.6Z"/><path class="cls-1" d="M532.59 57.21c-3.9 0-7.58-.65-10.93-1.94-3.4-1.3-6.41-3.18-8.96-5.56a25.68 25.68 0 0 1-6.02-8.54c-1.41-3.25-2.13-6.81-2.13-10.59s.72-7.39 2.14-10.63c1.41-3.23 3.43-6.09 6.01-8.5 2.55-2.39 5.55-4.26 8.92-5.56 3.34-1.29 7.01-1.95 10.92-1.95s7.55.64 10.88 1.9c3.38 1.28 6.4 3.15 8.95 5.54 2.58 2.42 4.61 5.3 6.02 8.55 1.41 3.25 2.13 6.83 2.13 10.64s-.71 7.33-2.12 10.6a25.423 25.423 0 0 1-6.03 8.59c-2.55 2.39-5.57 4.26-8.95 5.54-3.34 1.26-6.98 1.9-10.83 1.9Zm-.06-33.23c-.96 0-1.84.16-2.6.47-.72.3-1.35.72-1.87 1.25-.56.58-1.01 1.27-1.34 2.06-.32.78-.48 1.73-.48 2.81s.16 2.02.48 2.8c.32.79.77 1.49 1.34 2.07.52.54 1.15.96 1.87 1.25.76.31 1.63.47 2.6.47s1.81-.15 2.54-.46c.73-.3 1.38-.74 1.93-1.3.57-.57 1.01-1.25 1.33-2.03.32-.78.48-1.73.48-2.81s-.16-2.02-.48-2.8c-.32-.78-.77-1.46-1.33-2.03a5.92 5.92 0 0 0-1.93-1.3c-.73-.3-1.59-.46-2.54-.46Z"/><path class="cls-1" d="M532.59 57.21c-3.9 0-7.58-.65-10.93-1.94-3.4-1.3-6.41-3.18-8.96-5.56a25.68 25.68 0 0 1-6.02-8.54c-1.41-3.25-2.13-6.81-2.13-10.59s.72-7.39 2.14-10.63c1.41-3.23 3.43-6.09 6.01-8.5 2.55-2.39 5.55-4.26 8.92-5.56 3.34-1.29 7.01-1.95 10.92-1.95s7.55.64 10.88 1.9c3.38 1.28 6.4 3.15 8.95 5.54 2.58 2.42 4.61 5.3 6.02 8.55 1.41 3.25 2.13 6.83 2.13 10.64s-.71 7.33-2.12 10.6a25.423 25.423 0 0 1-6.03 8.59c-2.55 2.39-5.57 4.26-8.95 5.54-3.34 1.26-6.98 1.9-10.83 1.9Zm-.06-33.23c-.96 0-1.84.16-2.6.47-.72.3-1.35.72-1.87 1.25-.56.58-1.01 1.27-1.34 2.06-.32.78-.48 1.73-.48 2.81s.16 2.02.48 2.8c.32.79.77 1.49 1.34 2.07.52.54 1.15.96 1.87 1.25.76.31 1.63.47 2.6.47s1.81-.15 2.54-.46c.73-.3 1.38-.74 1.93-1.3.57-.57 1.01-1.25 1.33-2.03.32-.78.48-1.73.48-2.81s-.16-2.02-.48-2.8c-.32-.78-.77-1.46-1.33-2.03a5.92 5.92 0 0 0-1.93-1.3c-.73-.3-1.59-.46-2.54-.46Z"/><path class="cls-1" d="M575.93 55.91c-.69 0-1.52-.03-2.53-.08-.95-.05-1.94-.12-2.97-.2-1.01-.08-2.02-.17-3.04-.27-2.58-.25-4.64-2.02-5.33-4.35-.39-.1-.77-.23-1.12-.4l-6.66-3.14a6.199 6.199 0 0 1-3.25-3.72c-.51-1.63-.31-3.42.54-4.9 1.29-2.26 2.52-4.74 3.63-7.36.54-1.28 1.04-2.55 1.5-3.8-2.48-.8-4.28-3.12-4.28-5.85v-6.9c0-3.39 2.77-6.14 6.18-6.14h12.05v-.47c0-3.39 2.77-6.14 6.18-6.14h7.94c1.32 0 2.55.42 3.56 1.12.66-.58 1.38-1.1 2.16-1.55C592.51.59 594.74 0 597.11 0s4.73.61 6.74 1.8c1.91 1.14 3.46 2.68 4.62 4.58 1.23 2.02 1.85 4.28 1.85 6.71s-.62 4.69-1.85 6.7c-.28.47-.59.91-.92 1.34v.71c0 2.46-1.47 4.6-3.58 5.57.62 1.29 1.21 2.61 1.79 3.95 1.4 3.27 2.57 6.53 3.47 9.68.9 3.13-.83 6.43-3.95 7.49l-7.06 2.42c-.63.21-1.35.34-2.01.34-.96 0-1.99-.25-2.84-.69a6.168 6.168 0 0 1-3.01-3.48c-.53 2.16-1.51 3.95-2.95 5.34-1.47 1.43-3.37 2.4-5.65 2.91-1.61.35-3.52.53-5.84.53Z"/><path class="cls-1" d="M575.93 55.91c-.69 0-1.52-.03-2.53-.08-.95-.05-1.94-.12-2.97-.2-1.01-.08-2.02-.17-3.04-.27-2.58-.25-4.64-2.02-5.33-4.35-.39-.1-.77-.23-1.12-.4l-6.66-3.14a6.199 6.199 0 0 1-3.25-3.72c-.51-1.63-.31-3.42.54-4.9 1.29-2.26 2.52-4.74 3.63-7.36.54-1.28 1.04-2.55 1.5-3.8-2.48-.8-4.28-3.12-4.28-5.85v-6.9c0-3.39 2.77-6.14 6.18-6.14h12.05v-.47c0-3.39 2.77-6.14 6.18-6.14h7.94c1.32 0 2.55.42 3.56 1.12.66-.58 1.38-1.1 2.16-1.55C592.51.59 594.74 0 597.11 0s4.73.61 6.74 1.8c1.91 1.14 3.46 2.68 4.62 4.58 1.23 2.02 1.85 4.28 1.85 6.71s-.62 4.69-1.85 6.7c-.28.47-.59.91-.92 1.34v.71c0 2.46-1.47 4.6-3.58 5.57.62 1.29 1.21 2.61 1.79 3.95 1.4 3.27 2.57 6.53 3.47 9.68.9 3.13-.83 6.43-3.95 7.49l-7.06 2.42c-.63.21-1.35.34-2.01.34-.96 0-1.99-.25-2.84-.69a6.168 6.168 0 0 1-3.01-3.48c-.53 2.16-1.51 3.95-2.95 5.34-1.47 1.43-3.37 2.4-5.65 2.91-1.61.35-3.52.53-5.84.53Z"/><path class="cls-1" d="M624.05 56.58c-3.41 0-6.18-2.76-6.18-6.14v-12.8c-.37.12-.75.23-1.12.34-3.25.95-6.45 1.7-9.52 2.21-.33.06-.69.09-1.03.09-1.3 0-2.54-.4-3.59-1.14a6.206 6.206 0 0 1-2.5-3.99l-1.2-7.14c-.27-1.6.12-3.28 1.08-4.6 1-1.36 2.48-2.25 4.11-2.49 2.81-.42 5.82-1.16 8.94-2.2 3.2-1.06 6.41-2.39 9.55-3.94 3.14-1.55 6.11-3.27 8.82-5.11 2.64-1.79 4.93-3.65 6.82-5.53a6.166 6.166 0 0 1 4.37-1.8h.22c1.7.06 3.32.83 4.44 2.1l4.84 5.52c2.11 2.4 2 6.07-.26 8.35-2.11 2.14-4.58 4.22-7.33 6.17a86.212 86.212 0 0 1-5.96 3.87v22.07c0 3.39-2.77 6.14-6.18 6.14h-8.32Z"/><path class="cls-1" d="M624.05 56.58c-3.41 0-6.18-2.76-6.18-6.14v-12.8c-.37.12-.75.23-1.12.34-3.25.95-6.45 1.7-9.52 2.21-.33.06-.69.09-1.03.09-1.3 0-2.54-.4-3.59-1.14a6.206 6.206 0 0 1-2.5-3.99l-1.2-7.14c-.27-1.6.12-3.28 1.08-4.6 1-1.36 2.48-2.25 4.11-2.49 2.81-.42 5.82-1.16 8.94-2.2 3.2-1.06 6.41-2.39 9.55-3.94 3.14-1.55 6.11-3.27 8.82-5.11 2.64-1.79 4.93-3.65 6.82-5.53a6.166 6.166 0 0 1 4.37-1.8h.22c1.7.06 3.32.83 4.44 2.1l4.84 5.52c2.11 2.4 2 6.07-.26 8.35-2.11 2.14-4.58 4.22-7.33 6.17a86.212 86.212 0 0 1-5.96 3.87v22.07c0 3.39-2.77 6.14-6.18 6.14h-8.32Z"/><path class="cls-1" d="M655.5 57.43a6.2 6.2 0 0 1-3.32-.96l-5.96-3.75c-2.81-1.75-3.71-5.5-2-8.34 1.14-1.9 2.25-4.07 3.31-6.46.81-1.83 1.55-3.68 2.22-5.53l-.54-.45c-1.39-1.14-2.88-2.3-4.44-3.43a6.193 6.193 0 0 1-2.48-4.2c-.21-1.68.29-3.38 1.37-4.68l2.1-2.52a6.15 6.15 0 0 1-1.46-3.26c-.22-1.63.27-3.35 1.35-4.65l4.12-5a6.17 6.17 0 0 1 4.78-2.25c1.24 0 2.44.36 3.46 1.06 1.3.89 2.54 1.78 3.71 2.66.75-.31 1.57-.48 2.4-.48 3.32 0 6.61-.14 9.78-.41 3.15-.27 6.06-.65 8.67-1.15 2.59-.49 4.75-1.01 6.42-1.53.58-.18 1.25-.29 1.87-.29 1.01 0 2.02.25 2.91.72 1.42.74 2.52 2.07 3 3.63l1.88 6.27c.44 1.47.31 2.97-.27 4.26a6.092 6.092 0 0 1 1.63 4.15v6.18c0 1.84-.82 3.49-2.1 4.62v19.5c0 3.39-2.77 6.14-6.18 6.14h-7.37c-1.85 0-3.51-.81-4.64-2.09h-3.58a6.174 6.174 0 0 1-4.64 2.09h-7.27c-1.66 0-3.17-.65-4.28-1.72-.82.83-1.87 1.43-3.02 1.7-.45.1-.95.16-1.41.16Z"/><path class="cls-1" d="M655.5 57.43a6.2 6.2 0 0 1-3.32-.96l-5.96-3.75c-2.81-1.75-3.71-5.5-2-8.34 1.14-1.9 2.25-4.07 3.31-6.46.81-1.83 1.55-3.68 2.22-5.53l-.54-.45c-1.39-1.14-2.88-2.3-4.44-3.43a6.193 6.193 0 0 1-2.48-4.2c-.21-1.68.29-3.38 1.37-4.68l2.1-2.52a6.15 6.15 0 0 1-1.46-3.26c-.22-1.63.27-3.35 1.35-4.65l4.12-5a6.17 6.17 0 0 1 4.78-2.25c1.24 0 2.44.36 3.46 1.06 1.3.89 2.54 1.78 3.71 2.66.75-.31 1.57-.48 2.4-.48 3.32 0 6.61-.14 9.78-.41 3.15-.27 6.06-.65 8.67-1.15 2.59-.49 4.75-1.01 6.42-1.53.58-.18 1.25-.29 1.87-.29 1.01 0 2.02.25 2.91.72 1.42.74 2.52 2.07 3 3.63l1.88 6.27c.44 1.47.31 2.97-.27 4.26a6.092 6.092 0 0 1 1.63 4.15v6.18c0 1.84-.82 3.49-2.1 4.62v19.5c0 3.39-2.77 6.14-6.18 6.14h-7.37c-1.85 0-3.51-.81-4.64-2.09h-3.58a6.174 6.174 0 0 1-4.64 2.09h-7.27c-1.66 0-3.17-.65-4.28-1.72-.82.83-1.87 1.43-3.02 1.7-.45.1-.95.16-1.41.16ZM437.81 57.21c-3.88 0-7.55-.64-10.9-1.9-3.43-1.29-6.45-3.17-8.98-5.59a26.185 26.185 0 0 1-5.92-8.5c-1.41-3.25-2.13-6.83-2.13-10.64s.72-7.39 2.13-10.64c1.41-3.25 3.44-6.13 6.02-8.55 2.56-2.4 5.59-4.26 8.99-5.55 3.35-1.26 7.03-1.9 10.95-1.9 4.33 0 8.34.75 11.91 2.23 3.71 1.54 6.89 3.81 9.45 6.75a6.097 6.097 0 0 1-.48 8.53l-2.92 2.7c2.42.83 4.16 3.12 4.16 5.81v16.08c0 1.92-.92 3.75-2.45 4.9-2.77 2.09-5.98 3.69-9.52 4.75a35.99 35.99 0 0 1-10.32 1.53Zm.57-33.23c-1.11 0-2.11.17-2.98.51-.81.32-1.5.75-2.05 1.29-.54.53-.97 1.18-1.28 1.93-.33.81-.49 1.77-.49 2.86 0 1.02.17 1.96.5 2.79.3.76.73 1.42 1.27 1.94.58.57 1.29 1.02 2.11 1.36.82.33 1.78.5 2.87.5.33 0 .66-.02.99-.05v-7.16c0-2.13 1.1-4.02 2.76-5.12-.17-.09-.35-.18-.52-.25-.92-.4-1.99-.6-3.18-.6Z"/><path class="cls-1" d="M437.81 57.21c-3.88 0-7.55-.64-10.9-1.9-3.43-1.29-6.45-3.17-8.98-5.59a26.185 26.185 0 0 1-5.92-8.5c-1.41-3.25-2.13-6.83-2.13-10.64s.72-7.39 2.13-10.64c1.41-3.25 3.44-6.13 6.02-8.55 2.56-2.4 5.59-4.26 8.99-5.55 3.35-1.26 7.03-1.9 10.95-1.9 4.33 0 8.34.75 11.91 2.23 3.71 1.54 6.89 3.81 9.45 6.75a6.097 6.097 0 0 1-.48 8.53l-2.92 2.7c2.42.83 4.16 3.12 4.16 5.81v16.08c0 1.92-.92 3.75-2.45 4.9-2.77 2.09-5.98 3.69-9.52 4.75a35.99 35.99 0 0 1-10.32 1.53Zm.57-33.23c-1.11 0-2.11.17-2.98.51-.81.32-1.5.75-2.05 1.29-.54.53-.97 1.18-1.28 1.93-.33.81-.49 1.77-.49 2.86 0 1.02.17 1.96.5 2.79.3.76.73 1.42 1.27 1.94.58.57 1.29 1.02 2.11 1.36.82.33 1.78.5 2.87.5.33 0 .66-.02.99-.05v-7.16c0-2.13 1.1-4.02 2.76-5.12-.17-.09-.35-.18-.52-.25-.92-.4-1.99-.6-3.18-.6Z"/><path class="cls-1" d="M496.39 56.53c-3.39 0-6.16-2.74-6.18-6.12v-1.7l-.37.6a6.207 6.207 0 0 1-5.29 2.98h-4.1c-2.15 0-4.17-1.13-5.28-2.96l-.27-.43v1.49c0 3.39-2.77 6.14-6.18 6.14h-8.6c-3.41 0-6.18-2.76-6.18-6.14V10.76c0-3.39 2.77-6.14 6.18-6.14h7.63a6.21 6.21 0 0 1 5.29 2.98l9.57 15.78 9.36-15.74a6.231 6.231 0 0 1 5.32-3.02h7.68c3.41 0 6.18 2.76 6.18 6.14v39.63c0 3.39-2.77 6.14-6.18 6.14h-8.6Z"/><path class="cls-1" d="M496.39 56.53c-3.39 0-6.16-2.74-6.18-6.12v-1.7l-.37.6a6.207 6.207 0 0 1-5.29 2.98h-4.1c-2.15 0-4.17-1.13-5.28-2.96l-.27-.43v1.49c0 3.39-2.77 6.14-6.18 6.14h-8.6c-3.41 0-6.18-2.76-6.18-6.14V10.76c0-3.39 2.77-6.14 6.18-6.14h7.63a6.21 6.21 0 0 1 5.29 2.98l9.57 15.78 9.36-15.74a6.231 6.231 0 0 1 5.32-3.02h7.68c3.41 0 6.18 2.76 6.18 6.14v39.63c0 3.39-2.77 6.14-6.18 6.14h-8.6Z"/><path class="cls-1" d="M532.59 57.21c-3.9 0-7.58-.65-10.93-1.94-3.4-1.3-6.41-3.18-8.96-5.56a25.68 25.68 0 0 1-6.02-8.54c-1.41-3.25-2.13-6.81-2.13-10.59s.72-7.39 2.14-10.63c1.41-3.23 3.43-6.09 6.01-8.5 2.55-2.39 5.55-4.26 8.92-5.56 3.34-1.29 7.01-1.95 10.92-1.95s7.55.64 10.88 1.9c3.38 1.28 6.4 3.15 8.95 5.54 2.58 2.42 4.61 5.3 6.02 8.55 1.41 3.25 2.13 6.83 2.13 10.64s-.71 7.33-2.12 10.6a25.423 25.423 0 0 1-6.03 8.59c-2.55 2.39-5.57 4.26-8.95 5.54-3.34 1.26-6.98 1.9-10.83 1.9Zm-.06-33.23c-.96 0-1.84.16-2.6.47-.72.3-1.35.72-1.87 1.25-.56.58-1.01 1.27-1.34 2.06-.32.78-.48 1.73-.48 2.81s.16 2.02.48 2.8c.32.79.77 1.49 1.34 2.07.52.54 1.15.96 1.87 1.25.76.31 1.63.47 2.6.47s1.81-.15 2.54-.46c.73-.3 1.38-.74 1.93-1.3.57-.57 1.01-1.25 1.33-2.03.32-.78.48-1.73.48-2.81s-.16-2.02-.48-2.8c-.32-.78-.77-1.46-1.33-2.03a5.92 5.92 0 0 0-1.93-1.3c-.73-.3-1.59-.46-2.54-.46Z"/><path class="cls-1" d="M532.59 57.21c-3.9 0-7.58-.65-10.93-1.94-3.4-1.3-6.41-3.18-8.96-5.56a25.68 25.68 0 0 1-6.02-8.54c-1.41-3.25-2.13-6.81-2.13-10.59s.72-7.39 2.14-10.63c1.41-3.23 3.43-6.09 6.01-8.5 2.55-2.39 5.55-4.26 8.92-5.56 3.34-1.29 7.01-1.95 10.92-1.95s7.55.64 10.88 1.9c3.38 1.28 6.4 3.15 8.95 5.54 2.58 2.42 4.61 5.3 6.02 8.55 1.41 3.25 2.13 6.83 2.13 10.64s-.71 7.33-2.12 10.6a25.423 25.423 0 0 1-6.03 8.59c-2.55 2.39-5.57 4.26-8.95 5.54-3.34 1.26-6.98 1.9-10.83 1.9Zm-.06-33.23c-.96 0-1.84.16-2.6.47-.72.3-1.35.72-1.87 1.25-.56.58-1.01 1.27-1.34 2.06-.32.78-.48 1.73-.48 2.81s.16 2.02.48 2.8c.32.79.77 1.49 1.34 2.07.52.54 1.15.96 1.87 1.25.76.31 1.63.47 2.6.47s1.81-.15 2.54-.46c.73-.3 1.38-.74 1.93-1.3.57-.57 1.01-1.25 1.33-2.03.32-.78.48-1.73.48-2.81s-.16-2.02-.48-2.8c-.32-.78-.77-1.46-1.33-2.03a5.92 5.92 0 0 0-1.93-1.3c-.73-.3-1.59-.46-2.54-.46Z"/><path class="cls-1" d="M575.93 55.91c-.69 0-1.52-.03-2.53-.08-.95-.05-1.94-.12-2.97-.2-1.01-.08-2.02-.17-3.04-.27-2.58-.25-4.64-2.02-5.33-4.35-.39-.1-.77-.23-1.12-.4l-6.66-3.14a6.199 6.199 0 0 1-3.25-3.72c-.51-1.63-.31-3.42.54-4.9 1.29-2.26 2.52-4.74 3.63-7.36.54-1.28 1.04-2.55 1.5-3.8-2.48-.8-4.28-3.12-4.28-5.85v-6.9c0-3.39 2.77-6.14 6.18-6.14h12.05v-.47c0-3.39 2.77-6.14 6.18-6.14h7.94c1.32 0 2.55.42 3.56 1.12.66-.58 1.38-1.1 2.16-1.55C592.51.59 594.74 0 597.11 0s4.73.61 6.74 1.8c1.91 1.14 3.46 2.68 4.62 4.58 1.23 2.02 1.85 4.28 1.85 6.71s-.62 4.69-1.85 6.7c-.28.47-.59.91-.92 1.34v.71c0 2.46-1.47 4.6-3.58 5.57.62 1.29 1.21 2.61 1.79 3.95 1.4 3.27 2.57 6.53 3.47 9.68.9 3.13-.83 6.43-3.95 7.49l-7.06 2.42c-.63.21-1.35.34-2.01.34-.96 0-1.99-.25-2.84-.69a6.168 6.168 0 0 1-3.01-3.48c-.53 2.16-1.51 3.95-2.95 5.34-1.47 1.43-3.37 2.4-5.65 2.91-1.61.35-3.52.53-5.84.53Z"/><path class="cls-1" d="M575.93 55.91c-.69 0-1.52-.03-2.53-.08-.95-.05-1.94-.12-2.97-.2-1.01-.08-2.02-.17-3.04-.27-2.58-.25-4.64-2.02-5.33-4.35-.39-.1-.77-.23-1.12-.4l-6.66-3.14a6.199 6.199 0 0 1-3.25-3.72c-.51-1.63-.31-3.42.54-4.9 1.29-2.26 2.52-4.74 3.63-7.36.54-1.28 1.04-2.55 1.5-3.8-2.48-.8-4.28-3.12-4.28-5.85v-6.9c0-3.39 2.77-6.14 6.18-6.14h12.05v-.47c0-3.39 2.77-6.14 6.18-6.14h7.94c1.32 0 2.55.42 3.56 1.12.66-.58 1.38-1.1 2.16-1.55C592.51.59 594.74 0 597.11 0s4.73.61 6.74 1.8c1.91 1.14 3.46 2.68 4.62 4.58 1.23 2.02 1.85 4.28 1.85 6.71s-.62 4.69-1.85 6.7c-.28.47-.59.91-.92 1.34v.71c0 2.46-1.47 4.6-3.58 5.57.62 1.29 1.21 2.61 1.79 3.95 1.4 3.27 2.57 6.53 3.47 9.68.9 3.13-.83 6.43-3.95 7.49l-7.06 2.42c-.63.21-1.35.34-2.01.34-.96 0-1.99-.25-2.84-.69a6.168 6.168 0 0 1-3.01-3.48c-.53 2.16-1.51 3.95-2.95 5.34-1.47 1.43-3.37 2.4-5.65 2.91-1.61.35-3.52.53-5.84.53Z"/><path class="cls-1" d="M624.05 56.58c-3.41 0-6.18-2.76-6.18-6.14v-12.8c-.37.12-.75.23-1.12.34-3.25.95-6.45 1.7-9.52 2.21-.33.06-.69.09-1.03.09-1.3 0-2.54-.4-3.59-1.14a6.206 6.206 0 0 1-2.5-3.99l-1.2-7.14c-.27-1.6.12-3.28 1.08-4.6 1-1.36 2.48-2.25 4.11-2.49 2.81-.42 5.82-1.16 8.94-2.2 3.2-1.06 6.41-2.39 9.55-3.94 3.14-1.55 6.11-3.27 8.82-5.11 2.64-1.79 4.93-3.65 6.82-5.53a6.166 6.166 0 0 1 4.37-1.8h.22c1.7.06 3.32.83 4.44 2.1l4.84 5.52c2.11 2.4 2 6.07-.26 8.35-2.11 2.14-4.58 4.22-7.33 6.17a86.212 86.212 0 0 1-5.96 3.87v22.07c0 3.39-2.77 6.14-6.18 6.14h-8.32Z"/><path class="cls-1" d="M624.05 56.58c-3.41 0-6.18-2.76-6.18-6.14v-12.8c-.37.12-.75.23-1.12.34-3.25.95-6.45 1.7-9.52 2.21-.33.06-.69.09-1.03.09-1.3 0-2.54-.4-3.59-1.14a6.206 6.206 0 0 1-2.5-3.99l-1.2-7.14c-.27-1.6.12-3.28 1.08-4.6 1-1.36 2.48-2.25 4.11-2.49 2.81-.42 5.82-1.16 8.94-2.2 3.2-1.06 6.41-2.39 9.55-3.94 3.14-1.55 6.11-3.27 8.82-5.11 2.64-1.79 4.93-3.65 6.82-5.53a6.166 6.166 0 0 1 4.37-1.8h.22c1.7.06 3.32.83 4.44 2.1l4.84 5.52c2.11 2.4 2 6.07-.26 8.35-2.11 2.14-4.58 4.22-7.33 6.17a86.212 86.212 0 0 1-5.96 3.87v22.07c0 3.39-2.77 6.14-6.18 6.14h-8.32Z"/><path class="cls-1" d="M655.5 57.43a6.2 6.2 0 0 1-3.32-.96l-5.96-3.75c-2.81-1.75-3.71-5.5-2-8.34 1.14-1.9 2.25-4.07 3.31-6.46.81-1.83 1.55-3.68 2.22-5.53l-.54-.45c-1.39-1.14-2.88-2.3-4.44-3.43a6.193 6.193 0 0 1-2.48-4.2c-.21-1.68.29-3.38 1.37-4.68l2.1-2.52a6.15 6.15 0 0 1-1.46-3.26c-.22-1.63.27-3.35 1.35-4.65l4.12-5a6.17 6.17 0 0 1 4.78-2.25c1.24 0 2.44.36 3.46 1.06 1.3.89 2.54 1.78 3.71 2.66.75-.31 1.57-.48 2.4-.48 3.32 0 6.61-.14 9.78-.41 3.15-.27 6.06-.65 8.67-1.15 2.59-.49 4.75-1.01 6.42-1.53.58-.18 1.25-.29 1.87-.29 1.01 0 2.02.25 2.91.72 1.42.74 2.52 2.07 3 3.63l1.88 6.27c.44 1.47.31 2.97-.27 4.26a6.092 6.092 0 0 1 1.63 4.15v6.18c0 1.84-.82 3.49-2.1 4.62v19.5c0 3.39-2.77 6.14-6.18 6.14h-7.37c-1.85 0-3.51-.81-4.64-2.09h-3.58a6.174 6.174 0 0 1-4.64 2.09h-7.27c-1.66 0-3.17-.65-4.28-1.72-.82.83-1.87 1.43-3.02 1.7-.45.1-.95.16-1.41.16Z"/><path class="cls-1" d="M655.5 57.43a6.2 6.2 0 0 1-3.32-.96l-5.96-3.75c-2.81-1.75-3.71-5.5-2-8.34 1.14-1.9 2.25-4.07 3.31-6.46.81-1.83 1.55-3.68 2.22-5.53l-.54-.45c-1.39-1.14-2.88-2.3-4.44-3.43a6.193 6.193 0 0 1-2.48-4.2c-.21-1.68.29-3.38 1.37-4.68l2.1-2.52a6.15 6.15 0 0 1-1.46-3.26c-.22-1.63.27-3.35 1.35-4.65l4.12-5a6.17 6.17 0 0 1 4.78-2.25c1.24 0 2.44.36 3.46 1.06 1.3.89 2.54 1.78 3.71 2.66.75-.31 1.57-.48 2.4-.48 3.32 0 6.61-.14 9.78-.41 3.15-.27 6.06-.65 8.67-1.15 2.59-.49 4.75-1.01 6.42-1.53.58-.18 1.25-.29 1.87-.29 1.01 0 2.02.25 2.91.72 1.42.74 2.52 2.07 3 3.63l1.88 6.27c.44 1.47.31 2.97-.27 4.26a6.092 6.092 0 0 1 1.63 4.15v6.18c0 1.84-.82 3.49-2.1 4.62v19.5c0 3.39-2.77 6.14-6.18 6.14h-7.37c-1.85 0-3.51-.81-4.64-2.09h-3.58a6.174 6.174 0 0 1-4.64 2.09h-7.27c-1.66 0-3.17-.65-4.28-1.72-.82.83-1.87 1.43-3.02 1.7-.45.1-.95.16-1.41.16ZM376.1 56.01c-2.74 0-5.17-1.87-5.82-4.58-.74-3.12-1.3-6.28-1.67-9.4-.37-3.13-.56-6.44-.56-9.86s.19-6.73.56-9.84c.37-3.09.91-6.23 1.61-9.32.62-2.74 3.07-4.64 5.83-4.64.22 0 .44.01.67.04l6.93.77a5.96 5.96 0 0 1 5.16 4.59h3.22v-.39c0-3.28 2.68-5.95 5.98-5.95h6.8c3.3 0 5.98 2.66 5.98 5.95v.39h1.43c3.3 0 5.98 2.66 5.98 5.95v5.82c0 3.28-2.68 5.95-5.98 5.95h-1.43v2.21s.07.06.11.1c1.8 1.59 3.94 3.62 6.36 6.03 2.27 2.26 2.34 5.9.16 8.24l-4.22 4.54a6.02 6.02 0 0 1-4.29 1.91h-.1c-1.57 0-3.08-.62-4.2-1.71-2.68 1.76-6.05 2.66-10.05 2.66-2.98 0-5.64-.5-7.93-1.5-.85.65-1.86 1.07-2.95 1.2l-6.89.81c-.24.03-.48.04-.71.04Z"/><path class="cls-1" d="M376.1 56.01c-2.74 0-5.17-1.87-5.82-4.58-.74-3.12-1.3-6.28-1.67-9.4-.37-3.13-.56-6.44-.56-9.86s.19-6.73.56-9.84c.37-3.09.91-6.23 1.61-9.32.62-2.74 3.07-4.64 5.83-4.64.22 0 .44.01.67.04l6.93.77a5.96 5.96 0 0 1 5.16 4.59h3.22v-.39c0-3.28 2.68-5.95 5.98-5.95h6.8c3.3 0 5.98 2.66 5.98 5.95v.39h1.43c3.3 0 5.98 2.66 5.98 5.95v5.82c0 3.28-2.68 5.95-5.98 5.95h-1.43v2.21s.07.06.11.1c1.8 1.59 3.94 3.62 6.36 6.03 2.27 2.26 2.34 5.9.16 8.24l-4.22 4.54a6.02 6.02 0 0 1-4.29 1.91h-.1c-1.57 0-3.08-.62-4.2-1.71-2.68 1.76-6.05 2.66-10.05 2.66-2.98 0-5.64-.5-7.93-1.5-.85.65-1.86 1.07-2.95 1.2l-6.89.81c-.24.03-.48.04-.71.04Z"/><path class="cls-1" d="M376.1 56.01c-2.74 0-5.17-1.87-5.82-4.58-.74-3.12-1.3-6.28-1.67-9.4-.37-3.13-.56-6.44-.56-9.86s.19-6.73.56-9.84c.37-3.09.91-6.23 1.61-9.32.62-2.74 3.07-4.64 5.83-4.64.22 0 .44.01.67.04l6.93.77a5.96 5.96 0 0 1 5.16 4.59h3.22v-.39c0-3.28 2.68-5.95 5.98-5.95h6.8c3.3 0 5.98 2.66 5.98 5.95v.39h1.43c3.3 0 5.98 2.66 5.98 5.95v5.82c0 3.28-2.68 5.95-5.98 5.95h-1.43v2.21s.07.06.11.1c1.8 1.59 3.94 3.62 6.36 6.03 2.27 2.26 2.34 5.9.16 8.24l-4.22 4.54a6.02 6.02 0 0 1-4.29 1.91h-.1c-1.57 0-3.08-.62-4.2-1.71-2.68 1.76-6.05 2.66-10.05 2.66-2.98 0-5.64-.5-7.93-1.5-.85.65-1.86 1.07-2.95 1.2l-6.89.81c-.24.03-.48.04-.71.04ZM42.92 44.81c-3.3 0-5.98-2.66-5.98-5.95V21.85c0-3.28 2.68-5.95 5.98-5.95h10.67c3.3 0 5.98 2.66 5.98 5.95v17.01c0 3.28-2.68 5.95-5.98 5.95H42.92ZM89.65 33.73c-3.3 0-5.98-2.66-5.98-5.95v-5.93c0-3.28 2.68-5.95 5.98-5.95h9.2c3.3 0 5.98 2.66 5.98 5.95v5.93c0 3.28-2.68 5.95-5.98 5.95h-9.2ZM142.27 37.39c-3.3 0-5.98-2.66-5.98-5.95v-8.23c0-3.28 2.68-5.95 5.98-5.95h10.12c3.3 0 5.98 2.66 5.98 5.95v8.23c0 3.28-2.68 5.95-5.98 5.95h-10.12ZM427.93 45.25c-3.3 0-5.98-2.66-5.98-5.95V20.78c0-3.28 2.68-5.95 5.98-5.95h23.61c3.3 0 5.98 2.66 5.98 5.95V39.3c0 3.28-2.68 5.95-5.98 5.95h-23.61ZM520.38 45.25c-3.3 0-5.98-2.66-5.98-5.95V20.78c0-3.28 2.68-5.95 5.98-5.95h28.51c3.3 0 5.98 2.66 5.98 5.95V39.3c0 3.28-2.68 5.95-5.98 5.95h-28.51Z"/><path class="cls-1" d="M164.05 49.24c-3.3 0-5.98-2.66-5.98-5.95V19.85c0-3.28 2.68-5.95 5.98-5.95h30.42c3.3 0 5.98 2.66 5.98 5.95v23.44c0 3.28-2.68 5.95-5.98 5.95h-30.42ZM65.16 45.25c-3.3 0-5.98-2.66-5.98-5.95V13.38c0-3.28 2.68-5.95 5.98-5.95h17.73c3.3 0 5.98 2.66 5.98 5.95v25.93c0 3.28-2.68 5.95-5.98 5.95H65.16Z"/><path class="cls-2" d="M8.28 50.34c-.76-3.23-1.34-6.47-1.72-9.7-.38-3.23-.57-6.63-.57-10.18s.19-6.94.57-10.16c.38-3.22.94-6.45 1.67-9.68l7.7.86c-.73 3.01-1.28 6.1-1.65 9.25-.37 3.16-.55 6.4-.55 9.73s.18 6.57.55 9.73c.37 3.16.92 6.24 1.65 9.25l-7.65.9Zm20.52-.62c-3.6 0-6.43-.84-8.47-2.52-2.04-1.68-3.06-4.01-3.06-6.99s1.01-5.31 3.04-6.99c2.03-1.68 4.86-2.52 8.49-2.52 1.53 0 2.97.19 4.33.57s2.78 1.04 4.28 1.97c1.5.94 3.2 2.25 5.12 3.95 1.91 1.7 4.18 3.85 6.79 6.45l-4.69 5.04c-2.33-2.35-4.31-4.27-5.93-5.78-1.63-1.51-3.01-2.67-4.16-3.5-1.15-.82-2.2-1.4-3.16-1.74-.96-.33-1.93-.5-2.92-.5-2.84 0-4.26 1.02-4.26 3.04s1.42 3.04 4.26 3.04c1.53 0 2.61-.31 3.23-.93.62-.62.93-1.62.93-3.02V9.58h7.56v30.16c0 3.23-.98 5.71-2.94 7.42s-4.78 2.57-8.44 2.57ZM17.94 23.08v-6.47h30.47v6.47H17.94ZM71.42 50.25c-3.86 0-7-.57-9.42-1.71-2.42-1.14-4.21-2.94-5.36-5.4-1.15-2.46-1.72-5.64-1.72-9.54V10.95h7.99v22.64c0 3.33.66 5.73 1.99 7.21 1.32 1.48 3.5 2.21 6.53 2.21 2.3 0 4.32-.44 6.08-1.31 1.75-.87 3.36-2.29 4.83-4.26 1.47-1.97 2.95-4.63 4.45-7.99l6.98 3.04c-1.34 3.27-2.74 6.04-4.19 8.32-1.45 2.28-3.05 4.11-4.81 5.47a17.704 17.704 0 0 1-5.88 3c-2.17.63-4.66.95-7.46.95Zm7.51-26.97a53.03 53.03 0 0 0-2.46-4.69c-.88-1.47-1.86-2.99-2.94-4.54l4.98-2.66c1.08 1.55 2.06 3.08 2.94 4.59.88 1.51 1.7 3.12 2.46 4.83l-4.98 2.47Zm7.8-2.62a58.102 58.102 0 0 0-5.16-9.32l4.88-2.52c1.12 1.59 2.09 3.15 2.92 4.69.83 1.54 1.61 3.16 2.34 4.88l-4.98 2.28ZM124.4 43.68c2.26-.35 4.2-1.01 5.81-1.97 1.61-.97 2.85-2.22 3.71-3.76.86-1.54 1.29-3.29 1.29-5.26 0-2.19-.54-4.07-1.63-5.66-1.08-1.59-2.64-2.81-4.66-3.66-2.03-.86-4.44-1.28-7.25-1.28-3.22 0-6.02.54-8.4 1.62-2.38 1.08-4.2 2.63-5.48 4.66-1.28 2.03-1.91 4.42-1.91 7.18 0 1.3.14 2.39.41 3.28.27.89.68 1.56 1.22 2.02.54.46 1.2.69 1.96.69 1.18 0 2.45-.55 3.8-1.67 1.35-1.11 2.73-2.68 4.11-4.71 1.39-2.03 2.77-4.42 4.14-7.18 1.37-2.76 2.65-5.79 3.83-9.09 1.18-3.3 2.22-6.77 3.11-10.42l7.13 1.48c-1.44 5.87-3.16 11.17-5.17 15.91s-4.19 8.79-6.55 12.15c-2.36 3.36-4.83 5.95-7.41 7.75-2.58 1.81-5.18 2.71-7.8 2.71-2.01 0-3.73-.5-5.17-1.5s-2.54-2.43-3.32-4.3C99.39 40.8 99 38.56 99 35.96c0-3.17.54-6.05 1.63-8.63 1.08-2.58 2.62-4.8 4.62-6.64 1.99-1.84 4.38-3.26 7.15-4.26s5.87-1.5 9.28-1.5c4.21 0 7.86.73 10.95 2.19 3.09 1.46 5.5 3.51 7.22 6.16 1.72 2.65 2.58 5.78 2.58 9.4 0 3.17-.66 6-1.99 8.49-1.32 2.49-3.19 4.54-5.6 6.14-2.41 1.6-5.25 2.62-8.54 3.07l-1.91-6.71Zm-10.38-2.33c-1.24-3.27-2.4-6.47-3.47-9.61-1.07-3.14-2.05-6.34-2.94-9.61-.89-3.27-1.79-6.71-2.68-10.32l7.37-1.62c.83 3.62 1.68 7.04 2.56 10.28.88 3.23 1.82 6.37 2.82 9.42s2.1 6.12 3.28 9.23l-6.94 2.24ZM173.38 49.72c-3.99 0-7.46-.66-10.43-1.97-2.97-1.32-5.26-3.18-6.89-5.59-1.63-2.41-2.44-5.26-2.44-8.56 0-2.22.39-4.32 1.17-6.3.78-1.98 1.89-3.75 3.33-5.3 1.43-1.55 3.16-2.76 5.17-3.61l.76 1.47-20.81.48v-6.9l40.85-.95v6.9l-6.12.14c-2.23.03-4.32.37-6.27 1-1.95.63-3.65 1.54-5.12 2.71-1.47 1.17-2.62 2.56-3.44 4.16-.83 1.6-1.24 3.42-1.24 5.45s.45 3.83 1.36 5.3c.91 1.47 2.23 2.59 3.97 3.35 1.74.76 3.83 1.14 6.29 1.14.86 0 1.86-.05 2.99-.14 1.13-.09 2.16-.24 3.09-.43l.81 7.09a43.904 43.904 0 0 1-7.03.57ZM210.47 42.87c1.59-.19 3.05-.63 4.38-1.33 1.32-.7 2.45-1.59 3.4-2.69a11.32 11.32 0 0 0 2.15-3.81c.49-1.44.74-2.99.74-4.64 0-2.44-.55-4.53-1.65-6.28-1.1-1.74-2.63-3.09-4.59-4.04-1.96-.95-4.2-1.43-6.72-1.43-2.17 0-4.2.37-6.1 1.12-1.9.75-3.57 1.77-5.02 3.07-1.45 1.3-2.58 2.81-3.4 4.52s-1.22 3.55-1.22 5.52c0 1.27.21 2.51.62 3.73.41 1.22.95 2.24 1.6 3.04.65.81 1.32 1.21 1.99 1.21 1.02 0 2-1.07 2.94-3.21.94-2.14 1.84-5.22 2.7-9.25.86-4.03 1.63-8.9 2.3-14.6l7.56.81c-.8 6.22-1.67 11.49-2.61 15.82s-2 7.83-3.18 10.49c-1.18 2.66-2.54 4.61-4.07 5.83-1.53 1.22-3.27 1.83-5.21 1.83-1.72 0-3.29-.4-4.71-1.19-1.42-.79-2.66-1.89-3.73-3.28-1.07-1.4-1.9-3.05-2.49-4.97-.59-1.92-.88-4-.88-6.26 0-3.08.57-5.91 1.72-8.49s2.73-4.81 4.76-6.68c2.02-1.87 4.44-3.33 7.25-4.38 2.81-1.05 5.88-1.57 9.23-1.57 3.95 0 7.47.73 10.55 2.19 3.08 1.46 5.5 3.58 7.27 6.37 1.77 2.79 2.65 6.15 2.65 10.08 0 2.57-.38 4.96-1.15 7.16-.77 2.2-1.85 4.15-3.25 5.85-1.4 1.7-3.09 3.08-5.05 4.14s-4.15 1.75-6.58 2.07l-2.2-6.76ZM231.12 42.68c1.44-2.51 2.76-5.19 3.97-8.04 1.21-2.85 2.22-5.63 3.01-8.32l7.08 2.05c-.76 2.73-1.79 5.63-3.09 8.71a77.403 77.403 0 0 1-4.33 8.75l-6.65-3.14Zm1.67-20.07v-6.9h36.4l6.36 1.9v4.99h-42.77Zm17.32 27.92c-.57 0-1.31-.02-2.2-.07-.89-.05-1.83-.11-2.8-.19-.97-.08-1.95-.17-2.94-.26l.43-6.8c.8.06 1.55.13 2.27.21.72.08 1.38.13 1.99.14.61.02 1.1.02 1.48.02.86 0 1.48-.04 1.84-.12.37-.08.6-.32.69-.74.1-.41.14-1.08.14-2V9.1h7.94v32.58c0 1.84-.12 3.34-.36 4.5-.24 1.16-.68 2.05-1.32 2.66-.64.62-1.53 1.05-2.68 1.31-1.15.25-2.65.38-4.5.38Zm20.28-4.61a110.918 110.918 0 0 0-4.52-12.08c-.88-1.97-1.78-3.77-2.7-5.42l6.89-2.52c1.5 2.73 2.9 5.61 4.21 8.66s2.38 6.03 3.21 8.94l-7.08 2.43Zm.91-25.07c-1.28 0-2.45-.32-3.52-.95a7.132 7.132 0 0 1-2.54-2.52c-.62-1.05-.93-2.2-.93-3.47s.31-2.48.93-3.54a6.9 6.9 0 0 1 2.54-2.52c1.07-.62 2.24-.93 3.52-.93 1.34 0 2.53.31 3.56.93 1.04.62 1.87 1.45 2.51 2.5.64 1.05.96 2.22.96 3.52s-.32 2.47-.96 3.52a7.47 7.47 0 0 1-2.51 2.52c-1.04.63-2.22.95-3.56.95Zm0-4.66c.67 0 1.22-.23 1.65-.69.43-.46.65-1.01.65-1.64s-.21-1.17-.65-1.62c-.43-.44-.98-.67-1.65-.67s-1.18.22-1.63.67c-.45.44-.67.98-.67 1.62s.22 1.18.67 1.64c.45.46.99.69 1.63.69ZM279.19 27.75c3.19-.48 6.52-1.29 10-2.45a82.11 82.11 0 0 0 10.33-4.26c3.41-1.68 6.6-3.53 9.57-5.54 2.97-2.01 5.53-4.1 7.7-6.26l4.83 5.52c-1.88 1.9-4.06 3.73-6.53 5.49a83.596 83.596 0 0 1-8.01 5.02 96.014 96.014 0 0 1-8.83 4.31 82.905 82.905 0 0 1-9.07 3.26c-3.03.89-5.96 1.57-8.8 2.05l-1.2-7.14Zm19.04 23.45V23.94h8.32V51.2h-8.32ZM331.55 31.65a94.657 94.657 0 0 0-4.21-3.66 92.36 92.36 0 0 0-4.74-3.66l4.16-4.99c1.66 1.17 3.24 2.35 4.76 3.54 1.51 1.19 2.91 2.4 4.19 3.64l-4.16 5.14Zm-1.87 20.41-5.98-3.76c1.28-2.12 2.49-4.5 3.66-7.14 1.16-2.63 2.19-5.28 3.09-7.94l6.22 2.28c-.48 1.9-1.09 3.85-1.84 5.85-.75 2-1.57 3.92-2.46 5.76-.89 1.84-1.79 3.49-2.68 4.95Zm2.97-31.78a104.17 104.17 0 0 0-3.8-3.21c-1.36-1.09-2.77-2.16-4.23-3.21l4.11-4.99c1.53 1.05 2.97 2.09 4.31 3.14s2.6 2.09 3.78 3.14l-4.16 5.14Zm5.74 31.63V32.07h9.9v-4.28h-11.62v-6.18h11.62v-6.42h7.8v6.42H368v6.18h-11.91v4.28h9.81v19.84h-7.37v-2.09h-12.87V44.3h12.87v-6.66h-12.87v14.27h-7.27Zm.24-33.58-.33-6.23c3.51 0 6.94-.14 10.31-.43 3.36-.29 6.47-.7 9.3-1.24 2.84-.54 5.21-1.11 7.13-1.71l1.87 6.23c-2.04.67-4.51 1.25-7.41 1.76-2.9.51-6.12.9-9.64 1.19-3.52.29-7.26.43-11.22.43Z"/><path class="cls-13" d="M437.81 51.26c-3.16 0-6.11-.51-8.78-1.51-2.67-1-5.01-2.46-6.96-4.32-1.94-1.86-3.48-4.07-4.57-6.57s-1.64-5.29-1.64-8.29.55-5.78 1.64-8.29c1.09-2.51 2.65-4.72 4.63-6.58 1.98-1.86 4.34-3.31 7.01-4.31 2.67-1 5.64-1.51 8.84-1.51 3.54 0 6.77.6 9.61 1.77 2.84 1.18 5.27 2.91 7.22 5.15.07.08.06.2-.02.27l-5.86 5.43s-.09.05-.14.05c-.05 0-.11-.02-.14-.06-1.45-1.52-3.04-2.66-4.72-3.38-1.68-.72-3.54-1.09-5.56-1.09-1.86 0-3.6.31-5.16.92-1.56.61-2.93 1.48-4.06 2.59a11.59 11.59 0 0 0-2.63 3.95c-.61 1.52-.92 3.22-.92 5.08s.31 3.46.93 4.99c.61 1.53 1.5 2.87 2.63 3.98 1.13 1.11 2.49 1.99 4.03 2.62 1.54.63 3.27.95 5.13.95s3.56-.3 5.26-.89c.57-.2 1.15-.45 1.72-.74V29.94c0-.11.09-.2.2-.2h8.43c.11 0 .2.09.2.2v16.08c0 .06-.03.12-.08.16-2.21 1.67-4.78 2.94-7.63 3.8-2.85.85-5.74 1.28-8.6 1.28Z"/><path class="cls-13" d="M437.81 51.26c-3.16 0-6.11-.51-8.78-1.51-2.67-1-5.01-2.46-6.96-4.32-1.94-1.86-3.48-4.07-4.57-6.57s-1.64-5.29-1.64-8.29.55-5.78 1.64-8.29c1.09-2.51 2.65-4.72 4.63-6.58 1.98-1.86 4.34-3.31 7.01-4.31 2.67-1 5.64-1.51 8.84-1.51 3.54 0 6.77.6 9.61 1.77 2.84 1.18 5.27 2.91 7.22 5.15.07.08.06.2-.02.27l-5.86 5.43s-.09.05-.14.05c-.05 0-.11-.02-.14-.06-1.45-1.52-3.04-2.66-4.72-3.38-1.68-.72-3.54-1.09-5.56-1.09-1.86 0-3.6.31-5.16.92-1.56.61-2.93 1.48-4.06 2.59a11.59 11.59 0 0 0-2.63 3.95c-.61 1.52-.92 3.22-.92 5.08s.31 3.46.93 4.99c.61 1.53 1.5 2.87 2.63 3.98 1.13 1.11 2.49 1.99 4.03 2.62 1.54.63 3.27.95 5.13.95s3.56-.3 5.26-.89c.57-.2 1.15-.45 1.72-.74V29.94c0-.11.09-.2.2-.2h8.43c.11 0 .2.09.2.2v16.08c0 .06-.03.12-.08.16-2.21 1.67-4.78 2.94-7.63 3.8-2.85.85-5.74 1.28-8.6 1.28Z"/><path d="M496.39 50.58a.2.2 0 0 1-.2-.2l-.1-22.93-11.37 18.78c-.04.06-.1.1-.17.1h-4.1c-.07 0-.13-.04-.17-.1l-11.36-18.52v22.67a.2.2 0 0 1-.2.2h-8.6a.2.2 0 0 1-.2-.2V10.76c0-.11.09-.2.2-.2h7.63c.07 0 .13.04.17.1l14.75 24.32 14.45-24.31c.04-.06.1-.1.17-.1h7.68c.11 0 .2.09.2.2V50.4a.2.2 0 0 1-.2.2h-8.6Z" style="fill:url(#_名称未設定グラデーション_55-2)"/><path d="M496.39 50.58a.2.2 0 0 1-.2-.2l-.1-22.93-11.37 18.78c-.04.06-.1.1-.17.1h-4.1c-.07 0-.13-.04-.17-.1l-11.36-18.52v22.67a.2.2 0 0 1-.2.2h-8.6a.2.2 0 0 1-.2-.2V10.76c0-.11.09-.2.2-.2h7.63c.07 0 .13.04.17.1l14.75 24.32 14.45-24.31c.04-.06.1-.1.17-.1h7.68c.11 0 .2.09.2.2V50.4a.2.2 0 0 1-.2.2h-8.6Z" style="fill:url(#_名称未設定グラデーション_55-3)"/><path d="M532.59 51.26c-3.16 0-6.11-.52-8.78-1.54-2.67-1.02-5.03-2.49-7.01-4.34a19.789 19.789 0 0 1-4.63-6.58c-1.09-2.5-1.64-5.27-1.64-8.23s.55-5.77 1.64-8.26c1.09-2.49 2.65-4.69 4.63-6.55 1.98-1.86 4.33-3.32 6.98-4.34 2.65-1.02 5.59-1.54 8.75-1.54s6.1.51 8.75 1.51c2.65 1 5 2.46 6.98 4.31 1.98 1.86 3.54 4.07 4.63 6.58 1.09 2.5 1.64 5.29 1.64 8.29s-.55 5.74-1.64 8.26c-1.09 2.52-2.64 4.75-4.63 6.6-1.98 1.86-4.33 3.31-6.98 4.32-2.65 1-5.58 1.51-8.7 1.51Zm-.06-33.23c-1.75 0-3.39.31-4.88.92-1.49.61-2.79 1.49-3.89 2.61-1.1 1.13-1.96 2.46-2.58 3.96-.61 1.5-.92 3.2-.92 5.05s.31 3.55.92 5.05c.61 1.5 1.48 2.83 2.58 3.96 1.09 1.13 2.4 2.01 3.89 2.61 1.49.61 3.13.92 4.88.92s3.38-.31 4.85-.92c1.47-.61 2.78-1.49 3.89-2.62 1.12-1.13 1.99-2.46 2.6-3.96.61-1.5.92-3.2.92-5.05s-.31-3.55-.92-5.05c-.61-1.5-1.49-2.83-2.6-3.96a11.713 11.713 0 0 0-3.89-2.62c-1.47-.61-3.1-.92-4.85-.92Z" style="fill:url(#_名称未設定グラデーション_55-4)"/><path d="M532.59 51.26c-3.16 0-6.11-.52-8.78-1.54-2.67-1.02-5.03-2.49-7.01-4.34a19.789 19.789 0 0 1-4.63-6.58c-1.09-2.5-1.64-5.27-1.64-8.23s.55-5.77 1.64-8.26c1.09-2.49 2.65-4.69 4.63-6.55 1.98-1.86 4.33-3.32 6.98-4.34 2.65-1.02 5.59-1.54 8.75-1.54s6.1.51 8.75 1.51c2.65 1 5 2.46 6.98 4.31 1.98 1.86 3.54 4.07 4.63 6.58 1.09 2.5 1.64 5.29 1.64 8.29s-.55 5.74-1.64 8.26c-1.09 2.52-2.64 4.75-4.63 6.6-1.98 1.86-4.33 3.31-6.98 4.32-2.65 1-5.58 1.51-8.7 1.51Zm-.06-33.23c-1.75 0-3.39.31-4.88.92-1.49.61-2.79 1.49-3.89 2.61-1.1 1.13-1.96 2.46-2.58 3.96-.61 1.5-.92 3.2-.92 5.05s.31 3.55.92 5.05c.61 1.5 1.48 2.83 2.58 3.96 1.09 1.13 2.4 2.01 3.89 2.61 1.49.61 3.13.92 4.88.92s3.38-.31 4.85-.92c1.47-.61 2.78-1.49 3.89-2.62 1.12-1.13 1.99-2.46 2.6-3.96.61-1.5.92-3.2.92-5.05s-.31-3.55-.92-5.05c-.61-1.5-1.49-2.83-2.6-3.96a11.713 11.713 0 0 0-3.89-2.62c-1.47-.61-3.1-.92-4.85-.92Z" style="fill:url(#_名称未設定グラデーション_55-5)"/><path d="M575.93 49.96c-.58 0-1.31-.02-2.21-.07-.89-.05-1.83-.11-2.8-.19-.97-.08-1.96-.17-2.95-.26a.193.193 0 0 1-.18-.21l.43-6.8c0-.05.03-.1.07-.14a.21.21 0 0 1 .13-.05h.02c.8.06 1.56.14 2.28.21.71.08 1.37.13 1.97.14.6.02 1.1.02 1.48.02.84 0 1.45-.04 1.8-.11.29-.06.46-.25.54-.59.09-.4.14-1.05.14-1.95V22.03h-18.03a.2.2 0 0 1-.2-.2v-6.9c0-.11.09-.2.2-.2h18.03V8.32c0-.11.09-.2.2-.2h7.94c.11 0 .2.09.2.2v6.41h5.13c-.12-.52-.18-1.06-.18-1.61 0-1.33.32-2.55.96-3.64a7.05 7.05 0 0 1 2.61-2.59c1.09-.63 2.31-.95 3.62-.95 1.37 0 2.6.32 3.67.96 1.06.63 1.93 1.5 2.58 2.56.65 1.07.99 2.29.99 3.62s-.33 2.55-.99 3.62c-.48.79-1.08 1.48-1.79 2.04v3.09a.2.2 0 0 1-.2.2h-16.4v18.88c0 1.84-.12 3.37-.36 4.54-.25 1.19-.71 2.12-1.37 2.77-.66.64-1.6 1.1-2.77 1.36-1.16.26-2.68.38-4.54.38ZM597.12 11c-.59 0-1.07.2-1.49.61-.41.41-.61.89-.61 1.48s.2 1.08.61 1.5c.41.42.9.63 1.48.63.62 0 1.11-.21 1.5-.63.4-.43.59-.92.59-1.51s-.19-1.07-.59-1.48c-.4-.41-.89-.6-1.51-.6Zm-.91 34.34s-.06 0-.09-.02c-.05-.02-.08-.07-.1-.12-.6-1.95-1.29-3.98-2.05-6.03-.76-2.04-1.59-4.07-2.46-6.03-.87-1.95-1.78-3.77-2.69-5.41a.2.2 0 0 1-.01-.17c.02-.05.06-.1.12-.12l6.89-2.52s.05-.01.07-.01c.07 0 .14.04.18.1a104.2 104.2 0 0 1 4.22 8.67c1.3 3.03 2.38 6.05 3.21 8.97.03.1-.03.21-.13.24l-7.08 2.43s-.04.01-.07.01Zm-32.62-.09s-.06 0-.09-.02l-6.65-3.14c-.05-.02-.09-.07-.1-.12s-.01-.11.02-.16c1.42-2.48 2.75-5.18 3.96-8.02 1.2-2.84 2.22-5.63 3.01-8.3a.2.2 0 0 1 .19-.14h.06l7.08 2.05c.11.03.17.14.14.24-.76 2.72-1.8 5.66-3.09 8.73a78.762 78.762 0 0 1-4.34 8.78c-.04.06-.1.1-.17.1Z" style="fill:url(#_名称未設定グラデーション_55-6)"/><path d="M575.93 49.96c-.58 0-1.31-.02-2.21-.07-.89-.05-1.83-.11-2.8-.19-.97-.08-1.96-.17-2.95-.26a.193.193 0 0 1-.18-.21l.43-6.8c0-.05.03-.1.07-.14a.21.21 0 0 1 .13-.05h.02c.8.06 1.56.14 2.28.21.71.08 1.37.13 1.97.14.6.02 1.1.02 1.48.02.84 0 1.45-.04 1.8-.11.29-.06.46-.25.54-.59.09-.4.14-1.05.14-1.95V22.03h-18.03a.2.2 0 0 1-.2-.2v-6.9c0-.11.09-.2.2-.2h18.03V8.32c0-.11.09-.2.2-.2h7.94c.11 0 .2.09.2.2v6.41h5.13c-.12-.52-.18-1.06-.18-1.61 0-1.33.32-2.55.96-3.64a7.05 7.05 0 0 1 2.61-2.59c1.09-.63 2.31-.95 3.62-.95 1.37 0 2.6.32 3.67.96 1.06.63 1.93 1.5 2.58 2.56.65 1.07.99 2.29.99 3.62s-.33 2.55-.99 3.62c-.48.79-1.08 1.48-1.79 2.04v3.09a.2.2 0 0 1-.2.2h-16.4v18.88c0 1.84-.12 3.37-.36 4.54-.25 1.19-.71 2.12-1.37 2.77-.66.64-1.6 1.1-2.77 1.36-1.16.26-2.68.38-4.54.38ZM597.12 11c-.59 0-1.07.2-1.49.61-.41.41-.61.89-.61 1.48s.2 1.08.61 1.5c.41.42.9.63 1.48.63.62 0 1.11-.21 1.5-.63.4-.43.59-.92.59-1.51s-.19-1.07-.59-1.48c-.4-.41-.89-.6-1.51-.6Zm-.91 34.34s-.06 0-.09-.02c-.05-.02-.08-.07-.1-.12-.6-1.95-1.29-3.98-2.05-6.03-.76-2.04-1.59-4.07-2.46-6.03-.87-1.95-1.78-3.77-2.69-5.41a.2.2 0 0 1-.01-.17c.02-.05.06-.1.12-.12l6.89-2.52s.05-.01.07-.01c.07 0 .14.04.18.1a104.2 104.2 0 0 1 4.22 8.67c1.3 3.03 2.38 6.05 3.21 8.97.03.1-.03.21-.13.24l-7.08 2.43s-.04.01-.07.01Zm-32.62-.09s-.06 0-.09-.02l-6.65-3.14c-.05-.02-.09-.07-.1-.12s-.01-.11.02-.16c1.42-2.48 2.75-5.18 3.96-8.02 1.2-2.84 2.22-5.63 3.01-8.3a.2.2 0 0 1 .19-.14h.06l7.08 2.05c.11.03.17.14.14.24-.76 2.72-1.8 5.66-3.09 8.73a78.762 78.762 0 0 1-4.34 8.78c-.04.06-.1.1-.17.1Z" style="fill:url(#_名称未設定グラデーション_55-7)"/><path d="M624.05 50.63a.2.2 0 0 1-.2-.2V29.12a82.61 82.61 0 0 1-8.79 3.14c-3.02.89-5.99 1.58-8.82 2.05h-.03c-.04 0-.08-.01-.12-.04a.222.222 0 0 1-.08-.13l-1.2-7.14c0-.05 0-.11.04-.15.03-.04.08-.07.13-.08 3.17-.47 6.52-1.29 9.96-2.44 3.45-1.15 6.92-2.58 10.31-4.25 3.39-1.67 6.6-3.53 9.54-5.53 2.94-2 5.52-4.09 7.67-6.23.04-.04.09-.06.14-.06.06 0 .11.03.14.07l4.83 5.52c.07.08.06.2 0 .27-1.88 1.9-4.09 3.76-6.56 5.52a83.268 83.268 0 0 1-8.03 5.03l-.42.23v25.52a.2.2 0 0 1-.2.2h-8.32Z" style="fill:url(#_名称未設定グラデーション_55-8)"/><path d="M624.05 50.63a.2.2 0 0 1-.2-.2V29.12a82.61 82.61 0 0 1-8.79 3.14c-3.02.89-5.99 1.58-8.82 2.05h-.03c-.04 0-.08-.01-.12-.04a.222.222 0 0 1-.08-.13l-1.2-7.14c0-.05 0-.11.04-.15.03-.04.08-.07.13-.08 3.17-.47 6.52-1.29 9.96-2.44 3.45-1.15 6.92-2.58 10.31-4.25 3.39-1.67 6.6-3.53 9.54-5.53 2.94-2 5.52-4.09 7.67-6.23.04-.04.09-.06.14-.06.06 0 .11.03.14.07l4.83 5.52c.07.08.06.2 0 .27-1.88 1.9-4.09 3.76-6.56 5.52a83.268 83.268 0 0 1-8.03 5.03l-.42.23v25.52a.2.2 0 0 1-.2.2h-8.32Z" style="fill:url(#_名称未設定グラデーション_55-9)"/><path d="M655.5 51.49s-.07-.01-.11-.03l-5.98-3.76a.195.195 0 0 1-.06-.27c1.26-2.11 2.49-4.5 3.65-7.11 1.16-2.61 2.19-5.28 3.08-7.93.02-.05.05-.09.1-.12.03-.01.06-.02.09-.02.02 0 .05 0 .07.01l6.22 2.28c.1.03.15.14.12.23-.48 1.89-1.1 3.87-1.85 5.87-.75 1.99-1.58 3.94-2.47 5.77-.89 1.83-1.8 3.5-2.69 4.96-.03.05-.07.08-.12.09h-.05Zm28.85-.14a.2.2 0 0 1-.2-.2v-1.89h-12.47v1.89a.2.2 0 0 1-.2.2h-7.27a.2.2 0 0 1-.2-.2V31.31c0-.11.09-.2.2-.2h9.7v-3.88h-11.42a.2.2 0 0 1-.2-.2v-6.18c0-.11.09-.2.2-.2h11.42v-3.18c-2.99.2-6.18.3-9.46.3-.11 0-.19-.08-.2-.19l-.33-6.23c0-.05.02-.11.05-.15.04-.04.09-.06.14-.06 3.49 0 6.95-.14 10.29-.43 3.35-.28 6.47-.7 9.28-1.23 2.82-.53 5.21-1.11 7.1-1.71h.06c.03 0 .06 0 .09.02.05.02.08.07.1.12l1.87 6.23c.03.1-.03.21-.13.24-2.04.67-4.55 1.26-7.44 1.77a85 85 0 0 1-3.23.5v4h11.71c.11 0 .2.09.2.2v6.18a.2.2 0 0 1-.2.2H682.1v3.88h9.61c.11 0 .2.09.2.2v19.84a.2.2 0 0 1-.2.2h-7.37Zm-.2-8.01v-6.26h-12.47v6.26h12.47Zm-26.78-12.26c-.05 0-.1-.02-.14-.05-1.3-1.2-2.72-2.43-4.2-3.66a100.98 100.98 0 0 0-4.73-3.66.219.219 0 0 1-.08-.14c0-.05 0-.11.04-.15l4.16-4.99s.1-.07.15-.07c.04 0 .08.01.12.04 1.66 1.18 3.26 2.37 4.77 3.55 1.52 1.19 2.93 2.42 4.2 3.65.07.07.08.19.02.27l-4.16 5.14s-.09.07-.14.07h-.01Zm1.1-11.37s-.1-.02-.13-.05a96.347 96.347 0 0 0-3.8-3.2 89.583 89.583 0 0 0-4.22-3.2.222.222 0 0 1-.08-.13c0-.05 0-.11.04-.15l4.11-4.99s.1-.07.15-.07c.04 0 .08.01.11.03 1.53 1.04 2.98 2.1 4.32 3.15s2.61 2.1 3.79 3.15c.08.07.09.19.02.27l-4.16 5.14s-.08.07-.14.07h-.02Z" style="fill:url(#_名称未設定グラデーション_55-10)"/><path d="M655.5 51.49s-.07-.01-.11-.03l-5.98-3.76a.195.195 0 0 1-.06-.27c1.26-2.11 2.49-4.5 3.65-7.11 1.16-2.61 2.19-5.28 3.08-7.93.02-.05.05-.09.1-.12.03-.01.06-.02.09-.02.02 0 .05 0 .07.01l6.22 2.28c.1.03.15.14.12.23-.48 1.89-1.1 3.87-1.85 5.87-.75 1.99-1.58 3.94-2.47 5.77-.89 1.83-1.8 3.5-2.69 4.96-.03.05-.07.08-.12.09h-.05Zm28.85-.14a.2.2 0 0 1-.2-.2v-1.89h-12.47v1.89a.2.2 0 0 1-.2.2h-7.27a.2.2 0 0 1-.2-.2V31.31c0-.11.09-.2.2-.2h9.7v-3.88h-11.42a.2.2 0 0 1-.2-.2v-6.18c0-.11.09-.2.2-.2h11.42v-3.18c-2.99.2-6.18.3-9.46.3-.11 0-.19-.08-.2-.19l-.33-6.23c0-.05.02-.11.05-.15.04-.04.09-.06.14-.06 3.49 0 6.95-.14 10.29-.43 3.35-.28 6.47-.7 9.28-1.23 2.82-.53 5.21-1.11 7.1-1.71h.06c.03 0 .06 0 .09.02.05.02.08.07.1.12l1.87 6.23c.03.1-.03.21-.13.24-2.04.67-4.55 1.26-7.44 1.77a85 85 0 0 1-3.23.5v4h11.71c.11 0 .2.09.2.2v6.18a.2.2 0 0 1-.2.2H682.1v3.88h9.61c.11 0 .2.09.2.2v19.84a.2.2 0 0 1-.2.2h-7.37Zm-.2-8.01v-6.26h-12.47v6.26h12.47Zm-26.78-12.26c-.05 0-.1-.02-.14-.05-1.3-1.2-2.72-2.43-4.2-3.66a100.98 100.98 0 0 0-4.73-3.66.219.219 0 0 1-.08-.14c0-.05 0-.11.04-.15l4.16-4.99s.1-.07.15-.07c.04 0 .08.01.12.04 1.66 1.18 3.26 2.37 4.77 3.55 1.52 1.19 2.93 2.42 4.2 3.65.07.07.08.19.02.27l-4.16 5.14s-.09.07-.14.07h-.01Zm1.1-11.37s-.1-.02-.13-.05a96.347 96.347 0 0 0-3.8-3.2 89.583 89.583 0 0 0-4.22-3.2.222.222 0 0 1-.08-.13c0-.05 0-.11.04-.15l4.11-4.99s.1-.07.15-.07c.04 0 .08.01.11.03 1.53 1.04 2.98 2.1 4.32 3.15s2.61 2.1 3.79 3.15c.08.07.09.19.02.27l-4.16 5.14s-.08.07-.14.07h-.02Z" style="fill:url(#_名称未設定グラデーション_55-11)"/><path class="cls-2" d="M376.1 50.07c-.69-2.91-1.21-5.82-1.55-8.73-.34-2.91-.52-5.96-.52-9.16s.17-6.24.52-9.14c.34-2.9.85-5.8 1.51-8.71l6.93.77c-.66 2.71-1.16 5.49-1.49 8.33-.33 2.84-.5 5.76-.5 8.76s.16 5.92.5 8.75c.33 2.84.82 5.62 1.49 8.33l-6.89.81Zm18.47-.56c-3.24 0-5.78-.76-7.62-2.27-1.84-1.51-2.76-3.61-2.76-6.29s.91-4.78 2.73-6.29c1.82-1.51 4.37-2.27 7.64-2.27 1.38 0 2.68.17 3.9.51 1.22.34 2.5.93 3.85 1.78 1.35.84 2.88 2.03 4.61 3.55 1.72 1.53 3.76 3.46 6.11 5.8l-4.22 4.54c-2.1-2.11-3.87-3.85-5.34-5.2-1.46-1.36-2.71-2.4-3.75-3.15-1.03-.74-1.98-1.26-2.84-1.56-.86-.3-1.74-.45-2.63-.45-2.55 0-3.83.91-3.83 2.74s1.28 2.74 3.83 2.74c1.38 0 2.35-.28 2.91-.83s.84-1.46.84-2.72V13.38h6.8v27.14c0 2.91-.88 5.14-2.65 6.68s-4.3 2.31-7.6 2.31Zm-9.77-23.98v-5.82h27.42v5.82H384.8Z"/></g></svg>