<svg id="_レイヤー_2" data-name="レイヤー 2" xmlns="http://www.w3.org/2000/svg" width="134" height="107.79"><defs><style>.cls-1{fill:#fff}.cls-2{fill:#f39800}.cls-3{fill:#ff5a00}.cls-4{fill:#74210f}</style></defs><g id="_レイヤー_1-2" data-name="レイヤー 1"><path class="cls-2" d="M81.64 107.66c-1.23.15-2.45.12-3.58-.18-1.14-.32-2.18-.82-3.06-1.55-1.76-1.48-2.66-3.49-2.71-5.66a8.11 8.11 0 0 1 1.55-.19c2.14-.05 4.2.59 6 1.89.89.67 1.66 1.43 2.27 2.3.61.88 1.05 1.86 1.28 2.93-.56.2-1.14.36-1.74.46Z"/><path class="cls-2" d="M73.84 100.12c-.51.01-1.01.07-1.51.18.06 2.14.96 4.13 2.7 5.59.88.72 1.92 1.22 3.05 1.54 1.13.3 2.34.33 3.56.18.57-.1 1.14-.25 1.69-.44a8.156 8.156 0 0 0-1.27-2.89c-.6-.86-1.36-1.62-2.24-2.28-1.79-1.3-3.84-1.93-5.97-1.88m0-.09c2.22-.05 4.29.64 6.02 1.9.87.65 1.64 1.4 2.25 2.28.62.88 1.09 1.9 1.32 3.01-.57.21-1.16.37-1.79.48-1.28.16-2.53.12-3.67-.2-1.14-.33-2.17-.83-3.02-1.54-1.71-1.43-2.68-3.46-2.72-5.72.52-.12 1.05-.19 1.59-.2ZM73.81 99.27c-.51.01-1.03-.02-1.53-.11.06-2.17.88-4.23 2.14-5.78.64-.79 1.35-1.46 2.12-1.92.77-.47 1.6-.82 2.48-.92.42-.08.86-.1 1.29-.08.17 1.07.17 2.14-.03 3.16s-.6 2-1.21 2.83a6.608 6.608 0 0 1-5.27 2.81Z"/><path class="cls-2" d="M79.04 90.59c-.88.1-1.7.44-2.47.91-.77.45-1.48 1.12-2.11 1.91a9.622 9.622 0 0 0-2.12 5.71c.49.08.99.12 1.48.11a6.6 6.6 0 0 0 5.24-2.8c.6-.82 1-1.79 1.2-2.8.2-1.01.21-2.07.04-3.13-.42-.02-.85 0-1.26.08m-.01-.09c.45-.08.89-.11 1.33-.08.19 1.12.18 2.22-.03 3.25-.21 1.04-.61 2.01-1.2 2.81a6.698 6.698 0 0 1-5.3 2.83 8.12 8.12 0 0 1-1.57-.12c.05-2.27.93-4.34 2.15-5.85.61-.76 1.32-1.44 2.09-1.9.78-.47 1.61-.84 2.53-.95ZM92.59 104.93c-.59.2-1.18.34-1.78.43-.59.09-1.2.08-1.78.05a8.73 8.73 0 0 1-1.71-.29c-.56-.17-1.09-.4-1.59-.68-1.99-1.08-3.25-2.96-3.69-5.08.48-.19.99-.32 1.49-.45 1.04-.25 2.11-.25 3.15-.15 1.05.12 2.1.45 3.09.91.99.47 1.89 1.1 2.65 1.86.76.75 1.37 1.63 1.79 2.63-.51.32-1.06.57-1.63.75Z"/><path class="cls-2" d="M83.54 98.96c-.49.12-.98.25-1.45.43.45 2.1 1.7 3.94 3.67 5.01.5.28 1.03.5 1.58.67.55.15 1.12.25 1.7.29.58.04 1.18.04 1.77-.05.59-.09 1.18-.23 1.77-.43a7.08 7.08 0 0 0 1.58-.73 8.08 8.08 0 0 0-1.78-2.6 9.51 9.51 0 0 0-2.63-1.84c-1.99-.94-4.13-1.21-6.21-.76m-.02-.08c1.08-.26 2.18-.25 3.22-.14 1.05.13 2.09.46 3.05.9.96.45 1.87 1.08 2.64 1.85.77.75 1.41 1.66 1.85 2.7-.51.32-1.07.59-1.67.78-.61.21-1.23.35-1.83.44-.61.08-1.22.08-1.81.03a8.51 8.51 0 0 1-1.7-.3c-.55-.17-1.07-.4-1.55-.66-1.94-1.05-3.27-2.93-3.72-5.14.49-.2 1.01-.33 1.53-.46ZM83.36 98.13c-.5.13-1.02.15-1.53.14-.34-2.15.11-4.26 1.05-6.07.24-.45.51-.86.8-1.23.29-.39.6-.74.93-1.04.33-.31.7-.55 1.07-.79.37-.24.77-.43 1.19-.57.41-.13.84-.23 1.26-.3.37 1.02.56 2.08.55 3.12a7.242 7.242 0 0 1-.67 2.99c-.44.98-1.09 1.77-1.89 2.41-.79.67-1.75 1.07-2.78 1.32Z"/><path class="cls-2" d="M86.9 88.62c-.42.14-.82.33-1.19.57-.37.23-.74.48-1.07.79-.33.3-.64.65-.93 1.04-.29.37-.56.77-.8 1.22-.93 1.78-1.37 3.87-1.05 6 .5 0 1-.02 1.48-.14 2.05-.45 3.77-1.8 4.64-3.71.43-.94.65-1.94.67-2.96a9.17 9.17 0 0 0-.53-3.09c-.41.07-.83.16-1.23.29m-.03-.08c.43-.14.86-.24 1.3-.3.39 1.07.58 2.15.57 3.21a7.456 7.456 0 0 1-.67 2.97c-.42.94-1.06 1.74-1.86 2.39-.79.68-1.77 1.11-2.84 1.36-.52.13-1.05.15-1.57.14-.36-2.24.14-4.38 1.05-6.13.23-.43.49-.84.78-1.2.28-.38.59-.74.93-1.04.33-.31.7-.57 1.08-.81.38-.25.79-.44 1.23-.59ZM102.85 100.25c-2.14 1.25-4.66 1.5-6.83.78-2.16-.71-3.74-2.32-4.56-4.32.44-.28.9-.52 1.39-.71.98-.42 2.02-.66 3.07-.72 1.04-.09 2.13.04 3.2.33 2.1.55 4.01 1.8 5.19 3.61-.45.39-.95.73-1.47 1.03Z"/><path class="cls-2" d="M92.87 96.04c-.47.19-.92.42-1.35.69.82 1.97 2.39 3.56 4.52 4.26 2.15.72 4.66.47 6.79-.77.5-.29.99-.62 1.43-.99-1.18-1.79-3.06-3.02-5.14-3.56-1.06-.29-2.15-.41-3.19-.33-1.05.05-2.08.29-3.06.71m-.03-.08c1.02-.44 2.08-.67 3.14-.72 1.05-.08 2.13.06 3.16.33 2.04.53 4.01 1.77 5.24 3.66-.45.4-.96.75-1.51 1.06-2.23 1.3-4.78 1.48-6.87.78-2.1-.69-3.75-2.29-4.6-4.38.44-.29.92-.53 1.43-.73ZM92.54 95.26c-.48.19-.97.33-1.48.42-.73-2.06-.67-4.22-.08-6.15.61-1.95 1.74-3.41 3.27-4.3.37-.22.78-.38 1.19-.52 1.1 1.88 1.5 3.98 1 6.04-.26 1.02-.76 1.92-1.41 2.72-.67.76-1.52 1.38-2.49 1.8Z"/><path class="cls-2" d="M94.28 85.26c-1.53.89-2.64 2.35-3.26 4.28-.59 1.92-.65 4.05.07 6.09a7.8 7.8 0 0 0 1.43-.41A6.96 6.96 0 0 0 95 93.43c.65-.79 1.15-1.69 1.41-2.7.5-2.03.11-4.11-.97-5.97-.41.13-.8.29-1.16.5m-.04-.08c.39-.23.81-.39 1.23-.53 1.16 1.96 1.52 4.1 1.02 6.1-.25.99-.73 1.88-1.39 2.69-.67.78-1.54 1.42-2.54 1.86-.5.2-1.01.34-1.52.43-.76-2.15-.66-4.34-.08-6.22.59-1.88 1.69-3.4 3.28-4.32ZM112.08 93.8c-.93.81-2.04 1.36-3.14 1.73-1.13.33-2.3.42-3.42.28-2.27-.34-4.09-1.59-5.27-3.42a8.2 8.2 0 0 1 1.23-.97c.92-.56 1.85-1.03 2.9-1.26 1.03-.25 2.09-.36 3.21-.26 2.18.17 4.25 1.03 5.75 2.61-.38.46-.8.89-1.25 1.28Z"/><path class="cls-2" d="M101.5 91.46c-.43.27-.83.59-1.19.94 1.17 1.79 2.98 3.03 5.22 3.36 1.12.14 2.28.05 3.4-.28 1.1-.36 2.2-.91 3.12-1.72.44-.38.85-.8 1.22-1.24-1.49-1.55-3.54-2.4-5.7-2.57-1.11-.1-2.17 0-3.19.26-1.04.23-1.97.7-2.88 1.25m-.05-.07c.47-.29.96-.55 1.44-.77.49-.22 1-.38 1.52-.5 1.03-.25 2.09-.35 3.17-.25 2.11.16 4.25.99 5.81 2.64-.38.47-.81.91-1.28 1.32-.97.85-2.11 1.4-3.22 1.76-1.15.32-2.3.4-3.38.26-2.21-.33-4.1-1.56-5.32-3.47.38-.37.8-.7 1.26-1ZM101.03 90.75c-.43.28-.89.51-1.36.7a9.716 9.716 0 0 1-1.19-6.04c.11-1.03.39-1.94.81-2.74.39-.84.96-1.5 1.63-2.09.33-.28.69-.53 1.08-.73 1.41 1.64 2.21 3.66 2.07 5.76-.09 1.03-.38 2.05-.9 2.93-.54.86-1.23 1.67-2.13 2.22Z"/><path class="cls-2" d="M100.94 80.6c-.66.59-1.23 1.25-1.62 2.08-.41.8-.69 1.71-.8 2.73-.26 1.96.11 4.11 1.17 5.97.46-.18.91-.41 1.32-.68.9-.55 1.58-1.36 2.12-2.21.52-.87.81-1.89.89-2.91.14-2.08-.65-4.08-2.04-5.7-.38.2-.73.44-1.04.71m-.06-.07c.34-.3.71-.55 1.11-.75 1.49 1.71 2.25 3.77 2.11 5.82-.08 1-.37 2-.88 2.9-.26.44-.57.86-.93 1.25-.35.4-.77.74-1.24 1.03-.45.29-.93.53-1.41.71a9.684 9.684 0 0 1-1.21-6.1c.11-.99.37-1.91.79-2.71.38-.85.96-1.54 1.65-2.15ZM120 85.79c-.8.94-1.74 1.72-2.79 2.26-1.06.52-2.16.85-3.32.89-2.29.08-4.3-.81-5.8-2.4.32-.4.65-.82 1.03-1.17.38-.37.81-.69 1.25-.99.43-.3.89-.56 1.37-.78.98-.42 1.99-.73 3.11-.83 2.2-.21 4.36.24 6.13 1.53-.28.52-.62 1.03-.99 1.5Z"/><path class="cls-2" d="M109.16 85.39c-.37.34-.69.74-1 1.14 1.49 1.57 3.48 2.44 5.74 2.36 1.15-.04 2.24-.37 3.3-.89 1.04-.53 1.97-1.31 2.77-2.24.36-.46.69-.95.96-1.45-1.76-1.26-3.89-1.7-6.07-1.5-1.11.1-2.12.41-3.09.83-.48.21-.94.47-1.37.77-.43.3-.86.61-1.24.98m-.06-.06a9.792 9.792 0 0 1 5.75-2.61c2.13-.2 4.35.2 6.19 1.55-.28.53-.62 1.05-1.01 1.54-.84.98-1.8 1.77-2.86 2.3-1.07.52-2.16.84-3.28.87-2.22.08-4.3-.77-5.85-2.45.33-.41.66-.83 1.06-1.2ZM108.57 84.78c-.38.35-.77.68-1.22.93-1.4-1.64-2.16-3.73-2.27-5.73-.05-1 .03-1.99.3-2.84.26-.87.65-1.67 1.23-2.34.27-.34.57-.65.91-.92 1.68 1.35 2.86 3.22 3.08 5.29.11 1.03.02 2.1-.35 3.04-.18.48-.41.94-.68 1.38-.28.44-.63.82-1.01 1.19Z"/><path class="cls-2" d="M106.65 74.82c-.58.67-.97 1.47-1.23 2.33-.27.85-.35 1.83-.3 2.83.11 1.98.86 4.04 2.24 5.67.43-.25.81-.57 1.18-.91.38-.37.73-.75 1-1.18.27-.44.5-.9.68-1.37.37-.94.46-2 .35-3.03-.1-1.01-.46-2-.98-2.89a8.64 8.64 0 0 0-2.05-2.35c-.33.27-.63.57-.89.9m-.07-.06c.28-.36.59-.67.94-.95 1.76 1.4 2.92 3.33 3.13 5.34.23 2.01-.44 4.14-2.06 5.65-.39.37-.8.71-1.26.95-1.46-1.71-2.19-3.84-2.3-5.78-.04-.97.02-1.95.29-2.81.26-.87.64-1.7 1.25-2.4ZM126.32 76.47c-1.21 2.16-3.19 3.71-5.44 4.2-2.21.52-4.38-.03-6.14-1.32.24-.46.52-.9.81-1.33.63-.87 1.4-1.6 2.25-2.21.43-.3.9-.57 1.39-.79.48-.24.98-.43 1.51-.59 2.13-.6 4.34-.55 6.31.39-.18.56-.39 1.14-.7 1.65Z"/><path class="cls-2" d="M115.6 78.05c-.29.42-.55.85-.79 1.29a7.79 7.79 0 0 0 2.87 1.31c1.03.23 2.1.22 3.2-.03 2.23-.49 4.2-2.03 5.4-4.18.3-.5.51-1.05.69-1.6-1.95-.92-4.14-.97-6.24-.37-.53.15-1.03.35-1.51.59-.49.23-.95.49-1.39.79-.85.61-1.62 1.33-2.24 2.2m-.07-.05c.32-.45.68-.86 1.08-1.23.39-.37.79-.72 1.23-1.02.44-.3.91-.56 1.39-.79.47-.23.97-.42 1.48-.57 2.07-.58 4.32-.59 6.37.4-.19.57-.4 1.16-.72 1.7-.64 1.12-1.43 2.08-2.4 2.78-.94.72-1.98 1.21-3.07 1.45-2.15.5-4.38 0-6.2-1.35.24-.47.52-.92.83-1.37ZM114.91 77.55c-.29.42-.64.8-1.04 1.13-.84-.68-1.54-1.5-2.07-2.39-.54-.89-.96-1.86-1.19-2.83-.22-.98-.32-1.95-.22-2.85.12-.89.33-1.76.79-2.53.23-.37.45-.74.74-1.07 1.9 1.03 3.4 2.65 3.99 4.64.15.5.25 1.02.29 1.54.03.51 0 1.02-.09 1.52-.15 1.02-.58 1.98-1.19 2.84Z"/><path class="cls-2" d="M111.21 68.1c-.87 1.54-1.03 3.39-.56 5.35.23.97.64 1.93 1.18 2.81.53.87 1.22 1.68 2.05 2.36a5.5 5.5 0 0 0 1-1.1c.61-.85 1.03-1.81 1.19-2.82.08-.5.11-1.01.09-1.51-.04-.52-.14-1.03-.29-1.53-.58-1.97-2.05-3.58-3.93-4.6-.28.32-.49.68-.71 1.04m-.08-.04c.24-.39.46-.77.76-1.1 1.99 1.06 3.48 2.74 4.04 4.68.15.49.24.99.29 1.5.04.51 0 1.01-.08 1.52s-.21 1.02-.41 1.51c-.21.48-.47.95-.79 1.4-.3.44-.67.83-1.07 1.16a9.443 9.443 0 0 1-2.13-2.45c-.54-.9-.95-1.87-1.18-2.82-.22-.94-.31-1.9-.23-2.81.11-.9.33-1.79.79-2.59ZM130.85 66.14c-.2.59-.44 1.15-.74 1.67-.31.52-.67 1-1.06 1.44-.76.89-1.73 1.56-2.78 2.02-1.03.46-2.11.65-3.19.61a7.643 7.643 0 0 1-3.09-.79c.14-.5.34-.98.56-1.45.9-1.94 2.44-3.47 4.41-4.48 1.95-.99 4.19-1.33 6.28-.77-.05.6-.21 1.18-.4 1.75Z"/><path class="cls-2" d="M120.61 69.65c-.22.46-.41.92-.55 1.41 1.92.92 4.17 1.07 6.21.16a7.714 7.714 0 0 0 2.77-2.01c.39-.44.74-.92 1.05-1.43.29-.52.53-1.08.73-1.66.18-.55.34-1.12.4-1.7-2.06-.54-4.28-.21-6.21.77-1.96 1-3.49 2.53-4.39 4.46m-.08-.04c.94-2.01 2.53-3.52 4.43-4.5.94-.48 1.99-.82 3.07-.96 1.08-.15 2.18-.11 3.27.19-.05.61-.21 1.2-.41 1.8-.21.61-.46 1.19-.77 1.72-.32.53-.69 1.01-1.08 1.45-.77.89-1.75 1.54-2.75 1.98-1 .44-2.08.65-3.17.61a7.833 7.833 0 0 1-3.17-.81c.14-.51.34-1 .58-1.49ZM119.84 69.29c-.22.46-.51.89-.82 1.29a9.42 9.42 0 0 1-2.48-1.97c-.68-.77-1.25-1.64-1.68-2.57-.42-.93-.64-1.85-.74-2.76-.04-.45-.03-.9.03-1.33.04-.44.13-.87.27-1.3.13-.41.34-.8.54-1.18 2.08.67 3.8 1.97 4.77 3.83.98 1.87 1 4.06.11 5.98Z"/><path class="cls-2" d="M114.47 60.67c-.14.42-.23.85-.27 1.29-.06.43-.07.87-.04 1.32.09.91.32 1.82.73 2.75.85 1.83 2.21 3.45 4.11 4.49.3-.39.58-.81.8-1.26.89-1.91.87-4.09-.11-5.94-.96-1.84-2.65-3.13-4.7-3.8-.19.37-.39.75-.52 1.15m-.08-.03c.14-.43.35-.83.56-1.21 2.18.69 3.89 2.05 4.83 3.86.95 1.8 1.04 4.01.11 6.01-.23.49-.53.92-.85 1.33a9.52 9.52 0 0 1-2.55-2.03c-.69-.78-1.25-1.65-1.66-2.55-.41-.9-.63-1.8-.73-2.72-.04-.46-.04-.91.02-1.35.04-.45.13-.9.28-1.33ZM133.42 55.16c-.14 1.23-.61 2.38-1.19 3.39-.61 1-1.44 1.85-2.37 2.49-1.9 1.27-4.12 1.54-6.21.97.04-.52.14-1.04.28-1.54.29-1.03.69-2 1.32-2.87.58-.88 1.31-1.67 2.21-2.34 1.72-1.33 3.85-2.07 6.02-1.9.03.59 0 1.2-.07 1.79Z"/><path class="cls-2" d="M123.99 60.49c-.14.49-.23.99-.27 1.49 2.06.55 4.26.28 6.14-.98.92-.64 1.75-1.48 2.35-2.48.57-1 1.04-2.14 1.18-3.37.07-.58.1-1.16.08-1.74-2.15-.16-4.25.58-5.95 1.89-.9.67-1.63 1.45-2.2 2.32-.62.86-1.02 1.83-1.31 2.86m-.08-.02c.3-1.07.72-2.06 1.36-2.93.58-.88 1.32-1.66 2.19-2.3 1.67-1.29 3.82-2.1 6.09-1.92.03.6 0 1.22-.07 1.84-.15 1.28-.64 2.45-1.23 3.46a8.262 8.262 0 0 1-2.35 2.46c-1.85 1.24-4.1 1.57-6.27.96.04-.53.13-1.05.28-1.58ZM123.17 60.27c-.14.49-.33.97-.56 1.43-2.07-.68-3.77-2.05-4.92-3.7-.6-.84-.99-1.7-1.23-2.58-.27-.88-.28-1.75-.18-2.64.05-.43.16-.85.31-1.26 2.15.28 4.08 1.24 5.39 2.9.63.83 1.07 1.78 1.29 2.78.17.99.18 2.06-.11 3.07Z"/><path class="cls-2" d="M116.32 52.78c-.09.88-.09 1.75.18 2.63.24.87.62 1.73 1.22 2.57 1.14 1.63 2.81 2.99 4.86 3.67.22-.44.41-.91.54-1.39.29-1.01.28-2.07.1-3.05-.22-1-.66-1.94-1.28-2.77-1.29-1.64-3.21-2.6-5.33-2.88-.15.4-.25.81-.3 1.23m-.09-.01c.06-.45.17-.88.33-1.3 2.25.28 4.19 1.31 5.46 2.92.61.8 1.05 1.73 1.29 2.74.18 1 .2 2.09-.1 3.14-.15.52-.34 1.01-.58 1.47-2.16-.71-3.86-2.13-4.97-3.73-.58-.81-.98-1.66-1.22-2.54-.28-.89-.3-1.78-.2-2.7ZM133.95 43.92c.12 2.47-.78 4.82-2.43 6.41-1.64 1.59-3.74 2.27-5.92 2.08-.03-.52-.06-1.04-.02-1.56.04-.53.14-1.06.27-1.57.12-.51.28-1.01.5-1.49.21-.48.49-.95.77-1.4.28-.45.61-.88.98-1.29 1.48-1.62 3.46-2.73 5.6-2.95.17.58.21 1.18.24 1.77Z"/><path class="cls-2" d="M125.63 50.85c-.04.5-.01 1.01.01 1.52 2.16.17 4.22-.5 5.85-2.08s2.53-3.92 2.41-6.37c-.03-.58-.07-1.16-.23-1.72-2.12.23-4.08 1.33-5.54 2.93-.37.41-.69.84-.97 1.29-.28.45-.56.91-.77 1.4-.21.48-.38.98-.49 1.49-.14.51-.23 1.03-.27 1.56m-.09 0c.04-.56.15-1.09.28-1.61.12-.52.29-1.03.51-1.51.46-.97 1.02-1.87 1.73-2.66s1.57-1.47 2.54-1.99c.96-.52 1.99-.87 3.13-.98.17.58.23 1.2.25 1.82.12 2.58-.86 4.91-2.44 6.45-1.6 1.55-3.71 2.29-5.99 2.09-.03-.52-.07-1.06-.02-1.6ZM124.79 50.79c-.05.51-.11 1.02-.28 1.51-2.14-.29-4.1-1.33-5.52-2.75-1.44-1.44-2.25-3.11-2.34-4.89-.02-.43.05-.87.09-1.3 2.19-.12 4.25.49 5.81 1.89.39.35.75.74 1.06 1.16.31.42.53.87.72 1.35.19.47.33.97.42 1.48.07.51.08 1.03.04 1.56Z"/><path class="cls-2" d="M116.69 44.65c.09 1.77.89 3.44 2.33 4.87 1.4 1.4 3.34 2.43 5.45 2.72.16-.47.23-.97.27-1.46.04-.52.03-1.04-.04-1.55-.09-.51-.23-1-.42-1.47a6.42 6.42 0 0 0-.72-1.34c-.31-.42-.66-.8-1.05-1.15-1.55-1.38-3.58-1.99-5.74-1.88-.04.42-.11.84-.09 1.26m-.09 0c-.02-.45.05-.9.09-1.34 1.13-.06 2.24.07 3.23.39.99.32 1.89.83 2.65 1.51.76.67 1.4 1.51 1.77 2.47.19.48.34.98.44 1.5.08.52.09 1.06.05 1.61-.05.54-.12 1.06-.3 1.55-2.23-.3-4.2-1.39-5.58-2.77-1.39-1.39-2.26-3.07-2.35-4.91ZM132.44 32.75c.28 1.21.34 2.43.09 3.59-.23 1.16-.63 2.23-1.31 3.17-1.35 1.86-3.29 2.91-5.45 3.11-.15-.5-.25-1.02-.3-1.53-.06-.53-.03-1.07-.01-1.59.02-.52.09-1.04.22-1.56.12-.51.29-1.02.51-1.52.22-.5.44-.98.73-1.45 1.14-1.86 2.9-3.32 4.97-3.93.24.54.42 1.12.55 1.71Z"/><path class="cls-2" d="M125.51 41.09c.05.5.14 1 .29 1.49 2.13-.22 4.05-1.25 5.39-3.1.68-.93 1.07-2 1.31-3.15.25-1.15.18-2.37-.09-3.57-.13-.57-.3-1.13-.53-1.66-2.05.61-3.79 2.06-4.92 3.89-.55.93-.99 1.93-1.24 2.96-.12.51-.19 1.03-.21 1.55-.02.52-.05 1.05.01 1.58m-.09 0c-.06-.55-.03-1.1 0-1.64.02-.54.1-1.06.23-1.58s.3-1.02.52-1.51c.21-.49.43-.96.72-1.41 1.11-1.8 2.87-3.33 5.03-3.96.25.55.43 1.14.57 1.75.14.63.22 1.26.25 1.87.03.61-.06 1.22-.17 1.8-.24 1.16-.64 2.22-1.31 3.12a7.532 7.532 0 0 1-5.52 3.13c-.15-.51-.26-1.03-.31-1.57ZM124.67 41.17c.05.51.05 1.03 0 1.53-2.17.1-4.28-.57-5.91-1.71-.82-.58-1.57-1.24-2.08-1.97-.5-.74-.91-1.54-1.1-2.4-.1-.42-.13-.86-.14-1.29 2.13-.51 4.24-.29 6.05.8.45.27.89.59 1.24.95.36.36.67.76.94 1.19.27.43.5.9.68 1.38.18.49.26 1 .32 1.53Z"/><path class="cls-2" d="M115.61 36.61c.2.86.6 1.65 1.1 2.39.51.73 1.25 1.39 2.07 1.96a9.61 9.61 0 0 0 5.84 1.7c.05-.49.05-.99 0-1.49-.06-.52-.14-1.03-.32-1.52-.18-.48-.41-.94-.68-1.37a6.324 6.324 0 0 0-2.17-2.13c-1.79-1.07-3.88-1.3-5.98-.81 0 .42.04.85.14 1.26m-.08.02c-.1-.44-.13-.89-.14-1.33 2.22-.55 4.36-.26 6.12.79.43.26.86.57 1.22.92a7.407 7.407 0 0 1 1.65 2.59c.19.5.27 1.03.33 1.57.05.54.05 1.06 0 1.58-2.27.11-4.39-.62-5.98-1.72-.78-.56-1.54-1.2-2.06-1.94-.27-.37-.47-.76-.68-1.17-.2-.41-.36-.83-.46-1.28ZM128.93 22.04c.24.57.44 1.15.57 1.74.13.59.17 1.19.17 1.78-.02 1.18-.2 2.31-.72 3.36-.98 2.08-2.7 3.46-4.78 4.05-.24-.47-.43-.95-.58-1.45-.15-.51-.24-1.04-.3-1.56-.08-.52-.1-1.04-.08-1.57.05-1.05.31-2.13.68-3.15.78-2.04 2.24-3.79 4.17-4.77.33.49.61 1.03.85 1.58Z"/><path class="cls-2" d="M123.64 31.5c.14.49.33.96.56 1.41 2.06-.6 3.75-1.97 4.72-4.03.52-1.05.69-2.16.71-3.34 0-.58-.04-1.18-.17-1.77-.14-.58-.33-1.16-.57-1.72-.23-.54-.51-1.05-.82-1.53-1.91.98-3.35 2.71-4.12 4.73-.37 1.01-.63 2.08-.68 3.13-.02.52 0 1.05.08 1.56.05.52.14 1.05.29 1.56m-.08.02c-.16-.53-.25-1.08-.3-1.61-.07-.53-.1-1.06-.07-1.59.06-1.06.32-2.12.68-3.11.76-1.97 2.21-3.8 4.22-4.81.35.49.63 1.04.88 1.62.25.59.45 1.19.59 1.79.12.6.16 1.22.16 1.81-.02 1.19-.22 2.3-.72 3.31-.95 2.02-2.66 3.47-4.84 4.08-.24-.47-.45-.97-.6-1.49ZM122.82 31.74c.14.49.24 1 .28 1.51-2.12.49-4.32.22-6.14-.6-.89-.42-1.76-.93-2.4-1.56-.33-.31-.6-.66-.86-1.01-.27-.36-.49-.74-.67-1.14-.17-.4-.29-.82-.37-1.25 1.99-.89 4.12-1.06 6.09-.32 1.01.36 1.84.96 2.54 1.71.35.37.66.79.93 1.23.25.45.44.94.59 1.44Z"/><path class="cls-2" d="M113.08 28.91c.17.41.4.79.66 1.14.26.36.53.7.86 1.01.63.63 1.5 1.13 2.39 1.55 1.8.81 3.97 1.08 6.07.6a7.882 7.882 0 0 0-.86-2.9c-.27-.44-.58-.85-.92-1.22-.69-.74-1.52-1.34-2.53-1.7-1.95-.73-4.06-.56-6.03.3.08.42.2.83.36 1.21m-.08.03c-.18-.41-.29-.85-.38-1.28 2.08-.94 4.24-1.06 6.16-.34.98.35 1.81.93 2.52 1.68.35.37.67.79.95 1.24.26.46.46.96.61 1.49.15.52.24 1.04.28 1.55-2.21.52-4.44.2-6.2-.6-.86-.41-1.72-.91-2.37-1.53-.34-.31-.61-.66-.88-1.02-.28-.36-.51-.75-.69-1.18ZM123.52 12.15c.34.51.64 1.05.88 1.6s.38 1.14.49 1.71c.2 1.16.22 2.3-.09 3.43-.58 2.22-2.02 3.89-3.96 4.86-.32-.41-.6-.86-.84-1.32-.24-.48-.43-.98-.58-1.48-.17-.5-.29-1.01-.36-1.53-.14-1.05-.09-2.15.1-3.22.4-2.14 1.52-4.14 3.23-5.45.42.42.79.9 1.13 1.39Z"/><path class="cls-2" d="M120.04 22.42c.23.45.5.88.81 1.29 1.91-.97 3.33-2.62 3.91-4.82.31-1.12.29-2.25.09-3.41-.11-.57-.25-1.16-.49-1.7-.24-.55-.53-1.08-.87-1.59-.33-.48-.68-.95-1.09-1.36-1.69 1.3-2.8 3.27-3.19 5.4-.18 1.07-.24 2.16-.1 3.2.07.52.19 1.03.36 1.52.15.51.33 1 .57 1.48m-.08.04c-.25-.5-.44-1.01-.59-1.53-.17-.51-.29-1.03-.36-1.55-.13-1.06-.07-2.14.1-3.18.39-2.08 1.49-4.14 3.27-5.5.44.42.81.91 1.16 1.43.36.54.66 1.09.9 1.65.24.57.38 1.16.49 1.74.19 1.17.2 2.3-.1 3.39-.56 2.16-1.98 3.9-4.02 4.9-.33-.42-.62-.87-.86-1.35ZM119.28 22.8c.23.46.42.94.55 1.43-1.99.87-4.2 1-6.14.53-.96-.25-1.9-.59-2.64-1.1-.38-.25-.71-.54-1.03-.84-.33-.3-.62-.64-.86-1.01-.24-.36-.43-.76-.6-1.16 1.8-1.24 3.86-1.79 5.94-1.43 1.06.17 1.99.6 2.81 1.21.41.3.79.65 1.14 1.04.32.4.6.84.84 1.31Z"/><path class="cls-2" d="M109.19 21.79c.25.37.53.7.86 1 .33.3.65.59 1.03.84.74.5 1.68.84 2.63 1.09 1.92.47 4.11.34 6.08-.52-.13-.47-.31-.94-.54-1.39-.24-.47-.51-.91-.83-1.31-.34-.39-.72-.73-1.13-1.04-.82-.61-1.74-1.04-2.79-1.21-2.05-.36-4.09.18-5.88 1.39.16.39.35.78.58 1.13m-.07.05c-.26-.37-.44-.78-.61-1.19 1.88-1.31 3.98-1.81 6-1.46 1.02.16 1.95.58 2.78 1.19.42.3.81.66 1.16 1.05.34.4.62.86.87 1.35.24.48.43.97.56 1.47-2.08.92-4.33 1-6.21.55-.92-.24-1.86-.58-2.61-1.08-.39-.24-.72-.54-1.05-.85-.34-.31-.64-.65-.89-1.03ZM108.91 4.17c.9.83 1.62 1.82 2.07 2.9.41 1.12.58 2.3.46 3.45-.53.04-1.06.05-1.58 0-1.88-.19-3.63-.85-4.97-2.04-.86-.68-1.5-1.58-2.01-2.55-.52-.96-.85-2.06-.97-3.25.49-.15 1.01-.25 1.53-.29.96-.07 1.97.01 2.89.33.92.32 1.8.81 2.57 1.45Z"/><path class="cls-2" d="M104.92 8.45c1.33 1.19 3.08 1.85 4.95 2.03.5.04 1.02.04 1.53 0 .11-1.15-.05-2.31-.47-3.42a8.426 8.426 0 0 0-2.05-2.87 8.55 8.55 0 0 0-2.56-1.44c-.92-.32-1.92-.4-2.87-.33-.51.04-1.01.14-1.49.28.13 1.17.46 2.26.97 3.21.5.96 1.14 1.85 1.99 2.53m-.06.07c-.84-.67-1.48-1.55-2-2.53-.53-.96-.87-2.09-.99-3.33.5-.16 1.03-.26 1.58-.31 1-.08 2.03.02 2.96.34.92.33 1.78.83 2.54 1.44.88.81 1.6 1.79 2.07 2.88.43 1.12.6 2.33.47 3.55-.54.05-1.08.05-1.62 0-1.97-.19-3.69-.89-4.99-2.05ZM116.39 3.4c.86.89 1.56 1.9 1.95 3.02.41 1.11.64 2.23.54 3.39-.17 2.29-1.28 4.2-3.01 5.5-.39-.35-.75-.74-1.06-1.15-.33-.43-.59-.89-.84-1.35a7.67 7.67 0 0 1-.63-1.44c-.17-.5-.29-1.03-.36-1.57-.08-.53-.14-1.07-.13-1.62 0-2.19.74-4.35 2.19-5.94.51.32.94.74 1.37 1.16Z"/><path class="cls-2" d="M114.84 14.14c.31.4.65.78 1.03 1.12 1.71-1.3 2.8-3.19 2.97-5.46.1-1.15-.13-2.27-.53-3.37-.39-1.11-1.09-2.11-1.94-3-.41-.41-.84-.82-1.32-1.13-1.42 1.58-2.15 3.72-2.15 5.89 0 .55.05 1.08.13 1.61.07.54.19 1.06.36 1.56.16.5.37.98.63 1.44.25.46.51.92.84 1.35m-.07.05c-.34-.44-.61-.92-.87-1.4-.26-.47-.47-.96-.63-1.47-.16-.51-.28-1.03-.35-1.57-.08-.52-.13-1.05-.13-1.58 0-2.13.7-4.34 2.22-6 .52.32.96.75 1.41 1.19.9.93 1.59 1.97 1.98 3.09.4 1.12.62 2.23.52 3.35-.16 2.23-1.24 4.2-3.06 5.55-.4-.35-.76-.74-1.09-1.18ZM114.17 14.65c.31.41.58.85.8 1.31a9.668 9.668 0 0 1-5.94 1.63c-.99-.07-1.98-.24-2.8-.6-.81-.37-1.59-.84-2.2-1.48-.31-.31-.55-.68-.8-1.03 1.55-1.55 3.48-2.47 5.59-2.48.53 0 1.06.04 1.56.16.49.12.97.3 1.43.53.46.23.9.5 1.31.82.4.33.75.72 1.07 1.14Z"/><path class="cls-2" d="M104.05 15.48c.62.64 1.38 1.1 2.19 1.47.82.36 1.8.53 2.79.6 1.97.12 4.1-.41 5.88-1.6-.22-.44-.48-.87-.78-1.27-.32-.42-.66-.81-1.06-1.13a7.68 7.68 0 0 0-1.3-.82c-.46-.23-.93-.4-1.42-.52-.49-.12-1.03-.16-1.55-.16-2.08.01-3.99.91-5.53 2.43.24.35.48.7.78 1m-.06.06c-.32-.32-.57-.7-.82-1.06 1.61-1.62 3.6-2.51 5.64-2.52.51 0 1.03.04 1.53.15.49.12.97.29 1.43.52.46.22.91.5 1.33.83.42.33.77.73 1.11 1.17.33.43.6.88.82 1.35a9.8 9.8 0 0 1-6.01 1.66c-.95-.07-1.94-.23-2.77-.59-.82-.37-1.61-.84-2.26-1.5ZM54.97 90.54c.88.1 1.71.45 2.48.92.77.45 1.49 1.13 2.12 1.92a9.693 9.693 0 0 1 2.14 5.78c-.5.09-1.02.13-1.53.11a6.636 6.636 0 0 1-5.27-2.81c-.61-.83-1.01-1.81-1.21-2.83-.2-1.02-.2-2.09-.03-3.16.44-.02.87 0 1.29.08Z"/><path class="cls-2" d="M60.19 99.23c.5.01 1-.02 1.48-.11a9.598 9.598 0 0 0-2.12-5.71c-.63-.79-1.34-1.46-2.11-1.91-.77-.47-1.59-.81-2.47-.91-.41-.08-.83-.1-1.26-.08-.17 1.06-.16 2.12.04 3.13.2 1.01.6 1.98 1.2 2.8a6.6 6.6 0 0 0 5.24 2.8m0 .09a6.683 6.683 0 0 1-5.3-2.83c-.59-.81-1-1.78-1.2-2.81a8.857 8.857 0 0 1-.03-3.25c.44-.03.88 0 1.33.08.92.1 1.76.47 2.53.95.78.46 1.48 1.14 2.09 1.9 1.22 1.51 2.1 3.58 2.15 5.85-.51.09-1.03.13-1.57.12ZM60.16 100.08c.52.01 1.04.08 1.55.19-.05 2.17-.95 4.18-2.71 5.66-.88.73-1.93 1.23-3.06 1.55-1.14.3-2.36.34-3.58.18-.59-.1-1.18-.26-1.74-.46.23-1.06.67-2.05 1.28-2.93a9.9 9.9 0 0 1 2.27-2.3c1.8-1.3 3.86-1.94 6-1.89Z"/><path class="cls-2" d="M52.36 107.62c1.22.15 2.43.12 3.56-.18 1.13-.32 2.17-.82 3.05-1.54 1.74-1.46 2.63-3.45 2.7-5.59-.5-.11-1-.17-1.51-.18-2.13-.05-4.18.59-5.97 1.88-.88.66-1.64 1.42-2.24 2.28-.6.87-1.05 1.84-1.27 2.89.54.19 1.11.34 1.69.44m-.01.09c-.62-.11-1.22-.27-1.79-.48.23-1.11.7-2.12 1.32-3.01.62-.88 1.39-1.64 2.26-2.28a9.772 9.772 0 0 1 6.02-1.9c.54.01 1.08.08 1.59.2-.04 2.27-1.01 4.29-2.72 5.72-.85.71-1.88 1.21-3.02 1.54-1.14.32-2.39.36-3.67.2ZM47.11 88.58c.42.14.82.33 1.19.57.38.23.74.48 1.07.79.34.3.65.65.93 1.04.29.37.56.78.8 1.23.94 1.8 1.39 3.92 1.05 6.07-.51 0-1.03-.02-1.53-.14-1.03-.24-1.99-.65-2.78-1.32-.8-.64-1.45-1.44-1.89-2.41-.44-.95-.66-1.96-.67-2.99 0-1.05.19-2.1.55-3.12.43.07.85.17 1.26.3Z"/><path class="cls-2" d="M50.65 98.08c.48.12.99.15 1.48.14.33-2.12-.12-4.22-1.05-6-.24-.45-.5-.85-.8-1.22-.29-.39-.6-.73-.93-1.04-.33-.31-.69-.55-1.07-.79-.37-.24-.77-.43-1.19-.57-.4-.13-.81-.22-1.23-.29-.36 1.01-.55 2.05-.53 3.09.02 1.02.24 2.02.67 2.96.87 1.91 2.58 3.26 4.64 3.71m-.02.09c-1.07-.25-2.05-.69-2.84-1.36-.8-.65-1.43-1.45-1.86-2.39-.43-.93-.66-1.93-.67-2.97-.01-1.06.18-2.14.57-3.21.43.07.87.17 1.3.3.44.15.85.35 1.23.59s.75.49 1.08.81c.34.31.64.67.93 1.04.29.37.55.77.78 1.2.91 1.75 1.41 3.89 1.05 6.13-.52 0-1.05-.01-1.57-.14ZM50.47 98.91c.5.13 1.01.25 1.49.45-.44 2.12-1.7 4-3.69 5.08-.5.28-1.03.5-1.59.68-.55.15-1.12.25-1.71.29-.58.04-1.19.04-1.78-.05-.59-.09-1.19-.24-1.78-.43-.57-.19-1.12-.44-1.63-.75.42-1 1.04-1.89 1.79-2.63.76-.76 1.66-1.39 2.65-1.86.99-.46 2.04-.79 3.09-.91 1.04-.1 2.11-.1 3.15.15Z"/><path class="cls-2" d="M41.43 104.89c.58.2 1.18.34 1.77.43.59.09 1.19.08 1.77.05.58-.04 1.15-.14 1.7-.29.55-.17 1.08-.4 1.58-.67 1.97-1.07 3.22-2.92 3.67-5.01-.47-.18-.96-.31-1.45-.43-2.08-.46-4.22-.18-6.21.76a9.51 9.51 0 0 0-2.63 1.84 8.08 8.08 0 0 0-1.78 2.6c.49.31 1.03.55 1.58.73m-.03.08c-.6-.2-1.16-.46-1.67-.78a8.018 8.018 0 0 1 1.85-2.7c.77-.76 1.68-1.39 2.64-1.85.96-.44 1.99-.77 3.05-.9 1.05-.11 2.14-.12 3.22.14.53.13 1.05.26 1.53.46-.45 2.22-1.78 4.09-3.72 5.14-.48.27-1 .49-1.55.66-.54.16-1.11.26-1.7.3-.59.04-1.2.05-1.81-.03-.61-.09-1.22-.24-1.83-.44ZM39.74 85.22c1.53.9 2.66 2.36 3.27 4.3.6 1.93.65 4.09-.08 6.15-.5-.09-1-.23-1.48-.42a7.056 7.056 0 0 1-2.49-1.8c-.66-.8-1.15-1.7-1.41-2.72-.51-2.05-.11-4.15 1-6.04.42.13.82.3 1.19.51Z"/><path class="cls-2" d="M41.48 95.22c.46.18.94.32 1.43.41.71-2.04.66-4.17.07-6.09-.61-1.94-1.73-3.39-3.26-4.28-.36-.21-.76-.37-1.16-.5-1.08 1.86-1.47 3.94-.97 5.97.26 1.01.75 1.91 1.41 2.7.67.76 1.52 1.37 2.48 1.79m-.03.08a6.955 6.955 0 0 1-2.54-1.86c-.66-.81-1.14-1.7-1.39-2.69-.5-2-.14-4.14 1.02-6.1.42.14.84.3 1.23.53 1.59.93 2.69 2.44 3.28 4.32.58 1.88.68 4.07-.08 6.22a7.68 7.68 0 0 1-1.52-.43ZM41.15 96c.48.19.95.43 1.39.71-.82 1.99-2.4 3.61-4.56 4.32-2.16.72-4.68.47-6.83-.78-.52-.3-1.02-.64-1.47-1.03 1.18-1.81 3.09-3.06 5.19-3.61 1.07-.28 2.16-.41 3.2-.33 1.06.06 2.09.29 3.07.72Z"/><path class="cls-2" d="M31.17 100.21c2.13 1.24 4.64 1.49 6.79.77 2.13-.7 3.7-2.29 4.52-4.26-.43-.27-.88-.5-1.35-.69-.98-.42-2.01-.66-3.06-.71-1.04-.09-2.12.04-3.19.33-2.08.54-3.96 1.78-5.14 3.56.44.37.92.7 1.43.99m-.04.08c-.54-.32-1.06-.66-1.51-1.06 1.23-1.89 3.2-3.13 5.24-3.66 1.03-.27 2.11-.41 3.16-.33 1.06.05 2.12.28 3.14.72.51.2.98.45 1.43.73-.84 2.09-2.5 3.69-4.6 4.38-2.08.7-4.63.52-6.87-.78ZM33.09 80.57c.67.59 1.24 1.26 1.63 2.09.42.8.69 1.72.81 2.74.26 1.98-.11 4.15-1.19 6.04-.47-.18-.93-.42-1.36-.7-.9-.55-1.59-1.36-2.13-2.22-.52-.88-.81-1.9-.9-2.93-.14-2.1.66-4.12 2.07-5.76.39.2.75.45 1.08.73Z"/><path class="cls-2" d="M32.99 90.71c.42.27.86.5 1.32.68a9.573 9.573 0 0 0 1.17-5.97 7.77 7.77 0 0 0-.8-2.73c-.39-.83-.96-1.49-1.62-2.08-.32-.28-.67-.52-1.04-.71-1.39 1.63-2.17 3.63-2.04 5.7.09 1.03.38 2.04.89 2.91.53.85 1.22 1.66 2.12 2.21m-.05.07c-.47-.29-.88-.64-1.24-1.03a7.37 7.37 0 0 1-.93-1.25c-.51-.9-.79-1.9-.88-2.9-.13-2.04.63-4.11 2.11-5.82.4.2.77.45 1.11.75.7.61 1.27 1.3 1.65 2.15.42.8.68 1.72.79 2.71.25 1.92-.08 4.14-1.21 6.1-.48-.18-.95-.42-1.41-.71ZM32.53 91.42c.44.28.85.6 1.23.97-1.18 1.82-3 3.08-5.27 3.42a8.48 8.48 0 0 1-3.42-.28c-1.1-.37-2.21-.91-3.14-1.73-.45-.39-.88-.82-1.25-1.28 1.5-1.58 3.58-2.44 5.75-2.61 1.12-.1 2.18 0 3.21.26 1.04.23 1.98.7 2.9 1.26Z"/><path class="cls-2" d="M21.95 93.77c.93.81 2.03 1.35 3.12 1.72 1.13.33 2.29.42 3.4.28 2.25-.33 4.05-1.57 5.22-3.36-.37-.35-.77-.66-1.19-.94-.91-.56-1.84-1.02-2.88-1.25a9.652 9.652 0 0 0-3.19-.26c-2.16.17-4.21 1.02-5.7 2.57.37.44.78.86 1.22 1.24m-.06.07c-.48-.41-.91-.86-1.28-1.32 1.56-1.65 3.7-2.48 5.81-2.64 1.08-.1 2.14 0 3.17.25.52.12 1.03.28 1.52.5.49.22.97.48 1.44.77.46.29.88.63 1.26 1-1.22 1.91-3.1 3.14-5.32 3.47-1.08.14-2.24.06-3.38-.26-1.11-.36-2.25-.91-3.22-1.76ZM27.38 74.8c.58.67.97 1.48 1.23 2.34.27.85.35 1.84.3 2.84-.11 2-.87 4.08-2.27 5.73-.45-.25-.84-.58-1.22-.93-.38-.37-.73-.75-1.01-1.19-.28-.44-.5-.9-.68-1.38-.37-.94-.46-2.01-.35-3.04.22-2.07 1.4-3.94 3.08-5.29.34.27.65.58.91.92Z"/><path class="cls-2" d="M25.46 84.75c.36.34.75.66 1.18.91a9.768 9.768 0 0 0 2.24-5.67c.05-1-.03-1.98-.3-2.83-.26-.86-.65-1.66-1.23-2.33-.26-.33-.56-.63-.89-.9-.83.68-1.53 1.47-2.05 2.35-.52.89-.88 1.87-.98 2.89-.11 1.03-.02 2.09.35 3.03.18.48.4.93.68 1.37.28.43.63.82 1 1.18m-.06.06a6.699 6.699 0 0 1-2.06-5.65c.21-2.01 1.37-3.94 3.13-5.34.35.27.66.59.94.95.61.7.99 1.53 1.25 2.4.27.86.33 1.84.29 2.81-.11 1.94-.84 4.07-2.3 5.78-.46-.25-.86-.59-1.26-.95ZM24.87 85.36c.38.35.71.77 1.03 1.17-1.5 1.59-3.51 2.49-5.8 2.4-1.16-.04-2.26-.37-3.32-.89-1.05-.53-1.98-1.32-2.79-2.26-.37-.47-.7-.98-.99-1.5 1.77-1.29 3.93-1.73 6.13-1.53 1.11.1 2.13.42 3.11.83.48.22.94.47 1.37.78.43.3.86.61 1.25.99Z"/><path class="cls-2" d="M14.04 85.76c.8.93 1.73 1.71 2.77 2.24 1.06.52 2.15.85 3.3.89 2.27.08 4.25-.79 5.74-2.36-.31-.39-.63-.79-1-1.14-.38-.37-.81-.69-1.24-.98-.43-.3-.88-.56-1.37-.77-.98-.42-1.98-.73-3.09-.83-2.18-.2-4.31.24-6.07 1.5.28.51.6 1 .96 1.45m-.07.06c-.39-.49-.73-1.01-1.01-1.54 1.84-1.35 4.06-1.75 6.19-1.55 2.13.22 4.13 1.09 5.75 2.61.4.37.73.8 1.06 1.2-1.55 1.67-3.63 2.53-5.85 2.45-1.12-.03-2.21-.35-3.28-.87-1.06-.52-2.02-1.32-2.86-2.3ZM22.82 68.08c.45.77.67 1.64.79 2.53.1.9 0 1.87-.22 2.85-.23.98-.65 1.95-1.19 2.83-.54.88-1.23 1.7-2.07 2.39a5.87 5.87 0 0 1-1.04-1.13c-.62-.86-1.04-1.82-1.19-2.84-.08-.5-.12-1.01-.09-1.52.04-.52.14-1.03.29-1.54.59-1.99 2.09-3.61 3.99-4.64.29.33.51.7.74 1.07Z"/><path class="cls-2" d="M19.12 77.52c.28.41.62.78 1 1.1.83-.68 1.51-1.49 2.05-2.36.54-.88.94-1.84 1.18-2.81.47-1.96.3-3.81-.56-5.35-.22-.36-.43-.72-.71-1.04-1.88 1.03-3.35 2.63-3.93 4.6-.15.5-.25 1.01-.29 1.53-.03.5 0 1.01.09 1.51.15 1.01.57 1.97 1.19 2.82m-.07.05c-.32-.45-.58-.92-.79-1.4-.21-.49-.33-1-.41-1.51-.08-.51-.11-1.02-.08-1.52.04-.51.14-1.01.29-1.5.57-1.94 2.05-3.62 4.04-4.68.3.33.52.71.76 1.1.47.8.68 1.69.79 2.59.09.91 0 1.87-.23 2.81-.23.95-.64 1.92-1.18 2.82-.54.9-1.25 1.74-2.13 2.45-.4-.33-.77-.72-1.07-1.16ZM18.44 78.02c.29.43.57.87.81 1.33-1.75 1.29-3.92 1.83-6.14 1.32-2.24-.49-4.22-2.04-5.44-4.2-.31-.52-.52-1.09-.7-1.65 1.97-.94 4.18-.99 6.31-.39.53.16 1.04.35 1.51.59.49.23.96.49 1.39.79.85.62 1.63 1.34 2.25 2.21Z"/><path class="cls-2" d="M7.71 76.44c1.2 2.15 3.17 3.69 5.4 4.18 1.1.25 2.18.25 3.2.03 1.04-.23 2-.68 2.87-1.31-.24-.44-.5-.88-.79-1.29-.62-.87-1.4-1.59-2.24-2.2-.43-.3-.89-.56-1.39-.79a9.11 9.11 0 0 0-1.51-.59c-2.1-.6-4.3-.55-6.24.37.18.55.39 1.1.69 1.6m-.08.04c-.32-.54-.53-1.13-.72-1.7 2.05-.99 4.31-.98 6.37-.4.51.15 1.01.34 1.48.57.48.23.95.48 1.39.79.44.3.84.65 1.23 1.02.4.37.76.78 1.08 1.23.31.45.59.9.83 1.37-1.82 1.36-4.05 1.85-6.2 1.35-1.09-.23-2.13-.73-3.07-1.45-.96-.7-1.75-1.67-2.4-2.78ZM19.57 60.66c.14.42.23.85.27 1.3.06.43.07.88.03 1.33-.09.91-.32 1.83-.74 2.76-.43.93-1 1.8-1.68 2.57a9.42 9.42 0 0 1-2.48 1.97c-.31-.4-.61-.83-.82-1.29-.9-1.92-.87-4.11.11-5.98.97-1.86 2.69-3.16 4.77-3.83.2.38.41.77.54 1.18Z"/><path class="cls-2" d="M14.2 69.27c.21.45.49.87.8 1.26 1.89-1.05 3.26-2.66 4.11-4.49.42-.92.64-1.84.73-2.75.04-.45.03-.89-.04-1.32-.04-.44-.13-.87-.27-1.29-.13-.4-.33-.78-.52-1.15-2.05.67-3.74 1.96-4.7 3.8-.97 1.85-1 4.04-.11 5.94m-.08.04c-.93-2-.84-4.21.11-6.01.94-1.81 2.65-3.17 4.83-3.86.2.39.41.78.56 1.21.15.44.23.88.28 1.33.06.44.07.9.02 1.35-.1.92-.33 1.83-.73 2.72-.41.9-.97 1.77-1.66 2.55a9.52 9.52 0 0 1-2.55 2.03c-.32-.41-.62-.84-.85-1.33ZM13.43 69.64c.22.47.42.95.56 1.45-.98.47-2.02.74-3.09.79-1.08.05-2.16-.15-3.19-.61a7.576 7.576 0 0 1-2.78-2.02c-.39-.44-.74-.92-1.06-1.44-.29-.53-.54-1.09-.74-1.67-.19-.57-.35-1.15-.4-1.75 2.08-.56 4.32-.22 6.28.77 1.97 1.01 3.51 2.54 4.41 4.48Z"/><path class="cls-2" d="M3.19 66.12c.2.58.44 1.14.73 1.66.31.51.66.99 1.05 1.43a7.63 7.63 0 0 0 2.77 2.01c2.04.91 4.29.76 6.21-.16-.14-.49-.34-.95-.55-1.41-.9-1.93-2.43-3.45-4.39-4.46-1.93-.98-4.15-1.32-6.21-.77.05.58.21 1.14.4 1.7m-.08.03c-.2-.6-.36-1.2-.41-1.8 1.1-.3 2.19-.34 3.27-.19 1.08.15 2.13.48 3.07.96 1.9.97 3.49 2.48 4.43 4.5.23.49.44.99.58 1.49-1.02.5-2.09.77-3.17.81-1.09.04-2.17-.16-3.17-.61-1.01-.44-1.98-1.1-2.75-1.98-.4-.44-.76-.93-1.08-1.45-.31-.53-.56-1.11-.77-1.72ZM17.73 52.77c.09.89.09 1.76-.18 2.64-.24.87-.63 1.74-1.23 2.58-1.15 1.65-2.85 3.02-4.92 3.7-.23-.45-.42-.93-.56-1.43-.29-1.02-.28-2.08-.11-3.07.22-1 .66-1.96 1.29-2.78 1.31-1.66 3.25-2.62 5.39-2.9.15.41.26.83.31 1.26Z"/><path class="cls-2" d="M10.88 60.25c.14.48.32.95.54 1.39 2.05-.68 3.72-2.03 4.86-3.67.6-.84.98-1.69 1.22-2.57.27-.88.27-1.75.18-2.63-.05-.42-.15-.83-.3-1.23-2.12.28-4.04 1.25-5.33 2.88-.62.82-1.07 1.77-1.28 2.77-.17.99-.18 2.04.11 3.05m-.08.02c-.3-1.06-.28-2.15-.1-3.14a7.07 7.07 0 0 1 1.29-2.74c1.27-1.61 3.21-2.64 5.46-2.92.16.41.27.85.33 1.3.1.92.08 1.81-.2 2.7-.24.88-.64 1.73-1.22 2.54-1.11 1.6-2.81 3.03-4.97 3.73-.24-.46-.43-.95-.58-1.47ZM10.06 60.47c.14.5.24 1.02.28 1.54-2.08.57-4.31.3-6.21-.97a8.296 8.296 0 0 1-2.37-2.49C1.18 57.54.71 56.39.57 55.16c-.08-.6-.1-1.2-.07-1.79 2.17-.17 4.3.57 6.02 1.9.9.67 1.64 1.46 2.21 2.34.63.87 1.03 1.84 1.32 2.87Z"/><path class="cls-2" d="M.62 55.15c.14 1.22.61 2.36 1.18 3.37.6 1 1.43 1.84 2.35 2.48 1.88 1.26 4.07 1.53 6.14.98-.04-.51-.14-1.01-.27-1.49-.29-1.03-.69-1.99-1.31-2.86a9.29 9.29 0 0 0-2.2-2.32C4.8 53.99 2.7 53.26.56 53.42c-.02.58 0 1.16.08 1.74m-.09.01c-.08-.62-.1-1.24-.07-1.84 2.26-.18 4.42.62 6.09 1.92.87.65 1.61 1.42 2.19 2.3.64.87 1.06 1.86 1.36 2.93.15.52.24 1.05.28 1.58-2.18.61-4.43.27-6.27-.96-.9-.62-1.72-1.45-2.35-2.46C1.19 57.63.7 56.46.55 55.18ZM17.35 44.66c-.09 1.78-.9 3.45-2.34 4.89-1.42 1.42-3.38 2.46-5.52 2.75-.17-.48-.24-1-.28-1.51-.04-.53-.03-1.05.04-1.56.09-.51.23-1.01.42-1.48.19-.47.42-.93.72-1.35.31-.42.66-.81 1.06-1.16 1.56-1.4 3.62-2 5.81-1.89.04.43.11.87.09 1.3Z"/><path class="cls-2" d="M9.26 50.78c.04.5.11.99.27 1.46 2.11-.29 4.05-1.32 5.45-2.72 1.44-1.43 2.24-3.1 2.33-4.87.02-.42-.05-.85-.09-1.26-2.16-.1-4.19.5-5.74 1.88-.39.35-.74.73-1.05 1.15-.3.42-.52.87-.72 1.34-.19.47-.33.97-.42 1.47-.07.51-.08 1.03-.04 1.55m-.09 0c-.04-.55-.03-1.09.05-1.61.1-.52.24-1.03.44-1.5.37-.95 1-1.79 1.77-2.47.76-.68 1.66-1.19 2.65-1.51.99-.32 2.1-.45 3.23-.39.05.43.11.88.09 1.34-.09 1.85-.96 3.53-2.35 4.91-1.38 1.37-3.35 2.47-5.58 2.77-.18-.49-.25-1.01-.3-1.55ZM8.41 50.85c.05.52.01 1.04-.02 1.56-2.18.18-4.27-.49-5.92-2.08C.83 48.74-.07 46.39.04 43.92c.03-.6.07-1.2.24-1.77 2.14.22 4.12 1.33 5.6 2.95.37.41.7.84.98 1.29.28.45.56.92.77 1.4.21.48.38.98.5 1.49.14.51.23 1.03.27 1.57Z"/><path class="cls-2" d="M.1 43.92c-.12 2.46.78 4.79 2.41 6.37 1.63 1.57 3.69 2.25 5.85 2.08.03-.5.06-1.01.01-1.52a9.09 9.09 0 0 0-.27-1.56c-.12-.51-.28-1.01-.49-1.49-.21-.48-.48-.95-.77-1.4-.28-.45-.6-.88-.97-1.29-1.46-1.6-3.42-2.7-5.54-2.93-.16.56-.2 1.14-.23 1.72m-.09 0c.03-.63.08-1.24.25-1.82 1.13.11 2.16.46 3.13.98.96.52 1.82 1.2 2.54 1.99.71.79 1.27 1.69 1.73 2.66.22.49.39.99.51 1.51.14.52.24 1.06.28 1.61.05.54 0 1.08-.02 1.6-2.27.21-4.39-.54-5.99-2.09C.87 48.83-.11 46.49.01 43.91ZM18.43 36.62c-.2.87-.61 1.66-1.1 2.4-.51.74-1.26 1.39-2.08 1.97a9.655 9.655 0 0 1-5.91 1.71c-.05-.51-.05-1.02 0-1.53.06-.52.14-1.04.32-1.53s.41-.95.68-1.38c.27-.43.59-.83.94-1.19.36-.36.8-.67 1.24-.95 1.81-1.08 3.92-1.31 6.05-.8 0 .44-.04.87-.14 1.29Z"/><path class="cls-2" d="M9.38 41.18c-.05.49-.05 1 0 1.49a9.57 9.57 0 0 0 5.84-1.7c.82-.57 1.56-1.23 2.07-1.96.5-.74.9-1.53 1.1-2.39.09-.41.13-.83.14-1.26-2.1-.49-4.19-.27-5.98.81-.92.54-1.64 1.27-2.17 2.13-.27.43-.5.89-.68 1.37-.18.48-.26 1-.32 1.52m-.09 0c.06-.55.14-1.08.33-1.57.19-.5.43-.96.7-1.4.28-.43.6-.83.95-1.19.36-.35.79-.66 1.22-.92 1.76-1.05 3.9-1.34 6.12-.79-.01.44-.04.89-.14 1.33-.1.45-.26.88-.46 1.28-.21.41-.4.8-.68 1.17-.52.74-1.27 1.38-2.06 1.94a9.729 9.729 0 0 1-5.98 1.72c-.06-.51-.06-1.04 0-1.58ZM8.53 41.09c-.05.52-.15 1.03-.3 1.53-2.16-.21-4.1-1.25-5.45-3.11-.69-.94-1.08-2.01-1.31-3.17-.25-1.16-.19-2.38.09-3.59.14-.59.31-1.16.55-1.71 2.07.61 3.83 2.07 4.97 3.93.29.47.52.95.73 1.45.22.5.39 1.01.51 1.52s.19 1.03.22 1.56c.02.52.05 1.06-.01 1.59Z"/><path class="cls-2" d="M1.6 32.76c-.27 1.2-.34 2.41-.09 3.57.23 1.15.63 2.22 1.31 3.15 1.33 1.84 3.25 2.88 5.39 3.1.14-.49.24-.99.29-1.49.06-.53.03-1.06.01-1.58-.02-.52-.09-1.04-.21-1.55-.25-1.02-.69-2.02-1.24-2.96-1.13-1.84-2.87-3.28-4.92-3.89-.23.53-.4 1.09-.53 1.66m-.08-.02c.14-.61.32-1.21.57-1.75 2.16.63 3.92 2.16 5.03 3.96.28.45.5.92.72 1.41.22.49.39 1 .52 1.51.13.52.21 1.04.23 1.58.02.53.05 1.09 0 1.64-.05.54-.16 1.07-.31 1.57a7.532 7.532 0 0 1-5.52-3.13c-.67-.9-1.06-1.96-1.31-3.12-.11-.58-.2-1.19-.17-1.8.02-.61.11-1.24.25-1.87ZM20.96 28.92c-.18.41-.4.79-.67 1.14-.26.36-.53.7-.86 1.01-.64.63-1.51 1.14-2.4 1.56a9.764 9.764 0 0 1-6.14.6c.04-.51.14-1.01.28-1.51.15-.51.34-.99.59-1.44.27-.44.58-.86.93-1.23.7-.75 1.53-1.35 2.54-1.71 1.98-.73 4.1-.56 6.09.32-.08.43-.2.85-.37 1.25Z"/><path class="cls-2" d="M11.22 31.75c-.14.48-.23.97-.28 1.46 2.09.48 4.27.21 6.07-.6.89-.42 1.75-.92 2.39-1.55.33-.31.59-.65.86-1.01.27-.35.49-.73.66-1.14.17-.39.28-.79.36-1.21-1.97-.87-4.07-1.03-6.03-.3-1.01.36-1.83.95-2.53 1.7-.35.37-.66.78-.92 1.22-.24.45-.43.93-.58 1.44m-.08-.02c.16-.53.35-1.03.61-1.49.28-.45.6-.87.95-1.24.7-.75 1.54-1.33 2.52-1.68 1.92-.71 4.08-.6 6.16.34-.09.43-.2.87-.38 1.28-.18.42-.41.82-.69 1.18-.26.37-.54.71-.88 1.02-.65.63-1.51 1.13-2.37 1.53-1.77.79-4 1.12-6.2.6.04-.51.13-1.03.28-1.55ZM10.41 31.51c-.15.5-.34.99-.58 1.45-2.09-.6-3.8-1.97-4.78-4.05-.52-1.05-.7-2.18-.72-3.36 0-.59.04-1.19.17-1.78.14-.58.33-1.17.57-1.74.24-.55.52-1.09.85-1.58 1.93.98 3.39 2.74 4.17 4.77.37 1.02.63 2.09.68 3.15.02.53 0 1.05-.08 1.57-.05.53-.14 1.05-.3 1.56Z"/><path class="cls-2" d="M5.11 22.05c-.24.57-.43 1.14-.57 1.72a8.11 8.11 0 0 0-.17 1.77c.02 1.18.2 2.29.71 3.34.97 2.06 2.66 3.42 4.72 4.03.23-.45.42-.93.56-1.41.15-.51.24-1.03.29-1.56.08-.52.1-1.04.08-1.56-.05-1.05-.31-2.12-.68-3.13-.77-2.01-2.21-3.75-4.12-4.73-.32.48-.59 1-.82 1.53m-.08-.03c.25-.58.54-1.13.88-1.62 2.01 1.02 3.46 2.84 4.22 4.81.36.98.62 2.04.68 3.11.03.53 0 1.06-.07 1.59-.06.54-.14 1.08-.3 1.61-.15.52-.35 1.02-.6 1.49-2.18-.61-3.89-2.06-4.84-4.08-.5-1.01-.7-2.13-.72-3.31 0-.59.03-1.2.16-1.81.14-.6.33-1.2.59-1.79ZM24.85 21.81c-.25.37-.54.71-.86 1.01-.33.3-.65.6-1.03.84-.74.5-1.69.84-2.64 1.1a9.76 9.76 0 0 1-6.14-.53c.13-.49.32-.97.55-1.43.24-.47.52-.91.84-1.31.35-.39.73-.74 1.14-1.04.82-.61 1.75-1.04 2.81-1.21 2.08-.36 4.13.19 5.94 1.43-.17.4-.35.8-.6 1.16Z"/><path class="cls-2" d="M14.76 22.82c-.22.44-.41.91-.54 1.39 1.97.85 4.16.98 6.08.52.95-.25 1.89-.59 2.63-1.09.38-.24.7-.54 1.03-.84a5.475 5.475 0 0 0 1.44-2.13c-1.78-1.21-3.82-1.75-5.88-1.39-1.06.17-1.98.6-2.79 1.21-.41.3-.79.65-1.13 1.04-.32.4-.6.84-.83 1.31m-.08-.04c.25-.49.53-.95.87-1.35.36-.39.75-.75 1.16-1.05a6.45 6.45 0 0 1 2.78-1.19c2.02-.35 4.12.15 6 1.46-.17.41-.36.82-.61 1.19-.26.39-.56.73-.89 1.03-.33.31-.67.6-1.05.85-.76.5-1.69.83-2.61 1.08-1.88.46-4.13.37-6.21-.55.13-.5.32-.99.56-1.47ZM14 22.43c-.23.46-.51.91-.84 1.32-1.94-.97-3.38-2.64-3.96-4.86-.32-1.13-.29-2.27-.09-3.43.11-.58.25-1.16.49-1.71s.53-1.09.88-1.6c.34-.5.7-.98 1.13-1.39 1.71 1.31 2.83 3.3 3.23 5.45.18 1.07.24 2.17.1 3.22-.07.52-.19 1.03-.36 1.53a7.84 7.84 0 0 1-.58 1.48Z"/><path class="cls-2" d="M10.52 12.17c-.34.51-.63 1.05-.87 1.59-.24.55-.38 1.13-.49 1.7-.2 1.16-.22 2.29.09 3.41.58 2.2 1.99 3.85 3.91 4.82a8.073 8.073 0 0 0 1.38-2.77c.17-.49.29-1 .36-1.52.14-1.04.08-2.14-.1-3.2-.39-2.12-1.5-4.09-3.19-5.4-.41.41-.76.87-1.09 1.36m-.07-.05c.35-.52.73-1.01 1.16-1.43 1.79 1.36 2.89 3.42 3.27 5.5.18 1.03.23 2.12.1 3.18a8.12 8.12 0 0 1-.36 1.55c-.15.52-.34 1.03-.59 1.53-.25.49-.53.94-.86 1.35-2.03-1-3.45-2.74-4.02-4.9-.3-1.09-.3-2.22-.1-3.39.11-.58.25-1.18.49-1.74s.54-1.12.9-1.65ZM28.94 8.62c-.81.74-1.77 1.27-2.82 1.61-1.02.37-2.16.54-3.34.49-.08-.51-.1-1.04-.07-1.57.09-1.96 1.07-3.8 2.57-5.14.95-.77 2.03-1.35 3.18-1.61 1.16-.25 2.35-.24 3.47.05a8.89 8.89 0 0 1-.23 1.56c-.21.94-.59 1.77-1.04 2.56-.45.79-1.02 1.49-1.72 2.05Z"/><path class="cls-2" d="M25.3 4.05c-1.49 1.33-2.46 3.15-2.55 5.11-.03.51-.01 1.02.06 1.52 1.17.05 2.3-.12 3.31-.49 1.05-.33 2-.86 2.8-1.59.69-.56 1.27-1.25 1.71-2.04.45-.79.82-1.61 1.03-2.55.11-.49.19-1 .22-1.52-1.11-.28-2.29-.28-3.44-.03-1.14.26-2.2.84-3.14 1.6m-.06-.07c.93-.75 1.99-1.34 3.15-1.62 1.17-.26 2.39-.26 3.57.05-.03.54-.11 1.08-.23 1.61-.22.99-.61 1.83-1.07 2.61-.45.79-1.03 1.47-1.71 2.02a7.48 7.48 0 0 1-2.8 1.6c-1.03.38-2.19.56-3.43.5-.08-.52-.11-1.06-.07-1.61.1-2.06 1.12-3.87 2.58-5.17ZM29.98 15.51c-.62.64-1.39 1.11-2.2 1.48-.82.36-1.81.53-2.8.6a9.65 9.65 0 0 1-5.94-1.63c.22-.46.49-.9.8-1.31.32-.42.67-.81 1.07-1.14.41-.32.85-.6 1.31-.82.46-.23.94-.4 1.43-.53.5-.12 1.03-.16 1.56-.16 2.1.01 4.04.93 5.59 2.48-.25.35-.5.72-.8 1.03Z"/><path class="cls-2" d="M19.87 14.68c-.3.4-.56.83-.78 1.27a9.597 9.597 0 0 0 5.88 1.6c.99-.07 1.97-.24 2.79-.6.81-.37 1.58-.83 2.19-1.47.3-.3.54-.65.78-1-1.54-1.52-3.45-2.42-5.53-2.43-.52 0-1.06.04-1.55.16s-.97.3-1.42.52c-.46.23-.89.5-1.3.82-.4.33-.74.72-1.06 1.13m-.07-.05c.34-.44.69-.84 1.11-1.17.42-.33.87-.6 1.33-.83.46-.22.94-.4 1.43-.52.5-.11 1.02-.15 1.53-.15 2.04 0 4.03.89 5.64 2.52-.26.36-.5.74-.82 1.06-.65.67-1.44 1.14-2.26 1.5-.83.36-1.82.52-2.77.59a9.8 9.8 0 0 1-6.01-1.66c.22-.47.5-.92.82-1.35ZM19.19 14.16c-.31.42-.67.8-1.06 1.15-1.73-1.31-2.84-3.21-3.01-5.5-.1-1.16.13-2.28.54-3.39.4-1.12 1.09-2.13 1.95-3.02.42-.43.86-.84 1.37-1.16 1.44 1.6 2.18 3.75 2.19 5.94 0 .55-.05 1.09-.13 1.62-.07.54-.19 1.06-.36 1.57-.17.5-.38.99-.63 1.44-.25.46-.51.93-.84 1.35Z"/><path class="cls-2" d="M17.64 3.43c-.86.89-1.55 1.88-1.94 3-.4 1.11-.63 2.22-.53 3.37.17 2.27 1.26 4.16 2.97 5.46.38-.34.72-.72 1.03-1.12.33-.42.59-.88.84-1.35.26-.46.47-.94.63-1.44.16-.5.28-1.02.36-1.56.08-.53.14-1.06.13-1.61 0-2.16-.73-4.3-2.15-5.89-.49.32-.91.72-1.32 1.13m-.06-.06c.45-.45.89-.87 1.41-1.19 1.51 1.66 2.21 3.88 2.22 6 0 .53-.05 1.06-.13 1.58-.07.53-.19 1.06-.35 1.57-.16.51-.37 1-.63 1.47s-.52.95-.87 1.4c-.33.44-.7.83-1.09 1.18-1.82-1.35-2.9-3.32-3.06-5.55-.1-1.12.12-2.23.52-3.35.39-1.13 1.09-2.17 1.98-3.09Z"/><path class="cls-4" d="m44.51 11.32-.72-1.26c.45-.3.86-.59 1.24-.89s.73-.63 1.07-.99l.86 1.04c-.32.38-.68.73-1.08 1.07-.4.34-.86.68-1.37 1.03ZM46 3.8c-.34-.38-.68-.75-1.03-1.12-.35-.37-.7-.73-1.05-1.09l1.06-.94c.34.35.69.71 1.03 1.09.34.37.68.75 1.01 1.12L46 3.8Zm-.83 5.28v-2.9h-1.2V4.85h2.68v4.24h-1.48Zm6.36 2.05c-.88 0-1.64-.03-2.27-.08-.63-.05-1.17-.13-1.61-.24-.44-.11-.8-.26-1.09-.44-.29-.19-.52-.42-.7-.7s-.32-.6-.44-.97l1.21-.04c.1.19.23.35.37.49.14.13.32.24.53.34s.49.16.83.22.76.09 1.27.11c.51.02 1.13.03 1.87.03h3.4l-.08 1.28h-3.28Zm-1.42-1.19v-.83h-3.02V7.99h3.02V3.28h-2.54V2.25h2.54v-.48h-1.69v1.14h-1.45V.61h7.76V2.9h-1.44V1.76h-1.64v.48h2.48v1.03h-2.48v4.72h3.12v1.12h-3.12v.83h-1.54Zm-2.75-2.41V3.75h6.96v3.78h-5.56v-.96h4.16v-.52h-4.16V5.2h4.16v-.49h-4.16v2.82h-1.4ZM55.81 4.88V1.6h10.63v3.29h-1.57v-2.1h-7.49v2.1h-1.57Zm.88 6.35V7.22h8.88v4.01h-1.61v-.58H58.3V9.56h5.66V8.41H58.3v2.82h-1.61Zm1.34-8.56c-.16-.36-.33-.71-.52-1.06-.18-.35-.37-.68-.56-.99l1.39-.5c.2.31.39.64.57 1 .18.35.35.71.51 1.07l-1.39.49Zm-.62 3.85V3.28h7.44v3.24h-5.84V5.46h4.25v-.98h-4.25v2.04h-1.6Zm3.74 1.61-1.62-.19c.15-.34.28-.7.4-1.08.11-.38.22-.78.31-1.2l1.64.19c-.1.42-.2.82-.32 1.2s-.26.74-.41 1.08Zm-.3-5.54c-.17-.37-.34-.73-.52-1.08-.18-.35-.36-.69-.55-1.01l1.38-.5c.19.31.38.65.56 1.01.18.36.35.72.52 1.09l-1.39.49Zm3.35-.06-1.42-.35c.22-.35.42-.7.62-1.06.2-.35.37-.7.53-1.04l1.43.34c-.16.34-.34.68-.53 1.04-.2.36-.41.72-.63 1.07ZM67.87 5.08l-.62-1.31c.64-.34 1.23-.69 1.76-1.03s1.05-.7 1.54-1.09S71.52.85 72 .4h2.02c.48.45.96.86 1.45 1.25.49.38 1 .75 1.54 1.09s1.12.68 1.76 1.03l-.62 1.31c-.98-.5-1.9-1.06-2.74-1.66a20.5 20.5 0 0 1-2.39-1.99 20.5 20.5 0 0 1-2.39 1.99c-.84.6-1.76 1.15-2.74 1.66Zm-.02 2.21V5.97h10.32v1.32H67.85Zm.41 3.72-.1-1.32c1.36-.05 2.76-.13 4.2-.24 1.44-.11 2.9-.26 4.37-.44l.12 1.28c-1.49.19-2.95.35-4.4.47-1.44.12-2.84.21-4.19.25Zm1.36-6.04V3.69h6.79v1.28h-6.79Zm1.45 5.62-1.43-.56a29.799 29.799 0 0 0 1.8-3.8l1.51.43c-.28.7-.58 1.39-.9 2.05s-.65 1.29-.98 1.88Zm5.81.84c-.16-.35-.34-.73-.55-1.13s-.41-.81-.61-1.21-.4-.78-.59-1.13l1.37-.53c.19.36.39.74.61 1.15.21.41.42.81.62 1.21.2.4.39.78.56 1.13l-1.42.52ZM79.25 8.54l-.37-1.63c.85-.46 1.56-1.01 2.13-1.63s1.02-1.32 1.34-2.11l1.51.38c-.26.66-.59 1.28-.98 1.85-.39.57-.83 1.1-1.33 1.58v-.24c-.19.22-.41.43-.67.65s-.52.42-.79.61c-.28.19-.56.37-.85.53Zm-.02-4.98v-1.4h1.51V.4h1.57v1.76h1.55v1.4h-4.63Zm1.48 7.73V6h1.57v5.29h-1.57Zm3.1-3.01c-.28-.34-.62-.72-1.03-1.14-.4-.42-.79-.82-1.16-1.19l.98-.98.79.79c.28.28.54.55.8.82.26.27.48.52.67.75l-1.06.95Zm-.25 2.65V9.51h2.9V4.16h-2.5V2.79h2.5V.49h1.6v2.3h2.03v1.37h-2.03v5.35h2.17v1.42h-6.67Z"/><path class="cls-1" d="M35.11 54.05c-2.63 0-5.09-.43-7.33-1.28-2.27-.86-4.29-2.1-6-3.7a17.075 17.075 0 0 1-4.05-5.77c-.96-2.21-1.44-4.64-1.44-7.23s.49-5.02 1.44-7.23c.96-2.22 2.34-4.17 4.09-5.78 1.72-1.59 3.76-2.83 6.06-3.69 2.26-.84 4.76-1.27 7.43-1.27 3.03 0 5.83.53 8.32 1.58 2.59 1.09 4.77 2.71 6.49 4.79a3.995 3.995 0 0 1-.41 5.51l-1.94 1.76c1.54.56 2.64 2.03 2.64 3.76v11.14c0 1.3-.63 2.52-1.7 3.27-1.92 1.35-4.11 2.39-6.54 3.1-2.37.69-4.74 1.04-7.06 1.04Zm.54-21.66c-.66 0-1.24.09-1.73.28-.4.15-.72.35-.98.62-.29.29-.51.65-.69 1.1-.19.48-.28 1.04-.28 1.69s.09 1.17.28 1.65c.17.45.4.8.68 1.09.28.28.61.5 1.02.66.46.18.99.27 1.62.27h.07v-4.26c0-1.17.5-2.22 1.3-2.95-.39-.1-.82-.15-1.29-.15Z"/><path class="cls-1" d="M35.11 54.05c-2.63 0-5.09-.43-7.33-1.28-2.27-.86-4.29-2.1-6-3.7a17.075 17.075 0 0 1-4.05-5.77c-.96-2.21-1.44-4.64-1.44-7.23s.49-5.02 1.44-7.23c.96-2.22 2.34-4.17 4.09-5.78 1.72-1.59 3.76-2.83 6.06-3.69 2.26-.84 4.76-1.27 7.43-1.27 3.03 0 5.83.53 8.32 1.58 2.59 1.09 4.77 2.71 6.49 4.79a3.995 3.995 0 0 1-.41 5.51l-1.94 1.76c1.54.56 2.64 2.03 2.64 3.76v11.14c0 1.3-.63 2.52-1.7 3.27-1.92 1.35-4.11 2.39-6.54 3.1-2.37.69-4.74 1.04-7.06 1.04Zm.54-21.66c-.66 0-1.24.09-1.73.28-.4.15-.72.35-.98.62-.29.29-.51.65-.69 1.1-.19.48-.28 1.04-.28 1.69s.09 1.17.28 1.65c.17.45.4.8.68 1.09.28.28.61.5 1.02.66.46.18.99.27 1.62.27h.07v-4.26c0-1.17.5-2.22 1.3-2.95-.39-.1-.82-.15-1.29-.15Z"/><path class="cls-1" d="M73.84 53.52c-2.2 0-3.99-1.78-4-3.98-.75.83-1.83 1.33-2.99 1.33h-3.38c-1.1 0-2.13-.45-2.88-1.22a4 4 0 0 1-4 3.87H49.6c-2.21 0-4-1.79-4-4V22.64c0-2.21 1.79-4 4-4h6.26c1.4 0 2.69.73 3.42 1.92l5.97 9.84 5.83-9.81a4.012 4.012 0 0 1 3.44-1.96h6.26c2.21 0 4 1.79 4 3.99l.04 26.88c0 1.06-.42 2.08-1.17 2.83s-1.77 1.17-2.83 1.17h-6.99Z"/><path class="cls-1" d="M73.84 53.52c-2.2 0-3.99-1.78-4-3.98-.75.83-1.83 1.33-2.99 1.33h-3.38c-1.1 0-2.13-.45-2.88-1.22a4 4 0 0 1-4 3.87H49.6c-2.21 0-4-1.79-4-4V22.64c0-2.21 1.79-4 4-4h6.26c1.4 0 2.69.73 3.42 1.92l5.97 9.84 5.83-9.81a4.012 4.012 0 0 1 3.44-1.96h6.26c2.21 0 4 1.79 4 3.99l.04 26.88c0 1.06-.42 2.08-1.17 2.83s-1.77 1.17-2.83 1.17h-6.99Z"/><path class="cls-1" d="M98.78 54.05c-2.6 0-5.07-.44-7.35-1.29-2.32-.88-4.37-2.15-6.09-3.78a17.92 17.92 0 0 1-4.03-5.73c-.98-2.21-1.48-4.63-1.48-7.21s.5-4.97 1.48-7.16c.96-2.16 2.32-4.08 4.02-5.7 1.71-1.63 3.75-2.9 6.06-3.78 2.26-.86 4.75-1.3 7.37-1.3s5.11.44 7.37 1.3c2.3.88 4.34 2.14 6.04 3.75 1.71 1.61 3.07 3.53 4.04 5.69.98 2.2 1.48 4.62 1.48 7.2s-.49 5.02-1.45 7.22-2.33 4.14-4.07 5.76a18.36 18.36 0 0 1-6.05 3.73c-2.27.86-4.75 1.3-7.37 1.3Zm0-21.66c-.51 0-.95.08-1.36.25-.37.15-.69.36-.97.65-.28.28-.49.63-.65 1.05-.18.47-.27 1.06-.27 1.74s.09 1.26.27 1.73c.16.43.38.77.66 1.05.28.29.6.5.97.65.4.16.85.24 1.36.24s.95-.08 1.35-.24c.37-.15.67-.35.93-.62.29-.3.52-.67.7-1.12.18-.46.28-1.03.28-1.69s-.09-1.23-.28-1.69c-.18-.45-.41-.82-.7-1.12-.26-.27-.56-.47-.92-.62a3.47 3.47 0 0 0-1.36-.25Z"/><path class="cls-1" d="M98.78 54.05c-2.6 0-5.07-.44-7.35-1.29-2.32-.88-4.37-2.15-6.09-3.78a17.92 17.92 0 0 1-4.03-5.73c-.98-2.21-1.48-4.63-1.48-7.21s.5-4.97 1.48-7.16c.96-2.16 2.32-4.08 4.02-5.7 1.71-1.63 3.75-2.9 6.06-3.78 2.26-.86 4.75-1.3 7.37-1.3s5.11.44 7.37 1.3c2.3.88 4.34 2.14 6.04 3.75 1.71 1.61 3.07 3.53 4.04 5.69.98 2.2 1.48 4.62 1.48 7.2s-.49 5.02-1.45 7.22-2.33 4.14-4.07 5.76a18.36 18.36 0 0 1-6.05 3.73c-2.27.86-4.75 1.3-7.37 1.3Zm0-21.66c-.51 0-.95.08-1.36.25-.37.15-.69.36-.97.65-.28.28-.49.63-.65 1.05-.18.47-.27 1.06-.27 1.74s.09 1.26.27 1.73c.16.43.38.77.66 1.05.28.29.6.5.97.65.4.16.85.24 1.36.24s.95-.08 1.35-.24c.37-.15.67-.35.93-.62.29-.3.52-.67.7-1.12.18-.46.28-1.03.28-1.69s-.09-1.23-.28-1.69c-.18-.45-.41-.82-.7-1.12-.26-.27-.56-.47-.92-.62a3.47 3.47 0 0 0-1.36-.25ZM26.05 71.1c-2.21 0-4-1.79-4-4v-.96c-.19.04-.37.07-.56.1-.22.04-.44.06-.66.06-.83 0-1.64-.26-2.32-.74a4 4 0 0 1-1.62-2.6l-.35-2.1c-.18-1.06.08-2.14.71-3.01.63-.87 1.58-1.45 2.64-1.6.7-.1 1.46-.29 2.25-.56.84-.28 1.69-.63 2.52-1.04.83-.41 1.61-.86 2.32-1.35.66-.45 1.22-.91 1.68-1.37.75-.75 1.77-1.17 2.83-1.17h.14c1.11.04 2.15.54 2.88 1.37l1.41 1.62a4.005 4.005 0 0 1-.16 5.43c-.71.72-1.53 1.42-2.43 2.07-.27.19-.55.38-.83.57v5.29c0 2.21-1.79 4-4 4h-2.44Z"/><path class="cls-1" d="M26.05 71.1c-2.21 0-4-1.79-4-4v-.96c-.19.04-.37.07-.56.1-.22.04-.44.06-.66.06-.83 0-1.64-.26-2.32-.74a4 4 0 0 1-1.62-2.6l-.35-2.1c-.18-1.06.08-2.14.71-3.01.63-.87 1.58-1.45 2.64-1.6.7-.1 1.46-.29 2.25-.56.84-.28 1.69-.63 2.52-1.04.83-.41 1.61-.86 2.32-1.35.66-.45 1.22-.91 1.68-1.37.75-.75 1.77-1.17 2.83-1.17h.14c1.11.04 2.15.54 2.88 1.37l1.41 1.62a4.005 4.005 0 0 1-.16 5.43c-.71.72-1.53 1.42-2.43 2.07-.27.19-.55.38-.83.57v5.29c0 2.21-1.79 4-4 4h-2.44Z"/><path class="cls-1" d="M35.26 70.65c-1.96 0-3.65-1.43-3.95-3.4l-.34-2.21c-.16-1.08.12-2.18.79-3.05.3-.38.66-.71 1.06-.96-1-.42-1.78-1.24-2.17-2.26a4.03 4.03 0 0 1 .21-3.31l1.08-2.02a4.012 4.012 0 0 1 3.53-2.12c.45 0 .91.08 1.35.24 1.67.6 3.34 1.34 4.98 2.2.67-.5 1.5-.79 2.37-.79.29 0 .58.03.87.09l2.16.48c2.1.46 3.46 2.51 3.07 4.62-.45 2.46-1.31 4.61-2.56 6.38-1.31 1.86-3.06 3.32-5.19 4.34-1.94.93-4.27 1.51-6.92 1.74-.12 0-.23.01-.35.01Z"/><path class="cls-1" d="M35.26 70.65c-1.96 0-3.65-1.43-3.95-3.4l-.34-2.21c-.16-1.08.12-2.18.79-3.05.3-.38.66-.71 1.06-.96-1-.42-1.78-1.24-2.17-2.26a4.03 4.03 0 0 1 .21-3.31l1.08-2.02a4.012 4.012 0 0 1 3.53-2.12c.45 0 .91.08 1.35.24 1.67.6 3.34 1.34 4.98 2.2.67-.5 1.5-.79 2.37-.79.29 0 .58.03.87.09l2.16.48c2.1.46 3.46 2.51 3.07 4.62-.45 2.46-1.31 4.61-2.56 6.38-1.31 1.86-3.06 3.32-5.19 4.34-1.94.93-4.27 1.51-6.92 1.74-.12 0-.23.01-.35.01Z"/><path class="cls-1" d="M49.57 70.93a3.99 3.99 0 0 1-3.77-2.68l-.71-2.04c-.25-.73-.29-1.5-.12-2.24l-1.02-1.06c-.8-.84-1.2-1.98-1.09-3.14s.71-2.21 1.66-2.88c.45-.32.88-.69 1.28-1.12.39-.41.74-.86 1.04-1.34.29-.46.51-.9.66-1.33a4.002 4.002 0 0 1 4.39-2.6l2.3.36c.88.14 1.67.56 2.27 1.2h2.88c2.21 0 4 1.79 4 4V57c0 1.48-.21 2.9-.64 4.23-.42 1.34-1.04 2.58-1.84 3.71a13.65 13.65 0 0 1-2.91 2.97c-1.09.81-2.33 1.48-3.67 1.99-1.32.5-2.75.84-4.27 1.01-.15.02-.29.02-.44.02Z"/><path class="cls-1" d="M49.57 70.93a3.99 3.99 0 0 1-3.77-2.68l-.71-2.04c-.25-.73-.29-1.5-.12-2.24l-1.02-1.06c-.8-.84-1.2-1.98-1.09-3.14s.71-2.21 1.66-2.88c.45-.32.88-.69 1.28-1.12.39-.41.74-.86 1.04-1.34.29-.46.51-.9.66-1.33a4.002 4.002 0 0 1 4.39-2.6l2.3.36c.88.14 1.67.56 2.27 1.2h2.88c2.21 0 4 1.79 4 4V57c0 1.48-.21 2.9-.64 4.23-.42 1.34-1.04 2.58-1.84 3.71a13.65 13.65 0 0 1-2.91 2.97c-1.09.81-2.33 1.48-3.67 1.99-1.32.5-2.75.84-4.27 1.01-.15.02-.29.02-.44.02Z"/><rect class="cls-1" x="57.18" y="55.86" width="19.65" height="10.27" rx="4" ry="4"/><rect class="cls-1" x="57.18" y="55.86" width="19.65" height="10.27" rx="4" ry="4"/><path class="cls-1" d="M79.19 71.38a3.99 3.99 0 0 1-3.81-2.79c-.22.04-.45.06-.67.06-1.79 0-3.39-1.2-3.86-2.98l-.55-2.07c-.28-1.07-.11-2.2.48-3.14.06-.09.12-.19.19-.27-.16-.43-.25-.9-.25-1.39v-2.03c0-2.21 1.79-4 4-4h.93a4.013 4.013 0 0 1 3.55-2.16h2.38c1.54 0 2.88.88 3.55 2.16h1.04c2.21 0 4 1.79 4 4v2.03c0 .77-.22 1.52-.64 2.16.11.11.22.22.32.33a3.998 3.998 0 0 1-.36 5.82l-1.71 1.41c-.75.62-1.65.92-2.55.92H85a3.999 3.999 0 0 1-3.43 1.94h-2.38Z"/><path class="cls-1" d="M79.19 71.38a3.99 3.99 0 0 1-3.81-2.79c-.22.04-.45.06-.67.06-1.79 0-3.39-1.2-3.86-2.98l-.55-2.07c-.28-1.07-.11-2.2.48-3.14.06-.09.12-.19.19-.27-.16-.43-.25-.9-.25-1.39v-2.03c0-2.21 1.79-4 4-4h.93a4.013 4.013 0 0 1 3.55-2.16h2.38c1.54 0 2.88.88 3.55 2.16h1.04c2.21 0 4 1.79 4 4v2.03c0 .77-.22 1.52-.64 2.16.11.11.22.22.32.33a3.998 3.998 0 0 1-.36 5.82l-1.71 1.41c-.75.62-1.65.92-2.55.92H85a3.999 3.999 0 0 1-3.43 1.94h-2.38Z"/><path class="cls-1" d="M90.63 70.54c-1.91 0-3.57-1.36-3.93-3.26l-.36-1.93c-.09-.45-.09-.91-.02-1.36-.12-.26-.2-.53-.26-.81-.13-.62-.27-1.23-.43-1.84-.15-.57-.31-1.11-.48-1.6-.37-1.07-.26-2.25.28-3.24s1.49-1.7 2.59-1.96l1.99-.46c.3-.07.61-.11.91-.11.27 0 .55.03.81.08l1.33-.32c.31-.08.63-.11.94-.11.52 0 1.03.1 1.51.3.37-.11.76-.17 1.15-.17h.22l2.07.11c2.12.12 3.78 1.87 3.78 3.99 0 1.84-.19 3.42-.58 4.82-.46 1.67-1.25 3.1-2.33 4.26-1.07 1.14-2.43 2.02-4.06 2.61-1.39.51-2.96.83-4.81.98-.11 0-.22.01-.33.01Z"/><path class="cls-1" d="M90.63 70.54c-1.91 0-3.57-1.36-3.93-3.26l-.36-1.93c-.09-.45-.09-.91-.02-1.36-.12-.26-.2-.53-.26-.81-.13-.62-.27-1.23-.43-1.84-.15-.57-.31-1.11-.48-1.6-.37-1.07-.26-2.25.28-3.24s1.49-1.7 2.59-1.96l1.99-.46c.3-.07.61-.11.91-.11.27 0 .55.03.81.08l1.33-.32c.31-.08.63-.11.94-.11.52 0 1.03.1 1.51.3.37-.11.76-.17 1.15-.17h.22l2.07.11c2.12.12 3.78 1.87 3.78 3.99 0 1.84-.19 3.42-.58 4.82-.46 1.67-1.25 3.1-2.33 4.26-1.07 1.14-2.43 2.02-4.06 2.61-1.39.51-2.96.83-4.81.98-.11 0-.22.01-.33.01Z"/><path class="cls-1" d="M103.04 71.1c-2.21 0-4-1.79-4-4V54.89c0-2.21 1.79-4 4-4h2.38c2.21 0 4 1.79 4 4v.98c.31.08.63.17.94.26 1.54.43 3.03.9 4.44 1.39 2.07.72 3.18 2.97 2.48 5.04l-.71 2.14a4.02 4.02 0 0 1-3.8 2.74 4.1 4.1 0 0 1-1.29-.21c-.69-.24-1.38-.46-2.08-.68v.54c0 2.21-1.79 4-4 4h-2.38Z"/><path class="cls-1" d="M103.04 71.1c-2.21 0-4-1.79-4-4V54.89c0-2.21 1.79-4 4-4h2.38c2.21 0 4 1.79 4 4v.98c.31.08.63.17.94.26 1.54.43 3.03.9 4.44 1.39 2.07.72 3.18 2.97 2.48 5.04l-.71 2.14a4.02 4.02 0 0 1-3.8 2.74 4.1 4.1 0 0 1-1.29-.21c-.69-.24-1.38-.46-2.08-.68v.54c0 2.21-1.79 4-4 4h-2.38ZM29.32 85.93c-1.69 0-3.22-1.07-3.78-2.71l-.7-2.04a4.04 4.04 0 0 1-.15-2.01l-.97-1.02c-.8-.84-1.2-1.98-1.09-3.14s.71-2.21 1.66-2.88a9.126 9.126 0 0 0 2.33-2.46c.29-.45.51-.88.66-1.3a4.002 4.002 0 0 1 4.39-2.6l2.15.34.43-.26c.64-.39 1.36-.58 2.07-.58.29 0 .59.03.87.1a3.99 3.99 0 0 1 4.82 1.37c.39.55.75 1.12 1.05 1.7.29.54.57 1.13.83 1.75.69 1.61.24 3.43-1 4.54-.11.59-.25 1.17-.43 1.73-.43 1.31-1.06 2.54-1.86 3.64-.81 1.1-1.79 2.08-2.93 2.89a15.73 15.73 0 0 1-3.66 1.93c-1.31.49-2.74.82-4.26.98-.15.02-.29.02-.44.02Z"/><path class="cls-1" d="M29.32 85.93c-1.69 0-3.22-1.07-3.78-2.71l-.7-2.04a4.04 4.04 0 0 1-.15-2.01l-.97-1.02c-.8-.84-1.2-1.98-1.09-3.14s.71-2.21 1.66-2.88a9.126 9.126 0 0 0 2.33-2.46c.29-.45.51-.88.66-1.3a4.002 4.002 0 0 1 4.39-2.6l2.15.34.43-.26c.64-.39 1.36-.58 2.07-.58.29 0 .59.03.87.1a3.99 3.99 0 0 1 4.82 1.37c.39.55.75 1.12 1.05 1.7.29.54.57 1.13.83 1.75.69 1.61.24 3.43-1 4.54-.11.59-.25 1.17-.43 1.73-.43 1.31-1.06 2.54-1.86 3.64-.81 1.1-1.79 2.08-2.93 2.89a15.73 15.73 0 0 1-3.66 1.93c-1.31.49-2.74.82-4.26.98-.15.02-.29.02-.44.02Z"/><path class="cls-1" d="M41.17 85.81c-1.36 0-2.66-.69-3.41-1.91l-1.18-1.92c-.59-.97-.75-2.15-.42-3.24s1.1-1.99 2.13-2.47l.12-.06v-.04c.03-.29.08-.82.08-1.7v-4.3c0-2.21 1.79-4 4-4h2.27c.31 0 .61.04.9.1.29-.07.59-.1.9-.1h2.32c2.21 0 4 1.79 4 4v.86l1.36.19c2.12.29 3.64 2.21 3.44 4.34-.18 1.91-.66 3.6-1.43 5.03-.88 1.63-2.1 2.9-3.64 3.77-1.48.84-3.19 1.26-5.09 1.26h-.97c-.92 0-1.77-.31-2.44-.83-.42.25-.87.48-1.35.69-.51.22-1.05.33-1.58.33Z"/><path class="cls-1" d="M41.17 85.81c-1.36 0-2.66-.69-3.41-1.91l-1.18-1.92c-.59-.97-.75-2.15-.42-3.24s1.1-1.99 2.13-2.47l.12-.06v-.04c.03-.29.08-.82.08-1.7v-4.3c0-2.21 1.79-4 4-4h2.27c.31 0 .61.04.9.1.29-.07.59-.1.9-.1h2.32c2.21 0 4 1.79 4 4v.86l1.36.19c2.12.29 3.64 2.21 3.44 4.34-.18 1.91-.66 3.6-1.43 5.03-.88 1.63-2.1 2.9-3.64 3.77-1.48.84-3.19 1.26-5.09 1.26h-.97c-.92 0-1.77-.31-2.44-.83-.42.25-.87.48-1.35.69-.51.22-1.05.33-1.58.33Z"/><rect class="cls-1" x="50.46" y="70.86" width="19.65" height="10.27" rx="4" ry="4"/><rect class="cls-1" x="50.46" y="70.86" width="19.65" height="10.27" rx="4" ry="4"/><path class="cls-1" d="M68.78 85.72c-1.92 0-3.57-1.37-3.93-3.26l-.39-2.09a4.01 4.01 0 0 1 1.34-3.78 4.007 4.007 0 0 1-2.03-3.48v-2.14c0-2.21 1.79-4 4-4h6.43c.38-.41.82-.76 1.32-1.05.93-.56 2-.85 3.09-.85s2.21.3 3.14.87c.85.52 1.53 1.21 2.05 2.04.57.93.88 2.02.88 3.14s-.29 2.15-.85 3.08c-.35.58-.77 1.09-1.28 1.52a13.13 13.13 0 0 1-1.23 3.37c-1.16 2.17-2.88 3.84-5.13 4.98-2.03 1.03-4.48 1.58-7.29 1.65h-.1Z"/><path class="cls-1" d="M68.78 85.72c-1.92 0-3.57-1.37-3.93-3.26l-.39-2.09a4.01 4.01 0 0 1 1.34-3.78 4.007 4.007 0 0 1-2.03-3.48v-2.14c0-2.21 1.79-4 4-4h6.43c.38-.41.82-.76 1.32-1.05.93-.56 2-.85 3.09-.85s2.21.3 3.14.87c.85.52 1.53 1.21 2.05 2.04.57.93.88 2.02.88 3.14s-.29 2.15-.85 3.08c-.35.58-.77 1.09-1.28 1.52a13.13 13.13 0 0 1-1.23 3.37c-1.16 2.17-2.88 3.84-5.13 4.98-2.03 1.03-4.48 1.58-7.29 1.65h-.1Z"/><path class="cls-1" d="M91.42 86.62c-.97 0-1.91-.36-2.63-.99-.69.06-1.36.12-2.03.17-1.71.13-3.41.22-5.04.28h-.14c-2.12 0-3.88-1.66-3.99-3.79l-.1-1.82c-.01-.26 0-.51.03-.76-.28-.55-.44-1.17-.44-1.83v-1.91l-.38-.86a3.994 3.994 0 0 1 1.79-5.17c.66-.35 1.26-.69 1.78-1.01.49-.31.95-.63 1.36-.96.43-.34.86-.73 1.29-1.16.75-.75 1.77-1.17 2.83-1.17h2.86c1.05 0 2.06.41 2.8 1.15.45.44.89.84 1.33 1.19.41.33.86.65 1.34.96.52.33 1.12.67 1.77 1.01 1.87.98 2.65 3.25 1.79 5.17l-.38.86v1.91c0 .68-.17 1.31-.46 1.87.09.21.18.42.27.61.44 1.02.43 2.18-.02 3.2a3.992 3.992 0 0 1-2.36 2.16l-1.96.67c-.43.15-.87.22-1.3.22Z"/><path class="cls-1" d="M91.42 86.62c-.97 0-1.91-.36-2.63-.99-.69.06-1.36.12-2.03.17-1.71.13-3.41.22-5.04.28h-.14c-2.12 0-3.88-1.66-3.99-3.79l-.1-1.82c-.01-.26 0-.51.03-.76-.28-.55-.44-1.17-.44-1.83v-1.91l-.38-.86a3.994 3.994 0 0 1 1.79-5.17c.66-.35 1.26-.69 1.78-1.01.49-.31.95-.63 1.36-.96.43-.34.86-.73 1.29-1.16.75-.75 1.77-1.17 2.83-1.17h2.86c1.05 0 2.06.41 2.8 1.15.45.44.89.84 1.33 1.19.41.33.86.65 1.34.96.52.33 1.12.67 1.77 1.01 1.87.98 2.65 3.25 1.79 5.17l-.38.86v1.91c0 .68-.17 1.31-.46 1.87.09.21.18.42.27.61.44 1.02.43 2.18-.02 3.2a3.992 3.992 0 0 1-2.36 2.16l-1.96.67c-.43.15-.87.22-1.3.22Z"/><path class="cls-1" d="M95.9 86.38c-2.19 0-3.96-1.75-4-3.93a4.04 4.04 0 0 1-1.42-2.28l-.49-2.24c-.23-1.07-.02-2.15.55-3.03-.15-.42-.24-.88-.24-1.36v-1.93c0-1.45.77-2.72 1.92-3.42a3.994 3.994 0 0 1 3.74-2.58h2.16c.84 0 1.62.26 2.26.7.62-.4 1.36-.63 2.15-.63h2.23c1.88 0 3.46 1.3 3.89 3.05 1.38.63 2.34 2.02 2.34 3.64v1.88c0 1.1-.45 2.1-1.17 2.83.83.73 1.35 1.8 1.35 3v1.93c0 2.21-1.79 4-4 4h-7.4c-.52.24-1.09.38-1.7.38H95.9Z"/><path class="cls-1" d="M95.9 86.38c-2.19 0-3.96-1.75-4-3.93a4.04 4.04 0 0 1-1.42-2.28l-.49-2.24c-.23-1.07-.02-2.15.55-3.03-.15-.42-.24-.88-.24-1.36v-1.93c0-1.45.77-2.72 1.92-3.42a3.994 3.994 0 0 1 3.74-2.58h2.16c.84 0 1.62.26 2.26.7.62-.4 1.36-.63 2.15-.63h2.23c1.88 0 3.46 1.3 3.89 3.05 1.38.63 2.34 2.02 2.34 3.64v1.88c0 1.1-.45 2.1-1.17 2.83.83.73 1.35 1.8 1.35 3v1.93c0 2.21-1.79 4-4 4h-7.4c-.52.24-1.09.38-1.7.38H95.9ZM35.11 54.05c-2.63 0-5.09-.43-7.33-1.28-2.27-.86-4.29-2.1-6-3.7a17.075 17.075 0 0 1-4.05-5.77c-.96-2.21-1.44-4.64-1.44-7.23s.49-5.02 1.44-7.23c.96-2.22 2.34-4.17 4.09-5.78 1.72-1.59 3.76-2.83 6.06-3.69 2.26-.84 4.76-1.27 7.43-1.27 3.03 0 5.83.53 8.32 1.58 2.59 1.09 4.77 2.71 6.49 4.79a3.995 3.995 0 0 1-.41 5.51l-1.94 1.76c1.54.56 2.64 2.03 2.64 3.76v11.14c0 1.3-.63 2.52-1.7 3.27-1.92 1.35-4.11 2.39-6.54 3.1-2.37.69-4.74 1.04-7.06 1.04Zm.54-21.66c-.66 0-1.24.09-1.73.28-.4.15-.72.35-.98.62-.29.29-.51.65-.69 1.1-.19.48-.28 1.04-.28 1.69s.09 1.17.28 1.65c.17.45.4.8.68 1.09.28.28.61.5 1.02.66.46.18.99.27 1.62.27h.07v-4.26c0-1.17.5-2.22 1.3-2.95-.39-.1-.82-.15-1.29-.15Z"/><path class="cls-1" d="M35.11 54.05c-2.63 0-5.09-.43-7.33-1.28-2.27-.86-4.29-2.1-6-3.7a17.075 17.075 0 0 1-4.05-5.77c-.96-2.21-1.44-4.64-1.44-7.23s.49-5.02 1.44-7.23c.96-2.22 2.34-4.17 4.09-5.78 1.72-1.59 3.76-2.83 6.06-3.69 2.26-.84 4.76-1.27 7.43-1.27 3.03 0 5.83.53 8.32 1.58 2.59 1.09 4.77 2.71 6.49 4.79a3.995 3.995 0 0 1-.41 5.51l-1.94 1.76c1.54.56 2.64 2.03 2.64 3.76v11.14c0 1.3-.63 2.52-1.7 3.27-1.92 1.35-4.11 2.39-6.54 3.1-2.37.69-4.74 1.04-7.06 1.04Zm.54-21.66c-.66 0-1.24.09-1.73.28-.4.15-.72.35-.98.62-.29.29-.51.65-.69 1.1-.19.48-.28 1.04-.28 1.69s.09 1.17.28 1.65c.17.45.4.8.68 1.09.28.28.61.5 1.02.66.46.18.99.27 1.62.27h.07v-4.26c0-1.17.5-2.22 1.3-2.95-.39-.1-.82-.15-1.29-.15Z"/><path class="cls-1" d="M73.84 53.52c-2.2 0-3.99-1.78-4-3.98-.75.83-1.83 1.33-2.99 1.33h-3.38c-1.1 0-2.13-.45-2.88-1.22a4 4 0 0 1-4 3.87H49.6c-2.21 0-4-1.79-4-4V22.64c0-2.21 1.79-4 4-4h6.26c1.4 0 2.69.73 3.42 1.92l5.97 9.84 5.83-9.81a4.012 4.012 0 0 1 3.44-1.96h6.26c2.21 0 4 1.79 4 3.99l.04 26.88c0 1.06-.42 2.08-1.17 2.83s-1.77 1.17-2.83 1.17h-6.99Z"/><path class="cls-1" d="M73.84 53.52c-2.2 0-3.99-1.78-4-3.98-.75.83-1.83 1.33-2.99 1.33h-3.38c-1.1 0-2.13-.45-2.88-1.22a4 4 0 0 1-4 3.87H49.6c-2.21 0-4-1.79-4-4V22.64c0-2.21 1.79-4 4-4h6.26c1.4 0 2.69.73 3.42 1.92l5.97 9.84 5.83-9.81a4.012 4.012 0 0 1 3.44-1.96h6.26c2.21 0 4 1.79 4 3.99l.04 26.88c0 1.06-.42 2.08-1.17 2.83s-1.77 1.17-2.83 1.17h-6.99Z"/><path class="cls-1" d="M98.78 54.05c-2.6 0-5.07-.44-7.35-1.29-2.32-.88-4.37-2.15-6.09-3.78a17.92 17.92 0 0 1-4.03-5.73c-.98-2.21-1.48-4.63-1.48-7.21s.5-4.97 1.48-7.16c.96-2.16 2.32-4.08 4.02-5.7 1.71-1.63 3.75-2.9 6.06-3.78 2.26-.86 4.75-1.3 7.37-1.3s5.11.44 7.37 1.3c2.3.88 4.34 2.14 6.04 3.75 1.71 1.61 3.07 3.53 4.04 5.69.98 2.2 1.48 4.62 1.48 7.2s-.49 5.02-1.45 7.22-2.33 4.14-4.07 5.76a18.36 18.36 0 0 1-6.05 3.73c-2.27.86-4.75 1.3-7.37 1.3Zm0-21.66c-.51 0-.95.08-1.36.25-.37.15-.69.36-.97.65-.28.28-.49.63-.65 1.05-.18.47-.27 1.06-.27 1.74s.09 1.26.27 1.73c.16.43.38.77.66 1.05.28.29.6.5.97.65.4.16.85.24 1.36.24s.95-.08 1.35-.24c.37-.15.67-.35.93-.62.29-.3.52-.67.7-1.12.18-.46.28-1.03.28-1.69s-.09-1.23-.28-1.69c-.18-.45-.41-.82-.7-1.12-.26-.27-.56-.47-.92-.62a3.47 3.47 0 0 0-1.36-.25Z"/><path class="cls-1" d="M98.78 54.05c-2.6 0-5.07-.44-7.35-1.29-2.32-.88-4.37-2.15-6.09-3.78a17.92 17.92 0 0 1-4.03-5.73c-.98-2.21-1.48-4.63-1.48-7.21s.5-4.97 1.48-7.16c.96-2.16 2.32-4.08 4.02-5.7 1.71-1.63 3.75-2.9 6.06-3.78 2.26-.86 4.75-1.3 7.37-1.3s5.11.44 7.37 1.3c2.3.88 4.34 2.14 6.04 3.75 1.71 1.61 3.07 3.53 4.04 5.69.98 2.2 1.48 4.62 1.48 7.2s-.49 5.02-1.45 7.22-2.33 4.14-4.07 5.76a18.36 18.36 0 0 1-6.05 3.73c-2.27.86-4.75 1.3-7.37 1.3Zm0-21.66c-.51 0-.95.08-1.36.25-.37.15-.69.36-.97.65-.28.28-.49.63-.65 1.05-.18.47-.27 1.06-.27 1.74s.09 1.26.27 1.73c.16.43.38.77.66 1.05.28.29.6.5.97.65.4.16.85.24 1.36.24s.95-.08 1.35-.24c.37-.15.67-.35.93-.62.29-.3.52-.67.7-1.12.18-.46.28-1.03.28-1.69s-.09-1.23-.28-1.69c-.18-.45-.41-.82-.7-1.12-.26-.27-.56-.47-.92-.62a3.47 3.47 0 0 0-1.36-.25ZM26.05 71.1c-2.21 0-4-1.79-4-4v-.96c-.19.04-.37.07-.56.1-.22.04-.44.06-.66.06-.83 0-1.64-.26-2.32-.74a4 4 0 0 1-1.62-2.6l-.35-2.1c-.18-1.06.08-2.14.71-3.01.63-.87 1.58-1.45 2.64-1.6.7-.1 1.46-.29 2.25-.56.84-.28 1.69-.63 2.52-1.04.83-.41 1.61-.86 2.32-1.35.66-.45 1.22-.91 1.68-1.37.75-.75 1.77-1.17 2.83-1.17h.14c1.11.04 2.15.54 2.88 1.37l1.41 1.62a4.005 4.005 0 0 1-.16 5.43c-.71.72-1.53 1.42-2.43 2.07-.27.19-.55.38-.83.57v5.29c0 2.21-1.79 4-4 4h-2.44Z"/><path class="cls-1" d="M26.05 71.1c-2.21 0-4-1.79-4-4v-.96c-.19.04-.37.07-.56.1-.22.04-.44.06-.66.06-.83 0-1.64-.26-2.32-.74a4 4 0 0 1-1.62-2.6l-.35-2.1c-.18-1.06.08-2.14.71-3.01.63-.87 1.58-1.45 2.64-1.6.7-.1 1.46-.29 2.25-.56.84-.28 1.69-.63 2.52-1.04.83-.41 1.61-.86 2.32-1.35.66-.45 1.22-.91 1.68-1.37.75-.75 1.77-1.17 2.83-1.17h.14c1.11.04 2.15.54 2.88 1.37l1.41 1.62a4.005 4.005 0 0 1-.16 5.43c-.71.72-1.53 1.42-2.43 2.07-.27.19-.55.38-.83.57v5.29c0 2.21-1.79 4-4 4h-2.44Z"/><path class="cls-1" d="M35.26 70.65c-1.96 0-3.65-1.43-3.95-3.4l-.34-2.21c-.16-1.08.12-2.18.79-3.05.3-.38.66-.71 1.06-.96-1-.42-1.78-1.24-2.17-2.26a4.03 4.03 0 0 1 .21-3.31l1.08-2.02a4.012 4.012 0 0 1 3.53-2.12c.45 0 .91.08 1.35.24 1.67.6 3.34 1.34 4.98 2.2.67-.5 1.5-.79 2.37-.79.29 0 .58.03.87.09l2.16.48c2.1.46 3.46 2.51 3.07 4.62-.45 2.46-1.31 4.61-2.56 6.38-1.31 1.86-3.06 3.32-5.19 4.34-1.94.93-4.27 1.51-6.92 1.74-.12 0-.23.01-.35.01Z"/><path class="cls-1" d="M35.26 70.65c-1.96 0-3.65-1.43-3.95-3.4l-.34-2.21c-.16-1.08.12-2.18.79-3.05.3-.38.66-.71 1.06-.96-1-.42-1.78-1.24-2.17-2.26a4.03 4.03 0 0 1 .21-3.31l1.08-2.02a4.012 4.012 0 0 1 3.53-2.12c.45 0 .91.08 1.35.24 1.67.6 3.34 1.34 4.98 2.2.67-.5 1.5-.79 2.37-.79.29 0 .58.03.87.09l2.16.48c2.1.46 3.46 2.51 3.07 4.62-.45 2.46-1.31 4.61-2.56 6.38-1.31 1.86-3.06 3.32-5.19 4.34-1.94.93-4.27 1.51-6.92 1.74-.12 0-.23.01-.35.01Z"/><path class="cls-1" d="M49.57 70.93a3.99 3.99 0 0 1-3.77-2.68l-.71-2.04c-.25-.73-.29-1.5-.12-2.24l-1.02-1.06c-.8-.84-1.2-1.98-1.09-3.14s.71-2.21 1.66-2.88c.45-.32.88-.69 1.28-1.12.39-.41.74-.86 1.04-1.34.29-.46.51-.9.66-1.33a4.002 4.002 0 0 1 4.39-2.6l2.3.36c.88.14 1.67.56 2.27 1.2h2.88c2.21 0 4 1.79 4 4V57c0 1.48-.21 2.9-.64 4.23-.42 1.34-1.04 2.58-1.84 3.71a13.65 13.65 0 0 1-2.91 2.97c-1.09.81-2.33 1.48-3.67 1.99-1.32.5-2.75.84-4.27 1.01-.15.02-.29.02-.44.02Z"/><path class="cls-1" d="M49.57 70.93a3.99 3.99 0 0 1-3.77-2.68l-.71-2.04c-.25-.73-.29-1.5-.12-2.24l-1.02-1.06c-.8-.84-1.2-1.98-1.09-3.14s.71-2.21 1.66-2.88c.45-.32.88-.69 1.28-1.12.39-.41.74-.86 1.04-1.34.29-.46.51-.9.66-1.33a4.002 4.002 0 0 1 4.39-2.6l2.3.36c.88.14 1.67.56 2.27 1.2h2.88c2.21 0 4 1.79 4 4V57c0 1.48-.21 2.9-.64 4.23-.42 1.34-1.04 2.58-1.84 3.71a13.65 13.65 0 0 1-2.91 2.97c-1.09.81-2.33 1.48-3.67 1.99-1.32.5-2.75.84-4.27 1.01-.15.02-.29.02-.44.02Z"/><rect class="cls-1" x="57.18" y="55.86" width="19.65" height="10.27" rx="4" ry="4"/><rect class="cls-1" x="57.18" y="55.86" width="19.65" height="10.27" rx="4" ry="4"/><path class="cls-1" d="M79.19 71.38a3.99 3.99 0 0 1-3.81-2.79c-.22.04-.45.06-.67.06-1.79 0-3.39-1.2-3.86-2.98l-.55-2.07c-.28-1.07-.11-2.2.48-3.14.06-.09.12-.19.19-.27-.16-.43-.25-.9-.25-1.39v-2.03c0-2.21 1.79-4 4-4h.93a4.013 4.013 0 0 1 3.55-2.16h2.38c1.54 0 2.88.88 3.55 2.16h1.04c2.21 0 4 1.79 4 4v2.03c0 .77-.22 1.52-.64 2.16.11.11.22.22.32.33a3.998 3.998 0 0 1-.36 5.82l-1.71 1.41c-.75.62-1.65.92-2.55.92H85a3.999 3.999 0 0 1-3.43 1.94h-2.38Z"/><path class="cls-1" d="M79.19 71.38a3.99 3.99 0 0 1-3.81-2.79c-.22.04-.45.06-.67.06-1.79 0-3.39-1.2-3.86-2.98l-.55-2.07c-.28-1.07-.11-2.2.48-3.14.06-.09.12-.19.19-.27-.16-.43-.25-.9-.25-1.39v-2.03c0-2.21 1.79-4 4-4h.93a4.013 4.013 0 0 1 3.55-2.16h2.38c1.54 0 2.88.88 3.55 2.16h1.04c2.21 0 4 1.79 4 4v2.03c0 .77-.22 1.52-.64 2.16.11.11.22.22.32.33a3.998 3.998 0 0 1-.36 5.82l-1.71 1.41c-.75.62-1.65.92-2.55.92H85a3.999 3.999 0 0 1-3.43 1.94h-2.38Z"/><path class="cls-1" d="M90.63 70.54c-1.91 0-3.57-1.36-3.93-3.26l-.36-1.93c-.09-.45-.09-.91-.02-1.36-.12-.26-.2-.53-.26-.81-.13-.62-.27-1.23-.43-1.84-.15-.57-.31-1.11-.48-1.6-.37-1.07-.26-2.25.28-3.24s1.49-1.7 2.59-1.96l1.99-.46c.3-.07.61-.11.91-.11.27 0 .55.03.81.08l1.33-.32c.31-.08.63-.11.94-.11.52 0 1.03.1 1.51.3.37-.11.76-.17 1.15-.17h.22l2.07.11c2.12.12 3.78 1.87 3.78 3.99 0 1.84-.19 3.42-.58 4.82-.46 1.67-1.25 3.1-2.33 4.26-1.07 1.14-2.43 2.02-4.06 2.61-1.39.51-2.96.83-4.81.98-.11 0-.22.01-.33.01Z"/><path class="cls-1" d="M90.63 70.54c-1.91 0-3.57-1.36-3.93-3.26l-.36-1.93c-.09-.45-.09-.91-.02-1.36-.12-.26-.2-.53-.26-.81-.13-.62-.27-1.23-.43-1.84-.15-.57-.31-1.11-.48-1.6-.37-1.07-.26-2.25.28-3.24s1.49-1.7 2.59-1.96l1.99-.46c.3-.07.61-.11.91-.11.27 0 .55.03.81.08l1.33-.32c.31-.08.63-.11.94-.11.52 0 1.03.1 1.51.3.37-.11.76-.17 1.15-.17h.22l2.07.11c2.12.12 3.78 1.87 3.78 3.99 0 1.84-.19 3.42-.58 4.82-.46 1.67-1.25 3.1-2.33 4.26-1.07 1.14-2.43 2.02-4.06 2.61-1.39.51-2.96.83-4.81.98-.11 0-.22.01-.33.01Z"/><path class="cls-1" d="M103.04 71.1c-2.21 0-4-1.79-4-4V54.89c0-2.21 1.79-4 4-4h2.38c2.21 0 4 1.79 4 4v.98c.31.08.63.17.94.26 1.54.43 3.03.9 4.44 1.39 2.07.72 3.18 2.97 2.48 5.04l-.71 2.14a4.02 4.02 0 0 1-3.8 2.74 4.1 4.1 0 0 1-1.29-.21c-.69-.24-1.38-.46-2.08-.68v.54c0 2.21-1.79 4-4 4h-2.38Z"/><path class="cls-1" d="M103.04 71.1c-2.21 0-4-1.79-4-4V54.89c0-2.21 1.79-4 4-4h2.38c2.21 0 4 1.79 4 4v.98c.31.08.63.17.94.26 1.54.43 3.03.9 4.44 1.39 2.07.72 3.18 2.97 2.48 5.04l-.71 2.14a4.02 4.02 0 0 1-3.8 2.74 4.1 4.1 0 0 1-1.29-.21c-.69-.24-1.38-.46-2.08-.68v.54c0 2.21-1.79 4-4 4h-2.38ZM29.32 85.93c-1.69 0-3.22-1.07-3.78-2.71l-.7-2.04a4.04 4.04 0 0 1-.15-2.01l-.97-1.02c-.8-.84-1.2-1.98-1.09-3.14s.71-2.21 1.66-2.88a9.126 9.126 0 0 0 2.33-2.46c.29-.45.51-.88.66-1.3a4.002 4.002 0 0 1 4.39-2.6l2.15.34.43-.26c.64-.39 1.36-.58 2.07-.58.29 0 .59.03.87.1a3.99 3.99 0 0 1 4.82 1.37c.39.55.75 1.12 1.05 1.7.29.54.57 1.13.83 1.75.69 1.61.24 3.43-1 4.54-.11.59-.25 1.17-.43 1.73-.43 1.31-1.06 2.54-1.86 3.64-.81 1.1-1.79 2.08-2.93 2.89a15.73 15.73 0 0 1-3.66 1.93c-1.31.49-2.74.82-4.26.98-.15.02-.29.02-.44.02Z"/><path class="cls-1" d="M29.32 85.93c-1.69 0-3.22-1.07-3.78-2.71l-.7-2.04a4.04 4.04 0 0 1-.15-2.01l-.97-1.02c-.8-.84-1.2-1.98-1.09-3.14s.71-2.21 1.66-2.88a9.126 9.126 0 0 0 2.33-2.46c.29-.45.51-.88.66-1.3a4.002 4.002 0 0 1 4.39-2.6l2.15.34.43-.26c.64-.39 1.36-.58 2.07-.58.29 0 .59.03.87.1a3.99 3.99 0 0 1 4.82 1.37c.39.55.75 1.12 1.05 1.7.29.54.57 1.13.83 1.75.69 1.61.24 3.43-1 4.54-.11.59-.25 1.17-.43 1.73-.43 1.31-1.06 2.54-1.86 3.64-.81 1.1-1.79 2.08-2.93 2.89a15.73 15.73 0 0 1-3.66 1.93c-1.31.49-2.74.82-4.26.98-.15.02-.29.02-.44.02Z"/><path class="cls-1" d="M41.17 85.81c-1.36 0-2.66-.69-3.41-1.91l-1.18-1.92c-.59-.97-.75-2.15-.42-3.24s1.1-1.99 2.13-2.47l.12-.06v-.04c.03-.29.08-.82.08-1.7v-4.3c0-2.21 1.79-4 4-4h2.27c.31 0 .61.04.9.1.29-.07.59-.1.9-.1h2.32c2.21 0 4 1.79 4 4v.86l1.36.19c2.12.29 3.64 2.21 3.44 4.34-.18 1.91-.66 3.6-1.43 5.03-.88 1.63-2.1 2.9-3.64 3.77-1.48.84-3.19 1.26-5.09 1.26h-.97c-.92 0-1.77-.31-2.44-.83-.42.25-.87.48-1.35.69-.51.22-1.05.33-1.58.33Z"/><path class="cls-1" d="M41.17 85.81c-1.36 0-2.66-.69-3.41-1.91l-1.18-1.92c-.59-.97-.75-2.15-.42-3.24s1.1-1.99 2.13-2.47l.12-.06v-.04c.03-.29.08-.82.08-1.7v-4.3c0-2.21 1.79-4 4-4h2.27c.31 0 .61.04.9.1.29-.07.59-.1.9-.1h2.32c2.21 0 4 1.79 4 4v.86l1.36.19c2.12.29 3.64 2.21 3.44 4.34-.18 1.91-.66 3.6-1.43 5.03-.88 1.63-2.1 2.9-3.64 3.77-1.48.84-3.19 1.26-5.09 1.26h-.97c-.92 0-1.77-.31-2.44-.83-.42.25-.87.48-1.35.69-.51.22-1.05.33-1.58.33Z"/><rect class="cls-1" x="50.46" y="70.86" width="19.65" height="10.27" rx="4" ry="4"/><rect class="cls-1" x="50.46" y="70.86" width="19.65" height="10.27" rx="4" ry="4"/><path class="cls-1" d="M68.78 85.72c-1.92 0-3.57-1.37-3.93-3.26l-.39-2.09a4.01 4.01 0 0 1 1.34-3.78 4.007 4.007 0 0 1-2.03-3.48v-2.14c0-2.21 1.79-4 4-4h6.43c.38-.41.82-.76 1.32-1.05.93-.56 2-.85 3.09-.85s2.21.3 3.14.87c.85.52 1.53 1.21 2.05 2.04.57.93.88 2.02.88 3.14s-.29 2.15-.85 3.08c-.35.58-.77 1.09-1.28 1.52a13.13 13.13 0 0 1-1.23 3.37c-1.16 2.17-2.88 3.84-5.13 4.98-2.03 1.03-4.48 1.58-7.29 1.65h-.1Z"/><path class="cls-1" d="M68.78 85.72c-1.92 0-3.57-1.37-3.93-3.26l-.39-2.09a4.01 4.01 0 0 1 1.34-3.78 4.007 4.007 0 0 1-2.03-3.48v-2.14c0-2.21 1.79-4 4-4h6.43c.38-.41.82-.76 1.32-1.05.93-.56 2-.85 3.09-.85s2.21.3 3.14.87c.85.52 1.53 1.21 2.05 2.04.57.93.88 2.02.88 3.14s-.29 2.15-.85 3.08c-.35.58-.77 1.09-1.28 1.52a13.13 13.13 0 0 1-1.23 3.37c-1.16 2.17-2.88 3.84-5.13 4.98-2.03 1.03-4.48 1.58-7.29 1.65h-.1Z"/><path class="cls-1" d="M91.42 86.62c-.97 0-1.91-.36-2.63-.99-.69.06-1.36.12-2.03.17-1.71.13-3.41.22-5.04.28h-.14c-2.12 0-3.88-1.66-3.99-3.79l-.1-1.82c-.01-.26 0-.51.03-.76-.28-.55-.44-1.17-.44-1.83v-1.91l-.38-.86a3.994 3.994 0 0 1 1.79-5.17c.66-.35 1.26-.69 1.78-1.01.49-.31.95-.63 1.36-.96.43-.34.86-.73 1.29-1.16.75-.75 1.77-1.17 2.83-1.17h2.86c1.05 0 2.06.41 2.8 1.15.45.44.89.84 1.33 1.19.41.33.86.65 1.34.96.52.33 1.12.67 1.77 1.01 1.87.98 2.65 3.25 1.79 5.17l-.38.86v1.91c0 .68-.17 1.31-.46 1.87.09.21.18.42.27.61.44 1.02.43 2.18-.02 3.2a3.992 3.992 0 0 1-2.36 2.16l-1.96.67c-.43.15-.87.22-1.3.22Z"/><path class="cls-1" d="M91.42 86.62c-.97 0-1.91-.36-2.63-.99-.69.06-1.36.12-2.03.17-1.71.13-3.41.22-5.04.28h-.14c-2.12 0-3.88-1.66-3.99-3.79l-.1-1.82c-.01-.26 0-.51.03-.76-.28-.55-.44-1.17-.44-1.83v-1.91l-.38-.86a3.994 3.994 0 0 1 1.79-5.17c.66-.35 1.26-.69 1.78-1.01.49-.31.95-.63 1.36-.96.43-.34.86-.73 1.29-1.16.75-.75 1.77-1.17 2.83-1.17h2.86c1.05 0 2.06.41 2.8 1.15.45.44.89.84 1.33 1.19.41.33.86.65 1.34.96.52.33 1.12.67 1.77 1.01 1.87.98 2.65 3.25 1.79 5.17l-.38.86v1.91c0 .68-.17 1.31-.46 1.87.09.21.18.42.27.61.44 1.02.43 2.18-.02 3.2a3.992 3.992 0 0 1-2.36 2.16l-1.96.67c-.43.15-.87.22-1.3.22Z"/><path class="cls-1" d="M95.9 86.38c-2.19 0-3.96-1.75-4-3.93a4.04 4.04 0 0 1-1.42-2.28l-.49-2.24c-.23-1.07-.02-2.15.55-3.03-.15-.42-.24-.88-.24-1.36v-1.93c0-1.45.77-2.72 1.92-3.42a3.994 3.994 0 0 1 3.74-2.58h2.16c.84 0 1.62.26 2.26.7.62-.4 1.36-.63 2.15-.63h2.23c1.88 0 3.46 1.3 3.89 3.05 1.38.63 2.34 2.02 2.34 3.64v1.88c0 1.1-.45 2.1-1.17 2.83.83.73 1.35 1.8 1.35 3v1.93c0 2.21-1.79 4-4 4h-7.4c-.52.24-1.09.38-1.7.38H95.9Z"/><path class="cls-1" d="M95.9 86.38c-2.19 0-3.96-1.75-4-3.93a4.04 4.04 0 0 1-1.42-2.28l-.49-2.24c-.23-1.07-.02-2.15.55-3.03-.15-.42-.24-.88-.24-1.36v-1.93c0-1.45.77-2.72 1.92-3.42a3.994 3.994 0 0 1 3.74-2.58h2.16c.84 0 1.62.26 2.26.7.62-.4 1.36-.63 2.15-.63h2.23c1.88 0 3.46 1.3 3.89 3.05 1.38.63 2.34 2.02 2.34 3.64v1.88c0 1.1-.45 2.1-1.17 2.83.83.73 1.35 1.8 1.35 3v1.93c0 2.21-1.79 4-4 4h-7.4c-.52.24-1.09.38-1.7.38H95.9ZM35.11 54.05c-2.63 0-5.09-.43-7.33-1.28-2.27-.86-4.29-2.1-6-3.7a17.075 17.075 0 0 1-4.05-5.77c-.96-2.21-1.44-4.64-1.44-7.23s.49-5.02 1.44-7.23c.96-2.22 2.34-4.17 4.09-5.78 1.72-1.59 3.76-2.83 6.06-3.69 2.26-.84 4.76-1.27 7.43-1.27 3.03 0 5.83.53 8.32 1.58 2.59 1.09 4.77 2.71 6.49 4.79a3.995 3.995 0 0 1-.41 5.51l-1.94 1.76c1.54.56 2.64 2.03 2.64 3.76v11.14c0 1.3-.63 2.52-1.7 3.27-1.92 1.35-4.11 2.39-6.54 3.1-2.37.69-4.74 1.04-7.06 1.04Zm.54-21.66c-.66 0-1.24.09-1.73.28-.4.15-.72.35-.98.62-.29.29-.51.65-.69 1.1-.19.48-.28 1.04-.28 1.69s.09 1.17.28 1.65c.17.45.4.8.68 1.09.28.28.61.5 1.02.66.46.18.99.27 1.62.27h.07v-4.26c0-1.17.5-2.22 1.3-2.95-.39-.1-.82-.15-1.29-.15Z"/><path class="cls-1" d="M35.11 54.05c-2.63 0-5.09-.43-7.33-1.28-2.27-.86-4.29-2.1-6-3.7a17.075 17.075 0 0 1-4.05-5.77c-.96-2.21-1.44-4.64-1.44-7.23s.49-5.02 1.44-7.23c.96-2.22 2.34-4.17 4.09-5.78 1.72-1.59 3.76-2.83 6.06-3.69 2.26-.84 4.76-1.27 7.43-1.27 3.03 0 5.83.53 8.32 1.58 2.59 1.09 4.77 2.71 6.49 4.79a3.995 3.995 0 0 1-.41 5.51l-1.94 1.76c1.54.56 2.64 2.03 2.64 3.76v11.14c0 1.3-.63 2.52-1.7 3.27-1.92 1.35-4.11 2.39-6.54 3.1-2.37.69-4.74 1.04-7.06 1.04Zm.54-21.66c-.66 0-1.24.09-1.73.28-.4.15-.72.35-.98.62-.29.29-.51.65-.69 1.1-.19.48-.28 1.04-.28 1.69s.09 1.17.28 1.65c.17.45.4.8.68 1.09.28.28.61.5 1.02.66.46.18.99.27 1.62.27h.07v-4.26c0-1.17.5-2.22 1.3-2.95-.39-.1-.82-.15-1.29-.15Z"/><path class="cls-1" d="M73.84 53.52c-2.2 0-3.99-1.78-4-3.98-.75.83-1.83 1.33-2.99 1.33h-3.38c-1.1 0-2.13-.45-2.88-1.22a4 4 0 0 1-4 3.87H49.6c-2.21 0-4-1.79-4-4V22.64c0-2.21 1.79-4 4-4h6.26c1.4 0 2.69.73 3.42 1.92l5.97 9.84 5.83-9.81a4.012 4.012 0 0 1 3.44-1.96h6.26c2.21 0 4 1.79 4 3.99l.04 26.88c0 1.06-.42 2.08-1.17 2.83s-1.77 1.17-2.83 1.17h-6.99Z"/><path class="cls-1" d="M73.84 53.52c-2.2 0-3.99-1.78-4-3.98-.75.83-1.83 1.33-2.99 1.33h-3.38c-1.1 0-2.13-.45-2.88-1.22a4 4 0 0 1-4 3.87H49.6c-2.21 0-4-1.79-4-4V22.64c0-2.21 1.79-4 4-4h6.26c1.4 0 2.69.73 3.42 1.92l5.97 9.84 5.83-9.81a4.012 4.012 0 0 1 3.44-1.96h6.26c2.21 0 4 1.79 4 3.99l.04 26.88c0 1.06-.42 2.08-1.17 2.83s-1.77 1.17-2.83 1.17h-6.99Z"/><path class="cls-1" d="M98.78 54.05c-2.6 0-5.07-.44-7.35-1.29-2.32-.88-4.37-2.15-6.09-3.78a17.92 17.92 0 0 1-4.03-5.73c-.98-2.21-1.48-4.63-1.48-7.21s.5-4.97 1.48-7.16c.96-2.16 2.32-4.08 4.02-5.7 1.71-1.63 3.75-2.9 6.06-3.78 2.26-.86 4.75-1.3 7.37-1.3s5.11.44 7.37 1.3c2.3.88 4.34 2.14 6.04 3.75 1.71 1.61 3.07 3.53 4.04 5.69.98 2.2 1.48 4.62 1.48 7.2s-.49 5.02-1.45 7.22-2.33 4.14-4.07 5.76a18.36 18.36 0 0 1-6.05 3.73c-2.27.86-4.75 1.3-7.37 1.3Zm0-21.66c-.51 0-.95.08-1.36.25-.37.15-.69.36-.97.65-.28.28-.49.63-.65 1.05-.18.47-.27 1.06-.27 1.74s.09 1.26.27 1.73c.16.43.38.77.66 1.05.28.29.6.5.97.65.4.16.85.24 1.36.24s.95-.08 1.35-.24c.37-.15.67-.35.93-.62.29-.3.52-.67.7-1.12.18-.46.28-1.03.28-1.69s-.09-1.23-.28-1.69c-.18-.45-.41-.82-.7-1.12-.26-.27-.56-.47-.92-.62a3.47 3.47 0 0 0-1.36-.25Z"/><path class="cls-1" d="M98.78 54.05c-2.6 0-5.07-.44-7.35-1.29-2.32-.88-4.37-2.15-6.09-3.78a17.92 17.92 0 0 1-4.03-5.73c-.98-2.21-1.48-4.63-1.48-7.21s.5-4.97 1.48-7.16c.96-2.16 2.32-4.08 4.02-5.7 1.71-1.63 3.75-2.9 6.06-3.78 2.26-.86 4.75-1.3 7.37-1.3s5.11.44 7.37 1.3c2.3.88 4.34 2.14 6.04 3.75 1.71 1.61 3.07 3.53 4.04 5.69.98 2.2 1.48 4.62 1.48 7.2s-.49 5.02-1.45 7.22-2.33 4.14-4.07 5.76a18.36 18.36 0 0 1-6.05 3.73c-2.27.86-4.75 1.3-7.37 1.3Zm0-21.66c-.51 0-.95.08-1.36.25-.37.15-.69.36-.97.65-.28.28-.49.63-.65 1.05-.18.47-.27 1.06-.27 1.74s.09 1.26.27 1.73c.16.43.38.77.66 1.05.28.29.6.5.97.65.4.16.85.24 1.36.24s.95-.08 1.35-.24c.37-.15.67-.35.93-.62.29-.3.52-.67.7-1.12.18-.46.28-1.03.28-1.69s-.09-1.23-.28-1.69c-.18-.45-.41-.82-.7-1.12-.26-.27-.56-.47-.92-.62a3.47 3.47 0 0 0-1.36-.25ZM26.05 71.1c-2.21 0-4-1.79-4-4v-.96c-.19.04-.37.07-.56.1-.22.04-.44.06-.66.06-.83 0-1.64-.26-2.32-.74a4 4 0 0 1-1.62-2.6l-.35-2.1c-.18-1.06.08-2.14.71-3.01.63-.87 1.58-1.45 2.64-1.6.7-.1 1.46-.29 2.25-.56.84-.28 1.69-.63 2.52-1.04.83-.41 1.61-.86 2.32-1.35.66-.45 1.22-.91 1.68-1.37.75-.75 1.77-1.17 2.83-1.17h.14c1.11.04 2.15.54 2.88 1.37l1.41 1.62a4.005 4.005 0 0 1-.16 5.43c-.71.72-1.53 1.42-2.43 2.07-.27.19-.55.38-.83.57v5.29c0 2.21-1.79 4-4 4h-2.44Z"/><path class="cls-1" d="M26.05 71.1c-2.21 0-4-1.79-4-4v-.96c-.19.04-.37.07-.56.1-.22.04-.44.06-.66.06-.83 0-1.64-.26-2.32-.74a4 4 0 0 1-1.62-2.6l-.35-2.1c-.18-1.06.08-2.14.71-3.01.63-.87 1.58-1.45 2.64-1.6.7-.1 1.46-.29 2.25-.56.84-.28 1.69-.63 2.52-1.04.83-.41 1.61-.86 2.32-1.35.66-.45 1.22-.91 1.68-1.37.75-.75 1.77-1.17 2.83-1.17h.14c1.11.04 2.15.54 2.88 1.37l1.41 1.62a4.005 4.005 0 0 1-.16 5.43c-.71.72-1.53 1.42-2.43 2.07-.27.19-.55.38-.83.57v5.29c0 2.21-1.79 4-4 4h-2.44Z"/><path class="cls-1" d="M35.26 70.65c-1.96 0-3.65-1.43-3.95-3.4l-.34-2.21c-.16-1.08.12-2.18.79-3.05.3-.38.66-.71 1.06-.96-1-.42-1.78-1.24-2.17-2.26a4.03 4.03 0 0 1 .21-3.31l1.08-2.02a4.012 4.012 0 0 1 3.53-2.12c.45 0 .91.08 1.35.24 1.67.6 3.34 1.34 4.98 2.2.67-.5 1.5-.79 2.37-.79.29 0 .58.03.87.09l2.16.48c2.1.46 3.46 2.51 3.07 4.62-.45 2.46-1.31 4.61-2.56 6.38-1.31 1.86-3.06 3.32-5.19 4.34-1.94.93-4.27 1.51-6.92 1.74-.12 0-.23.01-.35.01Z"/><path class="cls-1" d="M35.26 70.65c-1.96 0-3.65-1.43-3.95-3.4l-.34-2.21c-.16-1.08.12-2.18.79-3.05.3-.38.66-.71 1.06-.96-1-.42-1.78-1.24-2.17-2.26a4.03 4.03 0 0 1 .21-3.31l1.08-2.02a4.012 4.012 0 0 1 3.53-2.12c.45 0 .91.08 1.35.24 1.67.6 3.34 1.34 4.98 2.2.67-.5 1.5-.79 2.37-.79.29 0 .58.03.87.09l2.16.48c2.1.46 3.46 2.51 3.07 4.62-.45 2.46-1.31 4.61-2.56 6.38-1.31 1.86-3.06 3.32-5.19 4.34-1.94.93-4.27 1.51-6.92 1.74-.12 0-.23.01-.35.01Z"/><path class="cls-1" d="M49.57 70.93a3.99 3.99 0 0 1-3.77-2.68l-.71-2.04c-.25-.73-.29-1.5-.12-2.24l-1.02-1.06c-.8-.84-1.2-1.98-1.09-3.14s.71-2.21 1.66-2.88c.45-.32.88-.69 1.28-1.12.39-.41.74-.86 1.04-1.34.29-.46.51-.9.66-1.33a4.002 4.002 0 0 1 4.39-2.6l2.3.36c.88.14 1.67.56 2.27 1.2h2.88c2.21 0 4 1.79 4 4V57c0 1.48-.21 2.9-.64 4.23-.42 1.34-1.04 2.58-1.84 3.71a13.65 13.65 0 0 1-2.91 2.97c-1.09.81-2.33 1.48-3.67 1.99-1.32.5-2.75.84-4.27 1.01-.15.02-.29.02-.44.02Z"/><path class="cls-1" d="M49.57 70.93a3.99 3.99 0 0 1-3.77-2.68l-.71-2.04c-.25-.73-.29-1.5-.12-2.24l-1.02-1.06c-.8-.84-1.2-1.98-1.09-3.14s.71-2.21 1.66-2.88c.45-.32.88-.69 1.28-1.12.39-.41.74-.86 1.04-1.34.29-.46.51-.9.66-1.33a4.002 4.002 0 0 1 4.39-2.6l2.3.36c.88.14 1.67.56 2.27 1.2h2.88c2.21 0 4 1.79 4 4V57c0 1.48-.21 2.9-.64 4.23-.42 1.34-1.04 2.58-1.84 3.71a13.65 13.65 0 0 1-2.91 2.97c-1.09.81-2.33 1.48-3.67 1.99-1.32.5-2.75.84-4.27 1.01-.15.02-.29.02-.44.02Z"/><rect class="cls-1" x="57.18" y="55.86" width="19.65" height="10.27" rx="4" ry="4"/><rect class="cls-1" x="57.18" y="55.86" width="19.65" height="10.27" rx="4" ry="4"/><path class="cls-1" d="M79.19 71.38a3.99 3.99 0 0 1-3.81-2.79c-.22.04-.45.06-.67.06-1.79 0-3.39-1.2-3.86-2.98l-.55-2.07c-.28-1.07-.11-2.2.48-3.14.06-.09.12-.19.19-.27-.16-.43-.25-.9-.25-1.39v-2.03c0-2.21 1.79-4 4-4h.93a4.013 4.013 0 0 1 3.55-2.16h2.38c1.54 0 2.88.88 3.55 2.16h1.04c2.21 0 4 1.79 4 4v2.03c0 .77-.22 1.52-.64 2.16.11.11.22.22.32.33a3.998 3.998 0 0 1-.36 5.82l-1.71 1.41c-.75.62-1.65.92-2.55.92H85a3.999 3.999 0 0 1-3.43 1.94h-2.38Z"/><path class="cls-1" d="M79.19 71.38a3.99 3.99 0 0 1-3.81-2.79c-.22.04-.45.06-.67.06-1.79 0-3.39-1.2-3.86-2.98l-.55-2.07c-.28-1.07-.11-2.2.48-3.14.06-.09.12-.19.19-.27-.16-.43-.25-.9-.25-1.39v-2.03c0-2.21 1.79-4 4-4h.93a4.013 4.013 0 0 1 3.55-2.16h2.38c1.54 0 2.88.88 3.55 2.16h1.04c2.21 0 4 1.79 4 4v2.03c0 .77-.22 1.52-.64 2.16.11.11.22.22.32.33a3.998 3.998 0 0 1-.36 5.82l-1.71 1.41c-.75.62-1.65.92-2.55.92H85a3.999 3.999 0 0 1-3.43 1.94h-2.38Z"/><path class="cls-1" d="M90.63 70.54c-1.91 0-3.57-1.36-3.93-3.26l-.36-1.93c-.09-.45-.09-.91-.02-1.36-.12-.26-.2-.53-.26-.81-.13-.62-.27-1.23-.43-1.84-.15-.57-.31-1.11-.48-1.6-.37-1.07-.26-2.25.28-3.24s1.49-1.7 2.59-1.96l1.99-.46c.3-.07.61-.11.91-.11.27 0 .55.03.81.08l1.33-.32c.31-.08.63-.11.94-.11.52 0 1.03.1 1.51.3.37-.11.76-.17 1.15-.17h.22l2.07.11c2.12.12 3.78 1.87 3.78 3.99 0 1.84-.19 3.42-.58 4.82-.46 1.67-1.25 3.1-2.33 4.26-1.07 1.14-2.43 2.02-4.06 2.61-1.39.51-2.96.83-4.81.98-.11 0-.22.01-.33.01Z"/><path class="cls-1" d="M90.63 70.54c-1.91 0-3.57-1.36-3.93-3.26l-.36-1.93c-.09-.45-.09-.91-.02-1.36-.12-.26-.2-.53-.26-.81-.13-.62-.27-1.23-.43-1.84-.15-.57-.31-1.11-.48-1.6-.37-1.07-.26-2.25.28-3.24s1.49-1.7 2.59-1.96l1.99-.46c.3-.07.61-.11.91-.11.27 0 .55.03.81.08l1.33-.32c.31-.08.63-.11.94-.11.52 0 1.03.1 1.51.3.37-.11.76-.17 1.15-.17h.22l2.07.11c2.12.12 3.78 1.87 3.78 3.99 0 1.84-.19 3.42-.58 4.82-.46 1.67-1.25 3.1-2.33 4.26-1.07 1.14-2.43 2.02-4.06 2.61-1.39.51-2.96.83-4.81.98-.11 0-.22.01-.33.01Z"/><path class="cls-1" d="M103.04 71.1c-2.21 0-4-1.79-4-4V54.89c0-2.21 1.79-4 4-4h2.38c2.21 0 4 1.79 4 4v.98c.31.08.63.17.94.26 1.54.43 3.03.9 4.44 1.39 2.07.72 3.18 2.97 2.48 5.04l-.71 2.14a4.02 4.02 0 0 1-3.8 2.74 4.1 4.1 0 0 1-1.29-.21c-.69-.24-1.38-.46-2.08-.68v.54c0 2.21-1.79 4-4 4h-2.38Z"/><path class="cls-1" d="M103.04 71.1c-2.21 0-4-1.79-4-4V54.89c0-2.21 1.79-4 4-4h2.38c2.21 0 4 1.79 4 4v.98c.31.08.63.17.94.26 1.54.43 3.03.9 4.44 1.39 2.07.72 3.18 2.97 2.48 5.04l-.71 2.14a4.02 4.02 0 0 1-3.8 2.74 4.1 4.1 0 0 1-1.29-.21c-.69-.24-1.38-.46-2.08-.68v.54c0 2.21-1.79 4-4 4h-2.38ZM29.32 85.93c-1.69 0-3.22-1.07-3.78-2.71l-.7-2.04a4.04 4.04 0 0 1-.15-2.01l-.97-1.02c-.8-.84-1.2-1.98-1.09-3.14s.71-2.21 1.66-2.88a9.126 9.126 0 0 0 2.33-2.46c.29-.45.51-.88.66-1.3a4.002 4.002 0 0 1 4.39-2.6l2.15.34.43-.26c.64-.39 1.36-.58 2.07-.58.29 0 .59.03.87.1a3.99 3.99 0 0 1 4.82 1.37c.39.55.75 1.12 1.05 1.7.29.54.57 1.13.83 1.75.69 1.61.24 3.43-1 4.54-.11.59-.25 1.17-.43 1.73-.43 1.31-1.06 2.54-1.86 3.64-.81 1.1-1.79 2.08-2.93 2.89a15.73 15.73 0 0 1-3.66 1.93c-1.31.49-2.74.82-4.26.98-.15.02-.29.02-.44.02Z"/><path class="cls-1" d="M29.32 85.93c-1.69 0-3.22-1.07-3.78-2.71l-.7-2.04a4.04 4.04 0 0 1-.15-2.01l-.97-1.02c-.8-.84-1.2-1.98-1.09-3.14s.71-2.21 1.66-2.88a9.126 9.126 0 0 0 2.33-2.46c.29-.45.51-.88.66-1.3a4.002 4.002 0 0 1 4.39-2.6l2.15.34.43-.26c.64-.39 1.36-.58 2.07-.58.29 0 .59.03.87.1a3.99 3.99 0 0 1 4.82 1.37c.39.55.75 1.12 1.05 1.7.29.54.57 1.13.83 1.75.69 1.61.24 3.43-1 4.54-.11.59-.25 1.17-.43 1.73-.43 1.31-1.06 2.54-1.86 3.64-.81 1.1-1.79 2.08-2.93 2.89a15.73 15.73 0 0 1-3.66 1.93c-1.31.49-2.74.82-4.26.98-.15.02-.29.02-.44.02Z"/><path class="cls-1" d="M41.17 85.81c-1.36 0-2.66-.69-3.41-1.91l-1.18-1.92c-.59-.97-.75-2.15-.42-3.24s1.1-1.99 2.13-2.47l.12-.06v-.04c.03-.29.08-.82.08-1.7v-4.3c0-2.21 1.79-4 4-4h2.27c.31 0 .61.04.9.1.29-.07.59-.1.9-.1h2.32c2.21 0 4 1.79 4 4v.86l1.36.19c2.12.29 3.64 2.21 3.44 4.34-.18 1.91-.66 3.6-1.43 5.03-.88 1.63-2.1 2.9-3.64 3.77-1.48.84-3.19 1.26-5.09 1.26h-.97c-.92 0-1.77-.31-2.44-.83-.42.25-.87.48-1.35.69-.51.22-1.05.33-1.58.33Z"/><path class="cls-1" d="M41.17 85.81c-1.36 0-2.66-.69-3.41-1.91l-1.18-1.92c-.59-.97-.75-2.15-.42-3.24s1.1-1.99 2.13-2.47l.12-.06v-.04c.03-.29.08-.82.08-1.7v-4.3c0-2.21 1.79-4 4-4h2.27c.31 0 .61.04.9.1.29-.07.59-.1.9-.1h2.32c2.21 0 4 1.79 4 4v.86l1.36.19c2.12.29 3.64 2.21 3.44 4.34-.18 1.91-.66 3.6-1.43 5.03-.88 1.63-2.1 2.9-3.64 3.77-1.48.84-3.19 1.26-5.09 1.26h-.97c-.92 0-1.77-.31-2.44-.83-.42.25-.87.48-1.35.69-.51.22-1.05.33-1.58.33Z"/><rect class="cls-1" x="50.46" y="70.86" width="19.65" height="10.27" rx="4" ry="4"/><rect class="cls-1" x="50.46" y="70.86" width="19.65" height="10.27" rx="4" ry="4"/><path class="cls-1" d="M68.78 85.72c-1.92 0-3.57-1.37-3.93-3.26l-.39-2.09a4.01 4.01 0 0 1 1.34-3.78 4.007 4.007 0 0 1-2.03-3.48v-2.14c0-2.21 1.79-4 4-4h6.43c.38-.41.82-.76 1.32-1.05.93-.56 2-.85 3.09-.85s2.21.3 3.14.87c.85.52 1.53 1.21 2.05 2.04.57.93.88 2.02.88 3.14s-.29 2.15-.85 3.08c-.35.58-.77 1.09-1.28 1.52a13.13 13.13 0 0 1-1.23 3.37c-1.16 2.17-2.88 3.84-5.13 4.98-2.03 1.03-4.48 1.58-7.29 1.65h-.1Z"/><path class="cls-1" d="M68.78 85.72c-1.92 0-3.57-1.37-3.93-3.26l-.39-2.09a4.01 4.01 0 0 1 1.34-3.78 4.007 4.007 0 0 1-2.03-3.48v-2.14c0-2.21 1.79-4 4-4h6.43c.38-.41.82-.76 1.32-1.05.93-.56 2-.85 3.09-.85s2.21.3 3.14.87c.85.52 1.53 1.21 2.05 2.04.57.93.88 2.02.88 3.14s-.29 2.15-.85 3.08c-.35.58-.77 1.09-1.28 1.52a13.13 13.13 0 0 1-1.23 3.37c-1.16 2.17-2.88 3.84-5.13 4.98-2.03 1.03-4.48 1.58-7.29 1.65h-.1Z"/><path class="cls-1" d="M91.42 86.62c-.97 0-1.91-.36-2.63-.99-.69.06-1.36.12-2.03.17-1.71.13-3.41.22-5.04.28h-.14c-2.12 0-3.88-1.66-3.99-3.79l-.1-1.82c-.01-.26 0-.51.03-.76-.28-.55-.44-1.17-.44-1.83v-1.91l-.38-.86a3.994 3.994 0 0 1 1.79-5.17c.66-.35 1.26-.69 1.78-1.01.49-.31.95-.63 1.36-.96.43-.34.86-.73 1.29-1.16.75-.75 1.77-1.17 2.83-1.17h2.86c1.05 0 2.06.41 2.8 1.15.45.44.89.84 1.33 1.19.41.33.86.65 1.34.96.52.33 1.12.67 1.77 1.01 1.87.98 2.65 3.25 1.79 5.17l-.38.86v1.91c0 .68-.17 1.31-.46 1.87.09.21.18.42.27.61.44 1.02.43 2.18-.02 3.2a3.992 3.992 0 0 1-2.36 2.16l-1.96.67c-.43.15-.87.22-1.3.22Z"/><path class="cls-1" d="M91.42 86.62c-.97 0-1.91-.36-2.63-.99-.69.06-1.36.12-2.03.17-1.71.13-3.41.22-5.04.28h-.14c-2.12 0-3.88-1.66-3.99-3.79l-.1-1.82c-.01-.26 0-.51.03-.76-.28-.55-.44-1.17-.44-1.83v-1.91l-.38-.86a3.994 3.994 0 0 1 1.79-5.17c.66-.35 1.26-.69 1.78-1.01.49-.31.95-.63 1.36-.96.43-.34.86-.73 1.29-1.16.75-.75 1.77-1.17 2.83-1.17h2.86c1.05 0 2.06.41 2.8 1.15.45.44.89.84 1.33 1.19.41.33.86.65 1.34.96.52.33 1.12.67 1.77 1.01 1.87.98 2.65 3.25 1.79 5.17l-.38.86v1.91c0 .68-.17 1.31-.46 1.87.09.21.18.42.27.61.44 1.02.43 2.18-.02 3.2a3.992 3.992 0 0 1-2.36 2.16l-1.96.67c-.43.15-.87.22-1.3.22Z"/><path class="cls-1" d="M95.9 86.38c-2.19 0-3.96-1.75-4-3.93a4.04 4.04 0 0 1-1.42-2.28l-.49-2.24c-.23-1.07-.02-2.15.55-3.03-.15-.42-.24-.88-.24-1.36v-1.93c0-1.45.77-2.72 1.92-3.42a3.994 3.994 0 0 1 3.74-2.58h2.16c.84 0 1.62.26 2.26.7.62-.4 1.36-.63 2.15-.63h2.23c1.88 0 3.46 1.3 3.89 3.05 1.38.63 2.34 2.02 2.34 3.64v1.88c0 1.1-.45 2.1-1.17 2.83.83.73 1.35 1.8 1.35 3v1.93c0 2.21-1.79 4-4 4h-7.4c-.52.24-1.09.38-1.7.38H95.9Z"/><path class="cls-1" d="M95.9 86.38c-2.19 0-3.96-1.75-4-3.93a4.04 4.04 0 0 1-1.42-2.28l-.49-2.24c-.23-1.07-.02-2.15.55-3.03-.15-.42-.24-.88-.24-1.36v-1.93c0-1.45.77-2.72 1.92-3.42a3.994 3.994 0 0 1 3.74-2.58h2.16c.84 0 1.62.26 2.26.7.62-.4 1.36-.63 2.15-.63h2.23c1.88 0 3.46 1.3 3.89 3.05 1.38.63 2.34 2.02 2.34 3.64v1.88c0 1.1-.45 2.1-1.17 2.83.83.73 1.35 1.8 1.35 3v1.93c0 2.21-1.79 4-4 4h-7.4c-.52.24-1.09.38-1.7.38H95.9Z"/><path class="cls-3" d="M35.11 50.05c-2.15 0-4.12-.34-5.91-1.02-1.79-.68-3.35-1.64-4.68-2.88a13.11 13.11 0 0 1-3.11-4.43c-.74-1.71-1.11-3.6-1.11-5.65s.37-3.93 1.11-5.64c.74-1.71 1.79-3.19 3.13-4.43 1.34-1.24 2.92-2.2 4.74-2.88 1.82-.68 3.83-1.02 6.03-1.02 2.51 0 4.76.42 6.76 1.27s3.65 2.06 4.95 3.65l-4.84 4.38c-.92-1.02-1.91-1.78-2.98-2.27-1.06-.49-2.25-.73-3.55-.73-1.15 0-2.2.18-3.15.54-.95.36-1.75.88-2.42 1.55-.67.68-1.18 1.49-1.56 2.44-.37.95-.56 2-.56 3.15s.19 2.16.56 3.11c.37.95.89 1.76 1.56 2.44.67.68 1.46 1.2 2.4 1.58s1.96.56 3.09.56 2.23-.19 3.3-.56 2.16-1 3.26-1.9l4.26 5.34c-1.56 1.1-3.35 1.95-5.36 2.53s-3.99.88-5.93.88Zm4.53-4.38V35.49h6.76v11.14l-6.76-.96ZM49.6 49.52V22.64h6.26l11.1 18.28h-3.3l10.87-18.28h6.26l.04 26.88h-6.99l-.08-16.24h1.19l-8.1 13.59h-3.38l-8.33-13.59h1.46v16.24h-6.99ZM98.78 50.05c-2.12 0-4.1-.35-5.93-1.04-1.83-.69-3.41-1.67-4.74-2.94a13.892 13.892 0 0 1-3.13-4.46c-.76-1.7-1.13-3.56-1.13-5.59s.38-3.84 1.13-5.53c.75-1.69 1.8-3.17 3.13-4.44 1.33-1.27 2.91-2.25 4.72-2.94 1.82-.69 3.8-1.04 5.95-1.04s4.13.35 5.95 1.04c1.82.69 3.39 1.66 4.72 2.92 1.33 1.25 2.37 2.73 3.13 4.42.75 1.69 1.13 3.55 1.13 5.57s-.37 3.92-1.11 5.63c-.74 1.7-1.79 3.18-3.13 4.43-1.34 1.25-2.92 2.23-4.74 2.92-1.82.69-3.8 1.04-5.95 1.04Zm0-6.3c1.02 0 1.98-.18 2.86-.54.88-.36 1.65-.88 2.3-1.55.65-.68 1.16-1.48 1.54-2.42.37-.93.56-1.99.56-3.17s-.19-2.23-.56-3.17c-.37-.93-.88-1.74-1.54-2.42a6.45 6.45 0 0 0-2.3-1.55c-.88-.36-1.84-.54-2.86-.54s-1.98.18-2.86.54a6.9 6.9 0 0 0-2.32 1.55c-.67.68-1.18 1.49-1.54 2.42-.36.94-.54 1.99-.54 3.17s.18 2.23.54 3.17c.36.94.87 1.74 1.54 2.42s1.44 1.2 2.32 1.55c.88.36 1.84.54 2.86.54Z"/><path class="cls-4" d="M20.48 60.2c.93-.14 1.91-.38 2.93-.72 1.02-.34 2.02-.76 3.02-1.25 1-.5 1.93-1.04 2.8-1.63.87-.59 1.62-1.21 2.25-1.84l1.41 1.62c-.55.56-1.19 1.1-1.91 1.62s-1.51 1.01-2.35 1.48c-.84.47-1.7.89-2.58 1.27s-1.77.7-2.65.96c-.89.26-1.75.46-2.58.6l-.35-2.1Zm5.57 6.9v-8.02h2.44v8.02h-2.44ZM39.18 59.55c-.77-.44-1.55-.84-2.36-1.2-.81-.36-1.62-.7-2.43-.99l1.08-2.02c1.63.59 3.25 1.32 4.86 2.18l-1.15 2.03Zm-4.26 4.89c1.37-.14 2.58-.38 3.63-.73 1.05-.34 1.95-.82 2.69-1.42s1.35-1.34 1.83-2.22c.48-.88.84-1.9 1.11-3.08l2.16.48c-.35 1.9-.98 3.49-1.89 4.79-.92 1.3-2.13 2.31-3.65 3.03s-3.36 1.18-5.54 1.37l-.34-2.21ZM46.84 60.14c.65-.47 1.27-1 1.85-1.61.58-.61 1.09-1.26 1.53-1.97.44-.71.79-1.41 1.04-2.11l2.3.36c-.28.92-.66 1.8-1.15 2.62s-1.07 1.59-1.75 2.3c-.68.71-1.46 1.36-2.34 1.96l-1.48-1.55Zm2.02 4.75c.99-.11 1.91-.32 2.75-.63.84-.31 1.6-.7 2.26-1.18.66-.48 1.23-1.02 1.7-1.64.47-.62.83-1.3 1.07-2.04.24-.74.36-1.54.36-2.39l.97 1.09h-6.72v-2.03h8.09v.94c0 1.07-.15 2.08-.45 3.02s-.73 1.81-1.29 2.6-1.24 1.48-2.04 2.07c-.8.59-1.7 1.08-2.71 1.46-1.01.38-2.1.64-3.29.77l-.71-2.04Zm6.75-.9c-.88-.69-1.7-1.31-2.46-1.85A32.49 32.49 0 0 0 51 60.73l1.37-1.76c.82.5 1.62 1.03 2.39 1.58s1.5 1.12 2.18 1.69l-1.34 1.75ZM61.18 62.13v-2.27h11.65v2.27H61.18ZM74.17 62.58c.7-.14 1.38-.3 2.04-.48.66-.18 1.29-.37 1.9-.59.61-.21 1.2-.45 1.76-.71.56-.26 1.09-.53 1.58-.81s.94-.57 1.36-.88c.42-.3.79-.62 1.11-.94l.59.62h-9.79v-2.03h4.48V54.6h2.38v2.16h4.59v2.03c-.35.44-.75.87-1.23 1.29-.47.42-1 .83-1.58 1.22-.58.39-1.2.76-1.88 1.1-.67.34-1.38.66-2.12.94-.74.29-1.51.54-2.29.76-.78.22-1.57.4-2.37.54l-.55-2.07Zm5.03 4.8v-5.59h2.38v5.59H79.2Zm6.03-1.93c-.42-.49-.84-.92-1.27-1.32-.42-.39-.87-.76-1.33-1.11-.46-.35-.96-.68-1.49-1.01l1.71-1.39c.74.48 1.46 1.01 2.16 1.6.7.59 1.35 1.19 1.92 1.81l-1.71 1.41ZM89.98 62.37c-.14-.68-.3-1.36-.47-2.03s-.36-1.31-.57-1.9l1.99-.46c.19.55.36 1.17.53 1.84s.33 1.38.49 2.12l-1.97.43Zm.29 2.24c1.24-.13 2.27-.33 3.09-.61s1.47-.67 1.96-1.18c.49-.51.83-1.18 1.04-2.01.21-.83.31-1.85.31-3.06l2.07.11c0 1.46-.14 2.71-.43 3.75s-.75 1.91-1.39 2.59-1.48 1.21-2.51 1.59-2.29.63-3.77.75l-.36-1.93Zm2.77-2.51c-.14-.71-.3-1.41-.47-2.09-.17-.68-.35-1.32-.54-1.92l1.97-.48c.19.62.37 1.28.55 1.97.18.69.34 1.38.47 2.07l-1.99.43ZM103.04 67.1V54.89h2.38V67.1h-2.38Zm9.74-3.65c-1.46-.5-2.89-.94-4.31-1.34-1.41-.4-2.75-.74-4-1.02l.59-2.16c1.34.3 2.75.65 4.21 1.06 1.46.41 2.87.85 4.21 1.32l-.71 2.14ZM26.61 75.4c.65-.47 1.27-1 1.84-1.6.57-.6 1.09-1.25 1.53-1.95.45-.7.8-1.4 1.05-2.1l2.3.36c-.28.91-.66 1.78-1.14 2.6s-1.06 1.58-1.74 2.29c-.68.71-1.46 1.36-2.35 1.95l-1.48-1.55Zm2.02 4.49c1.23-.13 2.35-.41 3.35-.84s1.86-.98 2.58-1.64 1.26-1.44 1.65-2.3c.39-.87.58-1.81.58-2.81l.95 1.08h-6.72v-2.03h8.09v.95c0 1.04-.15 2.03-.45 2.94-.3.91-.73 1.75-1.29 2.52s-1.24 1.43-2.04 2.01-1.7 1.05-2.71 1.42c-1.01.37-2.11.63-3.3.76l-.7-2.04Zm7.97-7.25c-.24-.5-.49-.96-.74-1.36s-.54-.8-.85-1.19l1.32-.8c.33.39.62.8.88 1.22.26.43.51.88.76 1.38l-1.36.74Zm2.27-.25c-.21-.5-.44-.96-.67-1.37-.23-.41-.49-.83-.78-1.25l1.33-.7c.3.42.56.84.79 1.27.23.43.46.91.68 1.43l-1.36.62ZM39.99 79.89c.51-.24.93-.5 1.26-.78.33-.28.58-.61.76-1 .18-.39.3-.88.37-1.46s.1-1.31.1-2.18v-4.3h2.27v4.47c0 1.05-.06 1.95-.19 2.72-.13.77-.33 1.43-.6 1.99-.28.55-.64 1.03-1.1 1.43s-1.02.74-1.69 1.03l-1.18-1.92Zm6.55 1.74V70.18h2.32v10.43l-1.36-1.19c.81 0 1.5-.16 2.06-.48.57-.32 1.01-.82 1.33-1.48.32-.67.53-1.52.64-2.56l2.14.29c-.13 1.38-.46 2.55-.97 3.51-.52.96-1.21 1.69-2.09 2.18-.87.5-1.91.74-3.12.74h-.97ZM54.46 77.13v-2.27h11.65v2.27H54.46ZM68.39 79.64c1.86-.08 3.39-.42 4.61-1 1.22-.58 2.12-1.43 2.72-2.54.59-1.11.89-2.5.89-4.17l1.12 1.19h-9.97v-2.14h10.05v.97h1.11c0 2.07-.37 3.83-1.14 5.26-.77 1.44-1.91 2.54-3.41 3.3s-3.36 1.17-5.59 1.22l-.39-2.09Zm10.21-6.47a2.02 2.02 0 0 1-2.04-2.04c0-.39.09-.74.27-1.04.18-.3.43-.55.74-.74.31-.19.66-.28 1.03-.28s.74.09 1.04.28c.3.19.55.43.73.74.19.3.28.65.28 1.04s-.09.72-.28 1.03-.43.56-.73.74c-.3.18-.65.27-1.04.27Zm0-1.37c.2 0 .36-.07.48-.2.13-.13.19-.29.19-.47 0-.2-.07-.36-.2-.48-.13-.13-.29-.19-.48-.19s-.35.07-.48.2-.2.29-.2.48.07.35.2.48c.14.13.29.2.47.2ZM81.15 75.31l-.81-1.82c.75-.39 1.43-.78 2.04-1.17.62-.39 1.19-.8 1.74-1.23.54-.43 1.08-.92 1.61-1.45h2.86a19.033 19.033 0 0 0 3.35 2.68c.62.39 1.3.78 2.04 1.17l-.81 1.82c-1.18-.58-2.27-1.22-3.25-1.92s-1.9-1.48-2.75-2.35c-.85.87-1.77 1.65-2.75 2.35-.98.7-2.07 1.34-3.25 1.92Zm-.08 2.58v-1.82h12.18v1.82H81.07Zm.5 4.2-.1-1.82c1.59-.05 3.21-.13 4.87-.25 1.66-.12 3.34-.27 5.04-.45l.2 1.75c-1.75.21-3.46.37-5.13.5s-3.29.22-4.88.27Zm3.54-.56-2-.77a33.05 33.05 0 0 0 2.14-4.32l2.11.6c-.33.81-.68 1.6-1.06 2.35s-.78 1.47-1.19 2.14Zm-1.9-6.4v-1.75h7.9v1.75h-7.9Zm8.2 7.49c-.18-.41-.37-.85-.59-1.32-.21-.47-.43-.94-.65-1.41-.22-.47-.43-.91-.62-1.32l1.92-.66c.21.4.42.84.65 1.32.23.48.45.96.67 1.43.22.47.41.9.58 1.29l-1.96.67ZM94.38 79.32l-.49-2.24c.95-.5 1.75-1.09 2.4-1.77.65-.68 1.14-1.43 1.46-2.26l2.13.5c-.34.78-.73 1.5-1.19 2.17-.46.67-.99 1.29-1.61 1.86v-.34c-.21.24-.47.49-.77.75s-.61.5-.94.73c-.33.23-.66.43-.99.6Zm-.08-5.77v-1.93h1.67v-2h2.16v2h1.76v1.93H94.3Zm1.6 8.83v-6.15h2.17v6.15H95.9Zm3.77-3.43a41.202 41.202 0 0 0-2.5-2.75l1.36-1.3c.3.28.61.59.92.92.32.33.62.66.92.99.3.33.56.62.78.9l-1.5 1.25ZM99.28 82v-1.93h3.26v-5.82h-2.9v-1.88h2.9v-2.69h2.23v2.69H107v1.88h-2.23v5.82h2.41V82h-7.9Z"/></g></svg>