<svg width="32" height="32" fill="none" xmlns="http://www.w3.org/2000/svg"><path d="M26.667 16c-.356 0-.673-.128-.95-.383a1.488 1.488 0 0 1-.484-.95c-.289-2.067-1.16-3.828-2.616-5.284-1.456-1.455-3.217-2.327-5.284-2.616a1.522 1.522 0 0 1-.95-.467A1.347 1.347 0 0 1 16 5.333c0-.377.133-.694.4-.95.267-.255.578-.36.933-.316 2.8.31 5.19 1.455 7.167 3.433 1.978 1.978 3.122 4.367 3.433 7.167.045.355-.06.666-.316.933s-.573.4-.95.4ZM21.1 16c-.289 0-.544-.1-.767-.3a1.827 1.827 0 0 1-.5-.8 3.846 3.846 0 0 0-1.016-1.717c-.5-.5-1.073-.839-1.717-1.016a1.827 1.827 0 0 1-.8-.5c-.2-.223-.3-.49-.3-.8 0-.445.156-.806.467-1.084.31-.277.655-.372 1.033-.283a6.56 6.56 0 0 1 3.217 1.783A6.56 6.56 0 0 1 22.5 14.5c.089.378-.011.722-.3 1.033a1.436 1.436 0 0 1-1.1.467Zm5.5 12c-2.778 0-5.522-.606-8.233-1.817-2.711-1.21-5.178-2.927-7.4-5.15-2.223-2.222-3.94-4.689-5.15-7.4C4.606 10.923 4 8.178 4 5.4c0-.4.133-.733.4-1S5 4 5.4 4h5.4c.311 0 .589.106.833.317.245.21.39.46.434.75l.866 4.666c.045.356.034.656-.033.9a1.402 1.402 0 0 1-.367.634L9.3 14.533c.444.823.972 1.617 1.583 2.384a23.456 23.456 0 0 0 2.017 2.216 23.444 23.444 0 0 0 2.167 1.917 21.065 21.065 0 0 0 2.4 1.617l3.133-3.134c.2-.2.461-.35.783-.45.323-.1.64-.127.95-.083l4.6.933c.311.09.567.25.767.484.2.233.3.494.3.783v5.4c0 .4-.133.733-.4 1s-.6.4-1 .4Z" fill="#fff"/></svg>