<svg width="32" height="32" fill="none" xmlns="http://www.w3.org/2000/svg"><path d="M22 28c-1.667 0-3.083-.583-4.25-1.75C16.583 25.085 16 23.668 16 22c0-1.666.583-3.083 1.75-4.25C18.917 16.585 20.333 16 22 16c1.667 0 3.083.584 4.25 1.75C27.417 18.918 28 20.335 28 22c0 .578-.083 1.134-.25 1.667a7.265 7.265 0 0 1-.683 1.534l2.666 2.666c.245.245.367.556.367.934 0 .377-.122.689-.367.933-.244.244-.555.367-.933.367s-.689-.123-.933-.367L25.2 27.067c-.489.29-1 .517-1.533.684A5.557 5.557 0 0 1 22 28Zm0-2.666c.933 0 1.722-.322 2.367-.967.644-.644.966-1.433.966-2.366 0-.934-.322-1.723-.966-2.367-.645-.645-1.434-.967-2.367-.967s-1.722.322-2.367.967c-.644.644-.966 1.433-.966 2.367 0 .933.322 1.722.966 2.366.645.645 1.434.967 2.367.967ZM6.667 28.001a2.568 2.568 0 0 1-1.884-.784A2.568 2.568 0 0 1 4 25.334V6.667c0-.733.261-1.36.783-1.883a2.568 2.568 0 0 1 1.884-.783h5.566c.245-.778.723-1.417 1.434-1.917.71-.5 1.489-.75 2.333-.75a4 4 0 0 1 2.383.75c.7.5 1.173 1.139 1.417 1.917h5.533c.734 0 1.361.26 1.884.783.522.522.783 1.15.783 1.883v5.334c0 .377-.128.694-.383.95a1.29 1.29 0 0 1-.95.383 1.29 1.29 0 0 1-.95-.383 1.29 1.29 0 0 1-.384-.95V6.667h-2.666v2.667c0 .378-.128.694-.384.95a1.29 1.29 0 0 1-.95.383H10.667a1.29 1.29 0 0 1-.95-.383 1.29 1.29 0 0 1-.384-.95V6.667H6.667v18.667H12c.378 0 .694.128.95.383.256.256.383.573.383.95 0 .378-.127.695-.383.95a1.29 1.29 0 0 1-.95.384H6.667ZM16 6.667c.378 0 .694-.127.95-.383a1.29 1.29 0 0 0 .383-.95 1.29 1.29 0 0 0-.383-.95 1.29 1.29 0 0 0-.95-.383 1.29 1.29 0 0 0-.95.383 1.29 1.29 0 0 0-.383.95c0 .378.127.694.383.95s.572.383.95.383Z" fill="#fff"/></svg>