<svg width="32" height="32" fill="none" xmlns="http://www.w3.org/2000/svg"><path d="m20.667 22.834 6.6-6.6c.244-.245.555-.367.933-.367s.689.122.933.367c.245.244.367.555.367.933s-.122.69-.367.934L21.6 25.634a1.28 1.28 0 0 1-.933.4 1.28 1.28 0 0 1-.934-.4l-3.8-3.8c-.244-.244-.366-.556-.366-.933 0-.378.122-.69.366-.934.245-.244.556-.366.934-.366.377 0 .689.122.933.366l2.867 2.867Zm-14 5.167a2.568 2.568 0 0 1-1.884-.784A2.568 2.568 0 0 1 4 25.334V6.667c0-.733.261-1.36.783-1.883a2.568 2.568 0 0 1 1.884-.783h5.566c.245-.778.723-1.417 1.434-1.917.71-.5 1.489-.75 2.333-.75a4 4 0 0 1 2.383.75c.7.5 1.173 1.139 1.417 1.917h5.533c.734 0 1.361.26 1.884.783.522.522.783 1.15.783 1.883v5.334c0 .377-.128.694-.383.95a1.29 1.29 0 0 1-.95.383 1.29 1.29 0 0 1-.95-.383 1.29 1.29 0 0 1-.384-.95V6.667h-2.666v2.667c0 .378-.128.694-.384.95a1.29 1.29 0 0 1-.95.383H10.667a1.29 1.29 0 0 1-.95-.383 1.29 1.29 0 0 1-.384-.95V6.667H6.667v18.667h6.666c.378 0 .695.128.95.383.256.256.384.573.384.95 0 .378-.128.695-.384.95a1.29 1.29 0 0 1-.95.384H6.667ZM16 6.667c.378 0 .694-.127.95-.383a1.29 1.29 0 0 0 .383-.95 1.29 1.29 0 0 0-.383-.95 1.29 1.29 0 0 0-.95-.383 1.29 1.29 0 0 0-.95.383 1.29 1.29 0 0 0-.383.95c0 .378.127.694.383.95s.572.383.95.383Z" fill="#fff"/></svg>