<svg width="32" height="32" fill="none" xmlns="http://www.w3.org/2000/svg"><path d="M6.667 28a2.568 2.568 0 0 1-1.884-.783A2.568 2.568 0 0 1 4 25.334V6.667c0-.733.261-1.36.783-1.883a2.568 2.568 0 0 1 1.884-.783h5.566c.245-.778.723-1.417 1.434-1.917.71-.5 1.489-.75 2.333-.75a4 4 0 0 1 2.383.75c.7.5 1.173 1.139 1.417 1.917h5.533c.734 0 1.361.26 1.884.783.522.522.783 1.15.783 1.883v5.334c0 .377-.128.694-.383.95a1.29 1.29 0 0 1-.95.383 1.29 1.29 0 0 1-.95-.383 1.29 1.29 0 0 1-.384-.95V6.667h-2.666v2.667c0 .378-.128.694-.384.95a1.29 1.29 0 0 1-.95.383H10.667a1.29 1.29 0 0 1-.95-.383 1.29 1.29 0 0 1-.384-.95V6.667H6.667v18.667H14c.378 0 .694.128.95.383.256.256.383.573.383.95 0 .378-.127.695-.383.95a1.29 1.29 0 0 1-.95.384H6.667ZM16 6.668c.378 0 .694-.127.95-.383a1.29 1.29 0 0 0 .383-.95 1.29 1.29 0 0 0-.383-.95 1.29 1.29 0 0 0-.95-.383 1.29 1.29 0 0 0-.95.383 1.29 1.29 0 0 0-.383.95c0 .378.127.694.383.95s.572.383.95.383Z" fill="#fff"/><path d="M18 26.556v-2.384c0-.192.036-.379.108-.56.073-.18.18-.343.325-.487l7.548-7.511c.216-.217.457-.373.722-.47a2.31 2.31 0 0 1 .794-.144c.29 0 .566.054.83.162.266.109.506.271.723.488l1.336 1.336c.193.217.343.457.451.722.109.265.163.53.163.795s-.048.535-.144.812a1.938 1.938 0 0 1-.47.74l-7.511 7.512a1.444 1.444 0 0 1-.488.325c-.18.072-.367.108-.56.108h-2.383c-.409 0-.752-.138-1.029-.415a1.397 1.397 0 0 1-.415-1.03Zm2.167-.723h1.372l4.37-4.405-1.337-1.336-4.405 4.37v1.371Zm5.091-5.091-.686-.65 1.336 1.336-.65-.686Z" fill="#fff"/></svg>