<?xml version="1.0" encoding="utf-8"?>
<svg version="1.1" id="レイヤー_1" xmlns="http://www.w3.org/2000/svg" xmlns:xlink="http://www.w3.org/1999/xlink" x="0px" y="0px" viewBox="0 0 80 79" enable-background="new 0 0 80 79" xml:space="preserve">
<path fill="#fb8c00" d="M0,30.943c0-4.897,0.79-9.262,2.373-13.095c1.582-3.831,3.797-7.073,6.645-9.724c2.848-2.65,6.257-4.667,10.226-6.05C23.215,0.691,27.558,0,32.276,0c4.774,0,9.148,0.691,13.118,2.074s7.379,3.4,10.227,6.05c2.847,2.651,5.061,5.892,6.644,9.724c1.583,3.833,2.374,8.198,2.374,13.095c0,4.034-0.548,7.707-1.639,11.02c-1.094,3.314-2.632,6.253-4.617,8.816c-1.985,2.565-4.374,4.682-7.164,6.353c-2.791,1.671-5.912,2.823-9.363,3.456c3.107,2.477,6.256,4.956,9.45,7.434c3.193,2.477,6.543,4.955,10.053,7.434c-1.496,0.115-2.877,0.547-4.142,1.297C55.951,77.5,55.087,78.25,54.628,79c-3.165-2.939-6.357-5.849-9.58-8.729c-3.222-2.883-6.645-5.792-10.269-8.731c-0.289,0.056-0.721,0.087-1.295,0.087h-1.208c-4.718,0-9.061-0.649-13.031-1.946c-3.969-1.296-7.379-3.269-10.226-5.92s-5.064-5.892-6.645-9.724C0.79,40.206,0,35.842,0,30.943z M56.182,30.943c0-4.782-0.604-8.916-1.812-12.403c-1.208-3.486-2.892-6.366-5.05-8.643c-2.158-2.276-4.689-3.962-7.593-5.057c-2.906-1.094-6.057-1.642-9.45-1.642c-3.337,0-6.459,0.549-9.363,1.642c-2.906,1.095-5.437,2.781-7.595,5.057c-2.158,2.277-3.84,5.157-5.048,8.643c-1.209,3.487-1.813,7.621-1.813,12.403c0,4.783,0.604,8.918,1.813,12.403c1.208,3.487,2.891,6.368,5.048,8.643c2.158,2.278,4.689,3.963,7.595,5.056c2.904,1.096,6.026,1.643,9.363,1.643c3.394,0,6.544-0.547,9.45-1.643c2.905-1.093,5.436-2.778,7.593-5.056c2.158-2.275,3.842-5.156,5.05-8.643C55.578,39.861,56.182,35.726,56.182,30.943z"/>
<path fill="#fb8c00" d="M70.162,56.441c0-1.325,0.489-2.476,1.468-3.457c0.978-0.979,2.127-1.469,3.451-1.469c1.323,0,2.474,0.49,3.453,1.469C79.511,53.965,80,55.115,80,56.441c0,1.327-0.489,2.435-1.466,3.328c-0.979,0.892-2.129,1.339-3.453,1.339c-1.325,0-2.474-0.447-3.451-1.339C70.651,58.876,70.162,57.767,70.162,56.441z"/>
</svg>