<?xml version="1.0" encoding="utf-8"?>
<!-- Generator: Adobe Illustrator 26.3.1, SVG Export Plug-In . SVG Version: 6.00 Build 0)  -->
<svg version="1.1" id="レイヤー_1" xmlns="http://www.w3.org/2000/svg" xmlns:xlink="http://www.w3.org/1999/xlink" x="0px"
	 y="0px" viewBox="0 0 32 32" enable-background="new 0 0 32 32" xml:space="preserve">
<rect fill="#979797" width="32" height="32"/>
<g>
	<path fill="#FFFFFF" d="M13.143,14.312v6.75c0,0.311,0.256,0.562,0.571,0.562l0,0c0.316,0,0.571-0.252,0.571-0.562v-6.75
		c0-0.311-0.256-0.562-0.571-0.562l0,0C13.399,13.75,13.143,14.002,13.143,14.312z"/>
	<path fill="#FFFFFF" d="M17.714,14.312v6.75c0,0.311,0.256,0.562,0.571,0.562l0,0c0.316,0,0.571-0.252,0.571-0.562v-6.75
		c0-0.311-0.256-0.562-0.571-0.562l0,0C17.97,13.75,17.714,14.002,17.714,14.312z"/>
	<path fill="#FFFFFF" d="M15.429,14.312v6.75c0,0.311,0.256,0.562,0.571,0.562l0,0c0.316,0,0.571-0.252,0.571-0.562v-6.75
		c0-0.311-0.256-0.562-0.571-0.562l0,0C15.684,13.75,15.429,14.002,15.429,14.312z"/>
	<path fill="#FFFFFF" d="M20.112,23.875h-8.223c-0.301,0-0.55-0.229-0.57-0.524l-0.779-11.327C10.519,11.729,10.27,11.5,9.97,11.5
		l0,0c-0.33,0-0.591,0.275-0.569,0.599l0.813,11.852c0.04,0.591,0.539,1.049,1.14,1.049h9.292c0.601,0,1.1-0.459,1.14-1.049
		l0.813-11.852c0.022-0.324-0.239-0.599-0.569-0.599l0,0c-0.3,0-0.549,0.229-0.569,0.523l-0.779,11.327
		C20.661,23.646,20.412,23.875,20.112,23.875z"/>
	<path fill="#FFFFFF" d="M18.286,9.25V8.125C18.286,7.504,17.774,7,17.143,7h-2.286c-0.631,0-1.143,0.504-1.143,1.125V9.25H8.571
		C8.256,9.25,8,9.502,8,9.812s0.256,0.562,0.571,0.562h14.857c0.316,0,0.571-0.252,0.571-0.562S23.744,9.25,23.429,9.25H18.286z
		 M14.857,9.25V8.406c0-0.155,0.128-0.281,0.286-0.281h1.714c0.158,0,0.286,0.126,0.286,0.281V9.25H14.857z"/>
</g>
</svg>
