<svg id="_レイヤー_2" xmlns="http://www.w3.org/2000/svg" viewBox="0 0 82 15"><defs><style>.cls-1{fill:#666}</style></defs><g id="_レイヤー_1-2"><path class="cls-1" d="M82 10.828a.134.134 0 0 1-.126.139h-6.328a.132.132 0 0 1-.126-.139V.142a.135.135 0 0 1 .126-.14h6.32c.074.005.13.068.126.142L82 10.829ZM82 14.857a.134.134 0 0 1-.126.14h-6.328a.134.134 0 0 1-.126-.14v-2.67a.134.134 0 0 1 .126-.14h6.32c.073.004.13.067.126.14l.008 2.67ZM16.613 4.561a.134.134 0 0 1-.126.139H.127a.132.132 0 0 1-.126-.139V.142a.133.133 0 0 1 .126-.14h16.359c.074.005.13.068.126.142v4.417ZM16.486 10.934a.134.134 0 0 0 .126-.14V6.39a.134.134 0 0 0-.126-.139H.127a.132.132 0 0 0-.126.139v4.408a.133.133 0 0 0 .126.14h4.511c.188 0 .251.049.23.264s-.533 3.512-.533 3.512-.097.264.222.264h6.368c.143 0 .244-.042.288-.288s.541-3.48.541-3.48 0-.271.356-.271l4.376-.005ZM26 4.561a.132.132 0 0 1-.123.139h-7.641a.132.132 0 0 1-.125-.137V.142A.134.134 0 0 1 18.236 0h7.639A.134.134 0 0 1 26 .142v4.419ZM18.111 8.922c0-.187.051-.276.193-.329s16.34-3.876 16.34-3.876.319-.057.319.239v5.772c0 .234-.123.341-.193.355S18.43 14.95 18.43 14.95a.237.237 0 0 1-.309-.256l-.011-5.772ZM38.304.281c.023-.131.131-.281.259-.281h6.474c.122 0 .23.096.179.298s-.23 1.104-.23 1.104-.039.207.154.207h9.67c.208 0 .387.106.319.37s-2.457 12.569-2.506 12.756-.103.247-.29.247l-6.496-.008c-.142 0-.183-.086-.145-.29 0 0 .336-1.65.362-1.808s0-.23-.145-.23H44.17c-.096 0-.194-.057-.154-.265s.794-4.08.819-4.192a.198.198 0 0 1 .202-.167h1.785c.134 0 .196-.059.224-.21s.236-1.234.267-1.379-.034-.179-.139-.179h-2.97a.181.181 0 0 0-.196.154c-.015.093-.674 3.557-.711 3.691s-.077.242-.308.242h-6.442c-.154 0-.205-.085-.168-.265S38.304.281 38.304.281ZM56.479 3.019c0-.154.066-.197.174-.165 0 0 6.375 1.558 6.439 1.572s.22.051.273-.037S66.084.224 66.123.157A.327.327 0 0 1 66.4.003h6.798c.116 0 .262.108.162.267s-3.573 5.486-3.633 5.568-.082.171.048.21 3.302.817 3.391.839a.41.41 0 0 1 .293.438v5.303c0 .185-.071.299-.24.258s-6.75-1.649-6.849-1.677a.23.23 0 0 0-.239.114c-.046.074-2.246 3.441-2.312 3.535a.309.309 0 0 1-.301.139H56.66c-.12 0-.168-.119-.092-.233s3.18-4.856 3.229-4.936.048-.197-.145-.247-2.963-.725-3.057-.75-.125-.079-.125-.184l.009-5.63Z"/></g></svg>