<svg xmlns="http://www.w3.org/2000/svg" viewBox="0 0 73.85 46.64"><defs><style>.cls-1{fill:#988058;}.cls-2{fill:#fff;}</style></defs><g id="レイヤー_2" data-name="レイヤー 2"><g id="Layer_1" data-name="Layer 1"><path class="cls-1" d="M71.12,13.79a2.84,2.84,0,0,0-2.73,2.86h0a.31.31,0,0,1-.21.29c-2.18.6-6,1.35-8.46.13A8.52,8.52,0,0,1,55,11.22a.17.17,0,0,1,.14-.24h0A2.93,2.93,0,0,0,57.25,8.1a2.74,2.74,0,1,0-5.46,0,3.15,3.15,0,0,0,.55,1.78s.13.2,0,.31c-2.49,1.78-4.43,2.16-8.15,1.28-3-.69-4.93-3.81-5.88-5.7a.24.24,0,0,1,.08-.3A3,3,0,0,0,39.67,3,2.87,2.87,0,0,0,37,0h-.18a2.85,2.85,0,0,0-2.64,3,3,3,0,0,0,1.27,2.5.24.24,0,0,1,.08.3c-1,1.89-2.92,5-5.88,5.7-3.72.88-5.66.5-8.15-1.28-.13-.11,0-.31,0-.31a3.15,3.15,0,0,0,.54-1.78,2.85,2.85,0,0,0-2.73-3,2.85,2.85,0,0,0-2.73,3A2.94,2.94,0,0,0,18.67,11h0a.18.18,0,0,1,.15.24,8.51,8.51,0,0,1-4.69,5.85c-2.46,1.22-6.27.47-8.45-.13a.31.31,0,0,1-.21-.29h0a2.85,2.85,0,0,0-2.73-2.86,2.85,2.85,0,0,0-2.73,3,2.86,2.86,0,0,0,2.73,3,2.26,2.26,0,0,0,.69-.1.33.33,0,0,1,.29.08C7.09,23.23,9.52,29.15,10,33.94a45.1,45.1,0,0,1,.23,5.26H63.58a45.1,45.1,0,0,1,.23-5.26c.52-4.79,3-10.71,6.33-14.24a.33.33,0,0,1,.29-.08,2.26,2.26,0,0,0,.69.1,2.86,2.86,0,0,0,2.73-3A2.86,2.86,0,0,0,71.12,13.79Z"/><rect class="cls-1" x="10.27" y="41.72" width="53.31" height="4.91"/><path class="cls-2" d="M33.74,28.81a4.35,4.35,0,0,0,.38,2,2.58,2.58,0,0,0,2.55,1.42,2.81,2.81,0,0,0,2-.78,2.9,2.9,0,0,0,.84-2.24,2.52,2.52,0,0,0-1.56-2.58,8,8,0,0,0-2.8-.37V23.46a7.12,7.12,0,0,0,2.61-.37A2.26,2.26,0,0,0,39,20.79,2.58,2.58,0,0,0,38.36,19a2.4,2.4,0,0,0-1.84-.71,2.34,2.34,0,0,0-2,.87,3.72,3.72,0,0,0-.61,2.31H30.3a10.06,10.06,0,0,1,.5-2.77,6.22,6.22,0,0,1,1.49-2.12,5.2,5.2,0,0,1,1.8-1.06,7.83,7.83,0,0,1,2.55-.36,6.79,6.79,0,0,1,4.53,1.45,4.84,4.84,0,0,1,1.72,3.9,4.27,4.27,0,0,1-1,2.92,3.45,3.45,0,0,1-1.35,1,2.81,2.81,0,0,1,1.52.9,4.85,4.85,0,0,1,1.47,3.73,6.29,6.29,0,0,1-1.72,4.38,6.56,6.56,0,0,1-5.1,1.88q-4.16,0-5.78-2.71A8.16,8.16,0,0,1,30,28.81Z"/></g></g></svg>