<svg version="1.1" id="レイヤー_1" xmlns="http://www.w3.org/2000/svg" xmlns:xlink="http://www.w3.org/1999/xlink" x="0px" y="0px" viewBox="0 0 24 22" enable-background="new 0 0 24 22" xml:space="preserve">
<path fill="#fb8c00" d="M12,18.324L12,18.324c0.505,0,0.915-0.411,0.915-0.919c0-0.508-0.41-0.919-0.915-0.919c-0.505,0-0.915,0.411-0.915,0.919C11.085,17.912,11.495,18.324,12,18.324z"/>
<path fill="#fb8c00" d="M11.085,8.214v5.514c0,0.508,0.41,0.919,0.915,0.919c0.505,0,0.915-0.411,0.915-0.919V8.214c0-0.508-0.41-0.919-0.915-0.919C11.495,7.295,11.085,7.707,11.085,8.214z"/>
<path fill="#fb8c00" d="M23.512,16.5L15.178,1.852C14.518,0.692,13.33,0,12,0c-1.33,0-2.518,0.692-3.178,1.852L0.488,16.5c-0.655,1.151-0.65,2.523,0.012,3.669C1.163,21.315,2.346,22,3.666,22h16.668c1.32,0,2.503-0.685,3.166-1.831C24.162,19.022,24.167,17.651,23.512,16.5z M20.334,20.162H3.666c-1.405,0-2.286-1.525-1.589-2.75l8.334-14.648c0.351-0.617,0.97-0.926,1.589-0.926c0.619,0,1.238,0.309,1.589,0.926l8.334,14.648C22.62,18.637,21.739,20.162,20.334,20.162z"/>
</svg>