<svg xmlns="http://www.w3.org/2000/svg" width="21" height="20" fill="none"><path fill="#F39800" d="M18.5 2.917H1.833v12.5H4.75V17.5l4.166-2.083H18.5v-12.5Z"/><path fill="#832102" fill-rule="evenodd" d="M.999 2.916c0-.46.373-.833.833-.833H18.5c.46 0 .833.373.833.833v12.5c0 .46-.373.834-.833.834H9.112l-3.99 1.995a.833.833 0 0 1-1.206-.745v-1.25H1.832A.833.833 0 0 1 1 15.416v-12.5Zm1.667.834v10.833h2.083c.46 0 .833.373.833.833v.735l2.961-1.48a.833.833 0 0 1 .373-.088h8.75V3.75h-15Z" clip-rule="evenodd"/><path fill="#fff" fill-rule="evenodd" d="M13.082 5.833c.46 0 .834.373.834.833v.417a.833.833 0 1 1-1.667 0v-.417c0-.46.373-.833.833-.833ZM7.25 5.833c.46 0 .833.373.833.833v.417a.833.833 0 1 1-1.667 0v-.417c0-.46.373-.833.833-.833ZM7.992 10.037a.833.833 0 0 0-1.488.752l.746-.373c-.746.373-.746.374-.745.374v.002l.003.004.005.01a2.469 2.469 0 0 0 .058.105 4.246 4.246 0 0 0 .802.962 4.122 4.122 0 0 0 2.793 1.043c1.286 0 2.205-.52 2.793-1.043a4.242 4.242 0 0 0 .802-.962 2.305 2.305 0 0 0 .059-.105l.005-.01.002-.004v-.002l-.744-.373.745.372a.833.833 0 0 0-1.487-.752l-.001.002-.001.002v.002m-.001 0 .003-.006v.001a1.87 1.87 0 0 1-.1.157c-.083.116-.21.274-.389.432-.349.31-.888.623-1.686.623-.797 0-1.337-.313-1.686-.623a2.583 2.583 0 0 1-.473-.562.843.843 0 0 1-.015-.027" clip-rule="evenodd"/></svg>