<svg xmlns="http://www.w3.org/2000/svg" width="21" height="20" fill="none"><path fill="#832102" fill-rule="evenodd" d="M2.833 2.5c0-.92.746-1.667 1.667-1.667h11.666c.92 0 1.667.746 1.667 1.667v8.75a.833.833 0 0 1-1.667 0V2.5H4.5v15h4.583a.833.833 0 0 1 0 1.666H4.5c-.92 0-1.667-.746-1.667-1.666v-15Z" clip-rule="evenodd"/><path fill="#832102" fill-rule="evenodd" d="M6.583 5c0-.46.373-.833.833-.833h5.834a.833.833 0 0 1 0 1.667H7.416A.833.833 0 0 1 6.583 5ZM6.583 8.333c0-.46.373-.833.833-.833h5.834a.833.833 0 0 1 0 1.667H7.416a.833.833 0 0 1-.833-.834ZM6.583 11.666c0-.46.373-.833.833-.833h2.5a.833.833 0 1 1 0 1.667h-2.5a.833.833 0 0 1-.833-.834Z" clip-rule="evenodd"/><path fill="#F39800" d="M15.75 15.416c0 .576-.233 1.096-.61 1.474a2.083 2.083 0 1 1 .61-1.473Z"/><path fill="#832102" fill-rule="evenodd" d="M10.75 15.417a2.917 2.917 0 1 1 5.483 1.387l.94.94a.833.833 0 0 1-1.179 1.179l-.94-.94a2.917 2.917 0 0 1-4.304-2.566Zm2.917-1.25a1.25 1.25 0 1 0 .883 2.134 1.25 1.25 0 0 0-.884-2.134Z" clip-rule="evenodd"/></svg>