<svg xmlns="http://www.w3.org/2000/svg" width="20" height="20" fill="none"><path fill="#F39800" fill-rule="evenodd" d="M9.279 2.912a.833.833 0 0 1 1.442 0l7.722 13.337a.833.833 0 0 1-.722 1.25H2.28a.833.833 0 0 1-.721-1.25L9.279 2.912Z" clip-rule="evenodd"/><path fill="#832102" fill-rule="evenodd" d="M8.557 2.495a1.667 1.667 0 0 1 2.885 0l7.721 13.336a1.667 1.667 0 0 1-1.442 2.502H2.28a1.667 1.667 0 0 1-1.443-2.501L8.557 2.495ZM10 3.33 2.279 16.666H17.72L10 3.33Z" clip-rule="evenodd"/><path fill="#fff" d="M9.36 12.773a.217.217 0 0 1-.14-.046.173.173 0 0 1-.047-.129l-.21-4.923c0-.117.054-.175.163-.175h1.844c.108 0 .163.058.163.175l-.21 4.923c0 .055-.02.098-.058.129a.174.174 0 0 1-.129.046H9.36Zm.711 2.894c-.319 0-.583-.101-.793-.304a1.098 1.098 0 0 1-.303-.793c0-.327.1-.591.303-.793.21-.203.474-.304.793-.304.32 0 .58.101.782.304.21.202.315.466.315.793 0 .311-.105.572-.315.782-.202.21-.463.315-.782.315Z"/></svg>