<svg xmlns="http://www.w3.org/2000/svg" xml:space="preserve" id="レイヤー_1" x="0" y="0" style="enable-background:new 0 0 1598.7 1598.7" version="1.1" viewBox="0 0 1598.7 1598.7"><style>.st0{fill:none;stroke:#231815;stroke-width:176.3955;stroke-linejoin:round}</style><path d="M799.6 545.3v952l-498.1-430.5V259.2c0-50.9 84.2-162.8 193.4-42 73 80.8 304.7 328.1 304.7 328.1z" class="st0"/><path d="M799.6 545.3v952l498.1-430.5V259.2c0-50.9-84.2-162.8-193.4-42-73.1 80.8-304.7 328.1-304.7 328.1z" class="st0"/><path d="M799.6 545.3v952l-498.1-430.5V259.2c0-50.9 84.2-162.8 193.4-42 73 80.8 304.7 328.1 304.7 328.1z" style="fill:#ffd800"/><path d="M799.6 545.3v952l498.1-430.5V259.2c0-50.9-84.2-162.8-193.4-42-73.1 80.8-304.7 328.1-304.7 328.1z" style="fill:#3bb279"/></svg>