<svg id="レイヤー_1" data-name="レイヤー 1" xmlns="http://www.w3.org/2000/svg" viewBox="0 0 120 120"><defs><style>.cls-1{fill:#00b900;}.cls-2{fill:#fff;}</style></defs><title>logo_line</title><g id="FULL_COLOR_ICON" data-name="FULL COLOR ICON"><rect class="cls-1" width="120" height="120" rx="26" ry="26"/><g id="TYPE_A" data-name="TYPE A"><path class="cls-2" d="M726.86,379.36c0-19.55-19.6-35.46-43.69-35.46s-43.69,15.91-43.69,35.46c0,17.53,15.54,32.21,36.54,35,1.42.31,3.36.94,3.85,2.15a9,9,0,0,1,.14,4l-.62,3.74c-.19,1.1-.88,4.32,3.78,2.36s25.16-14.82,34.33-25.37h0c6.33-6.94,9.37-14,9.37-21.81" transform="translate(-623.36 -324.64)"/><path class="cls-1" d="M674.29,369.92h-3.06a.85.85,0,0,0-.85.85v19a.85.85,0,0,0,.85.85h3.06a.85.85,0,0,0,.85-.85v-19a.85.85,0,0,0-.85-.85" transform="translate(-623.36 -324.64)"/><path class="cls-1" d="M695.38,369.92h-3.06a.85.85,0,0,0-.85.85v11.31l-8.72-11.78-.07-.09h0l-.05-.05h0l0,0,0,0,0,0,0,0,0,0h0l0,0h0l-.05,0H679a.85.85,0,0,0-.85.85v19a.85.85,0,0,0,.85.85H682a.85.85,0,0,0,.85-.85V378.5l8.73,11.8a.84.84,0,0,0,.22.21h0l.05,0h0l0,0,0,0h0l.06,0h0a.83.83,0,0,0,.22,0h3.06a.85.85,0,0,0,.85-.85v-19a.85.85,0,0,0-.85-.85" transform="translate(-623.36 -324.64)"/><path class="cls-1" d="M666.9,385.89h-8.33V370.77a.85.85,0,0,0-.85-.85h-3.06a.85.85,0,0,0-.85.85v19h0a.84.84,0,0,0,.24.59h0a.85.85,0,0,0,.59.24H666.9a.85.85,0,0,0,.85-.85v-3.06a.85.85,0,0,0-.85-.85" transform="translate(-623.36 -324.64)"/><path class="cls-1" d="M712.31,374.68a.85.85,0,0,0,.85-.85v-3.06a.85.85,0,0,0-.85-.85H700.06a.85.85,0,0,0-.59.24h0v0a.85.85,0,0,0-.24.59h0v19h0a.84.84,0,0,0,.24.59h0a.84.84,0,0,0,.59.24h12.24a.85.85,0,0,0,.85-.85v-3.06a.85.85,0,0,0-.85-.85H704v-3.22h8.33a.85.85,0,0,0,.85-.85v-3.06a.85.85,0,0,0-.85-.85H704v-3.22Z" transform="translate(-623.36 -324.64)"/></g></g></svg>