<svg version="1.1" id="レイヤー_1" xmlns="http://www.w3.org/2000/svg" xmlns:xlink="http://www.w3.org/1999/xlink" x="0px" y="0px" viewBox="0 0 18 18" enable-background="new 0 0 18 18" xml:space="preserve">
<path fill="#f39800" d="M14.876,18H3c-1.654,0-3-1.347-3-3.001V3.116c0-1.655,1.346-3.001,3-3.001h3.539c0.524,0,0.947,0.424,0.947,0.947S7.063,2.01,6.539,2.01H3c-0.61,0-1.106,0.496-1.106,1.106v11.882c0,0.61,0.496,1.106,1.106,1.106h11.875c0.61,0,1.106-0.496,1.106-1.106v-3.541c0-0.523,0.424-0.947,0.947-0.947s0.947,0.424,0.947,0.947v3.541C17.876,16.653,16.53,18,14.876,18z"/>
<path fill="#f39800" d="M15.884,0h-5.29C10.01,0,9.537,0.474,9.537,1.058s0.474,1.058,1.058,1.058h3.793L8.275,8.233c-0.413,0.413-0.413,1.084,0,1.497s1.083,0.413,1.496,0l6.113-6.116v3.796c0,0.585,0.474,1.058,1.058,1.058C17.526,8.468,18,7.994,18,7.409V2.117V1.058C18,0.474,17.526,0,16.942,0H15.884z"/>
</svg>