<svg id="レイヤー_1" data-name="レイヤー 1" xmlns="http://www.w3.org/2000/svg" viewBox="0 0 45 40"><defs><style>.cls-1{fill:#999;}.cls-2{fill:none;}</style></defs><title>bg_enq_dailyenq</title><path class="cls-1" d="M27.13,38.31,24.84,35.7a15.47,15.47,0,0,1-8.59,2.56C6.52,38.27,0,30.84,0,19.82,0,8.62,6.39,1.37,16.24,1.37S32.53,8.8,32.53,19.82a19.89,19.89,0,0,1-3.91,12.33L31,34.85C33.43,37.28,29.29,41,27.13,38.31Zm-.23-18.49c0-8.14-3.87-13-10.66-13s-10.53,4.86-10.53,13c0,6.3,2.56,13,10.53,13a10.28,10.28,0,0,0,4.9-1.21l-4.5-5c-2.47-2.38,1.84-6.12,4-3.51L24.93,28A15.76,15.76,0,0,0,26.91,19.82Z"/><path class="cls-1" d="M41.89,31.25A4.14,4.14,0,1,1,43,28.41,3.87,3.87,0,0,1,41.89,31.25Z"/><rect class="cls-2" width="45" height="40"/></svg>