<svg xmlns="http://www.w3.org/2000/svg" xmlns:xlink="http://www.w3.org/1999/xlink" viewBox="0 0 120 130"><defs><style>.cls-1{fill:none;}.cls-2{isolation:isolate;}.cls-3{clip-path:url(#clip-path);}.cls-4{mix-blend-mode:soft-light;}.cls-5{fill:#ca1c24;}.cls-6{fill:#ed1c24;}.cls-7{fill:#fff;}.cls-8{fill:#ddd;}</style><clipPath id="clip-path"><rect class="cls-1" x="-1350" y="-10" width="1080" height="100" rx="8" ry="8"/></clipPath></defs><title>img_preparation</title><g class="cls-2"><g id="img"><path class="cls-5" d="M60.17,50.25l16.1-8.56-13-37.51c-.9-2.6-2.09-3.9-3.27-3.9V50.16Z"/><path class="cls-6" d="M60,.28c-1.19,0-2.37,1.3-3.27,3.9L43.78,41.54,60,50.16Z"/><polygon class="cls-5" points="60 62.14 60 76.16 60.17 76.25 83.88 63.64 79.78 51.81 60.17 62.23 60 62.14"/><polygon class="cls-6" points="60 62.14 40.28 51.66 36.18 63.49 60 76.16 60 62.14"/><polygon class="cls-5" points="60 88.14 60 101.16 60.17 101.25 91.19 84.76 87.38 73.77 60.17 88.23 60 88.14"/><path class="cls-6" d="M25.36,94.73,20,110.28c-1.8,5.2,1.23,9.45,6.73,9.45H60v-6.58Z"/><path class="cls-5" d="M94.69,94.88,60.17,113.23l-.17-.09v6.58H93.3c5.5,0,8.53-4.25,6.73-9.45Z"/><polygon class="cls-6" points="60 88.14 32.67 73.62 28.86 84.61 60 101.16 60 88.14"/><polygon class="cls-7" points="60 50.16 43.78 41.54 40.28 51.66 60 62.14 60 50.16"/><polygon class="cls-8" points="60 50.16 60 62.14 60.17 62.23 79.78 51.81 76.27 41.69 60.17 50.25 60 50.16"/><polygon class="cls-7" points="60 76.16 36.18 63.49 32.67 73.62 60 88.14 60 76.16"/><polygon class="cls-8" points="60 76.16 60 88.14 60.17 88.23 87.38 73.77 83.88 63.64 60.17 76.25 60 76.16"/><polygon class="cls-8" points="60 101.16 60 113.14 60.17 113.23 94.69 94.88 91.19 84.76 60.17 101.25 60 101.16"/><polygon class="cls-7" points="60 101.16 28.86 84.61 25.36 94.73 60 113.14 60 101.16"/><rect class="cls-6" x="1" y="112.72" width="118" height="17" rx="4.75" ry="4.75"/></g></g></svg>