<svg width="728" height="275" viewBox="0 0 728 275" fill="none" xmlns="http://www.w3.org/2000/svg">
<g clip-path="url(#clip0_1150_4115)">
<path d="M283.051 167.036C282.465 165.625 281.685 164.171 280.708 162.712C283.507 160.725 285.944 158.726 288.027 156.81C289.53 158.222 290.838 159.675 291.95 161.135C289.341 163.122 286.376 165.121 283.051 167.036Z" fill="#B054A6"/>
<path d="M236.333 218.433C237.694 219.655 238.889 220.913 239.925 222.176C237.688 224.009 235.114 225.854 232.203 227.615C231.635 226.393 230.908 225.136 230.014 223.872C232.458 222.046 234.564 220.195 236.333 218.433Z" fill="#63D9FF"/>
<path d="M310.297 123.552C311.404 125.842 311.936 128.274 311.895 130.629C307.38 131.317 302.813 131.999 298.204 132.669C298.582 130.379 298.381 127.948 297.612 125.593C301.89 124.905 306.12 124.223 310.297 123.552Z" fill="#99D44F"/>
<path d="M199.875 202.661C201.348 201.072 202.65 199.494 203.78 197.963C207.691 200.953 210.969 204.091 213.601 207.187C211.809 208.777 209.85 210.349 207.72 211.885C205.744 208.895 203.129 205.758 199.875 202.667V202.661Z" fill="#FF7DAD"/>
<path d="M381.824 224.715C381.315 223.095 380.57 221.423 379.576 219.738C382.729 217.775 385.552 215.8 388.042 213.907C389.599 215.527 390.912 217.199 391.989 218.884C388.93 220.847 385.546 222.817 381.824 224.709V224.715Z" fill="#EB4045"/>
<path d="M422.241 192.234C423.4 190.413 424.312 188.592 424.968 186.836C429.069 189.09 432.761 191.439 436.038 193.776C434.737 195.597 433.192 197.418 431.394 199.174C428.755 196.92 425.702 194.571 422.241 192.234Z" fill="#B054A6"/>
<path d="M493.306 166.384C492.058 168.3 490.537 170.216 488.738 172.06C485.904 169.866 482.686 167.582 479.082 165.304C480.23 163.383 481.1 161.473 481.697 159.628C485.952 161.823 489.821 164.106 493.306 166.384Z" fill="#EB4045"/>
<path d="M474.721 204.417C475.999 205.953 477.017 207.549 477.78 209.144C474.816 210.633 471.633 212.116 468.219 213.546C467.935 212.009 467.397 210.414 466.598 208.818C469.527 207.335 472.236 205.846 474.716 204.417H474.721Z" fill="#FFD645"/>
<path d="M528.693 135.291C529.498 133.239 529.9 131.168 529.9 129.187C534.078 130.362 538.113 131.566 542.006 132.782C541.533 134.834 540.651 136.91 539.373 138.885C535.953 137.711 532.397 136.507 528.699 135.291H528.693Z" fill="#63D9FF"/>
<path d="M192.692 159.278C193.597 157.973 194.337 156.68 194.905 155.422C197.899 157.214 200.549 159.088 202.857 160.951C201.804 162.256 200.591 163.549 199.206 164.806C197.378 163.015 195.206 161.14 192.692 159.284V159.278Z" fill="#FFD645"/>
<path d="M226.896 184.422C227.505 182.488 227.57 180.448 227.091 178.544C230.831 178.793 234.558 179.048 238.274 179.303C238.611 181.236 238.404 183.277 237.647 185.181C234.073 184.932 230.487 184.677 226.896 184.422Z" fill="#FF8F00"/>
<path d="M235.842 105.449C235.12 106.819 234.191 108.19 233.044 109.506C230.943 108.19 228.624 106.819 226.097 105.455C226.813 104.085 227.322 102.715 227.612 101.398C230.57 102.715 233.31 104.085 235.842 105.449Z" fill="#EB4045"/>
<path d="M355.915 151.709C357.471 152.819 358.909 153.957 360.222 155.108C358.323 157.38 355.956 159.681 353.116 161.876C352.276 160.767 351.318 159.628 350.241 158.477C352.601 156.205 354.495 153.898 355.915 151.709Z" fill="#FFD645"/>
<path d="M367.31 82.2391C366.819 80.7325 366.109 79.1784 365.168 77.6125C368.103 75.75 370.73 73.8816 373.032 72.0902C374.499 73.5969 375.742 75.1509 376.759 76.7168C373.925 78.5793 370.772 80.4478 367.304 82.2391H367.31Z" fill="#63D9FF"/>
<path d="M415.3 134.727C415.928 132.319 415.857 129.745 415.087 127.301C419.637 127.016 424.175 126.732 428.708 126.453C429.642 128.861 429.879 131.435 429.412 133.879C424.72 134.164 420.016 134.449 415.3 134.727Z" fill="#FF8F00"/>
<path d="M443.067 157.653C441.446 158.756 439.724 159.853 437.902 160.921C436.725 158.222 434.914 155.375 432.482 152.587C433.808 151.484 435.033 150.387 436.157 149.319C439.085 152.018 441.387 154.865 443.067 157.653Z" fill="#99D44F"/>
<path d="M513.47 206.345C514.257 204.298 514.629 202.228 514.594 200.253C518.741 201.362 522.759 202.501 526.646 203.646C526.22 205.692 525.386 207.762 524.143 209.738C520.712 208.628 517.156 207.49 513.47 206.345Z" fill="#FFD645"/>
<path d="M534.06 80.1631C533.474 82.0552 532.545 83.9652 531.261 85.7862C528.173 84.5168 524.913 83.2119 521.487 81.901C522.286 80.0088 522.735 78.0989 522.836 76.2779C526.747 77.5413 530.492 78.8522 534.066 80.1631H534.06Z" fill="#FF7DAD"/>
<path d="M464.965 124.875C464.77 122.722 464.178 120.468 463.19 118.232C467.255 116.535 471.083 114.845 474.686 113.214C476.278 115.367 477.473 117.615 478.266 119.857C474.059 121.553 469.621 123.244 464.959 124.875H464.965Z" fill="#B054A6"/>
<path d="M201.46 23.0305C202.212 20.8476 202.46 18.6115 202.218 16.488C206.549 17.3006 210.803 18.131 214.986 18.9673C214.85 21.1502 214.217 23.3863 213.087 25.5098C209.282 24.6972 205.413 23.8668 201.46 23.0305Z" fill="#FF7DAD"/>
<path d="M256.367 114.145C257.225 116.334 257.45 118.677 257.042 120.901C252.77 121.174 248.492 121.447 244.202 121.719C244.765 119.531 244.694 117.188 243.995 114.963C248.131 114.691 252.255 114.418 256.367 114.145Z" fill="#FFD645"/>
<path d="M344.502 44.467C343.295 46.294 341.833 48.1209 340.112 49.8825C337.42 47.7709 334.349 45.5703 330.905 43.3756C332.006 41.5487 332.846 39.7218 333.432 37.9601C337.496 40.0718 341.188 42.2724 344.508 44.467H344.502Z" fill="#FF7DAD"/>
<path d="M332.846 156.538C331.497 155.322 330.035 154.082 328.468 152.824C331.266 149.527 333.313 146.151 334.609 142.954C336.745 144.17 338.78 145.41 340.697 146.662C338.834 149.96 336.212 153.335 332.846 156.532V156.538Z" fill="#EB4045"/>
<path d="M471.97 28.9383C469.965 29.1933 467.953 29.4484 465.935 29.7034C466.598 26.1564 466.184 22.3543 464.705 18.7775C466.568 18.5225 468.426 18.2674 470.278 18.0124C471.917 21.5594 472.479 25.3615 471.97 28.9383Z" fill="#FFD645"/>
<path d="M520.073 179.392C521.333 180.993 522.321 182.66 523.019 184.321C519.913 185.739 516.612 187.15 513.097 188.515C512.872 186.913 512.364 185.246 511.583 183.585C514.618 182.168 517.446 180.756 520.073 179.392Z" fill="#FF7DAD"/>
<path d="M464.432 81.9544C463.835 80.4952 463.036 78.9827 462.03 77.4701C464.924 75.4297 467.456 73.3774 469.621 71.414C471.166 72.8732 472.509 74.3857 473.651 75.8983C470.941 77.9387 467.87 79.991 464.427 81.9544H464.432Z" fill="#FF8F00"/>
<path d="M268.94 73.5553C267.934 75.1569 266.697 76.7465 265.23 78.2887C262.852 76.5092 260.165 74.6586 257.172 72.8139C258.106 71.2124 258.811 69.6227 259.278 68.0805C262.804 69.86 266.029 71.7106 268.94 73.5553Z" fill="#EB4045"/>
<path d="M191.307 71.4734C189.976 70.2752 188.544 69.0474 187 67.8077C189.757 64.5631 191.781 61.2355 193.065 58.0918C195.171 59.29 197.171 60.5178 199.064 61.7575C197.218 65.002 194.632 68.3296 191.307 71.4734Z" fill="#FF7DAD"/>
<path d="M375.984 150.517C376.57 148.744 376.736 146.917 376.47 145.191C379.954 145.73 383.398 146.282 386.8 146.839C386.8 148.613 386.368 150.44 385.516 152.166C382.38 151.626 379.209 151.075 375.984 150.517Z" fill="#B054A6"/>
<path d="M308.925 53.394C309.771 55.215 310.144 57.1546 310.049 59.0231C306.463 59.4976 302.842 59.9721 299.192 60.4407C299.529 58.6197 299.393 56.6801 298.79 54.8117C302.198 54.3371 305.576 53.8626 308.925 53.394Z" fill="#B054A6"/>
<path d="M410.597 44.9119C410.91 46.6321 410.733 48.4412 410.07 50.1376C406.887 49.9241 403.698 49.7165 400.503 49.5029C401.047 47.7828 401.101 45.9737 400.669 44.2832C403.988 44.4967 407.295 44.7043 410.597 44.9178V44.9119Z" fill="#63D9FF"/>
<path d="M497.998 123.582C496.004 123.641 494.004 123.701 492.004 123.76C493.069 120.136 492.974 116.233 491.726 112.597C493.684 112.537 495.649 112.478 497.607 112.425C498.897 116.049 499.027 119.952 497.998 123.588V123.582Z" fill="#FFD645"/>
<path d="M253.196 9.88021C252.835 8.22531 252.202 6.5111 251.302 4.79095C254.474 3.07673 257.379 1.36845 260.017 -0.280521C261.455 1.37438 262.621 3.0886 263.52 4.80874C260.349 6.52296 256.905 8.23125 253.201 9.88021H253.196Z" fill="#63D9FF"/>
<path d="M332.248 96.0715C330.379 97.0146 328.45 97.9458 326.444 98.8593C325.699 95.7334 324.172 92.4236 321.859 89.2146C323.403 88.2715 324.876 87.3402 326.284 86.4268C329.053 89.5527 331.041 92.8625 332.248 96.0715Z" fill="#FFD645"/>
<path d="M228.233 55.9802C228.825 54.1177 228.931 52.178 228.547 50.3571C232.162 50.7308 235.759 51.1104 239.333 51.4959C239.516 53.3584 239.209 55.298 238.416 57.119C235.043 56.7453 231.647 56.3657 228.233 55.9802Z" fill="#B054A6"/>
<path d="M516.588 5.75187C517.824 7.40084 518.759 9.11505 519.398 10.8233C516.191 12.1579 512.795 13.4925 509.222 14.7797C509.05 13.1307 508.583 11.4165 507.813 9.70821C510.92 8.37361 513.848 7.03902 516.588 5.75187Z" fill="#99D44F"/>
<path d="M433.364 68.2169C432.045 69.2016 430.631 70.1803 429.116 71.1412C427.992 68.9406 426.376 66.6273 424.258 64.3555C425.335 63.3649 426.317 62.3862 427.211 61.4313C429.761 63.6319 431.808 65.9452 433.364 68.2169Z" fill="#FF7DAD"/>
</g>
<defs>
<clipPath id="clip0_1150_4115">
<rect width="728" height="275" fill="white"/>
</clipPath>
</defs>
</svg>
