<svg width="184" height="145" viewBox="0 0 184 145" fill="none" xmlns="http://www.w3.org/2000/svg">
<path d="M180.755 120.97C180.735 121.013 180.708 121.064 180.687 121.1C180.585 121.287 180.469 121.46 180.333 121.625C180.251 121.726 180.156 121.82 180.06 121.921C180.006 121.978 179.951 122.043 179.89 122.101C179.74 122.237 179.576 122.367 179.399 122.482C179.386 122.489 179.379 122.504 179.365 122.511C179.181 122.633 178.977 122.749 178.765 122.857C177.907 123.274 176.83 123.512 175.569 123.526L76.4474 124.261C71.3703 124.297 65.1892 120.646 62.62 116.11L12.4423 27.356C12.2856 27.0752 12.1425 26.8016 12.0198 26.528C11.9585 26.3912 11.9108 26.2616 11.8631 26.1248C11.8085 25.988 11.7472 25.8584 11.7063 25.7216C11.645 25.5416 11.6041 25.3688 11.5564 25.196C11.5359 25.1168 11.5087 25.0376 11.4882 24.9584C11.4405 24.7496 11.4133 24.548 11.386 24.3536C11.386 24.3104 11.3724 24.2672 11.3656 24.2312C11.3451 24.008 11.3383 23.792 11.3383 23.5832C11.3383 23.5688 11.3383 23.5472 11.3383 23.5328C11.3383 23.3096 11.3656 23.0864 11.3996 22.8776C11.4678 22.4384 11.5973 22.0352 11.7881 21.668L0.529966 41.8496C-0.30826 43.3544 -0.178778 45.428 1.10923 47.7104L51.2869 136.465C53.8493 141.001 60.0372 144.651 65.1143 144.615L164.236 143.881C166.751 143.859 168.523 142.937 169.347 141.454L180.769 120.977H180.755V120.97Z" fill="#F75441"/>
<path d="M177.621 94.9928L172.605 86.1152L167.589 77.2376L162.573 68.36L157.558 59.4824L152.542 50.6049L147.526 41.7273L142.51 32.8497L137.495 23.9721L132.479 15.0945C131.457 13.2945 130.053 12.2217 129.051 11.6313C126.973 10.4073 125.235 10.3641 124.397 10.3425L114.488 10.4145L104.572 10.4865L94.6635 10.5585L84.7547 10.6305L74.8391 10.7025L64.9303 10.7745L55.0147 10.8465L45.1059 10.9185L35.1903 10.9905L25.2815 11.0625C26.1606 11.0625 26.9034 11.4873 27.4214 12.4089L126.543 11.6745C127.906 11.6601 129.617 12.6681 130.305 13.8921L180.483 102.646C181.505 102.639 182.234 103.064 182.664 103.834L177.648 94.9568L177.621 94.9928Z" fill="#F7604D"/>
<path d="M180.455 102.682C181.15 103.906 180.592 104.929 179.222 104.936C146.183 105.181 113.138 105.425 80.0999 105.67C78.7301 105.685 77.0332 104.684 76.3381 103.453C59.6145 73.8606 42.8908 44.2831 26.1604 14.6984C25.4584 13.4672 26.0173 12.452 27.3939 12.4448C60.4322 12.2 93.4774 11.9552 126.516 11.7104C127.879 11.696 129.589 12.704 130.278 13.928C147.001 43.5127 163.732 73.0974 180.455 102.675V102.682Z" fill="#F75441"/>
<path d="M182.643 116.801C183.284 114.944 183.686 113.302 183.842 111.934C184.129 109.414 183.972 108.349 183.788 107.117C183.72 106.685 183.583 106.117 183.44 105.699C183.106 104.756 183.079 104.705 182.643 103.863C182.207 103.093 181.484 102.668 180.462 102.682C181.157 103.906 180.599 104.929 179.229 104.936L80.1068 105.67C78.7302 105.685 77.0333 104.684 76.345 103.453L26.1605 14.6984C25.4586 13.4672 26.0174 12.452 27.394 12.4448C26.8693 11.5232 26.1333 11.0912 25.2541 11.0984C24.7158 11.12 23.4618 11.1704 22.167 11.66C21.6764 11.8472 21.1175 12.056 20.3338 12.4808C19.3593 13.0064 18.5415 13.6328 18.5279 13.64C17.751 14.2376 16.4562 15.2456 15.0932 16.8584C13.444 18.8024 12.7489 19.9904 11.863 21.5024C11.0247 23.0072 11.1542 25.0808 12.4422 27.3632L62.6199 116.117C65.1823 120.653 71.3702 124.304 76.4473 124.268L175.569 123.533C178.084 123.512 179.856 122.59 180.68 121.107C181.076 120.38 181.996 118.666 182.636 116.801H182.643Z" fill="#FF6250"/>
<path d="M76.4543 124.261L78.8259 124.246L79.262 123.447L79.2211 123.425C82.1106 117.485 83.9166 110.041 82.3423 105.656L80.1071 105.67C78.7305 105.685 77.0336 104.684 76.3453 103.453L75.2208 101.458C70.7434 102.301 65.3802 107.751 61.8637 113.353L61.8296 113.331L61.448 114.015L62.627 116.103C65.1894 120.639 71.3772 124.289 76.4543 124.253V124.261Z" fill="#FF796A"/>
<path d="M78.8254 124.239L76.4539 124.253C71.3768 124.289 65.1957 120.639 62.6265 116.103L61.4476 114.015L61.3658 114.159C61.1886 114.454 61.0182 114.757 60.8547 115.052L60.2686 116.11V116.125L50.1077 134.355L51.3003 136.457C53.8626 140.993 60.0505 144.644 65.1276 144.608L67.4992 144.593L78.2462 125.326L78.8322 124.239H78.8254Z" fill="#F77666"/>
<path d="M105.765 144.313L127.225 144.154L138.428 123.8L116.969 123.958L105.765 144.313Z" fill="#ECC500"/>
<path d="M120.608 105.274L142.102 105.094C143.976 108.413 142.334 116.78 138.429 123.785L116.935 123.965C120.839 116.967 122.482 108.593 120.608 105.274Z" fill="#F7CF00"/>
<g style="mix-blend-mode:multiply">
<path d="M67.1655 10.796C84.7615 44.0744 102.535 75.7111 120.519 105.375C127.797 105.325 133.426 105.274 140.705 105.217L88.0394 11.9984C80.7612 12.0488 74.4438 10.7456 67.1723 10.796H67.1655Z" fill="#D9D9D9"/>
</g>
<path d="M120.56 105.303L142.17 105.138L88.7754 10.6233L84.7274 10.6521L74.8118 10.7313L67.1587 10.7817L120.56 105.303Z" fill="#FFDF40"/>
<path d="M30.6381 100.141L19.8843 80.9887L31.1969 60.6991L41.9576 79.8511L30.6381 100.141Z" fill="#ECC500"/>
<path d="M55.7164 67.136L44.9557 47.9408C41.228 47.9552 35.0742 53.6648 31.2034 60.6848L41.964 79.88C45.828 72.86 51.9887 67.1504 55.7096 67.136H55.7164Z" fill="#F7CF00"/>
<g style="mix-blend-mode:multiply">
<path d="M55.7235 67.1935L44.8879 47.9048L150.947 47.3936L152.978 51.008L157.946 59.8567L161.783 66.6895C125.896 68.4175 90.5133 68.6839 55.7235 67.2007V67.1935Z" fill="#D9D9D9"/>
</g>
<path d="M55.7235 67.1935L44.8879 47.9048L150.941 47.3936L152.971 51.008L157.939 59.8495L161.776 66.6823L55.7235 67.1935Z" fill="#FFDF40"/>
<g style="mix-blend-mode:multiply">
<path d="M118.263 48.8695L104.565 73.5871L116.669 95.0214L144.221 94.8126L118.263 48.8695Z" fill="#D9D9D9"/>
<path d="M74.5734 52.8511L50.5715 38.6959L62.9677 16.3328L86.9696 30.4879L74.5734 52.8511Z" fill="#D9D9D9"/>
<path d="M147.233 92.6025L123.231 78.4545L135.628 56.0913L159.63 70.2393L147.233 92.6025Z" fill="#D9D9D9"/>
<path d="M102.896 42.5769L89.198 67.3017L65.1553 67.4169L51.3416 42.8217L102.896 42.5769Z" fill="#D9D9D9"/>
<path d="M77.7423 58.2656L69.1011 73.8536L105.983 95.5975L114.624 80.0024L77.7423 58.2656Z" fill="#D9D9D9"/>
</g>
<path d="M115.319 0.615265L143.989 16.8368C144.085 16.8872 143.649 17.9384 142.626 20.048L113.956 3.82646C114.979 1.70966 115.408 0.665665 115.319 0.615265Z" fill="#FFE019"/>
<path d="M113.956 3.83364C109.336 13.4168 99.1611 32.5328 98.6227 33.5408C98.425 33.8432 94.7246 39.5384 99.0793 30.5024C101.689 25.088 107.134 14.7344 111.244 7.36883C115.353 0.00324333 116.566 -1.58075 113.956 3.83364Z" fill="#C96D0A"/>
<path d="M113.956 3.83362L142.626 20.0552C138.006 29.6384 127.831 48.7543 127.293 49.7623L98.6228 33.5408C99.1612 32.5328 109.336 13.4168 113.956 3.83362Z" fill="#F2B30C"/>
<path d="M153.714 26.24L165.211 46.7096C163.97 44.5064 161.299 43.3328 157.919 43.3472L146.422 22.8776C149.802 22.8632 152.481 24.0368 153.714 26.24Z" fill="#FFE959"/>
<path d="M157.919 43.3472C162.144 43.3256 165.258 45.1616 165.858 48.5456C166.799 53.8663 161.17 60.9943 153.292 64.4791C148.201 66.7327 143.417 67.4599 139.41 67.4743C132.431 67.5031 128.002 65.4943 127.77 65.3863C128.22 64.6663 136.752 51.0368 149.898 45.2264C152.753 43.9592 155.52 43.3544 157.919 43.34V43.3472Z" fill="#FF9A0D"/>
<path d="M129.439 64.8391C131.893 61.2391 139.532 51.0295 150.32 46.2559C152.951 45.0895 155.574 44.4703 157.919 44.4631C159.738 44.4559 161.326 44.8231 162.512 45.5215C163.773 46.2631 164.543 47.3503 164.788 48.7471C165.626 53.4847 160.168 60.2167 152.862 63.4495C148.548 65.3575 144.016 66.3367 139.403 66.3583C134.694 66.3799 131.198 65.4511 129.439 64.8463V64.8391Z" fill="#B56309"/>
<path d="M127.77 65.3936L116.273 44.924C116.723 44.204 125.255 30.5744 138.401 24.764C141.256 23.4968 144.023 22.892 146.422 22.8776L157.919 43.3472C155.513 43.3544 152.753 43.9664 149.898 45.2336C136.752 51.0512 128.22 64.6808 127.77 65.3936Z" fill="#FDBB0D"/>
<path d="M80.6865 2.69608L103.618 2.52329C106.058 2.50169 108.409 4.24408 110.133 7.29688L87.2015 7.46248C85.4774 4.41688 83.1262 2.67448 80.6865 2.69608Z" fill="#FFE959"/>
<path d="M87.2012 7.4624C88.1349 9.1112 88.8777 11.1416 89.3615 13.4744C92.4282 28.4216 86.3562 43.6639 86.0359 44.4631C85.7292 44.2975 79.9434 41.1151 75.6569 33.5408C74.2121 30.9848 72.9718 27.9392 72.2426 24.3824C70.5117 15.9368 72.9446 6.6488 77.6673 3.63921C81.0883 1.46481 84.7751 3.16401 87.2012 7.4624Z" fill="#FF9A0D"/>
<path d="M85.484 42.8216C83.5554 41.5256 79.6914 38.4584 76.5975 32.9792C75.0573 30.2504 73.9465 27.2768 73.3059 24.152C71.6908 16.2824 73.9533 7.32566 78.2398 4.59686C79.8072 3.59607 81.4769 3.56007 83.0579 4.49606C84.2437 5.19446 85.3545 6.41846 86.2677 8.03126C87.1741 9.62966 87.8556 11.5449 88.2986 13.712C90.8405 26.1032 86.9492 38.732 85.4908 42.8216H85.484Z" fill="#B56309"/>
<path d="M87.2012 7.4624L110.133 7.2968C111.067 8.9456 111.81 10.9688 112.293 13.3088C115.36 28.256 109.288 43.4983 108.968 44.2975L86.0359 44.4631C86.3562 43.6639 92.4282 28.4216 89.3615 13.4744C88.8845 11.1344 88.1349 9.1112 87.2012 7.4624Z" fill="#FDBB0D"/>
<path d="M80.6997 6.67764C78.9278 5.59764 77.0197 4.89204 75.0911 4.53925L67.7583 14.4824C69.6869 14.8352 71.5882 15.5408 73.3669 16.6208L80.6997 6.67764Z" fill="#FFE959"/>
<path d="M62.4023 8.36966C61.9865 8.80166 61.6049 9.24806 61.2642 9.71606L53.9314 19.6592C54.279 19.1912 54.6606 18.7376 55.0695 18.3128C58.3747 14.8857 63.1246 13.6401 67.7587 14.4825L75.0915 4.53927C70.4574 3.68967 65.7075 4.94247 62.4023 8.36966Z" fill="#F2B30C"/>
<path d="M73.3673 16.628C74.4781 17.3048 75.5344 18.1184 76.5158 19.076C87.6648 29.984 85.6272 47.1991 85.5182 48.1063C84.8094 48.1855 71.3774 49.6615 60.7871 43.2248C59.2401 42.2816 57.7681 41.1728 56.4324 39.8624C50.1355 33.7064 49.5221 24.0512 55.0762 18.3128C59.758 13.46 67.3362 12.956 73.3741 16.6208L73.3673 16.628Z" fill="#FF9A0D"/>
<path d="M61.3388 42.26C59.7987 41.324 58.3948 40.244 57.1818 39.0488C54.1764 36.1112 52.425 32.1368 52.3705 28.148C52.3228 24.6776 53.5563 21.4736 55.846 19.1048C60.0235 14.7776 66.927 14.108 72.631 17.4776L72.815 17.5856C73.8713 18.2264 74.8663 19.004 75.7658 19.8824C85.2044 29.12 84.8432 43.124 84.5229 47.0624C81.2313 47.3072 70.4707 47.6384 61.6523 42.44L61.3388 42.2528V42.26Z" fill="#BF680A"/>
<path d="M73.3672 16.6281L80.7 6.68495C81.8108 7.36175 82.8671 8.17535 83.8484 9.13295C94.9975 20.0409 92.9599 37.2561 92.8508 38.1633L85.5181 48.1065C85.6271 47.1993 87.6647 29.9841 76.5156 19.0761C75.5343 18.1185 74.478 17.3049 73.3672 16.6281Z" fill="#FFE019"/>
<path d="M121.241 64.5655L125.541 56.8111C126.298 56.2279 140.643 45.1831 154.545 49.3159C155.84 49.6975 157.053 50.2375 158.171 50.8927L153.871 58.6471C152.753 57.9847 151.533 57.4519 150.245 57.0703C136.343 52.9375 121.998 63.9823 121.241 64.5655Z" fill="#FFE019"/>
<path d="M153.878 58.647C159.97 62.2398 163.296 69.5478 161.517 76.539C159.404 84.8118 150.954 89.5134 142.626 87.0438C140.684 86.4678 138.878 85.647 137.215 84.6678C126.25 78.2022 121.5 65.2494 121.248 64.5654C122.004 63.9822 136.35 52.9375 150.252 57.0703C151.547 57.4518 152.76 57.9918 153.878 58.647Z" fill="#FF9A0D"/>
<path d="M137.747 83.6959C128.54 78.2671 123.831 68.0719 122.57 64.9687C125.794 62.6431 138.095 54.6295 149.946 58.1503C151.131 58.5031 152.269 58.9999 153.333 59.6263C159.146 63.0535 162.076 69.8935 160.454 76.2583C159.541 79.8439 157.299 82.8391 154.144 84.6823C150.77 86.6551 146.783 87.1159 142.913 85.9639C141.148 85.4383 139.403 84.6751 137.74 83.6959H137.747Z" fill="#BF680A"/>
<path d="M158.171 50.8928L153.871 58.6472C155.97 59.8856 157.728 61.5632 159.071 63.5144L163.371 55.76C162.028 53.8088 160.27 52.124 158.171 50.8928Z" fill="#FFE959"/>
<path d="M161.511 76.5391C161.183 77.8207 160.7 79.0231 160.093 80.1175L164.393 72.3631C165 71.2615 165.484 70.0663 165.811 68.7847C166.976 64.1984 165.94 59.4824 163.371 55.76L159.071 63.5144C161.633 67.2367 162.676 71.9527 161.511 76.5391Z" fill="#F2B30C"/>
<path d="M115.626 54.5504L138.558 54.3848C140.446 54.3704 142.381 54.9032 144.228 56.3216C145.318 57.164 146.272 58.3304 147.07 59.7416L124.138 59.9144C123.34 58.5032 122.386 57.3368 121.296 56.4944C119.449 55.076 117.514 54.5432 115.626 54.5576V54.5504Z" fill="#FFE019"/>
<path d="M147.076 59.7415L124.145 59.9143C125.514 62.3335 126.407 65.4511 126.727 68.7847L149.659 68.6191C149.339 65.2855 148.446 62.1679 147.076 59.7487V59.7415Z" fill="#FFE959"/>
<path d="M117.854 87.6199L140.786 87.4471C144.296 87.4183 147.621 83.7607 149.073 77.6551C149.782 74.6959 149.945 71.5711 149.659 68.6047L126.727 68.7703C127.013 71.7295 126.85 74.8615 126.141 77.8207C124.683 83.9263 121.364 87.5839 117.854 87.6127V87.6199Z" fill="#FDBB0D"/>
<path d="M124.138 59.9073C126.721 64.4793 127.634 71.5425 126.135 77.8281C124.172 86.0577 118.822 89.8449 114.188 86.2809C112.457 84.9489 110.985 83.0409 109.752 80.8521C105.125 72.6729 103.789 61.2249 103.714 60.6201C104.205 60.1161 113.548 50.5473 121.289 56.4873C122.38 57.3297 123.334 58.4961 124.131 59.9073H124.138Z" fill="#FF9A0D"/>
<path d="M115.497 85.8271C115.279 85.6975 115.06 85.5463 114.842 85.3879C113.357 84.2503 111.96 82.5295 110.692 80.2903C106.705 73.2415 105.213 63.6295 104.865 61.0447C106.705 59.2807 113.704 53.2256 119.729 56.7823C120.035 56.9623 120.342 57.1711 120.642 57.4015C121.589 58.1287 122.448 59.1727 123.197 60.4903C125.705 64.9255 126.462 71.7871 125.078 77.5759C124.056 81.8527 121.998 85.0495 119.572 86.1295C118.209 86.7343 116.839 86.6335 115.49 85.8415L115.497 85.8271Z" fill="#C96D0A"/>
<path d="M84.5438 23.5616L96.0405 44.0312C94.9705 42.1304 93.2736 40.4744 90.6431 39.4736C89.4641 39.0272 88.1216 38.8184 86.6905 38.8256L75.1938 18.356C76.6318 18.356 77.9675 18.5576 79.1465 19.004C81.777 20.0048 83.4739 21.6608 84.5438 23.5616Z" fill="#FFE959"/>
<path d="M86.6903 38.8257C88.1283 38.8257 89.464 39.0273 90.6429 39.4737C100.436 43.196 97.2602 56.012 97.0898 56.6888C96.4969 56.9552 85.2047 62.0384 75.8206 62.0816C73.7217 62.0888 71.7454 61.8368 70.0621 61.196C64.5284 59.0936 64.6443 52.5344 70.3279 46.5368C74.7984 41.8136 81.3884 38.8545 86.6903 38.8329V38.8257Z" fill="#FF9A0D"/>
<path d="M69.4353 59.6552C68.1064 58.8704 67.3295 57.7184 67.1319 56.228C66.7775 53.6 68.229 50.3528 71.1117 47.3072C75.262 42.9224 81.5316 39.9632 86.6973 39.9344C88.0398 39.9344 89.2392 40.1216 90.2683 40.5176C90.8339 40.7336 91.3723 40.9856 91.8629 41.2736C97.9622 44.8736 96.6606 53.4632 96.1631 55.868C93.6689 56.948 83.9713 60.9152 75.8276 60.9512C73.715 60.9584 71.9022 60.6848 70.4507 60.1304C70.0895 59.9936 69.7488 59.8352 69.4421 59.648L69.4353 59.6552Z" fill="#C96D0A"/>
<path d="M86.6904 38.8256L75.1938 18.356C72.3315 18.3704 69.0945 19.2488 66.0142 20.7896L77.5108 41.2592C80.5911 39.7184 83.8282 38.84 86.6904 38.8256Z" fill="#FFE959"/>
<path d="M55.2398 38.0049L66.7364 58.4745C65.0327 55.4433 66.2457 50.8425 70.3278 46.5297C72.3859 44.3553 74.887 42.5625 77.5107 41.2521L66.014 20.7825C63.3971 22.0929 60.8893 23.8857 58.8312 26.0601C54.7423 30.3729 53.5361 34.9809 55.2398 38.0049Z" fill="#FDBB0D"/>
<path d="M113.868 6.49751L139.873 21.2143C139.955 21.2647 139.56 22.2151 138.64 24.1303L112.634 9.41351C113.561 7.49831 113.956 6.54791 113.868 6.49751Z" fill="#FFE019"/>
<path d="M112.634 9.41358C108.443 18.104 99.216 35.4487 98.7253 36.3631C98.5481 36.6367 95.1884 41.8063 99.1342 33.6055C101.499 28.6952 106.44 19.2992 110.167 12.6176C113.895 5.93599 114.999 4.50319 112.628 9.41358H112.634Z" fill="#C96D0A"/>
<path d="M112.634 9.4136L138.639 24.1304C134.448 32.8208 125.221 50.1655 124.73 51.0799L98.7249 36.3632C99.2087 35.4488 108.443 18.104 112.634 9.4136Z" fill="#E6A700"/>
<g style="mix-blend-mode:multiply">
<path d="M129.719 61.6494L107.564 44.5998L119.272 28.3566L141.427 45.4134L129.719 61.6494Z" fill="#D9D9D9"/>
</g>
<g style="mix-blend-mode:multiply">
<path d="M112.893 47.2784L87.1401 36.9104L93.9277 18.8672L119.681 29.2352L112.893 47.2784Z" fill="#D9D9D9"/>
</g>
<path d="M115.128 40.1144L118.57 33.908C119.142 33.4256 130.06 24.2456 140.071 26.9024C141.004 27.1472 141.87 27.5144 142.667 27.9824L139.226 34.1888C138.428 33.7208 137.563 33.3536 136.629 33.1088C126.618 30.4592 115.701 39.632 115.128 40.1144Z" fill="#FFE019"/>
<path d="M139.226 34.1816C143.546 36.7304 145.693 42.2744 144.126 47.7896C142.265 54.3128 135.9 58.3087 129.903 56.7248C128.506 56.3576 127.218 55.796 126.039 55.0976C118.263 50.5112 115.285 40.6328 115.128 40.1144C115.701 39.632 126.618 30.452 136.629 33.1088C137.563 33.3536 138.428 33.7208 139.226 34.1888V34.1816Z" fill="#FF9A0D"/>
<path d="M126.468 54.32C119.94 50.468 116.887 42.728 116.083 40.3664C118.529 38.4296 127.831 31.6976 136.37 33.9512C137.222 34.1744 138.04 34.52 138.79 34.9592C142.913 37.3856 144.793 42.5912 143.362 47.6096C142.558 50.432 140.807 52.8512 138.428 54.4208C135.886 56.0912 132.949 56.6096 130.162 55.8752C128.888 55.5368 127.647 55.0112 126.468 54.32Z" fill="#C96D0A"/>
<path d="M142.661 27.9751L139.219 34.1815C140.705 35.0599 141.925 36.2911 142.838 37.7599L146.279 31.5535C145.373 30.0919 144.146 28.8535 142.661 27.9751Z" fill="#FFE019"/>
<path d="M144.126 47.7895C143.84 48.8047 143.438 49.7551 142.954 50.6335L146.395 44.4271C146.886 43.5487 147.281 42.5983 147.567 41.5831C148.596 37.9687 148.017 34.3399 146.279 31.5535L142.838 37.7599C144.576 40.5463 145.155 44.1751 144.126 47.7895Z" fill="#FFE019"/>
<path d="M111.687 38.3359L115.128 32.1296C115.237 31.3736 117.364 17.0168 110.072 9.464C109.39 8.7584 108.648 8.1752 107.85 7.7072L104.409 13.9136C105.206 14.3816 105.949 14.9648 106.63 15.6704C113.929 23.2232 111.803 37.5799 111.687 38.3359Z" fill="#FFE019"/>
<path d="M104.409 13.9136C100.088 11.3648 94.3638 12.272 90.5543 16.4624C86.0497 21.4232 85.9338 29.1127 90.309 33.6343C91.3312 34.6927 92.4488 35.5495 93.6278 36.2479C101.404 40.8271 111.169 38.4655 111.687 38.3359C111.796 37.5799 113.922 23.2232 106.631 15.6704C105.949 14.9648 105.206 14.3816 104.409 13.9136Z" fill="#FF9A0D"/>
<path d="M94.0638 35.4632C100.592 39.3152 108.607 38.0984 110.992 37.616C111.367 34.4552 112.273 22.7696 106.051 16.3328C105.431 15.6848 104.729 15.1376 103.979 14.6912C99.8564 12.2648 94.5613 13.2296 91.0925 17.0456C89.1435 19.1984 88.0122 21.9848 87.91 24.8864C87.801 27.9968 88.8573 30.8624 90.8881 32.9648C91.8149 33.9224 92.8849 34.7648 94.0638 35.456V35.4632Z" fill="#C96D0A"/>
<path d="M107.85 7.70727L104.409 13.9137C102.923 13.0353 101.267 12.5817 99.5837 12.5169L103.025 6.31047C104.708 6.37527 106.365 6.83607 107.85 7.70727Z" fill="#FFE019"/>
<path d="M90.5543 16.4625C89.8524 17.2329 89.2595 18.0681 88.7756 18.9465L92.2171 12.7401C92.7078 11.8617 93.3007 11.0265 93.9958 10.2561C96.4968 7.50573 99.8157 6.18093 103.025 6.31053L99.584 12.5169C96.3742 12.3873 93.0485 13.7121 90.5543 16.4625Z" fill="#FFE019"/>
<path d="M106.194 88.8367L75.1048 70.5055C71.0227 60.3103 79.0029 44.8231 93.8797 43.0591L119.551 58.1935C126.782 67.1719 117.875 85.3303 106.194 88.8367Z" fill="#FFE959"/>
<path d="M78.6282 51.8288C74.3076 57.5096 72.8288 64.832 75.105 70.5127L106.194 88.8439C111.878 87.1375 116.894 81.9607 119.722 76.0639L78.6214 51.836L78.6282 51.8288Z" fill="#FDC635"/>
<g style="mix-blend-mode:multiply">
<path d="M122.148 66.4375C122.175 63.3559 121.384 60.4831 119.544 58.1935L93.873 43.0591C91.1198 43.3831 88.5983 44.1823 86.3494 45.3343L122.141 66.4375H122.148Z" fill="#D9D9D9"/>
</g>
<path d="M131.682 32.5185L109.547 19.4721C106.998 19.7745 104.695 20.5449 102.65 21.6537L133.91 40.0856C134.019 37.256 133.358 34.6065 131.682 32.5185Z" fill="#FDBB0D"/>
<path d="M133.91 40.0856L102.65 21.6536C98.7931 23.7416 95.8968 27.0392 94.1931 30.668L129.671 51.584C132.159 48.0992 133.76 43.9304 133.91 40.0784V40.0856Z" fill="#FFE959"/>
<path d="M94.1933 30.6752C92.2578 34.808 91.8626 39.3872 93.3619 43.1384L120.171 58.9423C123.845 57.8407 127.198 55.0543 129.671 51.5912L94.1933 30.6752Z" fill="#FDBB0D"/>
</svg>
