<svg width="184" height="115" viewBox="0 0 184 115" fill="none" xmlns="http://www.w3.org/2000/svg">
<g clip-path="url(#clip0_1204_4748)">
<path d="M176.52 60.38L103.04 104.433C96.9821 108.067 89.5088 108.06 83.4581 104.42L8.99469 59.6067C6.539 58.1267 6.539 54.4467 9.00177 52.9734L92.9341 2.65335L176.534 52.9667C179.28 54.62 179.273 58.7333 176.527 60.3867L176.52 60.38Z" fill="#A3483D"/>
<path d="M98.9351 -41.9467L99.013 14.3867C94.5121 12 87.2228 12.0333 82.7785 14.46L82.7007 -41.8733C87.145 -44.3 94.4342 -44.3333 98.9351 -41.9467Z" fill="#D95F51"/>
<path d="M82.7008 -41.8733L82.7857 14.46L5.81002 56.4267L5.73218 0.0933506L82.7008 -41.8733Z" fill="#C9594B"/>
<path d="M178.027 -0.0733223L178.112 56.26L99.0202 14.38L98.9353 -41.9467L178.027 -0.0733223Z" fill="#C9594B"/>
<path d="M2.50509 60.7734L2.42725 4.44002C2.42725 2.87336 3.52417 1.30002 5.73217 0.0933533L5.81002 56.4267C3.60202 57.6334 2.49802 59.2067 2.50509 60.7734Z" fill="#D94B3A"/>
<path d="M181.438 4.30001L181.516 60.6333C181.516 59.0467 180.376 57.4533 178.105 56.26L178.027 -0.0733185C180.291 1.12668 181.431 2.71335 181.438 4.30668V4.30001Z" fill="#D94B3A"/>
<path d="M179.711 -0.993442L100.62 -42.8668C95.1774 -45.7468 86.3737 -45.7068 81.0023 -42.7801L4.02666 -0.806777C-1.3518 2.12656 -1.29519 6.85322 4.14696 9.73322L83.2387 51.6066C85.8784 52.9999 89.3673 53.7599 93.0756 53.7465C96.7768 53.7265 100.259 52.9399 102.863 51.5199L179.839 9.55322C185.21 6.62656 185.161 1.89322 179.718 -0.986779L179.711 -0.993442ZM179.612 4.29989C179.612 5.29989 178.742 6.35322 177.206 7.18656L100.23 49.1532C99.1547 49.7399 97.8171 50.1932 96.3593 50.4599C95.3048 50.6532 94.1867 50.7599 93.0544 50.7599C90.3014 50.7732 87.7396 50.2266 85.8288 49.2132L6.73712 7.33989C5.16604 6.50656 4.2602 5.45323 4.25312 4.43989C4.25312 3.43989 5.12358 2.38656 6.65927 1.55322L83.6279 -40.4134C84.6965 -40.9934 86.027 -41.4468 87.4919 -41.7134C91.179 -42.3934 95.319 -41.9134 98.0294 -40.4734L177.121 1.39989C178.692 2.23322 179.598 3.28655 179.605 4.29989H179.612Z" fill="#FFCCC7"/>
<path d="M180.469 8.29336L180.532 65.5734C182.776 64.3467 183.894 62.7534 183.894 61.1667L183.83 3.88669C183.83 5.48002 182.712 7.07336 180.469 8.29336Z" fill="#E84838"/>
<path d="M180.525 63.2734L180.469 8.28668L100.69 51.78L100.754 108.4C100.436 110.98 99.3882 112.82 97.8879 113.64L177.659 70.1467C179.018 69.4067 180.016 67.8267 180.426 65.6134L180.532 65.56V64.86C180.596 64.3334 180.638 63.7934 180.631 63.2067L180.525 63.2667V63.2734Z" fill="#F74D3A"/>
<path d="M153.194 23.16L134.051 33.6L134.624 93.62L137.773 91.9067L145.749 87.5534L153.725 83.2067L153.767 83.1867L153.194 23.16Z" fill="#E8C100"/>
<g style="mix-blend-mode:multiply">
<path d="M177.659 70.16L97.8879 113.653C99.6996 112.667 100.867 110.193 100.86 106.713L180.631 63.22C180.638 66.7 179.471 69.1733 177.659 70.16Z" fill="#E8E8E8"/>
</g>
<path d="M0 4.66669L0.0636923 61.9467C0.0636923 63.56 1.22431 65.1667 3.52431 66.3867L3.46062 9.10669C1.16062 7.88669 0 6.28002 0 4.66669Z" fill="#E84838"/>
<path d="M100.69 51.7867L100.754 109.067C96.2319 111.533 88.8649 111.567 84.2861 109.14L84.2224 51.86C88.8012 54.28 96.1683 54.2467 100.69 51.7867Z" fill="#F77666"/>
<path d="M84.3853 106.787L84.2791 106.727L84.2225 51.86L3.46069 9.10669L3.52439 66.3867L3.87115 66.5734C4.30285 68.7267 5.29362 70.2533 6.63115 70.9667L87.393 113.72C85.5742 112.76 84.3924 110.287 84.3853 106.787Z" fill="#F74D3A"/>
<path d="M30.9404 83.8333L38.9373 88.0667L47.0121 92.34L50.1967 94.0267L50.1259 33.8133L30.8696 23.6133L30.9404 83.8333Z" fill="#E8C100"/>
<g style="mix-blend-mode:multiply">
<path d="M87.3928 113.72L6.63098 70.9667C4.81221 70.0067 3.63037 67.54 3.62329 64.0334L84.3851 106.787C84.3922 110.287 85.5741 112.753 87.3928 113.72Z" fill="#E8E8E8"/>
</g>
<path d="M6.63115 70.9667C5.85977 70.5267 5.06008 70.0733 4.01269 69.0533C2.88746 67.9667 2.19392 66.8133 2.00992 66.4867C0.77146 64.3067 0.19823 62.18 0.169922 59.6C0.169922 61.2133 1.33054 62.82 3.63054 64.04C3.63761 67.54 4.81946 70.0133 6.63823 70.9733L6.63115 70.9667Z" fill="#E84838"/>
<path d="M184 58.8C183.979 59.3934 183.936 60.1867 183.866 60.78C183.823 61.16 183.724 61.6533 183.639 62.0267C183.328 63.2933 182.924 64.3867 182.422 65.2734C181.537 66.8534 180.992 67.4467 180.108 68.36C179.952 68.52 179.103 69.36 177.659 70.16C179.471 69.1734 180.646 66.7 180.631 63.2134C182.882 61.9867 184 60.3934 184 58.8Z" fill="#E84838"/>
<path d="M97.888 113.653C96.9751 114.12 95.2696 114.987 92.6299 115C90.7969 115.013 89.0348 114.58 87.3859 113.72C85.5671 112.76 84.3923 110.287 84.3853 106.793C88.964 109.213 96.3382 109.18 100.86 106.713C100.867 110.193 99.6997 112.667 97.888 113.653Z" fill="#ED7162"/>
</g>
<defs>
<clipPath id="clip0_1204_4748">
<rect width="184" height="115" fill="white"/>
</clipPath>
</defs>
</svg>
