<?xml version="1.0" encoding="utf-8"?>
<!-- Generator: Adobe Illustrator 26.3.1, SVG Export Plug-In . SVG Version: 6.00 Build 0)  -->
<svg version="1.1" id="レイヤー_1" xmlns="http://www.w3.org/2000/svg" xmlns:xlink="http://www.w3.org/1999/xlink" x="0px"
	 y="0px" viewBox="0 0 30 30" enable-background="new 0 0 30 30" xml:space="preserve">
<g>
	<path fill="#F39800" d="M17.204,14.979c3.626,0,6.565-2.915,6.565-6.51c-0.322-8.627-12.81-8.624-13.13,0
		C10.639,12.065,13.579,14.979,17.204,14.979z M17.204,3.586c6.507,0.205,6.506,9.561,0,9.766
		C10.697,13.147,10.699,3.79,17.204,3.586z"/>
	<path fill="#F39800" d="M29.751,23.983c-1.911-4.31-6.808-7.376-12.547-7.376S6.568,19.673,4.657,23.983
		C3.819,25.874,5.201,28,7.284,28h19.84C29.208,28,30.59,25.874,29.751,23.983z M28.153,25.821
		c-0.109,0.166-0.428,0.552-1.028,0.552H7.284c-0.6,0-0.919-0.386-1.028-0.552c-0.111-0.169-0.344-0.624-0.096-1.183
		c1.698-3.83,6.136-6.403,11.044-6.403s9.346,2.573,11.044,6.403C28.497,25.197,28.264,25.651,28.153,25.821z"/>
	<g>
		<path fill="#F39800" d="M7.95,14.46H0.868C0.389,14.46,0,14.071,0,13.592v-0.019c0-0.479,0.389-0.868,0.868-0.868H7.95
			c0.479,0,0.868,0.389,0.868,0.868v0.019C8.818,14.071,8.429,14.46,7.95,14.46z"/>
		<path fill="#F39800" d="M3.524,17.087v-7.008c0-0.479,0.389-0.868,0.868-0.868h0.033c0.479,0,0.868,0.389,0.868,0.868v7.008
			c0,0.479-0.389,0.868-0.868,0.868H4.392C3.913,17.954,3.524,17.566,3.524,17.087z"/>
	</g>
</g>
</svg>
