<svg xmlns="http://www.w3.org/2000/svg" width="1366" height="24" fill="none"><path fill="#fff" d="M0 .35V24h1366V0l-15.54 10-15.53-10-15.53 10-15.54-10-15.53 10-15.53-10-15.53 10-15.53-10-15.53 10-15.53-10-15.53 10-15.53-10-15.54 10-15.53-10-15.53 10-15.53-10-15.54 10-15.52-10-15.54 10-15.52-10-15.54 10-15.53-10-15.53 10-15.527-10-15.526 10-15.536-10-15.526 10-15.526-10-15.526 10-15.536-10-15.526 10-15.525-10-15.526 10-15.537-10-15.525 10-15.526-10-15.526 10-15.525-10-15.526 10-15.526-10-15.536 10-15.526-10-15.515 10-15.525-10-15.537 10-15.526-10-15.525 10-15.526-10-15.526 10-15.525-10-15.537 10-15.526-10-15.525 10-15.537-10-15.525 10-15.526-10-15.526 10-15.536-10-15.526 10-15.526-10-15.536 10L403.18 0l-15.526 10-15.525-10-15.526 10-15.536-10-15.526 10-15.526-10-15.525 10-15.526-10-15.537 10-15.525-10-15.526 10L216.85 0l-15.525 10-15.537-10-15.526 10-15.525-10-15.526 10-15.526-10-15.525 10L92.623 0 77.097 10 61.572 0 46.046 10 30.52 0 14.995 10 0 .35Z"/></svg>