<svg xmlns="http://www.w3.org/2000/svg" width="28" height="28" fill="none"><g clip-path="url(#a)"><path fill="#fff" d="M7.56 6.86c0-.77-.63-1.4-1.4-1.4-.77 0-1.4.63-1.4 1.4v.7h2.8v-.7ZM11.76 20.86v-1.12c0-.7.56-1.26 1.26-1.26H21V6.86c0-.77-.63-1.4-1.4-1.4H8.582c.238.406.378.896.378 1.4v14c0 .77.63 1.4 1.4 1.4.77 0 1.4-.63 1.4-1.4Zm-.7-12.81c0-.308.252-.56.56-.56h6.72c.308 0 .56.252.56.56v2.24c0 .308-.252.56-.56.56h-6.72a.562.562 0 0 1-.56-.56V8.05Zm.7 4.2h6.44c.392 0 .7.308.7.7 0 .392-.308.7-.7.7h-6.44a.693.693 0 0 1-.7-.7c0-.392.308-.7.7-.7Zm0 2.8h4.2c.392 0 .7.308.7.7 0 .392-.308.7-.7.7h-4.2a.693.693 0 0 1-.7-.7c0-.392.308-.7.7-.7Z"/><path fill="#fff" d="M13.16 19.88v.98c0 .504-.14.994-.378 1.4H21.7c.77 0 1.4-.63 1.4-1.4v-.98h-9.94Z"/><path fill="#832102" d="M23.24 18.48h-.84V6.86c0-1.54-1.26-2.8-2.8-2.8H6.16c-1.54 0-2.8 1.26-2.8 2.8v.84c0 .7.56 1.26 1.26 1.26h2.94v11.9c0 1.54 1.26 2.8 2.8 2.8H21.7c1.54 0 2.8-1.26 2.8-2.8v-1.12c0-.7-.56-1.26-1.26-1.26Zm-.14 2.38c0 .77-.63 1.4-1.4 1.4h-8.918c.238-.406.378-.896.378-1.4v-.98h9.94v.98Zm-14.14 0v-14c0-.504-.14-.994-.378-1.4H19.6c.77 0 1.4.63 1.4 1.4v11.62h-7.98c-.7 0-1.26.56-1.26 1.26v1.12c0 .77-.63 1.4-1.4 1.4-.77 0-1.4-.63-1.4-1.4Zm-4.2-14c0-.77.63-1.4 1.4-1.4.77 0 1.4.63 1.4 1.4v.7h-2.8v-.7Z"/><path fill="#FFA103" d="M18.34 7.49h-6.72a.56.56 0 0 0-.56.56v2.24c0 .31.25.56.56.56h6.72c.31 0 .56-.25.56-.56V8.05a.56.56 0 0 0-.56-.56Z"/><path fill="#832102" d="M11.76 13.65h6.44c.392 0 .7-.308.7-.7 0-.392-.308-.7-.7-.7h-6.44c-.392 0-.7.308-.7.7 0 .392.308.7.7.7ZM11.76 16.45h4.2c.392 0 .7-.308.7-.7 0-.392-.308-.7-.7-.7h-4.2c-.392 0-.7.308-.7.7 0 .392.308.7.7.7Z"/></g><defs><clipPath id="a"><path fill="#fff" d="M0 0h28v28H0z"/></clipPath></defs></svg>