<svg xmlns="http://www.w3.org/2000/svg" xmlns:xlink="http://www.w3.org/1999/xlink" width="16px" height="16px">
<path fill-rule="evenodd" fill="rgb(243, 152, 0)" d="M15.999,8.999 L15.999,13.0 L11.498,13.0 C11.632,12.679 11.736,12.344 11.818,12.0 L14.999,12.0 L14.999,9.999 L11.974,9.999 C11.948,9.658 11.895,9.325 11.818,8.999 L14.0,8.999 L14.0,7.0 L10.968,7.0 C10.738,6.640 10.474,6.306 10.179,6.0 L14.999,6.0 L14.999,4.0 L9.500,4.0 L9.500,5.387 C9.187,5.142 8.854,4.924 8.500,4.739 L8.500,4.0 L7.500,4.0 L7.500,0.0 L14.999,0.0 L14.999,3.0 L15.999,3.0 L15.999,7.0 L14.999,7.0 L14.999,8.999 L15.999,8.999 ZM14.0,0.999 L8.500,0.999 L8.500,3.0 L14.0,3.0 L14.0,0.999 ZM11.0,10.500 C11.0,13.537 8.537,15.999 5.500,15.999 C2.462,15.999 0.0,13.537 0.0,10.500 C0.0,7.462 2.462,5.0 5.500,5.0 C8.537,5.0 11.0,7.462 11.0,10.500 ZM5.500,6.0 C3.18,6.0 1.0,8.18 1.0,10.500 C1.0,12.981 3.18,15.0 5.500,15.0 C7.981,15.0 10.0,12.981 10.0,10.500 C10.0,8.18 7.981,6.0 5.500,6.0 ZM5.521,12.969 C4.465,12.969 4.22,11.913 4.22,10.648 C4.22,9.269 4.531,8.298 5.551,8.298 C6.618,8.298 7.32,9.353 7.32,10.612 C7.32,12.111 6.474,12.969 5.521,12.969 ZM5.539,8.999 C5.155,8.999 4.909,9.551 4.909,10.630 C4.909,11.704 5.131,12.267 5.526,12.267 L5.533,12.267 C5.940,12.267 6.144,11.692 6.144,10.630 C6.144,9.605 5.958,8.999 5.539,8.999 Z"/>
</svg>