<svg xmlns="http://www.w3.org/2000/svg" xmlns:xlink="http://www.w3.org/1999/xlink" width="16px" height="12px">
<path fill-rule="evenodd" fill="rgb(243, 152, 0)" d="M12.0,11.999 C10.989,11.999 10.73,11.618 9.370,11.0 L6.629,11.0 C5.926,11.618 5.10,11.999 4.0,11.999 C1.790,11.999 0.0,10.209 0.0,8.0 C0.0,5.790 1.790,3.999 4.0,3.999 L7.999,3.999 L7.999,0.0 L8.999,0.0 L8.999,3.999 L12.0,3.999 C14.209,3.999 16.0,5.790 16.0,8.0 C16.0,10.209 14.209,11.999 12.0,11.999 ZM12.0,5.0 L8.999,5.0 L7.999,5.0 L4.0,5.0 C2.345,5.0 0.999,6.346 0.999,8.0 C0.999,9.654 2.345,11.0 4.0,11.0 C4.719,11.0 5.418,10.733 5.968,10.249 L6.252,10.0 L6.629,10.0 L9.370,10.0 L9.747,10.0 L10.31,10.249 C10.581,10.733 11.280,11.0 12.0,11.0 C13.654,11.0 15.0,9.654 15.0,8.0 C15.0,6.346 13.654,5.0 12.0,5.0 ZM12.0,10.0 C10.895,10.0 9.999,9.104 9.999,8.0 C9.999,6.895 10.895,6.0 12.0,6.0 C13.104,6.0 14.0,6.895 14.0,8.0 C14.0,9.104 13.104,10.0 12.0,10.0 ZM12.0,7.0 C11.448,7.0 10.999,7.448 10.999,8.0 C10.999,8.551 11.448,9.0 12.0,9.0 C12.551,9.0 13.0,8.551 13.0,8.0 C13.0,7.448 12.551,7.0 12.0,7.0 ZM7.0,7.0 L8.999,7.0 L8.999,8.0 L7.0,8.0 L7.0,7.0 ZM4.499,9.499 L3.499,9.499 L3.499,8.500 L2.500,8.500 L2.500,7.499 L3.499,7.499 L3.499,6.499 L4.499,6.499 L4.499,7.499 L5.499,7.499 L5.499,8.500 L4.499,8.500 L4.499,9.499 Z"/>
</svg>