<svg xmlns="http://www.w3.org/2000/svg" xmlns:xlink="http://www.w3.org/1999/xlink" width="16px" height="13px">
<path fill-rule="evenodd" fill="rgb(243, 152, 0)" d="M14.0,4.57 L14.0,1.517 L14.0,0.5 L12.599,0.605 L4.790,4.7 L4.0,4.7 L2.0,4.7 C0.897,4.7 0.0,4.900 0.0,5.998 L0.0,6.994 C0.0,8.74 0.867,8.950 1.944,8.980 L2.51,9.301 L3.51,12.289 L3.279,12.969 L4.0,12.969 L5.0,12.969 L6.387,12.969 L5.948,11.659 L5.99,9.121 L12.599,12.388 L14.0,12.998 L14.0,11.476 L14.0,8.936 C15.139,8.705 15.999,7.699 15.999,6.496 C15.999,5.294 15.139,4.288 14.0,4.57 ZM1.999,7.990 C1.447,7.990 0.999,7.544 0.999,6.994 L0.999,5.998 C0.999,5.448 1.447,5.2 2.0,5.2 L4.0,5.2 L4.0,7.990 L3.0,7.990 L1.999,7.990 ZM4.0,11.974 L3.0,8.986 L4.0,8.986 L5.0,11.974 L4.0,11.974 ZM13.0,4.57 L13.0,5.94 L13.0,7.899 L13.0,8.936 L13.0,11.476 L5.0,7.990 L5.0,5.2 L13.0,1.517 L13.0,4.57 ZM14.0,7.899 L14.0,5.94 C14.581,5.300 14.999,5.847 14.999,6.496 C14.999,7.146 14.581,7.693 14.0,7.899 Z"/>
</svg>