<svg width="20" height="20" fill="none" xmlns="http://www.w3.org/2000/svg"><path fill-rule="evenodd" clip-rule="evenodd" d="M12.652 3.985A3.333 3.333 0 0 1 17.366 8.7L10 16.065a4.583 4.583 0 0 1-6.482-6.482l.59.59-.59-.59 6.187-6.187a.833.833 0 1 1 1.179 1.178l-6.187 6.188-.547-.547.547.547a2.917 2.917 0 0 0 0 4.124l-.587.587.587-.587a2.917 2.917 0 0 0 4.125 0l7.365-7.365a1.667 1.667 0 1 0-2.357-2.357l-7.365 7.365-.59-.589.59.59a.417.417 0 0 0 .59.59L13.24 6.93a.833.833 0 1 1 1.178 1.179l-6.187 6.187a2.083 2.083 0 0 1-2.946 0m0 0a2.083 2.083 0 0 1 0-2.946l7.366-7.366" fill="#fff"/></svg>