<svg xmlns="http://www.w3.org/2000/svg" width="20" height="20" fill="none"><path fill="#E44F6F" d="M1.749 9.25c-.083-.5.333-.917.833-.917h1.584c.5 0 .833.333.833.833v7.917c0 .5-.333.833-.833.833h-.917c-.417 0-.833-.333-.833-.75L1.749 9.25Z"/><path fill="#E44F6F" d="M4.166 18.75h-.917c-.833 0-1.583-.667-1.666-1.5L.916 9.333c0-.5.083-.916.417-1.25.333-.416.75-.583 1.25-.583h1.583c.917 0 1.667.75 1.667 1.667v7.916c0 .917-.75 1.667-1.667 1.667ZM2.583 9.167l.666 7.916h.917V9.167H2.583ZM7.5 8.917c0-.333.25-.667.5-.833.667-.334 1.833-1 2.417-1.834.666-1.166.833-3.166.833-3.666v-.167c.083-.833 1.667.167 2.25 1.167.333.583.333 1.25.333 1.833s-.25 1.167-.416 1.75l-.25 1.167h4.5c.583 0 .916.5.833 1.083l-2.25 7.917c-.083.333-.417.583-.833.583H8.333c-.5 0-.833-.334-.833-.834V8.918Z"/><path fill="#E44F6F" d="M15.416 18.75H8.333c-.917 0-1.667-.75-1.667-1.667V8.916c0-.666.417-1.25 1-1.583 1-.5 1.75-1 2-1.5.417-.75.667-2.25.75-3.25v-.25c.083-.5.417-.917.917-1 1-.25 2.416.917 2.916 1.833.334.584.5 1.334.417 2.334 0 .666-.25 1.333-.417 1.916V7.5h3.417c.5 0 1 .25 1.333.666.334.417.417.917.25 1.5L17 17.5a1.606 1.606 0 0 1-1.583 1.25ZM12.083 3.166c-.084.917-.334 2.5-.917 3.5s-1.833 1.75-2.75 2.167l-.083.083v8.167h7.083l2.25-7.917h-4.5c-.25 0-.5-.083-.667-.333-.166-.25-.166-.5-.166-.75l.333-1.25c.167-.583.333-1.083.333-1.583 0-.584-.083-1.084-.25-1.334-.083-.25-.416-.583-.666-.75Z"/></svg>