<svg xmlns="http://www.w3.org/2000/svg" xmlns:xlink="http://www.w3.org/1999/xlink" width="16px" height="16px">
<path fill-rule="evenodd" fill="rgb(243, 152, 0)" d="M13.364,13.938 C10.448,16.683 5.536,16.683 2.620,13.938 C-2.768,9.123 0.671,0.2 7.992,0.7 C15.312,0.5 18.752,9.126 13.364,13.938 ZM12.622,13.257 C12.631,13.249 12.640,13.241 12.649,13.232 C10.417,10.304 5.567,10.304 3.335,13.232 C5.869,15.577 10.75,15.587 12.622,13.257 ZM7.992,1.7 C2.81,0.956 -1.197,8.90 2.633,12.517 C5.290,9.206 10.693,9.205 13.351,12.517 C17.182,8.91 13.903,0.956 7.992,1.7 ZM7.992,9.12 C4.21,8.890 4.20,3.131 7.992,3.8 C11.962,3.130 11.963,8.890 7.992,9.12 ZM7.992,4.9 C5.345,4.93 5.345,7.928 7.992,8.11 C10.638,7.928 10.639,4.93 7.992,4.9 Z"/>
</svg>