<?xml version="1.0" encoding="utf-8"?>
<!-- Generator: Adobe Illustrator 26.3.1, SVG Export Plug-In . SVG Version: 6.00 Build 0)  -->
<svg version="1.1" id="_イヤー_1" xmlns="http://www.w3.org/2000/svg" xmlns:xlink="http://www.w3.org/1999/xlink" x="0px"
	 y="0px" viewBox="0 0 73 75" enable-background="new 0 0 73 75" xml:space="preserve">
<g>
	<g>
		<path fill="#B9E1F0" d="M52.182,70.454H20.818c-9.5,0-17.272-7.772-17.272-17.272V21.818c0-9.5,7.772-17.272,17.272-17.272h31.365
			c9.5,0,17.272,7.772,17.272,17.272v31.365C69.454,62.682,61.682,70.454,52.182,70.454z"/>
		<path fill="#232323" d="M52.182,8.546c7.318,0,13.272,5.954,13.272,13.272v31.365c0,7.318-5.954,13.272-13.272,13.272H20.818
			c-7.318,0-13.272-5.954-13.272-13.272V21.818c0-7.318,5.954-13.272,13.272-13.272H52.182 M52.182,4.546H20.818
			c-9.5,0-17.272,7.772-17.272,17.272v31.365c0,9.5,7.772,17.272,17.272,17.272h31.365c9.5,0,17.272-7.772,17.272-17.272V21.818
			C69.454,12.318,61.682,4.546,52.182,4.546L52.182,4.546z"/>
	</g>
	<circle fill="#FFFFFF" cx="36.5" cy="37.5" r="24.6"/>
	<g>
		<path fill="#232323" d="M26.915,39.501h-7.082l-1.843,4.018h-2.689l8.186-17.583l7.897,17.583h-2.732L26.915,39.501z
			 M25.897,37.154l-2.454-5.625l-2.572,5.625H25.897z"/>
		<path fill="#232323" d="M35.401,49.197H32.99V33.083h2.411v1.136c0.95-0.95,2.029-1.426,3.236-1.426
			c1.436,0,2.618,0.529,3.547,1.586c0.943,1.05,1.414,2.375,1.414,3.976c0,1.563-0.468,2.867-1.404,3.91
			c-0.928,1.036-2.1,1.554-3.514,1.554c-1.222,0-2.314-0.489-3.279-1.468V49.197z M41.133,38.365c0-1-0.271-1.814-0.814-2.443
			c-0.55-0.636-1.243-0.953-2.079-0.953c-0.886,0-1.604,0.307-2.153,0.921c-0.55,0.614-0.825,1.422-0.825,2.422
			c0,0.979,0.275,1.785,0.825,2.421c0.542,0.622,1.257,0.933,2.143,0.933c0.836,0,1.525-0.314,2.068-0.943
			C40.855,40.094,41.133,39.307,41.133,38.365z"/>
		<path fill="#232323" d="M48.559,49.197h-2.411V33.083h2.411v1.136c0.95-0.95,2.029-1.426,3.236-1.426
			c1.436,0,2.618,0.529,3.547,1.586c0.943,1.05,1.414,2.375,1.414,3.976c0,1.563-0.468,2.867-1.404,3.91
			c-0.928,1.036-2.1,1.554-3.514,1.554c-1.222,0-2.314-0.489-3.279-1.468V49.197z M54.291,38.365c0-1-0.271-1.814-0.814-2.443
			c-0.55-0.636-1.243-0.953-2.079-0.953c-0.886,0-1.604,0.307-2.153,0.921c-0.55,0.614-0.825,1.422-0.825,2.422
			c0,0.979,0.275,1.785,0.825,2.421c0.542,0.622,1.257,0.933,2.143,0.933c0.836,0,1.525-0.314,2.068-0.943
			C54.013,40.094,54.291,39.307,54.291,38.365z"/>
	</g>
</g>
</svg>
