<svg xmlns="http://www.w3.org/2000/svg" xmlns:xlink="http://www.w3.org/1999/xlink" width="19px" height="12px">
<path fill-rule="evenodd" fill="rgb(243, 152, 0)" d="M17.812,9.599 C17.812,9.180 17.812,4.799 17.812,4.799 L15.621,4.799 C15.509,4.127 15.144,1.910 15.27,1.200 L7.979,1.200 C7.785,1.792 6.974,4.257 6.792,4.799 L2.161,4.799 L1.508,8.112 L1.187,9.599 L0.0,9.599 L1.187,3.600 L5.937,3.600 L7.125,0.0 L16.31,0.0 L16.624,3.600 L19.0,3.600 L19.0,9.599 L17.812,9.599 ZM4.749,7.199 C7.888,7.297 7.889,11.902 4.750,11.999 C1.611,11.902 1.610,7.297 4.749,7.199 ZM4.749,10.800 C6.310,10.772 6.310,8.428 4.750,8.400 C3.189,8.427 3.189,10.771 4.749,10.800 ZM10.687,9.599 L8.312,9.599 C8.312,9.180 8.241,8.777 8.104,8.400 L10.895,8.400 C10.758,8.777 10.687,9.180 10.687,9.599 ZM14.250,7.199 C17.388,7.297 17.389,11.902 14.250,11.999 C11.111,11.902 11.110,7.297 14.250,7.199 ZM14.250,10.800 C15.810,10.772 15.810,8.428 14.250,8.400 C12.689,8.427 12.689,10.771 14.250,10.800 Z"/>
</svg>