<svg xmlns="http://www.w3.org/2000/svg" xmlns:xlink="http://www.w3.org/1999/xlink" width="14px" height="20px">
<path fill-rule="evenodd" fill="rgb(243, 152, 0)" d="M13.926,19.781 C13.443,20.223 13.0,19.867 12.676,19.606 C12.436,19.414 12.190,19.216 11.908,19.216 C11.584,19.216 11.440,19.342 11.240,19.517 C11.17,19.711 10.766,19.931 10.273,19.931 C9.780,19.931 9.530,19.711 9.309,19.517 C9.108,19.342 8.964,19.216 8.641,19.216 C8.317,19.216 8.172,19.342 7.972,19.517 C7.750,19.711 7.499,19.931 7.6,19.931 C6.512,19.931 6.251,19.702 6.41,19.517 C5.840,19.342 5.696,19.216 5.371,19.216 C5.47,19.216 4.903,19.342 4.703,19.517 C4.480,19.711 4.229,19.931 3.736,19.931 C3.242,19.931 2.991,19.711 2.769,19.518 C2.568,19.343 2.424,19.216 2.98,19.216 C1.815,19.216 1.568,19.415 1.329,19.607 C1.105,19.787 0.851,19.991 0.560,19.991 C0.390,19.991 0.232,19.922 0.77,19.781 C0.23,19.730 0.5,19.656 0.0,19.581 C0.36,19.191 0.369,15.713 1.123,13.472 C1.887,11.201 3.591,8.379 4.557,7.26 L4.557,6.118 C4.556,6.116 4.554,6.112 4.553,6.108 L3.400,1.728 C3.382,1.658 3.396,1.581 3.438,1.523 C3.507,1.429 3.637,1.428 3.693,1.428 C3.920,1.428 4.55,1.445 4.244,1.483 L4.244,0.237 C4.244,0.106 4.348,0.0 4.474,0.0 L5.192,0.0 C5.319,0.0 5.422,0.106 5.422,0.237 L5.422,1.798 C5.978,2.2 6.507,2.285 6.995,2.643 C7.475,2.292 7.995,2.11 8.540,1.809 L8.540,0.237 C8.540,0.106 8.643,0.0 8.770,0.0 L9.488,0.0 C9.615,0.0 9.718,0.106 9.718,0.237 L9.718,1.488 C9.940,1.441 10.78,1.421 10.331,1.428 C10.401,1.429 10.469,1.465 10.511,1.523 C10.554,1.581 10.568,1.657 10.549,1.728 L9.414,6.45 L9.414,6.46 L9.414,7.43 C10.245,8.212 12.18,11.44 12.834,13.472 C13.565,15.644 13.959,19.171 14.1,19.566 L14.3,19.577 C14.10,19.654 13.981,19.730 13.926,19.781 ZM4.963,0.475 L4.704,0.475 L4.704,1.583 C4.788,1.603 4.874,1.625 4.963,1.650 L4.963,0.475 ZM9.258,0.475 L8.999,0.475 L8.999,1.658 C9.87,1.633 9.174,1.610 9.258,1.591 L9.258,0.475 ZM10.24,1.916 C9.920,1.929 9.809,1.954 9.618,1.995 L9.461,2.30 C8.627,2.211 7.843,2.581 7.132,3.127 C7.52,3.190 6.939,3.190 6.858,3.127 C6.148,2.581 5.364,2.211 4.530,2.30 L4.393,2.0 C4.177,1.952 4.54,1.925 3.925,1.913 L4.951,5.809 L8.999,5.809 L10.24,1.916 ZM12.400,13.629 C11.724,11.620 10.225,9.9 9.113,7.424 L5.465,7.424 C5.339,7.424 5.236,7.317 5.236,7.186 C5.236,7.55 5.339,6.948 5.465,6.948 L8.954,6.948 L8.954,6.284 L5.16,6.284 L5.16,7.71 C5.16,7.91 5.11,7.108 5.8,7.122 C5.5,7.173 4.991,7.218 4.965,7.254 C4.11,8.580 2.317,11.371 1.557,13.629 C0.882,15.638 0.540,18.799 0.472,19.490 C0.604,19.557 0.734,19.482 1.47,19.231 C1.319,19.13 1.658,18.741 2.98,18.741 C2.592,18.741 2.844,18.960 3.66,19.154 C3.266,19.329 3.411,19.455 3.736,19.455 C4.61,19.455 4.205,19.329 4.405,19.154 C4.628,18.960 4.879,18.741 5.371,18.741 C5.865,18.741 6.116,18.960 6.337,19.154 C6.538,19.329 6.682,19.455 7.6,19.455 C7.331,19.455 7.475,19.329 7.675,19.154 C7.898,18.959 8.149,18.741 8.641,18.741 C9.134,18.741 9.384,18.960 9.605,19.154 C9.806,19.329 9.950,19.455 10.273,19.455 C10.598,19.455 10.743,19.329 10.943,19.154 C11.165,18.960 11.416,18.741 11.908,18.741 C12.347,18.741 12.671,19.1 12.957,19.231 L12.931,19.266 L12.958,19.231 C13.269,19.481 13.398,19.556 13.530,19.491 C13.453,18.797 13.74,15.631 12.400,13.629 ZM12.793,18.710 L12.676,18.616 C12.436,18.423 12.190,18.226 11.908,18.226 C11.584,18.226 11.439,18.352 11.239,18.527 C11.17,18.721 10.766,18.940 10.273,18.940 C9.780,18.940 9.530,18.720 9.309,18.527 C9.109,18.352 8.965,18.226 8.641,18.226 C8.317,18.226 8.172,18.352 7.972,18.527 C7.750,18.721 7.499,18.940 7.6,18.940 C6.512,18.940 6.262,18.720 6.41,18.527 C5.840,18.352 5.696,18.226 5.372,18.226 C5.47,18.226 4.902,18.352 4.702,18.527 C4.480,18.721 4.229,18.940 3.736,18.940 C3.242,18.940 2.991,18.721 2.769,18.527 C2.569,18.352 2.424,18.226 2.98,18.226 C1.816,18.226 1.570,18.423 1.331,18.615 C1.241,18.687 1.159,18.753 1.76,18.809 C1.27,18.844 0.966,18.857 0.906,18.845 C0.845,18.833 0.792,18.797 0.758,18.743 C0.688,18.634 0.717,18.487 0.822,18.414 C0.893,18.365 0.963,18.309 1.47,18.241 C1.319,18.22 1.657,17.750 2.98,17.750 C2.593,17.750 2.844,17.970 3.65,18.164 C3.266,18.338 3.411,18.465 3.736,18.465 C4.61,18.465 4.206,18.338 4.406,18.164 C4.627,17.970 4.878,17.750 5.372,17.750 C5.866,17.750 6.127,17.979 6.337,18.164 C6.537,18.338 6.681,18.465 7.6,18.465 C7.331,18.465 7.475,18.338 7.675,18.164 C7.897,17.970 8.148,17.750 8.641,17.750 C9.134,17.750 9.385,17.970 9.606,18.164 C9.805,18.338 9.950,18.465 10.273,18.465 C10.598,18.465 10.743,18.338 10.943,18.164 L10.943,18.163 L10.970,18.197 L10.943,18.163 C11.165,17.970 11.416,17.750 11.908,17.750 C12.347,17.750 12.671,18.10 12.956,18.239 L13.70,18.330 C13.171,18.408 13.191,18.558 13.115,18.662 C13.40,18.766 12.896,18.788 12.793,18.710 Z"/>
</svg>