<svg xmlns="http://www.w3.org/2000/svg" viewBox="0 0 66 66"><defs><style>.cls-1{fill:#242424;}</style></defs><g id="レイヤー_2" data-name="レイヤー 2"><g id="icons"><path class="cls-1" d="M33,3A30,30,0,1,1,3,33,30,30,0,0,1,33,3m0-3A33,33,0,1,0,66,33,33,33,0,0,0,33,0Z"/><path class="cls-1" d="M25.83,21.14H36.28a10,10,0,0,1,4.11.73,6.61,6.61,0,0,1,2.46,1.83A6.23,6.23,0,0,1,44,26.08a10.23,10.23,0,0,1,.32,2.39A9.94,9.94,0,0,1,44,30.84a6.23,6.23,0,0,1-1.17,2.38A6.35,6.35,0,0,1,40.39,35a10,10,0,0,1-4.11.72H30v9.09H25.83ZM30,32.35h6.07a5.07,5.07,0,0,0,1.42-.2,4,4,0,0,0,1.35-.64,3.36,3.36,0,0,0,1-1.2,4.12,4.12,0,0,0,.38-1.87,4.83,4.83,0,0,0-.33-1.92,3,3,0,0,0-.9-1.21,3.1,3.1,0,0,0-1.29-.62,7,7,0,0,0-1.56-.16H30Z"/></g></g></svg>