<svg width="28" height="28" fill="none" xmlns="http://www.w3.org/2000/svg"><g clip-path="url(#a)" fill="#999"><path d="M20.02 5.46h-.504c-.168-.49-.63-.84-1.176-.84h-.63A4.177 4.177 0 0 0 14 2.38a4.177 4.177 0 0 0-3.71 2.24h-.63c-.546 0-.994.35-1.176.84H7.98c-1.162 0-2.1.938-2.1 2.1v14.56c0 1.162.938 2.1 2.1 2.1h12.04c1.162 0 2.1-.938 2.1-2.1V7.56c0-1.162-.938-2.1-2.1-2.1Zm.7 16.66c0 .392-.308.7-.7.7H7.98a.693.693 0 0 1-.7-.7V7.56c0-.392.308-.7.7-.7h.42v1.4c0 .7.56 1.26 1.26 1.26h8.68c.7 0 1.26-.56 1.26-1.26v-1.4h.42c.392 0 .7.308.7.7v14.56Zm-9.982-16.1a.716.716 0 0 0 .658-.448A2.77 2.77 0 0 1 14 3.78c1.162 0 2.184.7 2.604 1.792a.702.702 0 0 0 .658.448h.938v2.1H9.8v-2.1h.938Z"/><path d="M10.36 17.164a.974.974 0 0 0-.98.98c0 .546.434.98.98.98s.98-.434.98-.98a.974.974 0 0 0-.98-.98ZM17.78 17.304h-4.76a.842.842 0 0 0-.84.84c0 .462.378.84.84.84h4.76c.462 0 .84-.378.84-.84a.842.842 0 0 0-.84-.84ZM17.78 13.244H14.7a.842.842 0 0 0-.84.84c0 .462.378.84.84.84h3.08c.462 0 .84-.378.84-.84a.842.842 0 0 0-.84-.84ZM13.664 11.704a.854.854 0 0 0-1.19 0l-1.582 1.582-.588-.588a.854.854 0 0 0-1.19 0c-.336.322-.322.854 0 1.19l1.19 1.19a.83.83 0 0 0 .588.252c.21 0 .434-.084.588-.252l2.184-2.184a.854.854 0 0 0 0-1.19ZM14 7.14a.98.98 0 1 0 0-1.96.98.98 0 0 0 0 1.96Z"/></g><defs><clipPath id="a"><path fill="#fff" d="M0 0h28v28H0z"/></clipPath></defs></svg>