<svg width="28" height="28" fill="none" xmlns="http://www.w3.org/2000/svg"><g clip-path="url(#a)" fill="#999"><path d="M6.86 13.02h4.76c.77 0 1.4-.63 1.4-1.4V6.86c0-.77-.63-1.4-1.4-1.4H6.86c-.77 0-1.4.63-1.4 1.4v4.76c0 .77.63 1.4 1.4 1.4Zm0-6.16h4.76v4.76H6.86V6.86ZM12.768 18.368c0-.546.098-1.078.252-1.596v-.392c0-.77-.63-1.4-1.4-1.4H6.86c-.77 0-1.4.63-1.4 1.4v4.76c0 .77.63 1.4 1.4 1.4h4.76c.77 0 1.4-.63 1.4-1.4v-1.162c-.14-.518-.252-1.05-.252-1.596v-.014ZM11.62 21.14H6.86v-4.76h4.76v4.76ZM16.282 13.006a5.93 5.93 0 0 1 2.366-.504c.826 0 1.652.196 2.409.532h.084c.77 0 1.4-.63 1.4-1.4v-4.76c0-.77-.63-1.4-1.4-1.4h-4.76c-.77 0-1.4.63-1.4 1.4v4.76c0 .742.574 1.33 1.301 1.386v-.014Zm.099-6.146h4.76v4.76h-4.76V6.86ZM22.456 21.196c1.372-1.862 1.246-4.494-.448-6.188-1.792-1.792-4.928-1.792-6.734 0a4.757 4.757 0 0 0 0 6.734c.896.896 2.1 1.4 3.36 1.4a4.682 4.682 0 0 0 2.828-.952l1.834 1.834c.14.14.322.21.49.21a.68.68 0 0 0 .49-.21.693.693 0 0 0 0-.994l-1.834-1.834h.014Zm-5.992-.644a3.076 3.076 0 0 1 0-4.354 3.047 3.047 0 0 1 2.184-.896c.826 0 1.596.322 2.184.896a3.076 3.076 0 0 1 0 4.354c-1.162 1.162-3.192 1.162-4.354 0h-.014Z"/></g><defs><clipPath id="a"><path fill="#fff" d="M0 0h28v28H0z"/></clipPath></defs></svg>