<?xml version="1.0" encoding="UTF-8"?><svg id="_イヤー_1" xmlns="http://www.w3.org/2000/svg" viewBox="0 0 73 75"><defs><style>.cls-1{fill:#fff;}.cls-2{fill:#ddcae2;}.cls-3{fill:#232323;}</style></defs><path class="cls-2" d="M71.5,28.834v-3.558c0-8.085-6.651-14.7-14.781-14.7H16.281c-8.13,0-14.781,6.615-14.781,14.7v3.558H71.5Z"/><path class="cls-1" d="M71.5,27.366v31.434c0,8.085-6.651,14.7-14.781,14.7H16.281c-8.13,0-14.781-6.615-14.781-14.7V27.366H71.5Z"/><path class="cls-3" d="M56.719,13.056c5.962,0,10.812,4.823,10.812,10.752V58.8c0,5.929-4.85,10.752-10.812,10.752H16.281c-5.962,0-10.812-4.823-10.812-10.752V23.808c0-5.929,4.85-10.752,10.812-10.752H56.719m0-3.948H16.281C8.151,9.108,1.5,15.723,1.5,23.808V58.8c0,8.085,6.651,14.7,14.781,14.7H56.719c8.13,0,14.781-6.615,14.781-14.7V23.808c0-8.085-6.651-14.7-14.781-14.7h0Z"/><g><g><rect class="cls-1" x="19.219" y="3.474" width="9.011" height="17.984" rx="4.481" ry="4.481"/><path class="cls-3" d="M23.725,23.432c-3.578,0-6.49-2.896-6.49-6.454V7.954c0-3.559,2.912-6.454,6.49-6.454s6.49,2.896,6.49,6.454v9.023c0,3.559-2.912,6.454-6.49,6.454Zm0-17.984c-1.39,0-2.521,1.125-2.521,2.507v9.023c0,1.382,1.131,2.507,2.521,2.507s2.521-1.125,2.521-2.507V7.954c0-1.382-1.131-2.507-2.521-2.507Z"/></g><g><rect class="cls-1" x="44.77" y="3.474" width="9.011" height="17.984" rx="4.481" ry="4.481"/><path class="cls-3" d="M49.275,23.432c-3.578,0-6.49-2.896-6.49-6.454V7.954c0-3.559,2.912-6.454,6.49-6.454s6.49,2.896,6.49,6.454v9.023c0,3.559-2.912,6.454-6.49,6.454Zm0-17.984c-1.39,0-2.521,1.125-2.521,2.507v9.023c0,1.382,1.131,2.507,2.521,2.507s2.521-1.125,2.521-2.507V7.954c0-1.382-1.131-2.507-2.521-2.507Z"/></g></g><path class="cls-3" d="M69.276,29.34H4.197c-1.096,0-1.985-.884-1.985-1.974s.889-1.974,1.985-1.974H69.276c1.096,0,1.985,.884,1.985,1.974s-.889,1.974-1.985,1.974Z"/><path class="cls-3" d="M35.106,40.063h-4.833l2.317-3.924h6.733v27.792h-4.217v-23.869Z"/></svg>