<svg xmlns="http://www.w3.org/2000/svg" width="28" height="28" fill="none"><g clip-path="url(#a)"><path fill="#F39800" d="M16.618 14.91h1.68c1.708 0 3.248.686 4.354 1.806a6.138 6.138 0 0 0-4.354-1.806h-1.68c-.364 0-.714.042-1.064.112.35-.056.7-.112 1.064-.112Z"/><path fill="#fff" d="M18.522 21.07h4.536a4.774 4.774 0 0 0-4.76-4.76h-1.4c.994 1.232 1.624 2.772 1.624 4.48v.28Z"/><path fill="#F39800" d="M23.408 17.626c.448.658.756 1.4.924 2.198a6.272 6.272 0 0 0-.924-2.198Z"/><path fill="#832102" d="M24.332 19.824a6.272 6.272 0 0 0-.924-2.198 6.686 6.686 0 0 0-.756-.91 6.138 6.138 0 0 0-4.354-1.806h-1.68c-.364 0-.714.042-1.064.112.504.364.952.812 1.344 1.288h1.4a4.774 4.774 0 0 1 4.76 4.76h-4.536c0 .518-.182 1.008-.462 1.4h4.998c.77 0 1.4-.63 1.4-1.4 0-.42-.042-.84-.126-1.246Z"/><path fill="#fff" d="M17.458 12.25c.56 0 1.092-.224 1.484-.616a2.113 2.113 0 0 0 0-2.968 2.098 2.098 0 0 0-2.968 0 2.068 2.068 0 0 0-.42.63c0 .098.028.196.028.294 0 .364-.042.728-.126 1.078.084.35.238.686.518.966.392.392.924.616 1.484.616Z"/><path fill="#832102" d="M15.554 9.296c.098-.224.238-.448.42-.63a2.098 2.098 0 0 1 2.968 0 2.113 2.113 0 0 1 0 2.968 2.098 2.098 0 0 1-2.968 0c-.28-.28-.42-.616-.518-.966a5.042 5.042 0 0 1-.686 1.652s0 .014-.014.028c.07.098.14.196.224.28.336.336.742.602 1.162.77a3.547 3.547 0 0 0 2.632 0c.42-.168.812-.434 1.162-.77a3.498 3.498 0 0 0 0-4.956 3.509 3.509 0 0 0-1.162-.77 3.547 3.547 0 0 0-2.632 0c-.364.14-.7.364-.994.644.238.546.378 1.134.42 1.75h-.014Z"/><path fill="#E6E6E6" d="M6.552 10.36a4.023 4.023 0 0 1 1.12-3.64 4.04 4.04 0 0 1 1.344-.896 4.108 4.108 0 0 1 1.526-.294c.266 0 .518.028.77.07a4.072 4.072 0 0 1 3.22 4.76 4.068 4.068 0 0 1-1.12 2.1 4.068 4.068 0 0 1-2.1 1.12c-.252.056-.518.07-.77.07a4.108 4.108 0 0 1-1.526-.294 3.838 3.838 0 0 1-1.344-.896 4.117 4.117 0 0 1-1.12-2.1Zm5.306 12.11H4.942c-.392 0-.742-.154-.994-.406a1.396 1.396 0 0 1-.406-.994v-.28a6.16 6.16 0 0 1 6.16-6.16h1.68a6.16 6.16 0 0 1 6.16 6.16v.28c0 .77-.63 1.4-1.4 1.4h-4.284Z"/><path fill="#FFA103" d="M11.382 16.03h-1.68a4.774 4.774 0 0 0-4.76 4.76v.28h11.2v-.28a4.774 4.774 0 0 0-4.76-4.76Z"/><path fill="#832102" d="M17.542 21.07v-.28a6.16 6.16 0 0 0-6.16-6.16h-1.68a6.16 6.16 0 0 0-6.16 6.16v.28c0 .392.154.742.406.994s.602.406.994.406h11.2c.77 0 1.4-.63 1.4-1.4Zm-5.684 0H4.942v-.28a4.774 4.774 0 0 1 4.76-4.76h1.68a4.774 4.774 0 0 1 4.76 4.76v.28h-4.284Z"/><path fill="#FFA103" d="M8.666 11.466a2.65 2.65 0 0 0 1.876.784c.7 0 1.372-.28 1.876-.784a2.67 2.67 0 0 0 0-3.766 2.65 2.65 0 0 0-1.876-.784c-.7 0-1.372.28-1.876.784a2.67 2.67 0 0 0 0 3.766Z"/><path fill="#832102" d="M10.542 13.65c.266 0 .518-.028.77-.07a4.068 4.068 0 0 0 2.1-1.12 4.068 4.068 0 0 0 1.12-2.1 4.023 4.023 0 0 0-1.12-3.64 4.117 4.117 0 0 0-2.1-1.12 3.583 3.583 0 0 0-.77-.07c-.518 0-1.036.098-1.526.294-.49.196-.952.49-1.344.896a4.072 4.072 0 0 0-1.12 3.64c.154.77.518 1.498 1.12 2.1.392.392.854.7 1.344.896.49.196 1.008.294 1.526.294Zm0-6.72c.714 0 1.372.28 1.876.784a2.67 2.67 0 0 1 0 3.766 2.65 2.65 0 0 1-1.876.784c-.7 0-1.372-.28-1.876-.784a2.67 2.67 0 0 1 0-3.766 2.65 2.65 0 0 1 1.876-.784Z"/></g><defs><clipPath id="a"><path fill="#fff" d="M0 0h28v28H0z"/></clipPath></defs></svg>