<svg xmlns="http://www.w3.org/2000/svg" xmlns:xlink="http://www.w3.org/1999/xlink" width="12px" height="16px">
<path fill-rule="evenodd" fill="rgb(243, 152, 0)" d="M10.999,15.999 L10.999,0.999 L0.999,0.999 L0.999,15.999 L0.0,15.999 L0.0,0.0 L12.0,0.0 L12.0,15.999 L10.999,15.999 ZM8.999,4.0 L3.0,4.0 L3.0,3.0 L8.999,3.0 L8.999,4.0 ZM8.999,6.0 L3.0,6.0 L3.0,5.0 L8.999,5.0 L8.999,6.0 ZM8.999,7.999 L3.0,7.999 L3.0,7.0 L8.999,7.0 L8.999,7.999 ZM7.999,15.0 L7.999,15.999 L6.999,15.999 L6.999,15.0 L6.999,13.0 L5.0,13.0 L5.0,15.0 L5.0,15.999 L4.0,15.999 L4.0,15.0 L4.0,12.0 L7.999,12.0 L7.999,15.0 Z"/>
</svg>