<svg xmlns="http://www.w3.org/2000/svg" viewBox="0 0 72 71.71"><defs><style>.cls-1{fill:#242424;}</style></defs><g id="レイヤー_2" data-name="レイヤー 2"><g id="icons"><path id="_1.home1" data-name="1.home1" class="cls-1" d="M36,3c1.57,0,3.42,1,5.83,3l24,20.41C68.64,28.8,69,29.57,69,33.27V59.71c0,7-2,9-9,9H50c-2.66,0-3-.33-3-3v-14a11,11,0,0,0-22,0v14c0,2.67-.34,3-3,3H12c-7,0-9-2-9-9V33.27c0-3.7.36-4.47,3.17-6.86L30.17,6C32.58,4,34.43,3,36,3Zm-7.77.72-24,20.4C.74,27.09,0,28.69,0,33.27V59.71c0,8.62,3.38,12,12,12H22c4.31,0,6-1.69,6-6v-14a8,8,0,0,1,16,0v14c0,4.31,1.69,6,6,6H60c8.62,0,12-3.38,12-12V33.27c0-4.58-.74-6.18-4.23-9.15l-24-20.4C40.86,1.24,38.43,0,36,0S31.14,1.24,28.23,3.72Z"/></g></g></svg>