<svg xmlns="http://www.w3.org/2000/svg" viewBox="0 0 62.87 62.74"><defs><style>.cls-1{fill:#fff;}</style></defs><g id="レイヤー_2" data-name="レイヤー 2"><g id="icons"><path id="_77.pen" data-name="77.pen" class="cls-1" d="M58.5,8.39l-4-4C51.56,1.45,49,0,46.39,0s-5.14,1.43-8,4.28L6.18,35.88a9.36,9.36,0,0,0-3.32,6L.58,52.56c-1.5,7-.14,10.18,4.77,10.18a21.11,21.11,0,0,0,5-.74l10.33-2.58a9.29,9.29,0,0,0,5.5-3.08L58.43,24.65C64.33,18.85,64.35,14.24,58.5,8.39ZM24.07,54.2a6.54,6.54,0,0,1-4.13,2.31L9.61,59.09a18.47,18.47,0,0,1-4.26.65c-.46,0-1.57-.05-1.92-.48s-.89-1.55.08-6.07L5.79,42.55A6.54,6.54,0,0,1,8.28,38L36.05,10.74l16,16ZM56.33,22.51l-2.15,2.11-16-16,2.26-2.22C42.79,4.12,44.73,3,46.39,3s3.61,1.13,6,3.47l4,4c2.36,2.36,3.5,4.32,3.49,6S58.7,20.17,56.33,22.51Z"/></g></g></svg>