<svg xmlns="http://www.w3.org/2000/svg" xmlns:xlink="http://www.w3.org/1999/xlink" width="16px" height="16px">
<path fill-rule="evenodd" fill="rgb(243, 152, 0)" d="M14.999,16.0 L14.999,7.0 L11.0,7.0 L11.0,2.886 L7.999,1.154 L5.0,2.886 L5.0,7.0 L0.999,7.0 L0.999,16.0 L0.0,16.0 L0.0,6.0 L4.0,6.0 L4.0,2.310 L6.999,0.574 L7.999,0.0 L8.999,0.574 L12.0,2.310 L12.0,6.0 L15.999,6.0 L15.999,16.0 L14.999,16.0 ZM5.0,9.0 L3.0,9.0 L3.0,8.0 L5.0,8.0 L5.0,9.0 ZM5.0,11.0 L3.0,11.0 L3.0,9.999 L5.0,9.999 L5.0,11.0 ZM8.500,4.810 L9.999,4.810 L9.999,5.810 L8.500,5.810 L7.500,5.810 L7.500,4.810 L7.500,3.59 L8.500,3.59 L8.500,4.810 ZM8.999,11.0 L6.999,11.0 L6.999,9.999 L8.999,9.999 L8.999,11.0 ZM6.999,8.0 L8.999,8.0 L8.999,9.0 L6.999,9.0 L6.999,8.0 ZM9.999,16.0 L8.999,16.0 L8.999,14.0 L6.999,14.0 L6.999,16.0 L5.999,16.0 L5.999,13.0 L9.999,13.0 L9.999,16.0 ZM13.0,9.0 L11.0,9.0 L11.0,8.0 L13.0,8.0 L13.0,9.0 ZM13.0,11.0 L11.0,11.0 L11.0,9.999 L13.0,9.999 L13.0,11.0 Z"/>
</svg>