<svg xmlns="http://www.w3.org/2000/svg" xmlns:xlink="http://www.w3.org/1999/xlink" width="16px" height="14px">
<path fill-rule="evenodd" fill="rgb(243, 152, 0)" d="M14.0,3.0 L14.0,0.0 L7.999,1.999 L2.0,0.0 L2.0,3.0 L0.0,3.0 L0.0,14.0 L7.500,14.0 L8.500,14.0 L15.999,14.0 L15.999,3.0 L14.0,3.0 ZM1.0,12.999 L1.0,4.0 L2.0,4.0 L2.0,11.999 L5.0,12.999 L1.0,12.999 ZM7.500,12.779 L3.0,11.279 L3.0,1.387 L7.500,2.887 L7.500,12.779 ZM8.500,2.887 L13.0,1.387 L13.0,11.279 L8.500,12.779 L8.500,2.887 ZM14.999,12.999 L11.0,12.999 L14.0,11.999 L14.0,4.0 L14.999,4.0 L14.999,12.999 Z"/>
</svg>