<svg xmlns="http://www.w3.org/2000/svg" xmlns:xlink="http://www.w3.org/1999/xlink" width="16px" height="14px">
<path fill-rule="evenodd" fill="rgb(243, 152, 0)" d="M15.0,14.0 L0.999,14.0 L0.0,10.0 L0.999,10.0 L0.999,0.0 L15.0,0.0 L15.0,10.0 L15.999,10.0 L15.0,14.0 ZM14.0,1.0 L2.0,1.0 L2.0,10.0 L14.0,10.0 L14.0,1.0 ZM9.999,11.0 L9.999,11.999 L6.0,11.999 L6.0,11.0 L1.280,11.0 L1.780,13.0 L14.219,13.0 L14.719,11.0 L9.999,11.0 ZM13.0,9.0 L3.0,9.0 L3.0,2.0 L13.0,2.0 L13.0,9.0 ZM12.0,3.0 L4.0,3.0 L4.0,7.999 L12.0,7.999 L12.0,3.0 Z"/>
</svg>