<svg xmlns="http://www.w3.org/2000/svg" xmlns:xlink="http://www.w3.org/1999/xlink" width="19px" height="16px">
<path fill-rule="evenodd" fill="rgb(243, 152, 0)" d="M16.847,4.648 C16.793,4.648 16.749,4.622 16.735,4.597 C16.295,3.838 15.691,3.151 14.971,2.585 L15.88,2.230 C15.283,1.640 15.217,1.73 14.902,0.632 C14.611,0.225 14.144,0.7 13.620,0.7 C13.399,0.7 13.172,0.32 12.942,0.114 C12.368,0.316 11.897,0.611 11.511,1.12 C11.16,0.904 10.470,0.854 9.822,0.854 C5.578,0.854 2.123,3.888 2.60,7.639 C1.800,7.612 1.597,7.531 1.461,7.389 C1.188,7.107 1.192,6.652 1.192,6.631 C1.205,6.303 0.953,6.25 0.627,6.10 C0.305,6.0 0.22,6.249 0.6,6.580 C0.2,6.678 0.19,7.558 0.597,8.211 C0.862,8.492 1.353,8.818 2.161,8.840 C2.422,10.301 3.194,11.642 4.416,12.691 C4.454,12.724 4.479,12.747 4.494,12.763 C4.494,12.776 4.494,12.793 4.493,12.817 C4.491,12.839 4.491,12.860 4.491,12.883 L4.491,14.309 C4.516,15.347 5.173,15.999 6.166,15.999 L6.812,15.999 C7.304,15.999 7.746,15.816 8.56,15.485 C8.298,15.227 8.444,14.894 8.479,14.527 C8.921,14.596 9.370,14.630 9.822,14.630 C10.184,14.630 10.545,14.608 10.902,14.564 C10.958,15.34 11.169,15.343 11.351,15.528 C11.563,15.743 11.945,15.999 12.562,15.999 L13.209,15.999 C14.198,15.999 14.855,15.349 14.883,14.343 C14.883,14.332 14.883,14.321 14.883,14.309 L14.883,12.969 C15.641,12.392 16.257,11.703 16.716,10.919 C16.746,10.868 16.816,10.836 16.894,10.836 C18.198,10.836 19.0,10.14 19.0,8.690 L19.0,6.793 C19.0,5.491 18.155,4.649 16.847,4.648 ZM17.812,8.690 C17.812,9.355 17.556,9.638 16.908,9.638 C16.905,9.638 16.903,9.638 16.900,9.638 C16.898,9.638 16.896,9.638 16.894,9.638 C16.405,9.638 15.943,9.885 15.694,10.310 C15.299,10.984 14.754,11.580 14.96,12.67 C13.846,12.252 13.694,12.450 13.696,12.858 L13.696,14.309 C13.684,14.740 13.478,14.801 13.209,14.801 L12.562,14.801 C12.293,14.801 12.73,14.709 12.75,14.309 L12.75,13.729 C12.90,13.380 11.877,13.234 11.628,13.234 C11.577,13.234 11.524,13.239 11.472,13.251 C10.945,13.369 10.392,13.432 9.822,13.432 C9.153,13.432 8.508,13.346 7.901,13.185 C7.843,13.170 7.786,13.162 7.731,13.162 C7.495,13.162 7.300,13.309 7.300,13.664 L7.300,14.309 C7.320,14.668 7.81,14.801 6.812,14.801 L6.166,14.801 C5.896,14.801 5.688,14.730 5.678,14.309 L5.678,12.883 C5.708,12.327 5.504,12.52 5.185,11.779 C3.985,10.748 3.241,9.320 3.241,7.742 C3.241,4.599 6.187,2.51 9.822,2.51 C10.400,2.51 10.965,2.95 11.492,2.239 C11.578,2.263 11.654,2.274 11.725,2.274 C11.935,2.274 12.87,2.172 12.238,1.987 C12.491,1.678 12.828,1.423 13.335,1.244 C13.440,1.207 13.535,1.189 13.620,1.189 C13.941,1.189 14.96,1.446 13.961,1.852 L13.676,2.715 C13.568,3.18 13.623,3.95 13.855,3.250 C14.631,3.769 15.267,4.436 15.710,5.201 C15.944,5.605 16.383,5.845 16.847,5.845 C17.522,5.846 17.812,6.159 17.812,6.793 L17.812,8.690 Z"/>
</svg>