<svg xmlns="http://www.w3.org/2000/svg" xmlns:xlink="http://www.w3.org/1999/xlink" width="14px" height="16px">
<path fill-rule="evenodd" fill="rgb(243, 152, 0)" d="M14.0,9.0 L12.0,7.511 L12.0,4.999 L14.0,4.999 L11.313,2.999 L8.999,2.999 L8.999,2.0 L7.500,2.0 L7.500,0.0 L6.499,0.0 L6.499,2.0 L5.0,2.0 L5.0,2.999 L2.686,2.999 L0.0,4.999 L1.999,4.999 L1.999,7.511 L0.0,9.0 L1.999,9.0 L1.999,11.511 L0.0,12.999 L1.999,12.999 L1.999,15.999 L3.0,15.999 L3.0,12.999 L10.999,12.999 L10.999,15.999 L12.0,15.999 L12.0,12.999 L14.0,12.999 L12.0,11.511 L12.0,9.0 L14.0,9.0 ZM10.999,10.999 L3.0,10.999 L3.0,9.0 L10.999,9.0 L10.999,10.999 ZM10.999,6.999 L3.0,6.999 L3.0,4.999 L10.999,4.999 L10.999,6.999 Z"/>
</svg>