<?xml version="1.0" encoding="utf-8"?>
<!-- Generator: Adobe Illustrator 26.3.1, SVG Export Plug-In . SVG Version: 6.00 Build 0)  -->
<svg version="1.1" id="_イヤー_1" xmlns="http://www.w3.org/2000/svg" xmlns:xlink="http://www.w3.org/1999/xlink" x="0px"
	 y="0px" viewBox="0 0 73 75" enable-background="new 0 0 73 75" xml:space="preserve">
<g>
	<g>
		<path fill="#BEBEDF" d="M71.77,28.718v-3.606c0-8.192-6.703-14.895-14.895-14.895h-40.75c-8.192,0-14.895,6.703-14.895,14.895
			v3.606C1.23,28.718,71.77,28.718,71.77,28.718z"/>
		<g>
			<path fill="#FFFFFF" d="M71.77,27.231v31.852c0,8.192-6.703,14.895-14.895,14.895h-40.75c-8.192,0-14.895-6.703-14.895-14.895
				V27.231H71.77z"/>
		</g>
		<path fill="#232323" d="M56.875,12.731c6.008,0,10.895,4.888,10.895,10.895v35.457c0,6.008-4.888,10.895-10.895,10.895h-40.75
			c-6.008,0-10.895-4.888-10.895-10.895V23.626c0-6.008,4.888-10.895,10.895-10.895L56.875,12.731 M56.875,8.731h-40.75
			c-8.192,0-14.895,6.703-14.895,14.895v35.457c0,8.192,6.703,14.895,14.895,14.895h40.75c8.192,0,14.895-6.703,14.895-14.895
			V23.626C71.77,15.433,65.067,8.731,56.875,8.731L56.875,8.731z"/>
		<g>
			<path fill="#FFFFFF" d="M23.626,21.245L23.626,21.245c-2.497,0-4.54-2.043-4.54-4.54V7.562c0-2.497,2.043-4.54,4.54-4.54l0,0
				c2.497,0,4.54,2.043,4.54,4.54v9.143C28.166,19.202,26.123,21.245,23.626,21.245z"/>
			<path fill="#232323" d="M23.626,23.245c-3.606,0-6.54-2.934-6.54-6.54V7.562c0-3.606,2.934-6.54,6.54-6.54s6.54,2.934,6.54,6.54
				v9.143C30.166,20.311,27.232,23.245,23.626,23.245z M23.626,5.022c-1.4,0-2.54,1.14-2.54,2.54v9.143c0,1.4,1.14,2.54,2.54,2.54
				s2.54-1.14,2.54-2.54V7.562C26.166,6.162,25.027,5.022,23.626,5.022z"/>
		</g>
		<g>
			<path fill="#FFFFFF" d="M49.374,21.245L49.374,21.245c-2.497,0-4.54-2.043-4.54-4.54V7.562c0-2.497,2.043-4.54,4.54-4.54l0,0
				c2.497,0,4.54,2.043,4.54,4.54v9.143C53.914,19.202,51.871,21.245,49.374,21.245z"/>
			<path fill="#232323" d="M49.374,23.245c-3.606,0-6.54-2.934-6.54-6.54V7.562c0-3.606,2.934-6.54,6.54-6.54s6.54,2.934,6.54,6.54
				v9.143C55.914,20.311,52.98,23.245,49.374,23.245z M49.374,5.022c-1.4,0-2.54,1.14-2.54,2.54v9.143c0,1.4,1.14,2.54,2.54,2.54
				s2.54-1.14,2.54-2.54V7.562C51.914,6.162,50.774,5.022,49.374,5.022z"/>
		</g>
		<g>
			<line fill="none" x1="3.948" y1="27.231" x2="69.529" y2="27.231"/>
			<path fill="#232323" d="M69.529,29.231H3.948c-1.104,0-2-0.896-2-2s0.896-2,2-2h65.581c1.104,0,2,0.896,2,2
				S70.634,29.231,69.529,29.231z"/>
		</g>
	</g>
	<g>
		<path fill="#232323" d="M59.857,39.387h-8.653c-1.104,0-2-0.896-2-2s0.896-2,2-2h8.653c1.104,0,2,0.896,2,2
			S60.962,39.387,59.857,39.387z"/>
		<path fill="#232323" d="M59.857,50.735h-8.653c-1.104,0-2-0.896-2-2s0.896-2,2-2h8.653c1.104,0,2,0.896,2,2
			S60.962,50.735,59.857,50.735z"/>
		<path fill="#232323" d="M59.857,62.083h-8.653c-1.104,0-2-0.896-2-2s0.896-2,2-2h8.653c1.104,0,2,0.896,2,2
			S60.962,62.083,59.857,62.083z"/>
		<path fill="#232323" d="M40.826,39.387h-8.653c-1.104,0-2-0.896-2-2s0.896-2,2-2h8.653c1.104,0,2,0.896,2,2
			S41.931,39.387,40.826,39.387z"/>
		<path fill="#232323" d="M40.826,50.735h-8.653c-1.104,0-2-0.896-2-2s0.896-2,2-2h8.653c1.104,0,2,0.896,2,2
			S41.931,50.735,40.826,50.735z"/>
		<path fill="#232323" d="M40.826,62.083h-8.653c-1.104,0-2-0.896-2-2s0.896-2,2-2h8.653c1.104,0,2,0.896,2,2
			S41.931,62.083,40.826,62.083z"/>
		<path fill="#232323" d="M21.796,39.387h-8.653c-1.104,0-2-0.896-2-2s0.896-2,2-2h8.653c1.104,0,2,0.896,2,2
			S22.9,39.387,21.796,39.387z"/>
		<path fill="#232323" d="M21.796,50.735h-8.653c-1.104,0-2-0.896-2-2s0.896-2,2-2h8.653c1.104,0,2,0.896,2,2
			S22.9,50.735,21.796,50.735z"/>
		<path fill="#232323" d="M21.796,62.083h-8.653c-1.104,0-2-0.896-2-2s0.896-2,2-2h8.653c1.104,0,2,0.896,2,2
			S22.9,62.083,21.796,62.083z"/>
	</g>
</g>
</svg>
