<?xml version="1.0" encoding="utf-8"?>
<!-- Generator: Adobe Illustrator 26.3.1, SVG Export Plug-In . SVG Version: 6.00 Build 0)  -->
<svg version="1.1" id="レイヤー_1" xmlns="http://www.w3.org/2000/svg" xmlns:xlink="http://www.w3.org/1999/xlink" x="0px"
	 y="0px" viewBox="0 0 30 30" enable-background="new 0 0 30 30" xml:space="preserve">
<g>
	<path fill="#242424" d="M15.954,13.11C13.33,12.504,11,14.48,11,17c0,1.862,1.278,3.413,3,3.859V24c0,0.552,0.448,1,1,1
		c0.552,0,1-0.448,1-1v-3.141c2.008-0.52,3.412-2.542,2.89-4.808C18.559,14.612,17.392,13.443,15.954,13.11z M15,19
		c-1.103,0-2-0.897-2-2s0.897-2,2-2c1.103,0,2,0.897,2,2S16.103,19,15,19z"/>
	<path fill="#242424" d="M25,9h-2c0-4.42-3.58-8-8-8c-4.42,0-8,3.58-8,8H5c-2.206,0-4,1.794-4,4v12c0,2.206,1.794,4,4,4h20
		c2.206,0,4-1.794,4-4V13C29,10.794,27.206,9,25,9z M15,3c3.31,0,6,2.69,6,6H9C9,5.69,11.69,3,15,3z M27,25c0,1.105-0.895,2-2,2H5
		c-1.105,0-2-0.895-2-2V13c0-1.105,0.895-2,2-2h20c1.105,0,2,0.895,2,2V25z"/>
</g>
</svg>
