<svg xmlns="http://www.w3.org/2000/svg" xmlns:xlink="http://www.w3.org/1999/xlink" width="16px" height="16px">
<path fill-rule="evenodd" fill="rgb(243, 152, 0)" d="M7.999,15.999 C3.581,15.999 0.0,12.418 0.0,7.999 C0.0,3.581 3.581,0.0 7.999,0.0 C12.418,0.0 15.999,3.581 15.999,7.999 C15.999,12.418 12.418,15.999 7.999,15.999 ZM7.999,0.999 C4.140,0.999 0.999,4.140 0.999,7.999 C0.999,11.859 4.140,14.999 7.999,14.999 C11.859,14.999 15.0,11.859 15.0,7.999 C15.0,4.140 11.859,0.999 7.999,0.999 ZM12.242,12.242 C11.105,13.380 9.583,13.997 8.9,13.997 C7.595,13.997 7.177,13.955 6.761,13.867 L6.967,12.889 C8.630,13.239 10.338,12.733 11.535,11.535 C12.732,10.338 13.238,8.630 12.889,6.966 L13.867,6.761 C14.287,8.756 13.679,10.805 12.242,12.242 ZM9.999,7.176 L9.999,8.176 L8.500,8.176 L8.500,8.676 L9.999,8.676 L9.999,9.677 L8.500,9.677 L8.500,11.176 L7.500,11.176 L7.500,9.677 L6.0,9.677 L6.0,8.676 L7.500,8.676 L7.500,8.176 L6.0,8.176 L6.0,7.176 L7.292,7.176 L5.646,5.530 L6.353,4.823 L7.999,6.469 L9.646,4.823 L10.353,5.530 L8.707,7.176 L9.999,7.176 ZM4.464,4.464 C3.267,5.661 2.761,7.369 3.110,9.33 L2.132,9.238 C1.712,7.243 2.320,5.194 3.757,3.757 C5.194,2.320 7.242,1.713 9.238,2.132 L9.32,3.110 C7.369,2.762 5.661,3.267 4.464,4.464 Z"/>
</svg>