<?xml version="1.0" encoding="UTF-8"?><svg id="_イヤー_1" xmlns="http://www.w3.org/2000/svg" viewBox="0 0 73 75"><defs><style>.cls-1{fill:#fff;}.cls-2{fill:#b3dab4;}.cls-3{fill:#232323;}</style></defs><path class="cls-3" d="M8.184,43.372c-2.187,0-4.243-.844-5.789-2.378-3.192-3.165-3.192-8.315,0-11.48,.775-.77,2.035-.77,2.81,0,.776,.769,.776,2.017,0,2.786-1.642,1.629-1.642,4.278,0,5.907,.796,.789,1.854,1.223,2.979,1.223s2.183-.434,2.978-1.223c.776-.77,2.034-.769,2.811,0,.776,.77,.776,2.017,0,2.787-1.546,1.534-3.602,2.378-5.789,2.378Z"/><g><path class="cls-1" d="M68.078,27.518h-1.961c-2.244-4.169-5.781-7.747-10.187-10.381,1.073-3.686,1.744-7.817,.036-8.852-2.278-1.381-6.777,1.591-10.537,4.809-2.368-.487-4.841-.751-7.389-.751-16.991,0-30.764,11.494-30.764,25.672,0,7.381,3.739,14.031,9.716,18.714v6.772c0,3.024,2.496,5.499,5.546,5.499h1.621c3.05,0,5.546-2.474,5.546-5.499v-.775c2.652,.622,5.446,.962,8.336,.962,1.876,0,3.707-.154,5.49-.423v.237c0,3.024,2.496,5.499,5.546,5.499h1.621c3.05,0,5.546-2.474,5.546-5.499v-4.803c4.874-2.993,8.66-7.149,10.748-11.987h1.088c2.707,0,4.922-2.196,4.922-4.88v-9.433c0-2.684-2.215-4.88-4.922-4.88Z"/><path class="cls-3" d="M54.613,11.879h0m-1.701,.673c-.122,.831-.358,1.97-.801,3.493l-.846,2.906,2.612,1.561c3.822,2.284,6.841,5.349,8.733,8.861l1.123,2.085h4.345c.514,0,.947,.43,.947,.939v9.433c0,.509-.434,.939-.947,.939h-3.71l-1.032,2.391c-1.745,4.045-4.922,7.568-9.186,10.187l-1.882,1.156v6.997c0,.845-.72,1.558-1.571,1.558h-1.621c-.852,0-1.571-.713-1.571-1.558v-4.821l-4.571,.688c-1.667,.251-3.314,.378-4.894,.378-2.502,0-4.999-.288-7.422-.856l-4.889-1.146v5.757c0,.845-.72,1.558-1.571,1.558h-1.621c-.852,0-1.571-.713-1.571-1.558v-8.681l-1.51-1.183c-5.291-4.146-8.205-9.694-8.205-15.622,0-11.983,12.018-21.731,26.79-21.731,2.212,0,4.427,.225,6.582,.668l1.92,.395,1.485-1.27c2.24-1.917,3.83-2.959,4.886-3.526m1.69-4.613c-2.446,0-6.062,2.494-9.173,5.156-2.368-.487-4.841-.751-7.389-.751-16.991,0-30.764,11.494-30.764,25.672,0,7.381,3.739,14.031,9.716,18.714v6.772c0,3.024,2.496,5.499,5.546,5.499h1.621c3.05,0,5.546-2.474,5.546-5.499v-.775c2.652,.622,5.446,.962,8.336,.962,1.876,0,3.707-.154,5.49-.423v.237c0,3.024,2.496,5.499,5.546,5.499h1.621c3.05,0,5.546-2.474,5.546-5.499v-4.803c4.874-2.993,8.66-7.149,10.748-11.987h1.088c2.707,0,4.922-2.196,4.922-4.88v-9.433c0-2.684-2.215-4.88-4.922-4.88h-1.961c-2.244-4.169-5.781-7.747-10.187-10.381,1.073-3.686,1.744-7.817,.036-8.852-.393-.238-.853-.347-1.364-.347h0Z"/></g><ellipse class="cls-3" cx="53.262" cy="28.393" rx="2.369" ry="2.349"/><path class="cls-2" d="M31.302,21.433c-3.561-3.531-3.561-9.255,0-12.785s9.334-3.531,12.895,0,3.561,9.255,0,12.785"/></svg>