<?xml version="1.0" encoding="UTF-8"?><svg id="_イヤー_1" xmlns="http://www.w3.org/2000/svg" viewBox="0 0 73 75"><defs><style>.cls-1{fill:#f7c3af;}.cls-2{fill:#fff;}.cls-3{fill:#232323;}</style></defs><g><path class="cls-2" d="M55.308,28.421H17.692C8.197,28.421,.5,36.162,.5,45.71s7.697,17.29,17.192,17.29c4.128,0,7.915-1.466,10.879-3.905h15.858c2.964,2.439,6.75,3.905,10.879,3.905,9.495,0,17.192-7.741,17.192-17.29s-7.697-17.289-17.192-17.289Z"/><path class="cls-3" d="M55.308,32.448c7.272,0,13.188,5.949,13.188,13.262s-5.916,13.262-13.188,13.262c-3.077,0-5.962-1.035-8.342-2.994l-1.106-.911H27.141l-1.106,.911c-2.38,1.959-5.265,2.994-8.342,2.994-7.272,0-13.188-5.949-13.188-13.262s5.916-13.262,13.188-13.262H55.308m0-4.027H17.692C8.197,28.421,.5,36.162,.5,45.71s7.697,17.29,17.192,17.29c4.128,0,7.915-1.466,10.879-3.905h15.858c2.964,2.439,6.75,3.905,10.879,3.905,9.495,0,17.192-7.741,17.192-17.29s-7.697-17.289-17.192-17.289h0Z"/></g><g><ellipse class="cls-1" cx="55.75" cy="45.711" rx="7.509" ry="7.551"/><path class="cls-3" d="M55.75,42.187c1.932,0,3.504,1.581,3.504,3.524s-1.572,3.524-3.504,3.524-3.504-1.581-3.504-3.524,1.572-3.524,3.504-3.524m0-4.027c-4.147,0-7.509,3.381-7.509,7.551s3.362,7.551,7.509,7.551,7.509-3.381,7.509-7.551-3.362-7.551-7.509-7.551h0Z"/></g><path class="cls-3" d="M41.005,47.724h-9.011c-1.106,0-2.002-.902-2.002-2.014s.897-2.014,2.002-2.014h9.011c1.106,0,2.002,.902,2.002,2.014s-.897,2.014-2.002,2.014Z"/><path class="cls-3" d="M17.101,53.224c-1.106,0-2.002-.902-2.002-2.014v-10.608c0-1.112,.897-2.014,2.002-2.014s2.002,.902,2.002,2.014v10.608c0,1.112-.897,2.014-2.002,2.014Z"/><path class="cls-3" d="M36.5,32.324c-1.106,0-2.002-.902-2.002-2.014V14.014c0-1.112,.897-2.014,2.002-2.014s2.002,.902,2.002,2.014V30.31c0,1.112-.897,2.014-2.002,2.014Z"/><path class="cls-3" d="M22.374,47.92H11.826c-1.106,0-2.002-.902-2.002-2.014s.897-2.014,2.002-2.014h10.548c1.106,0,2.002,.902,2.002,2.014s-.897,2.014-2.002,2.014Z"/></svg>