<svg xmlns="http://www.w3.org/2000/svg" width="28" height="28" fill="none"><g clip-path="url(#a)"><path fill="#FFA103" d="M20.16 6.65h-1.82v.7c0 .392-.308.7-.7.7a.693.693 0 0 1-.7-.7v-.7h-5.88v.7c0 .392-.308.7-.7.7a.693.693 0 0 1-.7-.7v-.7H7.84c-1.162 0-2.1.938-2.1 2.1v.98h16.52v-.98c0-1.162-.938-2.1-2.1-2.1Z"/><path fill="#fff" d="M5.74 11.13v9.38c0 .7.56 1.26 1.26 1.26h14c.7 0 1.26-.56 1.26-1.26v-9.38H5.74Zm5.46 8.26c0 .308-.252.56-.56.56H8.96a.562.562 0 0 1-.56-.56v-1.68c0-.308.252-.56.56-.56h1.68c.308 0 .56.252.56.56v1.68Zm0-4.2c0 .308-.252.56-.56.56H8.96a.562.562 0 0 1-.56-.56v-1.68c0-.308.252-.56.56-.56h1.68c.308 0 .56.252.56.56v1.68Zm4.2 4.2c0 .308-.252.56-.56.56h-1.68a.562.562 0 0 1-.56-.56v-1.68c0-.308.252-.56.56-.56h1.68c.308 0 .56.252.56.56v1.68Zm0-4.2c0 .308-.252.56-.56.56h-1.68a.562.562 0 0 1-.56-.56v-1.68c0-.308.252-.56.56-.56h1.68c.308 0 .56.252.56.56v1.68Zm4.2 4.2c0 .308-.252.56-.56.56h-1.68a.562.562 0 0 1-.56-.56v-1.68c0-.308.252-.56.56-.56h1.68c.308 0 .56.252.56.56v1.68Zm0-4.2c0 .308-.252.56-.56.56h-1.68a.562.562 0 0 1-.56-.56v-1.68c0-.308.252-.56.56-.56h1.68c.308 0 .56.252.56.56v1.68Z"/><path fill="#832102" d="M20.16 5.25h-1.82v-.7c0-.392-.308-.7-.7-.7-.392 0-.7.308-.7.7v.7h-5.88v-.7c0-.392-.308-.7-.7-.7-.392 0-.7.308-.7.7v.7H7.84a3.501 3.501 0 0 0-3.5 3.5v11.76c0 1.47 1.19 2.66 2.66 2.66h14c1.47 0 2.66-1.19 2.66-2.66V8.75c0-1.932-1.568-3.5-3.5-3.5Zm2.1 4.48H5.74v-.98c0-1.162.938-2.1 2.1-2.1h1.82v.7c0 .392.308.7.7.7.392 0 .7-.308.7-.7v-.7h5.88v.7c0 .392.308.7.7.7.392 0 .7-.308.7-.7v-.7h1.82c1.162 0 2.1.938 2.1 2.1v.98ZM21 21.77H7c-.7 0-1.26-.56-1.26-1.26v-9.38h16.52v9.38c0 .7-.56 1.26-1.26 1.26Z"/><path fill="#FFA103" d="M14.84 17.15h-1.68a.56.56 0 0 0-.56.56v1.68c0 .31.25.56.56.56h1.68c.309 0 .56-.25.56-.56v-1.68a.56.56 0 0 0-.56-.56ZM14.84 12.95h-1.68a.56.56 0 0 0-.56.56v1.68c0 .31.25.56.56.56h1.68c.309 0 .56-.25.56-.56v-1.68a.56.56 0 0 0-.56-.56ZM10.64 17.15H8.96a.56.56 0 0 0-.56.56v1.68c0 .31.25.56.56.56h1.68c.31 0 .56-.25.56-.56v-1.68a.56.56 0 0 0-.56-.56ZM10.64 12.95H8.96a.56.56 0 0 0-.56.56v1.68c0 .31.25.56.56.56h1.68c.31 0 .56-.25.56-.56v-1.68a.56.56 0 0 0-.56-.56ZM19.04 17.15h-1.68a.56.56 0 0 0-.56.56v1.68c0 .31.25.56.56.56h1.68c.31 0 .56-.25.56-.56v-1.68a.56.56 0 0 0-.56-.56ZM19.04 12.95h-1.68a.56.56 0 0 0-.56.56v1.68c0 .31.25.56.56.56h1.68c.31 0 .56-.25.56-.56v-1.68a.56.56 0 0 0-.56-.56Z"/></g><defs><clipPath id="a"><path fill="#fff" d="M0 0h28v28H0z"/></clipPath></defs></svg>