<svg  xmlns="http://www.w3.org/2000/svg" xmlns:xlink="http://www.w3.org/1999/xlink" width="14px" height="16px">
<path fill-rule="evenodd" fill="rgb(243, 152, 0)" d="M12.997,16.0 L12.997,14.999 L12.996,14.999 C13.13,14.28 12.486,13.288 12.41,12.835 C10.911,11.686 9.25,10.999 6.996,10.999 C3.743,10.999 0.995,12.831 0.995,14.999 L0.995,14.999 L0.995,16.0 L0.5,16.0 L0.4,14.999 C0.4,12.238 3.129,9.999 6.996,9.999 C10.862,9.999 14.45,12.239 13.997,14.999 L13.997,16.0 L12.997,16.0 ZM6.996,9.0 C4.510,9.0 2.495,6.985 2.495,4.500 C2.495,2.14 4.510,0.0 6.996,0.0 C9.482,0.0 11.497,2.14 11.497,4.500 C11.497,6.985 9.482,9.0 6.996,9.0 ZM6.996,1.0 C5.65,1.0 3.495,2.570 3.495,4.500 C3.495,6.430 5.65,8.0 6.996,8.0 C8.926,8.0 10.497,6.430 10.497,4.500 C10.497,2.570 8.926,1.0 6.996,1.0 Z"/>
</svg>