<svg xmlns="http://www.w3.org/2000/svg" width="88" height="88" data-name="レイヤー 1"><defs><clipPath id="a"><path d="M25.4 33.47h-2.41c-.3.06-.52.3-.52.6v13.5c.04.11.1.22.18.3s0 .01 0 .01c.09.08.2.14.32.16h.13l9.19.01h.11c.3-.06.52-.31.52-.6v-2.26a.64.64 0 0 0-.64-.49h-6.25V33.97c-.06-.28-.33-.49-.64-.49Zm12.34 0h-2.6c-.32.06-.56.3-.56.6v13.49c.07.28.35.49.69.49h2.6c.32-.06.56-.3.56-.6V33.96c-.07-.28-.35-.49-.69-.49Zm5.77 0H41.14c-.29.05-.51.29-.51.59v13.49c.06.28.32.49.62.49h2.35c.29-.06.51-.3.51-.6v-7.95l6.37 8.29.07.08.09.07h.02l.02.02h.03l.01.01c.01 0 .02 0 .03.01h.02c.01 0 .03 0 .04.01.05.01.1.02.16.02h2.35c.29-.06.51-.3.51-.6V33.91a.634.634 0 0 0-.62-.49h-2.35a.62.62 0 0 0-.51.6v7.95l-6.37-8.28-.02-.03-.03-.03-.04-.04h-.01s-.02-.03-.03-.04h-.02s-.02-.03-.03-.03h-.02l-.02-.02h-.02s-.01-.02-.02-.02h-.04s-.01-.02-.02-.02-.02 0-.04-.01h-.02s-.02-.01-.04-.01h-.1Zm21.81 0h-9.31c-.12.03-.23.09-.32.17-.11.12-.18.26-.18.42v13.5c.04.11.1.22.18.3h.01c.12.12.27.18.45.18h9.3c.3-.06.52-.31.52-.6v-2.26a.64.64 0 0 0-.64-.49h-6.25v-2.26h6.36c.3-.06.52-.3.52-.6v-2.26a.64.64 0 0 0-.64-.49h-6.25v-2.26h6.36c.3-.06.52-.3.52-.6v-2.26a.64.64 0 0 0-.64-.49ZM43.99 14.04c17.65 0 32 11.45 32 25.51 0 5.63-2.22 10.7-6.86 15.7-6.71 7.59-21.73 16.84-25.14 18.25-3.41 1.41-2.91-.9-2.77-1.69l.46-2.69c.11-.8.22-2.05-.1-2.84-.36-.88-1.78-1.33-2.82-1.55C23.38 62.73 12 52.17 12 39.56c0-14.07 14.36-25.51 32-25.51Z" style="clip-rule:evenodd;stroke-width:0;fill:none"/></clipPath><clipPath id="b"><path d="M-686.55-2138.81h2287.66v5996.94H-686.55z" style="stroke-width:0;fill:none"/></clipPath></defs><g style="clip-path:url(#a)"><g style="clip-path:url(#b)"><path d="M5.19 7.23h77.62v73.53H5.19z" style="fill:#fff;stroke-width:0"/></g></g></svg>