<svg width="40" height="40" fill="none" xmlns="http://www.w3.org/2000/svg"><path d="m17.667 23-3.583-3.583c-.306-.305-.694-.458-1.167-.458-.472 0-.86.153-1.166.458-.306.306-.459.695-.459 1.167 0 .472.153.861.459 1.167l4.75 4.75c.333.333.722.5 1.166.5.445 0 .834-.167 1.167-.5l9.417-9.417c.305-.306.458-.694.458-1.167 0-.472-.153-.86-.458-1.166-.306-.306-.695-.459-1.167-.459-.472 0-.861.153-1.167.459L17.667 23Zm2.334 13.667c-2.306 0-4.473-.437-6.5-1.312-2.028-.875-3.792-2.063-5.292-3.563s-2.688-3.264-3.563-5.291c-.875-2.028-1.312-4.195-1.312-6.5 0-2.306.437-4.473 1.312-6.5.875-2.028 2.063-3.792 3.563-5.292s3.264-2.688 5.292-3.563c2.027-.875 4.194-1.312 6.5-1.312 2.305 0 4.472.437 6.5 1.312 2.027.875 3.791 2.063 5.291 3.563 1.5 1.5 2.688 3.264 3.563 5.292.875 2.027 1.312 4.194 1.312 6.5 0 2.305-.437 4.472-1.312 6.5-.875 2.027-2.063 3.791-3.563 5.291-1.5 1.5-3.264 2.688-5.291 3.563-2.028.875-4.195 1.312-6.5 1.312Z" fill="#F39800"/></svg>