<svg xmlns="http://www.w3.org/2000/svg" xmlns:xlink="http://www.w3.org/1999/xlink" width="15px" height="11px">
<path fill-rule="evenodd" fill="rgb(243, 152, 0)" d="M11.298,10.498 C9.235,10.498 8.157,9.14 8.157,5.295 C8.157,1.577 9.300,0.118 11.324,0.118 C13.347,0.118 14.477,1.564 14.477,5.269 C14.477,8.987 13.347,10.498 11.298,10.498 ZM11.324,1.419 C10.299,1.419 9.852,2.313 9.852,5.282 C9.852,8.238 10.260,9.197 11.298,9.197 C12.362,9.197 12.782,8.225 12.782,5.282 C12.782,2.326 12.375,1.419 11.324,1.419 ZM6.470,3.704 L6.470,5.277 L4.236,5.277 L4.236,6.64 L6.470,6.64 L6.470,7.637 L4.236,7.637 L4.236,9.996 L2.748,9.996 L2.748,7.637 L0.514,7.637 L0.514,6.64 L2.748,6.64 L2.748,5.277 L0.514,5.277 L0.514,3.704 L2.439,3.704 L0.11,1.115 L1.41,0.2 L3.492,2.592 L5.943,0.2 L6.996,1.115 L4.545,3.704 L6.470,3.704 Z"/>
</svg>