<svg xmlns="http://www.w3.org/2000/svg" xmlns:xlink="http://www.w3.org/1999/xlink" width="12px" height="16px">
<path fill-rule="evenodd" fill="rgb(243, 152, 0)" d="M11.0,15.999 L11.0,1.999 L9.0,3.500 L9.0,8.999 L10.0,8.999 L10.0,9.999 L7.999,9.999 L7.999,2.999 L12.0,0.0 L12.0,15.999 L11.0,15.999 ZM3.0,15.999 L2.0,15.999 L2.0,7.999 L0.0,5.999 L0.0,0.0 L1.0,0.0 L1.0,5.584 L2.415,7.0 L2.584,7.0 L4.0,5.584 L4.0,0.0 L4.999,0.0 L4.999,5.999 L3.0,7.999 L3.0,15.999 ZM2.0,0.999 L2.0,0.0 L3.0,0.0 L3.0,0.999 L3.0,5.999 L2.0,5.999 L2.0,0.999 Z"/>
</svg>