<?xml version="1.0" encoding="UTF-8"?>
<svg id="_レイヤー_2" data-name="レイヤー 2" xmlns="http://www.w3.org/2000/svg" width="20.000037486579458" height="20.000037486579458" viewBox="0 0 20.000037486579458 20.000037486579458">
  <defs>
    <style>
      .cls-1 {
        fill: none;
      }

      .cls-2 {
        fill: #eb332f;
      }
    </style>
  </defs>
  <g id="_レイヤー_1-2" data-name="レイヤー 1">
    <g>
      <rect class="cls-1" x=".000018743290354" y=".000018743290809" width="19.999999999999204" height="19.999999999998295"/>
      <path class="cls-2" d="m10.00001874328791,3.000018743290639c-3.86602783203125,0-7,3.134033203125-7,7s3.134033203125,7,7,7c3.86602783203125,0,7-3.134033203125,7-7,0-3.86602783203125-3.134033203125-7-7-7Zm3.97998046875,9.2978515625c-.11083984375.19287109375-.3125.30029296875-.52001953125.30029296875-.10205078125,0-.205078125-.02587890625-.29931640625-.08056640625l-3.46044921875-1.998046875c-.18603515625-.10693359375-.30029296875-.30517578125-.30029296875-.51953125v-4c0-.33154296875.2685546875-.60009765625.60009765625-.60009765625s.60009765625.2685546875.60009765625.60009765625v3.65380859375l3.16015625,1.82470703125c.287109375.16552734375.38525390625.53271484375.2197265625.8193359375Z"/>
    </g>
  </g>
</svg>