<?xml version="1.0" encoding="UTF-8"?><svg id="_イヤー_1" xmlns="http://www.w3.org/2000/svg" viewBox="0 0 73 75"><defs><style>.cls-1{fill:#f5ddb2;}.cls-2{fill:#fff;}.cls-3{fill:#232323;}</style></defs><g><path class="cls-2" d="M29.516,49.86V13.289l41.965,.402V50.262h.014c0,6.662-9.397,12.346-20.99,12.346s-20.99-5.684-20.99-12.346v-.402Z"/><path class="cls-3" d="M33.51,17.317l33.976,.326V50.539c-.155,1.654-1.693,3.489-4.179,4.965-3.336,1.98-8.003,3.115-12.802,3.115s-9.465-1.135-12.802-3.115c-2.626-1.558-4.193-3.517-4.193-5.241V17.317m-3.995-4.028V50.262c0,6.662,9.397,12.346,20.99,12.346s20.99-5.684,20.99-12.346h-.014V13.691l-41.965-.402h0Zm41.979,36.974h0Z"/></g><g><ellipse class="cls-2" cx="50.505" cy="14.063" rx="20.99" ry="12.063"/><path class="cls-3" d="M50.505,5.99c9.727,0,16.995,4.263,16.995,8.074s-7.268,8.074-16.995,8.074-16.995-4.263-16.995-8.074,7.268-8.074,16.995-8.074m0-3.99c-11.592,0-20.99,5.401-20.99,12.063s9.397,12.063,20.99,12.063,20.99-5.401,20.99-12.063S62.098,2,50.505,2h0Z"/></g><g><ellipse class="cls-1" cx="25.557" cy="48.973" rx="24.057" ry="24.027"/><path class="cls-3" d="M25.557,28.935c11.063,0,20.063,8.989,20.063,20.038s-9,20.038-20.063,20.038S5.495,60.021,5.495,48.973,14.495,28.935,25.557,28.935m0-3.99C12.271,24.945,1.5,35.702,1.5,48.973s10.771,24.027,24.057,24.027,24.057-10.757,24.057-24.027-10.771-24.027-24.057-24.027h0Z"/></g><path class="cls-3" d="M23.598,51.475v9.089h-3.382v-22.381h3.832c1.877,0,3.294,.131,4.253,.392,.967,.261,1.819,.754,2.554,1.479,1.287,1.256,1.93,2.841,1.93,4.754,0,2.049-.687,3.673-2.061,4.871s-3.227,1.797-5.558,1.797h-1.568Zm0-3.131h1.263c3.106,0,4.659-1.194,4.659-3.581,0-2.309-1.601-3.465-4.804-3.465h-1.118v7.045Z"/></svg>