<svg xmlns="http://www.w3.org/2000/svg" xmlns:xlink="http://www.w3.org/1999/xlink" width="16px" height="16px">
<path fill-rule="evenodd" fill="rgb(243, 152, 0)" d="M15.999,12.7 L13.526,10.597 L10.892,12.7 L12.303,9.375 L10.892,6.903 L13.365,8.313 L15.999,6.903 L14.588,9.535 L15.999,12.7 ZM5.37,7.63 L0.0,9.760 L2.698,4.726 L0.0,0.0 L4.730,2.696 L9.767,0.0 L7.68,5.33 L9.767,9.760 L5.37,7.63 ZM7.270,2.494 L5.212,3.596 L4.714,3.862 L4.223,3.583 L2.738,2.736 L3.585,4.220 L3.865,4.711 L3.599,5.208 L2.496,7.265 L4.554,6.163 L5.52,5.896 L5.543,6.176 L7.28,7.23 L6.181,5.538 L5.901,5.48 L6.167,4.550 L7.270,2.494 ZM6.12,13.44 L8.119,11.916 L6.990,14.22 L8.119,16.0 L6.141,14.871 L4.33,16.0 L5.162,13.894 L4.33,11.916 L6.12,13.44 Z"/>
</svg>