<?xml version="1.0" encoding="utf-8"?>
<!-- Generator: Adobe Illustrator 26.3.1, SVG Export Plug-In . SVG Version: 6.00 Build 0)  -->
<svg version="1.1" id="レイヤー_1" xmlns="http://www.w3.org/2000/svg" xmlns:xlink="http://www.w3.org/1999/xlink" x="0px"
	 y="0px" viewBox="0 0 79 80" style="enable-background:new 0 0 79 80;" xml:space="preserve">
<style type="text/css">
	.st0{fill:#242424;}
</style>
<g>
	<g>
		<path class="st0" d="M27.4,29.6c-13.9,0-25.2,11.3-25.2,25.2S13.5,80,27.4,80s25.2-11.3,25.2-25.2S41.3,29.6,27.4,29.6z
			 M27.4,76.1c-11.7,0-21.3-9.5-21.3-21.3s9.5-21.3,21.3-21.3c11.7,0,21.3,9.5,21.3,21.3S39.1,76.1,27.4,76.1z"/>
		<path class="st0" d="M9.4,19.3c2.1-3.1,4.6-5.7,7.6-7.9l1.8,3.9l10.5-11l-16-0.7l1.9,4.1c-3.6,2.5-6.7,5.7-9.2,9.3
			C2.3,22.9,0,29.8,0,37.3h3.9C3.9,30.6,6,24.5,9.4,19.3z"/>
		<path class="st0" d="M75.1,44.7c0,6.5-1.9,12.5-5.2,17.5c-2.1,3.3-4.8,6.1-7.9,8.4l-1.5-3.1L50,78.4l16,0.7l-2.3-4.9
			c3.8-2.7,7-6,9.5-9.9c3.7-5.7,5.8-12.4,5.8-19.7L75.1,44.7L75.1,44.7z"/>
		<path class="st0" d="M27.6,25.6c1.3,0,2.7,0.1,3.9,0.3c0-0.2,0-0.5,0-0.7c0-11.7,9.5-21.3,21.3-21.3s21.3,9.5,21.3,21.3
			c0,10.9-8.2,19.9-18.8,21.1c0.4,1.3,0.7,2.5,0.9,3.9C68.5,48.6,78,38,78,25.2C78,11.3,66.7,0,52.8,0S27.6,11.3,27.6,25.2
			C27.6,25.4,27.6,25.5,27.6,25.6z"/>
	</g>
	<g>
		<path class="st0" d="M55.4,14.1c1.3,0,2.3,0.2,3.2,0.5c0.9,0.4,1.6,0.8,2.1,1.4c0.6,0.6,1,1.3,1.2,2c0.3,0.8,0.4,1.6,0.4,2.4
			c0,0.8-0.1,1.6-0.4,2.4c-0.3,0.8-0.7,1.5-1.2,2.1c-0.6,0.6-1.3,1.1-2.1,1.4c-0.9,0.4-1.9,0.5-3.2,0.5h-4.6v7.2h-4.4v-20H55.4z
			 M54.2,23.5c0.5,0,1,0,1.5-0.1c0.5-0.1,0.9-0.2,1.2-0.4c0.4-0.2,0.6-0.5,0.9-0.9c0.2-0.4,0.3-0.9,0.3-1.5c0-0.6-0.1-1.2-0.3-1.5
			c-0.2-0.4-0.5-0.7-0.9-0.9c-0.4-0.2-0.8-0.4-1.2-0.4c-0.5-0.1-1-0.1-1.5-0.1h-3.4v6L54.2,23.5L54.2,23.5z"/>
	</g>
	<g>
		<path class="st0" d="M25.2,61.7h-4.4V59h4.4v-1.3l-0.4-0.8h-4v-2.7h2.7l-4.3-8.7h4.5l3.7,8.7l3.6-8.7h4.5l-4.3,8.7h2.7v2.7h-4
			l-0.4,0.8V59h4.4v2.7h-4.4v3.9h-4.3C25.2,65.5,25.2,61.7,25.2,61.7z"/>
	</g>
</g>
</svg>
