<svg width="24" height="24" fill="none" xmlns="http://www.w3.org/2000/svg"><path d="M20 10a8.003 8.003 0 0 1-5.122 7.467H9.122A8 8 0 1 1 20 10Z" fill="#F39800"/><path fill-rule="evenodd" clip-rule="evenodd" d="M12 3a7 7 0 0 0-2.685 13.467h5.37A7.002 7.002 0 0 0 12 3Zm-9 7a9 9 0 1 1 12.238 8.4 1 1 0 0 1-.36.067H9.122a1 1 0 0 1-.36-.067A9.003 9.003 0 0 1 3 10Z" fill="#832102"/><path fill-rule="evenodd" clip-rule="evenodd" d="M9.04 16.47a1 1 0 0 1 1.079.914L10.42 21h3.16l.301-3.616a1 1 0 1 1 1.993.166l-.34 4.075A1.5 1.5 0 0 1 14.04 23H9.96a1.5 1.5 0 0 1-1.495-1.375l-.34-4.075a1 1 0 0 1 .914-1.08ZM9 7.5a1 1 0 0 1 1 1v1.382l1.553-.776a1 1 0 0 1 .894 0L14 9.882V8.5a1 1 0 1 1 2 0v3a1 1 0 0 1-1.447.894L12 11.118l-2.553 1.276A1 1 0 0 1 8 11.5v-3a1 1 0 0 1 1-1Z" fill="#832102"/></svg>