<svg width="28" height="28" fill="none" xmlns="http://www.w3.org/2000/svg"><g clip-path="url(#a)" fill="#999"><path d="M20.16 4.9h-1.82v-.7c0-.392-.308-.7-.7-.7-.392 0-.7.308-.7.7v.7h-5.88v-.7c0-.392-.308-.7-.7-.7-.392 0-.7.308-.7.7v.7H7.84a3.501 3.501 0 0 0-3.5 3.5v11.76c0 1.47 1.19 2.66 2.66 2.66h14c1.47 0 2.66-1.19 2.66-2.66V8.4c0-1.932-1.568-3.5-3.5-3.5ZM21 21.42H7c-.7 0-1.26-.56-1.26-1.26v-9.38h16.52v9.38c0 .7-.56 1.26-1.26 1.26ZM5.74 9.38V8.4c0-1.162.938-2.1 2.1-2.1h1.82V7c0 .392.308.7.7.7.392 0 .7-.308.7-.7v-.7h5.88V7c0 .392.308.7.7.7.392 0 .7-.308.7-.7v-.7h1.82c1.162 0 2.1.938 2.1 2.1v.98H5.74Z"/><path d="M14.84 16.8h-1.68a.56.56 0 0 0-.56.56v1.68c0 .31.25.56.56.56h1.68c.309 0 .56-.25.56-.56v-1.68a.56.56 0 0 0-.56-.56ZM14.84 12.6h-1.68a.56.56 0 0 0-.56.56v1.68c0 .31.25.56.56.56h1.68c.309 0 .56-.25.56-.56v-1.68a.56.56 0 0 0-.56-.56ZM10.64 16.8H8.96a.56.56 0 0 0-.56.56v1.68c0 .31.25.56.56.56h1.68c.309 0 .56-.25.56-.56v-1.68a.56.56 0 0 0-.56-.56ZM10.64 12.6H8.96a.56.56 0 0 0-.56.56v1.68c0 .31.25.56.56.56h1.68c.309 0 .56-.25.56-.56v-1.68a.56.56 0 0 0-.56-.56ZM19.04 16.8h-1.68a.56.56 0 0 0-.56.56v1.68c0 .31.25.56.56.56h1.68c.31 0 .56-.25.56-.56v-1.68a.56.56 0 0 0-.56-.56ZM19.04 12.6h-1.68a.56.56 0 0 0-.56.56v1.68c0 .31.25.56.56.56h1.68c.31 0 .56-.25.56-.56v-1.68a.56.56 0 0 0-.56-.56Z"/></g><defs><clipPath id="a"><path fill="#fff" d="M0 0h28v28H0z"/></clipPath></defs></svg>