<svg width="28" height="28" fill="none" xmlns="http://www.w3.org/2000/svg"><g clip-path="url(#a)" fill="#999"><path d="M23.24 18.48h-.84V6.86c0-1.54-1.26-2.8-2.8-2.8H6.16c-1.54 0-2.8 1.26-2.8 2.8v.84c0 .7.56 1.26 1.26 1.26h2.94v11.9c0 1.54 1.26 2.8 2.8 2.8H21.7c1.54 0 2.8-1.26 2.8-2.8v-1.12c0-.7-.56-1.26-1.26-1.26Zm-.14 2.38c0 .77-.63 1.4-1.4 1.4h-8.918c.238-.406.378-.896.378-1.4v-.98h9.94v.98Zm-14.14 0v-14c0-.504-.14-.994-.378-1.4H19.6c.77 0 1.4.63 1.4 1.4v11.62h-7.98c-.7 0-1.26.56-1.26 1.26v1.12c0 .77-.63 1.4-1.4 1.4-.77 0-1.4-.63-1.4-1.4Zm-4.2-14c0-.77.63-1.4 1.4-1.4.77 0 1.4.63 1.4 1.4v.7h-2.8v-.7Z"/><path d="M18.34 7.49h-6.72a.56.56 0 0 0-.56.56v2.24c0 .31.251.56.56.56h6.72c.31 0 .56-.25.56-.56V8.05a.56.56 0 0 0-.56-.56ZM18.2 12.25h-6.44a.7.7 0 1 0 0 1.4h6.44a.7.7 0 1 0 0-1.4ZM15.96 15.05h-4.2a.7.7 0 1 0 0 1.4h4.2a.7.7 0 1 0 0-1.4Z"/></g><defs><clipPath id="a"><path fill="#fff" d="M0 0h28v28H0z"/></clipPath></defs></svg>