<svg xmlns="http://www.w3.org/2000/svg" xml:space="preserve" style="enable-background:new 0 0 24 24" viewBox="0 0 24 24"><path d="M11.9 18c.4 0 .6-.1.9-.4s.4-.5.4-.9-.1-.6-.4-.9c-.2-.2-.5-.4-.9-.4-.3 0-.6.1-.9.4-.2.2-.4.5-.4.9s.1.6.4.9c.3.3.6.4.9.4zm-.8-3.9H13c0-.6.1-1 .2-1.3.1-.3.5-.8 1.1-1.3.4-.4.8-.8 1-1.2s.4-.9.4-1.4c0-.9-.3-1.7-1-2.2-.9-.5-1.7-.7-2.6-.7-.9 0-1.7.2-2.3.8s-1 1.1-1.2 1.8l1.6.6c.1-.3.3-.6.6-1 .3-.3.7-.5 1.3-.5.5 0 .9.1 1.2.4.3.3.4.6.4 1 0 .3-.1.6-.3.9-.2.3-.5.6-.8.8-.7.7-1.2 1.1-1.4 1.5s-.1 1-.1 1.8zM12 22c-1.4 0-2.7-.3-3.9-.8S5.8 20 4.9 19.1c-.9-.9-1.6-2-2.1-3.2S2 13.4 2 12s.3-2.7.8-3.9S4 5.8 4.9 4.9s2-1.6 3.2-2.1S10.6 2 12 2s2.7.3 3.9.8 2.3 1.2 3.2 2.1 1.6 2 2.1 3.2c.5 1.2.8 2.5.8 3.9s-.3 2.7-.8 3.9c-.5 1.2-1.2 2.3-2.1 3.2-.9.9-2 1.6-3.2 2.1s-2.5.8-3.9.8zm0-2c2.2 0 4.1-.8 5.7-2.3 1.5-1.5 2.3-3.4 2.3-5.7s-.8-4.1-2.3-5.7C16.1 4.8 14.2 4 12 4s-4.1.8-5.7 2.3S4 9.8 4 12s.8 4.1 2.3 5.7C7.9 19.2 9.8 20 12 20z" style="fill:#fff"/></svg>