<svg xmlns="http://www.w3.org/2000/svg" xmlns:xlink="http://www.w3.org/1999/xlink" width="16px" height="16px">
<path fill-rule="evenodd" fill="rgb(243, 152, 0)" d="M11.432,10.725 C12.407,9.589 13.0,8.115 13.0,6.500 C13.0,2.910 10.89,0.0 6.500,0.0 C2.910,0.0 0.0,2.910 0.0,6.500 C0.0,10.89 2.910,13.0 6.500,13.0 C8.114,13.0 9.589,12.407 10.725,11.432 L15.292,15.999 L15.999,15.293 L11.432,10.725 ZM6.500,12.0 C3.467,12.0 0.999,9.532 0.999,6.500 C0.999,3.467 3.467,1.0 6.500,1.0 C9.532,1.0 12.0,3.467 12.0,6.500 C12.0,9.532 9.532,12.0 6.500,12.0 Z"/>
</svg>