<svg xmlns="http://www.w3.org/2000/svg" id="Layer_1" width="99.99" height="142.92" data-name="Layer 1"><defs><style>.cls-1{fill:#fff}</style></defs><path d="M64.81 142.92H14.06C6.31 142.92 0 136.61 0 128.86V14.06C0 6.31 6.31 0 14.06 0h71.87c7.75 0 14.06 6.31 14.06 14.06v92.02c0 13.71-23.98 36.84-35.18 36.84ZM14.06 4C8.51 4 4 8.51 4 14.06v114.8c0 5.55 4.51 10.06 10.06 10.06h50.75c3.94 0 11.83-5.03 18.77-11.97 7.65-7.64 12.41-15.64 12.41-20.88V14.06C95.99 8.51 91.48 4 85.93 4H14.06Z" class="cls-1"/><path d="M19.11 26.87h61.76v4H19.11zM19.11 44.74h61.76v4H19.11zM19.11 62.85h61.76v4H19.11zM19.11 83.18h61.76v4H19.11zM64.81 142.92h-4.47V103.7l39.65.11v2.28c0 13.71-23.98 36.84-35.18 36.84Zm-.47-4h.47c7.81 0 29.1-18.88 31.04-31.13l-31.51-.08v31.21Z" class="cls-1"/></svg>