<svg version="1.1" id="Layer_1" xmlns="http://www.w3.org/2000/svg" x="0" y="0" viewBox="0 0 73 75" style="enable-background:new 0 0 73 75" xml:space="preserve"><style>.st1{fill:#222}</style><path d="M44 72.9h.2c4.1 0 15.3-9.9 16.3-16.3H44v16.3z" style="fill:#eebed8"/><path class="st1" d="M55.4 4c1.9 0 3.4 1.5 3.4 3.4v48.3c0 1.7-1.8 5.5-5.9 9.6-4.3 4.3-7.7 5.8-8.6 5.8H17.6c-1.9 0-3.4-1.5-3.4-3.4V7.4c0-1.9 1.5-3.4 3.4-3.4h37.8m0-4H17.6c-4.1 0-7.4 3.3-7.4 7.4v60.2c0 4.1 3.3 7.4 7.4 7.4h26.6c5.9 0 18.5-12.1 18.5-19.3V7.4c0-4.1-3.3-7.4-7.3-7.4z"/><path class="st1" d="M50.7 17.1H22.3c-1.1 0-2-.9-2-2s.9-2 2-2h28.4c1.1 0 2 .9 2 2 0 1.2-.9 2-2 2zM50.7 27H22.3c-1.1 0-2-.9-2-2s.9-2 2-2h28.4c1.1 0 2 .9 2 2s-.9 2-2 2zM50.7 36.9H22.3c-1.1 0-2-.9-2-2s.9-2 2-2h28.4c1.1 0 2 .9 2 2s-.9 2-2 2zM50.7 46.7H22.3c-1.1 0-2-.9-2-2s.9-2 2-2h28.4c1.1 0 2 .9 2 2s-.9 2-2 2zM45.9 58.4h12c-.9 1.9-2.6 4.2-5 6.8-2.9 2.9-5.3 4.5-6.9 5.3l-.1-12.1m0-4c-2.2 0-4 1.8-4 4V75h2.3c5.9 0 18.5-12.1 18.5-19.3v-1.2l-16.8-.1z"/></svg>