<?xml version="1.0" encoding="UTF-8"?><svg id="_イヤー_1" xmlns="http://www.w3.org/2000/svg" viewBox="0 0 73 75"><defs><style>.cls-1{fill:#f8cad0;}.cls-2{fill:#232323;}</style></defs><path class="cls-1" d="M36.5,9.847h0c13.626,0,24.672,9.462,24.672,24.602v22.485H11.89v-22.485c0-15.139,11.046-24.602,24.672-24.602h-.062Z"/><path class="cls-2" d="M36.531,13.902c12.116,.014,20.577,8.463,20.577,20.547v18.431H15.954v-18.431c0-12.084,8.462-20.533,20.577-20.547m.031-4.054h0Zm0,0h0Zm-.062,0h0Zm.031,0c-13.612,.014-24.641,9.473-24.641,24.601v22.485H61.172v-22.485c0-15.128-11.029-24.588-24.641-24.601h0Z"/><path class="cls-2" d="M66.468,57.445H6.532c-1.122,0-2.032-.908-2.032-2.027s.91-2.027,2.032-2.027h59.937c1.122,0,2.032,.908,2.032,2.027s-.91,2.027-2.032,2.027Z"/><path class="cls-2" d="M36.688,4.054c1.097,0,1.989,.889,1.989,1.981s-.892,1.981-1.989,1.981-1.989-.889-1.989-1.981,.892-1.981,1.989-1.981m0-4.054c-3.343,0-6.052,2.702-6.052,6.035s2.71,6.035,6.052,6.035,6.052-2.702,6.052-6.035-2.71-6.035-6.052-6.035h0Z"/><path class="cls-2" d="M36.688,75c-6.305,0-11.435-5.116-11.435-11.404,0-1.119,.91-2.027,2.032-2.027s2.032,.908,2.032,2.027c0,4.053,3.307,7.349,7.372,7.349s7.372-3.297,7.372-7.349c0-1.119,.91-2.027,2.032-2.027s2.032,.908,2.032,2.027c0,6.288-5.13,11.404-11.435,11.404Z"/></svg>