<svg width="28" height="28" fill="none" xmlns="http://www.w3.org/2000/svg"><g clip-path="url(#a)" fill="#999"><path d="M18.48 3.64H9.52c-1.47 0-2.66 1.19-2.66 2.66v15.68c0 1.47 1.19 2.66 2.66 2.66h8.96c1.47 0 2.66-1.19 2.66-2.66V6.3c0-1.47-1.19-2.66-2.66-2.66Zm1.26 18.34c0 .7-.56 1.26-1.26 1.26H9.52c-.7 0-1.26-.56-1.26-1.26V6.3c0-.7.56-1.26 1.26-1.26h1.4v.14c0 .77.63 1.4 1.4 1.4h3.36c.77 0 1.4-.63 1.4-1.4v-.14h1.4c.7 0 1.26.56 1.26 1.26v15.68Z"/><path d="M17.08 21h-6.16c-.391 0-.7.308-.7.7 0 .392.309.7.7.7h6.16c.393 0 .7-.308.7-.7 0-.392-.307-.7-.7-.7ZM14 9.66a4.194 4.194 0 0 0-4.2 4.2c0 2.324 1.877 4.2 4.2 4.2 2.325 0 4.2-1.876 4.2-4.2 0-2.324-1.875-4.2-4.2-4.2Zm1.877 4.41-1.582 1.582a.437.437 0 0 1-.294.126.381.381 0 0 1-.294-.126l-1.582-1.582a.406.406 0 0 1 0-.588.406.406 0 0 1 .588 0l.868.868v-1.974c0-.238.182-.42.42-.42s.42.182.42.42v1.974l.868-.868a.406.406 0 0 1 .588 0 .406.406 0 0 1 0 .588Z"/></g><defs><clipPath id="a"><path fill="#fff" d="M0 0h28v28H0z"/></clipPath></defs></svg>