<svg xmlns="http://www.w3.org/2000/svg" xmlns:xlink="http://www.w3.org/1999/xlink" width="16px" height="16px">
<path fill-rule="evenodd" fill="rgb(243, 152, 0)" d="M15.999,9.0 L15.999,13.0 L11.498,13.0 C11.632,12.679 11.736,12.343 11.818,12.0 L14.999,12.0 L14.999,10.0 L11.974,10.0 C11.948,9.658 11.895,9.325 11.818,9.0 L14.0,9.0 L14.0,7.0 L10.968,7.0 C10.738,6.641 10.474,6.306 10.179,5.999 L14.999,5.999 L14.999,4.0 L9.500,4.0 L9.500,5.387 C9.187,5.142 8.854,4.924 8.500,4.739 L8.500,4.0 L7.500,4.0 L7.500,0.0 L14.999,0.0 L14.999,3.0 L15.999,3.0 L15.999,7.0 L14.999,7.0 L14.999,9.0 L15.999,9.0 ZM14.0,1.0 L8.500,1.0 L8.500,3.0 L14.0,3.0 L14.0,1.0 ZM11.0,10.499 C11.0,13.537 8.537,16.0 5.500,16.0 C2.462,16.0 0.0,13.537 0.0,10.499 C0.0,7.462 2.462,5.0 5.500,5.0 C8.537,5.0 11.0,7.462 11.0,10.499 ZM5.500,5.999 C3.18,5.999 1.0,8.18 1.0,10.499 C1.0,12.981 3.18,15.0 5.500,15.0 C7.981,15.0 10.0,12.981 10.0,10.499 C10.0,8.18 7.981,5.999 5.500,5.999 ZM5.999,11.0 L5.500,11.0 L5.500,13.0 L4.499,13.0 L4.499,11.0 L4.499,8.0 L5.500,8.0 L5.999,8.0 C6.828,8.0 7.500,8.671 7.500,9.499 C7.500,10.328 6.828,11.0 5.999,11.0 ZM5.999,9.0 L5.500,9.0 L5.500,10.0 L5.999,10.0 C6.275,10.0 6.500,9.775 6.500,9.499 C6.500,9.224 6.275,9.0 5.999,9.0 Z"/>
</svg>