<svg xmlns="http://www.w3.org/2000/svg" xmlns:xlink="http://www.w3.org/1999/xlink" width="15px" height="22px">
<path fill-rule="evenodd" fill="rgb(243, 152, 0)" d="M14.450,10.483 C14.95,11.180 13.907,11.988 13.907,12.819 L13.907,19.672 C13.907,20.950 12.874,21.990 11.604,21.990 L2.303,21.990 C1.33,21.990 0.0,20.950 0.0,19.672 L0.0,9.76 C0.0,9.63 0.0,9.49 0.2,9.36 C0.209,7.616 0.737,6.235 1.530,5.41 C2.293,3.892 3.314,2.901 4.483,2.174 C4.520,2.151 4.563,2.142 4.606,2.138 L4.606,1.22 C4.606,0.458 5.62,0.0 5.623,0.0 L7.859,0.0 C8.420,0.0 8.876,0.458 8.876,1.22 L8.876,2.411 L8.876,3.190 C9.240,3.185 9.874,3.183 10.281,3.204 C11.513,3.269 12.674,3.794 13.550,4.683 C14.426,5.573 14.937,6.744 14.990,7.984 C15.27,8.852 14.840,9.717 14.450,10.483 ZM0.554,19.67 L7.220,19.67 L7.220,12.901 L0.554,12.901 L0.554,19.67 ZM8.322,1.22 C8.322,0.765 8.114,0.557 7.859,0.557 L5.623,0.557 C5.368,0.557 5.160,0.765 5.160,1.22 L5.160,2.132 L8.322,2.132 L8.322,1.22 ZM10.252,3.761 C9.686,3.731 8.615,3.751 8.604,3.751 C8.530,3.752 8.458,3.724 8.405,3.671 C8.352,3.619 8.322,3.548 8.322,3.472 L8.322,2.689 L4.708,2.689 C3.634,3.370 2.696,4.289 1.991,5.351 C1.247,6.470 0.750,7.765 0.554,9.97 L0.554,12.344 L7.497,12.344 C7.650,12.344 7.774,12.469 7.774,12.623 L7.774,19.346 C7.774,19.500 7.650,19.625 7.497,19.625 L0.554,19.625 L0.554,19.672 C0.554,20.643 1.338,21.432 2.303,21.432 L11.604,21.432 C12.568,21.432 13.353,20.643 13.353,19.672 L13.353,12.819 C13.353,11.900 13.562,11.4 13.956,10.229 C14.303,9.548 14.469,8.780 14.437,8.8 C14.340,5.745 12.502,3.879 10.252,3.761 ZM11.824,10.652 C11.659,10.775 11.462,10.837 11.265,10.837 C11.94,10.837 10.923,10.790 10.775,10.696 C9.239,9.725 8.322,8.58 8.322,6.237 C8.322,6.47 8.378,5.864 8.484,5.707 C8.590,5.551 8.739,5.431 8.915,5.362 C9.295,5.213 9.697,5.143 10.109,5.156 C11.691,5.203 12.981,6.486 13.46,8.77 C13.87,9.87 12.630,10.49 11.824,10.652 ZM10.92,5.713 C10.92,5.713 10.92,5.713 10.92,5.713 C10.66,5.712 10.40,5.712 10.14,5.712 C9.705,5.712 9.403,5.769 9.116,5.882 C9.45,5.910 8.985,5.958 8.942,6.21 C8.899,6.85 8.876,6.160 8.876,6.237 C8.876,7.865 9.696,9.355 11.70,10.224 C11.198,10.305 11.368,10.298 11.493,10.204 C12.152,9.712 12.525,8.925 12.492,8.99 C12.439,6.800 11.385,5.752 10.92,5.713 Z"/>
</svg>