<?xml version="1.0" encoding="UTF-8"?><svg id="_イヤー_2" xmlns="http://www.w3.org/2000/svg" viewBox="0 0 72 62.104"><defs><style>.cls-1{fill:#242424;}</style></defs><g id="icons"><path id="_.heart" class="cls-1" d="M51,3c9.925,0,18,8.075,18,18,0,6.065-3.569,10.907-6.564,13.902-3.99,3.99-24.165,22.7-24.382,22.901-1.251,1.175-1.853,1.302-2.054,1.302s-.804-.127-2.052-1.299c-.204-.192-20.485-19.282-24.464-22.98-4.484-4.168-6.484-8.432-6.484-13.825C3,11.075,11.075,3,21,3c4.555,0,8.285,1.387,11.737,4.365,1.01,.871,2.107,1.312,3.263,1.312s2.253-.442,3.263-1.312c3.5-3.019,7.12-4.365,11.737-4.365Zm-13.697,2.093c-.451,.389-.877,.584-1.303,.584s-.852-.195-1.304-.584C30.284,1.288,25.648,0,21,0,9.402,0,0,9.402,0,21c0,6.427,2.454,11.387,7.442,16.023,4.018,3.734,24.45,22.967,24.45,22.967,1.501,1.41,2.804,2.115,4.108,2.115s2.607-.705,4.108-2.115c0,0,20.373-18.89,24.45-22.967,4.077-4.077,7.442-9.596,7.442-16.023C72,9.402,62.598,0,51,0c-4.776,0-9.284,1.288-13.697,5.093Z"/></g></svg>