<svg xmlns="http://www.w3.org/2000/svg" xmlns:xlink="http://www.w3.org/1999/xlink" width="16px" height="10px">
<path fill-rule="evenodd" fill="rgb(243, 152, 0)" d="M15.0,9.999 L13.270,9.999 L2.730,9.999 L0.999,9.999 L0.0,9.999 L0.0,8.999 L0.0,7.269 L0.0,2.730 L0.0,0.999 L0.0,0.0 L0.999,0.0 L2.730,0.0 L13.270,0.0 L15.0,0.0 L15.999,0.0 L15.999,0.999 L15.999,2.730 L15.999,7.269 L15.999,8.999 L15.999,9.999 L15.0,9.999 ZM0.999,8.999 L1.999,8.999 C1.999,8.450 1.549,8.0 0.999,8.0 L0.999,8.999 ZM0.999,0.999 L0.999,2.0 C1.549,2.0 1.999,1.549 1.999,0.999 L0.999,0.999 ZM15.0,0.999 L14.0,0.999 C14.0,1.549 14.450,2.0 15.0,2.0 L15.0,0.999 ZM15.0,3.0 C13.895,3.0 13.0,2.105 13.0,0.999 L3.0,0.999 C3.0,2.105 2.105,3.0 0.999,3.0 L0.999,6.999 C2.105,6.999 3.0,7.894 3.0,8.999 L13.0,8.999 C13.0,7.894 13.895,6.999 15.0,6.999 L15.0,3.0 ZM15.0,8.0 C14.450,8.0 14.0,8.450 14.0,8.999 L15.0,8.999 L15.0,8.0 ZM7.999,8.0 C6.343,8.0 5.0,6.656 5.0,5.0 C5.0,3.343 6.343,2.0 7.999,2.0 C9.656,2.0 10.999,3.343 10.999,5.0 C10.999,6.656 9.656,8.0 7.999,8.0 ZM7.999,3.0 C6.897,3.0 6.0,3.897 6.0,5.0 C6.0,6.102 6.897,6.999 7.999,6.999 C9.102,6.999 9.999,6.102 9.999,5.0 C9.999,3.897 9.102,3.0 7.999,3.0 Z"/>
</svg>