<svg xmlns="http://www.w3.org/2000/svg" viewBox="0 0 68 71.36"><defs><style>.cls-1{fill:#fff;}</style></defs><g id="レイヤー_2" data-name="レイヤー 2"><g id="icons"><g id="_34.downlod" data-name="34.downlod"><path class="cls-1" d="M44,3.36v3c15.51,0,21,5.5,21,21v20c0,15.5-5.49,21-21,21H24c-15.5,0-21-5.5-21-21v-20c0-15.5,5.5-21,21-21v-3c-17.23,0-24,6.77-24,24v20c0,17.23,6.77,24,24,24H44c17.24,0,24-6.77,24-24v-20C68,10.13,61.24,3.36,44,3.36Z"/><path class="cls-1" d="M20.28,35.44a1.5,1.5,0,1,0-2.13,2.12L32.94,52.42h0a1.3,1.3,0,0,0,.23.18l0,0,.22.11.08,0,.2.06a1.36,1.36,0,0,0,.29,0,1.53,1.53,0,0,0,.3,0l.2-.06.08,0a.94.94,0,0,0,.22-.12l0,0a1,1,0,0,0,.22-.18h0L49.86,37.56a1.5,1.5,0,1,0-2.13-2.12L35.5,47.72V1.5a1.5,1.5,0,0,0-3,0V47.72Z"/></g></g></g></svg>