<svg width="28" height="28" fill="none" xmlns="http://www.w3.org/2000/svg"><g clip-path="url(#a)"><path d="m14 5.688-7.875 6.125v10.062h15.75V11.812L14 5.689Z" fill="#fff"/><path d="M14 13.51c1.54 0 2.8 1.26 2.8 2.8v5.88h-5.6v-5.88c0-1.54 1.26-2.8 2.8-2.8Z" fill="#F39800"/><path d="M21.139 4.97a.562.562 0 0 0-.56-.56h-1.68a.562.562 0 0 0-.56.56v3.976l2.8 2.184V4.97Z" fill="#832102"/><path d="M20.439 22.89H7.559c-1.162 0-2.1-.938-2.1-2.1v-9.128c0-.224.098-.434.28-.56l7.966-5.992a.714.714 0 0 1 .854 0l7.714 5.992a.69.69 0 0 1 .266.546v9.128c0 1.162-.938 2.1-2.1 2.1v.014ZM6.859 12.012v8.778c0 .392.308.7.7.7h12.88c.392 0 .7-.308.7-.7v-8.778l-7.014-5.46-7.266 5.46Z" fill="#832102"/><path d="M23.8 14.168c-.21 0-.42-.07-.602-.21l-9.072-7.056-9.338 7.014a.981.981 0 0 1-1.176-1.568l9.926-7.462a.987.987 0 0 1 1.19 0l9.674 7.518a.967.967 0 0 1 .168 1.372.96.96 0 0 1-.77.378v.014Z" fill="#832102"/></g><defs><clipPath id="a"><path fill="#fff" d="M0 0h28v28H0z"/></clipPath></defs></svg>