<svg xmlns="http://www.w3.org/2000/svg" xmlns:xlink="http://www.w3.org/1999/xlink" width="14px" height="16px">
<path fill-rule="evenodd" fill="rgb(243, 152, 0)" d="M14.0,7.914 L13.0,7.914 L7.500,7.914 L6.500,7.914 L1.0,7.914 L0.0,7.914 L0.0,3.872 L4.919,3.872 L2.574,3.82 L5.632,0.7 L6.912,3.872 L7.87,3.872 L8.367,0.7 L11.425,3.82 L9.80,3.872 L14.0,3.872 L14.0,7.914 ZM5.195,1.862 L4.425,2.640 L5.580,3.30 L5.195,1.862 ZM6.500,4.883 L1.0,4.883 L1.0,6.904 L6.500,6.904 L6.500,4.883 ZM9.574,2.640 L8.804,1.862 L8.419,3.30 L9.574,2.640 ZM13.0,4.883 L7.500,4.883 L7.500,6.904 L13.0,6.904 L13.0,4.883 ZM2.0,14.987 L6.500,14.987 L6.500,8.925 L7.500,8.925 L7.500,14.987 L12.0,14.987 L12.0,8.925 L13.0,8.925 L13.0,15.998 L7.500,15.998 L6.500,15.998 L1.0,15.998 L1.0,8.925 L2.0,8.925 L2.0,14.987 Z"/>
</svg>