<svg xmlns="http://www.w3.org/2000/svg" width="28" height="28" fill="none"><g clip-path="url(#a)"><path fill="#fff" d="m23.142 21.756-4.325-4.326c1.091-1.4 1.707-3.08 1.707-4.886 0-2.128-.826-4.13-2.338-5.642-3.107-3.108-8.175-3.108-11.284 0a7.921 7.921 0 0 0-2.338 5.642c0 2.128.826 4.13 2.338 5.642a7.921 7.921 0 0 0 5.642 2.338c1.792 0 3.486-.616 4.886-1.708l4.326 4.326a.987.987 0 0 0 .7.294.987.987 0 0 0 .7-1.68h-.014ZM16.801 8.288a5.983 5.983 0 0 1 1.764 4.256c0 1.61-.63 3.122-1.765 4.256a6.016 6.016 0 0 1-8.512 0 5.983 5.983 0 0 1-1.764-4.256c0-1.61.63-3.122 1.764-4.256a6 6 0 0 1 4.256-1.764A6 6 0 0 1 16.8 8.288Z"/></g><defs><clipPath id="a"><path fill="#fff" d="M0 0h28v28H0z"/></clipPath></defs></svg>