<svg xmlns="http://www.w3.org/2000/svg" xmlns:xlink="http://www.w3.org/1999/xlink" width="6px" height="22px">
<path fill-rule="evenodd" fill="rgb(243, 152, 0)" d="M5.748,22.5 L0.257,22.5 C0.116,22.5 0.1,21.878 0.1,21.722 L0.1,11.723 C0.1,11.567 0.116,11.440 0.257,11.440 L0.492,11.440 L0.492,6.727 C0.492,6.571 0.607,6.444 0.748,6.444 L1.42,6.444 L1.42,0.287 C1.42,0.176 1.101,0.75 1.193,0.29 C1.285,0.16 1.392,0.1 1.467,0.75 L4.815,3.336 C4.870,3.390 4.902,3.468 4.902,3.549 L4.902,6.444 L5.196,6.444 C5.337,6.444 5.452,6.571 5.452,6.727 L5.452,11.440 L5.748,11.440 C5.890,11.440 6.4,11.567 6.4,11.723 L6.4,21.722 C6.4,21.878 5.890,22.5 5.748,22.5 ZM4.940,7.10 L4.646,7.10 L1.298,7.10 L1.5,7.10 L1.5,11.386 L4.940,11.386 L4.940,7.10 ZM5.492,12.6 L0.513,12.6 L0.513,21.439 L5.492,21.439 L5.492,12.6 Z"/>
</svg>