<?xml version="1.0" encoding="UTF-8"?><svg id="_イヤー_1" xmlns="http://www.w3.org/2000/svg" viewBox="0 0 73 75"><defs><style>.cls-1{fill:#c8d8ef;}.cls-2{fill:#232323;}</style></defs><path class="cls-1" d="M60.326,34.107l-29.176,29.181c-3.404-3.405,.628-7.438-2.776-10.843-3.404-3.405-7.436,.628-10.84-2.777-3.401-3.403,.63-7.436-2.771-10.839L39.905,13.679l.002,.002,20.418,20.425h.001Z"/><path class="cls-2" d="M13.566,70.5c-1.354,0-2.719-.02-4.077-.04l-.858-.012c-2.81-.039-5.04-2.271-5.079-5.081l-.012-.859c-.121-8.381-.247-17.048,4.281-21.577L43.021,7.719c4.291-4.293,11.274-4.292,15.566,0l7.7,7.704c2.072,2.072,3.213,4.837,3.213,7.785s-1.141,5.713-3.213,7.786L31.057,66.179c-3.793,3.794-10.491,4.321-17.491,4.321ZM50.804,8.522c-1.788,0-3.577,.681-4.938,2.043L10.665,45.777c-3.324,3.326-3.212,11.128-3.103,18.674l.012,.862c.008,.615,.497,1.103,1.112,1.112l.861,.012c7.542,.109,15.342,.222,18.667-3.104h0L63.443,28.146c1.311-1.311,2.034-3.066,2.034-4.939s-.722-3.627-2.035-4.939l-7.7-7.704c-1.362-1.362-3.15-2.043-4.939-2.043Z"/><rect class="cls-2" x="48.104" y="9.453" width="4.023" height="28.881" transform="translate(-2.219 42.427) rotate(-44.991)"/><path class="cls-2" d="M29.729,64.711c-2.363-2.363-2.136-5.051-1.97-7.014,.155-1.832,.189-2.834-.806-3.829-.995-.995-1.997-.96-3.828-.806-1.961,.167-4.648,.394-7.011-1.97s-2.134-5.05-1.967-7.012c.155-1.831,.19-2.833-.803-3.826l2.844-2.845c2.362,2.363,2.134,5.05,1.967,7.012-.155,1.831-.19,2.833,.803,3.826s1.997,.96,3.828,.806c1.961-.167,4.648-.394,7.011,1.97,2.363,2.363,2.136,5.051,1.97,7.014-.155,1.832-.189,2.834,.806,3.829l-2.844,2.845Z"/></svg>