<svg xmlns="http://www.w3.org/2000/svg" xmlns:xlink="http://www.w3.org/1999/xlink" width="16px" height="16px">
<path fill-rule="evenodd" fill="rgb(243, 152, 0)" d="M7.999,16.0 C3.581,16.0 0.0,12.418 0.0,8.0 C0.0,3.581 3.581,0.0 7.999,0.0 C12.418,0.0 15.999,3.581 15.999,8.0 C15.999,12.418 12.418,16.0 7.999,16.0 ZM7.999,1.0 C4.140,1.0 0.999,4.140 0.999,8.0 C0.999,11.859 4.140,14.999 7.999,14.999 C11.859,14.999 15.0,11.859 15.0,8.0 C15.0,4.140 11.859,1.0 7.999,1.0 ZM10.121,9.414 L10.113,9.421 L9.953,9.953 L9.421,10.114 L9.414,10.121 L9.410,10.117 L4.355,11.645 L5.882,6.589 L5.878,6.585 L5.886,6.578 L6.46,6.46 L6.578,5.886 L6.585,5.878 L6.589,5.882 L11.644,4.355 L10.117,9.410 L10.121,9.414 ZM5.852,10.147 L8.608,9.315 L6.684,7.392 L5.852,10.147 ZM10.147,5.852 L7.392,6.684 L9.315,8.607 L10.147,5.852 Z"/>
</svg>