<?xml version="1.0" encoding="UTF-8"?><svg id="_イヤー_1" xmlns="http://www.w3.org/2000/svg" viewBox="0 0 73 75"><defs><style>.cls-1{fill:#fff;}.cls-2{fill:#e8e9a4;}.cls-3{fill:#c2e4e3;}.cls-4{fill:#232323;}</style></defs><g><path class="cls-1" d="M36.5,70.499c2.537,0,27.436-7.873,29.295-8.59s5.206-1.978,5.206-8.7V13.925c0-5.037-2.975-10.864-10.598-9.105-5.564,1.284-23.904,6.487-23.904,6.487,0,0-18.339-5.203-23.904-6.487C4.973,3.061,1.999,8.888,1.999,13.925V53.209c0,6.722,3.347,7.983,5.206,8.7,1.859,.717,26.758,8.59,29.295,8.59Z"/><path class="cls-4" d="M36.5,72.5c-3.159,0-28.756-8.239-30.013-8.723C4.529,63.022,0,61.276,0,53.209V13.925C0,10.017,1.507,6.483,4.031,4.473c1.635-1.303,4.525-2.64,9.014-1.602,5.075,1.171,20.314,5.469,23.455,6.357,3.14-.888,18.38-5.186,23.455-6.357,4.49-1.038,7.379,.299,9.014,1.602,2.524,2.011,4.031,5.545,4.031,9.452V53.209c0,8.067-4.529,9.813-6.464,10.558-1.28,.494-26.875,8.733-30.037,8.733Zm.021-4.001h0ZM9.965,6.501c-1.369,0-2.523,.368-3.445,1.103-1.58,1.258-2.523,3.621-2.523,6.321V53.209c0,5.319,2.255,6.189,3.901,6.823,2.166,.835,26.028,8.298,28.601,8.465,2.575-.166,26.435-7.63,28.577-8.455,1.67-.644,3.926-1.513,3.926-6.832V13.925c0-2.7-.943-5.063-2.523-6.321-1.378-1.097-3.272-1.377-5.627-.834-5.453,1.258-23.625,6.411-23.808,6.463l-.545,.154-.545-.154c-.183-.052-18.355-5.204-23.807-6.463-.778-.179-1.506-.269-2.182-.269Z"/></g><path class="cls-4" d="M36.5,72.5c-1.104,0-1.999-.896-1.999-2.001V11.308c0-1.105,.895-2.001,1.999-2.001s1.999,.896,1.999,2.001v59.191c0,1.105-.895,2.001-1.999,2.001Z"/><polygon class="cls-2" points="29.474 39.807 9.548 33.575 9.548 16.518 29.474 22.75 29.474 39.807"/><g><line class="cls-3" x1="28.253" y1="51.16" x2="10.769" y2="45.691"/><path class="cls-4" d="M28.254,53.161c-.197,0-.398-.029-.596-.091l-17.484-5.468c-1.054-.33-1.641-1.452-1.312-2.507s1.448-1.645,2.504-1.314l17.484,5.468c1.054,.33,1.641,1.452,1.312,2.507-.267,.856-1.056,1.405-1.907,1.405Z"/></g><g><line class="cls-3" x1="44.343" y1="24.709" x2="61.827" y2="19.241"/><path class="cls-4" d="M44.343,26.711c-.851,0-1.64-.549-1.907-1.405-.329-1.055,.258-2.177,1.312-2.507l17.484-5.468c1.055-.33,2.174,.259,2.504,1.314,.329,1.055-.258,2.177-1.312,2.507l-17.484,5.468c-.198,.062-.399,.091-.596,.091Z"/></g><g><line class="cls-3" x1="44.343" y1="37.934" x2="61.827" y2="32.466"/><path class="cls-4" d="M44.343,39.936c-.851,0-1.64-.549-1.907-1.405-.329-1.055,.258-2.177,1.312-2.507l17.484-5.468c1.055-.331,2.174,.259,2.504,1.314,.329,1.055-.258,2.177-1.312,2.507l-17.484,5.468c-.198,.062-.399,.091-.596,.091Z"/></g><g><line class="cls-3" x1="44.343" y1="51.16" x2="61.827" y2="45.691"/><path class="cls-4" d="M44.343,53.161c-.851,0-1.64-.549-1.907-1.405-.329-1.055,.258-2.177,1.312-2.507l17.484-5.468c1.053-.331,2.174,.259,2.504,1.314,.329,1.055-.258,2.177-1.312,2.507l-17.484,5.468c-.198,.062-.399,.091-.596,.091Z"/></g></svg>