<svg xmlns="http://www.w3.org/2000/svg" xmlns:xlink="http://www.w3.org/1999/xlink" width="16px" height="16px">
<path fill-rule="evenodd" fill="rgb(243, 152, 0)" d="M15.340,7.755 L14.0,6.584 L12.190,5.0 L7.999,1.334 L3.810,5.0 L1.999,6.584 L1.804,6.754 L0.660,7.755 L0.0,7.0 L0.279,6.754 L1.999,5.249 L2.285,5.0 L7.240,0.665 L7.999,0.0 L8.760,0.665 L13.715,5.0 L14.0,5.249 L15.999,7.0 L15.340,7.755 ZM3.0,14.999 L6.0,14.999 L6.0,11.0 L9.999,11.0 L9.999,14.999 L13.0,14.999 L13.0,8.0 L14.0,8.0 L14.0,14.999 L14.0,15.999 L13.0,15.999 L9.999,15.999 L8.999,15.999 L6.999,15.999 L6.0,15.999 L3.0,15.999 L1.999,15.999 L1.999,14.999 L1.999,8.0 L3.0,8.0 L3.0,14.999 ZM6.999,14.999 L8.999,14.999 L8.999,12.0 L6.999,12.0 L6.999,14.999 Z"/>
</svg>