<svg xmlns="http://www.w3.org/2000/svg" width="50" height="50" fill="none"><path fill="#4285F4" fill-rule="evenodd" d="M38.33 25.244c0-.974-.06-1.948-.243-2.861H24.938V27.8h7.549c-.366 1.765-1.34 3.165-2.74 4.26v3.531h4.505c2.557-2.556 4.078-6.087 4.078-10.348Z" clip-rule="evenodd"/><path fill="#34A853" fill-rule="evenodd" d="M25.06 39c3.835 0 6.94-1.217 9.192-3.348l-4.505-3.53c-1.217.79-2.86 1.339-4.687 1.339-3.652 0-6.757-2.496-7.792-5.783h-4.687v3.652A13.902 13.902 0 0 0 25.06 39Z" clip-rule="evenodd"/><path fill="#FBBC05" fill-rule="evenodd" d="M17.269 27.677c-.304-.913-.487-1.765-.487-2.678s.183-1.766.426-2.679v-3.652h-4.687c-.913 1.948-1.522 4.079-1.522 6.27s.548 4.322 1.522 6.27l4.748-3.53Z" clip-rule="evenodd"/><path fill="#EA4335" fill-rule="evenodd" d="M25.061 16.6c2.01 0 3.896.73 5.296 2.13l4.018-4.017C31.94 12.4 28.775 11 25.06 11c-5.54 0-10.226 3.165-12.54 7.73l4.688 3.653c1.095-3.348 4.2-5.783 7.852-5.783Z" clip-rule="evenodd"/></svg>