<svg xmlns="http://www.w3.org/2000/svg" xmlns:xlink="http://www.w3.org/1999/xlink" width="14px" height="16px">
<path fill-rule="evenodd" fill="rgb(243, 152, 0)" d="M12.400,11.0 C11.849,11.0 6.257,11.0 5.540,11.0 L5.768,11.999 L12.171,11.999 L11.942,13.0 L4.977,13.0 C4.147,9.369 3.58,4.632 2.222,1.0 L0.2,1.0 L0.2,0.0 C0.655,0.0 2.356,0.0 2.987,0.0 L3.918,3.999 C6.779,3.999 10.126,3.999 12.987,3.999 L14.7,3.999 C13.691,5.386 12.716,9.613 12.400,11.0 ZM10.450,9.999 L11.609,9.999 L12.69,8.0 L10.450,8.0 L10.450,9.999 ZM6.470,5.0 L4.151,5.0 L4.615,6.999 L6.470,6.999 L6.470,5.0 ZM6.470,8.0 L4.847,8.0 L5.311,9.999 L6.470,9.999 L6.470,8.0 ZM9.455,5.0 L7.465,5.0 L7.465,6.999 L9.455,6.999 L9.455,5.0 ZM9.455,8.0 L7.465,8.0 L7.465,9.999 L9.455,9.999 L9.455,8.0 ZM10.450,5.0 L10.450,6.999 L12.299,6.999 L12.758,5.0 L10.450,5.0 ZM5.972,14.0 C7.280,14.22 7.280,15.977 5.972,16.0 C4.665,15.977 4.664,14.22 5.972,14.0 ZM10.947,14.0 C12.255,14.22 12.255,15.977 10.948,16.0 C9.640,15.977 9.640,14.22 10.947,14.0 Z"/>
</svg>