<?xml version="1.0" encoding="UTF-8"?><svg id="_イヤー_1" xmlns="http://www.w3.org/2000/svg" viewBox="0 0 73 75"><defs><style>.cls-1{fill:#e1e2a3;}.cls-2{fill:#222323;}.cls-3{fill:#232323;}</style></defs><g><circle class="cls-1" cx="36.5" cy="37.5" r="30"/><path class="cls-2" d="M36.5,11.56c14.303,0,25.94,11.637,25.94,25.94s-11.637,25.94-25.94,25.94-25.94-11.637-25.94-25.94S22.197,11.56,36.5,11.56m0-4.06c-16.569,0-30,13.431-30,30s13.431,30,30,30,30-13.431,30-30S53.069,7.5,36.5,7.5h0Z"/></g><path class="cls-3" d="M34.056,40.625v11.348h-4.217V24.028h4.778c2.341,0,4.108,.164,5.303,.489,1.206,.326,2.268,.942,3.185,1.847,1.605,1.568,2.407,3.547,2.407,5.936,0,2.558-.857,4.585-2.57,6.081-1.714,1.497-4.024,2.244-6.932,2.244h-1.955Zm0-3.909h1.574c3.873,0,5.81-1.49,5.81-4.47,0-2.883-1.997-4.326-5.991-4.326h-1.394v8.796Z"/></svg>