<?xml version="1.0" encoding="UTF-8"?><svg id="_イヤー_1" xmlns="http://www.w3.org/2000/svg" viewBox="0 0 73 75"><defs><style>.cls-1{fill:#e6d0e3;}.cls-2{fill:#232323;}</style></defs><path class="cls-2" d="M59,26.364v-3.839c0-5.421-5.551-9.059-10.506-6.887l-24.028,10.536H14c-4.142,0-7.5,3.365-7.5,7.517v3.758c0,4.073,3.253,7.381,7.29,7.496l.402,1.209,3.75,11.275c.511,1.535,1.944,2.57,3.558,2.57h3.75c2.56,0,4.367-2.513,3.558-4.947l-3.186-9.58,22.872,10.029c4.955,2.173,10.506-1.466,10.506-6.887v-3.839c4.274-.873,7.5-4.668,7.5-9.206s-3.226-8.333-7.5-9.206ZM13.999,41.208c-2.071,0-3.749-1.682-3.749-3.757v-3.76c0-2.076,1.679-3.758,3.75-3.758h7.5v11.275h-7.501Zm7.096,13.815l-3.345-10.056h3.75l2.969,8.929c.384,1.154-.473,2.347-1.687,2.347-.766,0-1.445-.491-1.687-1.219ZM55.25,26.364v22.251c0,2.71-2.776,4.53-5.253,3.443l-24.747-10.851v-11.275l24.747-10.851c2.477-1.086,5.253,.733,5.253,3.443v3.839Zm3.75,14.498v-10.585c2.18,.777,3.75,2.841,3.75,5.292s-1.57,4.516-3.75,5.292Z"/><path class="cls-1" d="M59,40.863v-10.585c2.18,.777,3.75,2.841,3.75,5.292s-1.57,4.516-3.75,5.292Z"/></svg>