<svg xmlns="http://www.w3.org/2000/svg" width="20" height="20" fill="none"><path fill="#FF5A00" d="m10 10.562-1.98-1.98a.777.777 0 0 0-.573-.228.85.85 0 0 0-.593.229.811.811 0 0 0-.25.593c0 .23.083.428.25.594l2.562 2.563a.8.8 0 0 0 .583.25.8.8 0 0 0 .584-.25l2.583-2.584a.763.763 0 0 0 .24-.583.839.839 0 0 0-.26-.583.879.879 0 0 0-.584-.24.763.763 0 0 0-.583.24l-1.98 1.979Zm0 7.77a8.115 8.115 0 0 1-3.25-.656 8.415 8.415 0 0 1-2.646-1.78 8.416 8.416 0 0 1-1.782-2.647A8.114 8.114 0 0 1 1.666 10c0-1.152.219-2.236.656-3.25a8.415 8.415 0 0 1 1.782-2.645 8.415 8.415 0 0 1 2.645-1.782A8.115 8.115 0 0 1 10 1.666c1.153 0 2.236.219 3.25.656a8.416 8.416 0 0 1 2.646 1.782 8.415 8.415 0 0 1 1.781 2.645 8.115 8.115 0 0 1 .657 3.25 8.114 8.114 0 0 1-.657 3.25 8.416 8.416 0 0 1-1.78 2.646 8.416 8.416 0 0 1-2.647 1.781 8.114 8.114 0 0 1-3.25.657Z"/></svg>