<svg id="レイヤー_1" data-name="レイヤー 1" xmlns="http://www.w3.org/2000/svg" xmlns:xlink="http://www.w3.org/1999/xlink" viewBox="0 0 1080 400"><defs><style>.cls-1{fill:none;}.cls-2{fill:#fde558;}.cls-3{clip-path:url(#clip-path);}.cls-4{fill:#ffffa2;}.cls-5{fill:#ed4023;}.cls-6{fill:#ff7034;}.cls-7{fill:#d43b23;}.cls-8{fill:#44a5c7;}.cls-9{fill:#ffb23d;}.cls-10{fill:#d84023;}.cls-11{fill:#069b60;}.cls-12{fill:#fff;}.cls-13{opacity:0.5;}.cls-14{opacity:0.7;}.cls-15{fill:#fbb03b;}.cls-16{fill:#9a664d;}.cls-17{fill:#f8a13d;}.cls-18{fill:#4493b8;}.cls-19{fill:#068b56;}.cls-20{fill:#f45934;}</style><clipPath id="clip-path"><rect class="cls-1" width="1080" height="400"/></clipPath></defs><title>bg_head</title><rect class="cls-2" width="1080" height="400"/><g class="cls-3"><polygon class="cls-1" points="613.2 468 1080 -73.82 1080 -259.54 596.25 468 613.2 468"/><polygon class="cls-1" points="407.81 -612 530.3 468 536.71 468 493.76 -612 407.81 -612"/><polygon class="cls-1" points="993.93 -612 572.95 468 582.93 468 1080 -516.16 1080 -612 993.93 -612"/><polygon class="cls-1" points="1080 468 1080 370.27 790.62 468 1080 468"/><polygon class="cls-1" points="0 -612 0 468 289.38 468 0 370.27 0 233.43 396.45 468 439.78 468 0 96.66 0 -73.82 466.81 468 483.75 468 0 -259.54 0 -516.16 497.07 468 507.05 468 86.07 -612 0 -612"/><polygon class="cls-1" points="209.61 -612 515.87 468 523.24 468 308.64 -612 209.61 -612"/><polygon class="cls-1" points="683.55 468 1080 233.43 1080 96.66 640.22 468 683.55 468"/><polygon class="cls-1" points="771.36 -612 556.76 468 564.13 468 870.39 -612 771.36 -612"/><polygon class="cls-1" points="586.24 -612 543.29 468 549.7 468 672.19 -612 586.24 -612"/><polygon class="cls-4" points="493.76 -612 536.71 468 543.29 468 586.24 -612 493.76 -612"/><polygon class="cls-4" points="308.64 -612 523.24 468 530.3 468 407.81 -612 308.64 -612"/><polygon class="cls-4" points="86.07 -612 507.05 468 515.87 468 209.61 -612 86.07 -612"/><polygon class="cls-4" points="0 -259.54 483.75 468 497.07 468 0 -516.16 0 -259.54"/><polygon class="cls-4" points="0 96.66 439.78 468 466.81 468 0 -73.82 0 96.66"/><polygon class="cls-4" points="0 370.27 289.38 468 396.45 468 0 233.43 0 370.27"/><polygon class="cls-4" points="790.62 468 1080 370.27 1080 233.43 683.55 468 790.62 468"/><polygon class="cls-4" points="640.22 468 1080 96.66 1080 -73.82 613.2 468 640.22 468"/><polygon class="cls-4" points="596.25 468 1080 -259.54 1080 -516.16 582.93 468 596.25 468"/><polygon class="cls-4" points="870.39 -612 564.13 468 572.95 468 993.93 -612 870.39 -612"/><polygon class="cls-4" points="672.19 -612 549.7 468 556.76 468 771.36 -612 672.19 -612"/><path class="cls-5" d="M103.29,402.4a154.92,154.92,0,0,0,20-38.36l-13.55-21.6C105,359.88,96,377.57,83.31,394.29Z"/><path class="cls-6" d="M123,410.41a156.3,156.3,0,0,0,13.45-25.36l-13.18-21a154.92,154.92,0,0,1-20,38.36Z"/><path class="cls-5" d="M142.55,418.33q3.77-6.32,6.83-12.72l-12.89-20.56A156.3,156.3,0,0,1,123,410.41Z"/><path class="cls-6" d="M80.72,300.15a4.17,4.17,0,0,0-2.58,1.53L25,365.06a3.7,3.7,0,0,0,1.53,6.17l16.17,6.56C64.13,353.32,77.49,326,80.72,300.15Z"/><path class="cls-6" d="M63.11,386.09l20.21,8.2C96,377.57,105,359.88,109.77,342.44l-14-22.35C91.61,342.2,80.31,365,63.11,386.09Z"/><path class="cls-5" d="M84.49,302.12a3.78,3.78,0,0,0-3.76-2c-3.23,25.9-16.6,53.17-38,77.64l20.43,8.29c17.21-21,28.5-43.89,32.65-66Z"/><ellipse class="cls-7" cx="53.91" cy="335.35" rx="45.35" ry="9.9" transform="translate(-237.63 161.09) rotate(-50)"/><path class="cls-8" d="M28.28,288.85c-7.84-3.56-12.4-8.84-13.55-15.7-1-5.88.44-12.79,4.5-21.73l6.37,2.9c-3.41,7.5-4.71,13.28-4,17.66.77,4.55,3.8,7.88,9.55,10.49Z"/><polygon class="cls-9" points="53.99 287.04 43.89 290.62 48.12 300.67 58.3 297.9 53.99 287.04"/><polygon class="cls-10" points="10.59 286.75 0.49 290.32 4.72 300.37 14.9 297.6 10.59 286.75"/><polygon class="cls-11" points="11.89 349.65 4.29 361.56 -2.68 357.24 4.41 345.92 11.89 349.65"/><polygon class="cls-8" points="47.01 338.74 35.74 341.11 33.24 322.26 45.59 319.72 47.01 338.74"/><polygon class="cls-12" points="65.14 318.46 68.86 304.92 60.88 299.57 56.46 313.19 65.14 318.46"/><path class="cls-5" d="M970.71,402.4a154.92,154.92,0,0,1-20-38.36l13.55-21.6c4.73,17.44,13.74,35.14,26.45,51.85Z"/><path class="cls-6" d="M951,410.41a156.3,156.3,0,0,1-13.45-25.36l13.18-21a154.92,154.92,0,0,0,20,38.36Z"/><path class="cls-5" d="M931.45,418.33q-3.77-6.32-6.83-12.72l12.89-20.56A156.3,156.3,0,0,0,951,410.41Z"/><path class="cls-6" d="M993.28,300.15a4.17,4.17,0,0,1,2.58,1.53L1049,365.06a3.7,3.7,0,0,1-1.53,6.17l-16.17,6.56C1009.87,353.32,996.51,326,993.28,300.15Z"/><path class="cls-6" d="M1010.89,386.09l-20.21,8.2C978,377.57,969,359.88,964.23,342.44l14-22.35C982.39,342.2,993.69,365,1010.89,386.09Z"/><path class="cls-5" d="M989.51,302.12a3.78,3.78,0,0,1,3.76-2c3.23,25.9,16.6,53.17,38,77.64l-20.43,8.29c-17.21-21-28.5-43.89-32.65-66Z"/><ellipse class="cls-7" cx="1020.09" cy="335.35" rx="9.9" ry="45.35" transform="translate(23.1 734.16) rotate(-40)"/><path class="cls-8" d="M1045.72,288.85l-2.89-6.37c5.75-2.61,8.78-5.94,9.55-10.49.74-4.38-.56-10.16-4-17.66l6.37-2.9c4.06,8.94,5.49,15.84,4.5,21.73C1058.12,280,1053.56,285.29,1045.72,288.85Z"/><polygon class="cls-9" points="1020.01 287.04 1030.11 290.62 1025.88 300.67 1015.7 297.9 1020.01 287.04"/><polygon class="cls-10" points="1063.41 286.75 1073.51 290.32 1069.28 300.37 1059.1 297.6 1063.41 286.75"/><polygon class="cls-11" points="1062.11 349.65 1069.71 361.56 1076.68 357.24 1069.6 345.92 1062.11 349.65"/><polygon class="cls-8" points="1026.99 338.74 1038.26 341.11 1040.76 322.26 1028.41 319.72 1026.99 338.74"/><polygon class="cls-12" points="1008.86 318.46 1005.14 304.92 1013.12 299.57 1017.54 313.19 1008.86 318.46"/><path class="cls-5" d="M149.94,383.31A154.92,154.92,0,0,0,176.32,349l-9.59-23.63c-7.69,16.36-19.64,32.21-35.06,46.47Z"/><path class="cls-6" d="M168,394.63A156.3,156.3,0,0,0,185.65,372l-9.33-23a154.92,154.92,0,0,1-26.38,34.3Z"/><path class="cls-5" d="M185.84,405.82q4.81-5.57,8.94-11.34L185.65,372A156.3,156.3,0,0,1,168,394.63Z"/><path class="cls-6" d="M199.43,414.34c2.52,1.58,3.66.62,2.54-2.13l-7.2-17.73q-4.12,5.77-8.94,11.34Z"/><path class="cls-6" d="M145.47,278.69a4.17,4.17,0,0,0-2.8,1.06L79.29,332.94a3.7,3.7,0,0,0,.44,6.34l14.79,9.27C119.89,328.18,137.79,303.64,145.47,278.69Z"/><path class="cls-6" d="M113.2,360.27l18.48,11.59c15.42-14.25,27.37-30.11,35.06-46.47l-9.92-24.44C148.89,322,133.8,342.53,113.2,360.27Z"/><path class="cls-5" d="M148.83,281.29a3.78,3.78,0,0,0-3.36-2.6c-7.68,24.94-25.58,49.48-51,69.85l18.68,11.72c20.6-17.74,35.69-38.27,43.61-59.32Z"/><ellipse class="cls-7" cx="112.95" cy="308.7" rx="45.35" ry="9.9" transform="translate(-172 144.83) rotate(-40)"/><path class="cls-8" d="M89.69,239.55c-6.38-4.38-9.53-9.86-9.36-16.3.15-5.44,2.59-11.44,7.7-18.89l5.77,4c-4.25,6.2-6.37,11.15-6.48,15.12-.07,2.53.51,6.35,6.32,10.33Z"/><path class="cls-10" d="M19.27,224.56l-5.77-4a19.47,19.47,0,0,0,3.58-12.49,11.81,11.81,0,0,0-4.85-9.05l4-5.77A18.68,18.68,0,0,1,24,207.54,26.49,26.49,0,0,1,19.27,224.56Z"/><path class="cls-9" d="M40.89,255.85l-6.57-2.42c5.19-14.11,21.69-21.07,36.8-15.52l-2.41,6.57C57.23,240.27,44.75,245.37,40.89,255.85Z"/><polygon class="cls-9" points="121.42 261.14 110.85 262.91 113.28 273.54 123.78 272.58 121.42 261.14"/><polygon class="cls-10" points="78.73 253.31 68.16 255.09 70.59 265.71 81.09 264.75 78.73 253.31"/><polygon class="cls-11" points="69.09 315.49 59.54 325.89 53.42 320.43 62.36 310.51 69.09 315.49"/><polygon class="cls-8" points="105.57 310.84 94.06 311.22 94.87 292.22 107.47 291.87 105.57 310.84"/><polygon class="cls-11" points="52.98 226.87 43.54 209.56 51.34 197.74 60.54 216.9 52.98 226.87"/><polygon class="cls-12" points="126.94 294.02 132.95 281.33 126.03 274.68 119.31 287.32 126.94 294.02"/><polygon class="cls-12" points="19.22 313.11 42.2 310.86 43.33 294.39 21.27 294.77 19.22 313.11"/><path class="cls-5" d="M924.06,383.31A154.92,154.92,0,0,1,897.68,349l9.59-23.63c7.69,16.36,19.64,32.21,35.06,46.47Z"/><path class="cls-6" d="M906,394.63A156.3,156.3,0,0,1,888.35,372l9.33-23a154.92,154.92,0,0,0,26.38,34.3Z"/><path class="cls-5" d="M888.16,405.82q-4.81-5.57-8.94-11.34L888.35,372A156.3,156.3,0,0,0,906,394.63Z"/><path class="cls-6" d="M874.57,414.34c-2.52,1.58-3.66.62-2.54-2.13l7.2-17.73q4.12,5.77,8.94,11.34Z"/><path class="cls-6" d="M928.53,278.69a4.17,4.17,0,0,1,2.8,1.06l63.38,53.18a3.7,3.7,0,0,1-.44,6.34l-14.79,9.27C954.11,328.18,936.21,303.64,928.53,278.69Z"/><path class="cls-6" d="M960.8,360.27l-18.48,11.59c-15.42-14.25-27.37-30.11-35.06-46.47l9.92-24.44C925.11,322,940.2,342.53,960.8,360.27Z"/><path class="cls-5" d="M925.17,281.29a3.78,3.78,0,0,1,3.36-2.6c7.68,24.94,25.58,49.48,51,69.85L960.8,360.27c-20.6-17.74-35.69-38.27-43.61-59.32Z"/><ellipse class="cls-7" cx="961.05" cy="308.7" rx="9.9" ry="45.35" transform="translate(106.82 846.48) rotate(-50)"/><path class="cls-8" d="M966.06,233.62l-6.46-2.69c2.42-5.83,2.37-10.33-.17-14.18s-7.34-7-14.95-10.21l2.69-6.46c9.07,3.77,14.82,7.84,18.11,12.82C969.1,218.7,969.37,225.67,966.06,233.62Z"/><path class="cls-10" d="M1054.73,224.56a26.49,26.49,0,0,1-4.78-17,18.68,18.68,0,0,1,7.87-14.25l4,5.77a11.81,11.81,0,0,0-4.85,9.05,19.47,19.47,0,0,0,3.58,12.49Z"/><path class="cls-9" d="M1011.54,271.61l-5.33-4.54a30.09,30.09,0,0,1,19.32-10.53,26.22,26.22,0,0,1,20.36,6l-4.54,5.33a19.29,19.29,0,0,0-15-4.36A23.12,23.12,0,0,0,1011.54,271.61Z"/><polygon class="cls-9" points="952.58 261.14 963.15 262.91 960.73 273.54 950.22 272.58 952.58 261.14"/><polygon class="cls-10" points="995.27 253.31 1005.84 255.09 1003.41 265.71 992.91 264.75 995.27 253.31"/><polygon class="cls-11" points="1004.91 315.49 1014.46 325.89 1020.58 320.43 1011.64 310.51 1004.91 315.49"/><polygon class="cls-8" points="968.43 310.84 979.94 311.22 979.13 292.22 966.53 291.87 968.43 310.84"/><polygon class="cls-11" points="1008.36 211.54 1017.8 194.22 1010 182.41 1000.79 201.57 1008.36 211.54"/><polygon class="cls-12" points="947.06 294.02 941.05 281.33 947.97 274.68 954.69 287.32 947.06 294.02"/><polygon class="cls-12" points="1042.11 304.78 1019.13 302.53 1018 286.05 1040.06 286.44 1042.11 304.78"/></g><polygon class="cls-10" points="927.35 37.15 921.29 49.19 941.87 57.67 948.45 44.47 927.35 37.15"/><polygon class="cls-10" points="859.16 160.61 873.94 163.59 867.62 145.94 854.05 144.15 859.16 160.61"/><polygon class="cls-10" points="873.72 56.25 881.88 67.96 892.79 64.31 883.59 52.42 873.72 56.25"/><polygon class="cls-8" points="901.93 110.86 915.67 129.4 932.06 126.94 916.24 107.73 901.93 110.86"/><polygon class="cls-8" points="889.72 14.05 898.99 21.21 910.23 15.37 899.91 8.34 889.72 14.05"/><polygon class="cls-12" points="832.78 42.63 837.07 49.73 844 46.02 839.24 38.91 832.78 42.63"/><polygon class="cls-11" points="859.71 112.33 870.83 118.44 872.44 108.29 861.42 102.98 859.71 112.33"/><polygon class="cls-10" points="224.25 144.16 219.15 134.56 213.54 137.44 218.27 146.56 224.25 144.16"/><polygon class="cls-10" points="278.48 67.86 278.62 78.58 284 78.75 284.03 67.5 278.48 67.86"/><polygon class="cls-10" points="322.49 109.65 312.57 109.56 313.07 119.64 322.8 120.46 322.49 109.65"/><polygon class="cls-8" points="297.42 114.71 290.66 114.35 291.47 122.61 298.14 123.45 297.42 114.71"/><polygon class="cls-8" points="281.21 191.67 265.71 185.73 265.19 195.72 280.23 202.35 281.21 191.67"/><polygon class="cls-12" points="440.22 115.11 418.95 117.25 417.95 132.51 438.38 132.09 440.22 115.11"/><polygon class="cls-11" points="344.58 79.92 339.05 91.69 345.48 97.83 351.67 86.1 344.58 79.92"/><polygon class="cls-10" points="365.72 155.34 374.88 161.21 371.55 166.57 362.84 161.11 365.72 155.34"/><polygon class="cls-10" points="523.58 189.01 512.91 188 513.18 182.63 524.39 183.51 523.58 189.01"/><polygon class="cls-10" points="396.73 208.74 396.01 218.64 386 217.32 385.98 207.55 396.73 208.74"/><polygon class="cls-8" points="478.43 166.33 478.24 173.09 470.07 171.61 469.78 164.89 478.43 166.33"/><polygon class="cls-8" points="416.79 86.25 421.44 102.18 411.44 101.89 406.06 86.36 416.79 86.25"/><polygon class="cls-12" points="521.41 21.97 517.54 43 502.25 42.76 504.33 22.43 521.41 21.97"/><polygon class="cls-11" points="472.96 224.33 460.78 228.88 455.19 221.98 467.38 216.76 472.96 224.33"/><g class="cls-13"><polygon class="cls-10" points="1062.78 55.83 1054.3 49.37 1065.99 36.21 1075.24 43.32 1062.78 55.83"/><polygon class="cls-10" points="977.68 9.76 987.16 2.52 988.78 17.26 979.75 23.23 977.68 9.76"/><polygon class="cls-10" points="1029.33 80.27 1031.07 69.12 1040.1 67.93 1037.67 79.57 1029.33 80.27"/><polygon class="cls-8" points="1025.34 30.32 1028.69 12.37 1041.2 8.45 1036.6 27.59 1025.34 30.32"/><polygon class="cls-8" points="1050.2 103.41 1054.31 95.1 1064.33 95.36 1059.42 103.94 1050.2 103.41"/><polygon class="cls-12" points="999.8 102.81 1000.39 96.27 1006.6 96.51 1005.68 103.22 999.8 102.81"/><polygon class="cls-11" points="984.37 60.43 990.16 52.23 994.82 58.89 988.82 66.49 984.37 60.43"/></g><polygon class="cls-10" points="383.96 95.86 379.28 81.28 386.49 78.61 391.64 93.83 383.96 95.86"/><polygon class="cls-8" points="51.68 58.5 42.4 62.16 39.78 50.6 48.73 46.32 51.68 58.5"/><g class="cls-13"><polygon class="cls-10" points="221.04 36.79 210.65 44.74 205.96 38.77 215.7 31.17 221.04 36.79"/><polygon class="cls-10" points="204.48 88.08 193.58 83.21 199.18 72.44 210.23 76.42 204.48 88.08"/><polygon class="cls-8" points="260.07 63.45 240.15 62.18 244.59 51 264.35 51.29 260.07 63.45"/><polygon class="cls-12" points="266.14 146.13 243.97 133.14 250.51 115.95 272.63 126.64 266.14 146.13"/></g><polygon class="cls-11" points="23.17 46.91 10.33 33.5 16.24 22.26 29.95 35.33 23.17 46.91"/><polygon class="cls-10" points="136.32 169.49 139.64 179.85 145.68 178 142.63 168.19 136.32 169.49"/><polygon class="cls-10" points="137.23 308.29 138.99 297.71 133.72 296.6 131.71 307.67 137.23 308.29"/><polygon class="cls-10" points="104.3 214.38 114.05 216.22 115.34 206.21 105.9 203.69 104.3 214.38"/><polygon class="cls-8" points="126.87 258.83 133.46 260.38 134.13 252.11 127.7 250.1 126.87 258.83"/><polygon class="cls-8" points="68.27 165.73 82.48 174.31 84.75 164.57 71.12 155.39 68.27 165.73"/><polygon class="cls-12" points="63.97 286.78 85.28 288.42 88.96 273.58 68.78 270.38 63.97 286.78"/><polygon class="cls-11" points="94.91 269.85 102.43 259.25 97.19 252.07 89.03 262.51 94.91 269.85"/><polygon class="cls-10" points="752.2 86.63 753.27 75.81 747 75.1 745.89 85.32 752.2 86.63"/><polygon class="cls-8" points="378.78 49.97 369.15 36.44 363.19 44.48 372.06 58.32 378.78 49.97"/><polygon class="cls-12" points="181.84 163.16 162.93 153.18 153.66 165.34 170.9 176.29 181.84 163.16"/><polygon class="cls-11" points="414.1 49.97 402.98 56.71 404.94 65.38 416.58 59.03 414.1 49.97"/><polygon class="cls-10" points="345.08 29.96 346.15 19.14 339.88 18.43 338.77 28.66 345.08 29.96"/><g class="cls-14"><polygon class="cls-10" points="817.7 54.82 811.89 63.83 816.28 66.94 822.52 57.58 817.7 54.82"/><polygon class="cls-10" points="831.25 113.97 823.03 108.41 817.87 117.09 825.53 123.15 831.25 113.97"/><polygon class="cls-8" points="807.56 104.32 802.13 100.28 798.23 107.61 803.33 112 807.56 104.32"/><polygon class="cls-10" points="817.7 54.82 811.89 63.83 816.28 66.94 822.52 57.58 817.7 54.82"/><polygon class="cls-10" points="831.25 113.97 823.03 108.41 817.87 117.09 825.53 123.15 831.25 113.97"/><polygon class="cls-8" points="807.56 104.32 802.13 100.28 798.23 107.61 803.33 112 807.56 104.32"/></g><polygon class="cls-8" points="179.85 223.11 170.23 209.58 164.27 217.62 173.13 231.46 179.85 223.11"/><polygon class="cls-12" points="145.26 32.39 126.35 22.41 117.08 34.57 134.32 45.52 145.26 32.39"/><polygon class="cls-11" points="63.88 77.03 52.76 83.77 54.72 92.44 66.36 86.09 63.88 77.03"/><polygon class="cls-10" points="460.83 67.92 461.9 57.1 455.62 56.4 454.52 66.62 460.83 67.92"/><polygon class="cls-10" points="924.27 198.58 918.46 207.59 922.85 210.7 929.1 201.35 924.27 198.58"/><polygon class="cls-10" points="211.82 233.74 203.6 228.18 198.44 236.85 206.1 242.92 211.82 233.74"/><polygon class="cls-8" points="534.13 84.08 528.7 80.05 524.81 87.37 529.9 91.76 534.13 84.08"/><polygon class="cls-8" points="334.84 165.07 325.21 151.55 319.25 159.59 328.11 173.42 334.84 165.07"/><polygon class="cls-12" points="579.88 216.88 560.97 206.9 551.7 219.06 568.95 230.01 579.88 216.88"/><polygon class="cls-11" points="685.53 40.95 674.42 47.69 676.37 56.37 688.02 50.02 685.53 40.95"/><g class="cls-14"><polygon class="cls-10" points="184.38 37.75 173.82 36.24 177.62 19.05 189.17 20.75 184.38 37.75"/><polygon class="cls-10" points="82.62 48 87.37 37.05 95.97 49.14 90.99 58.76 82.62 48"/><polygon class="cls-10" points="142.75 82.59 138.84 72 146.14 66.56 149.7 77.91 142.75 82.59"/><polygon class="cls-8" points="100.26 31.73 94.43 14.42 103.44 4.9 108.76 23.85 100.26 31.73"/><polygon class="cls-8" points="194.59 122.43 194.13 113.17 203 108.52 202.9 118.4 194.59 122.43"/><polygon class="cls-12" points="147.28 118.47 144.61 112.47 150.16 109.65 152.62 115.96 147.28 118.47"/><polygon class="cls-11" points="113.16 88.98 114.22 79 121.54 82.55 120 92.1 113.16 88.98"/></g><polygon class="cls-10" points="1033.65 189.59 1026.92 181.32 1041.37 171.27 1048.7 180.35 1033.65 189.59"/><polygon class="cls-10" points="981.4 163.85 992.31 159.03 990.42 173.75 980.25 177.44 981.4 163.85"/><polygon class="cls-10" points="952.09 368.06 956.4 357.63 965.46 358.59 960.37 369.34 952.09 368.06"/><polygon class="cls-8" points="1007.9 243.02 1015.37 226.35 1028.45 225.47 1019.49 243 1007.9 243.02"/><polygon class="cls-8" points="1041.93 296.89 1047.88 289.78 1057.55 292.38 1050.77 299.58 1041.93 296.89"/><polygon class="cls-12" points="998.07 295.5 1000.18 289.28 1006.17 290.96 1003.7 297.27 998.07 295.5"/><polygon class="cls-11" points="976.02 214.68 983.57 208.07 986.54 215.63 978.92 221.61 976.02 214.68"/><polygon class="cls-10" points="503.2 71.64 512.76 76.84 509.81 82.43 500.74 77.6 503.2 71.64"/><polygon class="cls-10" points="622.08 229.64 611.37 229.38 611.26 224 622.51 224.09 622.08 229.64"/><polygon class="cls-10" points="580 40.88 579.98 50.81 569.9 50.2 569.19 40.46 580 40.88"/><polygon class="cls-8" points="542.45 32.9 542.73 39.66 534.48 38.77 533.72 32.08 542.45 32.9"/><polygon class="cls-8" points="475.3 16.38 481.07 31.95 471.07 32.36 464.61 17.25 475.3 16.38"/><polygon class="cls-12" points="610.04 12.4 607.66 33.65 592.39 34.48 593.03 14.06 610.04 12.4"/><polygon class="cls-11" points="522.35 229.28 510.53 234.69 504.46 228.19 516.25 222.13 522.35 229.28"/><polygon class="cls-10" points="646.45 41.59 636.23 45.32 633.99 39.42 643.61 35.81 646.45 41.59"/><polygon class="cls-10" points="596.89 139.78 604.17 131.91 608.27 135.38 600.76 143.76 596.89 139.78"/><polygon class="cls-10" points="713.55 235.18 706.12 228.6 713.24 221.45 721.02 227.35 713.55 235.18"/><polygon class="cls-8" points="642.31 117.64 637.04 113.38 643.17 107.79 648.69 111.63 642.31 117.64"/><polygon class="cls-8" points="728.36 62.18 712.87 56.23 719.17 48.45 734.78 53.59 728.36 62.18"/><polygon class="cls-12" points="738.06 160.58 723.69 144.75 733.16 132.75 748.05 146.73 738.06 160.58"/><polygon class="cls-11" points="616.62 162.85 620.38 150.41 629.27 150.15 626.02 163 616.62 162.85"/><polygon class="cls-10" points="711.08 24.45 706.85 14.43 712.63 11.9 716.72 21.33 711.08 24.45"/><polygon class="cls-10" points="57.35 183.34 65.58 190.22 62.31 194.49 53.57 187.41 57.35 183.34"/><polygon class="cls-15" points="770.22 70.14 776.41 62.39 783.92 69.14 778.41 77.2 770.22 70.14"/><polygon class="cls-8" points="650.14 19.7 654.13 14.23 660.02 20.07 656.46 25.78 650.14 19.7"/><polygon class="cls-8" points="858.58 207.37 862.28 223.55 852.31 222.66 847.87 206.84 858.58 207.37"/><polygon class="cls-12" points="937.11 149.78 941.63 170.68 927.42 176.33 921.52 156.77 937.11 149.78"/><polygon class="cls-11" points="13.3 190.21 25.92 193.34 26.63 202.2 13.62 199.6 13.3 190.21"/><polygon class="cls-10" points="763.02 129.97 767.33 119.54 776.38 120.5 771.29 131.25 763.02 129.97"/><polygon class="cls-8" points="937.86 290.8 943.8 283.69 953.48 286.29 946.7 293.48 937.86 290.8"/><polygon class="cls-12" points="951 248.4 953.11 242.18 959.09 243.87 956.62 250.18 951 248.4"/><polygon class="cls-11" points="546.94 15.58 554.49 8.97 557.46 16.54 549.85 22.52 546.94 15.58"/><path class="cls-16" d="M296.93,1.57,292.29,6.5A49.85,49.85,0,0,0,295.53,0h5.94a49.86,49.86,0,0,1-2.75,6.3Z"/><path class="cls-16" d="M207.67,71.5l-10.23,6,4.4,2.9q-6.66,3.08-13.56,6l.72-6.37Q198.57,76,207.67,71.5Z"/><path class="cls-16" d="M113.92,104.87q9.67-2.25,19.54-5.05L138,104.3q-7.19,2.09-14.31,3.91l1.59-5.08Z"/><path class="cls-16" d="M48,113.55q4.57,0,9.41-.27t10-.7L71,117.83c-4.54.46-9,.81-13.32,1l-1.59.07,2.62-4Z"/><path class="cls-16" d="M257,42.2q3.13-2.3,6-4.6l-6.52,6.92L261.21,46l-.94.7q-5.46,4-11.46,8l-.5-6.36Q252.79,45.26,257,42.2Z"/><path class="cls-16" d="M.23,107.26l1.44,4.29q-.85-.38-1.67-.78v-6.28a50.1,50.1,0,0,0,8.64,3.88Z"/><path class="cls-9" d="M122.75,111.3l1-3.09,1.59-5.08-11.39,1.74a342,342,0,0,1-46.54,7.7L71,117.83l2.5,3.61a189,189,0,0,0,25-2.93C110.82,116.26,118.44,113.39,122.75,111.3Z"/><path class="cls-17" d="M122.75,111.3c-4.32,2.09-11.93,5-24.25,7.2a189,189,0,0,1-25,2.93l31.74,45.86Z"/><path class="cls-18" d="M27.5,122.5a75.91,75.91,0,0,1-24.25-6.22L21.59,171,54.2,121.78A158.31,158.31,0,0,1,27.5,122.5Z"/><path class="cls-8" d="M58.72,115,48,113.55,8.64,108.37.23,107.26l1.44,4.29,1.58,4.72A75.91,75.91,0,0,0,27.5,122.5a158.31,158.31,0,0,0,26.7-.72l1.9-2.87Z"/><path class="cls-7" d="M187.95,89.41A135.62,135.62,0,0,1,167.5,98.5c-10.31,3.68-21.7,6.82-27,8.22l41,40.08Z"/><path class="cls-5" d="M187.95,89.41l.33-3,.72-6.37V80l-55.58,19.8,0,0L138,104.3l2.48,2.42c5.29-1.4,16.68-4.54,27-8.22A135.62,135.62,0,0,0,187.95,89.41Z"/><path class="cls-11" d="M249.08,58l-.27-3.4-.5-6.36A343.36,343.36,0,0,1,207.67,71.5l-10.23,6,4.4,2.9,4.92,3.25A168.47,168.47,0,0,0,230.5,72.5C242.24,65.79,247.64,59.8,249.08,58Z"/><path class="cls-19" d="M249.08,58c-1.44,1.76-6.84,7.75-18.58,14.46a168.47,168.47,0,0,1-23.74,11.19l46.79,30.88Z"/><path class="cls-6" d="M285.5,28.5A163.74,163.74,0,0,0,299.73,9l-1-2.69-1.78-4.72L292.29,6.5,263,37.59l-6.52,6.92L261.21,46l4,1.26C270,43.34,279.62,35.11,285.5,28.5Z"/><path class="cls-20" d="M299.73,9A163.74,163.74,0,0,1,285.5,28.5c-5.88,6.61-15.53,14.84-20.24,18.75l55.42,17.22Z"/><path class="cls-16" d="M783.07,1.57l4.64,4.93A49.85,49.85,0,0,1,784.47,0h-5.94a49.86,49.86,0,0,0,2.75,6.3Z"/><path class="cls-16" d="M872.33,71.5l10.23,6-4.4,2.9q6.66,3.08,13.56,6L891,80.07Q881.43,76,872.33,71.5Z"/><path class="cls-16" d="M966.08,104.87q-9.67-2.25-19.54-5.05L942,104.3q7.19,2.09,14.31,3.91l-1.59-5.08Z"/><path class="cls-16" d="M1032,113.55q-4.57,0-9.41-.27t-10-.7l-3.64,5.25c4.54.46,9,.81,13.32,1l1.59.07-2.62-4Z"/><path class="cls-16" d="M823,42.2q-3.13-2.3-6-4.6l6.52,6.92L818.79,46l.94.7q5.46,4,11.46,8l.5-6.36Q827.21,45.26,823,42.2Z"/><path class="cls-16" d="M1079.77,107.26l-1.44,4.29q.85-.38,1.67-.78v-6.28a50.1,50.1,0,0,1-8.64,3.88Z"/><path class="cls-9" d="M957.25,111.3l-1-3.09-1.59-5.08,11.39,1.74a342,342,0,0,0,46.54,7.7l-3.64,5.25-2.5,3.61a189,189,0,0,1-25-2.93C969.18,116.26,961.56,113.39,957.25,111.3Z"/><path class="cls-17" d="M957.25,111.3c4.32,2.09,11.93,5,24.25,7.2a189,189,0,0,0,25,2.93l-31.74,45.86Z"/><path class="cls-18" d="M1052.5,122.5a75.91,75.91,0,0,0,24.25-6.22L1058.41,171l-32.61-49.22A158.31,158.31,0,0,0,1052.5,122.5Z"/><path class="cls-8" d="M1021.28,115l10.72-1.41,39.35-5.18,8.41-1.11-1.44,4.29-1.58,4.72a75.91,75.91,0,0,1-24.25,6.22,158.31,158.31,0,0,1-26.7-.72l-1.9-2.87Z"/><path class="cls-7" d="M892.05,89.41A135.62,135.62,0,0,0,912.5,98.5c10.31,3.68,21.7,6.82,27,8.22l-41,40.08Z"/><path class="cls-5" d="M892.05,89.41l-.33-3L891,80.07V80l55.58,19.8,0,0L942,104.3l-2.48,2.42c-5.29-1.4-16.68-4.54-27-8.22A135.62,135.62,0,0,1,892.05,89.41Z"/><path class="cls-11" d="M830.92,58l.27-3.4.5-6.36A343.36,343.36,0,0,0,872.33,71.5l10.23,6-4.4,2.9-4.92,3.25A168.47,168.47,0,0,1,849.5,72.5C837.76,65.79,832.36,59.8,830.92,58Z"/><path class="cls-19" d="M830.92,58c1.44,1.76,6.84,7.75,18.58,14.46a168.47,168.47,0,0,0,23.74,11.19l-46.79,30.88Z"/><path class="cls-6" d="M794.5,28.5A163.74,163.74,0,0,1,780.27,9l1-2.69,1.78-4.72,4.64,4.93L817,37.59l6.52,6.92L818.79,46l-4,1.26C810,43.34,800.38,35.11,794.5,28.5Z"/><path class="cls-20" d="M780.27,9A163.74,163.74,0,0,0,794.5,28.5c5.88,6.61,15.53,14.84,20.24,18.75L759.33,64.47Z"/></svg>