<svg id="レイヤー_1" data-name="レイヤー 1" xmlns="http://www.w3.org/2000/svg" xmlns:xlink="http://www.w3.org/1999/xlink" viewBox="0 0 175 125"><defs><style>.cls-1{fill:none;}.cls-2{fill:#9cd155;}.cls-2,.cls-3{fill-rule:evenodd;}.cls-10,.cls-3{fill:#ffdb37;}.cls-4{fill:#ffbd37;}.cls-5{fill:#e8ad34;}.cls-6{fill:#89909f;}.cls-7{fill:#747c8e;}.cls-8{fill:#c98937;}.cls-9{fill:#b77e34;}.cls-11{fill:#066b74;}.cls-12{fill:#c6b405;}.cls-13{clip-path:url(#clip-path);}.cls-14{fill:#ffffa2;}</style><clipPath id="clip-path"><rect class="cls-1" x="-250" y="480" width="1080" height="400"/></clipPath></defs><title>btn_bonus_shopping</title><polygon class="cls-2" points="96.2 59.38 69.74 64.46 90.25 24.45 116.71 19.37 96.2 59.38"/><polygon class="cls-3" points="90.25 24.45 78.93 0 58.41 40.01 69.74 64.46 90.25 24.45"/><path class="cls-4" d="M129.33,53.37l.23,0Z"/><path class="cls-4" d="M130,53.49l.26.08Z"/><path class="cls-4" d="M38.55,53.4l.23,0Z"/><path class="cls-4" d="M37.83,53.57l.26-.08Z"/><path class="cls-4" d="M130.67,53.7l.26.11Z"/><path class="cls-4" d="M37.18,53.81l.26-.11Z"/><path class="cls-4" d="M131.87,54.33l.23.17Z"/><path class="cls-4" d="M133.38,55.79l.15.2Z"/><path class="cls-4" d="M131.29,54l.25.14Z"/><path class="cls-4" d="M132.91,55.23l.19.2Z"/><path class="cls-4" d="M132.41,54.75l.21.19Z"/><path class="cls-4" d="M36.57,54.12l.25-.14Z"/><path class="cls-4" d="M33.27,62.21A10.38,10.38,0,0,1,33.19,61,10.38,10.38,0,0,0,33.27,62.21Z"/><path class="cls-4" d="M33.55,58.23c0-.09.05-.19.08-.28C33.6,58,33.57,58.13,33.55,58.23Z"/><path class="cls-4" d="M33.24,59.79c0-.11,0-.22,0-.33C33.26,59.57,33.25,59.68,33.24,59.79Z"/><path class="cls-4" d="M33.36,59c0-.1,0-.21.06-.31C33.4,58.79,33.38,58.89,33.36,59Z"/><path class="cls-4" d="M33.19,60.61q0-.18,0-.35C33.19,60.38,33.19,60.5,33.19,60.61Z"/><path class="cls-4" d="M36,54.49l.23-.17Z"/><path class="cls-4" d="M133.83,56.49l.07.11Z"/><path class="cls-4" d="M33.81,57.45l.08-.21Z"/><path class="cls-4" d="M35.49,54.93l.21-.19Z"/><path class="cls-4" d="M35,55.43l.19-.2Z"/><path class="cls-4" d="M34.21,56.59l.06-.1Z"/><path class="cls-4" d="M34.59,56l.15-.2Z"/><path class="cls-4" d="M134.48,57.95c0,.09.05.19.08.28C134.54,58.14,134.51,58,134.48,57.95Z"/><path class="cls-4" d="M112.5,103.76a2.09,2.09,0,0,0-2,1.95l-.94,11.84a1.61,1.61,0,0,0,1.61,1.79,2,2,0,0,0,1.91-1.79l1.07-11.84A1.71,1.71,0,0,0,112.5,103.76Z"/><path class="cls-4" d="M96.32,103.76a2,2,0,0,0-1.89,1.95l-.37,11.84a1.71,1.71,0,0,0,1.69,1.79,1.87,1.87,0,0,0,1.82-1.79l.5-11.84A1.81,1.81,0,0,0,96.32,103.76Z"/><path class="cls-4" d="M134.83,59.46c0,.11,0,.22,0,.34C134.86,59.68,134.85,59.57,134.83,59.46Z"/><path class="cls-4" d="M62.58,80.69a2,2,0,0,0-1.81,2.22l.88,13.47a2.12,2.12,0,0,0,2,2,1.83,1.83,0,0,0,1.75-2l-.73-13.47A2.25,2.25,0,0,0,62.58,80.69Z"/><path class="cls-4" d="M114.46,80.69a2.33,2.33,0,0,0-2.14,2.22l-1.07,13.47a1.78,1.78,0,0,0,1.7,2,2.18,2.18,0,0,0,2-2l1.21-13.47A1.9,1.9,0,0,0,114.46,80.69Z"/><path class="cls-4" d="M134.91,60.26c0,.12,0,.23,0,.35C134.92,60.5,134.92,60.38,134.91,60.26Z"/><path class="cls-4" d="M104.41,103.76a2,2,0,0,0-1.94,1.95l-.65,11.84a1.66,1.66,0,0,0,1.65,1.79,1.92,1.92,0,0,0,1.87-1.79l.78-11.84A1.76,1.76,0,0,0,104.41,103.76Z"/><path class="cls-4" d="M97.16,80.69a2.19,2.19,0,0,0-2,2.22l-.42,13.47a1.89,1.89,0,0,0,1.8,2,2.06,2.06,0,0,0,1.95-2L99,82.91A2,2,0,0,0,97.16,80.69Z"/><path class="cls-4" d="M105.81,80.69a2.26,2.26,0,0,0-2.08,2.22L103,96.38a1.83,1.83,0,0,0,1.75,2,2.12,2.12,0,0,0,2-2l.89-13.47A2,2,0,0,0,105.81,80.69Z"/><path class="cls-4" d="M90,105.71a1.86,1.86,0,0,0-1.8-1.95,1.92,1.92,0,0,0-1.85,1.95l-.06,9L82,112l0-6.27a1.91,1.91,0,0,0-1.85-1.95,1.86,1.86,0,0,0-1.8,1.95l.07,4L74,106.84l0-1.13A2,2,0,0,0,72,103.76a1.73,1.73,0,0,0-1.5.89L57.09,96.07l-1-13.16a2.32,2.32,0,0,0-2.13-2.22,1.9,1.9,0,0,0-1.76,2.22l.95,10.62-4.88-3.11-.77-7.51a2.4,2.4,0,0,0-2.19-2.22,1.85,1.85,0,0,0-1.71,2.22l.55,4.88L36,82.61l4.87,36.23A7.2,7.2,0,0,0,47.76,125h54.66l-12.59-8Z"/><path class="cls-4" d="M88.52,80.69a2.13,2.13,0,0,0-2,2.22l-.09,13.47a1.94,1.94,0,0,0,1.85,2,2,2,0,0,0,1.9-2l.24-13.47A2.07,2.07,0,0,0,88.52,80.69Z"/><path class="cls-4" d="M134.69,58.68c0,.1,0,.21.06.32C134.73,58.89,134.71,58.79,134.69,58.68Z"/><path class="cls-4" d="M79.87,80.69a2.07,2.07,0,0,0-1.92,2.22l.23,13.47a2,2,0,0,0,1.9,2,1.94,1.94,0,0,0,1.85-2l-.08-13.47A2.12,2.12,0,0,0,79.87,80.69Z"/><path class="cls-4" d="M134.22,57.25l.08.21Z"/><path class="cls-4" d="M123.11,80.69a2.4,2.4,0,0,0-2.19,2.22l-1.39,13.47a1.73,1.73,0,0,0,1.65,2,2.25,2.25,0,0,0,2.09-2l1.54-13.47A1.85,1.85,0,0,0,123.11,80.69Z"/><path class="cls-4" d="M120.6,103.76a2.16,2.16,0,0,0-2,1.95l-1.22,11.84a1.57,1.57,0,0,0,1.56,1.79,2,2,0,0,0,2-1.79l1.35-11.84A1.66,1.66,0,0,0,120.6,103.76Z"/><path class="cls-4" d="M134.84,62.21a10.38,10.38,0,0,0,.08-1.24A10.37,10.37,0,0,1,134.84,62.21Z"/><path class="cls-4" d="M71.22,80.69a2,2,0,0,0-1.87,2.22l.56,13.47a2.06,2.06,0,0,0,1.95,2,1.89,1.89,0,0,0,1.8-2l-.41-13.47A2.19,2.19,0,0,0,71.22,80.69Z"/><path class="cls-5" d="M34.73,55.79c.09-.12.18-.24.28-.36C34.91,55.55,34.82,55.67,34.73,55.79Z"/><path class="cls-5" d="M35.2,55.23l.29-.3Z"/><path class="cls-5" d="M133.9,56.6c.12.21.22.43.32.65Q134.07,56.91,133.9,56.6Z"/><path class="cls-5" d="M33.2,60.26c0-.16,0-.32,0-.47C33.22,59.95,33.21,60.11,33.2,60.26Z"/><path class="cls-5" d="M35.7,54.74l.31-.25Z"/><path class="cls-5" d="M33.18,60.82s0,.1,0,.15c0-.12,0-.24,0-.36C33.18,60.68,33.18,60.75,33.18,60.82Z"/><path class="cls-5" d="M34.27,56.5c.1-.17.2-.34.31-.51C34.47,56.15,34.37,56.32,34.27,56.5Z"/><polygon class="cls-5" points="36.02 82.61 36.02 82.61 33.27 62.22 36.02 82.61"/><path class="cls-5" d="M33.89,57.25c.1-.23.2-.44.32-.65C34.09,56.81,34,57,33.89,57.25Z"/><path class="cls-5" d="M33.42,58.69c0-.16.08-.31.12-.46C33.5,58.38,33.46,58.53,33.42,58.69Z"/><path class="cls-5" d="M33.63,57.95c.06-.17.12-.33.18-.49C33.75,57.62,33.68,57.78,33.63,57.95Z"/><path class="cls-5" d="M33.28,59.46c0-.16.05-.31.08-.46C33.33,59.15,33.3,59.3,33.28,59.46Z"/><path class="cls-5" d="M134.56,58.23c0,.15.09.3.12.45C134.65,58.53,134.61,58.38,134.56,58.23Z"/><path class="cls-5" d="M131.54,54.12l.33.21Z"/><path class="cls-5" d="M130.93,53.81l.36.17Z"/><path class="cls-5" d="M134.75,59c0,.15.06.3.08.46C134.81,59.3,134.78,59.15,134.75,59Z"/><path class="cls-5" d="M132.1,54.49l.31.25Z"/><path class="cls-5" d="M133.52,56c.11.16.21.33.31.5C133.74,56.32,133.63,56.15,133.52,56Z"/><path class="cls-5" d="M132.62,54.93l.29.3Z"/><path class="cls-5" d="M134.3,57.46c.06.16.13.32.18.49C134.43,57.78,134.36,57.62,134.3,57.46Z"/><path class="cls-5" d="M133.1,55.43c.1.11.19.24.28.36C133.29,55.67,133.19,55.55,133.1,55.43Z"/><path class="cls-5" d="M38.09,53.49l.46-.09Z"/><path class="cls-5" d="M134.93,60.82c0-.07,0-.14,0-.21,0,.12,0,.24,0,.36C134.92,60.92,134.93,60.87,134.93,60.82Z"/><path class="cls-5" d="M36.24,54.33l.33-.21Z"/><path class="cls-5" d="M37.44,53.7l.39-.13Z"/><path class="cls-5" d="M36.82,54l.36-.17Z"/><path class="cls-5" d="M134.87,59.8c0,.15,0,.31,0,.47C134.9,60.11,134.89,59.95,134.87,59.8Z"/><path class="cls-5" d="M38.78,53.37a6,6,0,0,1,.71,0A6,6,0,0,0,38.78,53.37Z"/><path class="cls-5" d="M129.56,53.4l.46.09Z"/><path class="cls-5" d="M130.28,53.57l.39.13Z"/><path class="cls-5" d="M128.62,53.32a6,6,0,0,1,.71,0A6,6,0,0,0,128.62,53.32Z"/><path class="cls-5" d="M134.92,60.62c0-.12,0-.24,0-.35s0-.31,0-.47,0-.23,0-.34,0-.31-.08-.46,0-.21-.06-.32-.08-.3-.12-.45-.05-.19-.08-.28-.12-.33-.18-.49l-.08-.21c-.1-.23-.2-.44-.32-.65l-.07-.11c-.1-.17-.2-.34-.31-.5l-.15-.2c-.09-.12-.18-.24-.28-.36l-.19-.2-.29-.3-.21-.19-.31-.25-.23-.17-.33-.21-.25-.14-.36-.17-.26-.11-.39-.13-.26-.08-.46-.09-.23,0a6,6,0,0,0-.71,0H39.49a6,6,0,0,0-.71,0l-.23,0-.46.09-.26.08-.39.13-.26.11-.36.17-.25.14-.33.21-.23.17-.31.25-.21.19-.29.3-.19.2c-.1.11-.19.24-.28.36l-.15.2c-.11.16-.21.33-.31.51l-.06.1c-.12.21-.22.43-.32.65l-.08.21c-.06.16-.13.32-.18.49s-.05.19-.08.28-.09.3-.12.46,0,.21-.06.31-.06.31-.08.46,0,.22,0,.33,0,.31,0,.47,0,.23,0,.35,0,.24,0,.36a10.38,10.38,0,0,0,.08,1.24L36,82.61l8.11,5.18-.55-4.88a1.85,1.85,0,0,1,1.71-2.22,2.4,2.4,0,0,1,2.19,2.22l.77,7.51,4.88,3.11-.95-10.62a1.9,1.9,0,0,1,1.76-2.22,2.32,2.32,0,0,1,2.13,2.22l1,13.16,13.45,8.59a1.73,1.73,0,0,1,1.5-.89,2,2,0,0,1,1.89,1.95l0,1.13,4.43,2.83-.07-4a1.86,1.86,0,0,1,1.8-1.95A1.91,1.91,0,0,1,82,105.71L82,112l4.3,2.74.06-9a1.92,1.92,0,0,1,1.85-1.95,1.86,1.86,0,0,1,1.8,1.95L89.83,117l12.59,8h17.93a7.2,7.2,0,0,0,6.87-6.16l7.62-56.63a10.37,10.37,0,0,0,.08-1.24C134.92,60.85,134.93,60.73,134.92,60.62ZM63.64,98.42a2.12,2.12,0,0,1-2-2l-.88-13.47a2,2,0,0,1,1.81-2.22,2.25,2.25,0,0,1,2.08,2.22l.73,13.47A1.83,1.83,0,0,1,63.64,98.42Zm8.22,0a2.06,2.06,0,0,1-1.95-2l-.56-13.47a2,2,0,0,1,1.87-2.22,2.19,2.19,0,0,1,2,2.22l.41,13.47A1.89,1.89,0,0,1,71.86,98.42Zm8.22,0a2,2,0,0,1-1.9-2l-.23-13.47a2.07,2.07,0,0,1,1.92-2.22,2.12,2.12,0,0,1,2,2.22l.08,13.47A1.94,1.94,0,0,1,80.08,98.42Zm10.12-2a2,2,0,0,1-1.9,2,1.94,1.94,0,0,1-1.85-2l.09-13.47a2.13,2.13,0,0,1,2-2.22,2.07,2.07,0,0,1,1.92,2.22Zm7.38,21.16a1.87,1.87,0,0,1-1.82,1.79,1.71,1.71,0,0,1-1.69-1.79l.37-11.84a2,2,0,0,1,1.89-1.95,1.81,1.81,0,0,1,1.75,1.95Zm.89-21.16a2.06,2.06,0,0,1-1.95,2,1.89,1.89,0,0,1-1.8-2l.42-13.47a2.19,2.19,0,0,1,2-2.22A2,2,0,0,1,99,82.91Zm6.87,21.16a1.92,1.92,0,0,1-1.87,1.79,1.66,1.66,0,0,1-1.65-1.79l.65-11.84a2,2,0,0,1,1.94-1.95,1.76,1.76,0,0,1,1.7,1.95Zm1.4-21.16a2.12,2.12,0,0,1-2,2,1.83,1.83,0,0,1-1.75-2l.74-13.47a2.26,2.26,0,0,1,2.08-2.22,2,2,0,0,1,1.81,2.22Zm6.36,21.16a2,2,0,0,1-1.91,1.79,1.61,1.61,0,0,1-1.61-1.79l.94-11.84a2.09,2.09,0,0,1,2-1.95,1.71,1.71,0,0,1,1.66,1.95Zm3.12-34.64L115,96.38a2.18,2.18,0,0,1-2,2,1.78,1.78,0,0,1-1.7-2l1.07-13.47a2.33,2.33,0,0,1,2.14-2.22A1.9,1.9,0,0,1,116.22,82.91Zm6,22.8-1.35,11.84a2,2,0,0,1-2,1.79,1.57,1.57,0,0,1-1.56-1.79l1.22-11.84a2.16,2.16,0,0,1,2-1.95A1.66,1.66,0,0,1,122.21,105.71Zm2.6-22.8-1.54,13.47a2.25,2.25,0,0,1-2.09,2,1.73,1.73,0,0,1-1.65-2l1.39-13.47a2.4,2.4,0,0,1,2.19-2.22A1.85,1.85,0,0,1,124.81,82.91Z"/><path class="cls-6" d="M72.61,21.66,42.76,51.51A4.16,4.16,0,0,0,42.41,57L78.06,21.31a4.16,4.16,0,0,0-5.45.35"/><path class="cls-7" d="M78.06,21.31,42.41,57a4,4,0,0,0,.35.43,4.17,4.17,0,0,0,5.88,0L78.49,27.54a4.17,4.17,0,0,0,0-5.89,4.09,4.09,0,0,0-.43-.35"/><path class="cls-6" d="M90.45,27.55,120.3,57.39a4.16,4.16,0,0,0,5.45.35L90.1,22.09a4.16,4.16,0,0,0,.35,5.45"/><path class="cls-7" d="M90.1,22.09l35.65,35.65a4.27,4.27,0,0,0,.43-.35,4.18,4.18,0,0,0,0-5.89L96.34,21.66a4.17,4.17,0,0,0-5.89,0,4,4,0,0,0-.35.43"/><path class="cls-8" d="M49.46,119.34h0a2,2,0,0,1-2-1.79l-1.34-11.84a1.66,1.66,0,0,1,1.61-1.95,2.15,2.15,0,0,1,2,1.95L51,117.55A1.57,1.57,0,0,1,49.46,119.34Z"/><path class="cls-8" d="M57.17,119.34h0a2,2,0,0,1-1.91-1.79L54.2,105.71a1.71,1.71,0,0,1,1.66-1.95,2.09,2.09,0,0,1,2,1.95l.93,11.84A1.61,1.61,0,0,1,57.17,119.34Z"/><path class="cls-8" d="M64.89,119.34h0A1.92,1.92,0,0,1,63,117.55l-.77-11.84A1.76,1.76,0,0,1,64,103.76a2,2,0,0,1,1.94,1.95l.64,11.84A1.66,1.66,0,0,1,64.89,119.34Z"/><path class="cls-9" d="M62.58,80.69a2,2,0,0,0-1.81,2.22l.88,13.47a2.12,2.12,0,0,0,2,2,1.83,1.83,0,0,0,1.75-2l-.73-13.47a2.25,2.25,0,0,0-2.08-2.22"/><path class="cls-9" d="M71.22,80.69a2,2,0,0,0-1.87,2.22l.56,13.47a2.06,2.06,0,0,0,1.95,2,1.89,1.89,0,0,0,1.8-2l-.41-13.47a2.19,2.19,0,0,0-2-2.22"/><path class="cls-9" d="M79.87,80.69a2.07,2.07,0,0,0-1.92,2.22l.23,13.47a2,2,0,0,0,1.9,2,1.94,1.94,0,0,0,1.85-2l-.08-13.47a2.12,2.12,0,0,0-2-2.22"/><path class="cls-9" d="M88.52,80.69a2.13,2.13,0,0,0-2,2.22l-.09,13.47a1.94,1.94,0,0,0,1.85,2,2,2,0,0,0,1.9-2l.24-13.47a2.07,2.07,0,0,0-1.92-2.22"/><path class="cls-9" d="M97.16,80.69a2.19,2.19,0,0,0-2,2.22l-.42,13.47a1.89,1.89,0,0,0,1.8,2,2.06,2.06,0,0,0,1.95-2L99,82.91a2,2,0,0,0-1.87-2.22"/><path class="cls-9" d="M105.81,80.69a2.26,2.26,0,0,0-2.08,2.22L103,96.38a1.83,1.83,0,0,0,1.75,2,2.12,2.12,0,0,0,2-2l.89-13.47a2,2,0,0,0-1.81-2.22"/><path class="cls-9" d="M114.46,80.69a2.33,2.33,0,0,0-2.14,2.22l-1.07,13.47a1.78,1.78,0,0,0,1.7,2,2.18,2.18,0,0,0,2-2l1.21-13.47a1.9,1.9,0,0,0-1.76-2.22"/><path class="cls-9" d="M123.11,80.69a2.4,2.4,0,0,0-2.19,2.22l-1.39,13.47a1.73,1.73,0,0,0,1.65,2,2.25,2.25,0,0,0,2.09-2l1.54-13.47a1.85,1.85,0,0,0-1.7-2.22"/><path class="cls-8" d="M47.47,82.91l.77,7.51-4.11-2.62-.55-4.88L45.1,96.38a2.25,2.25,0,0,0,2.09,2,1.73,1.73,0,0,0,1.65-2Z"/><path class="cls-8" d="M57.09,96.07l-4-2.54-.95-10.62,1.2,13.47a2.18,2.18,0,0,0,2,2,1.78,1.78,0,0,0,1.7-2L56.06,82.91Z"/><path class="cls-8" d="M71.24,104l.27-.12Z"/><path class="cls-8" d="M71.63,103.82a1.68,1.68,0,0,1,.42-.06A1.68,1.68,0,0,0,71.63,103.82Z"/><path class="cls-8" d="M70.56,104.64a1.84,1.84,0,0,1,.25-.33A1.84,1.84,0,0,0,70.56,104.64Z"/><path class="cls-8" d="M70.88,104.24a1.75,1.75,0,0,1,.24-.19A1.74,1.74,0,0,0,70.88,104.24Z"/><path class="cls-8" d="M74,106.84l-3.42-2.19a2,2,0,0,0-.26,1.05l.49,11.84a1.86,1.86,0,0,0,1.82,1.79,1.71,1.71,0,0,0,1.69-1.79l-.36-11.84Z"/><path class="cls-8" d="M82,112l-3.62-2.31-.07-4,.2,11.84a1.81,1.81,0,0,0,1.78,1.79,1.76,1.76,0,0,0,1.74-1.79L82,105.71Z"/><path class="cls-8" d="M86.38,105.71l-.08,11.84A1.76,1.76,0,0,0,88,119.34a1.81,1.81,0,0,0,1.78-1.79V117l-3.51-2.24Z"/><path class="cls-9" d="M48.24,90.42l-.77-7.51a2.4,2.4,0,0,0-2.19-2.22,1.85,1.85,0,0,0-1.71,2.22l.55,4.88Z"/><path class="cls-9" d="M57.09,96.07l-1-13.16a2.32,2.32,0,0,0-2.13-2.22,1.9,1.9,0,0,0-1.76,2.22l.95,10.62Z"/><path class="cls-9" d="M70.8,104.31l.08-.07Z"/><path class="cls-9" d="M70.55,104.65h0Z"/><path class="cls-9" d="M71.12,104l.12-.07Z"/><path class="cls-9" d="M71.51,103.86l.12,0Z"/><path class="cls-9" d="M73.94,105.71A2,2,0,0,0,72,103.76a1.68,1.68,0,0,0-.42.06l-.12,0-.27.12-.12.07a1.75,1.75,0,0,0-.24.19l-.08.07a1.84,1.84,0,0,0-.25.33h0L74,106.84Z"/><path class="cls-9" d="M82,112l0-6.27a1.91,1.91,0,0,0-1.85-1.95,1.86,1.86,0,0,0-1.8,1.95l.07,4Z"/><polygon class="cls-9" points="90.03 105.71 89.83 116.96 89.83 116.96 90.03 105.71"/><path class="cls-9" d="M88.23,103.76a1.92,1.92,0,0,0-1.85,1.95l-.06,9L89.83,117l.2-11.25A1.86,1.86,0,0,0,88.23,103.76Z"/><path class="cls-9" d="M96.32,103.76a2,2,0,0,0-1.89,1.95l-.37,11.84a1.71,1.71,0,0,0,1.69,1.79,1.87,1.87,0,0,0,1.82-1.79l.5-11.84a1.81,1.81,0,0,0-1.75-1.95"/><path class="cls-9" d="M104.41,103.76a2,2,0,0,0-1.94,1.95l-.65,11.84a1.66,1.66,0,0,0,1.65,1.79,1.92,1.92,0,0,0,1.87-1.79l.78-11.84a1.76,1.76,0,0,0-1.7-1.95"/><path class="cls-9" d="M112.5,103.76a2.09,2.09,0,0,0-2,1.95l-.94,11.84a1.61,1.61,0,0,0,1.61,1.79,2,2,0,0,0,1.91-1.79l1.07-11.84a1.71,1.71,0,0,0-1.66-1.95"/><path class="cls-9" d="M120.6,103.76a2.16,2.16,0,0,0-2,1.95l-1.22,11.84a1.57,1.57,0,0,0,1.56,1.79,2,2,0,0,0,2-1.79l1.35-11.84a1.66,1.66,0,0,0-1.61-1.95"/><path class="cls-10" d="M134.72,68.88H34.11a8.14,8.14,0,0,1,0-16.28H134.72a8.14,8.14,0,0,1,0,16.28Z"/><path class="cls-7" d="M127.56,64.23h0A3.49,3.49,0,1,1,131,60.74,3.5,3.5,0,0,1,127.56,64.23Z"/><circle class="cls-7" cx="41.38" cy="60.89" r="3.59"/><path class="cls-11" d="M20.54,21.37c10.08,2.44,12.08,4.42,14.55,14.38,2.47-10,4.47-11.94,14.55-14.38C39.56,18.93,37.56,16.95,35.09,7,32.62,16.95,30.62,18.93,20.54,21.37Z"/><path class="cls-12" d="M4.72,41.05C11.84,42.77,13.25,44.17,15,51.2c1.74-7,3.16-8.43,10.27-10.15C18.15,39.33,16.74,37.93,15,30.9,13.25,37.93,11.84,39.33,4.72,41.05Z"/><path class="cls-11" d="M170.28,38c-10.08,2.44-12.08,4.42-14.55,14.38-2.47-10-4.47-11.94-14.55-14.38,10.08-2.44,12.08-4.42,14.55-14.38C158.19,33.55,160.2,35.53,170.28,38Z"/><path class="cls-12" d="M145.07,24.77c-7.12,1.72-8.53,3.12-10.27,10.15-1.74-7-3.16-8.43-10.27-10.15,7.12-1.72,8.53-3.12,10.27-10.15C136.54,21.65,138,23,145.07,24.77Z"/><g class="cls-13"><polygon class="cls-1" points="157.81 -132 280.3 948 286.71 948 243.76 -132 157.81 -132"/><polygon class="cls-1" points="-250 -132 -250 948 39.38 948 -250 850.27 -250 713.42 146.45 948 189.78 948 -250 576.66 -250 406.18 216.81 948 233.75 948 -250 220.46 -250 -36.16 247.07 948 257.05 948 -163.93 -132 -250 -132"/><polygon class="cls-1" points="-40.39 -132 265.87 948 273.24 948 58.64 -132 -40.39 -132"/><polygon class="cls-14" points="58.64 -132 273.24 948 280.3 948 157.81 -132 58.64 -132"/><polygon class="cls-14" points="-163.93 -132 257.05 948 265.87 948 -40.39 -132 -163.93 -132"/><polygon class="cls-14" points="-250 220.46 233.75 948 247.07 948 -250 -36.16 -250 220.46"/></g></svg>