<svg id="レイヤー_1" data-name="レイヤー 1" xmlns="http://www.w3.org/2000/svg" xmlns:xlink="http://www.w3.org/1999/xlink" viewBox="0 0 175 125"><defs><style>.cls-1{fill:none;}.cls-2{fill:#fff;}.cls-3{fill:#f8ba7c;}.cls-4{fill:#ffca90;}.cls-5{fill:#ffdb37;fill-rule:evenodd;}.cls-6{fill:#b4e06e;}.cls-7{fill:#066b74;}.cls-8{fill:#c6b405;}.cls-9{clip-path:url(#clip-path);}.cls-10{fill:#ffffa2;}</style><clipPath id="clip-path"><rect class="cls-1" x="-500" y="480" width="1080" height="400"/></clipPath></defs><title>btn_bonus_frend</title><ellipse class="cls-2" cx="159.01" cy="54.03" rx="5.63" ry="5.14"/><ellipse class="cls-2" cx="40.29" cy="21.09" rx="5.63" ry="5.14"/><path class="cls-3" d="M111.09,32.46c-5.23-.87-18.71-.81-27.65,2.44s-25.21,13.42-30.09,15S48.05,58.08,59,59.3s20.74-5.69,23.18-6.91,26,2.44,26,2.44l7.42,1.83,17.11,23.13c3-2.61,8.94-8.14,10.44-12.35a17.35,17.35,0,0,1,2.26-4.19L121.23,29.8C118.13,31.56,114.4,33,111.09,32.46Z"/><path class="cls-4" d="M111.09,60l-3.6-.36C102.77,58.91,89.43,57,84.42,57H83.9l-.66.38c-3.55,2.07-11.88,6.92-21.58,6.92a28.75,28.75,0,0,1-3.16-.17,26.35,26.35,0,0,1-4.18-.79,10,10,0,0,1,5.81,7.31,10,10,0,0,1,12.59,9.76s0,.05,0,.08A10,10,0,0,1,82.28,93.3a9.91,9.91,0,0,1,5.08,2.79,10,10,0,0,1-.15,14.14l-2,1.93h0a7.4,7.4,0,0,0,6.89-5.37A7.92,7.92,0,0,0,105,100.57a7.7,7.7,0,0,0-.12-1.35,7.92,7.92,0,0,0,13.14-6,7.93,7.93,0,0,0,11-7.32c0-3.33-1.62-5.49-5.49-10Z"/><path class="cls-3" d="M55.93,68.94a5.12,5.12,0,0,0-7.24-.08L41.37,76a5.12,5.12,0,1,0,7.16,7.32l7.32-7.16A5.12,5.12,0,0,0,55.93,68.94Z"/><path class="cls-3" d="M68.33,76.74a5.12,5.12,0,0,0-7.24-.08l-9.76,9.55a5.12,5.12,0,1,0,7.16,7.32L68.26,84A5.12,5.12,0,0,0,68.33,76.74Z"/><path class="cls-3" d="M78.3,86.93a5.12,5.12,0,0,0-7.24-.08L61.31,96.4a5.12,5.12,0,1,0,7.16,7.32l9.76-9.55A5.12,5.12,0,0,0,78.3,86.93Z"/><path class="cls-3" d="M85.83,99.5a5.12,5.12,0,0,0-7.24-.08L72.9,105a5.12,5.12,0,1,0,7.16,7.32l5.69-5.57A5.12,5.12,0,0,0,85.83,99.5Z"/><path class="cls-5" d="M172.64,53.61l-32.7-45.1A2.44,2.44,0,0,0,136.53,8L122,18.47a2.44,2.44,0,0,0-.54,3.41L154.21,67a2.44,2.44,0,0,0,3.41.54L172.1,57A2.44,2.44,0,0,0,172.64,53.61Zm-11.13,4.05a4.07,4.07,0,1,1,.91-5.68A4.07,4.07,0,0,1,161.52,57.66Z"/><path class="cls-4" d="M50.31,62.52a10.16,10.16,0,0,1,2.25.26c-6.15-2.36-7.17-6.67-7.33-8.19-.43-4.1,2.2-7.83,6.56-9.28,1.75-.58,6.35-3.09,10.79-5.51,4.77-2.6,10-5.46,14.55-7.55a65.21,65.21,0,0,0-14.06.21c-3.11.52-6.58-.72-9.55-2.32L29.1,63.83A16.62,16.62,0,0,1,31,67.43a21.16,21.16,0,0,0,4.11,6.16A10.46,10.46,0,0,1,36,72.53l7.32-7.16A10,10,0,0,1,50.31,62.52Z"/><path class="cls-6" d="M53,18.47,38.47,8a2.44,2.44,0,0,0-3.41.54L2.36,53.61A2.44,2.44,0,0,0,2.9,57l14.49,10.5A2.44,2.44,0,0,0,20.79,67l32.7-45.1A2.44,2.44,0,0,0,53,18.47Zm-9.68,5a4.07,4.07,0,1,1-.91-5.68A4.07,4.07,0,0,1,43.27,23.51Z"/><path class="cls-7" d="M143.08,88.21c9.9,2.4,11.86,4.34,14.29,14.12,2.42-9.78,4.39-11.73,14.29-14.12-9.9-2.4-11.86-4.34-14.29-14.12C154.95,83.87,153,85.81,143.08,88.21Z"/><path class="cls-8" d="M127.55,107.53c7,1.69,8.37,3.06,10.08,10,1.71-6.91,3.1-8.28,10.09-10-7-1.69-8.37-3.06-10.09-10C135.93,104.47,134.54,105.84,127.55,107.53Z"/><path class="cls-7" d="M53.32,103.38c-9.9,2.4-11.86,4.34-14.29,14.12-2.42-9.78-4.39-11.73-14.29-14.12C34.64,101,36.61,99,39,89.26,41.46,99,43.42,101,53.32,103.38Z"/><path class="cls-8" d="M28.57,90.42c-7,1.69-8.37,3.06-10.08,10-1.71-6.91-3.1-8.28-10.08-10,7-1.69,8.37-3.06,10.08-10C20.2,87.35,21.58,88.72,28.57,90.42Z"/><g class="cls-9"><polygon class="cls-1" points="-92.19 -132 30.3 948 36.71 948 -6.24 -132 -92.19 -132"/><polygon class="cls-1" points="493.93 -132 72.95 948 82.93 948 580 -36.16 580 -132 493.93 -132"/><polygon class="cls-1" points="-500 -132 -500 948 -210.62 948 -500 850.27 -500 713.42 -103.55 948 -60.22 948 -500 576.66 -500 406.18 -33.2 948 -16.25 948 -500 220.46 -500 -36.16 -2.93 948 7.05 948 -413.93 -132 -500 -132"/><polygon class="cls-1" points="-290.39 -132 15.87 948 23.24 948 -191.36 -132 -290.39 -132"/><polygon class="cls-1" points="271.36 -132 56.76 948 64.14 948 370.39 -132 271.36 -132"/><polygon class="cls-1" points="86.24 -132 43.29 948 49.7 948 172.19 -132 86.24 -132"/><polygon class="cls-10" points="-6.24 -132 36.71 948 43.29 948 86.24 -132 -6.24 -132"/><polygon class="cls-10" points="-191.36 -132 23.24 948 30.3 948 -92.19 -132 -191.36 -132"/><polygon class="cls-10" points="-413.93 -132 7.05 948 15.87 948 -290.39 -132 -413.93 -132"/><polygon class="cls-10" points="96.25 948 580 220.46 580 -36.16 82.93 948 96.25 948"/><polygon class="cls-10" points="370.39 -132 64.14 948 72.95 948 493.93 -132 370.39 -132"/><polygon class="cls-10" points="172.19 -132 49.7 948 56.76 948 271.36 -132 172.19 -132"/></g></svg>