<svg id="レイヤー_1" data-name="レイヤー 1" xmlns="http://www.w3.org/2000/svg" viewBox="0 0 275 50"><defs><style>.cls-1{fill:#c73338;}.cls-2{fill:#f45934;}.cls-3{fill:#ffdb37;}.cls-4{fill:#333;}.cls-5{fill:#fff;}.cls-6{fill:#ffeb37;}</style></defs><title>btn_newregist</title><rect class="cls-1" x="20.75" y="5" width="254" height="45" rx="8" ry="8"/><rect class="cls-2" x="20.75" width="254" height="45" rx="8" ry="8"/><circle class="cls-2" cx="26" cy="25" r="25"/><circle class="cls-3" cx="26" cy="25" r="21.25"/><path class="cls-4" d="M17.51,12.41q1,0,1,.94v2.56a.87.87,0,0,1-1,1h-2.3v4.38q-.05.78-1,.82t-1-.82V13.45a1.24,1.24,0,0,1,.14-.63.91.91,0,0,1-.4-.23.9.9,0,0,1-.29-.78.83.83,0,0,1,.07-.26,8.26,8.26,0,0,0,.88-1.8.59.59,0,0,1,.6-.49,1.43,1.43,0,0,1,.83.21.78.78,0,0,1,.36.66h2.68a.72.72,0,0,1,.56.16.75.75,0,0,1,.16.56,1,1,0,0,1-.14.56.72.72,0,0,1-.59.21h-.72a.94.94,0,0,1,.19.49.5.5,0,0,1-.1.31ZM15,11.61a2.74,2.74,0,0,1-.42.75.12.12,0,0,1,0,.05H16l0-.05-.52-.75Zm.3,2.5h1.31v-.49H15.28Zm0,1.6h1.31v-.55H15.28Zm8.26-3.29q1.31,0,1.31,1v7.1Q24.85,22,23.2,22a2.71,2.71,0,0,1-1.29-.26,1,1,0,0,1-.49-.45.88.88,0,0,1-.72.27h-3.5a.83.83,0,0,1-.94-.94V18.06a.83.83,0,0,1,.94-.94h3.5a.82.82,0,0,1,.92.94v1.86a1,1,0,0,1,.34-.11.23.23,0,0,1,.11,0,2.73,2.73,0,0,0,.49.11c.18,0,.27-.07.27-.21V16.91H20.2q-.87,0-.87-.77V13.41a1,1,0,0,1,.16-.63.78.78,0,0,1-.49-.23.87.87,0,0,1-.27-.74.83.83,0,0,1,.07-.26,7,7,0,0,0,.9-1.8.6.6,0,0,1,.6-.49,1.57,1.57,0,0,1,.86.21.79.79,0,0,1,.34.66h3a.72.72,0,0,1,.56.16.75.75,0,0,1,.16.56,1,1,0,0,1-.14.56.72.72,0,0,1-.59.21H23.39a.77.77,0,0,1,.1.33.49.49,0,0,1-.26.48ZM18,18.81h1.86V18.5c0-.19-.09-.29-.26-.29H18.29a.25.25,0,0,0-.29.29Zm1.6,1.65c.17,0,.26-.09.26-.27v-.33H18v.33c0,.18.1.27.29.27ZM21,11.61a3.16,3.16,0,0,1-.45.75.13.13,0,0,0,0,.05H22a.71.71,0,0,1-.1-.16,6.37,6.37,0,0,0-.51-.64Zm.31,2.5h1.53v-.49H21.29Zm1.53,1.6v-.55H21.29v.55Z"/><path class="cls-4" d="M28.94,9.57a1,1,0,0,1,.89.38,3.31,3.31,0,0,1,.72.81,1.26,1.26,0,0,1,.25.63.84.84,0,0,1-.1.42h1.7a.43.43,0,0,1-.05-.16q-.3-.46-.86-1.19a.24.24,0,0,1,0-.11,1.15,1.15,0,0,1,.11-.42,1.19,1.19,0,0,1,.53-.46,1.3,1.3,0,0,1,.51-.11,1.11,1.11,0,0,1,.94.4,2.9,2.9,0,0,1,.56.78,1.57,1.57,0,0,1,.19.63.77.77,0,0,1-.25.64h.81a1,1,0,0,1,0-.16.67.67,0,0,1,.16-.33,3,3,0,0,0,.34-.34l.72-.78q.33-.41.48-.56a1,1,0,0,1,.6-.23,1.13,1.13,0,0,1,.71.27.79.79,0,0,1,.44.67,1,1,0,0,1-.12.49,2.88,2.88,0,0,1-.49.68,2.27,2.27,0,0,1-.26.31A1,1,0,0,1,38.25,13v3.5a1,1,0,0,1-1.15,1.15H34v.83h4.47a1,1,0,0,1,.64.16.74.74,0,0,1,.19.6.86.86,0,0,1-.15.56.87.87,0,0,1-.68.25H34v1.05a1,1,0,0,1-.27.78,1,1,0,0,1-.77.26,1.06,1.06,0,0,1-.78-.26,1,1,0,0,1-.27-.78V20H27.53a1,1,0,0,1-.63-.18.8.8,0,0,1-.21-.63.71.71,0,0,1,.21-.6,1,1,0,0,1,.63-.16h4.36v-.83h-3a1,1,0,0,1-1.15-1.15V13a1,1,0,0,1,1.11-1.15q-.37-.44-1-1.15a.18.18,0,0,1,0-.11,1.35,1.35,0,0,1,.08-.41,1.1,1.1,0,0,1,.53-.45A1.07,1.07,0,0,1,28.94,9.57Zm.82,4.48h2.13v-.81H30c-.19,0-.29.09-.29.26Zm2.13,2.15v-.83H29.76v.55a.25.25,0,0,0,.29.29Zm2.09-3v.81h2.3v-.55c0-.17-.09-.26-.27-.26Zm2,3c.18,0,.27-.1.27-.29v-.55H34v.83Z"/><path class="cls-4" d="M22.17,38.81A1.65,1.65,0,0,1,21.72,40a1.4,1.4,0,0,1-1.09.45q-1.54,0-1.54-1.62V28.35a3.08,3.08,0,0,1-1.74.7,1.31,1.31,0,0,1-1-.39,1.38,1.38,0,0,1-.39-1,1.67,1.67,0,0,1,.86-1.56l2.4-1.37a2.92,2.92,0,0,1,1.42-.37q1.5,0,1.5,1.76Z"/><path class="cls-4" d="M33.76,32.55a.63.63,0,0,1-.1-.12,16.76,16.76,0,0,1-1.57-2.61,2.92,2.92,0,0,1-.31-1,1.1,1.1,0,0,1,.3-.83,1.19,1.19,0,0,1,.67-.26,1,1,0,0,1,.78.31A14.91,14.91,0,0,0,35,30.69,9.64,9.64,0,0,0,37,32.61a.82.82,0,0,1,.42.78,1.29,1.29,0,0,1-.27.81.8.8,0,0,1-.75.4,1.53,1.53,0,0,1-.78-.3h0q0,2.19-.05,3.38a3,3,0,0,1-1,2.23,2.25,2.25,0,0,1-1.34.48,5.85,5.85,0,0,1-2-.33,1.13,1.13,0,0,1-.49-1,1.39,1.39,0,0,1,.26-.75.58.58,0,0,1,.45-.22h.22q.36.08.82.15.9,0,1-.68a22.73,22.73,0,0,0,.14-2.93c0-.19-.06-.29-.18-.29H30.29a9.11,9.11,0,0,1-.87,3.09,7.18,7.18,0,0,1-2.75,2.9,1.35,1.35,0,0,1-.86.26,1,1,0,0,1-.86-.31.92.92,0,0,1,0-1.44,7.65,7.65,0,0,0,2.61-2.31,5.12,5.12,0,0,0,.67-2.19h-1a.71.71,0,0,1-.7-.51h0a1,1,0,0,1-.89.49,1.14,1.14,0,0,1-.9-.34,1,1,0,0,1-.34-.81.74.74,0,0,1,.25-.49,11.42,11.42,0,0,0,1.79-2,10,10,0,0,0,1.18-2.34.71.71,0,0,1,.67-.55,2,2,0,0,1,.83.16.77.77,0,0,1,.42.72,1.82,1.82,0,0,1-.14.64A9.38,9.38,0,0,1,28.2,31.8q-.27.41-.53.75Z"/><path class="cls-1" d="M62.16,28.28a1.61,1.61,0,0,1,1,.39,1.13,1.13,0,0,1,.63,1,1.89,1.89,0,0,1-.12.7,3.87,3.87,0,0,1-.43,1,4.55,4.55,0,0,1-1,1.45,1.24,1.24,0,0,1-.86.37,2,2,0,0,1-1.33-.53,1.41,1.41,0,0,1-.53-1.11,1.18,1.18,0,0,1,.29-.61l.33-.49.64-1q.31-.55.45-.74A1.38,1.38,0,0,1,62.16,28.28Zm-.23-8.18h-.08a1.89,1.89,0,0,1-1.37-.61A1.81,1.81,0,0,1,60,18.28a1.27,1.27,0,0,1,.41-.68,9.46,9.46,0,0,0,.82-.64,21.28,21.28,0,0,0,2.3-2.27,1.07,1.07,0,0,1,.61-.29,2,2,0,0,1,1.11.43,1.33,1.33,0,0,1,.63,1.05l0,.23H76.22a1.25,1.25,0,0,1,.92.25,1.53,1.53,0,0,1,.23,1,1.69,1.69,0,0,1-.2.92,1.14,1.14,0,0,1-1,.35h-.41v2.17h.86a1.13,1.13,0,0,1,.86.27q.33.22.33,1a1.51,1.51,0,0,1-.18.86,1.26,1.26,0,0,1-1,.37h-.86v2.21h.57a1.23,1.23,0,0,1,.86.25,1.26,1.26,0,0,1,.29,1,1.57,1.57,0,0,1-.18.86,1.14,1.14,0,0,1-1,.39H61.22A1.12,1.12,0,0,1,60,26.74a1.23,1.23,0,0,1,.35-1,1.18,1.18,0,0,1,.84-.23h.7V23.28h-1a1.23,1.23,0,0,1-.84-.27,1.11,1.11,0,0,1-.35-1,1.23,1.23,0,0,1,.35-1,1.12,1.12,0,0,1,.84-.25h1Zm3.89.68V18.62H64.27v2.17Zm0,4.71V23.28H64.27v2.21Zm.63,3.13a1.77,1.77,0,0,1,1.43.53,5.46,5.46,0,0,1,.49,1.23,3.09,3.09,0,0,1,.21,1,1.1,1.1,0,0,1-.41,1,1.71,1.71,0,0,1-1.31.53,1.94,1.94,0,0,1-1.09-.25.82.82,0,0,1-.31-.53q-.23-.7-.7-1.8l0-.16a1.76,1.76,0,0,1,.14-.62,1.7,1.7,0,0,1,.82-.7A2.15,2.15,0,0,1,66.43,28.62Zm3.22-7.83V18.62h-1.5v2.17Zm0,4.71V23.28h-1.5v2.21Zm1.15,3.13a1.51,1.51,0,0,1,1.27.53,5.22,5.22,0,0,1,.74,1.23,2.53,2.53,0,0,1,.27,1,1.12,1.12,0,0,1-.39,1,1.66,1.66,0,0,1-1.27.53,1.77,1.77,0,0,1-1-.23.75.75,0,0,1-.29-.47q-.31-.76-.84-1.93l0-.2a1.93,1.93,0,0,1,.12-.59,1.47,1.47,0,0,1,.74-.64A1.68,1.68,0,0,1,70.81,28.62Zm2.68-7.83V18.62H72v2.17Zm0,4.71V23.28H72v2.21Zm1.64,3a1.43,1.43,0,0,1,1.17.45,5.42,5.42,0,0,1,1.13,1.41,2.38,2.38,0,0,1,.43,1.11,1.1,1.1,0,0,1-.37.92,1.84,1.84,0,0,1-2.15.25,1,1,0,0,1-.31-.47A22.37,22.37,0,0,0,73.68,30l0-.2a2,2,0,0,1,.1-.55,1.41,1.41,0,0,1,.72-.61A1.55,1.55,0,0,1,75.13,28.46Z"/><path class="cls-1" d="M88.83,15.47a1.47,1.47,0,0,1,1,.31A.51.51,0,0,1,90,16l0-.06a1,1,0,0,1,.88-.41,1.67,1.67,0,0,1,.74.2,13.11,13.11,0,0,1,2.54,1.93V16.19a1.32,1.32,0,0,1,.39-1,1.2,1.2,0,0,1,1-.39,1.4,1.4,0,0,1,1,.39,1.32,1.32,0,0,1,.39,1v8.38l.16,0a1.83,1.83,0,0,1,1.23.37A1.55,1.55,0,0,1,98.85,26a1.52,1.52,0,0,1-.27,1,1.42,1.42,0,0,1-1,.43l-.55.12v3.81a1.42,1.42,0,0,1-.27.9,1.3,1.3,0,0,1-1.15.51,1.24,1.24,0,0,1-1.07-.49,1.38,1.38,0,0,1-.31-.92V28l-3.12.57a2,2,0,0,1-.92-.21.62.62,0,0,1-.29.33,1.43,1.43,0,0,1-1.29.51,1.05,1.05,0,0,1-1-.7q-.22-.45-.49-.92v3.81a1.43,1.43,0,0,1-.25.86,1.35,1.35,0,0,1-1.15.47,1.19,1.19,0,0,1-1-.47,1.25,1.25,0,0,1-.29-.86V27.07Q83.8,28,83,29a4.74,4.74,0,0,1-1,.9.86.86,0,0,1-.61.23,1.25,1.25,0,0,1-1.07-.74,1.33,1.33,0,0,1-.31-1,.93.93,0,0,1,.68-1,11.21,11.21,0,0,0,1.93-2.07q.74-1,1.11-1.58h-1.7a1.19,1.19,0,0,1-1.27-1.35,1.17,1.17,0,0,1,.37-1,1.33,1.33,0,0,1,.9-.23H84.4V16.12a1.24,1.24,0,0,1,.37-1,1.16,1.16,0,0,1,.94-.37,1.44,1.44,0,0,1,1,.37,1.24,1.24,0,0,1,.37,1v2.77l0-.1a14.62,14.62,0,0,0,.9-2.6Q88.33,15.47,88.83,15.47Zm-6.72.08a1.35,1.35,0,0,1,1.17.49,7.63,7.63,0,0,1,.64,1.78,5.81,5.81,0,0,1,.23,1.43.85.85,0,0,1-.29.7,1.12,1.12,0,0,1-.9.39,1.39,1.39,0,0,1-.78-.18.53.53,0,0,1-.21-.39q-.43-1.05-1.23-2.7a.79.79,0,0,1,0-.25,1.44,1.44,0,0,1,.12-.53,1.35,1.35,0,0,1,.66-.59A1.48,1.48,0,0,1,82.12,15.55Zm5,9a4.66,4.66,0,0,1,.64,0,1.19,1.19,0,0,1,.86.37,7.22,7.22,0,0,1,1.11,1.45A1.17,1.17,0,0,1,90,26a1.43,1.43,0,0,1,1-.37l3.28-.55V20.14a1.35,1.35,0,0,1-.62.2,1,1,0,0,1-.59-.18,1.21,1.21,0,0,1-.45-.35,28.31,28.31,0,0,0-2.27-1.91.56.56,0,0,1-.21-.21l-.12-.1a11.1,11.1,0,0,1-.92,2.34.87.87,0,0,1-.86.49,1.24,1.24,0,0,1-.78-.29,1,1,0,0,1-.31-.35v1.43H88.8a1.17,1.17,0,0,1,.37-.7A1,1,0,0,1,90,20.1a1.28,1.28,0,0,1,.64.2,11.69,11.69,0,0,1,2.46,2.05,1.11,1.11,0,0,1,.49.86,1.55,1.55,0,0,1-.25.9,1.19,1.19,0,0,1-1,.61.78.78,0,0,1-.51-.18,1.2,1.2,0,0,1-.43-.31q-.72-.7-1.58-1.41a1,1,0,0,1-1.21,1h-1.5Z"/><path class="cls-1" d="M109.86,14.61a4.5,4.5,0,0,1,2.56,1,55.88,55.88,0,0,0,6.09,3.54A1,1,0,0,1,119,20a1.75,1.75,0,0,1-.39,1.19,1.25,1.25,0,0,1-1,.45,3.83,3.83,0,0,1-1.43-.35v0a1.39,1.39,0,0,1-.21.86,1.23,1.23,0,0,1-1,.41h-9.86a1.33,1.33,0,0,1-.94-.29,1.31,1.31,0,0,1-.29-1v-.12l-.35.2a2.84,2.84,0,0,1-1.13.33,1.69,1.69,0,0,1-1.27-.59,2.24,2.24,0,0,1-.31-1.23.87.87,0,0,1,.57-.68q3.67-2,6.52-4A3.41,3.41,0,0,1,109.86,14.61Zm-7.36,9.45h14.86a1.49,1.49,0,0,1,1,.29,1.28,1.28,0,0,1,.27,1,1.43,1.43,0,0,1-.23.9,1.34,1.34,0,0,1-1.07.41h-1.74a16.54,16.54,0,0,1,2.77,3.44,1.8,1.8,0,0,1,.37,1q0,.8-.37,1a1.36,1.36,0,0,1-1.19.45,1.1,1.1,0,0,1-1-.63q-.31-.49-.68-1-3.48.39-6.66.61-4,.31-5.61.31t-1.5-1.64q0-1,1.43-1.19l1.5,0,1.27-2.38H102.5a1.47,1.47,0,0,1-1-.29,1.26,1.26,0,0,1-.33-1,1.17,1.17,0,0,1,.33-1A1.42,1.42,0,0,1,102.5,24.07Zm3.16-4h8.26a43.76,43.76,0,0,1-3.69-2.52q-.25-.23-.37-.23a1.22,1.22,0,0,0-.61.21Q107.24,19,105.66,20.1Zm7.95,8.61q-.29-.37-.62-.72a1,1,0,0,1-.41-.78,1.56,1.56,0,0,1,.1-.57H109l-1.25,2.29Q110.82,28.83,113.61,28.71Z"/><path class="cls-1" d="M124,20.18h12.42a1.6,1.6,0,0,1,1.82,1.8v5.78a1.6,1.6,0,0,1-1.82,1.8H134a23.43,23.43,0,0,0,3.52.74l.82.12q.86.1.86.78a1.91,1.91,0,0,1-.18.86,1.82,1.82,0,0,1-.57.61,2.2,2.2,0,0,1-1.23.25,10,10,0,0,1-1.89-.27,29.66,29.66,0,0,1-3.52-1.13,1.49,1.49,0,0,1-.59-.43.89.89,0,0,1-.16-.51,1.88,1.88,0,0,1,.53-1l0,0h-3l0,0a1,1,0,0,1,.49.82.89.89,0,0,1-.25.63,20,20,0,0,1-4.57,1.76,4.52,4.52,0,0,1-1.45.2,1.69,1.69,0,0,1-1.27-.59,1.62,1.62,0,0,1-.45-1.13,1.26,1.26,0,0,1,.41-.7q.78-.14,1.39-.27,1.84-.41,3.16-.74H124a1.59,1.59,0,0,1-1.8-1.8V22A1.59,1.59,0,0,1,124,20.18Zm.7-5.18h11.19a1.31,1.31,0,0,1,1.48,1.48v1.64a1.32,1.32,0,0,1-1.48,1.5H124.67a1.31,1.31,0,0,1-1.46-1.5V16.49A1.3,1.3,0,0,1,124.67,15Zm.33,7.91h10.31V22.5q0-.37-.39-.37h-9.55a.33.33,0,0,0-.37.37Zm0,2.27h10.31v-.7H125Zm9.92,2.42a.35.35,0,0,0,.39-.39v-.47H125v.47q0,.39.37.39Zm-.55-9.92c.14,0,.21-.08.21-.25v-.23a.19.19,0,0,0-.21-.21h-8.22a.19.19,0,0,0-.21.21v.23c0,.17.07.25.21.25Z"/><path class="cls-1" d="M143,15.26h5.49a2.17,2.17,0,0,1,1.43.35l.1.1.12-.14a1.51,1.51,0,0,1,.86-.31,1.16,1.16,0,0,1,.86.37,9.7,9.7,0,0,0,.76,1l0,0,.88-.9q.39-.45.59-.64a1.11,1.11,0,0,1,.7-.31,1.56,1.56,0,0,1,.94.35,1,1,0,0,1,.53.84,1,1,0,0,1-.16.57,2.83,2.83,0,0,1-.64.8,4.51,4.51,0,0,1-1.25,1.07,6.11,6.11,0,0,0,.64.57,1.72,1.72,0,0,0,.25.18,4.21,4.21,0,0,0,.31-.35l1.05-1.15.64-.82a1.21,1.21,0,0,1,.72-.33,1.43,1.43,0,0,1,.88.33.9.9,0,0,1,.53.76,1.18,1.18,0,0,1-.2.7,3.71,3.71,0,0,1-.74,1,6.47,6.47,0,0,1-1.27,1.21q.8.43,1.66.86a.92.92,0,0,1,.55.92,1.38,1.38,0,0,1-.35,1,1,1,0,0,1-.92.47,4.45,4.45,0,0,1-1.72-.51A12.43,12.43,0,0,1,154.44,22a.66.66,0,0,1-.12.25,1.1,1.1,0,0,1-.9.35h-6.09a1.11,1.11,0,0,1-.82-.27.78.78,0,0,1-.27-.55q-.66.45-1.31.84a8.32,8.32,0,0,1-2.29,1,1.42,1.42,0,0,1-1.05-.39,1.22,1.22,0,0,1-.37-.8,1.45,1.45,0,0,1,.49-1q1.17-.53,2.17-1.07-.68-.43-1.29-.74l-.18-.12a.82.82,0,0,1-.18-.57,1.14,1.14,0,0,1,.41-.76,1.25,1.25,0,0,1,.78-.31,1,1,0,0,1,.47.1A15.93,15.93,0,0,1,145.94,19l.61-.45q.94-.68.94-1c0-.12-.05-.18-.16-.18H143a1,1,0,0,1-1-1.09A1,1,0,0,1,143,15.26Zm1.72,8.12h10.86a1.3,1.3,0,0,1,1.48,1.46v1.89a1.29,1.29,0,0,1-1.46,1.46l-.47,1.89h2.34a1.2,1.2,0,0,1,.8.23q.29.2.29.94a1.32,1.32,0,0,1-.18.8,1.13,1.13,0,0,1-.92.35H143a1.15,1.15,0,0,1-.78-.25,1.07,1.07,0,0,1-.31-.9,1.19,1.19,0,0,1,.31-1,1.15,1.15,0,0,1,.78-.21h2.6L145,28.21h-.27a1.29,1.29,0,0,1-1.46-1.46V24.85A1.29,1.29,0,0,1,144.73,23.38Zm9.06,3q.33,0,.33-.29v-.62q0-.31-.33-.31h-7.25q-.33,0-.33.31v.63q0,.29.33.29Zm-5.35,3.69h3.65l.49-1.89h-4.77ZM148,20.41h4.61a21.16,21.16,0,0,1-2.25-2.64l0-.06a5.16,5.16,0,0,1-1,1.37Q148.66,19.79,148,20.41Z"/><path class="cls-1" d="M170.58,15.41h5.7a2.05,2.05,0,0,1,1.43.39,2.2,2.2,0,0,1,.37,1.39v4.3h.29a1.35,1.35,0,0,1,.94.27,1,1,0,0,1,.25.84,1.27,1.27,0,0,1-.21.8,1.21,1.21,0,0,1-1,.37h-2.73v2.5l.08-.08a2.9,2.9,0,0,0,.53-.37,11.36,11.36,0,0,0,1.45-1.19.66.66,0,0,1,.39-.16,1.61,1.61,0,0,1,.94.37,1.09,1.09,0,0,1,.55.86,1.26,1.26,0,0,1-.23.78,7.06,7.06,0,0,1-1.78,1.31,9.91,9.91,0,0,1,1.93,1.91,1,1,0,0,1,.23.7,1.28,1.28,0,0,1-.33.8,1.17,1.17,0,0,1-.92.43.72.72,0,0,1-.59-.21q-1.21-1.07-2.25-2v1.64q-.12,1.84-2.64,2a6.94,6.94,0,0,1-.72,0,2.79,2.79,0,0,1-.66-.25,1.44,1.44,0,0,1-.43-.49,3.94,3.94,0,0,1-.06-.64,2.09,2.09,0,0,1,.23-1.07q.25-.31,1.15-.31a.29.29,0,0,0,.33-.33V27.19a1.06,1.06,0,0,1-.53.37.83.83,0,0,1,.2.51,1,1,0,0,1-.16.55q-.08.16-.29.51a14.53,14.53,0,0,1-1.8,2,.89.89,0,0,1-.7.31,1.13,1.13,0,0,1-.49-.2l-.06.06a1.18,1.18,0,0,1-.8.35,24.54,24.54,0,0,1-5.45.86,1.17,1.17,0,0,1-.92-.31,1.4,1.4,0,0,1-.27-.92,1.19,1.19,0,0,1,.33-.94,1.11,1.11,0,0,1,.78-.23l1.64-.21V29.2l-.06.06a1.38,1.38,0,0,1-1,.37,1.65,1.65,0,0,1-.84-.18.57.57,0,0,1-.25-.39q-.16-.64-.43-1.7l0-.16a1.26,1.26,0,0,1,.12-.49,1.19,1.19,0,0,1,.63-.55,1.47,1.47,0,0,1,.59-.14,1.27,1.27,0,0,1,1.09.45,4,4,0,0,1,.18.55V25.55h-1.64a1.11,1.11,0,0,1-.78-.25,1,1,0,0,1-.33-.9,1.15,1.15,0,0,1,.33-1,1,1,0,0,1,.78-.23h1.64V22.05h-1.11a1,1,0,0,1-1.07-1.17,2.4,2.4,0,0,1,0-.47,1.11,1.11,0,0,1-.41-.31,1.55,1.55,0,0,1-.43-1,1,1,0,0,1,.57-.78Q163,17,164.29,15.61a1.76,1.76,0,0,1,1.27-.68,2.49,2.49,0,0,1,1.46.59,7.55,7.55,0,0,1,1.86,1.72,2.68,2.68,0,0,1,.76,1.68,1.24,1.24,0,0,1-.35.92,1.14,1.14,0,0,1-.49.35,1.63,1.63,0,0,1,.12.7,1.4,1.4,0,0,1-.16.78,1,1,0,0,1-.92.39h-.94v1.15h1.31a1.13,1.13,0,0,1,.82.25q.29.2.29.94a1.27,1.27,0,0,1-.2.8,1.06,1.06,0,0,1-.92.35H166.9V26.6l.08-.25a.85.85,0,0,1,.7-.39,1.71,1.71,0,0,1,.92.25,1,1,0,0,1,.55.92,1.72,1.72,0,0,1-.08.45,13.32,13.32,0,0,1-.53,1.33,1,1,0,0,1-.62.23,1.42,1.42,0,0,1-1-.41v.8l1.39-.21a1,1,0,0,1,.51.12,13.08,13.08,0,0,1,.88-1,9.57,9.57,0,0,1,1-1.21.69.69,0,0,1,.37-.2q-.84-.66-1.54-1.17l-.14-.14a.57.57,0,0,1-.18-.45,1,1,0,0,1,.39-.72,1.12,1.12,0,0,1,.72-.29.73.73,0,0,1,.39.1,9.47,9.47,0,0,1,2.11,1.45v-2h-2.66a1.25,1.25,0,0,1-.88-.27,1.1,1.1,0,0,1-.31-.9,1,1,0,0,1,.31-.86,1.22,1.22,0,0,1,.88-.25h5.16V20.41h-4.63a.92.92,0,0,1-.64-.21,1,1,0,0,1-.21-.72.9.9,0,0,1,.27-.72,1.09,1.09,0,0,1,.59-.14h4.63V18q0-.37-.41-.37h-4.36a1.08,1.08,0,0,1-.84-.25,1.11,1.11,0,0,1-.25-.86,1.23,1.23,0,0,1,.23-.82A1.15,1.15,0,0,1,170.58,15.41ZM164,19.77h3.32a9.54,9.54,0,0,1-1.21-1.64.71.71,0,0,0-.57-.37q-.19,0-.37.35Q164.52,19.07,164,19.77Z"/><path class="cls-1" d="M185.85,19q-.23,1.74-.42,3.5-.28,2.78-.28,4.43t.11,3.66a1.21,1.21,0,0,1-.39,1,1.29,1.29,0,0,1-.95.39,1.2,1.2,0,0,1-.86-.32,1.17,1.17,0,0,1-.42-.91q-.11-2.09-.11-3.81t.72-8.23a1.16,1.16,0,0,1,1.28-1.18,1.34,1.34,0,0,1,1,.4A1.23,1.23,0,0,1,185.85,19Zm12,10.16a1.47,1.47,0,0,1-.4.95,1.08,1.08,0,0,1-.83.47,1.07,1.07,0,0,1-.58-.26l-1.23-.86a4.25,4.25,0,0,1-4,2.32,5,5,0,0,1-2.87-.77,2.52,2.52,0,0,1-1.18-2.14,2.62,2.62,0,0,1,1.3-2.34,4.63,4.63,0,0,1,2.67-.76,3.83,3.83,0,0,1,1.55.3q0-.93-.07-3.06-3.74,0-3.9,0a1.11,1.11,0,0,1-.91-.39,1.24,1.24,0,0,1-.37-.86,1.15,1.15,0,0,1,.35-.91,1.1,1.1,0,0,1,1-.3q1.41.11,3.8,0V19.17q0-1.63,1.41-1.63a1.39,1.39,0,0,1,1,.32,1.41,1.41,0,0,1,.3,1q0,.32,0,1.44.53-.11,1.51-.21,1.39-.11,1.39,1a1.53,1.53,0,0,1-.35,1.14,1.78,1.78,0,0,1-1.16.39l-1.42.16q0,2.5.12,4a10.73,10.73,0,0,1,1.9.95A1.85,1.85,0,0,1,197.9,29.13Zm-5.62-.74a2.23,2.23,0,0,0-1.6-.74q-1.46,0-1.46,1.11,0,.42.56.7a1.94,1.94,0,0,0,1,.26,1.53,1.53,0,0,0,1-.42A1.22,1.22,0,0,0,192.27,28.39Z"/><path class="cls-1" d="M216.84,28.71a2.35,2.35,0,0,1-.72,1.76,2.49,2.49,0,0,1-1.78.68H203.6a1.33,1.33,0,0,1-1.35-1.31q0-1.43,1.35-1.43h9.28a1.35,1.35,0,0,0,.84-.18,1.12,1.12,0,0,0,.2-.8V20.92a1.94,1.94,0,0,0-.1-.78q-.18-.25-.76-.25H203.7a1.12,1.12,0,0,1-.94-.43,1.42,1.42,0,0,1-.33-1,1.33,1.33,0,0,1,.35-.92,1.12,1.12,0,0,1,.92-.41h10.63a2.22,2.22,0,0,1,2.52,2.5Z"/><path class="cls-1" d="M236.83,23.25a1.48,1.48,0,0,1-.35,1,1.38,1.38,0,0,1-1.05.39h-5.35a7.38,7.38,0,0,1-2.5,5.12A13,13,0,0,1,223.63,32a1.57,1.57,0,0,1-.59.12,1.29,1.29,0,0,1-1-.43,1.62,1.62,0,0,1-.43-1,1.29,1.29,0,0,1,.94-1.35,11.18,11.18,0,0,0,2.93-1.56,4.72,4.72,0,0,0,1.68-3.12h-6.33a1.44,1.44,0,0,1-1.09-.43,1.47,1.47,0,0,1,.06-1.93,1.32,1.32,0,0,1,1-.39h6.35q0-1.35,0-2.87-2.23.22-4.65.29a1.35,1.35,0,0,1-1.13-.41A1.3,1.3,0,0,1,221,18a1.34,1.34,0,0,1,.37-1,1.37,1.37,0,0,1,1-.47,52.66,52.66,0,0,0,10.55-1.19,1.93,1.93,0,0,1,.47-.06,1.28,1.28,0,0,1,1,.45,1.37,1.37,0,0,1,.33,1.05A1.23,1.23,0,0,1,233.68,18a22.44,22.44,0,0,1-3.61.68l0,3.2h5.33a1.41,1.41,0,0,1,1.09.45A1.07,1.07,0,0,1,236.83,23.25Z"/><path class="cls-1" d="M254.81,23.64q0,3-3.12,5.43a14.63,14.63,0,0,1-6.5,2.93,1.81,1.81,0,0,1-.39,0,1.21,1.21,0,0,1-1-.55,1.35,1.35,0,0,1-.27-1.09,1.29,1.29,0,0,1,1.15-1.27,11.73,11.73,0,0,0,4.51-1.8,6.55,6.55,0,0,0,2.5-2.62.49.49,0,0,0,.06-.25q0-.6-.7-.61H240.26a1.41,1.41,0,0,1-1.07-.41,1.5,1.5,0,0,1-.37-1,1.3,1.3,0,0,1,.35-1,1.58,1.58,0,0,1,1.09-.35h11.45Q254.81,21.1,254.81,23.64Zm-.49-5.86a1.34,1.34,0,0,1-.39,1,1.38,1.38,0,0,1-1.05.39H241.32a1.44,1.44,0,0,1-1.09-.43,1.25,1.25,0,0,1-.35-.94,1.3,1.3,0,0,1,.39-1,1.35,1.35,0,0,1,1.05-.41h11.56a1.41,1.41,0,0,1,1.09.45A1.21,1.21,0,0,1,254.32,17.78Z"/><path class="cls-1" d="M263,29.79a1.83,1.83,0,0,1-.7,1.46,2.38,2.38,0,0,1-1.6.59,2.33,2.33,0,0,1-1.56-.59,1.81,1.81,0,0,1-.68-1.46,1.79,1.79,0,0,1,.68-1.45,2.38,2.38,0,0,1,1.56-.57,2.43,2.43,0,0,1,1.6.57A1.78,1.78,0,0,1,263,29.79ZM262.61,18l-.62,7.7q-.14,1.05-1.41,1.05a1.1,1.1,0,0,1-1.23-1.05L258.76,18q-.14-2.23,1.93-2.23a1.87,1.87,0,0,1,1.46.59A2.19,2.19,0,0,1,262.61,18Z"/><path class="cls-5" d="M60.16,26.28a1.61,1.61,0,0,1,1,.39,1.13,1.13,0,0,1,.63,1,1.89,1.89,0,0,1-.12.7,3.87,3.87,0,0,1-.43,1,4.55,4.55,0,0,1-1,1.45,1.24,1.24,0,0,1-.86.37,2,2,0,0,1-1.33-.53,1.41,1.41,0,0,1-.53-1.11,1.18,1.18,0,0,1,.29-.61l.33-.49.64-1q.31-.55.45-.74A1.38,1.38,0,0,1,60.16,26.28Zm-.23-8.18h-.08a1.89,1.89,0,0,1-1.37-.61A1.81,1.81,0,0,1,58,16.28a1.27,1.27,0,0,1,.41-.68,9.46,9.46,0,0,0,.82-.64,21.28,21.28,0,0,0,2.3-2.27,1.07,1.07,0,0,1,.61-.29,2,2,0,0,1,1.11.43,1.33,1.33,0,0,1,.63,1.05l0,.23H74.22a1.25,1.25,0,0,1,.92.25,1.53,1.53,0,0,1,.23,1,1.69,1.69,0,0,1-.2.92,1.14,1.14,0,0,1-1,.35h-.41v2.17h.86a1.13,1.13,0,0,1,.86.27q.33.22.33,1a1.51,1.51,0,0,1-.18.86,1.26,1.26,0,0,1-1,.37h-.86v2.21h.57a1.23,1.23,0,0,1,.86.25,1.26,1.26,0,0,1,.29,1,1.57,1.57,0,0,1-.18.86,1.14,1.14,0,0,1-1,.39H59.22A1.12,1.12,0,0,1,58,24.74a1.23,1.23,0,0,1,.35-1,1.18,1.18,0,0,1,.84-.23h.7V21.28h-1a1.23,1.23,0,0,1-.84-.27,1.11,1.11,0,0,1-.35-1,1.23,1.23,0,0,1,.35-1,1.12,1.12,0,0,1,.84-.25h1Zm3.89.68V16.62H62.27v2.17Zm0,4.71V21.28H62.27v2.21Zm.63,3.13a1.77,1.77,0,0,1,1.43.53,5.46,5.46,0,0,1,.49,1.23,3.09,3.09,0,0,1,.21,1,1.1,1.1,0,0,1-.41,1,1.71,1.71,0,0,1-1.31.53,1.94,1.94,0,0,1-1.09-.25.82.82,0,0,1-.31-.53q-.23-.7-.7-1.8l0-.16a1.76,1.76,0,0,1,.14-.62,1.7,1.7,0,0,1,.82-.7A2.15,2.15,0,0,1,64.43,26.62Zm3.22-7.83V16.62h-1.5v2.17Zm0,4.71V21.28h-1.5v2.21Zm1.15,3.13a1.51,1.51,0,0,1,1.27.53,5.22,5.22,0,0,1,.74,1.23,2.53,2.53,0,0,1,.27,1,1.12,1.12,0,0,1-.39,1,1.66,1.66,0,0,1-1.27.53,1.77,1.77,0,0,1-1-.23.75.75,0,0,1-.29-.47q-.31-.76-.84-1.93l0-.2a1.93,1.93,0,0,1,.12-.59,1.47,1.47,0,0,1,.74-.64A1.68,1.68,0,0,1,68.81,26.62Zm2.68-7.83V16.62H70v2.17Zm0,4.71V21.28H70v2.21Zm1.64,3a1.43,1.43,0,0,1,1.17.45,5.42,5.42,0,0,1,1.13,1.41,2.38,2.38,0,0,1,.43,1.11,1.1,1.1,0,0,1-.37.92,1.84,1.84,0,0,1-2.15.25,1,1,0,0,1-.31-.47A22.37,22.37,0,0,0,71.68,28l0-.2a2,2,0,0,1,.1-.55,1.41,1.41,0,0,1,.72-.61A1.55,1.55,0,0,1,73.13,26.46Z"/><path class="cls-5" d="M86.83,13.47a1.47,1.47,0,0,1,1,.31A.51.51,0,0,1,88,14l0-.06a1,1,0,0,1,.88-.41,1.67,1.67,0,0,1,.74.2,13.11,13.11,0,0,1,2.54,1.93V14.19a1.32,1.32,0,0,1,.39-1,1.2,1.2,0,0,1,1-.39,1.4,1.4,0,0,1,1,.39,1.32,1.32,0,0,1,.39,1v8.38l.16,0a1.83,1.83,0,0,1,1.23.37A1.55,1.55,0,0,1,96.85,24a1.52,1.52,0,0,1-.27,1,1.42,1.42,0,0,1-1,.43l-.55.12v3.81a1.42,1.42,0,0,1-.27.9,1.3,1.3,0,0,1-1.15.51,1.24,1.24,0,0,1-1.07-.49,1.38,1.38,0,0,1-.31-.92V26l-3.12.57a2,2,0,0,1-.92-.21.62.62,0,0,1-.29.33,1.43,1.43,0,0,1-1.29.51,1.05,1.05,0,0,1-1-.7q-.22-.45-.49-.92v3.81a1.43,1.43,0,0,1-.25.86,1.35,1.35,0,0,1-1.15.47,1.19,1.19,0,0,1-1-.47,1.25,1.25,0,0,1-.29-.86V25.07Q81.8,26,81,27a4.74,4.74,0,0,1-1,.9.86.86,0,0,1-.61.23,1.25,1.25,0,0,1-1.07-.74,1.33,1.33,0,0,1-.31-1,.93.93,0,0,1,.68-1,11.21,11.21,0,0,0,1.93-2.07q.74-1,1.11-1.58h-1.7a1.19,1.19,0,0,1-1.27-1.35,1.17,1.17,0,0,1,.37-1,1.33,1.33,0,0,1,.9-.23H82.4V14.12a1.24,1.24,0,0,1,.37-1,1.16,1.16,0,0,1,.94-.37,1.44,1.44,0,0,1,1,.37,1.24,1.24,0,0,1,.37,1v2.77l0-.1a14.62,14.62,0,0,0,.9-2.6Q86.33,13.47,86.83,13.47Zm-6.72.08a1.35,1.35,0,0,1,1.17.49,7.63,7.63,0,0,1,.64,1.78,5.81,5.81,0,0,1,.23,1.43.85.85,0,0,1-.29.7,1.12,1.12,0,0,1-.9.39,1.39,1.39,0,0,1-.78-.18.53.53,0,0,1-.21-.39q-.43-1.05-1.23-2.7a.79.79,0,0,1,0-.25,1.44,1.44,0,0,1,.12-.53,1.35,1.35,0,0,1,.66-.59A1.48,1.48,0,0,1,80.12,13.55Zm5,9a4.66,4.66,0,0,1,.64,0,1.19,1.19,0,0,1,.86.37,7.22,7.22,0,0,1,1.11,1.45A1.17,1.17,0,0,1,88,24a1.43,1.43,0,0,1,1-.37l3.28-.55V18.14a1.35,1.35,0,0,1-.62.2,1,1,0,0,1-.59-.18,1.21,1.21,0,0,1-.45-.35,28.31,28.31,0,0,0-2.27-1.91.56.56,0,0,1-.21-.21l-.12-.1a11.1,11.1,0,0,1-.92,2.34.87.87,0,0,1-.86.49,1.24,1.24,0,0,1-.78-.29,1,1,0,0,1-.31-.35v1.43H86.8a1.17,1.17,0,0,1,.37-.7A1,1,0,0,1,88,18.1a1.28,1.28,0,0,1,.64.2,11.69,11.69,0,0,1,2.46,2.05,1.11,1.11,0,0,1,.49.86,1.55,1.55,0,0,1-.25.9,1.19,1.19,0,0,1-1,.61.78.78,0,0,1-.51-.18,1.2,1.2,0,0,1-.43-.31q-.72-.7-1.58-1.41a1,1,0,0,1-1.21,1h-1.5Z"/><path class="cls-5" d="M107.86,12.61a4.5,4.5,0,0,1,2.56,1,55.88,55.88,0,0,0,6.09,3.54A1,1,0,0,1,117,18a1.75,1.75,0,0,1-.39,1.19,1.25,1.25,0,0,1-1,.45,3.83,3.83,0,0,1-1.43-.35v0a1.39,1.39,0,0,1-.21.86,1.23,1.23,0,0,1-1,.41h-9.86a1.33,1.33,0,0,1-.94-.29,1.31,1.31,0,0,1-.29-1v-.12l-.35.2a2.84,2.84,0,0,1-1.13.33,1.69,1.69,0,0,1-1.27-.59,2.24,2.24,0,0,1-.31-1.23.87.87,0,0,1,.57-.68q3.67-2,6.52-4A3.41,3.41,0,0,1,107.86,12.61Zm-7.36,9.45h14.86a1.49,1.49,0,0,1,1,.29,1.28,1.28,0,0,1,.27,1,1.43,1.43,0,0,1-.23.9,1.34,1.34,0,0,1-1.07.41h-1.74a16.54,16.54,0,0,1,2.77,3.44,1.8,1.8,0,0,1,.37,1q0,.8-.37,1a1.36,1.36,0,0,1-1.19.45,1.1,1.1,0,0,1-1-.62q-.31-.49-.68-1-3.48.39-6.66.61-4,.31-5.61.31t-1.5-1.64q0-1,1.43-1.19l1.5,0,1.27-2.38H100.5a1.47,1.47,0,0,1-1-.29,1.26,1.26,0,0,1-.33-1,1.17,1.17,0,0,1,.33-1A1.42,1.42,0,0,1,100.5,22.07Zm3.16-4h8.26a43.76,43.76,0,0,1-3.69-2.52q-.25-.23-.37-.23a1.22,1.22,0,0,0-.61.21Q105.24,17,103.66,18.1Zm7.95,8.61q-.29-.37-.62-.72a1,1,0,0,1-.41-.78,1.56,1.56,0,0,1,.1-.57H107l-1.25,2.29Q108.82,26.83,111.61,26.71Z"/><path class="cls-5" d="M122,18.18h12.42a1.6,1.6,0,0,1,1.82,1.8v5.78a1.6,1.6,0,0,1-1.82,1.8H132a23.43,23.43,0,0,0,3.52.74l.82.12q.86.1.86.78a1.91,1.91,0,0,1-.18.86,1.82,1.82,0,0,1-.57.61,2.2,2.2,0,0,1-1.23.25,10,10,0,0,1-1.89-.27,29.66,29.66,0,0,1-3.52-1.13,1.49,1.49,0,0,1-.59-.43.89.89,0,0,1-.16-.51,1.88,1.88,0,0,1,.53-1l0,0h-3l0,0a1,1,0,0,1,.49.82.89.89,0,0,1-.25.63,20,20,0,0,1-4.57,1.76,4.52,4.52,0,0,1-1.45.2,1.69,1.69,0,0,1-1.27-.59,1.62,1.62,0,0,1-.45-1.13,1.26,1.26,0,0,1,.41-.7q.78-.14,1.39-.27,1.84-.41,3.16-.74H122a1.59,1.59,0,0,1-1.8-1.8V20A1.59,1.59,0,0,1,122,18.18Zm.7-5.18h11.19a1.31,1.31,0,0,1,1.48,1.48v1.64a1.32,1.32,0,0,1-1.48,1.5H122.67a1.31,1.31,0,0,1-1.46-1.5V14.49A1.3,1.3,0,0,1,122.67,13Zm.33,7.91h10.31V20.5q0-.37-.39-.37h-9.55a.33.33,0,0,0-.37.37Zm0,2.27h10.31v-.7H123Zm9.92,2.42a.35.35,0,0,0,.39-.39v-.47H123v.47q0,.39.37.39Zm-.55-9.92c.14,0,.21-.08.21-.25v-.23a.19.19,0,0,0-.21-.21h-8.22a.19.19,0,0,0-.21.21v.23c0,.17.07.25.21.25Z"/><path class="cls-5" d="M141,13.26h5.49a2.17,2.17,0,0,1,1.43.35l.1.1.12-.14a1.51,1.51,0,0,1,.86-.31,1.16,1.16,0,0,1,.86.37,9.7,9.7,0,0,0,.76,1l0,0,.88-.9q.39-.45.59-.64a1.11,1.11,0,0,1,.7-.31,1.56,1.56,0,0,1,.94.35,1,1,0,0,1,.53.84,1,1,0,0,1-.16.57,2.83,2.83,0,0,1-.64.8,4.51,4.51,0,0,1-1.25,1.07,6.11,6.11,0,0,0,.64.57,1.72,1.72,0,0,0,.25.18,4.21,4.21,0,0,0,.31-.35l1.05-1.15.64-.82a1.21,1.21,0,0,1,.72-.33,1.43,1.43,0,0,1,.88.33.9.9,0,0,1,.53.76,1.18,1.18,0,0,1-.2.7,3.71,3.71,0,0,1-.74,1,6.47,6.47,0,0,1-1.27,1.21q.8.43,1.66.86a.92.92,0,0,1,.55.92,1.38,1.38,0,0,1-.35,1,1,1,0,0,1-.92.47,4.45,4.45,0,0,1-1.72-.51A12.43,12.43,0,0,1,152.44,20a.66.66,0,0,1-.12.25,1.1,1.1,0,0,1-.9.35h-6.09a1.11,1.11,0,0,1-.82-.27.78.78,0,0,1-.27-.55q-.66.45-1.31.84a8.32,8.32,0,0,1-2.29,1,1.42,1.42,0,0,1-1.05-.39,1.22,1.22,0,0,1-.37-.8,1.45,1.45,0,0,1,.49-1q1.17-.53,2.17-1.07-.68-.43-1.29-.74l-.18-.12a.82.82,0,0,1-.18-.57,1.14,1.14,0,0,1,.41-.76,1.25,1.25,0,0,1,.78-.31,1,1,0,0,1,.47.1A15.93,15.93,0,0,1,143.94,17l.61-.45q.94-.68.94-1c0-.12-.05-.18-.16-.18H141a1,1,0,0,1-1-1.09A1,1,0,0,1,141,13.26Zm1.72,8.12h10.86a1.3,1.3,0,0,1,1.48,1.46v1.89a1.29,1.29,0,0,1-1.46,1.46l-.47,1.89h2.34a1.2,1.2,0,0,1,.8.23q.29.2.29.94a1.32,1.32,0,0,1-.18.8,1.13,1.13,0,0,1-.92.35H141a1.15,1.15,0,0,1-.78-.25,1.07,1.07,0,0,1-.31-.9,1.19,1.19,0,0,1,.31-1,1.15,1.15,0,0,1,.78-.21h2.6L143,26.21h-.27a1.29,1.29,0,0,1-1.46-1.46V22.85A1.29,1.29,0,0,1,142.73,21.38Zm9.06,3q.33,0,.33-.29v-.62q0-.31-.33-.31h-7.25q-.33,0-.33.31v.63q0,.29.33.29Zm-5.35,3.69h3.65l.49-1.89h-4.77ZM146,18.41h4.61a21.16,21.16,0,0,1-2.25-2.64l0-.06a5.16,5.16,0,0,1-1,1.37Q146.66,17.79,146,18.41Z"/><path class="cls-5" d="M168.58,13.41h5.7a2.05,2.05,0,0,1,1.43.39,2.2,2.2,0,0,1,.37,1.39v4.3h.29a1.35,1.35,0,0,1,.94.27,1,1,0,0,1,.25.84,1.27,1.27,0,0,1-.21.8,1.21,1.21,0,0,1-1,.37h-2.73v2.5l.08-.08a2.9,2.9,0,0,0,.53-.37,11.36,11.36,0,0,0,1.45-1.19.66.66,0,0,1,.39-.16,1.61,1.61,0,0,1,.94.37,1.09,1.09,0,0,1,.55.86,1.26,1.26,0,0,1-.23.78,7.06,7.06,0,0,1-1.78,1.31,9.91,9.91,0,0,1,1.93,1.91,1,1,0,0,1,.23.7,1.28,1.28,0,0,1-.33.8,1.17,1.17,0,0,1-.92.43.72.72,0,0,1-.59-.21q-1.21-1.07-2.25-2v1.64q-.12,1.84-2.64,2a6.94,6.94,0,0,1-.72,0,2.79,2.79,0,0,1-.66-.25,1.44,1.44,0,0,1-.43-.49,3.94,3.94,0,0,1-.06-.64,2.09,2.09,0,0,1,.23-1.07q.25-.31,1.15-.31a.29.29,0,0,0,.33-.33V25.19a1.06,1.06,0,0,1-.53.37.83.83,0,0,1,.2.51,1,1,0,0,1-.16.55q-.08.16-.29.51a14.53,14.53,0,0,1-1.8,2,.89.89,0,0,1-.7.31,1.13,1.13,0,0,1-.49-.2l-.06.06a1.18,1.18,0,0,1-.8.35,24.54,24.54,0,0,1-5.45.86,1.17,1.17,0,0,1-.92-.31,1.4,1.4,0,0,1-.27-.92,1.19,1.19,0,0,1,.33-.94,1.11,1.11,0,0,1,.78-.23l1.64-.21V27.2l-.06.06a1.38,1.38,0,0,1-1,.37,1.65,1.65,0,0,1-.84-.18.57.57,0,0,1-.25-.39q-.16-.64-.43-1.7l0-.16a1.26,1.26,0,0,1,.12-.49,1.19,1.19,0,0,1,.63-.55,1.47,1.47,0,0,1,.59-.14,1.27,1.27,0,0,1,1.09.45,4,4,0,0,1,.18.55V23.55h-1.64a1.11,1.11,0,0,1-.78-.25,1,1,0,0,1-.33-.9,1.15,1.15,0,0,1,.33-1,1,1,0,0,1,.78-.23h1.64V20.05h-1.11a1,1,0,0,1-1.07-1.17,2.4,2.4,0,0,1,0-.47,1.11,1.11,0,0,1-.41-.31,1.55,1.55,0,0,1-.43-1,1,1,0,0,1,.57-.78Q161,15,162.29,13.61a1.76,1.76,0,0,1,1.27-.68,2.49,2.49,0,0,1,1.46.59,7.55,7.55,0,0,1,1.86,1.72,2.68,2.68,0,0,1,.76,1.68,1.24,1.24,0,0,1-.35.92,1.14,1.14,0,0,1-.49.35,1.63,1.63,0,0,1,.12.7,1.4,1.4,0,0,1-.16.78,1,1,0,0,1-.92.39h-.94v1.15h1.31a1.13,1.13,0,0,1,.82.25q.29.2.29.94a1.27,1.27,0,0,1-.2.8,1.06,1.06,0,0,1-.92.35H164.9V24.6l.08-.25a.85.85,0,0,1,.7-.39,1.71,1.71,0,0,1,.92.25,1,1,0,0,1,.55.92,1.72,1.72,0,0,1-.08.45,13.32,13.32,0,0,1-.53,1.33,1,1,0,0,1-.62.23,1.42,1.42,0,0,1-1-.41v.8l1.39-.21a1,1,0,0,1,.51.12,13.08,13.08,0,0,1,.88-1,9.57,9.57,0,0,1,1-1.21.69.69,0,0,1,.37-.2q-.84-.66-1.54-1.17l-.14-.14a.57.57,0,0,1-.18-.45,1,1,0,0,1,.39-.72,1.12,1.12,0,0,1,.72-.29.73.73,0,0,1,.39.1,9.47,9.47,0,0,1,2.11,1.45v-2h-2.66a1.25,1.25,0,0,1-.88-.27,1.1,1.1,0,0,1-.31-.9,1,1,0,0,1,.31-.86,1.22,1.22,0,0,1,.88-.25h5.16V18.41h-4.63a.92.92,0,0,1-.64-.21,1,1,0,0,1-.21-.72.9.9,0,0,1,.27-.72,1.09,1.09,0,0,1,.59-.14h4.63V16q0-.37-.41-.37h-4.36a1.08,1.08,0,0,1-.84-.25,1.11,1.11,0,0,1-.25-.86,1.23,1.23,0,0,1,.23-.82A1.15,1.15,0,0,1,168.58,13.41ZM162,17.77h3.32a9.54,9.54,0,0,1-1.21-1.64.71.71,0,0,0-.57-.37q-.19,0-.37.35Q162.52,17.07,162,17.77Z"/><path class="cls-5" d="M183.85,17q-.23,1.74-.42,3.5-.28,2.78-.28,4.43t.11,3.66a1.21,1.21,0,0,1-.39,1,1.29,1.29,0,0,1-.95.39,1.2,1.2,0,0,1-.86-.32,1.17,1.17,0,0,1-.42-.91q-.11-2.09-.11-3.81t.72-8.23a1.16,1.16,0,0,1,1.28-1.18,1.34,1.34,0,0,1,1,.4A1.23,1.23,0,0,1,183.85,17Zm12,10.16a1.47,1.47,0,0,1-.4.95,1.08,1.08,0,0,1-.83.47,1.07,1.07,0,0,1-.58-.26l-1.23-.86a4.25,4.25,0,0,1-4,2.32,5,5,0,0,1-2.87-.77,2.52,2.52,0,0,1-1.18-2.14,2.62,2.62,0,0,1,1.3-2.34,4.63,4.63,0,0,1,2.67-.76,3.83,3.83,0,0,1,1.55.3q0-.93-.07-3.06-3.74,0-3.9,0a1.11,1.11,0,0,1-.91-.39,1.24,1.24,0,0,1-.37-.86,1.15,1.15,0,0,1,.35-.91,1.1,1.1,0,0,1,1-.3q1.41.11,3.8,0V17.17q0-1.63,1.41-1.63a1.39,1.39,0,0,1,1,.32,1.41,1.41,0,0,1,.3,1q0,.32,0,1.44.53-.11,1.51-.21,1.39-.11,1.39,1a1.53,1.53,0,0,1-.35,1.14,1.78,1.78,0,0,1-1.16.39l-1.42.16q0,2.5.12,4a10.73,10.73,0,0,1,1.9.95A1.85,1.85,0,0,1,195.9,27.13Zm-5.62-.74a2.23,2.23,0,0,0-1.6-.74q-1.46,0-1.46,1.11,0,.42.56.7a1.94,1.94,0,0,0,1,.26,1.53,1.53,0,0,0,1-.42A1.22,1.22,0,0,0,190.27,26.39Z"/><path class="cls-6" d="M214.84,26.71a2.35,2.35,0,0,1-.72,1.76,2.49,2.49,0,0,1-1.78.68H201.6a1.33,1.33,0,0,1-1.35-1.31q0-1.43,1.35-1.43h9.28a1.35,1.35,0,0,0,.84-.18,1.12,1.12,0,0,0,.2-.8V18.92a1.94,1.94,0,0,0-.1-.78q-.18-.25-.76-.25H201.7a1.12,1.12,0,0,1-.94-.43,1.42,1.42,0,0,1-.33-1,1.33,1.33,0,0,1,.35-.92,1.12,1.12,0,0,1,.92-.41h10.63a2.22,2.22,0,0,1,2.52,2.5Z"/><path class="cls-6" d="M234.83,21.25a1.48,1.48,0,0,1-.35,1,1.38,1.38,0,0,1-1.05.39h-5.35a7.38,7.38,0,0,1-2.5,5.12A13,13,0,0,1,221.63,30a1.57,1.57,0,0,1-.59.12,1.29,1.29,0,0,1-1-.43,1.62,1.62,0,0,1-.43-1,1.29,1.29,0,0,1,.94-1.35,11.18,11.18,0,0,0,2.93-1.56,4.72,4.72,0,0,0,1.68-3.12h-6.33a1.44,1.44,0,0,1-1.09-.43,1.47,1.47,0,0,1,.06-1.93,1.32,1.32,0,0,1,1-.39h6.35q0-1.35,0-2.87-2.23.22-4.65.29a1.35,1.35,0,0,1-1.13-.41A1.3,1.3,0,0,1,219,16a1.34,1.34,0,0,1,.37-1,1.37,1.37,0,0,1,1-.47,52.66,52.66,0,0,0,10.55-1.19,1.93,1.93,0,0,1,.47-.06,1.28,1.28,0,0,1,1,.45,1.37,1.37,0,0,1,.33,1.05A1.23,1.23,0,0,1,231.68,16a22.44,22.44,0,0,1-3.61.68l0,3.2h5.33a1.41,1.41,0,0,1,1.09.45A1.07,1.07,0,0,1,234.83,21.25Z"/><path class="cls-6" d="M252.81,21.64q0,3-3.12,5.43a14.63,14.63,0,0,1-6.5,2.93,1.81,1.81,0,0,1-.39,0,1.21,1.21,0,0,1-1-.55,1.35,1.35,0,0,1-.27-1.09,1.29,1.29,0,0,1,1.15-1.27,11.73,11.73,0,0,0,4.51-1.8,6.55,6.55,0,0,0,2.5-2.62.49.49,0,0,0,.06-.25q0-.6-.7-.61H238.26a1.41,1.41,0,0,1-1.07-.41,1.5,1.5,0,0,1-.37-1,1.3,1.3,0,0,1,.35-1,1.58,1.58,0,0,1,1.09-.35h11.45Q252.81,19.1,252.81,21.64Zm-.49-5.86a1.34,1.34,0,0,1-.39,1,1.38,1.38,0,0,1-1.05.39H239.32a1.44,1.44,0,0,1-1.09-.43,1.25,1.25,0,0,1-.35-.94,1.3,1.3,0,0,1,.39-1,1.35,1.35,0,0,1,1.05-.41h11.56a1.41,1.41,0,0,1,1.09.45A1.21,1.21,0,0,1,252.32,15.78Z"/><path class="cls-6" d="M261,27.79a1.83,1.83,0,0,1-.7,1.46,2.38,2.38,0,0,1-1.6.59,2.33,2.33,0,0,1-1.56-.59,1.81,1.81,0,0,1-.68-1.46,1.79,1.79,0,0,1,.68-1.45,2.38,2.38,0,0,1,1.56-.57,2.43,2.43,0,0,1,1.6.57A1.78,1.78,0,0,1,261,27.79ZM260.61,16l-.62,7.7q-.14,1.05-1.41,1.05a1.1,1.1,0,0,1-1.23-1.05L256.76,16q-.14-2.23,1.93-2.23a1.87,1.87,0,0,1,1.46.59A2.19,2.19,0,0,1,260.61,16Z"/></svg>