<svg id="レイヤー_1" data-name="レイヤー 1" xmlns="http://www.w3.org/2000/svg" xmlns:xlink="http://www.w3.org/1999/xlink" viewBox="0 0 175 125"><defs><style>.cls-1{fill:none;}.cls-2{fill:#fefadd;}.cls-3{fill:#ff8266;}.cls-4{fill:#d64c47;}.cls-5{fill:#ec6847;}.cls-6{fill:#ffdb37;}.cls-6,.cls-7{fill-rule:evenodd;}.cls-7{fill:#9cd155;}.cls-8{fill:#066b74;}.cls-9{fill:#c6b405;}.cls-10{clip-path:url(#clip-path);}.cls-11{fill:#ffffa2;}</style><clipPath id="clip-path"><rect class="cls-1" y="480" width="1080" height="400"/></clipPath></defs><title>btn_bonus_login</title><rect class="cls-2" x="92.75" y="3.8" width="72.28" height="97.64"/><polygon class="cls-1" points="155.25 8.16 155.2 8.16 155.18 8.16 155.13 8.24 155.25 8.16"/><path class="cls-1" d="M97.74,42.45V96.63h35.93V26.75a7.52,7.52,0,0,1,3.3-6.23L155.13,8.25l0-.09H97.74Z"/><path class="cls-3" d="M155.2,8.16h.05l-.13.09L137,20.53a7.52,7.52,0,0,0-3.3,6.23V96.63h-.29v8.16h.3v17.32a2.89,2.89,0,0,0,4.51,2.39l29.13-19.71V.07Z"/><polygon class="cls-4" points="159.82 0 155.18 8.16 155.2 8.16 167.31 0.07 167.31 0 159.82 0"/><polygon class="cls-4" points="133.37 104.79 133.38 96.64 128.08 96.64 128.08 104.79 133.37 104.79"/><polygon class="cls-5" points="97.74 42.45 97.74 8.16 155.18 8.16 159.82 0 89.58 0 89.58 42.45 89.58 68.87 89.58 104.79 128.08 104.79 128.08 96.64 97.74 96.64 97.74 68.87 97.74 42.45"/><path class="cls-2" d="M121.14,58.88,98.77,15.24a4,4,0,0,0-7.19.14l-11,23.83L54.75,34.27A4,4,0,0,0,50.44,40L72.81,83.66a4,4,0,0,0,2.81,2.1l28.86,5.53h.08a4,4,0,0,0,.68.06h.08a4,4,0,0,0,.76-.1l.16,0A4,4,0,0,0,107,91l.09,0a4,4,0,0,0,.65-.42l.09-.07a4,4,0,0,0,.57-.59l.06-.06.07-.11.16-.24.14-.25.06-.12,12.35-26.66A4,4,0,0,0,121.14,58.88Z"/><polygon class="cls-6" points="76.37 81.84 105.23 87.37 82.86 43.73 53.99 38.2 76.37 81.84"/><polygon class="cls-7" points="82.86 43.73 95.21 17.07 117.58 60.71 105.23 87.37 82.86 43.73"/><path class="cls-8" d="M7.69,50c13.17,3.19,15.79,5.77,19,18.79,3.23-13,5.84-15.61,19-18.79-13.17-3.19-15.79-5.77-19-18.79C23.47,44.22,20.86,46.81,7.69,50Z"/><path class="cls-9" d="M29.34,77c9.3,2.25,11.14,4.08,13.42,13.27C45,81.09,46.88,79.27,56.18,77,46.88,74.76,45,72.94,42.76,63.75,40.48,72.94,38.64,74.76,29.34,77Z"/><g class="cls-10"><polygon class="cls-1" points="0 -132 0 948 289.38 948 0 850.27 0 713.42 396.45 948 439.78 948 0 576.66 0 406.18 466.81 948 483.75 948 0 220.46 0 -36.16 497.07 948 507.05 948 86.07 -132 0 -132"/><polygon class="cls-11" points="86.07 -132 507.05 948 515.87 948 209.61 -132 86.07 -132"/><polygon class="cls-11" points="0 220.46 483.75 948 497.07 948 0 -36.16 0 220.46"/></g></svg>