<svg xmlns="http://www.w3.org/2000/svg" xmlns:xlink="http://www.w3.org/1999/xlink" viewBox="0 0 26 26"><defs><style>.cls-1{fill:none;}.cls-2{isolation:isolate;}.cls-3{fill:#333;}.cls-4{clip-path:url(#clip-path);}.cls-5{fill:#eefbf3;}.cls-6{fill:#f7fbfa;}.cls-7{mix-blend-mode:soft-light;}</style><clipPath id="clip-path"><rect class="cls-1" x="-550" y="496" width="1080" height="100" rx="8" ry="8"/></clipPath></defs><title>ico-b-select</title><g class="cls-2"><g id="img"><path class="cls-3" d="M24.66,6.79H1.34A1.34,1.34,0,0,0,.31,9l11.1,13.48a2.06,2.06,0,0,0,3.19,0L25.69,9A1.34,1.34,0,0,0,24.66,6.79Z"/><g class="cls-4"><polygon class="cls-5" points="-10 46.91 43.93 46.91 97.86 -7.02 43.93 -7.02 -10 46.91"/><polygon class="cls-6" points="-63.93 46.91 -10 46.91 43.93 -7.02 -10 -7.02 -63.93 46.91"/><g class="cls-7"><polygon class="cls-6" points="43.93 46.91 -10 46.91 -63.93 -7.02 -10 -7.02 43.93 46.91"/></g></g></g></g></svg>