<svg id="レイヤー_1" data-name="レイヤー 1" xmlns="http://www.w3.org/2000/svg" xmlns:xlink="http://www.w3.org/1999/xlink" viewBox="0 0 12 16"><defs><style>.cls-1{fill:none;}.cls-2{clip-path:url(#clip-path);}.cls-3{fill:#ffffa2;}.cls-4{fill:#f35934;}</style><clipPath id="clip-path"><rect class="cls-1" x="-430.5" y="549.5" width="1080" height="400"/></clipPath></defs><title>ico_link</title><g class="cls-2"><polygon class="cls-1" points="-22.69 -62.5 99.8 1017.5 106.21 1017.5 63.26 -62.5 -22.69 -62.5"/><polygon class="cls-1" points="-430.5 -62.5 -430.5 1017.5 -141.12 1017.5 -430.5 919.77 -430.5 782.92 -34.05 1017.5 9.28 1017.5 -430.5 646.16 -430.5 475.68 36.3 1017.5 53.25 1017.5 -430.5 289.96 -430.5 33.34 66.57 1017.5 76.55 1017.5 -344.43 -62.5 -430.5 -62.5"/><polygon class="cls-1" points="-220.89 -62.5 85.36 1017.5 92.74 1017.5 -121.86 -62.5 -220.89 -62.5"/><polygon class="cls-3" points="-121.86 -62.5 92.74 1017.5 99.8 1017.5 -22.69 -62.5 -121.86 -62.5"/><polygon class="cls-3" points="-344.43 -62.5 76.55 1017.5 85.36 1017.5 -220.89 -62.5 -344.43 -62.5"/></g><path class="cls-4" d="M.95.82V15.18a.82.82,0,0,0,1.35.64L10.59,9a1.27,1.27,0,0,0,0-2L2.29.19A.82.82,0,0,0,.95.82Z"/></svg>