<svg id="レイヤー_1" data-name="レイヤー 1" xmlns="http://www.w3.org/2000/svg" viewBox="0 0 64 64"><defs><style>.cls-1{fill:#fff;}.cls-2{fill:#aeb5c3;}.cls-3{fill:#89909f;}.cls-4{fill:#666675;}</style></defs><title>ico_ranking2</title><path class="cls-1" d="M54.63,9.37A32,32,0,1,0,64,32,31.91,31.91,0,0,0,54.63,9.37Z"/><path class="cls-2" d="M32,3A29,29,0,0,0,11.48,52.52l41-41A28.93,28.93,0,0,0,32,3Z"/><path class="cls-3" d="M11.48,52.52a29,29,0,0,0,41-41Z"/><path class="cls-4" d="M48.64,52.17H21.3a17.12,17.12,0,0,1,2.85-7.62q2.38-3.57,8.94-8.42a26.58,26.58,0,0,0,5.12-4.52,5.06,5.06,0,0,0,1.12-2.93,3.42,3.42,0,0,0-1.11-2.56,4.22,4.22,0,0,0-5.64,0A6.71,6.71,0,0,0,31.1,30L22,29.28a14.53,14.53,0,0,1,2-6A9.14,9.14,0,0,1,28,20a18.27,18.27,0,0,1,7.22-1.15,20.36,20.36,0,0,1,7.48,1.1,9.11,9.11,0,0,1,4.21,3.37,8.89,8.89,0,0,1,1.53,5.09,10.42,10.42,0,0,1-1.76,5.73,24.08,24.08,0,0,1-6.39,6q-2.75,1.9-3.68,2.66t-2.18,2H48.64Z"/><path class="cls-1" d="M44.67,48.19H17.33a17.12,17.12,0,0,1,2.85-7.62q2.38-3.57,8.94-8.42a26.58,26.58,0,0,0,5.12-4.52,5.06,5.06,0,0,0,1.12-2.93,3.42,3.42,0,0,0-1.11-2.56,4.22,4.22,0,0,0-5.64,0A6.71,6.71,0,0,0,27.13,26L18,25.31a14.53,14.53,0,0,1,2-6A9.14,9.14,0,0,1,24,16a18.27,18.27,0,0,1,7.22-1.15,20.36,20.36,0,0,1,7.48,1.1,9.11,9.11,0,0,1,4.21,3.37,8.89,8.89,0,0,1,1.53,5.09,10.42,10.42,0,0,1-1.76,5.73,24.08,24.08,0,0,1-6.39,6q-2.75,1.9-3.68,2.66t-2.18,2H44.67Z"/></svg>