<svg id="レイヤー_1" data-name="レイヤー 1" xmlns="http://www.w3.org/2000/svg" viewBox="0 0 64 64"><defs><style>.cls-1{fill:#fff;}.cls-2{fill:#8d7855;}.cls-3{fill:#765325;}.cls-4{fill:#5a3529;}</style></defs><title>ico_ranking3</title><path class="cls-1" d="M54.63,9.37h0A32,32,0,1,0,64,32,31.92,31.92,0,0,0,54.63,9.37Z"/><path class="cls-2" d="M32,3A29,29,0,0,0,11.48,52.52l41-41A28.93,28.93,0,0,0,32,3Z"/><path class="cls-3" d="M11.48,52.52a29,29,0,0,0,41-41Z"/><path class="cls-4" d="M30.7,28.85l-8.61-1.54A10.82,10.82,0,0,1,26.21,21q3.05-2.19,8.65-2.19,6.42,0,9.28,2.39a7.52,7.52,0,0,1,2.86,6,6.72,6.72,0,0,1-1.16,3.85,9.89,9.89,0,0,1-3.51,3,10.35,10.35,0,0,1,2.91,1.1,7.09,7.09,0,0,1,2.54,2.65,8,8,0,0,1,.91,3.93,10.93,10.93,0,0,1-1.5,5.49,10,10,0,0,1-4.32,4,16.52,16.52,0,0,1-7.41,1.42,19.22,19.22,0,0,1-7.06-1.05,10.55,10.55,0,0,1-4.25-3.08,14.13,14.13,0,0,1-2.56-5.09L30.7,42.3a7.09,7.09,0,0,0,1.67,3.81,4,4,0,0,0,2.88,1.06,4,4,0,0,0,3.05-1.34,5.12,5.12,0,0,0,1.22-3.58,5,5,0,0,0-1.17-3.54,4.16,4.16,0,0,0-3.19-1.25,11.52,11.52,0,0,0-3,.54l.47-6.51a8.67,8.67,0,0,0,1.19.11,4.16,4.16,0,0,0,3-1.14A3.61,3.61,0,0,0,38,27.76a3.24,3.24,0,0,0-.89-2.39,3.33,3.33,0,0,0-2.46-.89,3.61,3.61,0,0,0-2.62,1A5.9,5.9,0,0,0,30.7,28.85Z"/><path class="cls-1" d="M26.73,24.88l-8.61-1.54A10.82,10.82,0,0,1,22.24,17q3.05-2.19,8.65-2.19,6.42,0,9.28,2.39a7.52,7.52,0,0,1,2.86,6,6.72,6.72,0,0,1-1.16,3.85,9.89,9.89,0,0,1-3.51,3,10.35,10.35,0,0,1,2.91,1.1,7.09,7.09,0,0,1,2.54,2.65,8,8,0,0,1,.91,3.93,10.93,10.93,0,0,1-1.5,5.49,10,10,0,0,1-4.32,4,16.52,16.52,0,0,1-7.41,1.42,19.22,19.22,0,0,1-7.06-1.05,10.55,10.55,0,0,1-4.25-3.08,14.13,14.13,0,0,1-2.56-5.09l9.11-1.21a7.09,7.09,0,0,0,1.67,3.81,4,4,0,0,0,2.88,1.06,4,4,0,0,0,3.05-1.34,5.12,5.12,0,0,0,1.22-3.58,5,5,0,0,0-1.17-3.54,4.16,4.16,0,0,0-3.19-1.25,11.52,11.52,0,0,0-3,.54l.47-6.51a8.67,8.67,0,0,0,1.19.11,4.16,4.16,0,0,0,3-1.14,3.61,3.61,0,0,0,1.2-2.71,3.24,3.24,0,0,0-.89-2.39,3.33,3.33,0,0,0-2.46-.89,3.61,3.61,0,0,0-2.62,1A5.9,5.9,0,0,0,26.73,24.88Z"/></svg>