<svg id="レイヤー_1" data-name="レイヤー 1" xmlns="http://www.w3.org/2000/svg" viewBox="0 0 64 64"><defs><style>.cls-1{fill:#fff;}.cls-2{fill:#cfb505;}.cls-3{fill:#ae9205;}.cls-4{fill:#6d5a15;}</style></defs><title>ico_ranking1</title><path class="cls-1" d="M54.63,9.37h0A32,32,0,1,0,64,32,31.92,31.92,0,0,0,54.63,9.37Z"/><path class="cls-2" d="M32,3A29,29,0,0,0,11.48,52.52l41-41A28.93,28.93,0,0,0,32,3Z"/><path class="cls-3" d="M11.48,52.52a29,29,0,0,0,41-41Z"/><path class="cls-4" d="M42.53,18.81V52.17H33.31V30.31A28,28,0,0,1,29,33.06a33.67,33.67,0,0,1-5.25,2V27.6A22.16,22.16,0,0,0,31,24a14.7,14.7,0,0,0,4-5.19Z"/><path class="cls-1" d="M38.55,14.83V48.19H29.33V26.33A28,28,0,0,1,25,29.09a33.67,33.67,0,0,1-5.25,2V23.63A22.16,22.16,0,0,0,27,20a14.7,14.7,0,0,0,4-5.19Z"/></svg>