<svg id="レイヤー_1" data-name="レイヤー 1" xmlns="http://www.w3.org/2000/svg" viewBox="0 0 15 15"><defs><style>.cls-1{fill:#f45934;}</style></defs><title>ico_listcheck</title><path class="cls-1" d="M3.39,3.45,2.83,2.7A6.54,6.54,0,0,0,1.4,4.15l.76.54A5.62,5.62,0,0,1,3.39,3.45ZM.51,8l.81,0a5.54,5.54,0,0,1,.14-1.7L.65,6a6.34,6.34,0,0,0-.14,2Zm0,2a6.47,6.47,0,0,0,.94,1.81l.75-.55a5.62,5.62,0,0,1-.8-1.55Zm10-7.37a6.49,6.49,0,0,0-1.83-.91l-.28.89A5.58,5.58,0,0,1,10,3.39ZM6.66,2.35V1.42a6.51,6.51,0,0,0-2,.33l.3.88A5.55,5.55,0,0,1,6.66,2.35Zm.06,11.2v.93a6.56,6.56,0,0,0,2-.32l-.29-.89A5.61,5.61,0,0,1,6.73,13.55Zm5.48-9.1L14.5,1.52l-1-1-7,8-3-3-1,2L5.61,11l.72.91L7.09,11,11.6,5.24a5.58,5.58,0,0,1,.42.93l.88-.3A6.57,6.57,0,0,0,12.21,4.46ZM2.89,13.25a6.47,6.47,0,0,0,1.82.92L5,13.29a5.57,5.57,0,0,1-1.56-.79ZM10,12.48l.55.75A6.53,6.53,0,0,0,12,11.79l-.75-.55A5.67,5.67,0,0,1,10,12.48Zm2.11-2.8,1,.29a6.75,6.75,0,0,0,.47-2V7.87L12.5,8A5.74,5.74,0,0,1,12.12,9.68Z"/></svg>