<svg xmlns="http://www.w3.org/2000/svg" width="222" height="198"><style/><g id="Layer"><path id="Layer" fill-rule="evenodd" d="M218.81 186.77c-3.98 6.9-11.41 11.19-19.37 11.19H22.56c-7.96 0-15.39-4.29-19.37-11.19a22.448 22.448 0 010-22.37L91.63 11.23C95.61 4.33 103.03.04 111 .04c7.97 0 15.39 4.29 19.38 11.19l88.43 153.18c3.98 6.89 3.98 15.46 0 22.36zm-93.96-27.86c0-7.64-6.2-13.84-13.85-13.84-7.64 0-13.85 6.2-13.85 13.84 0 7.65 6.2 13.86 13.85 13.86 7.65 0 13.85-6.21 13.85-13.86zm0-93.11c0-7.65-6.2-13.85-13.85-13.85-7.65 0-13.85 6.2-13.85 13.85l5.32 62.63c0 4.72 3.81 8.53 8.53 8.53 4.71 0 8.53-3.81 8.53-8.53l5.32-62.63z" fill="red"/></g></svg>