<!-- Generator: Adobe Illustrator 18.1.1, SVG Export Plug-In . SVG Version: 6.00 Build 0)  -->
<svg version="1.1" xmlns="http://www.w3.org/2000/svg" xmlns:xlink="http://www.w3.org/1999/xlink" x="0px" y="0px"
	 viewBox="0 0 36 36" enable-background="new 0 0 36 36" xml:space="preserve">
<g id="レイヤー_1">
	<g>
		<g>
			<circle fill="#DDB540" cx="18" cy="18" r="15"/>
			<circle fill="#FCEE21" cx="18" cy="18" r="12"/>
			<path fill="#8C6239" d="M18,3c8.3,0,15,6.7,15,15s-6.7,15-15,15S3,26.3,3,18S9.7,3,18,3 M18,0.8C8.5,0.8,0.8,8.5,0.8,18
				S8.5,35.3,18,35.3S35.3,27.5,35.3,18S27.5,0.8,18,0.8L18,0.8z"/>
		</g>
		<g>
			<path fill="#8C6239" d="M14.1,25.3c0.1-0.7,0.1-1.3,0.1-2.2v-9.3c0-0.8,0-1.4-0.1-2.2c0.7,0,1.3,0.1,2.2,0.1h3.6
				c1.7,0,2.8,0.4,3.7,1.2c0.7,0.7,1.1,1.7,1.1,3c0,1.3-0.4,2.4-1.2,3.2c-0.8,0.8-2,1.2-3.7,1.2h-3.3v2.9c0,0.9,0,1.6,0.1,2.2H14.1z
				 M19.9,18.2c1.6,0,2.4-0.8,2.4-2.4c0-0.7-0.2-1.3-0.6-1.7c-0.4-0.4-1-0.6-1.9-0.6h-3.3v4.6H19.9z"/>
		</g>
	</g>
</g>
<g id="ip5" display="none">
</g>
<g id="specctr">
	<g id="Spacing">
	</g>
	<g id="Text_Properties">
	</g>
</g>
</svg>
