<svg id="img" xmlns="http://www.w3.org/2000/svg" viewBox="0 0 580 120"><defs><style>.cls-1{fill:#fff;}.cls-2{fill:#ffbf37;}.cls-3{fill:#ffda37;}.cls-4{fill:#ffea5f;}.cls-5{fill:#ffff8b;}.cls-6{fill:#fdf4bb;}.cls-7{fill:#333;}.cls-8{fill:none;stroke:#fff;stroke-linecap:round;stroke-linejoin:round;stroke-width:6px;}.cls-9{fill:#fdf9dc;}.cls-10{fill:#d0c131;}.cls-11{fill:#c29c05;}.cls-12{fill:#6d7891;}.cls-13{fill:#c1cdee;}.cls-14{fill:#abb4e2;}.cls-15{fill:#e7e9ee;}.cls-16{fill:#89909f;}.cls-17{fill:#aeb2bd;}.cls-18{fill:#d2ef78;}.cls-19{fill:#a2db60;}.cls-20{fill:#8d7855;}.cls-21{fill:#765325;}</style></defs><title>img-rankflow</title><rect class="cls-1" width="580" height="120" rx="10" ry="10"/><path class="cls-2" d="M570,0H459.08L496.5,60l-37.42,60H570c5.52,0,10-4.13,10-9.23V9.23C580,4.13,575.52,0,570,0Z"/><polygon class="cls-3" points="451.08 0 334.93 0 372.35 60 334.93 120 451.08 120 488.5 60 451.08 0"/><polygon class="cls-4" points="326.93 0 210.79 0 248.21 60 210.79 120 326.93 120 364.35 60 326.93 0"/><polygon class="cls-5" points="202.79 0 86.65 0 124.07 60 86.65 120 202.79 120 240.21 60 202.79 0"/><path class="cls-6" d="M78.65,0H10C4.48,0,0,4.13,0,9.23V110.77c0,5.1,4.48,9.23,10,9.23H78.65l37.42-60Z"/><path class="cls-7" d="M41.11,92.57c.7,0,1.76.2,1.76,1.45s-1,1.45-1.76,1.45H25c-.7,0-1.76-.2-1.76-1.45s.95-1.45,1.76-1.45Z"/><path class="cls-7" d="M49,96.18l-.7,0a25.84,25.84,0,0,1-.77,6.82c-.42,1.65-.79,2-1.5,2-.53,0-1.32-.29-1.32-1a12.51,12.51,0,0,1,.48-2.09,21.77,21.77,0,0,0,.73-5.68c-1.28-.07-1.39-1-1.39-1.23s0-1.12,1.39-1.25V88.56c0-1.58.73-1.74,1.63-1.74h.77L49,85.46c.33-.66.75-.66.92-.66.79,0,1.52.42,1.52,1.14a1.9,1.9,0,0,1-.29.88h1.23c.79,0,2,.09,2,1.72v5a1.2,1.2,0,0,1,.95.84c.29-.22.53-.22,1.3-.22h5.92a1.92,1.92,0,0,1,2.22,1.92,8.59,8.59,0,0,1-2.35,5.43c.2.13,1.23.7,1.87,1.06s1,.57,1,1.25a1.38,1.38,0,0,1-1.3,1.43,8.29,8.29,0,0,1-3.79-1.87,10.83,10.83,0,0,1-4.36,1.83,1.26,1.26,0,0,1-1.41-1.34c0-.9.7-1.12,1.17-1.28a10.37,10.37,0,0,0,2.71-1.12,15.9,15.9,0,0,1-2.64-4.84,1,1,0,0,1-.79-.92,1.56,1.56,0,0,1-.51.22v6.64c0,1.1,0,2.46-2.73,2.46-.44,0-2.64,0-2.64-1.47a1.27,1.27,0,0,1,1.17-1.34c.22,0,1.21.26,1.45.26s.35-.24.35-.64V96.09l-.84,0V99c0,.81,0,1.76-1.08,1.76S49,99.81,49,99Zm-.7-2.49,3.7-.11V89.82c0-.51-.29-.59-.51-.59H48.83c-.55,0-.55.33-.55.57Zm.92-1.39c0-.29-.33-1.54-.33-1.8a1,1,0,0,1,1-1,1,1,0,0,1,1,.68,16.39,16.39,0,0,1,.46,2.22,1,1,0,0,1-1.21,1A1.14,1.14,0,0,1,49.2,92.31Zm11-3.76c0-.51,0-.59-.46-.59h-.59c-.44,0-.44,0-.46.77,0,1.72-.92,5-2.33,5a1.45,1.45,0,0,1-1.47-1.34c0-.24,0-.33.48-1.17a6.81,6.81,0,0,0,.7-3.48c0-1.1,0-2.18,1.74-2.18h2.9c.62,0,2,0,2,1.74v3.08c0,.46,0,.53.18.53s.2-.09.33-.48a.86.86,0,0,1,.9-.75,1.11,1.11,0,0,1,1.12,1.12,3.82,3.82,0,0,1-.64,1.74c-.31.51-.79.95-2.13.95-2.22,0-2.22-1.06-2.22-1.61Zm-1.83,8.21a11.32,11.32,0,0,0,2,3.06A5.78,5.78,0,0,0,61.88,97c0-.26-.15-.26-.57-.26Z"/><path class="cls-7" d="M123.59,90c-1.21,0-1.52,0-1.94-.42a1.39,1.39,0,0,1-.4-1,1.46,1.46,0,0,1,.64-1.19c.33-.22.75-.22,1.69-.22H135a4.23,4.23,0,0,1-.55-1.39.92.92,0,0,1,.92-.9c.92,0,1.52,1.65,1.78,2.38a1.91,1.91,0,0,1,1.14,2.11c0,12.23-11.6,14.83-13.62,14.83a1.43,1.43,0,0,1-1.52-1.58c0-1.17.73-1.34,1.63-1.54,5.17-1.19,7-3,8.12-4.42a11,11,0,0,0,2.24-6.09c0-.55-.09-.55-.75-.55ZM140,86.87a.93.93,0,0,1-.92,1c-.51,0-.77-.42-1.06-.92a5.63,5.63,0,0,1-.86-1.94.8.8,0,0,1,.88-.81C138.86,84.19,140,86.17,140,86.87Z"/><path class="cls-7" d="M146.47,103.48c-1.39,0-3.37-.13-3.37-3.15V90c0-3,2-3.15,3.37-3.15h10.34c1.39,0,3.37.15,3.37,3.15v10.3c0,3-2,3.15-3.37,3.15Zm.88-13.66c-1.08,0-1.14.42-1.14,1.23V99.3c0,.79,0,1.21,1.14,1.21H156c1.08,0,1.12-.4,1.12-1.21V91.05c0-.81,0-1.23-1.12-1.23Z"/><path class="cls-7" d="M165.08,102.16a1.34,1.34,0,0,1,1.41-1.43c2.68-.26,6.71-.68,10.21-4A13.08,13.08,0,0,0,180,91.18a1.28,1.28,0,0,1,1.25-.95A1.53,1.53,0,0,1,183,91.67a13.48,13.48,0,0,1-4.14,7.22,17.9,17.9,0,0,1-12.15,4.84A1.43,1.43,0,0,1,165.08,102.16Zm5.7-9.22c-.62,0-.79-.15-2.51-1.54-.4-.31-2.11-1.54-2.46-1.8a1.45,1.45,0,0,1-.68-1.21,1.61,1.61,0,0,1,1.52-1.69c.48,0,.7,0,2.95,1.72,2.73,2,2.73,2.49,2.73,3A1.54,1.54,0,0,1,170.78,92.94Z"/><path class="cls-7" d="M190.12,89.58c-1.12,0-2.35,0-2.35-1.45s1.23-1.45,2.35-1.45h8.76c1.21,0,2.86.35,2.86,2.42,0,.42-.18,3.06-2.71,6.67a27.9,27.9,0,0,1,3.94,3.7c1.94,2.11,2.16,2.68,2.16,3.24a1.61,1.61,0,0,1-1.61,1.47c-.62,0-.66,0-2.09-1.8A33.5,33.5,0,0,0,197.14,98c-3.89,4-8.41,6.12-9.55,6.12a1.58,1.58,0,0,1-1.47-1.65c0-1,.64-1.25,1.23-1.47,1.45-.55,6.67-2.79,9.64-7.64A9.51,9.51,0,0,0,198.37,90c0-.4-.18-.4-.7-.4Zm12.74-1c-.55,0-.86-.57-1-.81a6.38,6.38,0,0,1-.73-1.91.75.75,0,0,1,.79-.81c.4,0,.59.18.86.55a5.56,5.56,0,0,1,.95,2,.87.87,0,0,1-.59.9A.79.79,0,0,1,202.86,88.61Zm2.44-.88c-.55,0-.84-.57-1-.81A6.38,6.38,0,0,1,203.6,85a.76.76,0,0,1,.79-.81c1,0,1.85,2.27,1.85,2.64a.82.82,0,0,1-.64.86A1.7,1.7,0,0,1,205.3,87.73Z"/><path class="cls-7" d="M249.84,96.46c-.48,0-.73-.15-2.75-1.39-.33-.2-1.74-1-2-1.17a1.3,1.3,0,0,1-.51-1.08A1.45,1.45,0,0,1,246,91.4c.88,0,3,1.39,4.14,2.13.57.37,1,.68,1,1.39A1.49,1.49,0,0,1,249.84,96.46Zm-4.36,6.21a1.49,1.49,0,0,1,1.41-1.61,12.24,12.24,0,0,0,4.36-.44c2.38-.62,6.47-2.2,9.31-8.58a1.4,1.4,0,0,1,1.34-.79,1.52,1.52,0,0,1,1.65,1.45c0,.68-1.1,3.26-3.23,5.66a16.86,16.86,0,0,1-12.74,5.9C246.83,104.25,245.49,104.25,245.49,102.67Zm8.1-14a1.43,1.43,0,0,1,.4,1,1.51,1.51,0,0,1-1.47,1.5c-.44,0-.62-.13-2.31-1.32-.35-.24-2-1.17-2.24-1.41a1.39,1.39,0,0,1-.48-1.08,1.48,1.48,0,0,1,1.58-1.47C250,86,252.86,88,253.58,88.65Z"/><path class="cls-7" d="M269,103.31a1.63,1.63,0,0,1-2.88-1,2.08,2.08,0,0,1,.55-1.25c1.08-1.54,2.75-4,2.75-9.35,0-1.19,0-3.32,0-3.52.07-.48.44-1.12,1.54-1.12a1.4,1.4,0,0,1,1.47,1c.09.24.07,3.41.07,3.87C272.48,94.95,271.38,100.73,269,103.31Zm9.24-3.89c0,.51,0,.55.15.55s2.77-.88,4-4.58a12.94,12.94,0,0,0,.55-2.16,1.27,1.27,0,0,1,1.34-1.12,1.41,1.41,0,0,1,1.54,1.36,13.4,13.4,0,0,1-2.77,6.71c-1.23,1.52-3.5,3.43-5.74,3.43s-2.22-1.47-2.22-2.64V88.72c0-1.19,0-2.35,1.5-2.35s1.61,1.08,1.61,2.35Z"/><path class="cls-7" d="M292.41,100a12.89,12.89,0,0,1-2.38,3.39,1.31,1.31,0,0,1-.88.26,1.62,1.62,0,0,1-1.58-1.54c0-.4.11-.59,1.23-2.24,2.57-3.83,3.15-7.86,3.56-11.09.13-.92.24-1.85,1.54-1.85a1.43,1.43,0,0,1,1.56,1.5C295.47,89.33,294.75,95.72,292.41,100Zm11.22-.09a60.68,60.68,0,0,0-3.43-9.64c-.7-1.58-.79-1.76-.79-2.09a1.44,1.44,0,0,1,1.52-1.34c.84,0,1.21.42,2.22,2.71,3.17,7.26,4.22,12,4.22,12.52a1.6,1.6,0,0,1-2,1.45C304.58,103.42,304.43,103,303.64,99.94Zm1.58-12.32a.86.86,0,0,1-.95.9.79.79,0,0,1-.77-.51,11.34,11.34,0,0,1-.92-2.29c0-.59.44-.81,1-.81C304.6,84.91,305.22,87.09,305.22,87.62Zm2.58-.75a.85.85,0,0,1-.84.92.87.87,0,0,1-.77-.51,7.78,7.78,0,0,1-.86-2.31c0-.55.33-.75.84-.75C307.16,84.23,307.79,86.36,307.79,86.87Z"/><path class="cls-7" d="M326.69,93.67c1.19,0,2.33,0,2.33,1.52s-1.14,1.52-2.33,1.52H312.87c-1.19,0-2.33,0-2.33-1.52s1.14-1.52,2.33-1.52Z"/><path class="cls-7" d="M386.24,100.45c0,2.13-1.1,2.86-2.79,2.86H371.66c-1.17,0-2.35,0-2.35-1.5s1.19-1.47,2.35-1.47h10.41c1.12,0,1.25,0,1.25-1.12V92c0-1.19-.18-1.19-1.52-1.19H371.66c-1.21,0-2.35,0-2.35-1.5s1-1.41,2.35-1.41h11.9a17,17,0,0,1-.81-2,.78.78,0,0,1,.79-.81c1,0,2,2.11,2,2.82a.88.88,0,0,1-.15.53,1.86,1.86,0,0,1,.86,1.74ZM388,87a.8.8,0,0,1-.81.84c-.55,0-.66-.22-1-.92a12,12,0,0,1-.9-2,.74.74,0,0,1,.92-.68C387.06,84.32,388,86.21,388,87Z"/><path class="cls-7" d="M406.84,93.67c1.19,0,2.33,0,2.33,1.52s-1.14,1.52-2.33,1.52H393c-1.19,0-2.33,0-2.33-1.52s1.14-1.52,2.33-1.52Z"/><path class="cls-7" d="M415.11,103.31a1.63,1.63,0,0,1-2.88-1,2.09,2.09,0,0,1,.55-1.25c1.08-1.54,2.75-4,2.75-9.35,0-1.19,0-3.32,0-3.52.07-.48.44-1.12,1.54-1.12a1.4,1.4,0,0,1,1.47,1c.09.24.07,3.41.07,3.87C418.63,94.95,417.53,100.73,415.11,103.31Zm9.24-3.89c0,.51,0,.55.15.55s2.77-.88,4-4.58a12.8,12.8,0,0,0,.55-2.16,1.27,1.27,0,0,1,1.34-1.12A1.41,1.41,0,0,1,432,93.47a13.39,13.39,0,0,1-2.77,6.71c-1.23,1.52-3.5,3.43-5.74,3.43s-2.22-1.47-2.22-2.64V88.72c0-1.19,0-2.35,1.5-2.35s1.61,1.08,1.61,2.35Z"/><path class="cls-7" d="M441.86,102.47c0,1.17,0,2.35-1.52,2.35s-1.58-1.08-1.58-2.35V87.91c0-1.17,0-2.35,1.5-2.35s1.61,1.08,1.61,2.35v3.7a43.34,43.34,0,0,1,7.2,2.42c.84.35,1.67.73,1.67,1.78,0,.66-.46,1.54-1.28,1.54a7,7,0,0,1-1.8-.64,40.29,40.29,0,0,0-5.79-2Zm7.64-15.31a5.15,5.15,0,0,1,.66,1.83.91.91,0,0,1-1,.95c-.53,0-.75-.33-1-.9a7.45,7.45,0,0,1-.75-2,.83.83,0,0,1,.88-.86C448.94,86.12,449.25,86.67,449.49,87.16Zm3.28.95a.93.93,0,0,1-.9.95c-.57,0-.75-.29-1.06-.88a8.33,8.33,0,0,1-.81-2.09.81.81,0,0,1,.84-.84C451.78,85.24,452.77,87.42,452.77,88.1Z"/><path class="cls-7" d="M489.5,89.91c-1.19,0-2.33,0-2.33-1.52s1.14-1.52,2.33-1.52h11.75a2.43,2.43,0,1,1,3,2.09,4.41,4.41,0,0,1,.2,1.5,14.09,14.09,0,0,1-5.35,10.45,17.23,17.23,0,0,1-8.58,3.5,1.52,1.52,0,0,1-1.43-1.67c0-1.19.84-1.34,1.63-1.5,1.1-.22,5.59-1.23,7.88-4a11,11,0,0,0,2.62-6.49c0-.64,0-.86-1.19-.86Zm14.17-4.4a1.1,1.1,0,1,0,0,2.2,1.1,1.1,0,1,0,0-2.2Z"/><path class="cls-7" d="M524,92.11a2.24,2.24,0,0,1,2.44,2.49,9.32,9.32,0,0,1-6.54,8.74,20.33,20.33,0,0,1-5.63,1.14,1.54,1.54,0,0,1-1.63-1.56c0-1.3,1.08-1.39,2.2-1.5,1.58-.13,5.52-.73,7.31-3.1a6.36,6.36,0,0,0,1.17-3c0-.31-.13-.33-.7-.33h-11c-1.12,0-2.35,0-2.35-1.45s1.23-1.45,2.35-1.45Zm-1.14-5.63c1.12,0,2.35,0,2.35,1.45s-1.23,1.45-2.35,1.45h-10c-1.1,0-2.33,0-2.33-1.45s1.23-1.45,2.33-1.45Z"/><path class="cls-7" d="M542,93h5c1.12,0,2.33,0,2.33,1.45s-1.21,1.45-2.33,1.45h-5a8.61,8.61,0,0,1-2,5.92,9.06,9.06,0,0,1-5.79,2.82,1.41,1.41,0,0,1-1.56-1.58c0-1.19.68-1.34,2-1.65,3.15-.73,4.18-2.88,4.18-5.5h-6.38c-1.14,0-2.36,0-2.36-1.45S531.41,93,532.53,93h6.38V90.08a42.94,42.94,0,0,1-4.82.4c-.68,0-1.94,0-1.94-1.52a1.41,1.41,0,0,1,1.54-1.47,36.06,36.06,0,0,0,8.63-.95c.51-.13,2.95-.88,3.26-.88a1.44,1.44,0,0,1,1.3,1.54,1.34,1.34,0,0,1-1.06,1.39,22.11,22.11,0,0,1-3.81,1Z"/><path class="cls-7" d="M560.43,87.86c0-1.19,0-2.35,1.52-2.35s1.63,1,1.63,2.35v2.77H569c1.12,0,2.33,0,2.33,1.45s-1.21,1.45-2.33,1.45h-5.46v.81c0,4-1.1,6.42-3.46,8.41-1.28,1.06-3.17,2.11-4.07,2.11a1.57,1.57,0,0,1-1.54-1.65c0-.88.4-1.06,1.5-1.56,4.42-2,4.42-5.3,4.42-7.17v-.95h-6.07c-1.12,0-2.35,0-2.35-1.45s1.21-1.45,2.35-1.45h6.07Z"/><ellipse class="cls-8" cx="410.53" cy="31.2" rx="11.26" ry="11.39"/><path class="cls-8" d="M390.79,20.88h-6a8.1,8.1,0,0,0,0,1.45c0,.24,0,.47,0,.67,0,.45.12,8.84,8.22,12.42a34.78,34.78,0,0,1-2.22-13.29C390.78,21.68,390.78,21.26,390.79,20.88Z"/><path class="cls-8" d="M406.41,38.48l3.38-2.21a2.26,2.26,0,0,1,2.28,0l3.38,2.21c.62.41,1,.16.78-.57L415.16,34a2.26,2.26,0,0,1,.7-2.16L419,29.33c.58-.47.45-.88-.3-.92l-4-.2a2.28,2.28,0,0,1-1.58-.89l-7.44,11.24C405.8,38.72,406.06,38.71,406.41,38.48Z"/><path class="cls-8" d="M411.41,23.1c-.26-.7-.7-.7-1,0L409,26.87a2.26,2.26,0,0,1-1.84,1.34l-4,.2c-.75,0-.88.45-.3.92L406,31.85a2.26,2.26,0,0,1,.7,2.16l-1.06,3.89a.74.74,0,0,0,0,.66l7.44-11.24a1.79,1.79,0,0,1-.26-.45Z"/><path class="cls-8" d="M431.06,20.88c0,.38,0,.8,0,1.25a34.79,34.79,0,0,1-2.22,13.29c8.09-3.58,8.21-12,8.21-12.42,0-.21,0-.44,0-.67a8,8,0,0,0,0-1.45Z"/><path class="cls-8" d="M405.63,37.91,406.69,34a2.26,2.26,0,0,0-.7-2.16l-3.15-2.53c-.58-.47-.45-.88.3-.92l4-.2A2.26,2.26,0,0,0,409,26.87l1.43-3.77c.27-.7.7-.7,1,0l1.43,3.77a1.79,1.79,0,0,0,.26.45l6.79-10.27H384.78a3.66,3.66,0,0,0-2.72,1.07c-1.21,1.25-1.15,3-1.11,4.33,0,.19,0,.38,0,.55,0,5.37,3.26,14.9,14.84,17.28a20.86,20.86,0,0,0,5.52,4.85l4.35-6.57A.74.74,0,0,1,405.63,37.91ZM384.78,23c0-.21,0-.44,0-.67a8.1,8.1,0,0,1,0-1.45h6c0,.38,0,.8,0,1.25A34.78,34.78,0,0,0,393,35.42C384.9,31.84,384.78,23.45,384.78,23Z"/><path class="cls-8" d="M439.8,18.13a3.66,3.66,0,0,0-2.73-1.07H419.89L413.1,27.32a2.28,2.28,0,0,0,1.58.89l4,.2c.75,0,.88.45.3.92l-3.15,2.53a2.26,2.26,0,0,0-.7,2.16l1.06,3.89c.2.72-.16,1-.78.57l-3.38-2.21a2.26,2.26,0,0,0-2.28,0l-3.38,2.21c-.35.23-.61.24-.74.09l-4.35,6.57a32,32,0,0,0,5.76,2.77c.41.15,1.32,1.3,1.32,1.3v4.3c0,.24,0,.47,0,.69H405.3v2.34h-2c-2.55,0-3.61,1.27-3.61,3.61V72.46h22.56V60.15c0-2.34-1.06-3.61-3.61-3.61h-2V54.2h-3.09c0-.22,0-.45,0-.69v-4.3s.9-1.14,1.32-1.3c4.7-1.75,8.52-4.11,11.28-7.63C437.63,37.9,440.89,28.37,440.89,23c0-.17,0-.35,0-.55C441,21.16,441,19.38,439.8,18.13Zm-2.71,4.2c0,.24,0,.47,0,.67,0,.45-.12,8.84-8.21,12.42a34.79,34.79,0,0,0,2.22-13.29c0-.45,0-.87,0-1.25h6A8,8,0,0,1,437.09,22.33Z"/><path class="cls-8" d="M439.8,18.13a3.66,3.66,0,0,0-2.73-1.07H419.89L413.1,27.32a2.28,2.28,0,0,0,1.58.89l4,.2c.75,0,.88.45.3.92l-3.15,2.53a2.26,2.26,0,0,0-.7,2.16l1.06,3.89c.2.72-.16,1-.78.57l-3.38-2.21a2.26,2.26,0,0,0-2.28,0l-3.38,2.21c-.35.23-.61.24-.74.09l-4.35,6.57a32,32,0,0,0,5.76,2.77c.41.15,1.32,1.3,1.32,1.3v4.3c0,.24,0,.47,0,.69H405.3v2.34h-2c-2.55,0-3.61,1.27-3.61,3.61V72.46h22.56V60.15c0-2.34-1.06-3.61-3.61-3.61h-2V54.2h-3.09c0-.22,0-.45,0-.69v-4.3s.9-1.14,1.32-1.3c4.7-1.75,8.52-4.11,11.28-7.63C437.63,37.9,440.89,28.37,440.89,23c0-.17,0-.35,0-.55C441,21.16,441,19.38,439.8,18.13Zm-2.71,4.2c0,.24,0,.47,0,.67,0,.45-.12,8.84-8.21,12.42a34.79,34.79,0,0,0,2.22-13.29c0-.45,0-.87,0-1.25h6A8,8,0,0,1,437.09,22.33Z"/><ellipse class="cls-9" cx="410.53" cy="31.2" rx="11.26" ry="11.39"/><path class="cls-10" d="M405.63,37.91,406.69,34a2.26,2.26,0,0,0-.7-2.16l-3.15-2.53c-.58-.47-.45-.88.3-.92l4-.2A2.26,2.26,0,0,0,409,26.87l1.43-3.77c.27-.7.7-.7,1,0l1.43,3.77a1.79,1.79,0,0,0,.26.45l6.79-10.27H384.78a3.66,3.66,0,0,0-2.72,1.07c-1.21,1.25-1.15,3-1.11,4.33,0,.19,0,.38,0,.55,0,5.37,3.26,14.9,14.84,17.28a20.86,20.86,0,0,0,5.52,4.85l4.35-6.57A.74.74,0,0,1,405.63,37.91ZM384.78,23c0-.21,0-.44,0-.67a8.1,8.1,0,0,1,0-1.45h6c0,.38,0,.8,0,1.25A34.78,34.78,0,0,0,393,35.42C384.9,31.84,384.78,23.45,384.78,23Z"/><path class="cls-11" d="M439.8,18.13a3.66,3.66,0,0,0-2.73-1.07H419.89L413.1,27.32a2.28,2.28,0,0,0,1.58.89l4,.2c.75,0,.88.45.3.92l-3.15,2.53a2.26,2.26,0,0,0-.7,2.16l1.06,3.89c.2.72-.16,1-.78.57l-3.38-2.21a2.26,2.26,0,0,0-2.28,0l-3.38,2.21c-.35.23-.61.24-.74.09l-4.35,6.57a32,32,0,0,0,5.76,2.77c.41.15,1.32,1.3,1.32,1.3v4.3c0,.24,0,.47,0,.69H405.3v2.34h-2c-2.55,0-3.61,1.27-3.61,3.61V72.46h22.56V60.15c0-2.34-1.06-3.61-3.61-3.61h-2V54.2h-3.09c0-.22,0-.45,0-.69v-4.3s.9-1.14,1.32-1.3c4.7-1.75,8.52-4.11,11.28-7.63C437.63,37.9,440.89,28.37,440.89,23c0-.17,0-.35,0-.55C441,21.16,441,19.38,439.8,18.13Zm-2.71,4.2c0,.24,0,.47,0,.67,0,.45-.12,8.84-8.21,12.42a34.79,34.79,0,0,0,2.22-13.29c0-.45,0-.87,0-1.25h6A8,8,0,0,1,437.09,22.33Z"/><circle class="cls-8" cx="529.14" cy="30.55" r="11"/><path class="cls-8" d="M508.61,20.88h-6a8.1,8.1,0,0,0,0,1.45c0,.24,0,.47,0,.67,0,.45.12,8.84,8.22,12.42a34.78,34.78,0,0,1-2.22-13.29C508.6,21.68,508.61,21.26,508.61,20.88Z"/><path class="cls-8" d="M524.23,38.48l3.38-2.21a2.27,2.27,0,0,1,2.28,0l3.38,2.21c.62.41,1,.16.78-.57L533,34a2.26,2.26,0,0,1,.7-2.16l3.15-2.53c.58-.47.45-.88-.3-.92l-4-.2a2.28,2.28,0,0,1-1.58-.89l-7.44,11.24C523.62,38.72,523.88,38.71,524.23,38.48Z"/><path class="cls-8" d="M529.23,23.1c-.26-.7-.7-.7-1,0l-1.43,3.77A2.26,2.26,0,0,1,525,28.21l-4,.2c-.75,0-.88.45-.3.92l3.15,2.53a2.26,2.26,0,0,1,.7,2.16l-1.06,3.89a.74.74,0,0,0,0,.66l7.44-11.24a1.79,1.79,0,0,1-.26-.45Z"/><path class="cls-8" d="M548.88,20.88c0,.38,0,.8,0,1.25a34.79,34.79,0,0,1-2.22,13.29c8.09-3.58,8.21-12,8.21-12.42,0-.21,0-.44,0-.67a8,8,0,0,0,0-1.45Z"/><path class="cls-8" d="M523.45,37.91,524.51,34a2.26,2.26,0,0,0-.7-2.16l-3.15-2.53c-.58-.47-.45-.88.3-.92l4-.2a2.26,2.26,0,0,0,1.84-1.34l1.43-3.77c.27-.7.7-.7,1,0l1.43,3.77a1.79,1.79,0,0,0,.26.45l6.79-10.27H502.6a3.66,3.66,0,0,0-2.72,1.07c-1.21,1.25-1.15,3-1.11,4.33,0,.19,0,.38,0,.55,0,5.37,3.26,14.9,14.84,17.28a20.86,20.86,0,0,0,5.52,4.85l4.35-6.57A.74.74,0,0,1,523.45,37.91ZM502.6,23c0-.21,0-.44,0-.67a8.1,8.1,0,0,1,0-1.45h6c0,.38,0,.8,0,1.25a34.78,34.78,0,0,0,2.22,13.29C502.73,31.84,502.6,23.45,502.6,23Z"/><path class="cls-8" d="M557.62,18.13a3.66,3.66,0,0,0-2.73-1.07H537.72l-6.79,10.27a2.28,2.28,0,0,0,1.58.89l4,.2c.75,0,.88.45.3.92l-3.15,2.53A2.26,2.26,0,0,0,533,34L534,37.91c.2.72-.16,1-.78.57l-3.38-2.21a2.27,2.27,0,0,0-2.28,0l-3.38,2.21c-.35.23-.61.24-.74.09l-4.35,6.57a32,32,0,0,0,5.76,2.77c.41.15,1.32,1.3,1.32,1.3v4.3c0,.24,0,.47,0,.69h-3.09v2.34h-2c-2.55,0-3.61,1.27-3.61,3.61V72.46H540V60.15c0-2.34-1.06-3.61-3.61-3.61h-2V54.2h-3.09c0-.22,0-.45,0-.69v-4.3s.9-1.14,1.32-1.3c4.7-1.75,8.52-4.11,11.28-7.63C555.46,37.9,558.72,28.37,558.72,23c0-.17,0-.35,0-.55C558.77,21.16,558.83,19.38,557.62,18.13Zm-2.71,4.2c0,.24,0,.47,0,.67,0,.45-.12,8.84-8.21,12.42a34.79,34.79,0,0,0,2.22-13.29c0-.45,0-.87,0-1.25h6A8,8,0,0,1,554.91,22.33Z"/><circle class="cls-12" cx="529.14" cy="30.55" r="11"/><path class="cls-13" d="M523.45,37.91,524.51,34a2.26,2.26,0,0,0-.7-2.16l-3.15-2.53c-.58-.47-.45-.88.3-.92l4-.2a2.26,2.26,0,0,0,1.84-1.34l1.43-3.77c.27-.7.7-.7,1,0l1.43,3.77a1.79,1.79,0,0,0,.26.45l6.79-10.27H502.6a3.66,3.66,0,0,0-2.72,1.07c-1.21,1.25-1.15,3-1.11,4.33,0,.19,0,.38,0,.55,0,5.37,3.26,14.9,14.84,17.28a20.86,20.86,0,0,0,5.52,4.85l4.35-6.57A.74.74,0,0,1,523.45,37.91ZM502.6,23c0-.21,0-.44,0-.67a8.1,8.1,0,0,1,0-1.45h6c0,.38,0,.8,0,1.25a34.78,34.78,0,0,0,2.22,13.29C502.73,31.84,502.6,23.45,502.6,23Z"/><path class="cls-14" d="M557.62,18.13a3.66,3.66,0,0,0-2.73-1.07H537.72l-6.79,10.27a2.28,2.28,0,0,0,1.58.89l4,.2c.75,0,.88.45.3.92l-3.15,2.53A2.26,2.26,0,0,0,533,34L534,37.91c.2.72-.16,1-.78.57l-3.38-2.21a2.27,2.27,0,0,0-2.28,0l-3.38,2.21c-.35.23-.61.24-.74.09l-4.35,6.57a32,32,0,0,0,5.76,2.77c.41.15,1.32,1.3,1.32,1.3v4.3c0,.24,0,.47,0,.69h-3.09v2.34h-2c-2.55,0-3.61,1.27-3.61,3.61V72.46H540V60.15c0-2.34-1.06-3.61-3.61-3.61h-2V54.2h-3.09c0-.22,0-.45,0-.69v-4.3s.9-1.14,1.32-1.3c4.7-1.75,8.52-4.11,11.28-7.63C555.46,37.9,558.72,28.37,558.72,23c0-.17,0-.35,0-.55C558.77,21.16,558.83,19.38,557.62,18.13Zm-2.71,4.2c0,.24,0,.47,0,.67,0,.45-.12,8.84-8.21,12.42a34.79,34.79,0,0,0,2.22-13.29c0-.45,0-.87,0-1.25h6A8,8,0,0,1,554.91,22.33Z"/><ellipse class="cls-8" cx="286.39" cy="31.46" rx="11.26" ry="11.39"/><path class="cls-8" d="M266.65,20.88h-6a8.11,8.11,0,0,0,0,1.45c0,.24,0,.47,0,.67,0,.45.12,8.84,8.22,12.42a34.78,34.78,0,0,1-2.22-13.29C266.63,21.68,266.64,21.26,266.65,20.88Z"/><path class="cls-8" d="M306.92,20.88c0,.38,0,.8,0,1.25a34.79,34.79,0,0,1-2.22,13.29c8.09-3.58,8.21-12,8.21-12.42,0-.21,0-.44,0-.67a8,8,0,0,0,0-1.45Z"/><path class="cls-8" d="M315.65,18.13a3.66,3.66,0,0,0-2.73-1.07H296.1l-6.94,10.49a2.23,2.23,0,0,0,1.38.66l4,.2c.75,0,.88.45.3.92l-3.15,2.53A2.26,2.26,0,0,0,291,34l1.06,3.89c.2.72-.16,1-.78.57l-3.38-2.21a2.26,2.26,0,0,0-2.28,0l-3.38,2.21a1.06,1.06,0,0,1-.46.19l-4.38,6.62a32.39,32.39,0,0,0,5.51,2.62c.41.15,1.32,1.3,1.32,1.3v4.3c0,.24,0,.47,0,.69h-3.09v2.34h-2c-2.55,0-3.61,1.27-3.61,3.61V72.46h22.56V60.15c0-2.34-1.06-3.61-3.61-3.61h-2V54.2h-3.09c0-.22,0-.45,0-.69v-4.3s.9-1.14,1.32-1.3c4.7-1.75,8.52-4.11,11.28-7.63C313.49,37.9,316.75,28.37,316.75,23c0-.17,0-.35,0-.55C316.81,21.16,316.87,19.38,315.65,18.13Zm-2.71,4.2c0,.24,0,.47,0,.67,0,.45-.12,8.84-8.21,12.42a34.79,34.79,0,0,0,2.22-13.29c0-.45,0-.87,0-1.25h6A8,8,0,0,1,312.94,22.33Z"/><path class="cls-8" d="M315.65,18.13a3.66,3.66,0,0,0-2.73-1.07H296.1l-6.94,10.49a2.23,2.23,0,0,0,1.38.66l4,.2c.75,0,.88.45.3.92l-3.15,2.53A2.26,2.26,0,0,0,291,34l1.06,3.89c.2.72-.16,1-.78.57l-3.38-2.21a2.26,2.26,0,0,0-2.28,0l-3.38,2.21a1.06,1.06,0,0,1-.46.19l-4.38,6.62a32.39,32.39,0,0,0,5.51,2.62c.41.15,1.32,1.3,1.32,1.3v4.3c0,.24,0,.47,0,.69h-3.09v2.34h-2c-2.55,0-3.61,1.27-3.61,3.61V72.46h22.56V60.15c0-2.34-1.06-3.61-3.61-3.61h-2V54.2h-3.09c0-.22,0-.45,0-.69v-4.3s.9-1.14,1.32-1.3c4.7-1.75,8.52-4.11,11.28-7.63C313.49,37.9,316.75,28.37,316.75,23c0-.17,0-.35,0-.55C316.81,21.16,316.87,19.38,315.65,18.13Zm-2.71,4.2c0,.24,0,.47,0,.67,0,.45-.12,8.84-8.21,12.42a34.79,34.79,0,0,0,2.22-13.29c0-.45,0-.87,0-1.25h6A8,8,0,0,1,312.94,22.33Z"/><path class="cls-8" d="M281.49,37.91,282.55,34a2.26,2.26,0,0,0-.7-2.16l-3.15-2.53c-.58-.47-.45-.88.3-.92l4-.2a2.26,2.26,0,0,0,1.84-1.34l1.43-3.77c.27-.7.7-.7,1,0l1.43,3.77a1.94,1.94,0,0,0,.46.68l6.94-10.49H260.63a3.66,3.66,0,0,0-2.72,1.07c-1.21,1.25-1.15,3-1.11,4.33,0,.19,0,.38,0,.55,0,5.37,3.26,14.9,14.84,17.28a21,21,0,0,0,5.77,5l4.38-6.62C281.49,38.7,281.35,38.43,281.49,37.91ZM260.63,23c0-.21,0-.44,0-.67a8.11,8.11,0,0,1,0-1.45h6c0,.38,0,.8,0,1.25a34.78,34.78,0,0,0,2.22,13.29C260.76,31.84,260.63,23.45,260.63,23Z"/><ellipse class="cls-15" cx="286.39" cy="31.46" rx="11.26" ry="11.39"/><path class="cls-16" d="M315.65,18.13a3.66,3.66,0,0,0-2.73-1.07H296.1l-6.94,10.49a2.23,2.23,0,0,0,1.38.66l4,.2c.75,0,.88.45.3.92l-3.15,2.53A2.26,2.26,0,0,0,291,34l1.06,3.89c.2.72-.16,1-.78.57l-3.38-2.21a2.26,2.26,0,0,0-2.28,0l-3.38,2.21a1.06,1.06,0,0,1-.46.19l-4.38,6.62a32.39,32.39,0,0,0,5.51,2.62c.41.15,1.32,1.3,1.32,1.3v4.3c0,.24,0,.47,0,.69h-3.09v2.34h-2c-2.55,0-3.61,1.27-3.61,3.61V72.46h22.56V60.15c0-2.34-1.06-3.61-3.61-3.61h-2V54.2h-3.09c0-.22,0-.45,0-.69v-4.3s.9-1.14,1.32-1.3c4.7-1.75,8.52-4.11,11.28-7.63C313.49,37.9,316.75,28.37,316.75,23c0-.17,0-.35,0-.55C316.81,21.16,316.87,19.38,315.65,18.13Zm-2.71,4.2c0,.24,0,.47,0,.67,0,.45-.12,8.84-8.21,12.42a34.79,34.79,0,0,0,2.22-13.29c0-.45,0-.87,0-1.25h6A8,8,0,0,1,312.94,22.33Z"/><path class="cls-17" d="M281.49,37.91,282.55,34a2.26,2.26,0,0,0-.7-2.16l-3.15-2.53c-.58-.47-.45-.88.3-.92l4-.2a2.26,2.26,0,0,0,1.84-1.34l1.43-3.77c.27-.7.7-.7,1,0l1.43,3.77a1.94,1.94,0,0,0,.46.68l6.94-10.49H260.63a3.66,3.66,0,0,0-2.72,1.07c-1.21,1.25-1.15,3-1.11,4.33,0,.19,0,.38,0,.55,0,5.37,3.26,14.9,14.84,17.28a21,21,0,0,0,5.77,5l4.38-6.62C281.49,38.7,281.35,38.43,281.49,37.91ZM260.63,23c0-.21,0-.44,0-.67a8.11,8.11,0,0,1,0-1.45h6c0,.38,0,.8,0,1.25a34.78,34.78,0,0,0,2.22,13.29C260.76,31.84,260.63,23.45,260.63,23Z"/><path class="cls-8" d="M24.9,20.88h-6a8.1,8.1,0,0,0,0,1.45c0,.24,0,.47,0,.67,0,.45.12,8.84,8.22,12.42a34.78,34.78,0,0,1-2.22-13.29C24.88,21.68,24.89,21.26,24.9,20.88Z"/><path class="cls-8" d="M65.17,20.88c0,.38,0,.8,0,1.25A34.79,34.79,0,0,1,63,35.42c8.09-3.58,8.21-12,8.21-12.42,0-.21,0-.44,0-.67a8,8,0,0,0,0-1.45Z"/><path class="cls-8" d="M24.9,20.88h-6a8.1,8.1,0,0,0,0,1.45c0,.24,0,.47,0,.67,0,.45.12,8.84,8.22,12.42a34.78,34.78,0,0,1-2.22-13.29C24.88,21.68,24.89,21.26,24.9,20.88Z"/><path class="cls-8" d="M65.17,20.88c0,.38,0,.8,0,1.25A34.79,34.79,0,0,1,63,35.42c8.09-3.58,8.21-12,8.21-12.42,0-.21,0-.44,0-.67a8,8,0,0,0,0-1.45Z"/><path class="cls-8" d="M18.88,17.06a3.66,3.66,0,0,0-2.72,1.07c-1.21,1.25-1.15,3-1.11,4.33,0,.19,0,.38,0,.55,0,5.37,3.26,14.9,14.84,17.28a21,21,0,0,0,5.77,5L54.35,17.06Zm0,5.95c0-.21,0-.44,0-.67a8.1,8.1,0,0,1,0-1.45h6c0,.38,0,.8,0,1.25A34.78,34.78,0,0,0,27.1,35.42C19,31.84,18.88,23.45,18.88,23Z"/><path class="cls-8" d="M73.91,18.13a3.66,3.66,0,0,0-2.73-1.07H54.35L35.67,45.29a32.38,32.38,0,0,0,5.51,2.62c.41.15,1.32,1.3,1.32,1.3v4.3c0,.24,0,.47,0,.69H39.41v2.34h-2c-2.55,0-3.61,1.27-3.61,3.61V72.46H56.31V60.15c0-2.34-1.06-3.61-3.61-3.61h-2V54.2H47.57c0-.22,0-.45,0-.69v-4.3s.9-1.14,1.32-1.3c4.7-1.75,8.52-4.11,11.28-7.63C71.74,37.9,75,28.37,75,23c0-.17,0-.35,0-.55C75.06,21.16,75.12,19.38,73.91,18.13Zm-2.71,4.2c0,.24,0,.47,0,.67,0,.45-.12,8.84-8.21,12.42a34.79,34.79,0,0,0,2.22-13.29c0-.45,0-.87,0-1.25h6A8,8,0,0,1,71.2,22.33Z"/><path class="cls-18" d="M18.88,17.06a3.66,3.66,0,0,0-2.72,1.07c-1.21,1.25-1.15,3-1.11,4.33,0,.19,0,.38,0,.55,0,5.37,3.26,14.9,14.84,17.28a21,21,0,0,0,5.77,5L54.35,17.06Zm0,5.95c0-.21,0-.44,0-.67a8.1,8.1,0,0,1,0-1.45h6c0,.38,0,.8,0,1.25A34.78,34.78,0,0,0,27.1,35.42C19,31.84,18.88,23.45,18.88,23Z"/><path class="cls-19" d="M73.91,18.13a3.66,3.66,0,0,0-2.73-1.07H54.35L35.67,45.29a32.38,32.38,0,0,0,5.51,2.62c.41.15,1.32,1.3,1.32,1.3v4.3c0,.24,0,.47,0,.69H39.41v2.34h-2c-2.55,0-3.61,1.27-3.61,3.61V72.46H56.31V60.15c0-2.34-1.06-3.61-3.61-3.61h-2V54.2H47.57c0-.22,0-.45,0-.69v-4.3s.9-1.14,1.32-1.3c4.7-1.75,8.52-4.11,11.28-7.63C71.74,37.9,75,28.37,75,23c0-.17,0-.35,0-.55C75.06,21.16,75.12,19.38,73.91,18.13Zm-2.71,4.2c0,.24,0,.47,0,.67,0,.45-.12,8.84-8.21,12.42a34.79,34.79,0,0,0,2.22-13.29c0-.45,0-.87,0-1.25h6A8,8,0,0,1,71.2,22.33Z"/><path class="cls-8" d="M144.5,20.88h-6a8.1,8.1,0,0,0,0,1.45c0,.24,0,.47,0,.67,0,.45.12,8.84,8.22,12.42a34.78,34.78,0,0,1-2.22-13.29C144.49,21.68,144.49,21.26,144.5,20.88Z"/><path class="cls-8" d="M184.77,20.88c0,.38,0,.8,0,1.25a34.79,34.79,0,0,1-2.22,13.29c8.09-3.58,8.21-12,8.21-12.42,0-.21,0-.44,0-.67a8,8,0,0,0,0-1.45Z"/><path class="cls-8" d="M138.49,17.06a3.66,3.66,0,0,0-2.72,1.07c-1.21,1.25-1.15,3-1.11,4.33,0,.19,0,.38,0,.55,0,5.37,3.26,14.9,14.84,17.28a21,21,0,0,0,5.77,5L174,17.06Zm0,5.95c0-.21,0-.44,0-.67a8.1,8.1,0,0,1,0-1.45h6c0,.38,0,.8,0,1.25a34.78,34.78,0,0,0,2.22,13.29C138.61,31.84,138.49,23.45,138.49,23Z"/><path class="cls-8" d="M193.51,18.13a3.66,3.66,0,0,0-2.73-1.07H174L155.28,45.29a32.38,32.38,0,0,0,5.51,2.62c.41.15,1.32,1.3,1.32,1.3v4.3c0,.24,0,.47,0,.69H159v2.34h-2c-2.55,0-3.61,1.27-3.61,3.61V72.46h22.56V60.15c0-2.34-1.06-3.61-3.61-3.61h-2V54.2h-3.09c0-.22,0-.45,0-.69v-4.3s.9-1.14,1.32-1.3c4.7-1.75,8.52-4.11,11.28-7.63C191.34,37.9,194.61,28.37,194.61,23c0-.17,0-.35,0-.55C194.66,21.16,194.72,19.38,193.51,18.13Zm-2.71,4.2c0,.24,0,.47,0,.67,0,.45-.12,8.84-8.21,12.42a34.79,34.79,0,0,0,2.22-13.29c0-.45,0-.87,0-1.25h6A8,8,0,0,1,190.8,22.33Z"/><path class="cls-20" d="M138.49,17.06a3.66,3.66,0,0,0-2.72,1.07c-1.21,1.25-1.15,3-1.11,4.33,0,.19,0,.38,0,.55,0,5.37,3.26,14.9,14.84,17.28a21,21,0,0,0,5.77,5L174,17.06Zm0,5.95c0-.21,0-.44,0-.67a8.1,8.1,0,0,1,0-1.45h6c0,.38,0,.8,0,1.25a34.78,34.78,0,0,0,2.22,13.29C138.61,31.84,138.49,23.45,138.49,23Z"/><path class="cls-21" d="M193.51,18.13a3.66,3.66,0,0,0-2.73-1.07H174L155.28,45.29a32.38,32.38,0,0,0,5.51,2.62c.41.15,1.32,1.3,1.32,1.3v4.3c0,.24,0,.47,0,.69H159v2.34h-2c-2.55,0-3.61,1.27-3.61,3.61V72.46h22.56V60.15c0-2.34-1.06-3.61-3.61-3.61h-2V54.2h-3.09c0-.22,0-.45,0-.69v-4.3s.9-1.14,1.32-1.3c4.7-1.75,8.52-4.11,11.28-7.63C191.34,37.9,194.61,28.37,194.61,23c0-.17,0-.35,0-.55C194.66,21.16,194.72,19.38,193.51,18.13Zm-2.71,4.2c0,.24,0,.47,0,.67,0,.45-.12,8.84-8.21,12.42a34.79,34.79,0,0,0,2.22-13.29c0-.45,0-.87,0-1.25h6A8,8,0,0,1,190.8,22.33Z"/></svg>