<svg xmlns="http://www.w3.org/2000/svg" xmlns:xlink="http://www.w3.org/1999/xlink" viewBox="0 0 310 210"><defs><style>.cls-1{fill:none;}.cls-2{isolation:isolate;}.cls-3{fill:#ffc1bc;}.cls-4{fill:#f1d56d;}.cls-5{clip-path:url(#clip-path);}.cls-6{fill:#e7b838;}.cls-7{fill:#fdf9dc;}.cls-15,.cls-8{fill:#e7e9ee;}.cls-8{mix-blend-mode:multiply;}.cls-9{fill:#fff;}.cls-10{fill:#8cccf6;}.cls-11{clip-path:url(#clip-path-2);}.cls-12{fill:#cbf5ff;}.cls-13{fill:#f84a0e;}.cls-14{fill:#ffb220;}.cls-16{fill:#dd4731;}.cls-17{fill:#b29605;}.cls-18{fill:#cebe27;}.cls-19{fill:#b4ef78;}.cls-20{clip-path:url(#clip-path-3);}.cls-21{fill:#6cd138;}.cls-22{clip-path:url(#clip-path-4);}.cls-23{fill:#ff928b;}.cls-24{fill:#f84a20;}.cls-25{fill:#c6b405;}.cls-26{fill:#066b74;}</style><clipPath id="clip-path"><path class="cls-1" d="M243.6,83.33H66.4l8.91,84.28h0c0,.14,0,.27,0,.41,1,9.88,36.69,17.7,79.64,17.7s78.6-7.82,79.64-17.7c0-.14,0-.27,0-.41h0l8.91-84.28"/></clipPath><clipPath id="clip-path-2"><path class="cls-1" d="M157.63,73h-3a4.25,4.25,0,0,1-4.39-3.85L148.37,28c-.17-3.82,2.33-7,5.6-7h4.27c3.26,0,5.76,3.22,5.6,7L162,69.15A4.25,4.25,0,0,1,157.63,73"/></clipPath><clipPath id="clip-path-3"><path class="cls-1" d="M220.2,86.9l-3-.53a4.23,4.23,0,0,1-3.66-4.5l5.27-40.32c.49-3.74,3.51-6.44,6.72-5.88l4.2.74c3.21.57,5.12,4.13,4.3,7.82l-8.84,39.69a4.23,4.23,0,0,1-5,3"/></clipPath><clipPath id="clip-path-4"><path class="cls-1" d="M91.39,86.82l-3,.53a4.24,4.24,0,0,1-5-3L74.49,44.27c-.83-3.72,1.08-7.32,4.29-7.88l4.2-.74c3.21-.57,6.23,2.16,6.73,5.94L95,82.28a4.24,4.24,0,0,1-3.66,4.54"/></clipPath></defs><title>img-rank-birth</title><g class="cls-2"><g id="レイヤー_1" data-name="レイヤー 1"><path class="cls-3" d="M283.24,161.19s0,0,0-.06,0,0,0-.07c0-4.73-8.42-8.56-18.76-8.59,8.9-2.33,12.12-7.5,7.15-11.63s-16-5.62-25.06-3.54c5.73-3.73,4.14-8.9-3.82-11.74h0c-7.86-2.81-19.06-2.31-25.64,1,2.54-4.3-2.54-8.83-11.88-10.36s-19.4.49-23.47,4.48c-.31-4.39-7.87-8-17.66-8.32h0c-9.76-.29-18.27,2.86-19.85,7.18-2.85-4.18-12.24-6.78-21.84-5.88s-16.05,5-15,9.42c-5.34-3.71-16.11-5-24.8-2.84s-12.23,7.09-8.11,11.17c-7.87-2.8-19.24-2.33-25.85,1.15s-6,8.81,1.41,12c-10-1.11-20.12,1.64-22.73,6.2s3.35,9.26,13.33,10.5c-10,1.25-15.9,5.94-13.25,10.51s12.78,7.29,22.76,6.17c-7.39,3.16-8.05,8.45-1.34,12s18,3.93,25.85,1.12c-4.1,4.09-.63,9,8.16,11.17h0c8.7,2.15,19.47.86,24.79-2.86-1.08,4.39,5.33,8.51,15,9.41s19-1.71,21.81-5.9c1.59,4.31,10.11,7.46,19.88,7.16S181.69,206,182,201.64c4.08,4,14.23,6,23.49,4.46h0c9.34-1.53,14.39-6.07,11.84-10.37,6.6,3.33,17.8,3.81,25.65,1h0c7.94-2.85,9.51-8,3.76-11.74,9.06,2.08,20.15.53,25-3.57s1.69-9.29-7.23-11.62C274.89,169.76,283.24,165.92,283.24,161.19ZM55.82,135.41c3.42-1.8,9.38-2,13.32-.43s4.36,4.28.95,6.08-9.38,2-13.32.43S52.4,137.21,55.82,135.41ZM36.51,151.83c1.32-2.3,6.47-3.69,11.52-3.09s8.07,3,6.76,5.26-6.47,3.69-11.52,3.09S35.2,154.14,36.51,151.83Zm11.61,21.89c-5,.61-10.21-.77-11.54-3.07s1.68-4.66,6.72-5.27,10.21.77,11.54,3.07S53.17,173.12,48.12,173.72Zm21.19,13.74C65.38,189,59.41,188.84,56,187h0c-3.43-1.8-3-4.52.91-6.09s9.9-1.38,13.33.42S73.25,185.9,69.31,187.47Zm17.85-63.41h0c4.58-1.14,10.32-.37,12.81,1.73s.8,4.71-3.78,5.85h0c-4.58,1.14-10.32.37-12.81-1.73S82.59,125.19,87.17,124.05Zm13,72.59c-2.49,2.09-8.22,2.87-12.8,1.74h0c-4.59-1.14-6.29-3.75-3.8-5.85s8.22-2.87,12.81-1.74h0C101,191.93,102.67,194.55,100.19,196.64Zm24.13-78.73c5.11-.48,10.1,1,11.15,3.36s-2.24,4.61-7.35,5.09S118,125.33,117,123,119.2,118.39,124.31,117.91Zm11.38,83.22c-1,2.33-6,3.84-11.14,3.36h0c-5.11-.48-8.41-2.75-7.37-5.09s6-3.84,11.14-3.36h0C133.44,196.51,136.73,198.79,135.69,201.13Zm17.76-80.41c.34-2.38,4.83-4.18,10-4h0c5.21.15,9.15,2.21,8.82,4.58s-4.83,4.18-10,4S153.12,123.09,153.45,120.72Zm10.28,85h0c-5.21.16-9.7-1.64-10.05-4s3.59-4.43,8.8-4.59h0c5.21-.16,9.7,1.64,10,4S168.93,205.52,163.73,205.68ZM190,122.9c1.75-2.24,7.16-3.41,12.07-2.61h0c4.91.8,7.47,3.27,5.72,5.51s-7.16,3.41-12.07,2.61h0C190.78,127.61,188.22,125.14,190,122.9ZM202.28,202c-4.91.8-10.32-.36-12.08-2.6s.79-4.71,5.7-5.52,10.32.36,12.08,2.6S207.19,201.24,202.28,202Zm21.39-72.35c3.21-1.88,9.15-2.21,13.26-.74h0c4.11,1.47,4.84,4.18,1.62,6.05s-9.15,2.21-13.26.74h0C221.18,134.29,220.46,131.58,223.67,129.7Zm13.45,63.64c-4.1,1.47-10,1.14-13.26-.73s-2.51-4.58,1.6-6.06,10-1.14,13.26.73S241.23,191.87,237.12,193.35Zm13.4-52.14c4.57-1.15,10.31-.38,12.83,1.7h0c2.51,2.09.84,4.71-3.73,5.86s-10.31.38-12.83-1.7S246,142.36,250.53,141.21Zm12.95,38.15h0c-2.5,2.09-8.24,2.86-12.82,1.72s-6.26-3.76-3.77-5.85h0c2.5-2.09,8.24-2.86,12.82-1.72S266,177.27,263.47,179.36Zm.88-13.86c-5.22,0-9.45-1.93-9.45-4.31h0s0,0,0,0,0,0,0,0c0-2.38,4.2-4.32,9.42-4.33s9.46,1.92,9.48,4.3c0,0,0,0,0,.06s0,0,0,.06h0C273.8,163.57,269.57,165.5,264.35,165.5Z"/><path class="cls-4" d="M243.6,83.33H66.4l8.91,84.28h0c0,.14,0,.27,0,.41,1,9.88,36.69,17.7,79.64,17.7s78.6-7.82,79.64-17.7c0-.14,0-.27,0-.41h0l8.91-84.28"/><g class="cls-5"><path class="cls-6" d="M87.24,131.18a1.14,1.14,0,0,0-.73.27,1,1,0,0,0-.29.66.87.87,0,0,0,.29.66,1.24,1.24,0,0,0,.74.26,1.23,1.23,0,0,0,.74-.26,1,1,0,0,0,.3-.66.89.89,0,0,0-.33-.66,1.07,1.07,0,0,0-.71-.27"/><path class="cls-6" d="M99,130.53a1.16,1.16,0,0,0-.73.26.88.88,0,0,0,0,1.31,1.24,1.24,0,0,0,.74.26,1.23,1.23,0,0,0,.74-.26,1,1,0,0,0,.3-.66.89.89,0,0,0-.33-.66,1.06,1.06,0,0,0-.71-.26"/><path class="cls-6" d="M90.19,148.23a1,1,0,0,0-.7.26.81.81,0,0,0-.33.66,1,1,0,0,0,.29.66,1.24,1.24,0,0,0,.74.26,1.23,1.23,0,0,0,.74-.26,1,1,0,0,0,.3-.66.88.88,0,0,0-.3-.66,1.17,1.17,0,0,0-.74-.26"/><path class="cls-6" d="M103.47,150.2a1,1,0,0,0-.7.26.81.81,0,0,0-.33.66,1,1,0,0,0,.29.66,1.24,1.24,0,0,0,.74.26,1.11,1.11,0,0,0,.74-.29.81.81,0,0,0,.3-.63,1,1,0,0,0-.3-.66,1.17,1.17,0,0,0-.74-.26"/><path class="cls-6" d="M103.48,155.44a1,1,0,0,0-.71.26.82.82,0,0,0-.33.66,1,1,0,0,0,.29.66,1.24,1.24,0,0,0,.74.26,1.11,1.11,0,0,0,.74-.29.91.91,0,0,0,.3-.63,1,1,0,0,0-.3-.66,1.11,1.11,0,0,0-.73-.26"/><path class="cls-6" d="M79.87,167.24a1.16,1.16,0,0,0-.73.26.88.88,0,0,0,0,1.31,1.24,1.24,0,0,0,.74.26,1.23,1.23,0,0,0,.74-.26,1,1,0,0,0,.3-.66.85.85,0,0,0-.33-.66,1.06,1.06,0,0,0-.71-.26"/><path class="cls-6" d="M126.33,141.68a1,1,0,0,0-.7.26.81.81,0,0,0-.33.66.87.87,0,0,0,.29.63,1.12,1.12,0,0,0,.74.29,1.23,1.23,0,0,0,.74-.26,1,1,0,0,0,.3-.66.88.88,0,0,0-.3-.66,1.17,1.17,0,0,0-.74-.26"/><path class="cls-6" d="M165.41,139.71a1.1,1.1,0,0,0-.73.26,1,1,0,0,0-.29.66.88.88,0,0,0,.29.63,1.12,1.12,0,0,0,.74.29,1.08,1.08,0,0,0,.71-.26.85.85,0,0,0,.33-.66,1,1,0,0,0-.3-.66,1.17,1.17,0,0,0-.75-.26"/><path class="cls-6" d="M157.31,154.14a1.14,1.14,0,0,0-.74.25.93.93,0,0,0-.29.66,1,1,0,0,0,.29.66,1.24,1.24,0,0,0,.74.26,1.23,1.23,0,0,0,.74-.26.87.87,0,0,0,0-1.31,1.1,1.1,0,0,0-.73-.25"/><path class="cls-6" d="M165.41,168.55a1.1,1.1,0,0,0-.73.26.88.88,0,0,0,0,1.31,1.24,1.24,0,0,0,.74.26,1.23,1.23,0,0,0,.74-.26.87.87,0,0,0,0-1.31,1.17,1.17,0,0,0-.75-.26"/><path class="cls-6" d="M116,179a1.12,1.12,0,0,0-.74.26.88.88,0,0,0,0,1.31,1.24,1.24,0,0,0,.74.26,1.23,1.23,0,0,0,.74-.26,1,1,0,0,0,.3-.66.86.86,0,0,0-.3-.66A1.11,1.11,0,0,0,116,179"/><path class="cls-6" d="M127.81,122.68a1,1,0,0,0-.71.25.82.82,0,0,0-.33.66,1,1,0,0,0,.29.66,1.24,1.24,0,0,0,.74.26,1.23,1.23,0,0,0,.74-.26,1,1,0,0,0,.3-.66.88.88,0,0,0-.3-.66,1.16,1.16,0,0,0-.74-.25"/><path class="cls-6" d="M75.45,124a1,1,0,0,0-.71.26.81.81,0,0,0-.33.66,1,1,0,0,0,.29.66,1.24,1.24,0,0,0,.74.26,1.23,1.23,0,0,0,.74-.26,1,1,0,0,0,.3-.66.88.88,0,0,0-.3-.66,1.11,1.11,0,0,0-.73-.26"/><path class="cls-6" d="M92.4,118.73a1.1,1.1,0,0,0-.73.26.88.88,0,0,0,0,1.31,1.24,1.24,0,0,0,.74.26,1.3,1.3,0,0,0,.74-.26.87.87,0,0,0,0-1.31,1.17,1.17,0,0,0-.75-.26"/><path class="cls-6" d="M110.86,134.47a1.18,1.18,0,0,0-.75.26.88.88,0,0,0,0,1.31,1.24,1.24,0,0,0,.74.26,1.23,1.23,0,0,0,.74-.26.87.87,0,0,0,0-1.31,1.09,1.09,0,0,0-.73-.26"/><path class="cls-6" d="M100.52,137.09a1.16,1.16,0,0,0-.74.26.88.88,0,0,0,0,1.31,1.24,1.24,0,0,0,.74.26,1.16,1.16,0,0,0,.74-.26.87.87,0,0,0,0-1.31,1.15,1.15,0,0,0-.74-.26"/><path class="cls-6" d="M91.66,167.24a1.1,1.1,0,0,0-.73.26,1,1,0,0,0-.29.66.83.83,0,0,0,.29.63,1.12,1.12,0,0,0,.74.29,1.08,1.08,0,0,0,.71-.26.85.85,0,0,0,.33-.66,1,1,0,0,0-.3-.66,1.17,1.17,0,0,0-.75-.26"/><path class="cls-6" d="M118.22,170.52a1.16,1.16,0,0,0-.73.26,1,1,0,0,0-.29.66.88.88,0,0,0,.29.63,1,1,0,0,0,.74.29,1.17,1.17,0,0,0,.74-.26,1,1,0,0,0,.3-.66.89.89,0,0,0-.33-.66,1.06,1.06,0,0,0-.71-.26"/><path class="cls-6" d="M140.34,158.07a1,1,0,0,0-.71.25.82.82,0,0,0-.33.66,1,1,0,0,0,.29.66,1.24,1.24,0,0,0,.74.26,1.23,1.23,0,0,0,.74-.26,1,1,0,0,0,.3-.66.88.88,0,0,0-.3-.66,1.16,1.16,0,0,0-.74-.25"/><path class="cls-6" d="M146.24,141.69a1,1,0,0,0-.7.24.81.81,0,0,0-.33.66,1,1,0,0,0,.29.66,1.24,1.24,0,0,0,.74.26,1.23,1.23,0,0,0,.74-.26,1,1,0,0,0,.3-.66.79.79,0,0,0-.3-.63,1.07,1.07,0,0,0-.74-.27"/><path class="cls-6" d="M138.14,132.49a1.12,1.12,0,0,0-.75.29.78.78,0,0,0-.29.63.87.87,0,0,0,.29.66,1.24,1.24,0,0,0,.74.26,1.23,1.23,0,0,0,.74-.26,1,1,0,0,0,.3-.66.85.85,0,0,0-.33-.66,1,1,0,0,0-.7-.26"/><path class="cls-6" d="M141.82,125.3a1,1,0,0,0-.71.25.81.81,0,0,0-.33.66.87.87,0,0,0,.29.63,1.07,1.07,0,0,0,.74.29,1.23,1.23,0,0,0,.74-.26,1,1,0,0,0,.3-.66.88.88,0,0,0-.3-.66,1.16,1.16,0,0,0-.74-.25"/><path class="cls-6" d="M164,128.58a1.22,1.22,0,0,0-.76.25.93.93,0,0,0-.29.66.89.89,0,0,0,.29.66,1.24,1.24,0,0,0,.74.26,1.23,1.23,0,0,0,.74-.26.87.87,0,0,0,0-1.31,1.08,1.08,0,0,0-.72-.25"/><path class="cls-6" d="M173.53,135.13a1.19,1.19,0,0,0-.74.25.93.93,0,0,0-.29.66.89.89,0,0,0,.29.66,1.24,1.24,0,0,0,.74.26,1.23,1.23,0,0,0,.74-.26,1,1,0,0,0,.3-.66.89.89,0,0,0-.33-.66,1.05,1.05,0,0,0-.7-.25"/><path class="cls-6" d="M158.79,138.41a1.14,1.14,0,0,0-.74.25.93.93,0,0,0-.29.66,1,1,0,0,0,.29.66,1.24,1.24,0,0,0,.74.26,1.23,1.23,0,0,0,.74-.26.87.87,0,0,0,0-1.31,1.1,1.1,0,0,0-.73-.25"/><path class="cls-6" d="M142.54,175.11a1.05,1.05,0,0,0-.73.26.88.88,0,0,0,0,1.31,1.24,1.24,0,0,0,.74.26,1.23,1.23,0,0,0,.74-.26.87.87,0,0,0,0-1.31,1.13,1.13,0,0,0-.75-.26"/><path class="cls-6" d="M128.55,175.12a1.14,1.14,0,0,0-.74.25.88.88,0,0,0,0,1.31,1.24,1.24,0,0,0,.74.26,1.23,1.23,0,0,0,.74-.26.87.87,0,0,0,0-1.31,1.1,1.1,0,0,0-.73-.25"/><path class="cls-6" d="M156.57,180.36a1,1,0,0,0-.7.25.81.81,0,0,0-.33.66,1,1,0,0,0,.29.66,1.24,1.24,0,0,0,.74.26,1.23,1.23,0,0,0,.74-.26,1,1,0,0,0,.3-.66.88.88,0,0,0-.3-.66,1.16,1.16,0,0,0-.74-.25"/><path class="cls-6" d="M177.21,174.46a1.12,1.12,0,0,0-.73.25.88.88,0,0,0,0,1.31,1.24,1.24,0,0,0,.74.26h0v-1.82h0"/><path class="cls-6" d="M168.34,182.32a1,1,0,0,0-.72.26.88.88,0,0,0,0,1.31,1.24,1.24,0,0,0,.74.26,1.23,1.23,0,0,0,.74-.26.86.86,0,0,0,.3-.66,1,1,0,0,0-.3-.66,1.2,1.2,0,0,0-.76-.26"/><path class="cls-6" d="M172.05,175.77a1,1,0,0,0-.71.25.81.81,0,0,0-.33.66,1,1,0,0,0,.29.66,1.24,1.24,0,0,0,.74.26,1.23,1.23,0,0,0,.74-.26,1,1,0,0,0,.3-.66.88.88,0,0,0-.3-.66,1.16,1.16,0,0,0-.74-.25"/><path class="cls-6" d="M104.2,171.72a2,2,0,0,0-1.35.47,1.58,1.58,0,0,0,0,2.41,2.09,2.09,0,0,0,2.71,0,1.58,1.58,0,0,0,0-2.41,2.07,2.07,0,0,0-1.37-.47"/><path class="cls-6" d="M126.33,129.77a2,2,0,0,0-1.36.47,1.58,1.58,0,0,0,0,2.41,2.09,2.09,0,0,0,2.71,0,1.64,1.64,0,0,0,.56-1.21,1.6,1.6,0,0,0-.56-1.21,2,2,0,0,0-1.36-.47"/><path class="cls-6" d="M153.62,129.11a2.06,2.06,0,0,0-1.36.47,1.58,1.58,0,0,0,0,2.41,2.09,2.09,0,0,0,2.71,0,1.58,1.58,0,0,0,0-2.41,2,2,0,0,0-1.36-.47"/><path class="cls-6" d="M169.85,159.25a2.06,2.06,0,0,0-1.36.48,1.58,1.58,0,0,0,0,2.41,2.09,2.09,0,0,0,2.71,0,1.58,1.58,0,0,0,0-2.41,2,2,0,0,0-1.35-.48"/><path class="cls-6" d="M121.91,151.4a2.06,2.06,0,0,0-1.36.47,1.58,1.58,0,0,0,0,2.41,2.09,2.09,0,0,0,2.71,0,1.68,1.68,0,0,0,.56-1.21,1.64,1.64,0,0,0-.56-1.21,2,2,0,0,0-1.36-.47"/><path class="cls-6" d="M110.84,123.87a2,2,0,0,0-1.35.47,1.58,1.58,0,0,0,0,2.41,2.09,2.09,0,0,0,2.71,0,1.58,1.58,0,0,0,0-2.41,2.12,2.12,0,0,0-1.37-.47"/><path class="cls-6" d="M84.31,123.87a2.12,2.12,0,0,0-1.37.47,1.58,1.58,0,0,0,0,2.41,2.09,2.09,0,0,0,2.71,0,1.64,1.64,0,0,0,.56-1.21,1.6,1.6,0,0,0-.56-1.21,2,2,0,0,0-1.35-.47"/><path class="cls-6" d="M147,155.33a2.06,2.06,0,0,0-1.36.47,1.64,1.64,0,0,0-.56,1.21,1.68,1.68,0,0,0,.56,1.21,2.09,2.09,0,0,0,2.71,0,1.64,1.64,0,0,0,.56-1.21,1.6,1.6,0,0,0-.56-1.21,2,2,0,0,0-1.36-.47"/><path class="cls-6" d="M145.51,182.86a2.06,2.06,0,0,0-1.36.47,1.64,1.64,0,0,0-.56,1.21,1.6,1.6,0,0,0,.37,1l3,.08a1.62,1.62,0,0,0,.43-1.08,1.64,1.64,0,0,0-.56-1.21,2,2,0,0,0-1.36-.47"/><path class="cls-6" d="M239.16,120.7a1.16,1.16,0,0,0-.74.26.88.88,0,0,0,0,1.31,1.24,1.24,0,0,0,.74.26,1.13,1.13,0,0,0,.3,0l.18-1.69a1.13,1.13,0,0,0-.48-.1"/><path class="cls-6" d="M236.94,140.36a1.1,1.1,0,0,0-.73.26.88.88,0,0,0,0,1.31,1.24,1.24,0,0,0,.74.26,1.17,1.17,0,0,0,.43-.09l.17-1.58a1.21,1.21,0,0,0-.61-.16"/><path class="cls-6" d="M222.2,173.15a1,1,0,0,0-.71.25.82.82,0,0,0-.33.66,1,1,0,0,0,.29.66,1.24,1.24,0,0,0,.74.26,1.23,1.23,0,0,0,.74-.26,1,1,0,0,0,.3-.66.88.88,0,0,0-.3-.66,1.16,1.16,0,0,0-.74-.25"/><path class="cls-6" d="M218.51,175.76a1.16,1.16,0,0,0-.73.26.88.88,0,0,0,0,1.31,1.24,1.24,0,0,0,.74.26,1.16,1.16,0,0,0,.74-.26,1,1,0,0,0,.3-.66.89.89,0,0,0-.33-.66,1.06,1.06,0,0,0-.71-.26"/><path class="cls-6" d="M196.37,166.58a1,1,0,0,0-.72.26.88.88,0,0,0,0,1.31,1.24,1.24,0,0,0,.74.26,1.23,1.23,0,0,0,.74-.26.87.87,0,0,0,0-1.31,1.2,1.2,0,0,0-.76-.26"/><path class="cls-6" d="M211.87,174.46a1,1,0,0,0-.71.25.82.82,0,0,0-.33.66,1,1,0,0,0,.29.66,1.24,1.24,0,0,0,.74.26,1.16,1.16,0,0,0,.74-.26,1,1,0,0,0,.3-.66.88.88,0,0,0-.3-.66,1.16,1.16,0,0,0-.74-.25"/><path class="cls-6" d="M186.07,180.36a1.14,1.14,0,0,0-.74.25.88.88,0,0,0,0,1.31,1.24,1.24,0,0,0,.74.26,1.23,1.23,0,0,0,.74-.26.87.87,0,0,0,0-1.31,1.1,1.1,0,0,0-.73-.25"/><path class="cls-6" d="M181.65,136.44a1.14,1.14,0,0,0-.74.25.88.88,0,0,0,0,1.31,1.24,1.24,0,0,0,.74.26,1.23,1.23,0,0,0,.74-.26.87.87,0,0,0,0-1.31,1.1,1.1,0,0,0-.73-.25"/><path class="cls-6" d="M225.88,128.58a1.12,1.12,0,0,0-.73.25.93.93,0,0,0-.29.66,1,1,0,0,0,.29.66,1.24,1.24,0,0,0,.74.26,1.23,1.23,0,0,0,.74-.26.87.87,0,0,0,0-1.31,1.16,1.16,0,0,0-.74-.25"/><path class="cls-6" d="M188.26,128.57a1.09,1.09,0,0,0-.72.26.88.88,0,0,0,0,1.31,1.17,1.17,0,0,0,1.47,0,1,1,0,0,0,.3-.66.89.89,0,0,0-.33-.66,1.09,1.09,0,0,0-.72-.26"/><path class="cls-6" d="M214.81,150.2a1.09,1.09,0,0,0-.72.26.88.88,0,0,0,0,1.31,1.24,1.24,0,0,0,.74.26,1.23,1.23,0,0,0,.74-.26,1,1,0,0,0,.3-.66.89.89,0,0,0-.33-.66,1.08,1.08,0,0,0-.72-.26"/><path class="cls-6" d="M231.77,163.31a1.09,1.09,0,0,0-.72.26.93.93,0,0,0-.29.66,1,1,0,0,0,.29.66,1.24,1.24,0,0,0,.74.26,1.23,1.23,0,0,0,.74-.26,1,1,0,0,0,.3-.66.89.89,0,0,0-.33-.66,1.08,1.08,0,0,0-.72-.26"/><path class="cls-6" d="M197.85,120a1.09,1.09,0,0,0-.72.26,1,1,0,0,0-.29.66.89.89,0,0,0,.33.66,1.14,1.14,0,0,0,.71.26,1.23,1.23,0,0,0,.74-.26,1,1,0,0,0,.3-.66.89.89,0,0,0-.33-.66,1.09,1.09,0,0,0-.72-.26"/><path class="cls-6" d="M206.7,134.47a1.09,1.09,0,0,0-.72.26.88.88,0,0,0,0,1.31,1.24,1.24,0,0,0,.74.26,1.23,1.23,0,0,0,.74-.26,1,1,0,0,0,.3-.66.89.89,0,0,0-.33-.66,1.08,1.08,0,0,0-.72-.26"/><path class="cls-6" d="M219.25,134.48a1,1,0,0,0-.71.25.81.81,0,0,0-.33.66,1,1,0,0,0,.29.66,1.24,1.24,0,0,0,.74.26A1.23,1.23,0,0,0,220,136a1,1,0,0,0,.3-.66.88.88,0,0,0-.3-.66,1.16,1.16,0,0,0-.74-.25"/><path class="cls-6" d="M216.29,125.94a1.09,1.09,0,0,0-.72.26.93.93,0,0,0-.29.66.79.79,0,0,0,.29.63,1.12,1.12,0,0,0,.74.29,1.08,1.08,0,0,0,.71-.26.81.81,0,0,0,.33-.66.89.89,0,0,0-.33-.66,1.09,1.09,0,0,0-.72-.26"/><path class="cls-6" d="M180.9,156.76a1.12,1.12,0,0,0-.73.25.88.88,0,0,0,0,1.31,1.24,1.24,0,0,0,.74.26,1.23,1.23,0,0,0,.74-.26.87.87,0,0,0,0-1.31,1.16,1.16,0,0,0-.74-.25"/><path class="cls-6" d="M230.31,145.5A2.06,2.06,0,0,0,229,146a1.63,1.63,0,0,0-.56,1.21,1.68,1.68,0,0,0,.56,1.21,2.13,2.13,0,0,0,1.36.5,2.07,2.07,0,0,0,1.36-.5,1.58,1.58,0,0,0,0-2.41,2,2,0,0,0-1.36-.47"/><path class="cls-6" d="M198.62,153.35a2.08,2.08,0,0,0-1.37.48,1.63,1.63,0,0,0-.56,1.21,1.53,1.53,0,0,0,.56,1.18,1.91,1.91,0,0,0,1.36.53,2,2,0,0,0,1.36-.5,1.58,1.58,0,0,0,0-2.41,2,2,0,0,0-1.34-.48"/><path class="cls-6" d="M202.3,125.82a2.09,2.09,0,0,0-1.37.48,1.59,1.59,0,0,0-.56,1.21,1.64,1.64,0,0,0,.56,1.21,2.14,2.14,0,0,0,1.36.5,2.07,2.07,0,0,0,1.36-.5,1.64,1.64,0,0,0,.56-1.21,1.6,1.6,0,0,0-.56-1.21,2,2,0,0,0-1.34-.48"/><path class="cls-6" d="M187.53,118.62a2,2,0,0,0-1.35.47,1.64,1.64,0,0,0-.56,1.21,1.68,1.68,0,0,0,.56,1.21,2.09,2.09,0,0,0,2.71,0,1.68,1.68,0,0,0,.56-1.21,1.64,1.64,0,0,0-.56-1.21,2.12,2.12,0,0,0-1.37-.47"/><path class="cls-6" d="M214.82,162.53a2,2,0,0,0-1.35.48,1.58,1.58,0,0,0,0,2.41,2.09,2.09,0,0,0,2.71,0,1.58,1.58,0,0,0,0-2.41,2.05,2.05,0,0,0-1.36-.48"/><path class="cls-6" d="M199.34,177.62a2.06,2.06,0,0,0-1.36.47,1.58,1.58,0,0,0,0,2.41,2.09,2.09,0,0,0,2.71,0,1.64,1.64,0,0,0,.56-1.21,1.6,1.6,0,0,0-.56-1.21,2,2,0,0,0-1.36-.47"/><path class="cls-6" d="M177.22,174.46h0v1.82h0A1.23,1.23,0,0,0,178,176a.87.87,0,0,0,0-1.31,1.16,1.16,0,0,0-.73-.25"/><path class="cls-6" d="M167.82,83.33H166a1.18,1.18,0,0,0,.19.26,1.24,1.24,0,0,0,.74.26,1.23,1.23,0,0,0,.74-.26,1.16,1.16,0,0,0,.19-.26"/><path class="cls-6" d="M67,83.33H66.4l.09.81a1.65,1.65,0,0,0,.51-.81"/><path class="cls-6" d="M119,83.33h0"/><path class="cls-6" d="M206.79,83.33h0"/></g><path class="cls-7" d="M66.4,83.33,69.54,113a34.31,34.31,0,0,0,15.07,6.16c11,1.55,12.45-4.14,26.09-4.38,23.83-.41,29.11,16.81,49.22,15.31,15.8-1.18,19.52-12.33,34.95-10.5,10.23,1.21,12.25,6.56,20.18,7.44,6,.67,14.24-1.36,25.15-11.62l3.4-32.13Z"/><path class="cls-8" d="M66.4,83.33,69.54,113a34.31,34.31,0,0,0,15.07,6.16c11,1.55,12.45-4.14,26.09-4.38,23.83-.41,29.11,16.81,49.22,15.31,15.8-1.18,19.52-12.33,34.95-10.5,10.23,1.21,12.25,6.56,20.18,7.44,6,.67,14.24-1.36,25.15-11.62l3.4-32.13Z"/><ellipse class="cls-9" cx="155" cy="83.49" rx="88.6" ry="22.15"/><path class="cls-10" d="M157.63,73h-3a4.25,4.25,0,0,1-4.39-3.85L148.37,28c-.17-3.82,2.33-7,5.6-7h4.27c3.26,0,5.76,3.22,5.6,7L162,69.15A4.25,4.25,0,0,1,157.63,73"/><g class="cls-11"><path class="cls-12" d="M148.45,29.8l.16,3.57a28.57,28.57,0,0,0,13.67,3.58l1.16,0,.13-3q-.65,0-1.29,0h0a25.89,25.89,0,0,1-13.36-3.86l-.46-.29"/></g><path class="cls-13" d="M155.53.4C155.47,1.79,156.66,5,153.3,10c-2.72,4.06-4.51,4.77-5.06,7.41-.82,3.95,2,7.76,7.88,7.88s8.35-1.88,9.18-4.94c.56-2.09-.31-6.47-3.65-9.18C157.27,7.66,155.65-2.07,155.53.4Z"/><path class="cls-14" d="M156,10.31a7.66,7.66,0,0,1-1.34,5.79c-1.63,2.44-2.71,2.86-3,4.45-.49,2.37,1.18,4.66,4.73,4.73s5-1.13,5.51-3a6,6,0,0,0-2.19-5.51C157.07,14.67,156.1,8.82,156,10.31Z"/><path class="cls-15" d="M206,77.72c-1.37.26,1.44,1.06-1.86,6.12-2.67,4.09-3.61,3.08-4.13,5.73-.77,4,2.1,6.54,8,6.58s8.33-2,9.11-5.06c.54-2.1.15-4.46-3.22-7.12C209.54,80.47,209.28,77.1,206,77.72Z"/><path class="cls-15" d="M118.84,53.19c-1.37.26,1.44,1.06-1.86,6.12-2.67,4.09-3.61,3.08-4.13,5.73-.77,4,2.1,6.54,8,6.58s8.33-2,9.11-5.06c.54-2.1.15-4.46-3.22-7.12C122.34,55.94,122.07,52.57,118.84,53.19Z"/><path class="cls-15" d="M186.52,52.86c-1.37.26,1.44,1.06-1.86,6.12-2.67,4.09-3.61,3.08-4.13,5.73-.77,4,2.1,6.54,8,6.58s8.33-2,9.11-5.06c.54-2.1.15-4.46-3.22-7.12C190,55.61,189.75,52.24,186.52,52.86Z"/><path class="cls-16" d="M220.93,68.3c-.38,4.51-4.92,6.34-10.69,6.34s-9.46-1.35-10.19-6.34C199.23,62.62,206.43,52,210.49,52S221.43,62.46,220.93,68.3Z"/><path class="cls-16" d="M109.36,70.18c-.38,4.51-4.92,6.34-10.69,6.34s-9.46-1.35-10.19-6.34c-.83-5.67,6.38-16.28,10.44-16.28S109.86,64.34,109.36,70.18Z"/><circle class="cls-17" cx="154.33" cy="60.93" r="28.95" transform="translate(-7.04 99.54) rotate(-35)"/><circle class="cls-18" cx="155.67" cy="62.96" r="28.95" transform="translate(-7.96 100.68) rotate(-35)"/><path class="cls-17" d="M155.69,89.49a26.53,26.53,0,1,1,21.12-42.56h0L178,48.56h0a26.53,26.53,0,0,1-22.27,40.92Zm0-49.21a22.68,22.68,0,0,0-3.92,45,22.89,22.89,0,0,0,4,.35,22.68,22.68,0,0,0,18.56-35.69h0a22.54,22.54,0,0,0-14.64-9.32A22.89,22.89,0,0,0,155.65,40.28Z"/><path class="cls-7" d="M154,70.81l5.15,7.36q1.81,2.59-.6,4.28t-4.22-.9l-15-21.44q-2.35-3.36.83-5.59l10.3-7.21q4.09-2.86,7.93-2.34t6.93,4.93q3.05,4.36,2.25,8.17t-4.89,6.67ZM150.68,66l7.77-5.44q2.78-1.95,3.2-3.52t-1.11-3.76Q159,51,157.37,50.92T153,52.74l-7.77,5.44Z"/><path class="cls-9" d="M201.61,84.08s-17-4.35-26.89-3.71-24.87,3.43-36.36,1.9S125,79.17,125,79.17l7,11,35,7.72Z"/><path class="cls-15" d="M151.24,84.52c-1.37.26,1.44,1.06-1.86,6.12-2.67,4.09-3.61,3.08-4.13,5.73-.77,4,2.1,6.54,8,6.58s8.33-2,9.11-5.06c.54-2.1.15-4.46-3.22-7.12C154.74,87.28,154.48,83.91,151.24,84.52Z"/><path class="cls-16" d="M192.05,93.56c-.38,4.51-4.92,6.34-10.69,6.34s-9.46-1.35-10.19-6.34c-.83-5.67,6.38-16.28,10.44-16.28S192.55,87.72,192.05,93.56Z"/><path class="cls-16" d="M135,93.89c-.38,4.51-4.92,6.34-10.69,6.34s-9.46-1.35-10.19-6.34c-.83-5.67,6.38-16.28,10.44-16.28S135.45,88.05,135,93.89Z"/><path class="cls-19" d="M220.2,86.9l-3-.53a4.23,4.23,0,0,1-3.66-4.5l5.27-40.32c.49-3.74,3.51-6.44,6.72-5.88l4.2.74c3.21.57,5.12,4.13,4.3,7.82l-8.84,39.69a4.23,4.23,0,0,1-5,3"/><g class="cls-20"><path class="cls-21" d="M218.58,43.27l-.46,3.53a28.68,28.68,0,0,0,14,6l.66-2.94a25.78,25.78,0,0,1-13.27-5.84q-.48-.39-.91-.78"/><path class="cls-21" d="M217.44,52l-.46,3.5a28.65,28.65,0,0,0,13.26,5.71l.65-2.94A25.83,25.83,0,0,1,218,52.46l-.57-.48"/><path class="cls-21" d="M216.42,59.79,216,63.26a28.62,28.62,0,0,0,12.61,5.42l.65-2.93A25.89,25.89,0,0,1,216.67,60l-.26-.21"/><path class="cls-21" d="M215.51,66.73l-.45,3.45a28.58,28.58,0,0,0,12,5.16l.65-2.93a25.93,25.93,0,0,1-12.23-5.68"/><path class="cls-21" d="M214.61,73.66l-.45,3.42A28.56,28.56,0,0,0,225.61,82l.65-2.93a25.9,25.9,0,0,1-11.66-5.4"/></g><path class="cls-13" d="M230.63,15.67c-.31,1.36.31,4.75-3.88,9.11-3.38,3.53-5.27,3.91-6.27,6.42-1.49,3.74.6,8,6.39,9.13s8.55-.4,9.9-3.27c.92-2,.81-6.43-2-9.67C231.08,23.13,231.18,13.26,230.63,15.67Z"/><path class="cls-14" d="M229.84,25.6a7.66,7.66,0,0,1-2.33,5.47c-2,2.12-3.16,2.35-3.76,3.85-.9,2.25.36,4.79,3.84,5.48s5.13-.24,5.94-2a6,6,0,0,0-1.2-5.8C230.11,30.08,230.17,24.16,229.84,25.6Z"/><path class="cls-3" d="M91.39,86.82l-3,.53a4.24,4.24,0,0,1-5-3L74.49,44.27c-.83-3.72,1.08-7.32,4.29-7.88l4.2-.74c3.21-.57,6.23,2.16,6.73,5.94L95,82.28a4.24,4.24,0,0,1-3.66,4.54"/><g class="cls-22"><path class="cls-23" d="M74.88,46l.77,3.48A29.53,29.53,0,0,0,85,51a27.28,27.28,0,0,0,5.88-.64l-.39-3A24.28,24.28,0,0,1,85,48h0a27.07,27.07,0,0,1-10.11-2"/><path class="cls-23" d="M76.8,54.65l.77,3.45a29.42,29.42,0,0,0,8.92,1.42A27.31,27.31,0,0,0,92,59l-.39-3a24.3,24.3,0,0,1-5.12.54h0a26.94,26.94,0,0,1-9.68-1.87"/><path class="cls-23" d="M78.53,62.41l.76,3.42a29.32,29.32,0,0,0,8.54,1.3A27.28,27.28,0,0,0,93,66.64l-.39-3a24.28,24.28,0,0,1-4.78.47h0a26.82,26.82,0,0,1-9.29-1.72"/><path class="cls-23" d="M80.06,69.3l.76,3.4A29.23,29.23,0,0,0,89,73.9a27.31,27.31,0,0,0,4.87-.44l-.39-3A24.3,24.3,0,0,1,89,70.9h0a26.71,26.71,0,0,1-9-1.6"/><path class="cls-23" d="M81.59,76.19l.75,3.38a29.15,29.15,0,0,0,7.87,1.11,27.28,27.28,0,0,0,4.57-.38l-.39-3a24.28,24.28,0,0,1-4.18.36h0a26.6,26.6,0,0,1-8.62-1.48"/></g><path class="cls-13" d="M76.75,15.85c.18,1.38,1.92,4.36-.53,9.89-2,4.47-3.61,5.48-3.69,8.18-.12,4,3.29,7.3,9.13,6.39s7.9-3.3,8.18-6.46c.19-2.15-1.43-6.32-5.19-8.4C79.73,22.7,76.44,13.39,76.75,15.85Z"/><path class="cls-14" d="M78.53,25.69a7.66,7.66,0,0,1-.32,5.93C77,34.3,76,34.91,76,36.53c-.07,2.42,2,4.38,5.48,3.84s4.74-2,4.91-3.88a6,6,0,0,0-3.11-5C80.31,29.8,78.34,24.22,78.53,25.69Z"/><path class="cls-15" d="M95.7,76.73c-1.37.26,1.44,1.06-1.86,6.12-2.67,4.09-3.61,3.08-4.13,5.73-.77,4,2.1,6.54,8,6.58s8.33-2,9.11-5.06c.54-2.1.15-4.46-3.22-7.12C99.2,79.49,98.94,76.11,95.7,76.73Z"/><path class="cls-24" d="M73.19,147.49l.91,8.62c10.06,8.18,42.75,14.11,80.9,14.11s70.84-5.93,80.9-14.11l.91-8.62c-10.16,8.37-43.24,14.43-81.81,14.43S83.35,155.86,73.19,147.49Z"/><path class="cls-24" d="M155,153.29c41.3,0,76.2-6.95,82.91-16.18l.91-8.64C232,137.9,196.72,145,155,145s-77-7.09-83.82-16.52l.91,8.64C78.8,146.34,113.7,153.29,155,153.29Z"/><path class="cls-25" d="M307.73,51.63c-12.65,3.06-15.16,5.54-18.25,18-3.1-12.5-5.61-15-18.25-18,12.65-3.06,15.16-5.54,18.25-18C292.58,46.08,295.09,48.56,307.73,51.63Z"/><path class="cls-26" d="M277.17,74.52c-8.93,2.16-10.7,3.91-12.88,12.74-2.19-8.82-4-10.57-12.88-12.74,8.93-2.16,10.7-3.91,12.88-12.74C266.47,70.6,268.25,72.35,277.17,74.52Z"/><path class="cls-26" d="M2.27,51.63c12.65,3.06,15.16,5.54,18.25,18,3.1-12.5,5.61-15,18.25-18-12.65-3.06-15.16-5.54-18.25-18C17.42,46.08,14.91,48.56,2.27,51.63Z"/><path class="cls-25" d="M32.83,74.52c8.93,2.16,10.7,3.91,12.88,12.74,2.19-8.82,4-10.57,12.88-12.74-8.93-2.16-10.7-3.91-12.88-12.74C43.53,70.6,41.75,72.35,32.83,74.52Z"/></g></g></svg>