<svg id="レイヤー_1" data-name="レイヤー 1" xmlns="http://www.w3.org/2000/svg" viewBox="0 0 70 70"><defs><style>.cls-1{fill:#066b74;}.cls-2{fill:#caea12;}.cls-3{fill:#fdf988;}.cls-4{fill:#a5e33b;}.cls-5{fill:#ffe737;}.cls-6{fill:#81cf68;}.cls-7{fill:#cab02c;}.cls-8{fill:#509c73;}.cls-9{fill:#a5b912;}.cls-10{fill:#188373;}.cls-11{fill:#1a8777;}</style></defs><title>アートボード 61</title><path class="cls-1" d="M35,19a3,3,0,0,1-3-3V6a3,3,0,1,1,6,0V16A3,3,0,0,1,35,19Z"/><path class="cls-2" d="M35,67a3,3,0,0,1-3-3V54a3,3,0,0,1,6,0V64A3,3,0,0,1,35,67Z"/><path class="cls-3" d="M25.5,21.54A3,3,0,0,1,22.9,20l-5-8.66a3,3,0,1,1,5.2-3l5,8.66a3,3,0,0,1-2.6,4.5Z"/><path class="cls-4" d="M49.5,63.12a3,3,0,0,1-2.6-1.5L41.9,53a3,3,0,1,1,5.2-3l5,8.66a3,3,0,0,1-2.6,4.5Z"/><path class="cls-5" d="M18.54,28.5a3,3,0,0,1-1.5-.4l-8.66-5a3,3,0,1,1,3-5.2l8.66,5a3,3,0,0,1-1.5,5.6Z"/><path class="cls-6" d="M60.11,52.5a3,3,0,0,1-1.5-.4L50,47.1a3,3,0,0,1,3-5.2l8.66,5a3,3,0,0,1-1.5,5.6Z"/><path class="cls-7" d="M16,38H6a3,3,0,0,1,0-6H16a3,3,0,0,1,0,6Z"/><path class="cls-8" d="M64,38H54a3,3,0,0,1,0-6H64a3,3,0,0,1,0,6Z"/><path class="cls-9" d="M9.89,52.5a3,3,0,0,1-1.5-5.6l8.66-5a3,3,0,1,1,3,5.2l-8.66,5A3,3,0,0,1,9.89,52.5Z"/><path class="cls-10" d="M51.46,28.5A3,3,0,0,1,50,22.9l8.66-5a3,3,0,0,1,3,5.2L53,28.1A3,3,0,0,1,51.46,28.5Z"/><path class="cls-2" d="M20.5,63.12a3,3,0,0,1-2.6-4.5l5-8.66a3,3,0,0,1,5.2,3l-5,8.66A3,3,0,0,1,20.5,63.12Z"/><path class="cls-11" d="M44.5,21.54A3,3,0,0,1,41.9,17l5-8.66a3,3,0,1,1,5.2,3L47.1,20A3,3,0,0,1,44.5,21.54Z"/></svg>