<svg xmlns="http://www.w3.org/2000/svg" xmlns:xlink="http://www.w3.org/1999/xlink" viewBox="0 0 310 210"><defs><style>.cls-1{fill:none;}.cls-2{isolation:isolate;}.cls-3{clip-path:url(#clip-path);}.cls-4{mix-blend-mode:soft-light;}.cls-5{fill:#f35934;}.cls-6{fill:#fff;}.cls-7{fill:#888f9e;}.cls-8{fill:#c8c9c9;}.cls-9{fill:#b29605;}.cls-10{fill:#cebe27;}.cls-11{fill:#fdf9dc;}.cls-12{fill:#066b74;}.cls-13{fill:#c6b405;}</style><clipPath id="clip-path"><rect class="cls-1" x="-1500" y="240" width="1080" height="100" rx="8" ry="8"/></clipPath></defs><title>img-rank-bonus</title><g class="cls-2"><g id="img"><path class="cls-5" d="M140.09,48.57c-9.73-26.75-46.61-37.88-82.37-24.86S.87,69,10.6,95.7c9.2,25.29,42.67,36.6,76.51,26.77a20,20,0,0,0,7.45,8.46A21.18,21.18,0,0,0,112.11,133a19.7,19.7,0,0,1-13.39-9.45,9.17,9.17,0,0,1-1.15-4.86C130.51,104.73,149.4,74.15,140.09,48.57Z"/><path class="cls-6" d="M61.8,92.64a2.06,2.06,0,1,1,1.41,3.87l-7.7,2.8,2.8,7.7a1.92,1.92,0,0,1-1.21,2.7,1.94,1.94,0,0,1-2.69-1.28l-2.8-7.7-7.7,2.8a1.88,1.88,0,0,1-2.67-1.22,1.91,1.91,0,0,1,1.26-2.65l7.7-2.8-2.8-7.7a1.94,1.94,0,0,1,1.21-2.7,1.92,1.92,0,0,1,2.69,1.28l2.8,7.7Z"/><path class="cls-6" d="M63.78,76.54c-.73-2.79.31-4.75,2.91-5.7l15.5-5.64a3.35,3.35,0,0,1,2.34,6.28L72.13,76c-1,.36-1,.65-.8,1.54l2.07,8c.68-1.09,1.93-3.25,6.18-4.8,7.95-2.89,14.48,2,17,8.78,2.64,7.25.52,15.89-8.83,19.29-8.1,2.95-15.08-.51-16.17-3.51a3.4,3.4,0,0,1,2-4.46c1.1-.4,1.72-.4,4.31.81a8.75,8.75,0,0,0,7.6.35c5.65-2.06,5.4-7.4,4.47-10s-4.1-6.43-9.3-4.54A7.37,7.37,0,0,0,76,92.1c-1.13,2.5-1.62,2.85-2.62,3.22-1.8.66-4.44.09-5.1-2.33Z"/><path class="cls-6" d="M105.29,80.57c-4.4,1.6-7.48-1.58-8.79-5.18s-1-8,3.4-9.62,7.54,1.63,8.82,5.17S109.79,78.93,105.29,80.57ZM100.2,74c.67,1.83,2.18,3.51,3.78,2.93s1.68-2.84,1-4.67-2.19-3.54-3.79-3S99.53,72.22,100.2,74Zm14.73-13a1.2,1.2,0,0,1,.74-1,1.07,1.07,0,0,1,1.4.62,1.17,1.17,0,0,1,0,.83l-9.13,31.74a1.2,1.2,0,0,1-.74,1,1.07,1.07,0,0,1-1.4-.62,1.19,1.19,0,0,1,0-.84Zm8,27.45c-4.4,1.6-7.51-1.57-8.82-5.17s-.93-8,3.44-9.63,7.5,1.65,8.79,5.18S127.46,86.84,123,88.48ZM117.87,82c.67,1.83,2.19,3.54,3.79,3s1.67-2.87,1-4.71-2.18-3.51-3.78-2.93S117.2,80.12,117.87,82Z"/><path class="cls-6" d="M53.69,38.42A2.4,2.4,0,0,1,57.17,40l1.6,4.4a2.33,2.33,0,0,1-1.58,3.38L40.05,54.07a2.33,2.33,0,0,1-3.38-1.58l-1.6-4.4a2.4,2.4,0,0,1,1.63-3.49Zm-15,20.91-.71.26q-1.92.7-2.52-1t1.29-2.43l24.39-8.88q1.92-.7,2.55,1t-1.32,2.35L49.59,55.36l4.65,12.78q.68,1.88-1,2.49t-2.37-1.26l-.37-1Q47,70.57,43,72.84a1.67,1.67,0,0,1-2.54-.65,1.6,1.6,0,0,1,.75-2.49l1.09-.52ZM53.54,41.54,38.81,46.9l.36,1L53.9,42.52Zm1.2,3.31L40,50.21l.37,1,14.73-5.36ZM46.21,56.6l-4.13,1.5.46,1.28,4.13-1.5Zm1.37,3.76-4.13,1.5.49,1.35,4.13-1.5ZM49,64.19l-4.13,1.5.62,1.69,3.93-2.07ZM63.83,53.67A3.82,3.82,0,0,1,64,55.18a12.53,12.53,0,0,1-.26,1.91q-.22,1-.48,1.94a9,9,0,0,1-.72,1.75A10.62,10.62,0,0,0,64.2,61q1,.06,2,.07,1.91-.14,1.86,1.83,0,1.8-2,1.83a14.81,14.81,0,0,1-2.74-.32,16.72,16.72,0,0,1-2.54-.73,13.1,13.1,0,0,1-1.42,2.07q-.91,1.12-1.85,2.06-1.57,1.29-2.74.06a2,2,0,0,1-.63-1.37,1.6,1.6,0,0,1,.73-1.27c.59-.47,1.12-.93,1.59-1.37a11.16,11.16,0,0,0,1.16-1.25A9.15,9.15,0,0,1,55.11,61a10.2,10.2,0,0,1-2-2.24l-.11,0a1.45,1.45,0,0,1-2.1-1,1.49,1.49,0,0,1,1.06-2.13l9.21-3.35A1.89,1.89,0,0,1,63.83,53.67Zm-4.49,6A6.87,6.87,0,0,0,60,57.93a10.1,10.1,0,0,0,.28-1.8l-3.72,1.35a5.36,5.36,0,0,0,1.18,1.25A6.18,6.18,0,0,0,59.34,59.69Z"/><path class="cls-6" d="M82.41,39.29a18.54,18.54,0,0,0,6.43,6.62A22.48,22.48,0,0,0,97.91,49q2.47.25,2,2.75-.38,2.22-3.08,1.84a23.22,23.22,0,0,1-8.66-2.87,18.43,18.43,0,0,1-6.56-6,19.08,19.08,0,0,1-1.2,8.76,24.23,24.23,0,0,1-4.55,7.72q-1.78,2-3.5.55-2-1.61-.31-3.42a23.09,23.09,0,0,0,4.79-8.17,18.93,18.93,0,0,0,.66-9.13l-9.13,3.32a1.89,1.89,0,0,1-2.73-1.3,1.89,1.89,0,0,1,1.25-2.76l9.47-3.45L74.7,32.26a2.24,2.24,0,0,1,4.21-1.53l1.68,4.62,9.62-3.5a1.89,1.89,0,0,1,2.73,1.31,1.89,1.89,0,0,1-1.25,2.75Z"/><path class="cls-7" d="M238,167.57h-4.5c-6.45-7.06-21.32-12.1-39.08-12.1s-32.63,5-39.08,12.1h-4.5l1.15,8.94h0s0,.05,0,.08c1.37,10.61,20.32,18.72,42.41,18.72s41-8.11,42.41-18.72c0,0,0-.05,0-.08h0Z"/><path class="cls-8" d="M238.82,161.27h-4.58c-6.56-7.33-21.71-12.56-39.81-12.56s-33.25,5.23-39.81,12.56H150l1.2,9.28h0s0,.06,0,.09c1.42,11,20.72,19.38,43.18,19.38s41.77-8.39,43.18-19.38c0,0,0-.06,0-.09h0Z"/><path class="cls-7" d="M239.19,158.39h-4.62c-6.6-7.46-21.89-12.77-40.14-12.77s-33.53,5.32-40.14,12.77h-4.62l1.22,9.43h0s0,.06,0,.09c1.44,11.17,20.89,19.69,43.53,19.69s42.09-8.52,43.53-19.69c0,0,0-.06,0-.09h0Z"/><path class="cls-8" d="M240,151.74h-4.71c-6.72-7.75-22.29-13.28-40.91-13.28s-34.19,5.53-40.91,13.28h-4.71l1.26,9.79h0s0,.06,0,.09C151.58,173.2,171.39,182,194.43,182s42.85-8.83,44.35-20.41c0,0,0-.06,0-.09h0Z"/><path class="cls-7" d="M240.45,148.64H235.7c-6.77-7.89-22.48-13.52-41.27-13.52s-34.5,5.63-41.27,13.52h-4.75l1.28,10h0s0,.06,0,.09c1.52,11.77,21.5,20.75,44.72,20.75s43.2-9,44.72-20.75c0,0,0-.06,0-.09h0Z"/><path class="cls-8" d="M241.36,141.61h-4.85c-6.89-8.2-22.91-14.06-42.08-14.06s-35.19,5.86-42.08,14.06H147.5L148.84,152h0s0,.06,0,.1c1.58,12.22,21.94,21.52,45.58,21.52s44-9.3,45.58-21.52c0,0,0-.06,0-.1h0Z"/><path class="cls-7" d="M241.8,138.2H236.9c-6.94-8.36-23.12-14.33-42.48-14.33s-35.53,6-42.48,14.33h-4.89l1.36,10.54h0s0,.06,0,.1c1.6,12.44,22.15,21.91,46,21.91s44.39-9.47,46-21.91c0,0,0-.06,0-.1h0Z"/><path class="cls-8" d="M242.76,130.74h-5c-7.07-8.71-23.57-14.93-43.34-14.93s-36.27,6.23-43.34,14.93h-5l1.42,11h0s0,.07,0,.1c1.67,12.93,22.62,22.75,46.9,22.75s45.23-9.82,46.9-22.75c0,0,0-.07,0-.1h0Z"/><path class="cls-7" d="M243.23,127.12h-5c-7.13-8.88-23.79-15.23-43.76-15.23s-36.63,6.35-43.76,15.23h-5l1.44,11.18h0s0,.07,0,.1c1.7,13.17,22.85,23.17,47.34,23.17s45.64-10,47.34-23.17c0,0,0-.07,0-.1h0Z"/><path class="cls-8" d="M244.25,119.2H239.1c-7.26-9.26-24.27-15.89-44.67-15.89S157,109.95,149.76,119.2h-5.15l1.5,11.64h0s0,.07,0,.11c1.77,13.7,23.34,24.08,48.3,24.08S241,144.65,242.73,131c0,0,0-.07,0-.11h0Z"/><path class="cls-7" d="M244.74,115.35h-5.2c-7.32-9.45-24.51-16.21-45.12-16.21s-37.8,6.77-45.12,16.21h-5.2l1.53,11.87h0s0,.07,0,.11c1.8,14,23.58,24.54,48.77,24.54s47-10.58,48.77-24.54c0,0,0-.07,0-.11h0Z"/><path class="cls-8" d="M245.83,106.93h-5.31C233.06,97.07,215.5,90,194.43,90s-38.63,7.07-46.09,16.94H143l1.6,12.38h0s0,.08,0,.11C146.51,134,168.75,145,194.43,145s47.91-11,49.79-25.54c0,0,0-.08,0-.11h0Z"/><path class="cls-7" d="M246.39,102.58H241c-7.53-10.08-25.28-17.32-46.6-17.32s-39.06,7.23-46.6,17.32h-5.37l1.63,12.65h0s0,.08,0,.12c1.91,14.84,24.38,26.06,50.32,26.06s48.4-11.23,50.32-26.06c0,0,0-.08,0-.12h0Z"/><path class="cls-8" d="M247.55,93.59h-5.49C234.39,83,216.24,75.48,194.43,75.48s-40,7.57-47.64,18.11h-5.49l1.7,13.21h0s0,.08,0,.12c2,15.47,24.95,27.16,51.4,27.16s49.41-11.69,51.4-27.16c0,0,0-.08,0-.12h0Z"/><path class="cls-9" d="M248.12,89.21h-5.54c-7.75-10.77-26.09-18.51-48.14-18.51S154,78.44,146.29,89.21h-5.54l1.74,13.49h0s0,.08,0,.12c2,15.79,25.22,27.7,51.93,27.7s49.89-11.92,51.93-27.7c0,0,0-.08,0-.12h0Z"/><path class="cls-10" d="M249.35,79.61h-5.67c-7.9-11.28-26.67-19.4-49.25-19.4s-41.35,8.11-49.25,19.4H139.5l1.82,14.11h0s0,.09,0,.13c2.13,16.48,25.83,28.91,53.09,28.91s51-12.42,53.09-28.91c0,0,0-.09,0-.13h0Z"/><path class="cls-9" d="M250,74.92h-5.74c-8-11.53-26.95-19.83-49.8-19.83s-41.82,8.3-49.8,19.83H138.9l1.86,14.42h0s0,.09,0,.13C142.95,106.3,166.9,119,194.43,119s51.48-12.68,53.65-29.51c0,0,0-.09,0-.13h0Z"/><path class="cls-10" d="M251.29,64.64h-5.87c-8.14-12.1-27.57-20.82-51-20.82s-42.84,8.72-51,20.82h-5.87l1.95,15.1h0s0,.09,0,.14c2.27,17.6,26.77,30.83,54.89,30.83S247,97.48,249.32,79.88c0,0,0-.09,0-.14h0Z"/><path class="cls-9" d="M251.9,59.91H246c-8.22-12.36-27.85-21.28-51.53-21.28s-43.32,8.91-51.53,21.28H137l2,15.42h0s0,.09,0,.14c2.32,18,27.07,31.45,55.46,31.45s53.14-13.49,55.46-31.45c0,0,0-.09,0-.14h0Z"/><path class="cls-10" d="M251.67,61.7c-2.46,19.1-28,33.42-57.24,33.42S139.66,80.8,137.19,61.7c-2.7-20.9,22.82-39.35,57.24-39.35S254.36,40.8,251.67,61.7Z"/><path class="cls-9" d="M240.22,61.7h-3.66c-.69,7.23-5.85,13.56-13.55,18-7.54,4.39-17.59,7.05-28.58,7.05s-21-2.66-28.58-7.05c-7.7-4.48-12.86-10.81-13.55-18-.71-7.48,3.49-14.44,11-19.64C171,36.74,182,33.4,194.43,33.4s23.4,3.34,31.11,8.66c7.53,5.2,11.73,12.17,11,19.64h7.33c2-17.94-20.07-33.59-49.45-33.59S143,43.75,145,61.7c1.85,16.6,23.94,29.17,49.45,29.17S242,78.3,243.88,61.7Z"/><path class="cls-11" d="M183.94,67l.24,10.05c.05,2.29-1.67,3.43-5.16,3.43s-5.3-1.14-5.41-3.43l-1.49-30.67c-.17-3.46,2.27-5.21,7.31-5.21h24.45q9.7,0,15.05,3.36c3.52,2.21,5.13,5.54,4.84,9.92a11.09,11.09,0,0,1-5.87,9.47Q212.51,67,203.36,67Zm-.16-6.84h17.68q6.33,0,8.7-1.25a4.83,4.83,0,0,0,2.51-4.46c.09-2.21-.64-3.74-2.19-4.58S206,48.6,201.64,48.6H183.5Z"/><path class="cls-12" d="M290.66,89c-12.65,3.06-15.16,5.54-18.25,18-3.1-12.5-5.61-15-18.25-18,12.65-3.06,15.16-5.54,18.25-18C275.51,83.47,278,86,290.66,89Z"/><path class="cls-13" d="M301.84,63.87C292.91,66,291.14,67.78,289,76.61c-2.19-8.82-4-10.57-12.88-12.74C285,61.71,286.77,60,289,51.14,291.14,60,292.91,61.71,301.84,63.87Z"/></g></g></svg>