<svg id="レイヤー_1" data-name="レイヤー 1" xmlns="http://www.w3.org/2000/svg" viewBox="0 0 380 210"><defs><style>.cls-1{fill:#f35934;}.cls-2{fill:#fff;}.cls-3{fill:#b29605;}.cls-4{fill:#c6b405;}.cls-5{fill:#fdf9dc;}.cls-6{fill:#5e687c;}.cls-7{fill:#a7adb7;}.cls-8{fill:#888f9e;}.cls-9{fill:#066b74;}</style></defs><title>img-rank-fee</title><path class="cls-1" d="M239.05,69.83c0-26.71-28.06-48.36-62.67-48.36s-62.67,21.65-62.67,48.36c0,24.8,24.2,45.23,55.37,48l5.9,16,7.88-15.92C214.43,115.43,239.05,94.85,239.05,69.83Z"/><path class="cls-2" d="M146.74,47.56H146q-2,0-2-1.76T146,44h26q2,0,2,1.84t-2,1.76h-13.6v13.6q0,2-1.8,2t-1.8-2V60.08q-4,.88-8.6,1.64A1.67,1.67,0,0,1,144,60.24a1.6,1.6,0,0,1,1.56-2.08l1.2-.12ZM168,33a2.4,2.4,0,0,1,2.72,2.72v4.68a2.33,2.33,0,0,1-2.64,2.64H149.82a2.33,2.33,0,0,1-2.64-2.64V35.76A2.4,2.4,0,0,1,149.9,33ZM154.74,47.56h-4.4v1.36h4.4Zm0,4h-4.4V53h4.4Zm0,4.08h-4.4v1.8l4.4-.6Zm12-19.72H151.1v1h15.68Zm0,3.52H151.1v1.08h15.68Zm5.52,11.4a3.81,3.81,0,0,1-.34,1.48,12.55,12.55,0,0,1-.9,1.7q-.56.9-1.12,1.66a9,9,0,0,1-1.28,1.4,10.57,10.57,0,0,0,1.48.76q.92.4,1.88.76A1.55,1.55,0,0,1,173.14,61a1.71,1.71,0,0,1-2.48,1,14.69,14.69,0,0,1-2.46-1.24,16.66,16.66,0,0,1-2.14-1.56,13.11,13.11,0,0,1-2,1.46,27.48,27.48,0,0,1-2.44,1.3q-1.92.68-2.6-.88a2,2,0,0,1-.12-1.5,1.6,1.6,0,0,1,1.12-.94q1.08-.36,2-.74a11.41,11.41,0,0,0,1.52-.78,9.17,9.17,0,0,1-1.86-2.4,10.19,10.19,0,0,1-1.14-2.8h-.12a1.45,1.45,0,0,1-1.64-1.64q0-1.64,1.72-1.64h9.8Q172.3,48.64,172.3,50.84ZM166,55a6.84,6.84,0,0,0,1.2-1.44,10.06,10.06,0,0,0,.88-1.6h-4a5.35,5.35,0,0,0,.68,1.58A6.19,6.19,0,0,0,166,55Z"/><path class="cls-2" d="M194.67,43.68a18.54,18.54,0,0,0,3.78,8.42,22.48,22.48,0,0,0,7.46,6q2.24,1.08,1,3.28-1.12,2-3.52.68a23.22,23.22,0,0,1-7.16-5.66,18.44,18.44,0,0,1-4.12-7.86A19.08,19.08,0,0,1,188,56.38a24.23,24.23,0,0,1-6.92,5.7q-2.36,1.28-3.48-.68-1.32-2.2.88-3.32a23.11,23.11,0,0,0,7.3-6,18.93,18.93,0,0,0,3.74-8.36h-9.72a1.89,1.89,0,0,1-2.12-2.16,1.89,1.89,0,0,1,2.12-2.16h10.08V34.44q0-2.16,2.24-2.16t2.24,2.16v4.92h10.24a1.89,1.89,0,0,1,2.12,2.16,1.89,1.89,0,0,1-2.12,2.16Z"/><path class="cls-2" d="M146.46,73.9a2.42,2.42,0,0,1-.68-1.64,2.8,2.8,0,0,1,2.76-2.68,2.44,2.44,0,0,1,2,1l7.88,9.4,7.88-9.4a2.4,2.4,0,0,1,2-1A2.78,2.78,0,0,1,171,72.3a2.5,2.5,0,0,1-.68,1.6L162.78,83h5.76a2.11,2.11,0,0,1,2.28,2.08,2,2,0,0,1-2.24,2.08h-7.44V90h7.4a2.15,2.15,0,0,1,2.28,2.12,2,2,0,0,1-2.24,2h-7.44V100a2.54,2.54,0,0,1-2.72,2.56,2.58,2.58,0,0,1-2.8-2.56v-5.8h-7.44a2,2,0,0,1-2.24-2A2.15,2.15,0,0,1,148.22,90h7.4V87.18h-7.44a2,2,0,0,1-2.24-2A2.11,2.11,0,0,1,148.22,83H154Z"/><path class="cls-2" d="M205,85.94c0,10.66-3.31,19.78-14.59,19.78s-14.59-8.79-14.59-19.78,3.5-19.78,14.59-19.78C201.72,66.16,205,75.33,205,85.94Zm-21.79,0c0,8.26,1.92,13.3,7.2,13.3s7.2-5,7.2-13.3c0-8-1.82-13.3-7.2-13.3S183.19,77.69,183.19,85.94Z"/><path class="cls-3" d="M94.95,157.17h-4.6c-7.18-7.29-22.33-12.33-39.93-12.33s-32.76,5-39.93,12.33H5.88l.17,9.62h0s0,.06,0,.09c.22,12,20.08,21.65,44.36,21.65s44.14-9.64,44.36-21.65c0,0,0-.06,0-.09h0Z"/><path class="cls-4" d="M95.06,150.66H90.45c-7.19-7.33-22.39-12.4-40-12.4s-32.84,5.07-40,12.4H5.76l.17,9.67h0s0,.06,0,.09c.22,12.07,20.13,21.76,44.47,21.76s44.26-9.69,44.47-21.76c0,0,0-.06,0-.09h0Z"/><path class="cls-3" d="M95.12,147.57H90.5c-7.2-7.35-22.42-12.43-40.09-12.43s-32.89,5.08-40.09,12.43H5.71l.18,9.69h0s0,.06,0,.09c.22,12.1,20.15,21.81,44.53,21.81s44.31-9.72,44.53-21.81c0,0,0-.06,0-.09h0Z"/><path class="cls-4" d="M95.24,141H90.61c-7.22-7.39-22.48-12.49-40.2-12.49s-33,5.11-40.2,12.49H5.59l.18,9.74h0s0,.06,0,.09C6,163,26,172.77,50.41,172.77S94.84,163,95.06,150.84c0,0,0-.06,0-.09h0Z"/><path class="cls-3" d="M95.3,137.9H90.66c-7.23-7.4-22.51-12.52-40.25-12.52s-33,5.12-40.25,12.52H5.53l.18,9.77h0s0,.06,0,.09c.22,12.19,20.23,22,44.7,22s44.48-9.79,44.7-22c0,0,0-.06,0-.09h0Z"/><path class="cls-4" d="M95.41,131.28H90.77c-7.25-7.44-22.57-12.59-40.35-12.59s-33.1,5.15-40.35,12.59H5.41l.18,9.82h0s0,.06,0,.09c.22,12.25,20.29,22.1,44.82,22.1s44.6-9.85,44.82-22.1c0,0,0-.06,0-.09h0Z"/><path class="cls-3" d="M95.47,128.14H90.82c-7.26-7.46-22.59-12.62-40.4-12.62S17.27,120.68,10,128.14H5.35L5.53,138h0s0,.06,0,.09c.22,12.29,20.31,22.16,44.88,22.16s44.66-9.87,44.88-22.16c0,0,0-.06,0-.09h0Z"/><path class="cls-4" d="M95.59,121.48H90.93c-7.28-7.5-22.65-12.69-40.51-12.69S17.18,114,9.9,121.48H5.23l.18,9.9h0s0,.06,0,.09c.22,12.35,20.37,22.27,45,22.27s44.77-9.92,45-22.27c0,0,0-.06,0-.09h0Z"/><path class="cls-3" d="M95.65,118.13H91C83.69,110.6,68.3,105.4,50.41,105.4s-33.28,5.2-40.57,12.73H5.17L5.35,128h0s0,.06,0,.09c.22,12.38,20.4,22.33,45.06,22.33s44.83-9.95,45.06-22.33c0,0,0-.06,0-.09h0Z"/><path class="cls-4" d="M95.77,111.4H91.09c-7.31-7.56-22.74-12.79-40.68-12.79S17,103.84,9.74,111.4H5.05l.18,10h0s0,.06,0,.09c.23,12.45,20.45,22.45,45.18,22.45s45-10,45.18-22.45c0,0,0-.06,0-.09h0Z"/><path class="cls-3" d="M95.83,108.22H91.14c-7.32-7.58-22.77-12.83-40.73-12.83S17,100.63,9.69,108.22H5l.18,10h0s0,.06,0,.09c.23,12.48,20.48,22.51,45.24,22.51s45-10,45.24-22.51c0,0,0-.06,0-.09h0Z"/><path class="cls-4" d="M96,101.44h-4.7c-7.34-7.62-22.83-12.9-40.84-12.9s-33.5,5.27-40.84,12.9H4.87l.18,10.05h0s0,.06,0,.09c.23,12.55,20.53,22.63,45.36,22.63s45.13-10.08,45.36-22.63c0,0,0-.06,0-.09h0Z"/><path class="cls-3" d="M96,98.23H91.3C84,90.59,68.44,85.3,50.41,85.3S16.87,90.59,9.52,98.23H4.81L5,108.31H5s0,.06,0,.09c.23,12.58,20.56,22.69,45.42,22.69S95.6,121,95.83,108.41c0,0,0-.06,0-.09h0Z"/><path class="cls-4" d="M96.14,91.4H91.41c-7.37-7.69-22.93-13-41-13s-33.64,5.31-41,13H4.69l.18,10.14h0s0,.06,0,.1c.23,12.65,20.62,22.81,45.54,22.81S95.72,114.28,96,101.63c0,0,0-.06,0-.1h0Z"/><path class="cls-3" d="M96.19,88.35H91.46c-7.37-7.7-23-13-41.05-13s-33.68,5.33-41.05,13H4.63l.18,10.16h0s0,.06,0,.1c.23,12.68,20.64,22.86,45.59,22.86S95.78,111.29,96,98.61c0,0,0-.06,0-.1h0Z"/><path class="cls-4" d="M96.17,89.5c-.23,12.77-20.72,23-45.76,23S4.89,102.27,4.66,89.5,24.91,66,50.41,66,96.4,76.6,96.17,89.5Z"/><path class="cls-3" d="M87,89.5H84.09c-.06,4.72-3.87,9-10,12s-14.45,5-23.7,5-17.6-1.89-23.7-5-9.91-7.32-10-12,3.66-9,9.75-12.15S41,72.28,50.41,72.28s17.82,1.94,23.93,5.07,9.81,7.42,9.75,12.15h5.86c.17-11.14-17.52-20.24-39.53-20.24S10.71,78.36,10.88,89.5s17.87,19.92,39.53,19.92,39.36-8.88,39.53-19.92Z"/><path class="cls-5" d="M41.94,92.94l0,6.74Q42,102,37.62,102t-4.37-2.36l-.13-19.74q0-3.12,5.79-3.12H57.68q7.45,0,11.68,2t4.19,6.08q0,4-4.28,6t-11.64,2Zm0-4.43H56q5,0,6.9-.8a2.85,2.85,0,0,0,1.87-2.81,2.81,2.81,0,0,0-1.84-2.84q-1.86-.78-6.91-.78H41.9Z"/><polygon class="cls-4" points="300.56 132.37 300.56 132.39 300.56 137.89 300.56 138.75 312.32 138.75 312.32 147.52 319.63 147.52 319.63 138.75 331.39 138.75 331.39 137.89 331.39 132.39 331.39 132.37 319.63 132.37 319.63 129.76 321.59 126.34 331.39 126.34 331.39 125.07 331.39 121.19 331.39 119.91 324.91 119.91 330.29 109.06 329.47 109.06 324.1 109.06 323.28 109.06 315.97 122.89 308.66 109.06 307.84 109.06 302.47 109.06 301.65 109.06 307.04 119.91 300.56 119.91 300.56 121.19 300.56 125.07 300.56 126.34 310.36 126.34 312.32 129.77 312.32 132.37 300.56 132.37"/><polygon class="cls-6" points="256.58 84.86 256.58 85.01 261.53 85.01 261.53 90.72 370.42 90.72 370.42 85.01 375.37 85.01 375.37 84.86 256.58 84.86"/><rect class="cls-7" x="343.19" y="95.67" width="19.8" height="4.93"/><polygon class="cls-7" points="345.67 153.73 345.67 153.83 343.19 153.83 343.19 158.78 362.99 158.78 362.99 153.83 360.52 153.83 360.52 153.73 345.67 153.73"/><polygon class="cls-8" points="360.52 100.62 362.99 100.62 362.99 100.61 343.19 100.61 343.19 100.62 345.67 100.62 345.67 153.73 360.52 153.73 360.52 100.62"/><rect class="cls-7" x="268.95" y="95.67" width="19.8" height="4.93"/><polygon class="cls-7" points="271.43 153.73 271.43 153.83 268.95 153.83 268.95 158.78 288.75 158.78 288.75 153.83 286.28 153.83 286.28 153.73 271.43 153.73"/><polygon class="cls-8" points="286.28 100.62 288.75 100.62 288.75 100.61 268.95 100.61 268.95 100.62 271.43 100.62 271.43 153.73 286.28 153.73 286.28 100.62"/><rect class="cls-6" x="261.53" y="163.73" width="108.89" height="9.76"/><polygon class="cls-8" points="370.42 173.48 261.53 173.48 261.53 173.62 256.58 173.62 256.58 183.52 375.37 183.52 375.37 173.62 370.42 173.62 370.42 173.48"/><polygon class="cls-7" points="315.97 51.19 256.67 72.61 375.28 72.61 315.97 51.19"/><polygon class="cls-8" points="256.67 72.61 256.58 72.64 256.58 84.86 375.37 84.86 375.37 72.64 375.28 72.61 256.67 72.61"/><path class="cls-9" d="M244.3,145.06,222,123a4.64,4.64,0,1,0-6.52,6.59l14.28,14.13H144.23a4.64,4.64,0,1,0,0,9.27h85.53l-14.28,14.12a4.64,4.64,0,1,0,6.52,6.59l22.3-22.06a4.64,4.64,0,0,0,0-6.59Z"/><circle class="cls-9" cx="129.97" cy="148.31" r="4.62"/><circle class="cls-9" cx="115.72" cy="148.31" r="4.62"/></svg>