<svg xmlns="http://www.w3.org/2000/svg" xmlns:xlink="http://www.w3.org/1999/xlink" viewBox="0 0 150 150"><defs><style>.cls-1{fill:none;}.cls-2{isolation:isolate;}.cls-3{clip-path:url(#clip-path);}.cls-4{mix-blend-mode:soft-light;}.cls-5{fill:#d2d6e0;}.cls-13,.cls-6{fill:#ffdb37;}.cls-12,.cls-7{fill:#c7b505;}.cls-8{fill:#f45934;}.cls-9{fill:#c73338;}.cls-10{fill:#e8eaef;}.cls-11{fill:#fff;}.cls-12,.cls-13,.cls-14{fill-rule:evenodd;}.cls-14{fill:#c9a063;}.cls-15{fill:#066b74;}</style><clipPath id="clip-path"><rect class="cls-1" x="-1530" y="-10" width="1080" height="100" rx="8" ry="8"/></clipPath></defs><title>img_monitorflow1</title><g class="cls-2"><g id="img"><rect class="cls-5" x="11.88" y="21.69" width="80.63" height="33.95"/><path class="cls-6" d="M30.81,3.49H15.86a5.15,5.15,0,0,0-4.72,3.65L5.23,24.47c-.52,2-1,3.82-1,4s-.12.78-.12.79v0H28.43Z"/><path class="cls-7" d="M4.09,29.32c0,.08,0,.44-.09.89v.47a12.13,12.13,0,0,0,24.26.09c0,.09,0,.19,0,.28l.16-1.73Z"/><polygon class="cls-8" points="52.5 29.32 52.5 3.49 30.81 3.49 28.43 29.32 52.5 29.32"/><path class="cls-9" d="M28.43,29.32l-.16,1.73a12.12,12.12,0,0,0,24.23-.28V29.32Z"/><path class="cls-8" d="M101,29.32v0s-.38-1.64-.9-3.65L93.87,7.15a5.15,5.15,0,0,0-4.72-3.65H74.21l2.37,25.83Z"/><path class="cls-9" d="M101,29.32H76.58L76.74,31c0-.07,0-.14,0-.21,0,.31,0,.61.05.91l0,.48A12.12,12.12,0,0,0,101,30.69v-.47A6.38,6.38,0,0,1,101,29.32Z"/><polygon class="cls-6" points="76.58 29.32 74.21 3.49 52.5 3.49 52.5 29.32 76.58 29.32"/><path class="cls-7" d="M52.5,29.32v1.45A12.12,12.12,0,0,0,76.74,31l-.15-1.66Z"/><path class="cls-10" d="M88.87,48a17.32,17.32,0,0,1-12.12-5,17.29,17.29,0,0,1-24.25,0,17.29,17.29,0,0,1-24.25,0,17.16,17.16,0,0,1-16.46,4.39V67H92.58V47.62A17.21,17.21,0,0,1,88.87,48Z"/><polygon class="cls-10" points="93.22 71.02 11.79 71.02 9.47 75.65 95.53 75.65 93.22 71.02"/><polygon class="cls-5" points="9.47 75.65 6.4 81.78 98.6 81.78 95.53 75.65 9.47 75.65"/><circle class="cls-9" cx="97.67" cy="103.17" r="43"/><circle class="cls-11" cx="97.45" cy="103.38" r="34.21"/><circle class="cls-9" cx="97.52" cy="103.02" r="25.71"/><circle class="cls-11" cx="97.6" cy="103.24" r="17.07"/><circle class="cls-9" cx="97.6" cy="103.38" r="8.64"/><polygon class="cls-12" points="126.78 93.27 110.09 91.22 129.93 71.38 146.62 73.43 126.78 93.27"/><polygon class="cls-13" points="129.93 71.38 127.88 54.69 108.04 74.53 110.09 91.22 129.93 71.38"/><path class="cls-14" d="M97.91,103.41h0a2.29,2.29,0,0,1,.06-3.24l29.63-29.63a2.29,2.29,0,0,1,3.24-.06h0a2.29,2.29,0,0,1-.06,3.24l-29.63,29.63A2.29,2.29,0,0,1,97.91,103.41Z"/><path class="cls-15" d="M30.15,123.75,28,126.93a1.23,1.23,0,0,0,1.2,1.9l17.27-2.54a2.55,2.55,0,0,0,2.1-3.12l-4.17-17.23a1.23,1.23,0,0,0-2.22-.39l-2.68,4a2.67,2.67,0,0,1-3.68.74c-8.7-5.73-11.4-11-12.37-14.89a1.12,1.12,0,0,0-2.19,0c-2.2,10.78,2.12,19.63,8.22,24.56A2.85,2.85,0,0,1,30.15,123.75Z"/></g></g></svg>