<svg id="レイヤー_1" data-name="レイヤー 1" xmlns="http://www.w3.org/2000/svg" viewBox="0 0 500 160"><defs><style>.cls-1{fill:#d6d9e2;}.cls-2{fill:#fff;}.cls-3{fill:#d2ef78;}.cls-4{fill:#e7e9ee;}.cls-5{fill:#066b74;}.cls-6{fill:#c6b405;}.cls-7{fill:#333;}.cls-8{fill:#89909f;}.cls-9{fill:#efefef;}</style></defs><title>img_blogappli_step1</title><path class="cls-1" d="M439.09,6H338.91a5.32,5.32,0,0,0-5.32,5.32V151.37a5.32,5.32,0,0,0,5.32,5.32H461.25a5.32,5.32,0,0,0,5.32-5.32V33.46Z"/><path class="cls-2" d="M436.43,3.31H336.25a5.32,5.32,0,0,0-5.32,5.32V148.71a5.32,5.32,0,0,0,5.32,5.32H458.59a5.32,5.32,0,0,0,5.32-5.32V30.8Z"/><path class="cls-1" d="M436.43,25.48a5.32,5.32,0,0,0,5.32,5.32h22.16L436.43,3.31Z"/><rect class="cls-3" x="344.23" y="37.59" width="106.39" height="35.46"/><rect class="cls-4" x="343.93" y="97.06" width="106.98" height="4"/><rect class="cls-4" x="343.93" y="83.76" width="106.98" height="4"/><rect class="cls-4" x="343.93" y="110.36" width="106.98" height="4"/><rect class="cls-4" x="343.93" y="122.77" width="106.98" height="4"/><rect class="cls-4" x="343.93" y="135.19" width="106.98" height="4"/><path class="cls-5" d="M439.7,51.35v8a.46.46,0,0,0,.75.35l4.6-3.79a.7.7,0,0,0,0-1.09L440.44,51A.46.46,0,0,0,439.7,51.35Z"/><rect class="cls-5" x="350.14" y="47.05" width="7.61" height="17.73"/><rect class="cls-5" x="363.44" y="47.05" width="13.59" height="17.73"/><rect class="cls-5" x="381.17" y="47.05" width="8.49" height="17.73"/><rect class="cls-5" x="394.47" y="47.05" width="13.59" height="17.73"/><path class="cls-5" d="M482.18,119c-12.65,3.06-15.16,5.54-18.25,18-3.1-12.5-5.61-15-18.25-18,12.65-3.06,15.16-5.54,18.25-18C467,113.48,469.53,116,482.18,119Z"/><path class="cls-6" d="M493.36,93.88c-8.93,2.16-10.7,3.91-12.88,12.74-2.19-8.82-4-10.57-12.88-12.74,8.93-2.16,10.7-3.91,12.88-12.74C482.66,90,484.43,91.72,493.36,93.88Z"/><polygon class="cls-7" points="300.89 49.54 255.31 35.35 251.01 46.37 297.77 59.34 300.89 49.54"/><polygon class="cls-7" points="245.57 116.42 242.5 128.61 261.75 135.41 265.43 121.64 245.57 116.42"/><path class="cls-8" d="M301.53,45.31,259.81,32.37A12.51,12.51,0,0,0,244.2,40.6L222,112.11a12.51,12.51,0,0,0,8.22,15.62L272,140.66a12.51,12.51,0,0,0,15.62-8.22l22.18-71.51A12.51,12.51,0,0,0,301.53,45.31ZM269.88,42l17.88,5.55a3.12,3.12,0,0,1-1.85,6L268,48a3.12,3.12,0,0,1,1.85-6ZM252.43,129.9a4.86,4.86,0,1,1,6.08-3.2A4.86,4.86,0,0,1,252.43,129.9Zm25.07-7.11-41.71-12.94,18.48-59.59L296,63.19Z"/><polygon class="cls-2" points="249.03 48.25 235.07 92.93 288.88 59.22 249.03 48.25"/><polygon class="cls-9" points="278.58 126.9 299.85 62.24 288.88 59.22 235.07 92.93 229.47 110.85 278.58 126.9"/><rect class="cls-7" x="160.21" y="28.49" width="38.09" height="109.38"/><path class="cls-8" d="M196.87,22.23H160a7.29,7.29,0,0,0-7.29,7.29v114a7.29,7.29,0,0,0,7.29,7.29h36.85a7.29,7.29,0,0,0,7.29-7.29v-114A7.29,7.29,0,0,0,196.87,22.23Zm-18.42,96.43a8.36,8.36,0,1,1,8.36-8.36A8.36,8.36,0,0,1,178.44,118.66Zm13.18-52.07H165.91V61.45h25.71Zm0-15.43H165.91V46h25.71Z"/><polygon class="cls-2" points="22.5 28.98 22.5 89.45 115.34 28.98 22.5 28.98"/><polygon class="cls-9" points="115.34 28.98 22.5 89.45 22.5 120.78 140.19 120.78 140.19 28.98 115.34 28.98"/><path class="cls-8" d="M137.93,22.23H23.79a7.17,7.17,0,0,0-7.14,7.15V123a7.17,7.17,0,0,0,7.14,7.14H56.91V144H47.59v6.85h66.54V144h-9.32V130.15h33.12a7.17,7.17,0,0,0,7.14-7.14V29.38A7.17,7.17,0,0,0,137.93,22.23ZM135.78,118H25.93V31.52H135.78Z"/></svg>