<svg id="レイヤー_1" data-name="レイヤー 1" xmlns="http://www.w3.org/2000/svg" xmlns:xlink="http://www.w3.org/1999/xlink" viewBox="0 0 400 250"><defs><style>.cls-1{fill:none;}.cls-2{fill:#f35934;}.cls-3{fill:#066b74;}.cls-4{fill:#b29605;}.cls-5{fill:#c6b405;}.cls-6{fill:#fdf9dc;}.cls-7{fill:#fff;}.cls-8{fill:#9cd155;}.cls-9{fill:#b4e06e;}.cls-10{fill:#c1272d;}.cls-11{clip-path:url(#clip-path);}.cls-12{fill:#ffffa2;}</style><clipPath id="clip-path"><rect class="cls-1" y="310" width="1080" height="400"/></clipPath></defs><title>img_frend</title><path class="cls-2" d="M254.22,155.3c0-22.08-28.34-40-63.3-40s-63.3,17.9-63.3,40c0,21.24,26.24,38.62,59.37,39.9l4.16,9.85,4.18-9.87C228.23,193.75,254.22,176.44,254.22,155.3Z"/><path class="cls-3" d="M280.62,216l-18.57-18.37a3.86,3.86,0,1,0-5.43,5.49l11.89,11.77H139a3.86,3.86,0,1,0,0,7.72H268.51l-11.89,11.76a3.86,3.86,0,1,0,5.43,5.49l18.57-18.37a3.86,3.86,0,0,0,0-5.49Z"/><circle class="cls-3" cx="127.09" cy="218.7" r="3.85"/><circle class="cls-3" cx="115.22" cy="218.7" r="3.85"/><path class="cls-4" d="M368.3,142.44h-3c-4.68-4.76-14.58-8-26.07-8s-21.38,3.29-26.07,8h-3l.11,6.28h0s0,0,0,.06c.14,7.83,13.11,14.13,29,14.13s28.81-6.3,29-14.13c0,0,0,0,0-.06h0Z"/><path class="cls-5" d="M368.38,138.19h-3c-4.7-4.78-14.62-8.09-26.14-8.09s-21.44,3.31-26.14,8.09h-3l.11,6.31h0s0,0,0,.06c.14,7.88,13.14,14.2,29,14.2s28.89-6.33,29-14.2c0,0,0,0,0-.06h0Z"/><path class="cls-4" d="M368.42,136.18h-3c-4.7-4.8-14.63-8.11-26.17-8.11s-21.47,3.32-26.17,8.11h-3l.11,6.33h0s0,0,0,.06c.14,7.9,13.16,14.24,29.07,14.24s28.93-6.34,29.07-14.24c0,0,0,0,0-.06h0Z"/><path class="cls-5" d="M368.49,131.89h-3c-4.71-4.82-14.67-8.16-26.24-8.16s-21.52,3.33-26.24,8.16h-3l.12,6.36h0s0,0,0,.06c.14,7.94,13.19,14.32,29.15,14.32s29-6.38,29.15-14.32c0,0,0,0,0-.06h0Z"/><path class="cls-4" d="M368.53,129.86h-3c-4.72-4.83-14.69-8.18-26.27-8.18S317.68,125,313,129.86h-3l.12,6.38h0s0,0,0,.06c.14,8,13.21,14.35,29.18,14.35s29-6.39,29.18-14.35c0,0,0,0,0-.06h0Z"/><path class="cls-5" d="M368.61,125.54h-3c-4.73-4.86-14.73-8.22-26.34-8.22s-21.61,3.36-26.34,8.22h-3l.12,6.41h0s0,0,0,.06c.14,8,13.24,14.43,29.26,14.43S368.35,140,368.49,132c0,0,0,0,0-.06h0Z"/><path class="cls-4" d="M368.65,123.49h-3c-4.74-4.87-14.75-8.24-26.38-8.24s-21.64,3.37-26.38,8.24h-3l.12,6.43h0s0,0,0,.06c.15,8,13.26,14.46,29.3,14.46S368.38,138,368.53,130c0,0,0,0,0-.06h0Z"/><path class="cls-5" d="M368.73,119.14h-3c-4.75-4.9-14.79-8.28-26.45-8.28s-21.69,3.39-26.45,8.28h-3l.12,6.46h0s0,0,0,.06c.15,8.06,13.3,14.54,29.37,14.54s29.23-6.48,29.37-14.54c0,0,0,0,0-.06h0Z"/><path class="cls-4" d="M368.76,117h-3.05c-4.76-4.91-14.81-8.31-26.48-8.31S317.51,112,312.75,117H309.7l.12,6.48h0s0,0,0,.06c.15,8.08,13.31,14.58,29.41,14.58s29.27-6.49,29.41-14.58c0,0,0,0,0-.06h0Z"/><path class="cls-5" d="M368.84,112.57h-3.06c-4.77-4.94-14.85-8.35-26.55-8.35s-21.78,3.41-26.55,8.35h-3.06l.12,6.51h0s0,0,0,.06c.15,8.13,13.35,14.66,29.49,14.66s29.35-6.53,29.49-14.66c0,0,0,0,0-.06h0Z"/><path class="cls-4" d="M368.88,110.49h-3.06c-4.78-5-14.87-8.37-26.59-8.37s-21.81,3.42-26.59,8.37h-3.06l.12,6.53h0s0,0,0,.06c.15,8.15,13.37,14.69,29.53,14.69s29.38-6.55,29.53-14.69c0,0,0,0,0-.06h0Z"/><path class="cls-5" d="M369,106.06h-3.07c-4.79-5-14.91-8.42-26.66-8.42s-21.87,3.44-26.66,8.42H309.5l.12,6.56h0s0,0,0,.06c.15,8.19,13.4,14.77,29.61,14.77s29.46-6.58,29.61-14.77c0,0,0,0,0-.06h0Z"/><path class="cls-4" d="M369,104h-3.07c-4.8-5-14.93-8.44-26.69-8.44S317.34,99,312.54,104h-3.07l.12,6.58h0s0,0,0,.06c.15,8.21,13.42,14.81,29.65,14.81s29.5-6.6,29.65-14.81c0,0,0,0,0-.06h0Z"/><path class="cls-5" d="M369.08,99.51H366c-4.81-5-15-8.49-26.76-8.49s-22,3.47-26.76,8.49h-3.08l.12,6.62h0s0,0,0,.06c.15,8.26,13.46,14.89,29.73,14.89s29.58-6.63,29.73-14.89c0,0,0,0,0-.06h0Z"/><path class="cls-4" d="M369.12,97.52H366c-4.81-5-15-8.51-26.8-8.51s-22,3.48-26.8,8.51h-3.09l.12,6.63h0s0,0,0,.06c.15,8.28,13.47,14.92,29.76,14.92s29.61-6.65,29.76-14.92c0,0,0,0,0-.06h0Z"/><path class="cls-5" d="M369.1,98.27c-.15,8.34-13.52,15-29.87,15s-29.72-6.7-29.87-15S322.58,83,339.23,83,369.26,89.85,369.1,98.27Z"/><path class="cls-4" d="M363.13,98.27h-1.91c0,3.08-2.53,5.85-6.51,7.86a38.64,38.64,0,0,1-30.94,0c-4-2-6.47-4.78-6.51-7.86s2.39-5.89,6.36-7.93a38.53,38.53,0,0,1,31.24,0c4,2,6.4,4.84,6.36,7.93H365c.11-7.27-11.44-13.21-25.81-13.21S313.31,91,313.43,98.27s11.67,13,25.81,13,25.69-5.8,25.81-13Z"/><path class="cls-6" d="M333.7,100.52v4.4q0,1.54-2.84,1.54T328,104.92L327.94,92q0-2,3.78-2H344a18.15,18.15,0,0,1,7.63,1.31,4.17,4.17,0,0,1,2.73,4,4.25,4.25,0,0,1-2.79,3.94,18.07,18.07,0,0,1-7.6,1.31Zm0-2.89h9.2a13.06,13.06,0,0,0,4.5-.52,1.86,1.86,0,0,0,1.22-1.83,1.84,1.84,0,0,0-1.2-1.85,13.36,13.36,0,0,0-4.51-.51h-9.22Z"/><path class="cls-4" d="M338.42,183.7h-3c-4.68-4.76-14.58-8-26.07-8s-21.38,3.29-26.07,8h-3l.11,6.28h0s0,0,0,.06c.14,7.83,13.11,14.13,29,14.13s28.81-6.3,29-14.13c0,0,0,0,0-.06h0Z"/><path class="cls-5" d="M338.5,179.45h-3c-4.7-4.78-14.62-8.09-26.14-8.09s-21.44,3.31-26.14,8.09h-3l.11,6.31h0s0,0,0,.06c.14,7.88,13.14,14.2,29,14.2s28.89-6.33,29-14.2c0,0,0,0,0-.06h0Z"/><path class="cls-4" d="M338.53,177.43h-3c-4.7-4.8-14.63-8.11-26.17-8.11s-21.47,3.32-26.17,8.11h-3l.11,6.33h0s0,0,0,.06c.14,7.9,13.16,14.24,29.07,14.24s28.93-6.34,29.07-14.24c0,0,0,0,0-.06h0Z"/><path class="cls-5" d="M338.61,173.15h-3c-4.71-4.82-14.67-8.16-26.24-8.16s-21.52,3.33-26.24,8.16h-3l.12,6.36h0s0,0,0,.06c.14,7.94,13.19,14.32,29.15,14.32s29-6.38,29.15-14.32c0,0,0,0,0-.06h0Z"/><path class="cls-4" d="M338.65,171.12h-3c-4.72-4.83-14.69-8.18-26.27-8.18s-21.55,3.34-26.27,8.18h-3l.12,6.38h0s0,0,0,.06c.14,8,13.21,14.35,29.18,14.35s29-6.39,29.18-14.35c0,0,0,0,0-.06h0Z"/><path class="cls-5" d="M338.73,166.8h-3c-4.73-4.86-14.73-8.22-26.34-8.22s-21.61,3.36-26.34,8.22h-3l.12,6.41h0s0,0,0,.06c.14,8,13.24,14.43,29.26,14.43s29.11-6.43,29.26-14.43c0,0,0,0,0-.06h0Z"/><path class="cls-4" d="M338.76,164.75h-3c-4.74-4.87-14.75-8.24-26.38-8.24s-21.64,3.37-26.38,8.24h-3l.12,6.43h0s0,0,0,.06c.15,8,13.26,14.46,29.3,14.46s29.15-6.44,29.3-14.46c0,0,0,0,0-.06h0Z"/><path class="cls-5" d="M338.84,160.4h-3c-4.75-4.9-14.79-8.28-26.45-8.28s-21.69,3.39-26.45,8.28h-3l.12,6.46h0s0,0,0,.06c.15,8.06,13.3,14.54,29.37,14.54s29.23-6.48,29.37-14.54c0,0,0,0,0-.06h0Z"/><path class="cls-4" d="M338.88,158.21h-3.05c-4.76-4.91-14.81-8.31-26.48-8.31s-21.72,3.4-26.48,8.31h-3.05l.12,6.48h0s0,0,0,.06c.15,8.08,13.31,14.58,29.41,14.58s29.27-6.49,29.41-14.58c0,0,0,0,0-.06h0Z"/><path class="cls-5" d="M339,153.82H335.9c-4.77-4.94-14.85-8.35-26.55-8.35s-21.78,3.41-26.55,8.35h-3.06l.12,6.51h0s0,0,0,.06c.15,8.13,13.35,14.66,29.49,14.66s29.35-6.53,29.49-14.66c0,0,0,0,0-.06h0Z"/><path class="cls-4" d="M339,151.74h-3.06c-4.78-5-14.87-8.37-26.59-8.37s-21.81,3.42-26.59,8.37H279.7l.12,6.53h0s0,0,0,.06C280,166.48,293.19,173,309.35,173s29.38-6.55,29.53-14.69c0,0,0,0,0-.06h0Z"/><path class="cls-5" d="M339.08,147.32H336c-4.79-5-14.91-8.42-26.66-8.42s-21.87,3.44-26.66,8.42h-3.07l.12,6.56h0s0,0,0,.06c.15,8.19,13.4,14.77,29.61,14.77s29.46-6.58,29.61-14.77c0,0,0,0,0-.06h0Z"/><path class="cls-4" d="M339.12,145.22H336c-4.8-5-14.93-8.44-26.69-8.44s-21.9,3.45-26.69,8.44h-3.07l.12,6.58h0s0,0,0,.06c.15,8.21,13.42,14.81,29.65,14.81s29.5-6.6,29.65-14.81c0,0,0,0,0-.06h0Z"/><path class="cls-5" d="M339.2,140.77h-3.08c-4.81-5-15-8.49-26.76-8.49s-22,3.47-26.76,8.49H279.5l.12,6.62h0s0,0,0,.06c.15,8.26,13.46,14.89,29.73,14.89s29.58-6.63,29.73-14.89c0,0,0,0,0-.06h0Z"/><path class="cls-4" d="M339.23,138.78h-3.09c-4.81-5-15-8.51-26.8-8.51s-22,3.48-26.8,8.51h-3.09l.12,6.63h0s0,0,0,.06c.15,8.28,13.47,14.92,29.76,14.92s29.61-6.65,29.76-14.92c0,0,0,0,0-.06h0Z"/><path class="cls-5" d="M339.22,139.52c-.15,8.34-13.52,15-29.87,15s-29.72-6.7-29.87-15,13.22-15.31,29.87-15.31S339.37,131.1,339.22,139.52Z"/><path class="cls-4" d="M333.25,139.52h-1.91c0,3.08-2.53,5.85-6.51,7.86a38.64,38.64,0,0,1-30.94,0c-4-2-6.47-4.78-6.51-7.86s2.39-5.89,6.36-7.93a38.53,38.53,0,0,1,31.24,0c4,2,6.4,4.84,6.36,7.93h3.82c.11-7.27-11.44-13.21-25.81-13.21s-25.92,5.94-25.81,13.21,11.67,13,25.81,13,25.69-5.8,25.81-13Z"/><path class="cls-6" d="M303.82,141.77v4.4q0,1.54-2.84,1.54t-2.85-1.54l-.09-12.89q0-2,3.78-2h12.26a18.15,18.15,0,0,1,7.63,1.31,4.17,4.17,0,0,1,2.73,4,4.25,4.25,0,0,1-2.79,3.94,18.07,18.07,0,0,1-7.6,1.31Zm0-2.89H313a13.06,13.06,0,0,0,4.5-.52,1.86,1.86,0,0,0,1.22-1.83,1.84,1.84,0,0,0-1.2-1.85,13.36,13.36,0,0,0-4.51-.51h-9.22Z"/><path class="cls-4" d="M398.19,183.7h-3c-4.68-4.76-14.58-8-26.07-8s-21.38,3.29-26.07,8h-3l.11,6.28h0s0,0,0,.06c.14,7.83,13.11,14.13,29,14.13s28.81-6.3,29-14.13c0,0,0,0,0-.06h0Z"/><path class="cls-5" d="M398.26,179.45h-3c-4.7-4.78-14.62-8.09-26.14-8.09s-21.44,3.31-26.14,8.09h-3l.11,6.31h0s0,0,0,.06c.14,7.88,13.14,14.2,29,14.2s28.89-6.33,29-14.2c0,0,0,0,0-.06h0Z"/><path class="cls-4" d="M398.3,177.43h-3c-4.7-4.8-14.63-8.11-26.17-8.11s-21.47,3.32-26.17,8.11h-3l.11,6.33h0s0,0,0,.06c.14,7.9,13.16,14.24,29.07,14.24s28.93-6.34,29.07-14.24c0,0,0,0,0-.06h0Z"/><path class="cls-5" d="M398.38,173.15h-3c-4.71-4.82-14.67-8.16-26.24-8.16s-21.52,3.33-26.24,8.16h-3l.12,6.36h0s0,0,0,.06c.14,7.94,13.19,14.32,29.15,14.32s29-6.38,29.15-14.32c0,0,0,0,0-.06h0Z"/><path class="cls-4" d="M398.41,171.12h-3c-4.72-4.83-14.69-8.18-26.27-8.18s-21.55,3.34-26.27,8.18h-3l.12,6.38h0s0,0,0,.06c.14,8,13.21,14.35,29.18,14.35s29-6.39,29.18-14.35c0,0,0,0,0-.06h0Z"/><path class="cls-5" d="M398.49,166.8h-3c-4.73-4.86-14.73-8.22-26.34-8.22s-21.61,3.36-26.34,8.22h-3l.12,6.41h0s0,0,0,.06c.14,8,13.24,14.43,29.26,14.43s29.11-6.43,29.26-14.43c0,0,0,0,0-.06h0Z"/><path class="cls-4" d="M398.53,164.75h-3c-4.74-4.87-14.75-8.24-26.38-8.24s-21.64,3.37-26.38,8.24h-3l.12,6.43h0s0,0,0,.06c.15,8,13.26,14.46,29.3,14.46s29.15-6.44,29.3-14.46c0,0,0,0,0-.06h0Z"/><path class="cls-5" d="M398.61,160.4h-3c-4.75-4.9-14.79-8.28-26.45-8.28s-21.69,3.39-26.45,8.28h-3l.12,6.46h0s0,0,0,.06c.15,8.06,13.3,14.54,29.37,14.54s29.23-6.48,29.37-14.54c0,0,0,0,0-.06h0Z"/><path class="cls-4" d="M398.65,158.21H395.6c-4.76-4.91-14.81-8.31-26.48-8.31s-21.72,3.4-26.48,8.31h-3.05l.12,6.48h0s0,0,0,.06c.15,8.08,13.31,14.58,29.41,14.58s29.27-6.49,29.41-14.58c0,0,0,0,0-.06h0Z"/><path class="cls-5" d="M398.73,153.82h-3.06c-4.77-4.94-14.85-8.35-26.55-8.35s-21.78,3.41-26.55,8.35h-3.06l.12,6.51h0s0,0,0,.06c.15,8.13,13.35,14.66,29.49,14.66s29.35-6.53,29.49-14.66c0,0,0,0,0-.06h0Z"/><path class="cls-4" d="M398.77,151.74H395.7c-4.78-5-14.87-8.37-26.59-8.37s-21.81,3.42-26.59,8.37h-3.06l.12,6.53h0s0,0,0,.06C339.73,166.48,353,173,369.12,173s29.38-6.55,29.53-14.69c0,0,0,0,0-.06h0Z"/><path class="cls-5" d="M398.85,147.32h-3.07c-4.79-5-14.91-8.42-26.66-8.42s-21.87,3.44-26.66,8.42h-3.07l.12,6.56h0s0,0,0,.06c.15,8.19,13.4,14.77,29.61,14.77s29.46-6.58,29.61-14.77c0,0,0,0,0-.06h0Z"/><path class="cls-4" d="M398.88,145.22h-3.07c-4.8-5-14.93-8.44-26.69-8.44s-21.9,3.45-26.69,8.44h-3.07l.12,6.58h0s0,0,0,.06c.15,8.21,13.42,14.81,29.65,14.81s29.5-6.6,29.65-14.81c0,0,0,0,0-.06h0Z"/><path class="cls-5" d="M399,140.77h-3.08c-4.81-5-15-8.49-26.76-8.49s-22,3.47-26.76,8.49h-3.08l.12,6.62h0s0,0,0,.06c.15,8.26,13.46,14.89,29.73,14.89s29.58-6.63,29.73-14.89c0,0,0,0,0-.06h0Z"/><path class="cls-4" d="M399,138.78h-3.09c-4.81-5-15-8.51-26.8-8.51s-22,3.48-26.8,8.51h-3.09l.12,6.63h0s0,0,0,.06c.15,8.28,13.47,14.92,29.76,14.92s29.61-6.65,29.76-14.92c0,0,0,0,0-.06h0Z"/><path class="cls-5" d="M399,139.52c-.15,8.34-13.52,15-29.87,15s-29.72-6.7-29.87-15,13.22-15.31,29.87-15.31S399.14,131.1,399,139.52Z"/><path class="cls-4" d="M393,139.52H391.1c0,3.08-2.53,5.85-6.51,7.86a38.64,38.64,0,0,1-30.94,0c-4-2-6.47-4.78-6.51-7.86s2.39-5.89,6.36-7.93a38.53,38.53,0,0,1,31.24,0c4,2,6.4,4.84,6.36,7.93h3.82c.11-7.27-11.44-13.21-25.81-13.21s-25.92,5.94-25.81,13.21,11.67,13,25.81,13,25.69-5.8,25.81-13Z"/><path class="cls-6" d="M363.58,141.77v4.4q0,1.54-2.84,1.54t-2.85-1.54l-.09-12.89q0-2,3.78-2h12.26a18.15,18.15,0,0,1,7.63,1.31,4.17,4.17,0,0,1,2.73,4,4.25,4.25,0,0,1-2.79,3.94,18.07,18.07,0,0,1-7.6,1.31Zm0-2.89h9.2a13.06,13.06,0,0,0,4.5-.52,1.86,1.86,0,0,0,1.22-1.83,1.84,1.84,0,0,0-1.2-1.85,13.36,13.36,0,0,0-4.51-.51h-9.22Z"/><path class="cls-4" d="M368.3,224.7h-3c-4.68-4.76-14.58-8-26.07-8s-21.38,3.29-26.07,8h-3l.11,6.28h0s0,0,0,.06c.14,7.83,13.11,14.13,29,14.13s28.81-6.3,29-14.13c0,0,0,0,0-.06h0Z"/><path class="cls-5" d="M368.38,220.44h-3c-4.7-4.78-14.62-8.09-26.14-8.09s-21.44,3.31-26.14,8.09h-3l.11,6.31h0s0,0,0,.06c.14,7.88,13.14,14.2,29,14.2s28.89-6.33,29-14.2c0,0,0,0,0-.06h0Z"/><path class="cls-4" d="M368.42,218.43h-3c-4.7-4.8-14.63-8.11-26.17-8.11s-21.47,3.32-26.17,8.11h-3l.11,6.33h0s0,0,0,.06c.14,7.9,13.16,14.24,29.07,14.24s28.93-6.34,29.07-14.24c0,0,0,0,0-.06h0Z"/><path class="cls-5" d="M368.49,214.14h-3c-4.71-4.82-14.67-8.16-26.24-8.16s-21.52,3.33-26.24,8.16h-3l.12,6.36h0s0,0,0,.06c.14,7.94,13.19,14.32,29.15,14.32s29-6.38,29.15-14.32c0,0,0,0,0-.06h0Z"/><path class="cls-4" d="M368.53,212.11h-3c-4.72-4.83-14.69-8.18-26.27-8.18s-21.55,3.34-26.27,8.18h-3l.12,6.38h0s0,0,0,.06c.14,8,13.21,14.35,29.18,14.35s29-6.39,29.18-14.35c0,0,0,0,0-.06h0Z"/><path class="cls-5" d="M368.61,207.79h-3c-4.73-4.86-14.73-8.22-26.34-8.22s-21.61,3.36-26.34,8.22h-3l.12,6.41h0s0,0,0,.06c.14,8,13.24,14.43,29.26,14.43s29.11-6.43,29.26-14.43c0,0,0,0,0-.06h0Z"/><path class="cls-4" d="M368.65,205.75h-3c-4.74-4.87-14.75-8.24-26.38-8.24s-21.64,3.37-26.38,8.24h-3l.12,6.43h0s0,0,0,.06c.15,8,13.26,14.46,29.3,14.46s29.15-6.44,29.3-14.46c0,0,0,0,0-.06h0Z"/><path class="cls-5" d="M368.73,201.39h-3c-4.75-4.9-14.79-8.28-26.45-8.28s-21.69,3.39-26.45,8.28h-3l.12,6.46h0s0,0,0,.06c.15,8.06,13.3,14.54,29.37,14.54s29.23-6.48,29.37-14.54c0,0,0,0,0-.06h0Z"/><path class="cls-4" d="M368.76,199.21h-3.05c-4.76-4.91-14.81-8.31-26.48-8.31s-21.72,3.4-26.48,8.31H309.7l.12,6.48h0s0,0,0,.06c.15,8.08,13.31,14.58,29.41,14.58s29.27-6.49,29.41-14.58c0,0,0,0,0-.06h0Z"/><path class="cls-5" d="M368.84,194.82h-3.06c-4.77-4.94-14.85-8.35-26.55-8.35s-21.78,3.41-26.55,8.35h-3.06l.12,6.51h0s0,0,0,.06c.15,8.13,13.35,14.66,29.49,14.66s29.35-6.53,29.49-14.66c0,0,0,0,0-.06h0Z"/><path class="cls-4" d="M368.88,192.74h-3.06c-4.78-5-14.87-8.37-26.59-8.37s-21.81,3.42-26.59,8.37h-3.06l.12,6.53h0s0,0,0,.06c.15,8.15,13.37,14.69,29.53,14.69s29.38-6.55,29.53-14.69c0,0,0,0,0-.06h0Z"/><path class="cls-5" d="M369,188.32h-3.07c-4.79-5-14.91-8.42-26.66-8.42s-21.87,3.44-26.66,8.42H309.5l.12,6.56h0s0,0,0,.06c.15,8.19,13.4,14.77,29.61,14.77s29.46-6.58,29.61-14.77c0,0,0,0,0-.06h0Z"/><path class="cls-4" d="M369,186.22h-3.07c-4.8-5-14.93-8.44-26.69-8.44s-21.9,3.45-26.69,8.44h-3.07l.12,6.58h0s0,0,0,.06c.15,8.21,13.42,14.81,29.65,14.81s29.5-6.6,29.65-14.81c0,0,0,0,0-.06h0Z"/><path class="cls-5" d="M369.08,181.76H366c-4.81-5-15-8.49-26.76-8.49s-22,3.47-26.76,8.49h-3.08l.12,6.62h0s0,0,0,.06c.15,8.26,13.46,14.89,29.73,14.89s29.58-6.63,29.73-14.89c0,0,0,0,0-.06h0Z"/><path class="cls-4" d="M369.12,179.77H366c-4.81-5-15-8.51-26.8-8.51s-22,3.48-26.8,8.51h-3.09l.12,6.63h0s0,0,0,.06c.15,8.28,13.47,14.92,29.76,14.92s29.61-6.65,29.76-14.92c0,0,0,0,0-.06h0Z"/><path class="cls-5" d="M369.1,180.52c-.15,8.34-13.52,15-29.87,15s-29.72-6.7-29.87-15,13.22-15.31,29.87-15.31S369.26,172.1,369.1,180.52Z"/><path class="cls-4" d="M363.13,180.52h-1.91c0,3.08-2.53,5.85-6.51,7.86a38.64,38.64,0,0,1-30.94,0c-4-2-6.47-4.78-6.51-7.86s2.39-5.89,6.36-7.93a38.53,38.53,0,0,1,31.24,0c4,2,6.4,4.84,6.36,7.93H365c.11-7.27-11.44-13.21-25.81-13.21s-25.92,5.94-25.81,13.21,11.67,13,25.81,13,25.69-5.8,25.81-13Z"/><path class="cls-6" d="M333.7,182.77v4.4q0,1.54-2.84,1.54T328,187.17l-.09-12.89q0-2,3.78-2H344a18.15,18.15,0,0,1,7.63,1.31,4.17,4.17,0,0,1,2.73,4,4.25,4.25,0,0,1-2.79,3.94,18.07,18.07,0,0,1-7.6,1.31Zm0-2.89h9.2a13.06,13.06,0,0,0,4.5-.52,1.86,1.86,0,0,0,1.22-1.83,1.84,1.84,0,0,0-1.2-1.85,13.36,13.36,0,0,0-4.51-.51h-9.22Z"/><path class="cls-7" d="M150.17,166.63a1.72,1.72,0,0,1-1.73-1.78,1.62,1.62,0,0,1,1.55-1.71h2.45a3.09,3.09,0,0,0,3.33-2.85c0-1.81-1.84-2.32-3-2.32a3.46,3.46,0,0,0-3.25,1.84c-.69,1.2-1,1.49-1.79,1.49a1.84,1.84,0,0,1-2-1.84c0-2,2.67-5.09,7.14-5.09,3.94,0,6.69,2.32,6.69,5.76a5.12,5.12,0,0,1-2.56,4.53,5,5,0,0,1,2.85,4.93c0,3.7-2.83,6.77-7.33,6.77-4.82,0-7.41-3.52-7.41-5.17a2,2,0,0,1,2-1.89c.85,0,1.17.4,2,1.49a4.62,4.62,0,0,0,3.57,1.95c1.31,0,3.44-.88,3.44-3.12a3.11,3.11,0,0,0-3.3-3Z"/><path class="cls-7" d="M161,173.87a2.44,2.44,0,0,1,2.45-2.45,2.47,2.47,0,0,1,2.48,2.69c0,2.88-3.09,5.3-3.86,5.3a.73.73,0,0,1-.75-.75c0-.4.11-.48,1-1.15a6.65,6.65,0,0,0,1.12-1.2A2.45,2.45,0,0,1,161,173.87Z"/><path class="cls-7" d="M181.84,165.35c0,5.65-1.49,11-7.35,11s-7.38-5.2-7.38-11c0-5.36,1.36-11,7.38-11S181.84,159.83,181.84,165.35Zm-11,0c0,4.37.85,7.38,3.62,7.38s3.62-2.85,3.62-7.38-.88-7.38-3.62-7.38S170.86,160.95,170.86,165.35Z"/><path class="cls-7" d="M198.63,165.35c0,5.65-1.49,11-7.35,11s-7.38-5.2-7.38-11c0-5.36,1.36-11,7.38-11S198.63,159.83,198.63,165.35Zm-11,0c0,4.37.85,7.38,3.62,7.38s3.62-2.85,3.62-7.38S194,158,191.27,158,187.65,160.95,187.65,165.35Z"/><path class="cls-7" d="M215.42,165.35c0,5.65-1.49,11-7.36,11s-7.38-5.2-7.38-11c0-5.36,1.36-11,7.38-11S215.42,159.83,215.42,165.35Zm-11,0c0,4.37.85,7.38,3.62,7.38s3.62-2.85,3.62-7.38-.88-7.38-3.62-7.38S204.44,160.95,204.44,165.35Z"/><path class="cls-7" d="M217.8,162.74c0-.62,0-1.4,1.08-1.4s1.24.66,1.3,1.36a3.43,3.43,0,0,1,3.06-1.36c3.54,0,5,3.06,5,6.24s-1.32,6.1-4.8,6.1a4.56,4.56,0,0,1-3-1v2a1.3,1.3,0,0,1-1.22,1.32,1.31,1.31,0,0,1-1.34-1.28Zm2.56,5.54a2.55,2.55,0,0,0,2.7,2.74c1.2,0,2.54-.48,2.54-3.62a4.12,4.12,0,0,0-.88-2.8A2.32,2.32,0,0,0,223,164a2.64,2.64,0,0,0-2.6,2.82Z"/><path class="cls-7" d="M230.59,164.08a1.19,1.19,0,0,1,0-2.38h.94v-2.18a1.23,1.23,0,0,1,1.28-1.24A1.2,1.2,0,0,1,234,159.5v2.2h2.36a1.19,1.19,0,0,1,0,2.38H234v6.18c0,.24.06.62.4.62s.5-.22.78-.82c.42-.9.8-1.08,1.22-1.08a1.28,1.28,0,0,1,1.26,1.3c0,.86-1.1,3.4-3.46,3.4-2.62,0-2.7-2.46-2.7-3.32v-6.28Z"/><path class="cls-7" d="M151.36,134.58c-.9,0-1.08,0-1.38-.45a9,9,0,0,1-4.29,2.05,1,1,0,0,1-1-1,1,1,0,0,1,.69-1,11.53,11.53,0,0,0,2.26-1c-1.27-1.16-1.31-1.19-1.31-1.59a.9.9,0,0,1,.9-.93c.56,0,1.25.54,2.07,1.32a5,5,0,0,0,1.29-1.66c0-.11-.11-.11-.26-.11h-3.12c-.76,0-1.49,0-1.49-1s.63-1.06,1.49-1.06h4.33c1.06,0,1.64.45,1.64,1.46a4.56,4.56,0,0,1-1.45,2.91h3.79a8.23,8.23,0,0,1-1.9-4.12.92.92,0,0,1,1-.9,1,1,0,0,1,.86.37c.11.13.69,1.36.82,1.66.3-.24,1.59-1.36,1.86-1.57a1,1,0,0,1,.6-.22,1,1,0,0,1,1,1c0,.63-1.38,1.88-2.3,2.61a5.05,5.05,0,0,0,.62.63,21.42,21.42,0,0,0,1.85-1.75,1.42,1.42,0,0,1,1-.58,1.13,1.13,0,0,1,1.14,1c0,.67-1.36,1.87-2.31,2.61a11.39,11.39,0,0,0,1.9.9.79.79,0,0,1,.58.82,1.17,1.17,0,0,1-1.16,1.14c-.69,0-2.05-.35-4-1.9-.26.3-.47.3-1.27.3Zm-1.68,7.69a6.38,6.38,0,0,1-.35-1.16.5.5,0,0,1,.07-.28c-.48,0-1.83,0-1.83-1.66v-2c0-1.64,1.27-1.64,2.07-1.64h7.57c.82,0,2.09,0,2.09,1.64v2c0,1.59-1.27,1.62-1.74,1.66a1,1,0,0,1,.07.35,3.67,3.67,0,0,1-.34,1.08H160c.3,0,1.49,0,1.49,1.1s-1.12,1.1-1.49,1.1H147c-.3,0-1.49,0-1.49-1.1s1.12-1.1,1.49-1.1Zm.71-4.81c-.34,0-.58,0-.58.45v.45c0,.43.24.43.58.43h6c.34,0,.58,0,.58-.43v-.45c0-.45-.26-.45-.58-.45Zm1.14,3.38a5.9,5.9,0,0,1,.62,1.44h2.74c.13-.3.56-1.27.67-1.44Z"/><path class="cls-7" d="M166.17,137.51H165c-.78,0-1.51,0-1.51-1s.63-1.06,1.51-1.06h1.12v-1.25h-.62c-.75,0-1.49,0-1.49-1s.69-1,1.49-1h3.4c.75,0,1.49,0,1.49,1s-.67,1-1.49,1h-.58v1.25h.93c.77,0,1.49,0,1.49,1s-.63,1.08-1.49,1.08h-.93v4.38c.24-.06,1.42-.32,1.55-.32a.78.78,0,0,1,.35.07c0-.48.15-.56,1.32-1.34.17-.11.9-.71,1.06-.8a14.27,14.27,0,0,1-1.19-1c-.41-.37-.6-.56-.6-1a1,1,0,0,1,1-.91,2.89,2.89,0,0,1,2.15,2.05.9.9,0,0,1-.5.8,1.42,1.42,0,0,1,.69,1c0,.9-2.46,2.26-2.87,2.26a.83.83,0,0,1-.49-.15.87.87,0,0,1-.76,1,27.2,27.2,0,0,1-5.63,1c-.49,0-1-.2-1-1.16,0-.65.6-.86,1.08-.91l1.7-.22Zm3.53-8.4c1.12.88,1.25,1,1.25,1.45a1.07,1.07,0,0,1-1,1c-.5,0-.86-.24-2.05-1.34-.37-.34-.41-.37-.49-.37s-.17,0-.54.41c-.73.73-1.75,1.68-2.35,1.68a1,1,0,0,1-1-1c0-.52.15-.65,1.53-1.77.24-.2,1.29-1.14,1.53-1.31a1.37,1.37,0,0,1,.84-.26C167.9,127.7,168.07,127.85,169.69,129.12Zm-4.78,12.72c-.62,0-.75-.52-.8-.8a19.66,19.66,0,0,1-.39-2.05.79.79,0,0,1,.82-.8c.67,0,.8.62,1,1.38a11.36,11.36,0,0,1,.24,1.42A.86.86,0,0,1,164.92,141.84Zm5.49-1.45c-.07.37-.21,1-.91,1a.79.79,0,0,1-.8-.75c0-.19.26-1.45.3-1.73s.17-.91.86-.91a.82.82,0,0,1,.8.86A11.6,11.6,0,0,1,170.4,140.39Zm4.14-4.5h-2.61c-.84,0-1.49,0-1.49-1s.75-1,1.49-1h5.13V133h-4c-.76,0-1.49,0-1.49-1s.73-1,1.49-1h4v-.5c0-.2,0-.3-.34-.3H173.2c-.88,0-1.49,0-1.49-1.1s.73-1,1.49-1h4.55a1.5,1.5,0,0,1,1.64,1.6v4.07c1,0,1.6,0,1.6,1.06s-.75,1-1.49,1h-2.74v1.47c.11.17.19.28.43.62.15-.09.9-.52,1.06-.63.82-.52,1-.6,1.25-.6a1.14,1.14,0,0,1,1,1.12c0,.58-.17.69-2,1.79.26.26,1.21,1.19,1.83,1.77.37.35.43.52.43.78a1.25,1.25,0,0,1-1.14,1.16c-.47,0-1.08-.32-2.89-2.54V143a1.62,1.62,0,0,1-1.83,1.88c-1,0-2.72-.32-2.72-1.38a1,1,0,0,1,.9-1c.19,0,1.12.3,1.31.3s.13-.11.13-.19Z"/><path class="cls-7" d="M186.63,138a1.51,1.51,0,0,1-.19.73,2.36,2.36,0,0,0-.19.8c0,1.49,3,1.7,4.76,1.7a26.7,26.7,0,0,0,4.8-.54,3,3,0,0,1,.78-.13,1.27,1.27,0,0,1,1.29,1.38,1.14,1.14,0,0,1-.86,1.21,23.76,23.76,0,0,1-5.69.58c-3.51,0-7.54-.54-7.54-4a4.48,4.48,0,0,1,.67-2.37,1.09,1.09,0,0,1,1-.49C185.66,136.88,186.63,137.08,186.63,138Zm.73-6.49c-1.42,0-2.39,0-2.39-1.29a1.07,1.07,0,0,1,1.19-1.18l1.68,0c1.44,0,3,0,4.38-.11.28,0,1.51-.13,1.75-.13,1.34,0,1.74,1.57,1.74,2.13,0,.82-.22.93-1.6,1.66l-1.4.78a1.28,1.28,0,0,1-.58.15.93.93,0,0,1-.88-1c0-.58.54-.9,1.92-1.53A47.09,47.09,0,0,1,187.36,131.51Zm10.11-1.34a.74.74,0,0,1-.75.77c-.39,0-.45-.11-1-1.18a10.87,10.87,0,0,1-.63-1.08.77.77,0,0,1-.06-.24.69.69,0,0,1,.73-.65.64.64,0,0,1,.34.07A4.33,4.33,0,0,1,197.47,130.16Zm2-.8a.77.77,0,0,1-.76.78c-.39,0-.47-.13-1.08-1.21s-.65-1.14-.65-1.31a.67.67,0,0,1,.69-.63.94.94,0,0,1,.39.09A4.09,4.09,0,0,1,199.47,129.36Z"/><path class="cls-7" d="M205,129.79a1.94,1.94,0,0,1-.22-.82,1.29,1.29,0,0,1,1.38-1.23c.8,0,1,.41,1.46,1.36.67,1.42,1.19,2.89,1.73,4.37a19.11,19.11,0,0,1,5-1.45,1.2,1.2,0,0,1,1.23,1.23,1.27,1.27,0,0,1-.71,1.18c-.26.13-2.28.58-2.71.71-3.69,1-6.7,2.54-6.7,4.48s3.6,2,4.53,2a25,25,0,0,0,3.92-.26c.24,0,1.16-.22,1.29-.22a1.27,1.27,0,0,1,1.18,1.4,1,1,0,0,1-.71,1.14,19.25,19.25,0,0,1-5,.43c-2.11,0-8,0-8-4.44,0-2.85,2.72-4.27,4.25-5.07C206,132,205.8,131.58,205,129.79Z"/><path class="cls-7" d="M224.6,137.49a.74.74,0,0,1,.8.77c0,.41-.47,2.13-.52,2.5s-.3,2.11-.45,2.44a1.22,1.22,0,0,1-1.19.69,1.55,1.55,0,0,1-1.47-.93,16,16,0,0,1-1-6.1c0-3.06.45-6.79,1.08-7.74a1.14,1.14,0,0,1,.91-.47,1.21,1.21,0,0,1,1.31,1.08c0,.22-.5,2.89-.58,3.43a36.45,36.45,0,0,0-.3,5.09,7.91,7.91,0,0,0,.09,1.55C223.67,138.05,223.84,137.49,224.6,137.49Zm4.33,2.28c0,1.16,2.11,1.19,2.57,1.19.9,0,2.2-.11,2.69-.17a5.36,5.36,0,0,1,.8-.09,1.15,1.15,0,0,1,1.18,1.25c0,.82-.34,1.51-3.26,1.51-2.52,0-4.07,0-5.22-.93a3.15,3.15,0,0,1-1.14-2.5c0-.77,0-1.92,1.27-1.92C228.86,138.11,228.89,138.82,228.93,139.77Zm-1-10c.11,0,2.28.09,2.67.09a20,20,0,0,0,3.1-.32,4.3,4.3,0,0,1,.93-.15,1.26,1.26,0,0,1,.19,2.48,36.39,36.39,0,0,1-5.35.39c-1.66,0-2.67,0-2.67-1.36A1.19,1.19,0,0,1,227.9,129.73Z"/><path class="cls-8" d="M81,149.73a34.92,34.92,0,0,0-34.92-34.92h0v69.84h0A34.92,34.92,0,0,0,81,149.73Z"/><path class="cls-9" d="M11.2,149.73a34.92,34.92,0,0,0,34.92,34.92V114.81A34.92,34.92,0,0,0,11.2,149.73Z"/><polygon class="cls-8" points="52.68 199.23 51.8 188.12 46.11 188.12 46.11 208.1 46.11 208.1 52.68 199.23"/><polygon class="cls-9" points="40.43 188.12 39.55 199.23 46.11 208.1 46.11 188.12 40.43 188.12"/><path class="cls-8" d="M90.83,218.29C89.27,209,81.35,196,75.68,190c-1.53-1.64-4.2-1-5.13-.38a47,47,0,0,1-8.16,4l-16.27,22h0v10.22h0a4.18,4.18,0,1,1,0,8.36h0v15.4h0C70.1,249.59,94.66,241.28,90.83,218.29Z"/><path class="cls-9" d="M41.93,230a4.18,4.18,0,0,1,4.18-4.18V215.61l-16.27-22a47,47,0,0,1-8.16-4c-.94-.58-3.6-1.26-5.13.38C10.87,196,3,209,1.4,218.29c-3.83,23,20.73,31.3,44.72,31.3v-15.4A4.18,4.18,0,0,1,41.93,230Z"/><path class="cls-10" d="M234.11,191.78a4,4,0,0,1-2.28-.72l-91.39-64a4,4,0,1,1,4.57-6.52l91.39,64a4,4,0,0,1-2.29,7.24Z"/><path class="cls-10" d="M142.72,191.78a4,4,0,0,1-2.29-7.24l91.39-64a4,4,0,1,1,4.57,6.52l-91.39,64A4,4,0,0,1,142.72,191.78Z"/><path class="cls-3" d="M65.64,29.4C76.17,32,78.26,34,80.84,44.43,83.42,34,85.51,32,96,29.4c-10.53-2.55-12.62-4.62-15.2-15C78.26,24.79,76.17,26.85,65.64,29.4Z"/><path class="cls-5" d="M82.95,51c7.43,1.8,8.91,3.26,10.73,10.61C95.5,54.27,97,52.81,104.41,51,97,49.21,95.5,47.75,93.68,40.4,91.86,47.75,90.38,49.21,82.95,51Z"/><path class="cls-3" d="M316.2,30.92c-10.53,2.55-12.62,4.62-15.2,15-2.58-10.41-4.67-12.48-15.2-15,10.53-2.55,12.62-4.62,15.2-15C303.57,26.3,305.66,28.37,316.2,30.92Z"/><path class="cls-5" d="M298.88,52.52c-7.44,1.8-8.91,3.26-10.73,10.61-1.82-7.35-3.3-8.81-10.73-10.61,7.43-1.8,8.91-3.26,10.73-10.61C290,49.26,291.45,50.72,298.88,52.52Z"/><path class="cls-3" d="M131.61,71.52a2.81,2.81,0,0,1-2.94,3.22,3,3,0,0,1-3.22-3.31V66.78H114.14c-2.85,0-4.23-1.89-4.23-3.63a8.54,8.54,0,0,1,1.24-3.63l12.78-20.83a4.18,4.18,0,0,1,7.68,2.16v20c1.24,0,3.72,0,3.72,2.94s-2.48,2.94-3.72,2.94ZM117.27,60.9h8.18V47.24Z"/><path class="cls-3" d="M138.89,70.51a4.22,4.22,0,0,1,4.23-4.23,4.26,4.26,0,0,1,4.28,4.64c0,5-5.33,9.15-6.67,9.15a1.26,1.26,0,0,1-1.29-1.29c0-.69.18-.83,1.7-2a11.55,11.55,0,0,0,1.93-2.07A4.23,4.23,0,0,1,138.89,70.51Z"/><path class="cls-3" d="M176.28,55.8c0,9.75-2.57,18.94-12.69,18.94s-12.73-9-12.73-18.94c0-9.24,2.34-18.94,12.73-18.94C173.79,36.85,176.28,46.28,176.28,55.8Zm-18.94,0c0,7.54,1.47,12.73,6.25,12.73s6.25-4.92,6.25-12.73c0-7.59-1.52-12.73-6.25-12.73S157.34,48.21,157.34,55.8Z"/><path class="cls-3" d="M205.74,55.8c0,9.75-2.57,18.94-12.69,18.94s-12.73-9-12.73-18.94c0-9.24,2.34-18.94,12.73-18.94C203.26,36.85,205.74,46.28,205.74,55.8Zm-18.94,0c0,7.54,1.47,12.73,6.25,12.73s6.25-4.92,6.25-12.73c0-7.59-1.52-12.73-6.25-12.73S186.8,48.21,186.8,55.8Z"/><path class="cls-3" d="M235.21,55.8c0,9.75-2.57,18.94-12.69,18.94s-12.73-9-12.73-18.94c0-9.24,2.34-18.94,12.73-18.94C232.73,36.85,235.21,46.28,235.21,55.8Zm-18.94,0c0,7.54,1.47,12.73,6.25,12.73s6.25-4.92,6.25-12.73c0-7.59-1.52-12.73-6.25-12.73S216.27,48.21,216.27,55.8Z"/><path class="cls-3" d="M239.85,55.22c0-1.08,0-2.45,1.89-2.45,1.64,0,2.17,1.15,2.27,2.38.94-1.08,2.06-2.38,5.35-2.38,6.19,0,8.68,5.35,8.68,10.91s-2.31,10.67-8.4,10.67a8,8,0,0,1-5.32-1.78v3.53a2.27,2.27,0,0,1-2.13,2.31,2.3,2.3,0,0,1-2.34-2.24Zm4.48,9.69c0,1.12.38,4.79,4.72,4.79,2.1,0,4.44-.84,4.44-6.33,0-1.57-.35-3.74-1.54-4.9a4.06,4.06,0,0,0-3.08-1c-3.18,0-4.55,2.73-4.55,4.93Z"/><path class="cls-3" d="M261.49,57.57a2.09,2.09,0,0,1,0-4.16h1.64V49.59a2.15,2.15,0,0,1,2.24-2.17,2.11,2.11,0,0,1,2.13,2.13V53.4h4.13a2.09,2.09,0,0,1,0,4.16h-4.13V68.38c0,.42.1,1.08.7,1.08s.87-.38,1.36-1.43c.73-1.57,1.4-1.89,2.13-1.89a2.24,2.24,0,0,1,2.2,2.27c0,1.5-1.92,5.95-6.05,5.95-4.58,0-4.72-4.3-4.72-5.81v-11Z"/><path class="cls-2" d="M133.33,9.54A14.7,14.7,0,0,1,130,2.74,1.53,1.53,0,0,1,131.65,1a1.38,1.38,0,0,1,1.27.71c.22.4,1,2.23,1.15,2.58a19.83,19.83,0,0,0,3-2.08c1-.81,1.15-.9,1.65-.9a1.53,1.53,0,0,1,1.55,1.52c0,.65-.34,1-1,1.58A24.79,24.79,0,0,1,135.66,7a19.09,19.09,0,0,0,1.24,1.58,28.28,28.28,0,0,0,3.63-2.82c.93-.93,1.15-1.12,1.77-1.12a1.54,1.54,0,0,1,1.52,1.52c0,1.21-2.7,3.23-4.53,4.5a17.89,17.89,0,0,0,3.54,1.58,1.77,1.77,0,0,1,1.3,1.74c0,.47-.28,1.4-1.77,1.4-.93,0-3.76-.71-6.89-3.6-.47.75-.84.75-2.3.75h-6.64c-1.46,0-1.89,0-2.33-.84-1,.78-5.34,3.69-7.45,3.69a1.35,1.35,0,0,1-1.43-1.49,1.41,1.41,0,0,1,1.09-1.4,22.43,22.43,0,0,0,3.85-1.86c-.31-.34-1.83-1.83-2-2.08a1.41,1.41,0,0,1-.25-.84,1.52,1.52,0,0,1,1.49-1.55c.87,0,1.49.53,3.29,2.55a8.53,8.53,0,0,0,2.39-3.29c0-.28-.4-.28-.59-.28h-6c-1.15,0-2.48,0-2.48-1.52s1.34-1.52,2.48-1.52h7.51c2.64,0,2.86,1.3,2.86,2.3s-1,3.35-2.61,5.15Zm2.73,13a1.41,1.41,0,0,1,.65,1.15,9.09,9.09,0,0,1-.71,2.48h4.66c1.15,0,2.48,0,2.48,1.49s-1.34,1.52-2.48,1.52H118.58c-1.15,0-2.48,0-2.48-1.52s1.34-1.49,2.48-1.49h5.5a3.38,3.38,0,0,0-.16-.44,10,10,0,0,1-.75-2,1.25,1.25,0,0,1,.65-1.15h-1.3c-.74,0-2.58,0-2.58-2.27v-3.7c0-2.42,1.89-2.42,3.11-2.42h13.26a3.33,3.33,0,0,1,2,.4,2,2,0,0,1,1,1.61v3.45c0,1.27,0,2.92-2.3,2.92ZM124.51,17c-1.3,0-1.46,0-1.46.84V19c0,.78.09.84,1,.84h11.08c.84,0,.84-.19.84-.87V17.8c0-.75-.12-.81-.84-.81Zm.93,5.56c.93.62,1.68,3.14,1.8,3.63h5.34c.12-.44.68-2.27.81-2.64a1.7,1.7,0,0,1,.71-1Z"/><path class="cls-2" d="M155.62,3.21c.37.4,2.14,2,2.36,2.42a1.3,1.3,0,0,1,.16.71,1.31,1.31,0,0,1-1.37,1.34c-.93,0-2.2-1.49-3.14-2.61-.22-.28-.47-.56-.78-.56s-.28.06-.75.56c-1.27,1.3-3.07,3.1-4.19,3.1a1.38,1.38,0,0,1-1.37-1.4c0-.65.12-.78,1.34-1.77a39.11,39.11,0,0,0,3.42-3,2.53,2.53,0,0,1,1.58-.71C153.67,1.31,154.1,1.66,155.62,3.21Zm-4.13,14h-2.08c-1.12,0-2.48,0-2.48-1.49s1.4-1.46,2.48-1.46h2.08V12.21h-2c-1.15,0-2.48,0-2.48-1.46s1.34-1.43,2.48-1.43h5.77c1.15,0,2.48,0,2.48,1.43s-1.34,1.46-2.48,1.46h-1v2.08h1.55c1.12,0,2.48,0,2.48,1.49s-1.37,1.46-2.48,1.46h-1.55v8.2c.53-.12,2.79-.78,3.26-.78a1.07,1.07,0,0,1,.65.16c0-.78.65-1.15,1.52-1.55a17.76,17.76,0,0,0,2.73-1.71c.65-.47.9-.5,1.18-.5a1.18,1.18,0,0,1,1.21,1.21c0,.81-.47,1.18-1.77,2-.93.62-2.82,1.8-3.63,1.8A1.51,1.51,0,0,1,159,26c0,1.15-1.06,1.46-1.55,1.61a46.66,46.66,0,0,1-8.94,1.83A1.43,1.43,0,0,1,147,28c0-.59.31-1.27,1.49-1.46.5-.09,2.61-.4,3-.5Zm-2,8.17c-1.15,0-1.34-1.21-1.4-1.58-.09-.68-.78-3.73-.78-4.38a1.23,1.23,0,0,1,1.21-1.21,1.42,1.42,0,0,1,1.24.87,40.7,40.7,0,0,1,1,4.41C151,25,150,25.41,149.54,25.41Zm8.32-3.07c-.19.93-.56,1.55-1.4,1.55a1.08,1.08,0,0,1-1.18-1.18,33,33,0,0,1,.53-3.51,1.22,1.22,0,0,1,1.24-1.06,1.27,1.27,0,0,1,1.24,1.06C158.36,19.51,158.36,20,157.86,22.33Zm10.34,5c0,1.43-.31,2.39-3.42,2.39-2,0-3.42-.25-3.42-1.65a1.41,1.41,0,0,1,1.52-1.4c.28,0,1.49.19,1.77.19a.73.73,0,0,0,.81-.75v-12h-4.91c-1.12,0-2.48,0-2.48-1.49s1.37-1.49,2.48-1.49h8.91V9.32h-7.33c-1.06,0-2.45,0-2.45-1.37s1.43-1.34,2.45-1.34h7.33V5.35c0-.4,0-.62-.44-.62h-6.89c-1.06,0-2.45,0-2.45-1.37S161.12,2,162.14,2h8.07a2.27,2.27,0,0,1,2.23,2.55v6.58c1.58,0,2.86,0,2.86,1.49s-1.4,1.49-2.48,1.49H168.2v1.92c.59,1.43.65,1.58,1,2.24a27.67,27.67,0,0,0,3.2-1.93c.62-.43.87-.43,1-.43a1.35,1.35,0,0,1,1.37,1.3,1.87,1.87,0,0,1-1,1.52,26.85,26.85,0,0,1-3.23,2,18.55,18.55,0,0,0,4.19,4.47,1.7,1.7,0,0,1,.75,1.24,1.36,1.36,0,0,1-1.37,1.37c-1,0-3.29-1.71-5.93-6Zm-3.79-9.87a1.65,1.65,0,0,1,.47,1.15,1.36,1.36,0,0,1-1.43,1.3c-.44,0-.65-.16-2.48-1.52-1.55-1.15-1.71-1.27-1.71-1.89A1.43,1.43,0,0,1,161,15.1,14.52,14.52,0,0,1,164.41,17.46Z"/><path class="cls-2" d="M183.18,18.54a3,3,0,0,1-.44,1.27,3.08,3.08,0,0,0-.56,1.49c0,2.67,6.58,3,9.28,3a30.46,30.46,0,0,0,6.4-.74c.12,0,1.52-.31,1.77-.31A1.65,1.65,0,0,1,201.25,25a1.86,1.86,0,0,1-1.12,1.71,27.63,27.63,0,0,1-8.35,1.06c-4.29,0-13.23-.68-13.23-6.24a7.35,7.35,0,0,1,1.68-4,1.49,1.49,0,0,1,1.37-.44A1.65,1.65,0,0,1,183.18,18.54Zm1.4-10.65c-3.79,0-4.81-.19-4.81-1.86a1.55,1.55,0,0,1,1.55-1.74c.44,0,5.62.25,6.68.25A50,50,0,0,0,194.52,4,19.75,19.75,0,0,1,197,3.67a2,2,0,0,1,1.92,2c0,.75-.09.84-2.58,2.73-2.76,2.11-3.35,2.42-3.91,2.42A1.39,1.39,0,0,1,191,9.45a1.45,1.45,0,0,1,.84-1.18c.16-.12.9-.59,1.06-.68C188.46,7.83,187.41,7.9,184.58,7.9Zm17-4.07a4.48,4.48,0,0,1,1.06,2.36.82.82,0,0,1-.87.9c-.71,0-.81-.22-1.65-2A19.51,19.51,0,0,0,199,3a1.45,1.45,0,0,1-.19-.56.7.7,0,0,1,.75-.65C200.1,1.75,201.13,3.21,201.56,3.83Zm3.73,1a.86.86,0,0,1-.87,1c-.59,0-.68-.19-1.49-1.83a13.08,13.08,0,0,0-1.21-2,1.52,1.52,0,0,1-.34-.81A.67.67,0,0,1,202,.41C202.84.41,205.29,3.92,205.29,4.82Z"/><path class="cls-2" d="M212.38,6.72c-1.12-2.51-1.49-3.35-1.49-3.79a1.71,1.71,0,0,1,1.77-1.68c1.15,0,1.58.87,2,1.83.75,1.68,2,5.06,3.17,8.2a38.71,38.71,0,0,1,3.82-1.37,10.38,10.38,0,0,1,3.29-.78,1.67,1.67,0,0,1,1.83,1.8,1.54,1.54,0,0,1-.9,1.43,31.55,31.55,0,0,1-3,.87c-8.41,2.42-12.36,4.78-12.36,8,0,3.45,4.32,3.7,7.39,3.7a35.89,35.89,0,0,0,7.08-.75c.12,0,2.08-.44,2.17-.44a1.52,1.52,0,0,1,1.52,1.65c0,1.06-.62,1.52-2,1.86a42.32,42.32,0,0,1-9,1c-2.61,0-5.93-.22-8-1.74a6,6,0,0,1-2.7-5.15c0-4.35,3.48-6.86,7.86-8.85C214.24,11.06,213.12,8.36,212.38,6.72Z"/><path class="cls-2" d="M239.23,18.7a1.14,1.14,0,0,1,1.24,1.12,16.76,16.76,0,0,1-1,2.83,17.87,17.87,0,0,0-.62,3.2c-.12.87-.31,1.89-1.74,1.89a1.92,1.92,0,0,1-1.89-1.37c-.68-1.43-1.3-5.46-1.3-9.78a37,37,0,0,1,2-12,1.86,1.86,0,0,1,1.77-1.46,1.74,1.74,0,0,1,1.83,1.61A3.12,3.12,0,0,1,239.17,6a31.18,31.18,0,0,0-2,11.43,21.94,21.94,0,0,0,.22,3.54C237.77,20,238.21,18.7,239.23,18.7Zm7,1.61c0,.31-.34,1.55-.34,1.83,0,1.65,3.79,1.74,5.65,1.74.68,0,3.73-.16,4.32-.16s2,0,2,1.61-1.12,1.92-6.12,1.92c-2.64,0-9.31-.19-9.31-5,0-.16,0-3.45,2.11-3.45A1.57,1.57,0,0,1,246.22,20.32Zm-1.61-14.9c.47,0,2.48.09,2.92.09,1.68,0,3.94-.09,5.18-.19.34,0,1.86-.19,2.17-.19a1.62,1.62,0,0,1,1.83,1.68A1.79,1.79,0,0,1,255,8.55a74.28,74.28,0,0,1-8,.4c-3,0-4.22-.06-4.22-1.92C242.77,6.87,242.77,5.41,244.61,5.41Z"/><path class="cls-2" d="M81.54,86.58a20,20,0,0,1-.74,2.63,17.39,17.39,0,0,0-.65,4.59c0,3.48,1.45,6,2.68,6,.47,0,.76-.13,1.45-1s.76-.91,1.25-.91a1.15,1.15,0,0,1,1.16,1.18,4.52,4.52,0,0,1-3.92,3.39c-3.14,0-5-4.55-5-9.07a23.87,23.87,0,0,1,1.18-7c.09-.25.49-1.07,1.2-1.07A1.27,1.27,0,0,1,81.54,86.58Zm8.8.69c.36,0,1,.09,2.32,1.72a13.16,13.16,0,0,1,2.56,8c0,1.34,0,2.88-1.56,2.88-1.16,0-1.16-1-1.16-1.38s.07-1.63.07-1.89a9.58,9.58,0,0,0-2.65-6.71,2.21,2.21,0,0,1-.78-1.16A1.3,1.3,0,0,1,90.35,87.27Z"/><path class="cls-2" d="M99.22,88.54a23.36,23.36,0,0,1,9.16-2.36c4.19,0,8.13,2.23,8.13,6.82,0,5.53-4.64,8.92-11.39,8.92-.56,0-1.81,0-1.81-1.2a1.24,1.24,0,0,1,1.38-1.32,14.48,14.48,0,0,0,4.77-.51A6,6,0,0,0,114,93.16c0-3.86-3.48-4.64-5.86-4.64a19.27,19.27,0,0,0-7.85,2.36,3,3,0,0,1-1.49.54,1.19,1.19,0,0,1-1.14-1.16C97.68,89.34,98.26,89,99.22,88.54Z"/><path class="cls-2" d="M124.84,86.13c0-.85.09-1.74,1.27-1.74s1.23,1,1.18,1.85l-.13,2.14,2.76,0c.76,0,1.81,0,1.81,1.23s-1,1.25-1.78,1.25l-2.94,0-.13,2.36,3.21,0c.85,0,1.81,0,1.81,1.2s-1,1.25-1.78,1.25l-3.39,0-.11,1.65c-.18,2.61,1.72,3.43,3.45,3.43,3.7,0,4.46-2.47,4.46-3.74a10.25,10.25,0,0,0-.25-2,2.86,2.86,0,0,1-.13-.74,1.22,1.22,0,0,1,1.34-1.07,1.1,1.1,0,0,1,1.11.82,8.06,8.06,0,0,1,.49,2.83c0,3.59-2.27,6.31-7,6.31a6.25,6.25,0,0,1-4.88-2,5.67,5.67,0,0,1-1-3.95l.09-1.56-2.88,0c-.78,0-1.78,0-1.78-1.23s.94-1.25,1.76-1.25l3,0,.11-2.36-2.74,0c-.74,0-1.78,0-1.78-1.27s.94-1.2,1.78-1.2l2.88,0Z"/><path class="cls-2" d="M155.46,88.67l.62,0A1.18,1.18,0,0,1,157.38,90c0,1.23-.69,1.27-1.65,1.36l-4.79.4.07,4.32a24,24,0,0,1,5.66,3,1.8,1.8,0,0,1,1,1.36,1.5,1.5,0,0,1-1.32,1.4c-.38,0-.53-.11-1.92-1.09a18.66,18.66,0,0,0-3.32-2c0,1-.2,4.43-5,4.43-3,0-5.59-1.45-5.59-4.1,0-3,3-4.19,5.5-4.19a16,16,0,0,1,2.68.24l-.29-8.85c0-.71-.07-1.85,1.27-1.85s1.23,1,1.25,1.78l0,2.88Zm-9.41,8.8c-1.23,0-3.05.31-3.05,1.51,0,1,1.43,1.81,2.9,1.81a2.75,2.75,0,0,0,2.47-1.29,3.23,3.23,0,0,0,.27-1.54A5.75,5.75,0,0,0,146.05,97.48Z"/><path class="cls-2" d="M165,85.89c0,.24-.38,3.1-.45,3.63-.11.85-.18,2.32-.18,2.72s0,2,.8,2c.38,0,.67-.31,1-.67s.65-.54.89-.54a1.11,1.11,0,0,1,1.11,1.23c0,1.11-1.78,2.72-3.48,2.72-2.52,0-2.7-3.45-2.7-4.68a40.37,40.37,0,0,1,.54-6.26c.09-.45.24-1,.91-1.11C163.95,84.82,165,84.84,165,85.89Zm5.86,15.71a14.57,14.57,0,0,1-4.59,1.56,1.3,1.3,0,0,1-1.27-1.4c0-.89.47-1,1.78-1.29,6.55-1.52,6.55-5.1,6.55-8.18a38.05,38.05,0,0,0-.29-4.57,14.53,14.53,0,0,1-.13-1.61,1.28,1.28,0,0,1,1.4-1.27,1.1,1.1,0,0,1,1,.51c.36.62.6,4.5.6,5.3C175.94,95.87,175.94,99,170.9,101.6Z"/><path class="cls-2" d="M180.72,94.75a1.24,1.24,0,1,1,0-2.48h5.78V86.54a1.31,1.31,0,1,1,2.63,0v5.73h5.78a1.24,1.24,0,1,1,0,2.48h-5.78v5.73a1.31,1.31,0,1,1-2.63,0V94.75Z"/><path class="cls-2" d="M201.81,87.13l-2.2,2.68a1.39,1.39,0,0,1-1.05.5A1.31,1.31,0,0,1,197.32,89a1.12,1.12,0,0,1,.26-.79l3.1-3.51a3,3,0,0,1,2-1,1.77,1.77,0,0,1,1.79,1.93v16.33a1.38,1.38,0,0,1-1.36,1.41,1.37,1.37,0,0,1-1.34-1.41Z"/><path class="cls-2" d="M209.91,101.44a1.93,1.93,0,1,1,3.84.19,5.09,5.09,0,0,1-3.06,4.18.59.59,0,0,1-.6-.6c0-.29.1-.36.76-.88a5.05,5.05,0,0,0,.93-1A1.89,1.89,0,0,1,209.91,101.44Z"/><path class="cls-2" d="M228.77,93.51c0,4.82-1.22,9.84-6.45,9.84-5.06,0-6.45-4.66-6.45-9.84,0-4.8,1.19-9.84,6.45-9.84S228.77,88.5,228.77,93.51Zm-10.17,0c0,4.61,1.05,7.21,3.73,7.21S226,98,226,93.51s-1-7.21-3.73-7.21S218.59,89,218.59,93.51Z"/><path class="cls-2" d="M244.21,93.51c0,4.82-1.22,9.84-6.45,9.84-5.06,0-6.45-4.66-6.45-9.84,0-4.8,1.19-9.84,6.45-9.84S244.21,88.5,244.21,93.51Zm-10.17,0c0,4.61,1.05,7.21,3.73,7.21s3.73-2.68,3.73-7.21-1-7.21-3.73-7.21S234,89,234,93.51Z"/><path class="cls-2" d="M259.66,93.51c0,4.82-1.22,9.84-6.45,9.84-5.06,0-6.45-4.66-6.45-9.84,0-4.8,1.19-9.84,6.45-9.84S259.66,88.5,259.66,93.51Zm-10.17,0c0,4.61,1.05,7.21,3.73,7.21s3.73-2.68,3.73-7.21-1-7.21-3.73-7.21S249.49,89,249.49,93.51Z"/><path class="cls-2" d="M262.72,90.76c0-1,0-2.15,1.12-2.15s1.22,1.19,1.27,1.89A4.28,4.28,0,0,1,269,88.62c3.94,0,5.85,3.51,5.85,7.45s-1.86,7.31-5.59,7.31a5.23,5.23,0,0,1-4-1.65v3.1a1.21,1.21,0,0,1-1.22,1.29,1.31,1.31,0,0,1-1.31-1.27Zm2.53,6.64a3.5,3.5,0,0,0,3.56,3.32c3.08,0,3.39-3.3,3.39-4.68s-.24-4.78-3.41-4.78a3.49,3.49,0,0,0-3.53,3.37Z"/><path class="cls-2" d="M277.26,91.41a1.16,1.16,0,0,1-1.12-1.22c0-.1,0-1.15,1.34-1.15h1.29V86.39a1.25,1.25,0,0,1,1.29-1.24,1.17,1.17,0,0,1,1.19,1.22V89h3.08a1.16,1.16,0,0,1,1.12,1.22c0,1-1.1,1.15-1.12,1.15h-3.08v8.12c0,.33,0,1,.72,1,.5,0,.69-.24,1.5-1.29a1.17,1.17,0,0,1,.91-.41,1.29,1.29,0,0,1,1.22,1.29,3.72,3.72,0,0,1-3.65,3.2c-2.36,0-3.18-1.55-3.18-3.63V91.41Z"/><path class="cls-2" d="M295.62,101.44a1.91,1.91,0,1,1-1.91-1.91A1.92,1.92,0,0,1,295.62,101.44ZM292,85.53a1.75,1.75,0,1,1,3.49,0l-.88,11.87a.89.89,0,0,1-.86,1c-.74,0-.84-.79-.86-1Z"/><g class="cls-11"><polygon class="cls-1" points="0 -302 0 778 289.38 778 0 680.27 0 543.42 396.45 778 439.78 778 0 406.66 0 236.18 466.81 778 483.75 778 0 50.46 0 -206.16 497.07 778 507.05 778 86.07 -302 0 -302"/><polygon class="cls-1" points="209.61 -302 515.87 778 523.24 778 308.64 -302 209.61 -302"/><polygon class="cls-12" points="308.64 -302 523.24 778 530.3 778 407.81 -302 308.64 -302"/><polygon class="cls-12" points="86.07 -302 507.05 778 515.87 778 209.61 -302 86.07 -302"/><polygon class="cls-12" points="0 50.46 483.75 778 497.07 778 0 -206.16 0 50.46"/><polygon class="cls-12" points="0 406.66 439.78 778 466.81 778 0 236.18 0 406.66"/></g></svg>