<svg id="レイヤー_1" data-name="レイヤー 1" xmlns="http://www.w3.org/2000/svg" viewBox="0 0 530 160"><defs><style>.cls-1{fill:none;stroke:#fff;stroke-linecap:round;stroke-linejoin:round;stroke-width:8px;}.cls-2{fill:#f45934;}.cls-3{fill:#4a4848;}.cls-4{fill:#066b74;}</style></defs><title>img_text_newregist</title><path class="cls-1" d="M111.23,25.55a3.37,3.37,0,0,1-3.63,3.4c-1.16,0-1.87-.15-3.52-2.25-1.49-1.9-2.75-2.6-4.95-2.6-4.73,0-6.27,5.15-6.27,8.85,0,4,1.92,8.8,6.82,8.8,1.65,0,3-.2,4.89-2.5,1.21-1.5,2.09-2,3.46-2a3.14,3.14,0,0,1,3.46,3.2c0,2.2-4.51,8-12,8-7.26,0-13.91-5.45-13.91-15.55,0-5.7,2.37-15.35,14.24-15.35C104.74,17.5,111.23,21.2,111.23,25.55Z"/><path class="cls-1" d="M144.94,32.95c0,6.55-3.13,15.4-15,15.4s-15-8.85-15-15.4,3.19-15.45,15-15.45S144.94,26.4,144.94,32.95Zm-22.66,0c0,2.5.6,8.8,7.7,8.8s7.7-6.3,7.7-8.8S137,24.1,130,24.1,122.28,30.4,122.28,32.95Z"/><path class="cls-1" d="M151,10.5a3.43,3.43,0,0,1,3.46-3.35,3.38,3.38,0,0,1,3.57,3.25V45.1a3.37,3.37,0,0,1-3.35,3.25A3.5,3.5,0,0,1,151,45Z"/><path class="cls-1" d="M166.24,10.5a3.43,3.43,0,0,1,3.46-3.35,3.38,3.38,0,0,1,3.57,3.25V45.1a3.37,3.37,0,0,1-3.35,3.25A3.5,3.5,0,0,1,166.24,45Z"/><path class="cls-1" d="M186.75,35.3c.16,1.7.77,6.85,6.6,6.85,1.82,0,3.08-.45,4.78-2.7,1.32-1.75,2.09-2.15,3.63-2.15a3.2,3.2,0,0,1,3.13,3.3c0,3.7-5,7.75-11.77,7.75-4.79,0-13.75-2.3-13.75-15,0-11.7,7.09-15.9,13.31-15.9,6.93,0,12.59,5.1,12.59,12.2,0,3.6-1,5.6-4,5.6Zm10-5.9c1.15,0,1.43-.25,1.43-.65a5.3,5.3,0,0,0-5.39-5.05c-4.67,0-5.61,4.55-5.83,5.7Z"/><path class="cls-1" d="M216.7,35.3c.17,1.7.77,6.85,6.6,6.85,1.82,0,3.08-.45,4.79-2.7,1.32-1.75,2.09-2.15,3.63-2.15a3.2,3.2,0,0,1,3.13,3.3c0,3.7-5,7.75-11.77,7.75-4.78,0-13.75-2.3-13.75-15,0-11.7,7.09-15.9,13.31-15.9,6.93,0,12.59,5.1,12.59,12.2,0,3.6-1,5.6-4,5.6Zm10-5.9c1.15,0,1.43-.25,1.43-.65a5.3,5.3,0,0,0-5.39-5.05c-4.67,0-5.61,4.55-5.83,5.7Z"/><path class="cls-1" d="M246.66,35.3c.17,1.7.77,6.85,6.6,6.85,1.81,0,3.08-.45,4.78-2.7,1.32-1.75,2.09-2.15,3.63-2.15a3.2,3.2,0,0,1,3.13,3.3c0,3.7-5,7.75-11.77,7.75-4.78,0-13.75-2.3-13.75-15,0-11.7,7.09-15.9,13.31-15.9,6.93,0,12.59,5.1,12.59,12.2,0,3.6-1,5.6-4,5.6Zm10-5.9c1.16,0,1.43-.25,1.43-.65a5.29,5.29,0,0,0-5.39-5.05c-4.67,0-5.61,4.55-5.83,5.7Z"/><path class="cls-1" d="M276.84,16.74a5.75,5.75,0,0,1,3.06-1.62,1.94,1.94,0,0,1,2,1.94c0,.68-.18,1-1.73,2.23A16.29,16.29,0,0,0,273.6,32c0,7.56,5.4,11.84,6.55,12.74,1.51,1.15,1.73,1.51,1.73,2.23a1.94,1.94,0,0,1-2,1.94c-1.44,0-3.53-2-4.18-2.66A20.07,20.07,0,0,1,269.5,32C269.5,23.69,274.82,18.47,276.84,16.74Z"/><path class="cls-1" d="M308.3,17.6c1.62,0,2.38,0,3.49.76a3.53,3.53,0,0,1,1.51,3V39.13c0,4.18-3.13,4.18-4.25,4.18H289c-1.91,0-3.85,0-3.85-2.45s1.94-2.45,3.85-2.45h17.71c1.51,0,1.58-.32,1.58-1.73V24.08c0-1.51,0-1.66-2.16-1.66H289c-1.87,0-3.85,0-3.85-2.41s2-2.41,3.85-2.41Z"/><path class="cls-1" d="M325.81,28.44c0,1.91,0,3.85-2.66,3.85s-2.63-2-2.63-3.85V19c0-1.87,0-3.85,2.63-3.85s2.66,2,2.66,3.85ZM343,30.34c0,4.72-1.15,9.43-6.23,12.74a18,18,0,0,1-8.53,2.81,2.48,2.48,0,0,1-2.52-2.66c0-2.12,1.84-2.38,2.77-2.48,2.66-.36,6.55-1.73,8.24-4.46.83-1.33,1.3-4.68,1.3-6V18.79c0-1.94,0-3.85,2.48-3.85S343,16.85,343,18.79Z"/><path class="cls-1" d="M371.64,28c1.65,0,3.24,0,3.24,2.48s-1.59,2.48-3.24,2.48H352.43c-1.65,0-3.24,0-3.24-2.48S350.78,28,352.43,28Z"/><path class="cls-1" d="M380.43,46.29c-.65.65-2.74,2.66-4.18,2.66a2,2,0,0,1-2-1.94c0-.72.22-1.08,1.73-2.23,1.15-.9,6.55-5.18,6.55-12.74A16.29,16.29,0,0,0,376,19.29c-1.55-1.19-1.73-1.55-1.73-2.23a2,2,0,0,1,2-1.94c1.08,0,2.41,1,3.1,1.62,2,1.73,7.34,6.95,7.34,15.3A19.92,19.92,0,0,1,380.43,46.29Z"/><path class="cls-1" d="M399,34a1.78,1.78,0,0,1,1.88,1.72c0,.8-1.24,2.8-1.68,4-.64,1.68-1.2,4.16-1.56,5.16a2.83,2.83,0,0,1-2.76,2.12c-2.28,0-2.76-2.16-3-3.12a66,66,0,0,1-.72-10.68c0-7.8.88-16.24,1.8-18.2a2.55,2.55,0,0,1,4.8,1c0,.36-1.12,10.48-1.24,12.44-.16,2.24-.32,5.68-.28,8.92C396.88,35.49,397.6,34,399,34Zm14.48-16.52c0-1.76-.08-2.48.28-3.08a2.58,2.58,0,0,1,2.28-1.28c2.56,0,2.6,2.2,2.64,4.24l.08,2.76,2.4-.08c2.08-.08,4.36-.16,4.36,2.68,0,2.56-2.08,2.64-4.16,2.72l-2.44.08.28,11.08c4.92,2.44,6,4.16,6,5.88a2.56,2.56,0,0,1-2.6,2.72c-1,0-1.28-.28-4-2.68a5.31,5.31,0,0,1-1.48,3,9.49,9.49,0,0,1-6.2,2c-4.32,0-8.8-2.48-8.8-7.2,0-1.44.48-6.48,8-6.48a12.31,12.31,0,0,1,4,.56l-.32-8.72-7.48.24c-2.08.08-4.36.16-4.36-2.68,0-2.56,2.08-2.64,4.16-2.72l7.48-.24Zm-3.76,21.2c-2.4,0-2.48,1.44-2.48,1.68,0,1.4,1.84,2.16,3.48,2.16a2.78,2.78,0,0,0,3.12-3A13.16,13.16,0,0,0,409.76,38.65Z"/><path class="cls-1" d="M431.64,41.41c-.8-.76-1.32-1.2-1.32-1.92a2,2,0,0,1,2-2c1.48,0,8.52,4.92,8.52,7.6a2.58,2.58,0,0,1-2.48,2.52c-.92,0-1.28-.32-2.4-1.64A54.08,54.08,0,0,0,431.64,41.41Z"/><path class="cls-1" d="M27.1,84.64c7,0,12.68,3.91,12.68,10.64,0,7-6.83,10.4-11.18,10.4a2.19,2.19,0,0,1-2.28-2.31c0-2,1.33-2.21,2.38-2.38,4.83-.82,6.29-3.57,6.29-5.88A5.86,5.86,0,0,0,31,89.53a19,19,0,0,1-6.12,10.54,12.47,12.47,0,0,1,.2,1.5A2.13,2.13,0,0,1,23,103.71a2.2,2.2,0,0,1-1.8-1,9.78,9.78,0,0,1-4.69,1.36c-4.22,0-6.26-3.37-6.26-7,0-4,2.79-9.35,9.28-11.12,0-2.31.07-2.58.07-2.86-1.22,0-5.41.14-6.15-.17a2.16,2.16,0,0,1-1.29-2A2.09,2.09,0,0,1,14,78.86c.48-.07,4.76-.1,5.78-.1.17-2.28.31-4,2.38-4a2.17,2.17,0,0,1,2.48,2.35c0,.1-.14,1.39-.14,1.56,1.6,0,8.74-.44,10.2-.44a2,2,0,0,1,2.21,2,1.89,1.89,0,0,1-1.22,2c-1,.27-10.44.68-11.63.75,0,.78-.07,1.29-.1,1.87A21.19,21.19,0,0,1,27.1,84.64ZM14.76,96.81c0,2.11,1.39,2.62,2.24,2.62a7.18,7.18,0,0,0,3.23-1.09,73.8,73.8,0,0,1-.68-8.06C18.16,91,14.76,92.87,14.76,96.81Zm9.45-2A13,13,0,0,0,27,88.92a8.75,8.75,0,0,0-1.22-.07A14.64,14.64,0,0,0,24,89,55.54,55.54,0,0,0,24.21,94.8Z"/><path class="cls-1" d="M50.25,76.68a1.94,1.94,0,0,1,1.87-1.16,2.15,2.15,0,0,1,2.21,2.24A16.84,16.84,0,0,1,54,80.25L57.38,80a2.22,2.22,0,0,1,.75,4.32,38.26,38.26,0,0,1-5.1.41,38.09,38.09,0,0,1-5.34,12.1c-.88,1.29-1.63,1.43-2.24,1.43a2.19,2.19,0,0,1-2.31-2.21c0-.68.24-1.05,2.45-4.42a21.86,21.86,0,0,0,3.09-6.83,17,17,0,0,1-3.3-.1,2.09,2.09,0,0,1-1.6-2.11,2.2,2.2,0,0,1,1.43-2.11,41.79,41.79,0,0,1,4.32-.1C49.74,79.13,50.11,77,50.25,76.68Zm11,13.6c-.07-1.73-.14-3.71,2.24-3.71,2.18,0,2.28,1.73,2.35,3.5l.24,5c5.64,2.35,6,3.4,6,4.49A2.36,2.36,0,0,1,69.79,102a2.44,2.44,0,0,1-1.53-.61,26.28,26.28,0,0,0-2.45-1.7c-.07,2.72-1.94,5.34-7.11,5.34-5.44,0-7.24-3.64-7.24-6,0-2.75,2.41-5.71,7-5.71a9.73,9.73,0,0,1,2.89.37Zm-2.69,7c-2.35,0-2.48,1.26-2.48,1.67,0,1,1,2,2.72,2,1.36,0,2.89-.54,2.79-3.06A7.11,7.11,0,0,0,58.57,97.28ZM71.39,88c-.75,0-1-.14-2.72-1.56-1.29-1-3.23-2.24-4.9-3.3A2.47,2.47,0,0,1,62.25,81a2.38,2.38,0,0,1,2.38-2.31c1.84,0,6.36,3.81,6.94,4.35,2,1.8,2,2.18,2,3A2.25,2.25,0,0,1,71.39,88Z"/><path class="cls-1" d="M83,76.68a2.14,2.14,0,0,1,2.18-1.36c2.21,0,2.21,2,2.21,2.92s-.07,1.73-.14,2.55c.44,0,2.35-.27,2.72-.27A2.12,2.12,0,0,1,92,82.7c0,2.11-1.77,2.24-5.34,2.55-1.22,8.67-4.39,17-5.13,18.19a2.22,2.22,0,0,1-2,1.26,2.34,2.34,0,0,1-2.58-2.31c0-.51.14-.85,1.22-3.37a49.42,49.42,0,0,0,4-13.5c-.75.07-1.53.1-2.24.1-1.12,0-3.2,0-3.2-2.28A2.19,2.19,0,0,1,79,81.1c1.43,0,2.28,0,3.64-.07A35.26,35.26,0,0,1,83,76.68Zm9.76,20.13c.31,2.86.71,3.54,7.45,3.54a32.62,32.62,0,0,0,3.5-.2c.14,0,.27,0,.41,0a2.23,2.23,0,0,1,2.18,2.35c0,2.35-2.24,2.58-6.19,2.58-5.61,0-7.65-.92-8.94-1.77-2.75-1.8-2.79-5.58-2.79-6,0-2.55,2.07-2.55,2.18-2.55C91.25,94.73,92.54,94.8,92.75,96.81Zm11.12-9.08c-.34,0-4.52-.34-5.37-.34-.54,0-2.92.07-3.43.07a2.11,2.11,0,0,1-2.28-2.18C92.78,83,95.06,83,98,83c1.22,0,6.12.1,7,.61a2.11,2.11,0,0,1,1,2.21A2,2,0,0,1,103.86,87.73Z"/><path class="cls-1" d="M122,99a6.7,6.7,0,0,1-5.44,3.2c-4.59,0-7.48-4.86-7.48-9.93,0-8.81,7.21-14.79,15.61-14.79,7.11,0,14.28,4.18,14.28,13.39,0,11.35-10.5,13.53-13.23,13.53a2.22,2.22,0,0,1-2.45-2.38c0-1.77,1-2,3.3-2.38a10.19,10.19,0,0,0,4.76-2,9.09,9.09,0,0,0-5.51-15.91C126.17,91.06,123.79,96.23,122,99Zm-8.5-6.83c0,3.37,1.73,5.3,3.2,5.3s2.72-3.16,3-4.11a32.54,32.54,0,0,0,1.8-11.08A9.87,9.87,0,0,0,113.45,92.12Z"/><path class="cls-1" d="M155.32,81.2V77.57c0-1.39,0-2.72,2.07-2.72s2.07,1.36,2.07,2.72V81.2h9.28c1.22,0,2.72,0,2.72,1.94s-1.5,2-2.72,2h-9.28V91h8c1.05,0,2.69,0,2.69,1.94s-1.63,1.9-2.69,1.9h-8v6.46h11c1.16,0,2.72,0,2.72,2s-1.56,2-2.72,2H144.62c-1.33,0-2.69,0-2.69-2s1.36-2,2.69-2h10.71V94.8h-7.55c-1,0-2.65,0-2.65-1.9S146.76,91,147.78,91h7.55V85.11h-7c-1.19,2-2.79,4.62-4.52,4.62a2,2,0,0,1-2-1.94c0-.61.14-.82,1-1.94a27.68,27.68,0,0,0,4.32-8.5,2,2,0,0,1,2-1.6,2,2,0,0,1,2.14,1.9,13.54,13.54,0,0,1-1,3.54Z"/><path class="cls-1" d="M181.6,90.76c-.51,0-.75-.17-2.92-1.7-.37-.24-2-1.33-2.35-1.56a1.86,1.86,0,0,1-.82-1.46,2.11,2.11,0,0,1,1.87-2c1,0,3.13,1.43,4.22,2.21,1.67,1.19,2.11,1.77,1.94,2.69C183.47,89.26,182.79,90.76,181.6,90.76ZM184.36,95c0,.17-.24,3.09-3.74,8.77-1,1.63-1.5,2.07-2.28,2.07-1,0-2.35-.85-2.35-2,0-.54.24-1,1.09-2.35a33,33,0,0,0,3.47-7.11,1.48,1.48,0,0,1,1.56-1.09C182.56,93.38,184.36,93.61,184.36,95Zm-1.87-12.1c-.71,0-.92-.2-2.89-1.77-.37-.31-2-1.56-2.35-1.87a1.4,1.4,0,0,1-.51-1.12,2.06,2.06,0,0,1,1.87-2c1.09,0,2.69,1.26,3.84,2.28,1.87,1.63,2,1.94,2,2.48A2,2,0,0,1,182.49,82.94Zm15,.85h6.8c1.39,0,2.72,0,2.72,1.8,0,2-1.12,2-2.72,2h-6.8V91.3H202c3.23,0,3.47,2.48,3.47,3.23v7.72c0,.48,0,3.23-3.47,3.23H189.76c-3.16,0-3.43-2.41-3.43-3.23V94.53c0-.44,0-3.23,3.43-3.23h3.57V87.56h-6.43c-1.43,0-2.72,0-2.72-1.8,0-2,1.09-2,2.72-2h6.43V80.35c-1,0-2.24.1-4,.1-.58,0-2.35,0-2.72-.07s-1.29-.27-1.29-1.8.65-2,2.18-2c3.33,0,6.63,0,9.93-.31,1-.1,5.78-.71,6.15-.71,1.87,0,1.87,1.39,1.87,1.77,0,1.8-.44,2.11-8,2.79Zm-6,11.39c-.71,0-1.12,0-1.12.92v4.59c0,.92.41.92,1.12.92h8.8c.71,0,1.09,0,1.09-.92V96.09c0-.92-.37-.92-1.09-.92Z"/><path class="cls-1" d="M220.42,86.51a8.18,8.18,0,0,1,3.64-.82,5,5,0,0,1,5,2.92c1.39-.51,6.87-2.45,7.72-2.45a2,2,0,0,1,2,2.24c0,1.36-.75,1.77-2.11,2.14-3,.78-4.83,1.39-6.77,2.07.07.92.14,1.94.14,2.75s0,3-2.24,3a2.18,2.18,0,0,1-2.21-2.41c0-.24,0-1.26,0-1.46-1.8.88-4.73,2.35-4.73,4,0,1.39,1.46,2.14,6,2.14a44.77,44.77,0,0,0,5.71-.48,8.65,8.65,0,0,1,1.46-.24,2.24,2.24,0,0,1,2.21,2.35,2.12,2.12,0,0,1-1.36,2c-1.73.75-7.28.75-8.67.75-1.22,0-5.81,0-8-1.77A5.38,5.38,0,0,1,216.17,99c0-2.21.92-4.9,8.7-8.74a2.39,2.39,0,0,0-1.8-.78c-3.43,0-7.51,3.2-8.91,4.56-1.16,1.09-1.53,1.43-2.41,1.43a2.38,2.38,0,0,1-2.31-2.31,2.11,2.11,0,0,1,.88-1.67c4.35-3.91,5.75-5.17,7.14-7.75l-3.54.07c-.88,0-3,0-3-2.11s1.87-2.07,2.62-2.07c1.94,0,3.91,0,5.85-.1.2-.51,1-2.92,1.19-3.37a2.22,2.22,0,0,1,1.87-1.09,2.35,2.35,0,0,1,2.38,2.11,7.31,7.31,0,0,1-.65,2.11c1.39-.07,3.88-.24,5.13-.37.78-.07.92-.07,1.05-.07a1.9,1.9,0,0,1,2.14,2.07,1.86,1.86,0,0,1-1.5,2.07,85.25,85.25,0,0,1-8.94.58A22.15,22.15,0,0,1,220.42,86.51Z"/><path class="cls-1" d="M250.7,90.49C253.26,88,258.35,88,259,88c5.95,0,9.48,3.74,9.48,8.13a8.3,8.3,0,0,1-4.83,7.48c-1.6.75-4,1.7-9.32,1.7-3.77,0-5.92-.37-5.92-2.72a2.22,2.22,0,0,1,2.21-2.35,4.37,4.37,0,0,1,1,.14,26.71,26.71,0,0,0,4.28.31c7,0,8.09-3.47,8.09-4.76,0-1.63-1.5-3.88-5.47-3.88a14.7,14.7,0,0,0-8.67,3.2c-2,1.43-2.18,1.56-3,1.56a2.48,2.48,0,0,1-2.35-2.55c0-.65.1-.85,1-2.65a57.33,57.33,0,0,0,3-6.56c-.82,0-4.69,0-5.13,0a2.11,2.11,0,0,1-2-2.14A2.25,2.25,0,0,1,244,80.59c4.08,0,4.52,0,5.92,0,0-.24.78-3.81.82-3.91a1.9,1.9,0,0,1,1.9-1.19A2.11,2.11,0,0,1,255,77.7a16.13,16.13,0,0,1-.48,2.75c4-.1,5.78-.24,7.75-.41.58-.07,3-.37,3.47-.37a2,2,0,0,1,2.21,2.18A2.15,2.15,0,0,1,265.83,84c-2.86.44-9.72.85-12.78,1A33.76,33.76,0,0,1,250.7,90.49Z"/><path class="cls-1" d="M288.14,96.6a21.7,21.7,0,0,1,6.12,3.54,2.38,2.38,0,0,1,1,2,1.93,1.93,0,0,1-2,2,1.91,1.91,0,0,1-1.36-.48,27.84,27.84,0,0,0-4-2.62c-.48,1.67-1.26,4.45-6.87,4.45-7,0-7-5.37-7-5.44,0-1.6,1.26-5.17,6.53-5.17a14.49,14.49,0,0,1,3.47.41l-.1-10.17c0-1.77,0-3.6,2.11-3.6s2,1.8,2.07,3.57l0,2.35c.88,0,4.76-.24,5.54-.24,1.7,0,2.21,1,2.21,1.9A1.88,1.88,0,0,1,294,91c-1.16.14-4.59.2-5.88.2Zm-7.72,2.14c-1.6,0-1.94.78-1.94,1.22,0,.68.68,1.7,2.52,1.7,2.52,0,2.65-1.16,2.79-2.28A10.09,10.09,0,0,0,280.42,98.75Z"/><path class="cls-1" d="M311.09,99.19c.41,0,3.4.17,4,.17,3.5,0,7.34-1.73,7.34-6.53,0-3.47-2.38-4.9-6.32-4.9-2.79,0-5.41.78-9.18,2.72a4.2,4.2,0,0,1-1.87.68A2.38,2.38,0,0,1,302.9,89a2.5,2.5,0,0,1,1.87-2.28,28.8,28.8,0,0,1,12-2.89c5.54,0,10,3.26,10,9.11a10.07,10.07,0,0,1-4.45,8.64c-2.79,1.77-6.9,2.14-9.11,2.14-3.23,0-4.25-.48-4.25-2.58A2,2,0,0,1,311.09,99.19Z"/><path class="cls-1" d="M336.78,78.69a3.54,3.54,0,0,1-.41-1.5,2.36,2.36,0,0,1,2.52-2.24c1.46,0,1.8.75,2.65,2.48,1.22,2.58,2.18,5.27,3.16,8,.75-.34,6.49-2.65,9.15-2.65A2.18,2.18,0,0,1,356.09,85a2.31,2.31,0,0,1-1.29,2.14c-.48.24-4.15,1.05-4.93,1.29-6.73,1.9-12.21,4.62-12.21,8.16s6.56,3.57,8.26,3.57a45.45,45.45,0,0,0,7.14-.48c.44-.07,2.11-.41,2.35-.41a2.31,2.31,0,0,1,2.14,2.55,1.86,1.86,0,0,1-1.29,2.07c-.92.34-4,.78-9,.78-3.84,0-14.52,0-14.52-8.09,0-5.2,5-7.79,7.75-9.25C338.65,82.8,338.24,82,336.78,78.69Z"/><path class="cls-1" d="M375.36,86.88a17.14,17.14,0,0,1,2.89-.2c7.1,0,12.54,3.3,12.54,9s-5,9.45-11.15,9.45a2.23,2.23,0,0,1-2.55-2.38c0-1.94,1.5-2.14,3.33-2.41,2.28-.31,5.44-1.29,5.44-4.62,0-4.39-6.05-4.62-7.85-4.62a11.69,11.69,0,0,0-2.65.27V99.9a6.87,6.87,0,0,1-.34,3c-.65,1.33-2.52,2.18-4.59,2.18A8.23,8.23,0,0,1,361.9,97c0-5.17,5-8.26,9-9.45V84.2l-5.78.2c-2.45.1-2.62-1.67-2.62-2.14,0-2.11,1.77-2.18,2.75-2.21l5.64-.17v-1c0-1.73,0-3.64,2.24-3.64s2.24,1.9,2.24,3.64v.88l3.6-.1c1.26,0,1.6,0,2.07.27a2.34,2.34,0,0,1,1,1.87c0,2-2.07,2.11-2.65,2.14l-4,.14Zm-4.49,5.58c-3.77,1-4.15,3.47-4.15,4.42a3.33,3.33,0,0,0,3.37,3.47c.75,0,.78-.37.78-1.63ZM389.44,87c-1.16,0-1.36-.31-3.09-3a37.56,37.56,0,0,0-2.58-3.43,2.46,2.46,0,0,1-.78-1.77,2.21,2.21,0,0,1,2.18-2.18c.92,0,1.84.48,4.32,3.94.68,1,2.31,3.23,2.31,4A2.35,2.35,0,0,1,389.44,87Z"/><path class="cls-1" d="M397.66,92.93c-1,.78-1.43.85-1.84.85a2,2,0,0,1-2-2.07,1.73,1.73,0,0,1,.78-1.5,31.56,31.56,0,0,0,5.23-5.78c1-1.56,1.16-2.07,2.21-2.07.41,0,2.14.41,2.14,1.87,0,1.05-1.5,3-2.52,4.39v14.65c0,1.26,0,2.79-2,2.79s-2-1.46-2-2.79Zm.31-10.1a2.7,2.7,0,0,1-1.8.82,2.07,2.07,0,0,1-1.9-2c0-.65.27-.92,2.55-3.4.41-.41,2-2.41,2.38-2.82a1.8,1.8,0,0,1,1.43-.61,2.11,2.11,0,0,1,2,2.31C402.35,78.45,399.19,81.75,398,82.84Zm23.8,10.57h.75c1.39,0,2.72,0,2.72,1.77s-1.33,1.8-2.72,1.8h-.75v5.1c0,3.67-2.92,3.67-4.73,3.67-4.32,0-4.76-.92-4.76-2.21,0-.65.34-2.14,1.7-2.14.44,0,2.35.34,2.75.34s1,0,1-.85V97h-8.63c.82.85,2.75,3.2,2.75,4.18a1.9,1.9,0,0,1-1.87,1.8c-1,0-1.09-.2-2.41-2-.2-.27-1.16-1.5-1.33-1.73a1.78,1.78,0,0,1-.34-1A1.48,1.48,0,0,1,406.4,97c-2.07,0-3.23,0-3.23-1.8s1.33-1.77,2.72-1.77h11.8V92H406.13c-1.33,0-2.72,0-2.72-1.7s1.39-1.7,2.72-1.7h16.39c1.33,0,2.72,0,2.72,1.7S423.8,92,422.51,92h-.75Zm-1-18a2.72,2.72,0,0,1,3.13,2.89v6.12c0,2.35-1.77,2.86-3.13,2.86h-13c-.68,0-3.13,0-3.13-2.86V78.31c0-2.35,1.77-2.89,3.13-2.89Zm-1.09,4.32c0-.92,0-1.19-.68-1.19h-9.45c-.71,0-.71.27-.71,1.19ZM408.81,82.8c0,1,0,1.19.71,1.19H419c.68,0,.71-.24.71-1.19Z"/><path class="cls-1" d="M436.15,92.73a1.35,1.35,0,0,1,1.46,1.39c0,.75-.85,3.88-1,4.56s-.54,3.84-.82,4.45a2.23,2.23,0,0,1-2.18,1.26,2.83,2.83,0,0,1-2.69-1.7c-.34-.68-1.73-4.52-1.73-11.12,0-5.58.82-12.37,2-14.11a2.09,2.09,0,0,1,1.67-.85,2.21,2.21,0,0,1,2.38,2c0,.41-.92,5.27-1.05,6.26a66.62,66.62,0,0,0-.54,9.28,14.45,14.45,0,0,0,.17,2.82C434.45,93.75,434.75,92.73,436.15,92.73ZM444,96.88c.07,2.11,3.84,2.18,4.69,2.18,1.63,0,4-.2,4.9-.31a9.74,9.74,0,0,1,1.46-.17,2.1,2.1,0,0,1,2.14,2.28c0,1.5-.61,2.75-5.95,2.75-4.59,0-7.41,0-9.52-1.7a5.75,5.75,0,0,1-2.07-4.56c0-1.39,0-3.5,2.31-3.5C443.9,93.85,444,95.14,444,96.88Zm-1.87-18.29c.2,0,4.15.17,4.86.17a36.51,36.51,0,0,0,5.64-.58,7.83,7.83,0,0,1,1.7-.27,2.3,2.3,0,0,1,.34,4.52,66.34,66.34,0,0,1-9.76.71c-3,0-4.86,0-4.86-2.48A2.16,2.16,0,0,1,442.17,78.59Z"/><path class="cls-1" d="M477.2,78.69c0-1.77,0-3.64,2.28-3.64s2.28,1.87,2.28,3.64v.54l4.76,0c1.94,0,3.64,0,3.64,2.11s-1.77,2.21-3.6,2.21l-4.79,0V89.5a14.68,14.68,0,0,1,.88,4.69c0,9.32-9.93,11.66-11.39,11.66a2.28,2.28,0,0,1-2.35-2.41c0-1.73,1.12-2,2.89-2.58,4.35-1.29,5.85-3.5,6-5A5,5,0,0,1,473.46,98a6.51,6.51,0,1,1,.14-13,9.25,9.25,0,0,1,3.6.71V83.58l-13.46.1c-1.83,0-3.6,0-3.6-2.14s1.63-2.18,3.57-2.18l13.5-.1Zm-5.68,12.85A2.43,2.43,0,0,0,474.14,94a2.47,2.47,0,0,0,2.69-2.45,2.66,2.66,0,0,0-5.3,0Z"/><path class="cls-1" d="M509.77,86.85c8,0,10,5.37,10,8.47,0,6.49-6.39,9.52-12.88,9.52-1.29,0-8.91,0-8.91-5.61,0-2.69,2.21-5,6.26-5,6.15,0,6.8,4.59,7,6.05,3.26-1.29,4.15-3.13,4.15-4.66,0-4.83-5.64-4.83-6.77-4.83a15.8,15.8,0,0,0-10.5,3.47c-2.48,1.77-2.75,1.94-3.71,1.94a2.28,2.28,0,0,1-2.28-2.38,3.14,3.14,0,0,1,1.7-2.58c6.12-4.25,7.11-4.86,16-10.64-4.28.58-11.49.82-11.76.82a2.16,2.16,0,0,1-2.24-2.24c0-2.28,2-2.28,3-2.28.51,0,2.86.07,3.33.07,2.65,0,6.9-.2,8.16-.27.34,0,2.75-.14,2.86-.14,1.8,0,3.2.78,3.2,2.69,0,1.63-1.16,2.52-2.18,3.26a86.13,86.13,0,0,1-8.06,5A9.4,9.4,0,0,1,509.77,86.85ZM504,97.9c-1.09,0-1.73.51-1.73,1.09,0,1,1.53,1.87,3.43,1.87.31,0,.51,0,.88-.07C506.54,100,506.4,97.9,504,97.9Z"/><path class="cls-1" d="M180.27,126.64c0-1.77,0-3.6,2.28-3.6s2.31,1.84,2.31,3.6v3.2h2.92c1.73,0,3.64,0,3.64,2.24s-1.9,2.21-3.64,2.21h-2.92v1.77c0,4.15,0,9.45-6.12,13.33a15.85,15.85,0,0,1-7.51,2.45,2.27,2.27,0,0,1-2.41-2.55,2.16,2.16,0,0,1,1.9-2.18c4.25-1,6.46-1.5,8.16-4.39a12.63,12.63,0,0,0,1.39-6.56v-1.87H171.8v3.06c0,1.77,0,3.6-2.28,3.6s-2.28-1.84-2.28-3.6v-3.06h-3.16c-1.73,0-3.64,0-3.64-2.24s1.9-2.21,3.64-2.21h3.16v-3.2c0-1.77,0-3.6,2.28-3.6s2.28,1.84,2.28,3.6v3.2h8.46Z"/><path class="cls-1" d="M213.71,135.11c1.56,0,3.06,0,3.06,2.35s-1.5,2.35-3.06,2.35H195.56c-1.56,0-3.06,0-3.06-2.35s1.5-2.35,3.06-2.35Z"/><path class="cls-1" d="M227.19,141.9c0,2.82,0,4,8,4a42.11,42.11,0,0,0,8.46-.71,4.31,4.31,0,0,1,1.16-.17,2.27,2.27,0,0,1,2.24,2.48,2.1,2.1,0,0,1-1.67,2.07,43.55,43.55,0,0,1-9.86.88c-10.61,0-13-2-13-7.17V126.91c0-1.84,0-3.6,2.35-3.6s2.35,1.77,2.35,3.6v5.37a46.28,46.28,0,0,0,13.9-2.92c1.73-.75,1.94-.85,2.48-.85a2.26,2.26,0,0,1,2.18,2.38c0,1.39-.58,2.14-5,3.43a54.77,54.77,0,0,1-13.56,2.38ZM242,125.35c-.71-1.5-.78-1.63-.78-2a1.28,1.28,0,0,1,1.29-1.33c.88,0,1.22.54,1.87,1.56,1.05,1.67,1.19,2.21,1.19,2.65a1.48,1.48,0,0,1-1.56,1.56C243.17,127.76,243,127.52,242,125.35Zm7.55-.82a1.34,1.34,0,0,1-1.43,1.43c-1.5,0-3.06-3.57-3.06-4.18a1.17,1.17,0,0,1,1.46-1.12C247.55,120.9,249.56,123.31,249.56,124.53Z"/><path class="cls-1" d="M257.64,128.65c-1.73,0-3.64,0-3.64-2.24s1.9-2.24,3.64-2.24h13.53c2.69,0,4.42,1,4.42,3.74,0,.75-.34,4.83-4.18,10.3a43,43,0,0,1,6.09,5.71c3,3.26,3.33,4.15,3.33,5a2.48,2.48,0,0,1-2.48,2.28c-1,0-1-.07-3.23-2.79a51.55,51.55,0,0,0-6.63-6.73c-6,6.19-13,9.45-14.75,9.45a2.44,2.44,0,0,1-2.28-2.55c0-1.53,1-1.94,1.9-2.28,12.27-4.62,17-14.69,17-17,0-.61-.27-.61-1.09-.61Z"/><path class="cls-1" d="M284.07,130.35a2.22,2.22,0,0,1-2.24-2.48c0-2.18,1.84-2.28,3.3-2.35,3.64-.17,22.27-1.73,23-1.73a2.27,2.27,0,0,1,2.52,2.41c0,1.9-1.46,2.14-3.16,2.38a15.07,15.07,0,0,0-7.07,3c-3.2,2.41-4.79,4.73-4.79,8.26,0,5.64,5.88,6.56,9.28,7.1a2.08,2.08,0,0,1,2.11,2.28,2.16,2.16,0,0,1-2.24,2.41c-3,0-8.33-1.84-10.78-4.15a9.25,9.25,0,0,1-3-7.17c0-6.19,4-9.32,6.59-11.39C296.34,129.16,284.58,130.35,284.07,130.35Zm20,1.29c1.33,0,3.5,2.79,3.5,3.94a1.56,1.56,0,0,1-1.5,1.53c-.71,0-.85-.2-2.24-2.31-.88-1.29-1-1.43-1-1.8A1.21,1.21,0,0,1,304,131.64Zm2.35-.78a1.14,1.14,0,0,1,1.26-1.22c1.16,0,3.3,2.52,3.3,3.74a1.24,1.24,0,0,1-1.26,1.33,2.15,2.15,0,0,1-.65-.14C308.14,134.19,306.37,131.74,306.37,130.86Z"/><path class="cls-1" d="M330.91,125.69c0-1.77,0-3.64,2.28-3.64s2.28,1.87,2.28,3.64v.54l4.76,0c1.94,0,3.64,0,3.64,2.11s-1.77,2.21-3.6,2.21l-4.79,0v5.95a14.68,14.68,0,0,1,.88,4.69c0,9.32-9.93,11.66-11.39,11.66a2.28,2.28,0,0,1-2.35-2.41c0-1.73,1.12-2,2.89-2.58,4.35-1.29,5.85-3.5,6-5a5,5,0,0,1-4.28,2.11,6.51,6.51,0,1,1,.14-13,9.25,9.25,0,0,1,3.6.71v-2.11l-13.46.1c-1.83,0-3.6,0-3.6-2.14s1.63-2.18,3.57-2.18l13.5-.1Zm-5.68,12.85a2.43,2.43,0,0,0,2.62,2.41,2.47,2.47,0,0,0,2.69-2.45,2.66,2.66,0,0,0-5.3,0Z"/><path class="cls-1" d="M354.22,122.53c1.8,2.89,2,3,6,6.32,2.21,1.8,4.52,3.81,4.52,7.17,0,2.45-1.73,7-6.93,9.35l-.07-.1a20.6,20.6,0,0,0,3.26-3.4,8.88,8.88,0,0,0,2-4.93c0-2-1.43-3.09-2.62-3.84-.82-.51-4.59-2.52-5.34-3v16.39c0,2-3.26,5.75-5.64,5.75a1.82,1.82,0,0,1-2-1.77c0-1.67,1.87-4.32,6.46-4.69V122.53Z"/><path class="cls-2" d="M111.23,25.55a3.37,3.37,0,0,1-3.63,3.4c-1.16,0-1.87-.15-3.52-2.25-1.49-1.9-2.75-2.6-4.95-2.6-4.73,0-6.27,5.15-6.27,8.85,0,4,1.92,8.8,6.82,8.8,1.65,0,3-.2,4.89-2.5,1.21-1.5,2.09-2,3.46-2a3.14,3.14,0,0,1,3.46,3.2c0,2.2-4.51,8-12,8-7.26,0-13.91-5.45-13.91-15.55,0-5.7,2.37-15.35,14.24-15.35C104.74,17.5,111.23,21.2,111.23,25.55Z"/><path class="cls-2" d="M144.94,32.95c0,6.55-3.13,15.4-15,15.4s-15-8.85-15-15.4,3.19-15.45,15-15.45S144.94,26.4,144.94,32.95Zm-22.66,0c0,2.5.6,8.8,7.7,8.8s7.7-6.3,7.7-8.8S137,24.1,130,24.1,122.28,30.4,122.28,32.95Z"/><path class="cls-2" d="M151,10.5a3.43,3.43,0,0,1,3.46-3.35,3.38,3.38,0,0,1,3.57,3.25V45.1a3.37,3.37,0,0,1-3.35,3.25A3.5,3.5,0,0,1,151,45Z"/><path class="cls-2" d="M166.24,10.5a3.43,3.43,0,0,1,3.46-3.35,3.38,3.38,0,0,1,3.57,3.25V45.1a3.37,3.37,0,0,1-3.35,3.25A3.5,3.5,0,0,1,166.24,45Z"/><path class="cls-2" d="M186.75,35.3c.16,1.7.77,6.85,6.6,6.85,1.82,0,3.08-.45,4.78-2.7,1.32-1.75,2.09-2.15,3.63-2.15a3.2,3.2,0,0,1,3.13,3.3c0,3.7-5,7.75-11.77,7.75-4.79,0-13.75-2.3-13.75-15,0-11.7,7.09-15.9,13.31-15.9,6.93,0,12.59,5.1,12.59,12.2,0,3.6-1,5.6-4,5.6Zm10-5.9c1.15,0,1.43-.25,1.43-.65a5.3,5.3,0,0,0-5.39-5.05c-4.67,0-5.61,4.55-5.83,5.7Z"/><path class="cls-2" d="M216.7,35.3c.17,1.7.77,6.85,6.6,6.85,1.82,0,3.08-.45,4.79-2.7,1.32-1.75,2.09-2.15,3.63-2.15a3.2,3.2,0,0,1,3.13,3.3c0,3.7-5,7.75-11.77,7.75-4.78,0-13.75-2.3-13.75-15,0-11.7,7.09-15.9,13.31-15.9,6.93,0,12.59,5.1,12.59,12.2,0,3.6-1,5.6-4,5.6Zm10-5.9c1.15,0,1.43-.25,1.43-.65a5.3,5.3,0,0,0-5.39-5.05c-4.67,0-5.61,4.55-5.83,5.7Z"/><path class="cls-2" d="M246.66,35.3c.17,1.7.77,6.85,6.6,6.85,1.81,0,3.08-.45,4.78-2.7,1.32-1.75,2.09-2.15,3.63-2.15a3.2,3.2,0,0,1,3.13,3.3c0,3.7-5,7.75-11.77,7.75-4.78,0-13.75-2.3-13.75-15,0-11.7,7.09-15.9,13.31-15.9,6.93,0,12.59,5.1,12.59,12.2,0,3.6-1,5.6-4,5.6Zm10-5.9c1.16,0,1.43-.25,1.43-.65a5.29,5.29,0,0,0-5.39-5.05c-4.67,0-5.61,4.55-5.83,5.7Z"/><path class="cls-2" d="M276.84,16.74a5.75,5.75,0,0,1,3.06-1.62,1.94,1.94,0,0,1,2,1.94c0,.68-.18,1-1.73,2.23A16.29,16.29,0,0,0,273.6,32c0,7.56,5.4,11.84,6.55,12.74,1.51,1.15,1.73,1.51,1.73,2.23a1.94,1.94,0,0,1-2,1.94c-1.44,0-3.53-2-4.18-2.66A20.07,20.07,0,0,1,269.5,32C269.5,23.69,274.82,18.47,276.84,16.74Z"/><path class="cls-2" d="M308.3,17.6c1.62,0,2.38,0,3.49.76a3.53,3.53,0,0,1,1.51,3V39.13c0,4.18-3.13,4.18-4.25,4.18H289c-1.91,0-3.85,0-3.85-2.45s1.94-2.45,3.85-2.45h17.71c1.51,0,1.58-.32,1.58-1.73V24.08c0-1.51,0-1.66-2.16-1.66H289c-1.87,0-3.85,0-3.85-2.41s2-2.41,3.85-2.41Z"/><path class="cls-2" d="M325.81,28.44c0,1.91,0,3.85-2.66,3.85s-2.63-2-2.63-3.85V19c0-1.87,0-3.85,2.63-3.85s2.66,2,2.66,3.85ZM343,30.34c0,4.72-1.15,9.43-6.23,12.74a18,18,0,0,1-8.53,2.81,2.48,2.48,0,0,1-2.52-2.66c0-2.12,1.84-2.38,2.77-2.48,2.66-.36,6.55-1.73,8.24-4.46.83-1.33,1.3-4.68,1.3-6V18.79c0-1.94,0-3.85,2.48-3.85S343,16.85,343,18.79Z"/><path class="cls-2" d="M371.64,28c1.65,0,3.24,0,3.24,2.48s-1.59,2.48-3.24,2.48H352.43c-1.65,0-3.24,0-3.24-2.48S350.78,28,352.43,28Z"/><path class="cls-2" d="M380.43,46.29c-.65.65-2.74,2.66-4.18,2.66a2,2,0,0,1-2-1.94c0-.72.22-1.08,1.73-2.23,1.15-.9,6.55-5.18,6.55-12.74A16.29,16.29,0,0,0,376,19.29c-1.55-1.19-1.73-1.55-1.73-2.23a2,2,0,0,1,2-1.94c1.08,0,2.41,1,3.1,1.62,2,1.73,7.34,6.95,7.34,15.3A19.92,19.92,0,0,1,380.43,46.29Z"/><path class="cls-3" d="M399,34a1.78,1.78,0,0,1,1.88,1.72c0,.8-1.24,2.8-1.68,4-.64,1.68-1.2,4.16-1.56,5.16a2.83,2.83,0,0,1-2.76,2.12c-2.28,0-2.76-2.16-3-3.12a66,66,0,0,1-.72-10.68c0-7.8.88-16.24,1.8-18.2a2.55,2.55,0,0,1,4.8,1c0,.36-1.12,10.48-1.24,12.44-.16,2.24-.32,5.68-.28,8.92C396.88,35.49,397.6,34,399,34Zm14.48-16.52c0-1.76-.08-2.48.28-3.08a2.58,2.58,0,0,1,2.28-1.28c2.56,0,2.6,2.2,2.64,4.24l.08,2.76,2.4-.08c2.08-.08,4.36-.16,4.36,2.68,0,2.56-2.08,2.64-4.16,2.72l-2.44.08.28,11.08c4.92,2.44,6,4.16,6,5.88a2.56,2.56,0,0,1-2.6,2.72c-1,0-1.28-.28-4-2.68a5.31,5.31,0,0,1-1.48,3,9.49,9.49,0,0,1-6.2,2c-4.32,0-8.8-2.48-8.8-7.2,0-1.44.48-6.48,8-6.48a12.31,12.31,0,0,1,4,.56l-.32-8.72-7.48.24c-2.08.08-4.36.16-4.36-2.68,0-2.56,2.08-2.64,4.16-2.72l7.48-.24Zm-3.76,21.2c-2.4,0-2.48,1.44-2.48,1.68,0,1.4,1.84,2.16,3.48,2.16a2.78,2.78,0,0,0,3.12-3A13.16,13.16,0,0,0,409.76,38.65Z"/><path class="cls-3" d="M431.64,41.41c-.8-.76-1.32-1.2-1.32-1.92a2,2,0,0,1,2-2c1.48,0,8.52,4.92,8.52,7.6a2.58,2.58,0,0,1-2.48,2.52c-.92,0-1.28-.32-2.4-1.64A54.08,54.08,0,0,0,431.64,41.41Z"/><path class="cls-3" d="M27.1,84.64c7,0,12.68,3.91,12.68,10.64,0,7-6.83,10.4-11.18,10.4a2.19,2.19,0,0,1-2.28-2.31c0-2,1.33-2.21,2.38-2.38,4.83-.82,6.29-3.57,6.29-5.88A5.86,5.86,0,0,0,31,89.53a19,19,0,0,1-6.12,10.54,12.47,12.47,0,0,1,.2,1.5A2.13,2.13,0,0,1,23,103.71a2.2,2.2,0,0,1-1.8-1,9.78,9.78,0,0,1-4.69,1.36c-4.22,0-6.26-3.37-6.26-7,0-4,2.79-9.35,9.28-11.12,0-2.31.07-2.58.07-2.86-1.22,0-5.41.14-6.15-.17a2.16,2.16,0,0,1-1.29-2A2.09,2.09,0,0,1,14,78.86c.48-.07,4.76-.1,5.78-.1.17-2.28.31-4,2.38-4a2.17,2.17,0,0,1,2.48,2.35c0,.1-.14,1.39-.14,1.56,1.6,0,8.74-.44,10.2-.44a2,2,0,0,1,2.21,2,1.89,1.89,0,0,1-1.22,2c-1,.27-10.44.68-11.63.75,0,.78-.07,1.29-.1,1.87A21.19,21.19,0,0,1,27.1,84.64ZM14.76,96.81c0,2.11,1.39,2.62,2.24,2.62a7.18,7.18,0,0,0,3.23-1.09,73.8,73.8,0,0,1-.68-8.06C18.16,91,14.76,92.87,14.76,96.81Zm9.45-2A13,13,0,0,0,27,88.92a8.75,8.75,0,0,0-1.22-.07A14.64,14.64,0,0,0,24,89,55.54,55.54,0,0,0,24.21,94.8Z"/><path class="cls-3" d="M50.25,76.68a1.94,1.94,0,0,1,1.87-1.16,2.15,2.15,0,0,1,2.21,2.24A16.84,16.84,0,0,1,54,80.25L57.38,80a2.22,2.22,0,0,1,.75,4.32,38.26,38.26,0,0,1-5.1.41,38.09,38.09,0,0,1-5.34,12.1c-.88,1.29-1.63,1.43-2.24,1.43a2.19,2.19,0,0,1-2.31-2.21c0-.68.24-1.05,2.45-4.42a21.86,21.86,0,0,0,3.09-6.83,17,17,0,0,1-3.3-.1,2.09,2.09,0,0,1-1.6-2.11,2.2,2.2,0,0,1,1.43-2.11,41.79,41.79,0,0,1,4.32-.1C49.74,79.13,50.11,77,50.25,76.68Zm11,13.6c-.07-1.73-.14-3.71,2.24-3.71,2.18,0,2.28,1.73,2.35,3.5l.24,5c5.64,2.35,6,3.4,6,4.49A2.36,2.36,0,0,1,69.79,102a2.44,2.44,0,0,1-1.53-.61,26.28,26.28,0,0,0-2.45-1.7c-.07,2.72-1.94,5.34-7.11,5.34-5.44,0-7.24-3.64-7.24-6,0-2.75,2.41-5.71,7-5.71a9.73,9.73,0,0,1,2.89.37Zm-2.69,7c-2.35,0-2.48,1.26-2.48,1.67,0,1,1,2,2.72,2,1.36,0,2.89-.54,2.79-3.06A7.11,7.11,0,0,0,58.57,97.28ZM71.39,88c-.75,0-1-.14-2.72-1.56-1.29-1-3.23-2.24-4.9-3.3A2.47,2.47,0,0,1,62.25,81a2.38,2.38,0,0,1,2.38-2.31c1.84,0,6.36,3.81,6.94,4.35,2,1.8,2,2.18,2,3A2.25,2.25,0,0,1,71.39,88Z"/><path class="cls-3" d="M83,76.68a2.14,2.14,0,0,1,2.18-1.36c2.21,0,2.21,2,2.21,2.92s-.07,1.73-.14,2.55c.44,0,2.35-.27,2.72-.27A2.12,2.12,0,0,1,92,82.7c0,2.11-1.77,2.24-5.34,2.55-1.22,8.67-4.39,17-5.13,18.19a2.22,2.22,0,0,1-2,1.26,2.34,2.34,0,0,1-2.58-2.31c0-.51.14-.85,1.22-3.37a49.42,49.42,0,0,0,4-13.5c-.75.07-1.53.1-2.24.1-1.12,0-3.2,0-3.2-2.28A2.19,2.19,0,0,1,79,81.1c1.43,0,2.28,0,3.64-.07A35.26,35.26,0,0,1,83,76.68Zm9.76,20.13c.31,2.86.71,3.54,7.45,3.54a32.62,32.62,0,0,0,3.5-.2c.14,0,.27,0,.41,0a2.23,2.23,0,0,1,2.18,2.35c0,2.35-2.24,2.58-6.19,2.58-5.61,0-7.65-.92-8.94-1.77-2.75-1.8-2.79-5.58-2.79-6,0-2.55,2.07-2.55,2.18-2.55C91.25,94.73,92.54,94.8,92.75,96.81Zm11.12-9.08c-.34,0-4.52-.34-5.37-.34-.54,0-2.92.07-3.43.07a2.11,2.11,0,0,1-2.28-2.18C92.78,83,95.06,83,98,83c1.22,0,6.12.1,7,.61a2.11,2.11,0,0,1,1,2.21A2,2,0,0,1,103.86,87.73Z"/><path class="cls-3" d="M122,99a6.7,6.7,0,0,1-5.44,3.2c-4.59,0-7.48-4.86-7.48-9.93,0-8.81,7.21-14.79,15.61-14.79,7.11,0,14.28,4.18,14.28,13.39,0,11.35-10.5,13.53-13.23,13.53a2.22,2.22,0,0,1-2.45-2.38c0-1.77,1-2,3.3-2.38a10.19,10.19,0,0,0,4.76-2,9.09,9.09,0,0,0-5.51-15.91C126.17,91.06,123.79,96.23,122,99Zm-8.5-6.83c0,3.37,1.73,5.3,3.2,5.3s2.72-3.16,3-4.11a32.54,32.54,0,0,0,1.8-11.08A9.87,9.87,0,0,0,113.45,92.12Z"/><path class="cls-3" d="M155.32,81.2V77.57c0-1.39,0-2.72,2.07-2.72s2.07,1.36,2.07,2.72V81.2h9.28c1.22,0,2.72,0,2.72,1.94s-1.5,2-2.72,2h-9.28V91h8c1.05,0,2.69,0,2.69,1.94s-1.63,1.9-2.69,1.9h-8v6.46h11c1.16,0,2.72,0,2.72,2s-1.56,2-2.72,2H144.62c-1.33,0-2.69,0-2.69-2s1.36-2,2.69-2h10.71V94.8h-7.55c-1,0-2.65,0-2.65-1.9S146.76,91,147.78,91h7.55V85.11h-7c-1.19,2-2.79,4.62-4.52,4.62a2,2,0,0,1-2-1.94c0-.61.14-.82,1-1.94a27.68,27.68,0,0,0,4.32-8.5,2,2,0,0,1,2-1.6,2,2,0,0,1,2.14,1.9,13.54,13.54,0,0,1-1,3.54Z"/><path class="cls-3" d="M181.6,90.76c-.51,0-.75-.17-2.92-1.7-.37-.24-2-1.33-2.35-1.56a1.86,1.86,0,0,1-.82-1.46,2.11,2.11,0,0,1,1.87-2c1,0,3.13,1.43,4.22,2.21,1.67,1.19,2.11,1.77,1.94,2.69C183.47,89.26,182.79,90.76,181.6,90.76ZM184.36,95c0,.17-.24,3.09-3.74,8.77-1,1.63-1.5,2.07-2.28,2.07-1,0-2.35-.85-2.35-2,0-.54.24-1,1.09-2.35a33,33,0,0,0,3.47-7.11,1.48,1.48,0,0,1,1.56-1.09C182.56,93.38,184.36,93.61,184.36,95Zm-1.87-12.1c-.71,0-.92-.2-2.89-1.77-.37-.31-2-1.56-2.35-1.87a1.4,1.4,0,0,1-.51-1.12,2.06,2.06,0,0,1,1.87-2c1.09,0,2.69,1.26,3.84,2.28,1.87,1.63,2,1.94,2,2.48A2,2,0,0,1,182.49,82.94Zm15,.85h6.8c1.39,0,2.72,0,2.72,1.8,0,2-1.12,2-2.72,2h-6.8V91.3H202c3.23,0,3.47,2.48,3.47,3.23v7.72c0,.48,0,3.23-3.47,3.23H189.76c-3.16,0-3.43-2.41-3.43-3.23V94.53c0-.44,0-3.23,3.43-3.23h3.57V87.56h-6.43c-1.43,0-2.72,0-2.72-1.8,0-2,1.09-2,2.72-2h6.43V80.35c-1,0-2.24.1-4,.1-.58,0-2.35,0-2.72-.07s-1.29-.27-1.29-1.8.65-2,2.18-2c3.33,0,6.63,0,9.93-.31,1-.1,5.78-.71,6.15-.71,1.87,0,1.87,1.39,1.87,1.77,0,1.8-.44,2.11-8,2.79Zm-6,11.39c-.71,0-1.12,0-1.12.92v4.59c0,.92.41.92,1.12.92h8.8c.71,0,1.09,0,1.09-.92V96.09c0-.92-.37-.92-1.09-.92Z"/><path class="cls-3" d="M220.42,86.51a8.18,8.18,0,0,1,3.64-.82,5,5,0,0,1,5,2.92c1.39-.51,6.87-2.45,7.72-2.45a2,2,0,0,1,2,2.24c0,1.36-.75,1.77-2.11,2.14-3,.78-4.83,1.39-6.77,2.07.07.92.14,1.94.14,2.75s0,3-2.24,3a2.18,2.18,0,0,1-2.21-2.41c0-.24,0-1.26,0-1.46-1.8.88-4.73,2.35-4.73,4,0,1.39,1.46,2.14,6,2.14a44.77,44.77,0,0,0,5.71-.48,8.65,8.65,0,0,1,1.46-.24,2.24,2.24,0,0,1,2.21,2.35,2.12,2.12,0,0,1-1.36,2c-1.73.75-7.28.75-8.67.75-1.22,0-5.81,0-8-1.77A5.38,5.38,0,0,1,216.17,99c0-2.21.92-4.9,8.7-8.74a2.39,2.39,0,0,0-1.8-.78c-3.43,0-7.51,3.2-8.91,4.56-1.16,1.09-1.53,1.43-2.41,1.43a2.38,2.38,0,0,1-2.31-2.31,2.11,2.11,0,0,1,.88-1.67c4.35-3.91,5.75-5.17,7.14-7.75l-3.54.07c-.88,0-3,0-3-2.11s1.87-2.07,2.62-2.07c1.94,0,3.91,0,5.85-.1.2-.51,1-2.92,1.19-3.37a2.22,2.22,0,0,1,1.87-1.09,2.35,2.35,0,0,1,2.38,2.11,7.31,7.31,0,0,1-.65,2.11c1.39-.07,3.88-.24,5.13-.37.78-.07.92-.07,1.05-.07a1.9,1.9,0,0,1,2.14,2.07,1.86,1.86,0,0,1-1.5,2.07,85.25,85.25,0,0,1-8.94.58A22.15,22.15,0,0,1,220.42,86.51Z"/><path class="cls-2" d="M250.7,90.49C253.26,88,258.35,88,259,88c5.95,0,9.48,3.74,9.48,8.13a8.3,8.3,0,0,1-4.83,7.48c-1.6.75-4,1.7-9.32,1.7-3.77,0-5.92-.37-5.92-2.72a2.22,2.22,0,0,1,2.21-2.35,4.37,4.37,0,0,1,1,.14,26.71,26.71,0,0,0,4.28.31c7,0,8.09-3.47,8.09-4.76,0-1.63-1.5-3.88-5.47-3.88a14.7,14.7,0,0,0-8.67,3.2c-2,1.43-2.18,1.56-3,1.56a2.48,2.48,0,0,1-2.35-2.55c0-.65.1-.85,1-2.65a57.33,57.33,0,0,0,3-6.56c-.82,0-4.69,0-5.13,0a2.11,2.11,0,0,1-2-2.14A2.25,2.25,0,0,1,244,80.59c4.08,0,4.52,0,5.92,0,0-.24.78-3.81.82-3.91a1.9,1.9,0,0,1,1.9-1.19A2.11,2.11,0,0,1,255,77.7a16.13,16.13,0,0,1-.48,2.75c4-.1,5.78-.24,7.75-.41.58-.07,3-.37,3.47-.37a2,2,0,0,1,2.21,2.18A2.15,2.15,0,0,1,265.83,84c-2.86.44-9.72.85-12.78,1A33.76,33.76,0,0,1,250.7,90.49Z"/><path class="cls-2" d="M288.14,96.6a21.7,21.7,0,0,1,6.12,3.54,2.38,2.38,0,0,1,1,2,1.93,1.93,0,0,1-2,2,1.91,1.91,0,0,1-1.36-.48,27.84,27.84,0,0,0-4-2.62c-.48,1.67-1.26,4.45-6.87,4.45-7,0-7-5.37-7-5.44,0-1.6,1.26-5.17,6.53-5.17a14.49,14.49,0,0,1,3.47.41l-.1-10.17c0-1.77,0-3.6,2.11-3.6s2,1.8,2.07,3.57l0,2.35c.88,0,4.76-.24,5.54-.24,1.7,0,2.21,1,2.21,1.9A1.88,1.88,0,0,1,294,91c-1.16.14-4.59.2-5.88.2Zm-7.72,2.14c-1.6,0-1.94.78-1.94,1.22,0,.68.68,1.7,2.52,1.7,2.52,0,2.65-1.16,2.79-2.28A10.09,10.09,0,0,0,280.42,98.75Z"/><path class="cls-2" d="M311.09,99.19c.41,0,3.4.17,4,.17,3.5,0,7.34-1.73,7.34-6.53,0-3.47-2.38-4.9-6.32-4.9-2.79,0-5.41.78-9.18,2.72a4.2,4.2,0,0,1-1.87.68A2.38,2.38,0,0,1,302.9,89a2.5,2.5,0,0,1,1.87-2.28,28.8,28.8,0,0,1,12-2.89c5.54,0,10,3.26,10,9.11a10.07,10.07,0,0,1-4.45,8.64c-2.79,1.77-6.9,2.14-9.11,2.14-3.23,0-4.25-.48-4.25-2.58A2,2,0,0,1,311.09,99.19Z"/><path class="cls-2" d="M336.78,78.69a3.54,3.54,0,0,1-.41-1.5,2.36,2.36,0,0,1,2.52-2.24c1.46,0,1.8.75,2.65,2.48,1.22,2.58,2.18,5.27,3.16,8,.75-.34,6.49-2.65,9.15-2.65A2.18,2.18,0,0,1,356.09,85a2.31,2.31,0,0,1-1.29,2.14c-.48.24-4.15,1.05-4.93,1.29-6.73,1.9-12.21,4.62-12.21,8.16s6.56,3.57,8.26,3.57a45.45,45.45,0,0,0,7.14-.48c.44-.07,2.11-.41,2.35-.41a2.31,2.31,0,0,1,2.14,2.55,1.86,1.86,0,0,1-1.29,2.07c-.92.34-4,.78-9,.78-3.84,0-14.52,0-14.52-8.09,0-5.2,5-7.79,7.75-9.25C338.65,82.8,338.24,82,336.78,78.69Z"/><path class="cls-2" d="M375.36,86.88a17.14,17.14,0,0,1,2.89-.2c7.1,0,12.54,3.3,12.54,9s-5,9.45-11.15,9.45a2.23,2.23,0,0,1-2.55-2.38c0-1.94,1.5-2.14,3.33-2.41,2.28-.31,5.44-1.29,5.44-4.62,0-4.39-6.05-4.62-7.85-4.62a11.69,11.69,0,0,0-2.65.27V99.9a6.87,6.87,0,0,1-.34,3c-.65,1.33-2.52,2.18-4.59,2.18A8.23,8.23,0,0,1,361.9,97c0-5.17,5-8.26,9-9.45V84.2l-5.78.2c-2.45.1-2.62-1.67-2.62-2.14,0-2.11,1.77-2.18,2.75-2.21l5.64-.17v-1c0-1.73,0-3.64,2.24-3.64s2.24,1.9,2.24,3.64v.88l3.6-.1c1.26,0,1.6,0,2.07.27a2.34,2.34,0,0,1,1,1.87c0,2-2.07,2.11-2.65,2.14l-4,.14Zm-4.49,5.58c-3.77,1-4.15,3.47-4.15,4.42a3.33,3.33,0,0,0,3.37,3.47c.75,0,.78-.37.78-1.63ZM389.44,87c-1.16,0-1.36-.31-3.09-3a37.56,37.56,0,0,0-2.58-3.43,2.46,2.46,0,0,1-.78-1.77,2.21,2.21,0,0,1,2.18-2.18c.92,0,1.84.48,4.32,3.94.68,1,2.31,3.23,2.31,4A2.35,2.35,0,0,1,389.44,87Z"/><path class="cls-2" d="M397.66,92.93c-1,.78-1.43.85-1.84.85a2,2,0,0,1-2-2.07,1.73,1.73,0,0,1,.78-1.5,31.56,31.56,0,0,0,5.23-5.78c1-1.56,1.16-2.07,2.21-2.07.41,0,2.14.41,2.14,1.87,0,1.05-1.5,3-2.52,4.39v14.65c0,1.26,0,2.79-2,2.79s-2-1.46-2-2.79Zm.31-10.1a2.7,2.7,0,0,1-1.8.82,2.07,2.07,0,0,1-1.9-2c0-.65.27-.92,2.55-3.4.41-.41,2-2.41,2.38-2.82a1.8,1.8,0,0,1,1.43-.61,2.11,2.11,0,0,1,2,2.31C402.35,78.45,399.19,81.75,398,82.84Zm23.8,10.57h.75c1.39,0,2.72,0,2.72,1.77s-1.33,1.8-2.72,1.8h-.75v5.1c0,3.67-2.92,3.67-4.73,3.67-4.32,0-4.76-.92-4.76-2.21,0-.65.34-2.14,1.7-2.14.44,0,2.35.34,2.75.34s1,0,1-.85V97h-8.63c.82.85,2.75,3.2,2.75,4.18a1.9,1.9,0,0,1-1.87,1.8c-1,0-1.09-.2-2.41-2-.2-.27-1.16-1.5-1.33-1.73a1.78,1.78,0,0,1-.34-1A1.48,1.48,0,0,1,406.4,97c-2.07,0-3.23,0-3.23-1.8s1.33-1.77,2.72-1.77h11.8V92H406.13c-1.33,0-2.72,0-2.72-1.7s1.39-1.7,2.72-1.7h16.39c1.33,0,2.72,0,2.72,1.7S423.8,92,422.51,92h-.75Zm-1-18a2.72,2.72,0,0,1,3.13,2.89v6.12c0,2.35-1.77,2.86-3.13,2.86h-13c-.68,0-3.13,0-3.13-2.86V78.31c0-2.35,1.77-2.89,3.13-2.89Zm-1.09,4.32c0-.92,0-1.19-.68-1.19h-9.45c-.71,0-.71.27-.71,1.19ZM408.81,82.8c0,1,0,1.19.71,1.19H419c.68,0,.71-.24.71-1.19Z"/><path class="cls-3" d="M436.15,92.73a1.35,1.35,0,0,1,1.46,1.39c0,.75-.85,3.88-1,4.56s-.54,3.84-.82,4.45a2.23,2.23,0,0,1-2.18,1.26,2.83,2.83,0,0,1-2.69-1.7c-.34-.68-1.73-4.52-1.73-11.12,0-5.58.82-12.37,2-14.11a2.09,2.09,0,0,1,1.67-.85,2.21,2.21,0,0,1,2.38,2c0,.41-.92,5.27-1.05,6.26a66.62,66.62,0,0,0-.54,9.28,14.45,14.45,0,0,0,.17,2.82C434.45,93.75,434.75,92.73,436.15,92.73ZM444,96.88c.07,2.11,3.84,2.18,4.69,2.18,1.63,0,4-.2,4.9-.31a9.74,9.74,0,0,1,1.46-.17,2.1,2.1,0,0,1,2.14,2.28c0,1.5-.61,2.75-5.95,2.75-4.59,0-7.41,0-9.52-1.7a5.75,5.75,0,0,1-2.07-4.56c0-1.39,0-3.5,2.31-3.5C443.9,93.85,444,95.14,444,96.88Zm-1.87-18.29c.2,0,4.15.17,4.86.17a36.51,36.51,0,0,0,5.64-.58,7.83,7.83,0,0,1,1.7-.27,2.3,2.3,0,0,1,.34,4.52,66.34,66.34,0,0,1-9.76.71c-3,0-4.86,0-4.86-2.48A2.16,2.16,0,0,1,442.17,78.59Z"/><path class="cls-3" d="M477.2,78.69c0-1.77,0-3.64,2.28-3.64s2.28,1.87,2.28,3.64v.54l4.76,0c1.94,0,3.64,0,3.64,2.11s-1.77,2.21-3.6,2.21l-4.79,0V89.5a14.68,14.68,0,0,1,.88,4.69c0,9.32-9.93,11.66-11.39,11.66a2.28,2.28,0,0,1-2.35-2.41c0-1.73,1.12-2,2.89-2.58,4.35-1.29,5.85-3.5,6-5A5,5,0,0,1,473.46,98a6.51,6.51,0,1,1,.14-13,9.25,9.25,0,0,1,3.6.71V83.58l-13.46.1c-1.83,0-3.6,0-3.6-2.14s1.63-2.18,3.57-2.18l13.5-.1Zm-5.68,12.85A2.43,2.43,0,0,0,474.14,94a2.47,2.47,0,0,0,2.69-2.45,2.66,2.66,0,0,0-5.3,0Z"/><path class="cls-3" d="M509.77,86.85c8,0,10,5.37,10,8.47,0,6.49-6.39,9.52-12.88,9.52-1.29,0-8.91,0-8.91-5.61,0-2.69,2.21-5,6.26-5,6.15,0,6.8,4.59,7,6.05,3.26-1.29,4.15-3.13,4.15-4.66,0-4.83-5.64-4.83-6.77-4.83a15.8,15.8,0,0,0-10.5,3.47c-2.48,1.77-2.75,1.94-3.71,1.94a2.28,2.28,0,0,1-2.28-2.38,3.14,3.14,0,0,1,1.7-2.58c6.12-4.25,7.11-4.86,16-10.64-4.28.58-11.49.82-11.76.82a2.16,2.16,0,0,1-2.24-2.24c0-2.28,2-2.28,3-2.28.51,0,2.86.07,3.33.07,2.65,0,6.9-.2,8.16-.27.34,0,2.75-.14,2.86-.14,1.8,0,3.2.78,3.2,2.69,0,1.63-1.16,2.52-2.18,3.26a86.13,86.13,0,0,1-8.06,5A9.4,9.4,0,0,1,509.77,86.85ZM504,97.9c-1.09,0-1.73.51-1.73,1.09,0,1,1.53,1.87,3.43,1.87.31,0,.51,0,.88-.07C506.54,100,506.4,97.9,504,97.9Z"/><path class="cls-3" d="M180.27,126.64c0-1.77,0-3.6,2.28-3.6s2.31,1.84,2.31,3.6v3.2h2.92c1.73,0,3.64,0,3.64,2.24s-1.9,2.21-3.64,2.21h-2.92v1.77c0,4.15,0,9.45-6.12,13.33a15.85,15.85,0,0,1-7.51,2.45,2.27,2.27,0,0,1-2.41-2.55,2.16,2.16,0,0,1,1.9-2.18c4.25-1,6.46-1.5,8.16-4.39a12.63,12.63,0,0,0,1.39-6.56v-1.87H171.8v3.06c0,1.77,0,3.6-2.28,3.6s-2.28-1.84-2.28-3.6v-3.06h-3.16c-1.73,0-3.64,0-3.64-2.24s1.9-2.21,3.64-2.21h3.16v-3.2c0-1.77,0-3.6,2.28-3.6s2.28,1.84,2.28,3.6v3.2h8.46Z"/><path class="cls-3" d="M213.71,135.11c1.56,0,3.06,0,3.06,2.35s-1.5,2.35-3.06,2.35H195.56c-1.56,0-3.06,0-3.06-2.35s1.5-2.35,3.06-2.35Z"/><path class="cls-3" d="M227.19,141.9c0,2.82,0,4,8,4a42.11,42.11,0,0,0,8.46-.71,4.31,4.31,0,0,1,1.16-.17,2.27,2.27,0,0,1,2.24,2.48,2.1,2.1,0,0,1-1.67,2.07,43.55,43.55,0,0,1-9.86.88c-10.61,0-13-2-13-7.17V126.91c0-1.84,0-3.6,2.35-3.6s2.35,1.77,2.35,3.6v5.37a46.28,46.28,0,0,0,13.9-2.92c1.73-.75,1.94-.85,2.48-.85a2.26,2.26,0,0,1,2.18,2.38c0,1.39-.58,2.14-5,3.43a54.77,54.77,0,0,1-13.56,2.38ZM242,125.35c-.71-1.5-.78-1.63-.78-2a1.28,1.28,0,0,1,1.29-1.33c.88,0,1.22.54,1.87,1.56,1.05,1.67,1.19,2.21,1.19,2.65a1.48,1.48,0,0,1-1.56,1.56C243.17,127.76,243,127.52,242,125.35Zm7.55-.82a1.34,1.34,0,0,1-1.43,1.43c-1.5,0-3.06-3.57-3.06-4.18a1.17,1.17,0,0,1,1.46-1.12C247.55,120.9,249.56,123.31,249.56,124.53Z"/><path class="cls-3" d="M257.64,128.65c-1.73,0-3.64,0-3.64-2.24s1.9-2.24,3.64-2.24h13.53c2.69,0,4.42,1,4.42,3.74,0,.75-.34,4.83-4.18,10.3a43,43,0,0,1,6.09,5.71c3,3.26,3.33,4.15,3.33,5a2.48,2.48,0,0,1-2.48,2.28c-1,0-1-.07-3.23-2.79a51.55,51.55,0,0,0-6.63-6.73c-6,6.19-13,9.45-14.75,9.45a2.44,2.44,0,0,1-2.28-2.55c0-1.53,1-1.94,1.9-2.28,12.27-4.62,17-14.69,17-17,0-.61-.27-.61-1.09-.61Z"/><path class="cls-3" d="M284.07,130.35a2.22,2.22,0,0,1-2.24-2.48c0-2.18,1.84-2.28,3.3-2.35,3.64-.17,22.27-1.73,23-1.73a2.27,2.27,0,0,1,2.52,2.41c0,1.9-1.46,2.14-3.16,2.38a15.07,15.07,0,0,0-7.07,3c-3.2,2.41-4.79,4.73-4.79,8.26,0,5.64,5.88,6.56,9.28,7.1a2.08,2.08,0,0,1,2.11,2.28,2.16,2.16,0,0,1-2.24,2.41c-3,0-8.33-1.84-10.78-4.15a9.25,9.25,0,0,1-3-7.17c0-6.19,4-9.32,6.59-11.39C296.34,129.16,284.58,130.35,284.07,130.35Zm20,1.29c1.33,0,3.5,2.79,3.5,3.94a1.56,1.56,0,0,1-1.5,1.53c-.71,0-.85-.2-2.24-2.31-.88-1.29-1-1.43-1-1.8A1.21,1.21,0,0,1,304,131.64Zm2.35-.78a1.14,1.14,0,0,1,1.26-1.22c1.16,0,3.3,2.52,3.3,3.74a1.24,1.24,0,0,1-1.26,1.33,2.15,2.15,0,0,1-.65-.14C308.14,134.19,306.37,131.74,306.37,130.86Z"/><path class="cls-3" d="M330.91,125.69c0-1.77,0-3.64,2.28-3.64s2.28,1.87,2.28,3.64v.54l4.76,0c1.94,0,3.64,0,3.64,2.11s-1.77,2.21-3.6,2.21l-4.79,0v5.95a14.68,14.68,0,0,1,.88,4.69c0,9.32-9.93,11.66-11.39,11.66a2.28,2.28,0,0,1-2.35-2.41c0-1.73,1.12-2,2.89-2.58,4.35-1.29,5.85-3.5,6-5a5,5,0,0,1-4.28,2.11,6.51,6.51,0,1,1,.14-13,9.25,9.25,0,0,1,3.6.71v-2.11l-13.46.1c-1.83,0-3.6,0-3.6-2.14s1.63-2.18,3.57-2.18l13.5-.1Zm-5.68,12.85a2.43,2.43,0,0,0,2.62,2.41,2.47,2.47,0,0,0,2.69-2.45,2.66,2.66,0,0,0-5.3,0Z"/><path class="cls-3" d="M354.22,122.53c1.8,2.89,2,3,6,6.32,2.21,1.8,4.52,3.81,4.52,7.17,0,2.45-1.73,7-6.93,9.35l-.07-.1a20.6,20.6,0,0,0,3.26-3.4,8.88,8.88,0,0,0,2-4.93c0-2-1.43-3.09-2.62-3.84-.82-.51-4.59-2.52-5.34-3v16.39c0,2-3.26,5.75-5.64,5.75a1.82,1.82,0,0,1-2-1.77c0-1.67,1.87-4.32,6.46-4.69V122.53Z"/><circle class="cls-1" cx="254.19" cy="62.07" r="5"/><circle class="cls-1" cx="286.2" cy="62.07" r="5"/><circle class="cls-1" cx="314.2" cy="62.07" r="5"/><circle class="cls-1" cx="342.2" cy="62.07" r="5"/><circle class="cls-1" cx="374.21" cy="62.07" r="5"/><circle class="cls-1" cx="410.21" cy="62.07" r="5"/><circle class="cls-4" cx="254.19" cy="62.07" r="5"/><circle class="cls-4" cx="286.2" cy="62.07" r="5"/><circle class="cls-4" cx="314.2" cy="62.07" r="5"/><circle class="cls-4" cx="342.2" cy="62.07" r="5"/><circle class="cls-4" cx="374.21" cy="62.07" r="5"/><circle class="cls-4" cx="410.21" cy="62.07" r="5"/></svg>