<svg xmlns="http://www.w3.org/2000/svg" viewBox="0 0 150 150"><defs><style>.cls-1{isolation:isolate;}.cls-2{fill:#dee1e8;}.cls-3{fill:#bbc0cf;}.cls-4{fill:#d0d4de;}.cls-5{fill:#89909f;}.cls-6{fill:#a2a7b3;}.cls-7{fill:#b4b8c2;}.cls-8{fill:#8bca45;}.cls-9{fill:#48ae31;}.cls-10{fill:#fe8348;}.cls-11{fill:#e55e41;}.cls-12{fill:#815a41;}.cls-13{fill:#c0aea9;mix-blend-mode:multiply;}.cls-14{fill:#5d3e21;}.cls-15{fill:#f45934;}.cls-16{fill:#f7885e;}.cls-17{fill:#066b74;}.cls-18{fill:#c7b505;}.cls-19{fill:#ffbd37;}.cls-20{fill:#e8ad34;}.cls-21{fill:#747c8e;}.cls-22{fill:#c98937;}.cls-23{fill:#b77e34;}.cls-24{fill:#ffdb37;}</style></defs><title>img_monitorflow2</title><g class="cls-1"><g id="img"><circle class="cls-2" cx="92.72" cy="42.69" r="39.23"/><circle class="cls-3" cx="93.49" cy="41.92" r="24.72"/><circle class="cls-4" cx="91.95" cy="43.45" r="22.24"/><path class="cls-5" d="M42.45,12.16l1.31,7.43a2.18,2.18,0,0,0,2.52,1.76l.82-.14h0a2.17,2.17,0,0,1-1.27-1.61l-1.31-7.43a2.15,2.15,0,0,0-2.45-1.78,2,2,0,0,0-.69.27A2.19,2.19,0,0,1,42.45,12.16Z"/><path class="cls-5" d="M51.52,10.56,52.83,18a2.18,2.18,0,0,0,2.52,1.76l.82-.14h0A2.17,2.17,0,0,1,54.93,18l-1.31-7.43a2.11,2.11,0,0,0-2.36-1.79,1.86,1.86,0,0,0-.72.3A2.23,2.23,0,0,1,51.52,10.56Z"/><path class="cls-5" d="M66.64,73.23,59.85,34.7a9.37,9.37,0,0,0,5.74-10.32L62.87,8.93a2.15,2.15,0,0,0-2.46-1.78,2,2,0,0,0-.69.27,2.19,2.19,0,0,1,1.05,1.51L63.5,24.38A9.37,9.37,0,0,1,57.75,34.7l6.79,38.53a4.22,4.22,0,0,1-2.75,4.85,3.62,3.62,0,0,0,1.7.12A4.18,4.18,0,0,0,66.64,73.23Z"/><path class="cls-6" d="M47.33,21.34l.21,0a2.2,2.2,0,0,1-.41-.12h0l-.65.11A2.15,2.15,0,0,0,47.33,21.34Z"/><path class="cls-7" d="M49.43,21.34l.82-.14A2.18,2.18,0,0,0,52,18.68L50.7,11.26a2.23,2.23,0,0,1,.38-1.68,2.21,2.21,0,0,0-.55-.51,2.19,2.19,0,0,0-.88,2.2L51,18.68A2.18,2.18,0,0,1,49.2,21.2l-.6.11A2.11,2.11,0,0,0,49.43,21.34Z"/><path class="cls-6" d="M56.39,19.75l.21,0a2.2,2.2,0,0,1-.41-.12h0l-.65.11A2.15,2.15,0,0,0,56.39,19.75Z"/><path class="cls-7" d="M59.88,74.6,53.09,36.08a9.37,9.37,0,0,1-8.92-7.73L41.44,12.89a2.18,2.18,0,0,1,.49-1.79,2.22,2.22,0,0,0-.53-.45,2.17,2.17,0,0,0-1,2.24l2.73,15.46A9.37,9.37,0,0,0,52,36.08L58.84,74.6a4.4,4.4,0,0,0,3,3.48,3.62,3.62,0,0,0,.51-.21A4.45,4.45,0,0,1,59.88,74.6Z"/><path class="cls-7" d="M58.49,19.75l.82-.14a2.18,2.18,0,0,0,1.76-2.52L59.76,9.66a2.18,2.18,0,0,1,.49-1.79,2.23,2.23,0,0,0-.53-.45,2.18,2.18,0,0,0-1,2.24L60,17.09a2.18,2.18,0,0,1-1.76,2.52l-.6.11A2.11,2.11,0,0,0,58.49,19.75Z"/><path class="cls-6" d="M64.55,73.23,57.75,34.7A9.37,9.37,0,0,0,63.5,24.38L60.77,8.93a2.15,2.15,0,0,0-.52-1.06,2.18,2.18,0,0,0-.49,1.79l1.31,7.43a2.18,2.18,0,0,1-1.76,2.52l-.82.14a2.11,2.11,0,0,1-.83,0l-.21,0a2.11,2.11,0,0,1-.83,0l-.21,0a2.15,2.15,0,0,1-.88,0l-.17,0A2.18,2.18,0,0,1,52.83,18l-1.31-7.43a2.23,2.23,0,0,0-.44-1,2.23,2.23,0,0,0-.38,1.68L52,18.68a2.18,2.18,0,0,1-1.76,2.52l-.82.14a2.11,2.11,0,0,1-.83,0l-.21,0a2.11,2.11,0,0,1-.83,0l-.21,0a2.15,2.15,0,0,1-.88,0l-.17,0a2.18,2.18,0,0,1-2.52-1.76l-1.31-7.43a2.15,2.15,0,0,0-.52-1.06,2.18,2.18,0,0,0-.49,1.79l2.73,15.46a9.37,9.37,0,0,0,8.92,7.73L59.88,74.6a4.45,4.45,0,0,0,2.42,3.27A4.27,4.27,0,0,0,64.55,73.23Z"/><path class="cls-5" d="M122.87,73.91a4.39,4.39,0,0,0,1.22,4.4,3.52,3.52,0,0,1-.41-.06A4.18,4.18,0,0,1,121,73l6.31-23.69a16,16,0,0,0,2,.54Z"/><path class="cls-5" d="M141.21,7.06a3.54,3.54,0,0,1,2.89.9,3.7,3.7,0,0,0-1,0c-2.66,0-9.54,4.67-19.72,35.37a4,4,0,0,0,1.93,5.13c-2.51-.88-5-2.6-3.83-6C131.68,11.72,138.55,7.07,141.21,7.06Z"/><path class="cls-5" d="M127.28,49.34a9.77,9.77,0,0,1-2-.9,15.87,15.87,0,0,0,2,.56Z"/><path class="cls-6" d="M123.4,43.31c10.18-30.7,17.05-35.36,19.72-35.37a3.7,3.7,0,0,1,1,0,4.39,4.39,0,0,1,1.23,4.4l-16.7,62.7a4.22,4.22,0,0,1-4.54,3.24,4.39,4.39,0,0,1-1.22-4.4l6.4-24a16,16,0,0,1-2-.54l.09-.34a15.87,15.87,0,0,1-2-.56A4,4,0,0,1,123.4,43.31Z"/><path class="cls-6" d="M126.37,48.75c-.34-.09-.69-.2-1-.32-.13-.08-.26-.18-.39-.27.51.15,1,.29,1.48.38Z"/><path class="cls-7" d="M127.68,74.62l16.7-62.7a4.45,4.45,0,0,0-.84-4,4.32,4.32,0,0,1,.56,0,4.39,4.39,0,0,1,1.23,4.4l-16.7,62.7a4.22,4.22,0,0,1-4.54,3.24,3.92,3.92,0,0,1-.4-.42A4.27,4.27,0,0,0,127.68,74.62Z"/><path class="cls-6" d="M128.27,49.64c-.32-.09-.66-.19-1-.3l0-.14c.35.09.68.17,1,.24Z"/><path class="cls-6" d="M127.32,49.19c-.32-.09-.66-.19-1-.3l0-.14c.35.09.68.17,1,.24Z"/><path class="cls-6" d="M123.4,43.31c10.18-30.7,17.05-35.36,19.72-35.37a3.13,3.13,0,0,1,.43,0,4.45,4.45,0,0,1,.84,4l-16.7,62.7a4.27,4.27,0,0,1-4,3.27,4.45,4.45,0,0,1-.82-4l6.4-24c-.32-.07-.66-.14-1-.24l.05-.2c-.32-.07-.66-.14-1-.24l.05-.2c-.32-.07-.66-.14-1-.24l.05-.2c-.46-.09-1-.23-1.48-.38A4,4,0,0,1,123.4,43.31Z"/><path class="cls-8" d="M92.45,19l0-.07,0,0Z"/><path class="cls-9" d="M92.38,18.93a5.42,5.42,0,1,0-9.9-3.54,5.41,5.41,0,0,0-7.94,7,5.41,5.41,0,1,0,6.65,7.75,5.41,5.41,0,0,0,6.36-1.5,5.42,5.42,0,1,0,4.82-9.69Z"/><path class="cls-8" d="M79,28.14a5.41,5.41,0,0,0,6.36-1.5A5.41,5.41,0,0,0,92.45,19l-.06,0,0,0a5.45,5.45,0,0,0-2.27-1.95A5.4,5.4,0,0,0,90.2,11a5.41,5.41,0,0,0-7.71,4.36,5.41,5.41,0,0,0-7.94,7,5.41,5.41,0,0,0-2.6,8,5.4,5.4,0,0,0,7-2.18Z"/><rect class="cls-10" x="67.8" y="29.14" width="7.4" height="22.2" rx="3.5" ry="3.5" transform="translate(21.7 -24.97) rotate(23.26)"/><rect class="cls-11" x="71.85" y="33.36" width="7.4" height="22.2" rx="3.5" ry="3.5" transform="translate(8.42 -11.91) rotate(9.54)"/><path class="cls-12" d="M114.86,31.42c.19.37.37.74.54,1.12C115.24,32.16,115.06,31.78,114.86,31.42Z"/><path class="cls-12" d="M115.6,33c.15.37.29.75.41,1.13C115.88,33.74,115.75,33.37,115.6,33Z"/><path class="cls-12" d="M116.18,34.67q.16.55.29,1.12Q116.34,35.23,116.18,34.67Z"/><path class="cls-12" d="M117,40.15c0,.35,0,.7,0,1C117,40.85,117,40.5,117,40.15Z"/><path class="cls-12" d="M116.87,38.26c0,.36.07.72.08,1.08C116.93,39,116.9,38.62,116.87,38.26Z"/><path class="cls-12" d="M116.6,36.43c.07.37.13.74.18,1.11C116.74,37.17,116.67,36.8,116.6,36.43Z"/><path class="cls-12" d="M116.9,42.09c0,.33,0,.67-.09,1C116.85,42.76,116.88,42.43,116.9,42.09Z"/><path class="cls-12" d="M85.32,60.69q-.45-.42-.86-.87C84.74,60.12,85,60.42,85.32,60.69Z"/><path class="cls-12" d="M86.49,61.67c-.25-.18-.48-.38-.71-.58C86,61.28,86.24,61.49,86.49,61.67Z"/><path class="cls-12" d="M111.78,27.38c.35.32.68.67,1,1C112.46,28,112.13,27.7,111.78,27.38Z"/><path class="cls-12" d="M114,29.95c.24.36.46.73.68,1.1C114.45,30.67,114.22,30.3,114,29.95Z"/><path class="cls-12" d="M113,28.6c.29.34.56.7.83,1.07C113.52,29.3,113.25,28.94,113,28.6Z"/><path class="cls-12" d="M110.47,26.3a14.27,14.27,0,0,1,1.19,1A14.21,14.21,0,0,0,110.47,26.3Z"/><path class="cls-12" d="M116.25,46.06c-.07.3-.14.59-.23.89C116.11,46.66,116.17,46.36,116.25,46.06Z"/><path class="cls-12" d="M114.83,50.18c-.09.21-.17.42-.27.63C114.66,50.6,114.74,50.39,114.83,50.18Z"/><path class="cls-12" d="M115.65,48.09c-.09.27-.17.53-.27.8C115.48,48.62,115.56,48.35,115.65,48.09Z"/><path class="cls-12" d="M84.66,59.39c8.3,4.79,19.82.38,25.73-9.86,4.65-8.06,4.42-17.31.07-23.23a14.21,14.21,0,0,0-1.23-.81c-8.3-4.79-19.82-.38-25.73,9.86-4.95,8.57-4.38,18.49.81,24.31-.31-.35-.6-.71-.88-1.08A14.19,14.19,0,0,0,84.66,59.39Z"/><path class="cls-12" d="M87.82,62.55h0a14.32,14.32,0,0,0,4.69,1.69,14.32,14.32,0,0,1-4.69-1.69Z"/><path class="cls-12" d="M116.66,44.07c-.05.32-.1.63-.16,1C116.56,44.7,116.61,44.38,116.66,44.07Z"/><polygon class="cls-13" points="110.47 26.3 110.47 26.3 110.47 26.3 110.47 26.3"/><path class="cls-13" d="M117,41.2c0,.29,0,.59-.06.89C116.92,41.79,116.95,41.5,117,41.2Z"/><path class="cls-13" d="M111.66,27.27l.13.11Z"/><path class="cls-13" d="M116.81,43.1c0,.32-.09.65-.15,1C116.72,43.74,116.77,43.42,116.81,43.1Z"/><path class="cls-13" d="M116.5,45c-.07.35-.16.7-.25,1C116.34,45.71,116.43,45.37,116.5,45Z"/><path class="cls-13" d="M112.77,28.4l.18.2Z"/><path class="cls-13" d="M84.47,59.82l-.15-.17Z"/><path class="cls-13" d="M87.82,62.55a14.25,14.25,0,0,1-1.33-.88A13.69,13.69,0,0,0,87.82,62.55Z"/><path class="cls-13" d="M85.78,61.09l-.46-.39C85.47,60.83,85.63,61,85.78,61.09Z"/><path class="cls-13" d="M113.57,52.7c-4.86,8.42-13.51,12.88-21,11.55,7.54,1.34,16.18-3.13,21-11.55.36-.62.69-1.26,1-1.89Q114.1,51.76,113.57,52.7Z"/><path class="cls-13" d="M117,39.35c0,.27,0,.54,0,.81C117,39.88,117,39.61,117,39.35Z"/><path class="cls-13" d="M116,34.13c.06.18.12.36.17.55C116.13,34.49,116.07,34.31,116,34.13Z"/><path class="cls-13" d="M116.47,35.8c0,.21.09.42.13.63C116.56,36.22,116.52,36,116.47,35.8Z"/><path class="cls-13" d="M116,47c-.11.38-.24.76-.37,1.13C115.78,47.71,115.91,47.33,116,47Z"/><path class="cls-13" d="M116.79,37.54c0,.24.06.48.08.72C116.84,38,116.82,37.78,116.79,37.54Z"/><path class="cls-13" d="M115.4,32.54l.19.45Z"/><path class="cls-13" d="M113.78,29.67l.2.28Z"/><path class="cls-13" d="M115.38,48.89c-.16.43-.36.86-.55,1.29C115,49.75,115.21,49.32,115.38,48.89Z"/><path class="cls-13" d="M114.66,31.05l.21.37Z"/><path class="cls-14" d="M113.57,52.7q.54-.94,1-1.89c.1-.21.18-.42.27-.63.19-.43.38-.86.55-1.29.1-.27.18-.53.27-.8s.26-.75.37-1.13.15-.59.23-.89.18-.7.25-1,.11-.63.16-1,.11-.65.15-1,.06-.67.09-1,0-.59.06-.89,0-.7,0-1,0-.54,0-.81,0-.73-.08-1.08,0-.48-.08-.72-.11-.74-.18-1.11c0-.21-.08-.42-.13-.63q-.13-.57-.29-1.12c-.05-.18-.11-.37-.17-.55-.13-.38-.26-.76-.41-1.13l-.19-.45c-.17-.38-.35-.76-.54-1.12l-.21-.37c-.21-.38-.44-.75-.68-1.1l-.2-.28c-.26-.37-.53-.73-.83-1.07l-.18-.2c-.32-.36-.64-.7-1-1l-.13-.11a14.27,14.27,0,0,0-1.19-1h0c4.35,5.92,4.58,15.17-.07,23.23C104.48,59.77,93,64.18,84.66,59.39a14.19,14.19,0,0,1-1.23-.81c.28.38.57.74.88,1.08l.15.17q.41.45.86.87l.46.39c.23.2.46.4.71.58a14.25,14.25,0,0,0,1.33.88h0a14.32,14.32,0,0,0,4.69,1.69C100.06,65.58,108.71,61.12,113.57,52.7Z"/><path class="cls-15" d="M118.36,53.8c-2.09-.26-4.94-2.33-4.4-3.7s-.7-6.17-5.11-8.1-7.93-2.47-10.75-.35-4.23,5.81-.7,7.93,9.69,1.23,10.75,4.05.05,3.69,1.59,4.58c1.94,1.12,7.47,2.82,8.87,0S119.41,54.33,118.36,53.8Z"/><path class="cls-16" d="M104.31,41.31s-2.49-.33-3.61.26,3.81,1.15,5.88,1.5C108.45,43.4,107.15,42.11,104.31,41.31Z"/><path class="cls-17" d="M27.33,26.78c-8-1.93-9.55-3.49-11.51-11.37-2,7.88-3.53,9.44-11.51,11.37,8,1.93,9.55,3.49,11.51,11.37C17.78,30.27,19.36,28.71,27.33,26.78Z"/><path class="cls-18" d="M37.37,45.26c-6.19-1.5-7.42-2.71-8.93-8.83-1.52,6.12-2.74,7.33-8.93,8.83,6.19,1.5,7.42,2.71,8.93,8.83C30,48,31.18,46.76,37.37,45.26Z"/><path class="cls-17" d="M118.5,123.18c-8.59,2.08-10.29,3.76-12.39,12.25-2.1-8.49-3.81-10.17-12.39-12.25,8.59-2.08,10.29-3.76,12.39-12.25C108.21,119.42,109.92,121.11,118.5,123.18Z"/><path class="cls-18" d="M129.32,103.27c-6.67,1.61-8,2.92-9.62,9.51-1.63-6.59-3-7.9-9.62-9.51,6.67-1.61,8-2.92,9.62-9.51C121.33,100.35,122.65,101.66,129.32,103.27Z"/><path class="cls-19" d="M79.62,91.8l.17,0Z"/><path class="cls-19" d="M80.13,91.9l.19.06Z"/><path class="cls-19" d="M12.31,91.83l.17,0Z"/><path class="cls-19" d="M11.78,92,12,91.9Z"/><path class="cls-19" d="M80.61,92.05l.19.08Z"/><path class="cls-19" d="M11.3,92.13l.19-.08Z"/><path class="cls-19" d="M81.5,92.52l.17.12Z"/><path class="cls-19" d="M82.62,93.6l.11.15Z"/><path class="cls-19" d="M81.07,92.26l.19.1Z"/><path class="cls-19" d="M82.27,93.19l.14.15Z"/><path class="cls-19" d="M81.9,92.83l.16.14Z"/><path class="cls-19" d="M10.85,92.36l.19-.1Z"/><path class="cls-19" d="M8.4,98.37a7.69,7.69,0,0,1-.06-.92A7.69,7.69,0,0,0,8.4,98.37Z"/><path class="cls-19" d="M8.6,95.41l.06-.21Z"/><path class="cls-19" d="M8.38,96.57c0-.08,0-.17,0-.25C8.39,96.4,8.39,96.49,8.38,96.57Z"/><path class="cls-19" d="M8.47,96c0-.08,0-.16,0-.23C8.49,95.82,8.48,95.9,8.47,96Z"/><path class="cls-19" d="M8.34,97.18q0-.13,0-.26C8.34,97,8.34,97.09,8.34,97.18Z"/><path class="cls-19" d="M10.43,92.64l.17-.12Z"/><path class="cls-19" d="M83,94.12l0,.08Z"/><path class="cls-19" d="M8.8,94.84l.06-.15Z"/><path class="cls-19" d="M10,93l.16-.14Z"/><path class="cls-19" d="M9.69,93.34l.14-.15Z"/><path class="cls-19" d="M9.1,94.2l0-.07Z"/><path class="cls-19" d="M9.38,93.75l.11-.15Z"/><path class="cls-19" d="M83.44,95.2l.06.21Z"/><path class="cls-19" d="M67.14,129.17a1.55,1.55,0,0,0-1.47,1.44l-.7,8.78a1.2,1.2,0,0,0,1.19,1.33,1.47,1.47,0,0,0,1.41-1.33l.79-8.78A1.27,1.27,0,0,0,67.14,129.17Z"/><path class="cls-19" d="M55.15,129.17a1.46,1.46,0,0,0-1.4,1.44l-.27,8.78a1.27,1.27,0,0,0,1.25,1.33,1.38,1.38,0,0,0,1.35-1.33l.37-8.78A1.34,1.34,0,0,0,55.15,129.17Z"/><path class="cls-19" d="M83.7,96.32c0,.08,0,.17,0,.25C83.72,96.49,83.71,96.4,83.7,96.32Z"/><path class="cls-19" d="M30.13,112.06a1.45,1.45,0,0,0-1.34,1.65l.65,10a1.57,1.57,0,0,0,1.48,1.51,1.36,1.36,0,0,0,1.3-1.51l-.54-10A1.67,1.67,0,0,0,30.13,112.06Z"/><path class="cls-19" d="M68.59,112.06A1.72,1.72,0,0,0,67,113.71l-.79,10a1.32,1.32,0,0,0,1.26,1.51A1.62,1.62,0,0,0,69,123.7l.9-10A1.41,1.41,0,0,0,68.59,112.06Z"/><path class="cls-19" d="M83.75,96.92c0,.09,0,.17,0,.26C83.76,97.09,83.76,97,83.75,96.92Z"/><path class="cls-19" d="M61.15,129.17a1.51,1.51,0,0,0-1.44,1.44l-.48,8.78a1.23,1.23,0,0,0,1.22,1.33,1.42,1.42,0,0,0,1.38-1.33l.58-8.78A1.3,1.3,0,0,0,61.15,129.17Z"/><path class="cls-19" d="M55.77,112.06a1.62,1.62,0,0,0-1.5,1.65l-.31,10a1.4,1.4,0,0,0,1.33,1.51,1.53,1.53,0,0,0,1.44-1.51l.42-10A1.49,1.49,0,0,0,55.77,112.06Z"/><path class="cls-19" d="M62.18,112.06a1.67,1.67,0,0,0-1.54,1.65l-.55,10a1.36,1.36,0,0,0,1.3,1.51,1.57,1.57,0,0,0,1.48-1.51l.66-10A1.45,1.45,0,0,0,62.18,112.06Z"/><path class="cls-19" d="M50.48,130.61a1.38,1.38,0,0,0-1.33-1.44,1.42,1.42,0,0,0-1.37,1.44l0,6.68-3.19-2,0-4.65a1.42,1.42,0,0,0-1.37-1.44,1.38,1.38,0,0,0-1.33,1.44l.05,2.94-3.29-2.1,0-.84a1.46,1.46,0,0,0-1.4-1.44,1.28,1.28,0,0,0-1.11.66l-10-6.37-.76-9.76a1.72,1.72,0,0,0-1.58-1.65,1.41,1.41,0,0,0-1.3,1.65l.7,7.87-3.62-2.31-.57-5.56a1.78,1.78,0,0,0-1.62-1.65A1.37,1.37,0,0,0,16,113.71l.41,3.62-6-3.84L14,140.35a5.34,5.34,0,0,0,5.09,4.57H59.67l-9.34-6Z"/><path class="cls-19" d="M49.36,112.06a1.58,1.58,0,0,0-1.46,1.65l-.07,10a1.44,1.44,0,0,0,1.37,1.51,1.48,1.48,0,0,0,1.41-1.51l.18-10A1.53,1.53,0,0,0,49.36,112.06Z"/><path class="cls-19" d="M83.59,95.75c0,.08,0,.16,0,.23C83.62,95.9,83.61,95.82,83.59,95.75Z"/><path class="cls-19" d="M42.95,112.06a1.53,1.53,0,0,0-1.42,1.65l.17,10a1.48,1.48,0,0,0,1.41,1.51,1.44,1.44,0,0,0,1.37-1.51l-.06-10A1.58,1.58,0,0,0,42.95,112.06Z"/><path class="cls-19" d="M83.24,94.68l.06.15Z"/><path class="cls-19" d="M75,112.06a1.78,1.78,0,0,0-1.62,1.65l-1,10a1.29,1.29,0,0,0,1.22,1.51,1.67,1.67,0,0,0,1.55-1.51l1.14-10A1.37,1.37,0,0,0,75,112.06Z"/><path class="cls-19" d="M73.14,129.17a1.6,1.6,0,0,0-1.51,1.44l-.91,8.78a1.16,1.16,0,0,0,1.16,1.33,1.51,1.51,0,0,0,1.45-1.33l1-8.78A1.23,1.23,0,0,0,73.14,129.17Z"/><path class="cls-19" d="M83.7,98.37a7.69,7.69,0,0,0,.06-.92A7.69,7.69,0,0,1,83.7,98.37Z"/><path class="cls-19" d="M36.54,112.06a1.49,1.49,0,0,0-1.38,1.65l.41,10A1.52,1.52,0,0,0,37,125.2a1.4,1.4,0,0,0,1.34-1.51l-.3-10A1.62,1.62,0,0,0,36.54,112.06Z"/><path class="cls-20" d="M9.49,93.6l.21-.26Z"/><path class="cls-20" d="M9.83,93.19,10,93Z"/><path class="cls-20" d="M83,94.2c.09.16.16.32.24.48Q83.13,94.43,83,94.2Z"/><path class="cls-20" d="M8.35,96.92c0-.12,0-.23,0-.35C8.36,96.69,8.35,96.8,8.35,96.92Z"/><path class="cls-20" d="M10.2,92.83l.23-.19Z"/><path class="cls-20" d="M8.33,97.33s0,.07,0,.11,0-.18,0-.27S8.33,97.28,8.33,97.33Z"/><path class="cls-20" d="M9.14,94.12c.07-.13.15-.25.23-.37C9.29,93.87,9.22,94,9.14,94.12Z"/><polygon class="cls-20" points="10.44 113.49 10.44 113.49 8.4 98.36 10.44 113.49"/><path class="cls-20" d="M8.86,94.68c.07-.17.15-.33.24-.49C9,94.35,8.93,94.52,8.86,94.68Z"/><path class="cls-20" d="M8.51,95.75c0-.12.06-.23.09-.34C8.57,95.52,8.54,95.63,8.51,95.75Z"/><path class="cls-20" d="M8.66,95.2c0-.12.09-.25.14-.37C8.75,95,8.71,95.08,8.66,95.2Z"/><path class="cls-20" d="M8.41,96.32c0-.12,0-.23.06-.34C8.44,96.09,8.42,96.21,8.41,96.32Z"/><path class="cls-20" d="M83.5,95.41c0,.11.06.22.09.34C83.56,95.63,83.53,95.52,83.5,95.41Z"/><path class="cls-20" d="M81.26,92.36l.24.16Z"/><path class="cls-20" d="M80.81,92.13l.27.13Z"/><path class="cls-20" d="M83.64,96c0,.11,0,.22.06.34C83.68,96.21,83.66,96.09,83.64,96Z"/><path class="cls-20" d="M81.67,92.64l.23.19Z"/><path class="cls-20" d="M82.73,93.75c.08.12.16.24.23.37C82.88,94,82.81,93.87,82.73,93.75Z"/><path class="cls-20" d="M82.06,93l.21.22Z"/><path class="cls-20" d="M83.3,94.84c0,.12.09.24.14.36C83.4,95.08,83.35,95,83.3,94.84Z"/><path class="cls-20" d="M82.41,93.34l.21.26Z"/><path class="cls-20" d="M12,91.9l.34-.06Z"/><path class="cls-20" d="M83.77,97.33c0-.05,0-.1,0-.15s0,.18,0,.26S83.77,97.37,83.77,97.33Z"/><path class="cls-20" d="M10.6,92.52l.24-.15Z"/><path class="cls-20" d="M11.49,92.05l.29-.1Z"/><path class="cls-20" d="M11,92.26l.27-.13Z"/><path class="cls-20" d="M83.73,96.57c0,.11,0,.23,0,.35C83.75,96.8,83.74,96.69,83.73,96.57Z"/><path class="cls-20" d="M12.48,91.8a4.42,4.42,0,0,1,.53,0A4.42,4.42,0,0,0,12.48,91.8Z"/><path class="cls-20" d="M79.79,91.83l.34.06Z"/><path class="cls-20" d="M80.32,92l.29.1Z"/><path class="cls-20" d="M79.09,91.77a4.42,4.42,0,0,1,.53,0A4.42,4.42,0,0,0,79.09,91.77Z"/><path class="cls-20" d="M83.76,97.18c0-.09,0-.17,0-.26s0-.23,0-.35,0-.17,0-.25,0-.23-.06-.34,0-.16,0-.23-.06-.23-.09-.34l-.06-.21c0-.12-.09-.24-.14-.36l-.06-.15c-.07-.17-.15-.33-.24-.48l0-.08c-.07-.13-.15-.25-.23-.37l-.11-.15-.21-.26-.14-.15L82.06,93l-.16-.14-.23-.19-.17-.12-.24-.16-.19-.1-.27-.13-.19-.08-.29-.1-.19-.06-.34-.06-.17,0a4.42,4.42,0,0,0-.53,0H13a4.42,4.42,0,0,0-.53,0l-.17,0L12,91.9l-.19.06-.29.1-.19.08-.27.13-.19.1-.24.15-.17.12-.23.19L10,93l-.21.22-.14.15-.21.26-.11.15c-.08.12-.16.25-.23.38l0,.07c-.09.16-.16.32-.24.49l-.06.15c0,.12-.1.24-.14.37l-.06.21c0,.11-.06.23-.09.34s0,.15,0,.23,0,.23-.06.34,0,.16,0,.25,0,.23,0,.35,0,.17,0,.26,0,.18,0,.27a7.69,7.69,0,0,0,.06.92l2,15.12,6,3.84L16,113.71a1.37,1.37,0,0,1,1.27-1.65,1.78,1.78,0,0,1,1.62,1.65l.57,5.56,3.62,2.31-.7-7.87a1.41,1.41,0,0,1,1.3-1.65,1.72,1.72,0,0,1,1.58,1.65l.76,9.76,10,6.37a1.28,1.28,0,0,1,1.11-.66,1.46,1.46,0,0,1,1.4,1.44l0,.84,3.29,2.1-.05-2.94a1.38,1.38,0,0,1,1.33-1.44,1.42,1.42,0,0,1,1.37,1.44l0,4.65,3.19,2,0-6.68a1.42,1.42,0,0,1,1.37-1.44,1.38,1.38,0,0,1,1.33,1.44L50.33,139l9.34,6H73a5.34,5.34,0,0,0,5.09-4.57l5.65-42a7.69,7.69,0,0,0,.06-.92C83.76,97.35,83.77,97.27,83.76,97.18Zm-52.85,28a1.57,1.57,0,0,1-1.48-1.51l-.65-10a1.45,1.45,0,0,1,1.34-1.65,1.67,1.67,0,0,1,1.54,1.65l.54,10A1.36,1.36,0,0,1,30.91,125.2Zm6.09,0a1.52,1.52,0,0,1-1.44-1.51l-.41-10a1.49,1.49,0,0,1,1.38-1.65,1.62,1.62,0,0,1,1.5,1.65l.3,10A1.4,1.4,0,0,1,37,125.2Zm6.09,0a1.48,1.48,0,0,1-1.41-1.51l-.17-10a1.53,1.53,0,0,1,1.42-1.65,1.58,1.58,0,0,1,1.46,1.65l.06,10A1.44,1.44,0,0,1,43.1,125.2Zm7.5-1.51a1.48,1.48,0,0,1-1.41,1.51,1.44,1.44,0,0,1-1.37-1.51l.07-10a1.58,1.58,0,0,1,1.46-1.65,1.53,1.53,0,0,1,1.42,1.65Zm5.47,15.69a1.38,1.38,0,0,1-1.35,1.33,1.27,1.27,0,0,1-1.25-1.33l.27-8.78a1.46,1.46,0,0,1,1.4-1.44,1.34,1.34,0,0,1,1.3,1.44Zm.66-15.69a1.53,1.53,0,0,1-1.44,1.51A1.4,1.4,0,0,1,54,123.7l.31-10a1.62,1.62,0,0,1,1.5-1.65,1.49,1.49,0,0,1,1.38,1.65Zm5.09,15.69a1.42,1.42,0,0,1-1.38,1.33,1.23,1.23,0,0,1-1.22-1.33l.48-8.78a1.51,1.51,0,0,1,1.44-1.44,1.3,1.3,0,0,1,1.26,1.44Zm1-15.69a1.57,1.57,0,0,1-1.48,1.51,1.36,1.36,0,0,1-1.3-1.51l.55-10a1.67,1.67,0,0,1,1.54-1.65,1.45,1.45,0,0,1,1.34,1.65Zm4.72,15.69a1.47,1.47,0,0,1-1.41,1.33A1.2,1.2,0,0,1,65,139.39l.7-8.78a1.55,1.55,0,0,1,1.47-1.44,1.27,1.27,0,0,1,1.23,1.44Zm2.31-25.68-.9,10a1.62,1.62,0,0,1-1.52,1.51,1.32,1.32,0,0,1-1.26-1.51l.79-10a1.72,1.72,0,0,1,1.58-1.65A1.41,1.41,0,0,1,69.9,113.71Zm4.44,16.9-1,8.78a1.51,1.51,0,0,1-1.45,1.33,1.16,1.16,0,0,1-1.16-1.33l.91-8.78a1.6,1.6,0,0,1,1.51-1.44A1.23,1.23,0,0,1,74.34,130.61Zm1.93-16.9-1.14,10a1.67,1.67,0,0,1-1.55,1.51,1.29,1.29,0,0,1-1.22-1.51l1-10A1.78,1.78,0,0,1,75,112.06,1.37,1.37,0,0,1,76.27,113.71Z"/><path class="cls-5" d="M37.56,68.3,15.44,90.43a3.09,3.09,0,0,0-.26,4L41.61,68a3.09,3.09,0,0,0-4,.26"/><path class="cls-21" d="M41.61,68,15.17,94.47a3,3,0,0,0,.26.32,3.09,3.09,0,0,0,4.36,0L41.93,72.66a3.09,3.09,0,0,0,0-4.36,3,3,0,0,0-.32-.26"/><path class="cls-5" d="M50.79,72.66,72.92,94.79a3.09,3.09,0,0,0,4,.26L50.53,68.62a3.08,3.08,0,0,0,.26,4"/><path class="cls-21" d="M50.53,68.62,77,95.05a3.16,3.16,0,0,0,.32-.26,3.1,3.1,0,0,0,0-4.36L55.16,68.3a3.09,3.09,0,0,0-4.36,0,2.94,2.94,0,0,0-.26.32"/><path class="cls-22" d="M20.4,140.71h0A1.51,1.51,0,0,1,19,139.39l-1-8.78a1.23,1.23,0,0,1,1.2-1.44,1.6,1.6,0,0,1,1.51,1.44l.9,8.78A1.17,1.17,0,0,1,20.4,140.71Z"/><path class="cls-22" d="M26.12,140.71h0a1.47,1.47,0,0,1-1.42-1.33l-.78-8.78a1.27,1.27,0,0,1,1.23-1.44,1.55,1.55,0,0,1,1.47,1.44l.69,8.78A1.2,1.2,0,0,1,26.12,140.71Z"/><path class="cls-22" d="M31.84,140.71h0a1.42,1.42,0,0,1-1.38-1.33l-.57-8.78a1.3,1.3,0,0,1,1.26-1.44,1.51,1.51,0,0,1,1.44,1.44l.48,8.78A1.23,1.23,0,0,1,31.84,140.71Z"/><path class="cls-23" d="M30.13,112.06a1.45,1.45,0,0,0-1.34,1.65l.65,10a1.57,1.57,0,0,0,1.48,1.51,1.36,1.36,0,0,0,1.3-1.51l-.54-10a1.67,1.67,0,0,0-1.54-1.65"/><path class="cls-23" d="M36.54,112.06a1.49,1.49,0,0,0-1.38,1.65l.41,10A1.52,1.52,0,0,0,37,125.2a1.4,1.4,0,0,0,1.34-1.51l-.3-10a1.62,1.62,0,0,0-1.5-1.65"/><path class="cls-23" d="M42.95,112.06a1.53,1.53,0,0,0-1.42,1.65l.17,10a1.48,1.48,0,0,0,1.41,1.51,1.44,1.44,0,0,0,1.37-1.51l-.06-10a1.58,1.58,0,0,0-1.46-1.65"/><path class="cls-23" d="M49.36,112.06a1.58,1.58,0,0,0-1.46,1.65l-.07,10a1.44,1.44,0,0,0,1.37,1.51,1.48,1.48,0,0,0,1.41-1.51l.18-10a1.53,1.53,0,0,0-1.42-1.65"/><path class="cls-23" d="M55.77,112.06a1.62,1.62,0,0,0-1.5,1.65l-.31,10a1.4,1.4,0,0,0,1.33,1.51,1.53,1.53,0,0,0,1.44-1.51l.42-10a1.49,1.49,0,0,0-1.38-1.65"/><path class="cls-23" d="M62.18,112.06a1.67,1.67,0,0,0-1.54,1.65l-.55,10a1.36,1.36,0,0,0,1.3,1.51,1.57,1.57,0,0,0,1.48-1.51l.66-10a1.45,1.45,0,0,0-1.34-1.65"/><path class="cls-23" d="M68.59,112.06A1.72,1.72,0,0,0,67,113.71l-.79,10a1.32,1.32,0,0,0,1.26,1.51A1.62,1.62,0,0,0,69,123.7l.9-10a1.41,1.41,0,0,0-1.3-1.65"/><path class="cls-23" d="M75,112.06a1.78,1.78,0,0,0-1.62,1.65l-1,10a1.29,1.29,0,0,0,1.22,1.51,1.67,1.67,0,0,0,1.55-1.51l1.14-10A1.37,1.37,0,0,0,75,112.06"/><path class="cls-22" d="M18.93,113.71l.57,5.56-3-1.94L16,113.71l1.13,10a1.67,1.67,0,0,0,1.55,1.51A1.29,1.29,0,0,0,20,123.7Z"/><path class="cls-22" d="M26.06,123.46l-2.95-1.88-.7-7.87.89,10a1.62,1.62,0,0,0,1.51,1.51,1.32,1.32,0,0,0,1.26-1.51l-.78-10Z"/><path class="cls-22" d="M36.55,129.33l.2-.09Z"/><path class="cls-22" d="M36.84,129.21a1.24,1.24,0,0,1,.31,0A1.24,1.24,0,0,0,36.84,129.21Z"/><path class="cls-22" d="M36,129.82a1.36,1.36,0,0,1,.18-.25A1.36,1.36,0,0,0,36,129.82Z"/><path class="cls-22" d="M36.29,129.52l.18-.14Z"/><path class="cls-22" d="M38.58,131.45,36,129.83a1.45,1.45,0,0,0-.19.78l.36,8.78a1.38,1.38,0,0,0,1.35,1.33,1.27,1.27,0,0,0,1.26-1.33l-.27-8.78Z"/><path class="cls-22" d="M44.55,135.26l-2.68-1.71-.05-2.94.15,8.78a1.34,1.34,0,0,0,1.32,1.33,1.3,1.3,0,0,0,1.29-1.33l-.05-8.78Z"/><path class="cls-22" d="M47.78,130.61l-.06,8.78A1.3,1.3,0,0,0,49,140.71a1.34,1.34,0,0,0,1.32-1.33V139l-2.6-1.66Z"/><path class="cls-23" d="M19.5,119.27l-.57-5.56a1.78,1.78,0,0,0-1.62-1.65A1.37,1.37,0,0,0,16,113.71l.41,3.62Z"/><path class="cls-23" d="M26.06,123.46l-.76-9.76a1.72,1.72,0,0,0-1.58-1.65,1.41,1.41,0,0,0-1.3,1.65l.7,7.87Z"/><path class="cls-23" d="M36.23,129.58l.06-.05Z"/><polygon class="cls-23" points="36.04 129.83 36.04 129.83 36.04 129.82 36.04 129.83"/><path class="cls-23" d="M36.46,129.38l.09-.05Z"/><path class="cls-23" d="M36.75,129.24l.09,0Z"/><path class="cls-23" d="M38.55,130.61a1.46,1.46,0,0,0-1.4-1.44,1.24,1.24,0,0,0-.31,0l-.09,0-.2.09-.09.05-.18.14-.06.05a1.36,1.36,0,0,0-.18.25h0l2.54,1.62Z"/><path class="cls-23" d="M44.55,135.26l0-4.65a1.42,1.42,0,0,0-1.37-1.44,1.38,1.38,0,0,0-1.33,1.44l.05,2.94Z"/><polygon class="cls-23" points="50.48 130.61 50.33 138.95 50.33 138.95 50.48 130.61"/><path class="cls-23" d="M49.15,129.17a1.42,1.42,0,0,0-1.37,1.44l0,6.68,2.6,1.66.15-8.34A1.38,1.38,0,0,0,49.15,129.17Z"/><path class="cls-23" d="M55.15,129.17a1.46,1.46,0,0,0-1.4,1.44l-.27,8.78a1.27,1.27,0,0,0,1.25,1.33,1.38,1.38,0,0,0,1.35-1.33l.37-8.78a1.34,1.34,0,0,0-1.3-1.44"/><path class="cls-23" d="M61.15,129.17a1.51,1.51,0,0,0-1.44,1.44l-.48,8.78a1.23,1.23,0,0,0,1.22,1.33,1.42,1.42,0,0,0,1.38-1.33l.58-8.78a1.3,1.3,0,0,0-1.26-1.44"/><path class="cls-23" d="M67.14,129.17a1.55,1.55,0,0,0-1.47,1.44l-.7,8.78a1.2,1.2,0,0,0,1.19,1.33,1.47,1.47,0,0,0,1.41-1.33l.79-8.78a1.27,1.27,0,0,0-1.23-1.44"/><path class="cls-23" d="M73.14,129.17a1.6,1.6,0,0,0-1.51,1.44l-.91,8.78a1.16,1.16,0,0,0,1.16,1.33,1.51,1.51,0,0,0,1.45-1.33l1-8.78a1.23,1.23,0,0,0-1.19-1.44"/><path class="cls-24" d="M83.62,103.31H9A6,6,0,0,1,9,91.23H83.62a6,6,0,0,1,0,12.07Z"/><path class="cls-21" d="M78.31,99.86h0a2.59,2.59,0,1,1,2.59-2.59A2.59,2.59,0,0,1,78.31,99.86Z"/><circle class="cls-21" cx="14.41" cy="97.38" r="2.66"/></g></g></svg>