<svg id="レイヤー_1" data-name="レイヤー 1" xmlns="http://www.w3.org/2000/svg" viewBox="0 0 400 235"><defs><style>.cls-1{fill:#ffe46f;}.cls-2{fill:#cb4038;}.cls-3{fill:#e45951;}.cls-4{fill:#ffc93d;}.cls-5{fill:#fff160;}.cls-6{fill:#ff836e;}</style></defs><title>img_present_on</title><polygon class="cls-1" points="178.15 177.27 217.85 177.27 218.9 139.63 177.06 139.63 178.15 177.27"/><polygon class="cls-2" points="177.06 139.63 178.15 177.27 217.85 177.27 218.9 139.63 177.06 139.63"/><polygon class="cls-3" points="218.9 139.63 220.97 87.29 174.91 87.29 177.06 139.63 218.9 139.63"/><path class="cls-4" d="M105.88,177.27,111.82,222c.81,6.08,7.33,11,14.5,11h53.45l-1.62-55.73Z"/><path class="cls-4" d="M216.29,233h54.14c7.17,0,13.69-4.89,14.5-11l5.94-44.75h-73Z"/><polygon class="cls-3" points="178.15 177.27 179.77 233 216.29 233 217.85 177.27 178.15 177.27"/><polygon class="cls-3" points="218.9 139.63 217.85 177.27 290.87 177.27 295.87 139.63 218.9 139.63"/><polygon class="cls-3" points="177.06 139.63 100.89 139.63 105.88 177.27 178.15 177.27 177.06 139.63"/><path class="cls-4" d="M93.64,76.22a16,16,0,0,0-.36,6.15l7.6,57.27h76.17l-1.48-51H103.26C96.81,88.61,92.81,83.13,93.64,76.22Z"/><path class="cls-4" d="M293.92,88.61h-73.6l-1.43,51h77l7.6-57.27a16.64,16.64,0,0,0,.12-3C303.06,84.7,299.37,88.61,293.92,88.61Z"/><path class="cls-5" d="M303.22,74.35l-10.63-44.2c-1.46-6.06-7.42-10.83-13.37-10.83H118c-5.94,0-11.91,4.78-13.37,10.83L94,74.35a16.25,16.25,0,0,0-.32,1.86c-.84,6.91,3.17,12.39,9.62,12.39H293.92c5.45,0,9.14-3.91,9.67-9.28A15,15,0,0,0,303.22,74.35Z"/><polygon class="cls-6" points="180.93 19.22 215.5 19.22 220.28 88.59 175.55 88.59 180.93 19.22"/><path class="cls-3" d="M66.49,101c-10.17-1.46-21.28-6.09-34.26-14l13.51-8.65L47.07,62.7c23.82,14.53,30.49,10.62,36.38,7.18,2.89-1.69,4.62-3.87,7.95-8.23a93.11,93.11,0,0,1,14.54-15.84C122,32.16,140.73,31,153.12,30.18c1.69-.11,3.31-.21,4.84-.34l2.45,28.38c-1.73.15-3.57.27-5.48.39-10.65.68-21.67,1.38-30.54,8.91A66,66,0,0,0,114,78.93c-3.91,5.12-8.34,10.92-16.2,15.53C87.71,100.39,77.67,102.63,66.49,101Z"/><path class="cls-3" d="M335.15,99.18c9.66-1.28,20.23-5.57,32.62-13L355,77.89,353.93,63c-22.73,13.55-29,9.78-34.57,6.46-2.73-1.63-4.34-3.71-7.46-7.88a88.3,88.3,0,0,0-13.64-15.16C283.16,33.34,265.42,32,253.68,31.16c-1.6-.12-3.14-.23-4.59-.37L246.5,57.68c1.64.16,3.38.29,5.19.42,10.1.75,20.54,1.52,28.88,8.74a62.56,62.56,0,0,1,9.7,10.92c3.66,4.89,7.8,10.44,15.22,14.88C315,98.37,324.53,100.59,335.15,99.18Z"/><path class="cls-6" d="M300,21.86C295.87,4.6,277.89-2.3,263.58,4.76L214.75,28.84c-4,2-5.59,9.33-3.87,16.51l.73,3a23.19,23.19,0,0,0,4.2,9c-1.35-7,.54-13.28,4.85-14.41l42.48-11.09c12.67-3.31,28.24,5.16,33.21,19.93a25.5,25.5,0,0,0,5.38-22.62Z"/><path class="cls-6" d="M275.75,55.84l-53.94,2.64c-2.21.11-4.45-1.25-6.34-3.44.07.76.18,1.54.33,2.34,2,2.46,4.35,4,6.71,4L277,60.87a25.59,25.59,0,0,0,19.39-9.07,28.79,28.79,0,0,0-2.22-4.94A26.13,26.13,0,0,1,275.75,55.84Z"/><path class="cls-2" d="M275.75,55.84a26.13,26.13,0,0,0,18.37-9c-6.62-11.76-19.91-17.88-31-15L220.66,43c-3.84,1-5.75,6.13-5.18,12.07,1.89,2.19,4.13,3.55,6.34,3.44Z"/><path class="cls-6" d="M183.49,28.77l-48.65-24c-14.26-7-32.19-.13-36.3,17.13L96.8,29.18a25.52,25.52,0,0,0,5.35,22.61c5-14.77,20.49-23.25,33.12-19.95L177.59,42.9c3.81,1,5.71,6.08,5.15,12.07-1.88,2.19-4.12,3.55-6.32,3.44l-53.76-2.59a26,26,0,0,1-18.3-9,28.86,28.86,0,0,0-2.22,4.94,25.43,25.43,0,0,0,19.32,9.05l54.26.48c2.34,0,4.73-1.56,6.69-4,.15-.75.24-1.49.32-2.21-.07.73-.17,1.46-.32,2.21a23.25,23.25,0,0,0,4.19-9l.73-3C189.05,38.09,187.51,30.76,183.49,28.77Z"/><path class="cls-2" d="M122.67,55.82a26,26,0,0,1-18.3-9c6.6-11.76,19.86-17.89,30.89-15L177.59,42.9c3.83,1,5.72,6.12,5.16,12.06-1.89,2.19-4.12,3.55-6.33,3.45Z"/><rect class="cls-3" x="176.63" y="24.44" width="46.33" height="40.44" rx="15.16" ry="15.16"/></svg>