<svg id="レイヤー_1" data-name="レイヤー 1" xmlns="http://www.w3.org/2000/svg" xmlns:xlink="http://www.w3.org/1999/xlink" viewBox="0 0 640 237"><defs><style>.cls-1{fill:none;}.cls-2{fill:#fde558;}.cls-3{clip-path:url(#clip-path);}.cls-4{fill:#ffffa2;}.cls-5{fill:#ed4023;}.cls-6{fill:#ff7034;}.cls-7{fill:#d43b23;}.cls-8{fill:#44a5c7;}.cls-9{fill:#ffb23d;}.cls-10{fill:#d84023;}.cls-11{fill:#069b60;}.cls-12{fill:#fff;}.cls-13{opacity:0.5;}.cls-14{opacity:0.7;}.cls-15{fill:#fbb03b;}.cls-16{fill:#9a664d;}.cls-17{fill:#f8a13d;}.cls-18{fill:#4493b8;}.cls-19{fill:#068b56;}.cls-20{fill:#f45934;}.cls-21{fill:#066b74;}.cls-22{fill:#8cddf1;}.cls-23{fill:#ff8266;}.cls-24{fill:#ee5659;}.cls-25{fill:#ffe55a;}</style><clipPath id="clip-path"><rect class="cls-1" width="640" height="237"/></clipPath></defs><title>img_head_sp</title><rect class="cls-2" width="640" height="237.04"/><g class="cls-3"><polygon class="cls-1" points="363.38 277.33 640 -43.75 640 -153.8 353.33 277.33 363.38 277.33"/><polygon class="cls-1" points="241.66 -362.67 314.25 277.33 318.05 277.33 292.6 -362.67 241.66 -362.67"/><polygon class="cls-1" points="589 -362.67 339.53 277.33 345.44 277.33 640 -305.87 640 -362.67 589 -362.67"/><polygon class="cls-1" points="640 277.33 640 219.42 468.51 277.33 640 277.33"/><polygon class="cls-1" points="0 -362.67 0 277.33 171.49 277.33 0 219.42 0 138.33 234.93 277.33 260.61 277.33 0 57.28 0 -43.75 276.63 277.33 286.67 277.33 0 -153.8 0 -305.87 294.56 277.33 300.47 277.33 51.01 -362.67 0 -362.67"/><polygon class="cls-1" points="124.21 -362.67 305.7 277.33 310.07 277.33 182.9 -362.67 124.21 -362.67"/><polygon class="cls-1" points="405.07 277.33 640 138.33 640 57.28 379.39 277.33 405.07 277.33"/><polygon class="cls-1" points="457.1 -362.67 329.93 277.33 334.3 277.33 515.79 -362.67 457.1 -362.67"/><polygon class="cls-1" points="347.4 -362.67 321.95 277.33 325.75 277.33 398.34 -362.67 347.4 -362.67"/><polygon class="cls-4" points="292.6 -362.67 318.05 277.33 321.95 277.33 347.4 -362.67 292.6 -362.67"/><polygon class="cls-4" points="182.9 -362.67 310.07 277.33 314.25 277.33 241.66 -362.67 182.9 -362.67"/><polygon class="cls-4" points="51.01 -362.67 300.47 277.33 305.7 277.33 124.21 -362.67 51.01 -362.67"/><polygon class="cls-4" points="0 -153.8 286.67 277.33 294.56 277.33 0 -305.87 0 -153.8"/><polygon class="cls-4" points="0 57.28 260.61 277.33 276.63 277.33 0 -43.75 0 57.28"/><polygon class="cls-4" points="0 219.42 171.49 277.33 234.93 277.33 0 138.33 0 219.42"/><polygon class="cls-4" points="468.51 277.33 640 219.42 640 138.33 405.07 277.33 468.51 277.33"/><polygon class="cls-4" points="379.39 277.33 640 57.28 640 -43.75 363.38 277.33 379.39 277.33"/><polygon class="cls-4" points="353.33 277.33 640 -153.8 640 -305.87 345.44 277.33 353.33 277.33"/><polygon class="cls-4" points="515.79 -362.67 334.3 277.33 339.53 277.33 589 -362.67 515.79 -362.67"/><polygon class="cls-4" points="398.34 -362.67 325.75 277.33 329.93 277.33 457.1 -362.67 398.34 -362.67"/><path class="cls-5" d="M61.21,238.46a91.8,91.8,0,0,0,11.87-22.73l-8-12.8a90.64,90.64,0,0,1-15.68,30.73Z"/><path class="cls-6" d="M72.92,243.21a92.62,92.62,0,0,0,8-15l-7.81-12.45a91.8,91.8,0,0,1-11.87,22.73Z"/><path class="cls-5" d="M84.48,247.9q2.23-3.74,4-7.54l-7.64-12.18a92.62,92.62,0,0,1-8,15Z"/><path class="cls-6" d="M47.84,177.87a2.47,2.47,0,0,0-1.53.91L14.8,216.33A2.19,2.19,0,0,0,15.7,220l9.58,3.89C38,209.38,45.92,193.21,47.84,177.87Z"/><path class="cls-6" d="M37.4,228.79l12,4.86A90.64,90.64,0,0,0,65,202.93l-8.3-13.24C54.28,202.78,47.59,216.32,37.4,228.79Z"/><path class="cls-5" d="M50.07,179a2.24,2.24,0,0,0-2.23-1.17c-1.92,15.35-9.83,31.51-22.55,46l12.11,4.91c10.2-12.47,16.89-26,19.35-39.11Z"/><ellipse class="cls-7" cx="31.95" cy="198.72" rx="26.88" ry="5.87" transform="translate(-140.82 95.46) rotate(-50)"/><path class="cls-8" d="M16.76,171.17C5.28,166,8.2,156,11.39,149l3.78,1.72c-4.75,10.45-2.11,14.22,3.3,16.69Z"/><polygon class="cls-9" points="32 170.1 26.01 172.22 28.52 178.17 34.55 176.53 32 170.1"/><polygon class="cls-10" points="6.28 169.92 0.29 172.04 2.8 178 8.83 176.36 6.28 169.92"/><polygon class="cls-11" points="7.05 207.2 2.54 214.26 -1.59 211.69 2.61 204.99 7.05 207.2"/><polygon class="cls-8" points="27.86 200.74 21.18 202.14 19.7 190.97 27.02 189.46 27.86 200.74"/><polygon class="cls-12" points="38.6 188.72 40.8 180.7 36.08 177.53 33.46 185.59 38.6 188.72"/><path class="cls-5" d="M575.23,238.46a91.8,91.8,0,0,1-11.87-22.73l8-12.8a90.64,90.64,0,0,0,15.68,30.73Z"/><path class="cls-6" d="M563.53,243.21a92.62,92.62,0,0,1-8-15l7.81-12.45a91.8,91.8,0,0,0,11.87,22.73Z"/><path class="cls-5" d="M552,247.9q-2.23-3.74-4-7.54l7.64-12.18a92.62,92.62,0,0,0,8,15Z"/><path class="cls-6" d="M588.61,177.87a2.47,2.47,0,0,1,1.53.91l31.51,37.56a2.19,2.19,0,0,1-.91,3.65l-9.58,3.89C598.44,209.38,590.53,193.21,588.61,177.87Z"/><path class="cls-6" d="M599,228.79l-12,4.86a90.64,90.64,0,0,1-15.68-30.73l8.3-13.24C582.16,202.78,588.85,216.32,599,228.79Z"/><path class="cls-5" d="M586.38,179a2.24,2.24,0,0,1,2.23-1.17c1.92,15.35,9.83,31.51,22.55,46L599,228.79c-10.2-12.47-16.89-26-19.35-39.11Z"/><ellipse class="cls-7" cx="604.5" cy="198.72" rx="5.87" ry="26.88" transform="translate(13.69 435.06) rotate(-40)"/><path class="cls-8" d="M619.69,171.17,618,167.4c5.42-2.46,8.05-6.24,3.3-16.69l3.78-1.72C628.24,156,631.16,166,619.69,171.17Z"/><polygon class="cls-9" points="604.45 170.1 610.44 172.22 607.93 178.17 601.9 176.53 604.45 170.1"/><polygon class="cls-10" points="630.17 169.92 636.15 172.04 633.64 178 627.61 176.36 630.17 169.92"/><polygon class="cls-11" points="629.4 207.2 633.9 214.26 638.03 211.69 633.83 204.99 629.4 207.2"/><polygon class="cls-8" points="608.59 200.74 615.26 202.14 616.74 190.97 609.43 189.46 608.59 200.74"/><polygon class="cls-12" points="597.85 188.72 595.64 180.7 600.37 177.53 602.99 185.59 597.85 188.72"/><polygon class="cls-12" points="652.21 204.78 639.03 201.1 640.07 191.37 652.9 193.86 652.21 204.78"/><path class="cls-5" d="M88.86,227.15a91.8,91.8,0,0,0,15.63-20.32l-5.68-14A90.64,90.64,0,0,1,78,220.36Z"/><path class="cls-6" d="M99.56,233.86A92.62,92.62,0,0,0,110,220.44l-5.53-13.62a91.8,91.8,0,0,1-15.63,20.32Z"/><path class="cls-5" d="M110.13,240.48q2.85-3.3,5.3-6.72L110,220.44a92.62,92.62,0,0,1-10.46,13.42Z"/><path class="cls-6" d="M118.18,245.53c1.49.94,2.17.37,1.51-1.26l-4.26-10.51q-2.44,3.42-5.3,6.72Z"/><path class="cls-6" d="M86.2,165.15a2.47,2.47,0,0,0-1.66.63L47,197.3a2.19,2.19,0,0,0,.26,3.76l8.76,5.5C71,194.47,81.65,179.93,86.2,165.15Z"/><path class="cls-6" d="M67.08,213.49,78,220.36A90.64,90.64,0,0,0,98.8,192.82l-5.88-14.48C88.23,190.81,79.29,203,67.08,213.49Z"/><path class="cls-5" d="M88.2,166.69a2.24,2.24,0,0,0-2-1.54C81.65,179.93,71,194.47,56,206.55l11.07,6.94C79.29,203,88.23,190.81,92.93,178.34Z"/><ellipse class="cls-7" cx="66.94" cy="182.93" rx="26.88" ry="5.87" transform="translate(-101.93 85.82) rotate(-40)"/><path class="cls-8" d="M53.15,142c-3.78-2.59-5.65-5.84-5.55-9.66.09-3.22,1.54-6.78,4.56-11.2l3.42,2.35c-2.52,3.68-3.78,6.61-3.84,9,0,1.5.3,3.76,3.74,6.12Z"/><path class="cls-10" d="M11.42,133.07,8,130.73c3.15-4.59,2.81-10.32-.76-12.77l2.35-3.42C15,118.28,15.86,126.59,11.42,133.07Z"/><path class="cls-9" d="M24.23,151.62l-3.89-1.43a15.53,15.53,0,0,1,8.77-9,17.83,17.83,0,0,1,13-.19l-1.43,3.89a13.7,13.7,0,0,0-10,.12A11.43,11.43,0,0,0,24.23,151.62Z"/><polygon class="cls-9" points="71.95 154.75 65.69 155.8 67.13 162.1 73.35 161.53 71.95 154.75"/><polygon class="cls-10" points="46.66 150.11 40.39 151.16 41.83 157.46 48.05 156.89 46.66 150.11"/><polygon class="cls-11" points="40.94 186.96 35.28 193.12 31.66 189.88 36.96 184.01 40.94 186.96"/><polygon class="cls-8" points="62.56 184.2 55.74 184.43 56.22 173.17 63.69 172.96 62.56 184.2"/><polygon class="cls-11" points="31.39 134.44 25.8 124.18 30.42 117.18 35.88 128.53 31.39 134.44"/><polygon class="cls-12" points="75.22 174.23 78.79 166.72 74.69 162.77 70.7 170.26 75.22 174.23"/><polygon class="cls-12" points="11.39 185.55 25.01 184.22 25.68 174.45 12.61 174.68 11.39 185.55"/><path class="cls-5" d="M547.59,227.15A91.8,91.8,0,0,1,532,206.82l5.68-14a90.64,90.64,0,0,0,20.77,27.54Z"/><path class="cls-6" d="M536.89,233.86a92.62,92.62,0,0,1-10.46-13.42L532,206.82a91.8,91.8,0,0,0,15.63,20.32Z"/><path class="cls-5" d="M526.32,240.48q-2.85-3.3-5.3-6.72l5.41-13.32a92.62,92.62,0,0,0,10.46,13.42Z"/><path class="cls-6" d="M518.26,245.53c-1.49.94-2.17.37-1.51-1.26L521,233.76q2.44,3.42,5.3,6.72Z"/><path class="cls-6" d="M550.24,165.15a2.47,2.47,0,0,1,1.66.63l37.56,31.51a2.19,2.19,0,0,1-.26,3.76l-8.76,5.5C565.4,194.47,554.79,179.93,550.24,165.15Z"/><path class="cls-6" d="M569.36,213.49l-10.95,6.87a90.64,90.64,0,0,1-20.77-27.54l5.88-14.48C548.22,190.81,557.16,203,569.36,213.49Z"/><path class="cls-5" d="M548.25,166.69a2.24,2.24,0,0,1,2-1.54c4.55,14.78,15.16,29.32,30.19,41.4l-11.07,6.94c-12.21-10.51-21.15-22.68-25.84-35.15Z"/><ellipse class="cls-7" cx="569.51" cy="182.93" rx="5.87" ry="26.88" transform="translate(63.3 501.62) rotate(-50)"/><path class="cls-8" d="M572.48,138.44l-3.83-1.59c1.44-3.45,1.4-6.12-.1-8.41s-4.35-4.18-8.86-6.05l1.59-3.83c5.37,2.23,8.78,4.65,10.73,7.6C574.28,129.6,574.44,133.73,572.48,138.44Z"/><path class="cls-10" d="M625,133.07c-4.44-6.48-3.62-14.79,1.83-18.53L629.2,118c-3.57,2.45-3.91,8.17-.76,12.77Z"/><path class="cls-9" d="M599.43,161l-3.16-2.69c6.18-7.26,16.73-8.47,23.51-2.7l-2.69,3.16C612.05,154.43,604.13,155.43,599.43,161Z"/><polygon class="cls-9" points="564.49 154.75 570.76 155.8 569.32 162.1 563.09 161.53 564.49 154.75"/><polygon class="cls-10" points="589.79 150.11 596.05 151.16 594.62 157.46 588.39 156.89 589.79 150.11"/><polygon class="cls-11" points="595.5 186.96 601.16 193.12 604.78 189.88 599.49 184.01 595.5 186.96"/><polygon class="cls-8" points="573.88 184.2 580.71 184.43 580.22 173.17 572.76 172.96 573.88 184.2"/><polygon class="cls-11" points="597.54 125.36 603.14 115.1 598.52 108.09 593.06 119.45 597.54 125.36"/><polygon class="cls-12" points="561.22 174.23 557.66 166.72 561.76 162.77 565.74 170.26 561.22 174.23"/><polygon class="cls-12" points="617.55 180.61 603.93 179.28 603.26 169.51 616.33 169.74 617.55 180.61"/></g><polygon class="cls-10" points="549.54 22.01 545.95 29.15 558.14 34.17 562.04 26.35 549.54 22.01"/><polygon class="cls-10" points="509.13 95.17 517.89 96.94 514.14 86.48 506.1 85.42 509.13 95.17"/><polygon class="cls-10" points="517.76 33.34 522.6 40.27 529.06 38.11 523.61 31.07 517.76 33.34"/><polygon class="cls-8" points="534.48 65.69 542.62 76.68 552.33 75.22 542.96 63.84 534.48 65.69"/><polygon class="cls-8" points="527.24 8.33 532.74 12.57 539.4 9.11 533.28 4.94 527.24 8.33"/><polygon class="cls-12" points="493.5 25.26 496.04 29.47 500.15 27.27 497.32 23.06 493.5 25.26"/><polygon class="cls-11" points="509.46 66.57 516.04 70.19 517 64.17 510.47 61.02 509.46 66.57"/><polygon class="cls-10" points="132.89 85.43 129.87 79.74 126.54 81.45 129.35 86.85 132.89 85.43"/><polygon class="cls-10" points="165.03 40.22 165.11 46.57 168.29 46.66 168.31 40 165.03 40.22"/><polygon class="cls-10" points="191.11 64.98 185.22 64.92 185.52 70.9 191.29 71.38 191.11 64.98"/><polygon class="cls-8" points="176.25 67.98 172.24 67.76 172.72 72.66 176.68 73.15 176.25 67.98"/><polygon class="cls-8" points="166.64 113.58 157.46 110.06 157.15 115.98 166.06 119.91 166.64 113.58"/><polygon class="cls-12" points="260.87 68.21 248.27 69.48 247.68 78.53 259.78 78.28 260.87 68.21"/><polygon class="cls-11" points="204.2 47.36 200.92 54.33 204.73 57.97 208.4 51.02 204.2 47.36"/><polygon class="cls-10" points="216.72 92.06 222.15 95.53 220.18 98.71 215.02 95.47 216.72 92.06"/><polygon class="cls-10" points="310.27 112.01 303.94 111.41 304.11 108.22 310.75 108.75 310.27 112.01"/><polygon class="cls-10" points="235.1 123.7 234.67 129.57 228.74 128.78 228.73 123 235.1 123.7"/><polygon class="cls-8" points="283.51 98.56 283.4 102.57 278.56 101.7 278.39 97.71 283.51 98.56"/><polygon class="cls-8" points="246.98 51.11 249.74 60.55 243.82 60.38 240.63 51.18 246.98 51.11"/><polygon class="cls-12" points="308.99 13.02 306.69 25.48 297.63 25.34 298.87 13.29 308.99 13.02"/><polygon class="cls-11" points="280.27 132.94 273.06 135.63 269.74 131.54 276.96 128.45 280.27 132.94"/><g class="cls-13"><polygon class="cls-10" points="629.79 33.09 624.77 29.25 631.7 21.46 637.18 25.67 629.79 33.09"/><polygon class="cls-10" points="579.37 5.78 584.98 1.49 585.94 10.23 580.59 13.77 579.37 5.78"/><polygon class="cls-10" points="609.97 47.57 611.01 40.96 616.36 40.26 614.92 47.16 609.97 47.57"/><polygon class="cls-8" points="607.61 17.97 609.59 7.33 617.01 5.01 614.28 16.35 607.61 17.97"/><polygon class="cls-8" points="622.34 61.28 624.78 56.36 630.71 56.51 627.81 61.6 622.34 61.28"/><polygon class="cls-12" points="592.47 60.93 592.82 57.05 596.51 57.19 595.96 61.17 592.47 60.93"/><polygon class="cls-11" points="583.33 35.81 586.76 30.95 589.53 34.9 585.97 39.4 583.33 35.81"/></g><polygon class="cls-10" points="227.53 56.81 224.76 48.16 229.03 46.59 232.08 55.6 227.53 56.81"/><polygon class="cls-8" points="30.62 34.66 25.13 36.84 23.57 29.98 28.88 27.45 30.62 34.66"/><g class="cls-13"><polygon class="cls-10" points="130.98 21.8 124.83 26.51 122.05 22.98 127.82 18.47 130.98 21.8"/><polygon class="cls-10" points="121.17 52.2 114.72 49.31 118.03 42.93 124.58 45.29 121.17 52.2"/><polygon class="cls-8" points="154.12 37.6 142.31 36.85 144.94 30.22 156.65 30.39 154.12 37.6"/><polygon class="cls-12" points="157.72 86.6 144.57 78.9 148.45 68.71 161.56 75.05 157.72 86.6"/></g><polygon class="cls-11" points="13.73 27.8 6.12 19.85 9.62 13.19 17.75 20.93 13.73 27.8"/><polygon class="cls-10" points="80.78 100.44 82.75 106.58 86.33 105.48 84.52 99.67 80.78 100.44"/><polygon class="cls-10" points="81.32 182.69 82.36 176.42 79.24 175.76 78.05 182.32 81.32 182.69"/><polygon class="cls-10" points="61.81 127.04 67.59 128.13 68.35 122.2 62.76 120.7 61.81 127.04"/><polygon class="cls-8" points="75.19 153.38 79.09 154.3 79.48 149.4 75.67 148.21 75.19 153.38"/><polygon class="cls-8" points="40.46 98.21 48.88 103.3 50.22 97.52 42.15 92.08 40.46 98.21"/><polygon class="cls-12" points="37.91 169.94 50.54 170.92 52.72 162.12 40.76 160.23 37.91 169.94"/><polygon class="cls-11" points="56.24 159.91 60.7 153.63 57.59 149.37 52.76 155.56 56.24 159.91"/><polygon class="cls-10" points="445.75 51.34 446.38 44.92 442.66 44.51 442.01 50.56 445.75 51.34"/><polygon class="cls-8" points="224.46 29.61 218.76 21.6 215.23 26.36 220.48 34.56 224.46 29.61"/><polygon class="cls-12" points="107.76 96.69 96.55 90.77 91.06 97.98 101.28 104.47 107.76 96.69"/><polygon class="cls-11" points="245.39 29.61 238.8 33.6 239.96 38.74 246.86 34.98 245.39 29.61"/><polygon class="cls-10" points="204.49 17.76 205.13 11.34 201.41 10.93 200.76 16.98 204.49 17.76"/><g class="cls-14"><polygon class="cls-10" points="484.56 32.48 481.12 37.82 483.72 39.67 487.42 34.12 484.56 32.48"/><polygon class="cls-10" points="492.59 67.54 487.72 64.24 484.66 69.39 489.2 72.98 492.59 67.54"/><polygon class="cls-8" points="478.55 61.82 475.33 59.43 473.02 63.77 476.05 66.37 478.55 61.82"/><polygon class="cls-10" points="484.56 32.48 481.12 37.82 483.72 39.67 487.42 34.12 484.56 32.48"/><polygon class="cls-10" points="492.59 67.54 487.72 64.24 484.66 69.39 489.2 72.98 492.59 67.54"/><polygon class="cls-8" points="478.55 61.82 475.33 59.43 473.02 63.77 476.05 66.37 478.55 61.82"/></g><polygon class="cls-8" points="106.58 132.21 100.88 124.2 97.34 128.96 102.6 137.16 106.58 132.21"/><polygon class="cls-12" points="86.08 19.2 74.88 13.28 69.38 20.49 79.6 26.98 86.08 19.2"/><polygon class="cls-11" points="37.85 45.65 31.27 49.64 32.42 54.78 39.32 51.02 37.85 45.65"/><polygon class="cls-10" points="273.08 40.25 273.72 33.84 270 33.42 269.34 39.48 273.08 40.25"/><polygon class="cls-10" points="547.72 117.68 544.27 123.02 546.88 124.86 550.58 119.32 547.72 117.68"/><polygon class="cls-10" points="125.53 138.51 120.65 135.22 117.6 140.36 122.13 143.95 125.53 138.51"/><polygon class="cls-8" points="316.52 49.83 313.3 47.43 311 51.77 314.02 54.38 316.52 49.83"/><polygon class="cls-8" points="198.42 97.82 192.72 89.81 189.19 94.57 194.44 102.77 198.42 97.82"/><polygon class="cls-12" points="343.63 128.52 332.43 122.61 326.93 129.81 337.15 136.3 343.63 128.52"/><polygon class="cls-11" points="406.24 24.27 399.65 28.26 400.81 33.4 407.71 29.64 406.24 24.27"/><g class="cls-14"><polygon class="cls-10" points="109.26 22.37 103.01 21.48 105.26 11.29 112.1 12.3 109.26 22.37"/><polygon class="cls-10" points="48.96 28.44 51.77 21.96 56.87 29.12 53.92 34.82 48.96 28.44"/><polygon class="cls-10" points="84.59 48.94 82.28 42.67 86.6 39.45 88.71 46.17 84.59 48.94"/><polygon class="cls-8" points="59.41 18.8 55.96 8.55 61.3 2.9 64.45 14.13 59.41 18.8"/><polygon class="cls-8" points="115.31 72.55 115.04 67.06 120.3 64.31 120.24 70.16 115.31 72.55"/><polygon class="cls-12" points="87.28 70.21 85.7 66.65 88.98 64.98 90.44 68.72 87.28 70.21"/><polygon class="cls-11" points="67.06 52.73 67.68 46.82 72.02 48.92 71.11 54.58 67.06 52.73"/></g><polygon class="cls-10" points="612.53 112.35 608.54 107.45 617.11 101.49 621.45 106.88 612.53 112.35"/><polygon class="cls-10" points="581.57 97.1 588.03 94.24 586.92 102.96 580.89 105.15 581.57 97.1"/><polygon class="cls-10" points="564.2 218.11 566.76 211.93 572.12 212.5 569.11 218.87 564.2 218.11"/><polygon class="cls-8" points="597.28 144.01 601.7 134.13 609.45 133.61 604.14 144 597.28 144.01"/><polygon class="cls-8" points="617.44 175.94 620.96 171.72 626.7 173.26 622.68 177.53 617.44 175.94"/><polygon class="cls-12" points="591.45 175.11 592.7 171.42 596.25 172.42 594.78 176.16 591.45 175.11"/><polygon class="cls-11" points="578.38 127.22 582.85 123.3 584.62 127.78 580.1 131.32 578.38 127.22"/><polygon class="cls-10" points="298.2 42.46 303.86 45.54 302.11 48.85 296.74 45.98 298.2 42.46"/><polygon class="cls-10" points="368.64 136.08 362.29 135.93 362.23 132.74 368.89 132.8 368.64 136.08"/><polygon class="cls-10" points="343.7 24.23 343.69 30.11 337.72 29.75 337.3 23.97 343.7 24.23"/><polygon class="cls-8" points="321.45 19.5 321.62 23.5 316.73 22.97 316.27 19.01 321.45 19.5"/><polygon class="cls-8" points="281.66 9.71 285.08 18.93 279.15 19.18 275.32 10.22 281.66 9.71"/><polygon class="cls-12" points="361.5 7.35 360.09 19.94 351.05 20.43 351.43 8.33 361.5 7.35"/><polygon class="cls-11" points="309.54 135.87 302.54 139.07 298.94 135.23 305.92 131.63 309.54 135.87"/><polygon class="cls-10" points="383.08 24.65 377.03 26.86 375.7 23.36 381.4 21.22 383.08 24.65"/><polygon class="cls-10" points="353.71 82.83 358.02 78.17 360.46 80.23 356.01 85.19 353.71 82.83"/><polygon class="cls-10" points="422.85 139.37 418.44 135.47 422.66 131.23 427.27 134.73 422.85 139.37"/><polygon class="cls-8" points="380.63 69.71 377.51 67.19 381.14 63.87 384.41 66.15 380.63 69.71"/><polygon class="cls-8" points="431.62 36.85 422.44 33.32 426.18 28.71 435.42 31.76 431.62 36.85"/><polygon class="cls-12" points="437.37 95.16 428.85 85.78 434.46 78.66 443.29 86.95 437.37 95.16"/><polygon class="cls-11" points="365.4 96.5 367.63 89.13 372.9 88.97 370.98 96.59 365.4 96.5"/><polygon class="cls-10" points="421.38 14.49 418.87 8.55 422.3 7.05 424.72 12.64 421.38 14.49"/><polygon class="cls-10" points="33.99 108.65 38.86 112.72 36.93 115.25 31.75 111.06 33.99 108.65"/><polygon class="cls-15" points="456.43 41.56 460.1 36.97 464.54 40.97 461.28 45.75 456.43 41.56"/><polygon class="cls-8" points="385.27 11.67 387.63 8.43 391.13 11.89 389.01 15.28 385.27 11.67"/><polygon class="cls-8" points="508.79 122.89 510.98 132.48 505.07 131.95 502.44 122.57 508.79 122.89"/><polygon class="cls-12" points="555.32 88.76 558 101.14 549.58 104.49 546.09 92.9 555.32 88.76"/><polygon class="cls-11" points="7.88 112.72 15.36 114.57 15.78 119.82 8.07 118.28 7.88 112.72"/><polygon class="cls-10" points="452.16 77.02 454.71 70.84 460.08 71.41 457.06 77.78 452.16 77.02"/><polygon class="cls-8" points="555.77 172.33 559.29 168.11 565.02 169.66 561.01 173.92 555.77 172.33"/><polygon class="cls-12" points="563.55 147.2 564.8 143.52 568.35 144.52 566.89 148.25 563.55 147.2"/><polygon class="cls-11" points="324.11 9.23 328.59 5.32 330.35 9.8 325.84 13.34 324.11 9.23"/><path class="cls-16" d="M176,.93l-2.75,2.92A29.54,29.54,0,0,0,175.13,0h3.52A29.55,29.55,0,0,1,177,3.73Z"/><path class="cls-16" d="M123.06,42.37,117,45.95l2.61,1.72q-3.95,1.83-8,3.55l.42-3.77Q117.67,45,123.06,42.37Z"/><path class="cls-16" d="M67.51,62.14q5.73-1.34,11.58-3l2.72,2.66Q77.54,63,73.32,64.12l.94-3Z"/><path class="cls-16" d="M28.44,67.29q2.71,0,5.58-.16t5.9-.42l2.15,3.11c-2.69.27-5.33.48-7.89.6l-.94,0,1.55-2.35Z"/><path class="cls-16" d="M152.28,25q1.85-1.36,3.57-2.73L152,26.38l2.8.87-.56.41Q151,30,147.44,32.38l-.3-3.77Q149.8,26.82,152.28,25Z"/><path class="cls-16" d="M.14,63.56,1,66.11l-1-.46V61.92a29.69,29.69,0,0,0,5.12,2.3Z"/><path class="cls-9" d="M72.74,66l.57-1.83.94-3-6.75,1a202.69,202.69,0,0,1-27.58,4.57l2.15,3.11L43.56,72a112,112,0,0,0,14.81-1.74A56.43,56.43,0,0,0,72.74,66Z"/><path class="cls-17" d="M72.74,66a56.43,56.43,0,0,1-14.37,4.27A112,112,0,0,1,43.56,72L62.37,99.14Z"/><path class="cls-18" d="M16.3,72.59A45,45,0,0,1,1.93,68.9L12.8,101.33,32.12,72.17A93.81,93.81,0,0,1,16.3,72.59Z"/><path class="cls-8" d="M34.8,68.12l-6.36-.84L5.12,64.22l-5-.66L1,66.11l.94,2.8A45,45,0,0,0,16.3,72.59a93.81,93.81,0,0,0,15.82-.42l1.13-1.7Z"/><path class="cls-7" d="M111.38,53a80.37,80.37,0,0,1-12.12,5.39c-6.11,2.18-12.86,4-16,4.87L107.55,87Z"/><path class="cls-5" d="M111.38,53l.2-1.76.42-3.77v0L79.07,59.14h0l2.72,2.66,1.47,1.43c3.13-.83,9.88-2.69,16-4.87A80.37,80.37,0,0,0,111.38,53Z"/><path class="cls-11" d="M147.6,34.39l-.16-2-.3-3.77a203.47,203.47,0,0,1-24.08,13.76L117,45.95l2.61,1.72,2.92,1.92A99.83,99.83,0,0,0,136.59,43C143.55,39,146.75,35.44,147.6,34.39Z"/><path class="cls-19" d="M147.6,34.39c-.85,1-4.05,4.59-11,8.57a99.83,99.83,0,0,1-14.07,6.63l27.73,18.3Z"/><path class="cls-6" d="M169.19,16.89a97,97,0,0,0,8.43-11.56l-.6-1.6L176,.93l-2.75,2.92L155.85,22.28,152,26.38l2.8.87,2.4.75A125.24,125.24,0,0,0,169.19,16.89Z"/><path class="cls-20" d="M177.62,5.33a97,97,0,0,1-8.43,11.56,125.24,125.24,0,0,1-12,11.11L190,38.2Z"/><path class="cls-16" d="M464,.93l2.75,2.92A29.54,29.54,0,0,1,464.87,0h-3.52A29.55,29.55,0,0,0,463,3.73Z"/><path class="cls-16" d="M516.94,42.37,523,45.95l-2.61,1.72q3.95,1.83,8,3.55L528,47.45Q522.33,45,516.94,42.37Z"/><path class="cls-16" d="M572.49,62.14q-5.73-1.34-11.58-3l-2.72,2.66q4.26,1.24,8.48,2.32l-.94-3Z"/><path class="cls-16" d="M611.56,67.29q-2.71,0-5.58-.16t-5.9-.42l-2.15,3.11c2.69.27,5.33.48,7.89.6l.94,0-1.55-2.35Z"/><path class="cls-16" d="M487.72,25q-1.85-1.36-3.57-2.73l3.86,4.1-2.8.87.56.41Q489,30,492.56,32.38l.3-3.77Q490.2,26.82,487.72,25Z"/><path class="cls-16" d="M639.86,63.56,639,66.11l1-.46V61.92a29.69,29.69,0,0,1-5.12,2.3Z"/><path class="cls-9" d="M567.26,66l-.57-1.83-.94-3,6.75,1a202.69,202.69,0,0,0,27.58,4.57l-2.15,3.11L596.44,72a112,112,0,0,1-14.81-1.74A56.43,56.43,0,0,1,567.26,66Z"/><path class="cls-17" d="M567.26,66a56.43,56.43,0,0,0,14.37,4.27A112,112,0,0,0,596.44,72L577.63,99.14Z"/><path class="cls-18" d="M623.7,72.59a45,45,0,0,0,14.37-3.69L627.2,101.33,607.88,72.17A93.81,93.81,0,0,0,623.7,72.59Z"/><path class="cls-8" d="M605.2,68.12l6.36-.84,23.32-3.07,5-.66L639,66.11l-.94,2.8a45,45,0,0,1-14.37,3.69,93.81,93.81,0,0,1-15.82-.42l-1.13-1.7Z"/><path class="cls-7" d="M528.62,53a80.37,80.37,0,0,0,12.12,5.39c6.11,2.18,12.86,4,16,4.87L532.45,87Z"/><path class="cls-5" d="M528.62,53l-.2-1.76L528,47.45v0l32.93,11.73h0l-2.72,2.66-1.47,1.43c-3.13-.83-9.88-2.69-16-4.87A80.37,80.37,0,0,1,528.62,53Z"/><path class="cls-11" d="M492.4,34.39l.16-2,.3-3.77a203.47,203.47,0,0,0,24.08,13.76L523,45.95l-2.61,1.72-2.92,1.92A99.83,99.83,0,0,1,503.41,43C496.45,39,493.25,35.44,492.4,34.39Z"/><path class="cls-19" d="M492.4,34.39c.85,1,4.05,4.59,11,8.57a99.83,99.83,0,0,0,14.07,6.63l-27.73,18.3Z"/><path class="cls-6" d="M470.81,16.89a97,97,0,0,1-8.43-11.56l.6-1.6L464,.93l2.75,2.92,17.36,18.43,3.86,4.1-2.8.87-2.4.75A125.24,125.24,0,0,1,470.81,16.89Z"/><path class="cls-20" d="M462.38,5.33a97,97,0,0,0,8.43,11.56,125.24,125.24,0,0,0,12,11.11L450,38.2Z"/><polygon class="cls-12" points="207.38 85.63 207.38 85.63 207.38 85.63 207.38 85.63"/><path class="cls-21" d="M492.3,98.9a14.76,14.76,0,0,0-3.37-4.54c.06-.08.13-.15.18-.23a14.77,14.77,0,0,0,2-12.58,34.49,34.49,0,0,0-17.48-21,33.92,33.92,0,0,0-15.33-3.67,34.74,34.74,0,0,0-29.86,16.78,34.42,34.42,0,0,0-14-13.11,33.9,33.9,0,0,0-15.33-3.66,34.74,34.74,0,0,0-29.87,16.78,34.42,34.42,0,0,0-14-13.11A33.9,33.9,0,0,0,340,56.89a35.41,35.41,0,0,0-24.55,10c-.39.38-.73.8-1.1,1.2l-.66-7.53a14.78,14.78,0,0,0-14.72-13.49q-.65,0-1.29.06A14.77,14.77,0,0,0,288,51.91c-.18.2-.35.41-.52.62a14.75,14.75,0,0,0-9.64-3.6q-.65,0-1.31.06a14.79,14.79,0,0,0-13.49,14.72c0,.41,0,.83.05,1.24a35.61,35.61,0,0,0-47.5,3,36.45,36.45,0,0,0-9.49,17.23,14.88,14.88,0,0,0-2.79-.58,14.74,14.74,0,0,0,2.5-3.32h0A14.78,14.78,0,0,0,200,61.24a37.65,37.65,0,0,0-18.18-4.64A39.37,39.37,0,0,0,168.39,59c-15.3,5.59-25.17,19.68-25.2,34.91a34.59,34.59,0,0,0,9.7,24,35.89,35.89,0,0,0,12,8.14A37.87,37.87,0,0,0,179.53,129,39.33,39.33,0,0,0,193,126.58a38.92,38.92,0,0,0,17.89-13.23,36.32,36.32,0,0,0,4.73,6,35.64,35.64,0,0,0,50.92,0c.43-.43.81-.9,1.22-1.36l.21,2.37a14.79,14.79,0,0,0,14.72,13.5c.45,0,.88,0,1.28-.06h0a14.77,14.77,0,0,0,9.64-4.77c.18-.2.35-.41.52-.62a14.76,14.76,0,0,0,9.64,3.6c.45,0,.88,0,1.28-.06h0a14.73,14.73,0,0,0,12.61-9.72c.77.65,1.56,1.27,2.37,1.85a34.92,34.92,0,0,0,20.2,6.37,37.69,37.69,0,0,0,12.9-2.32,43.22,43.22,0,0,0,10.42-5.56,43.83,43.83,0,0,0,7.38-6.74,35,35,0,0,0,28.5,14.61,37.62,37.62,0,0,0,12.87-2.31,43.22,43.22,0,0,0,10.42-5.56,43.82,43.82,0,0,0,7.38-6.74,35,35,0,0,0,28.5,14.61,37.63,37.63,0,0,0,12.87-2.31,44.08,44.08,0,0,0,19-13.7A14.79,14.79,0,0,0,492.3,98.9ZM193.47,73.14h0Zm155.7-.46h0ZM361.52,106h0Z"/><polygon class="cls-21" points="276.55 48.99 276.56 48.99 276.56 48.99 276.55 48.99"/><polygon class="cls-21" points="313.65 60.4 313.67 60.58 313.67 60.58 313.65 60.4"/><path class="cls-22" d="M204.43,93.05a6.8,6.8,0,0,1,3.8,8.82,30.38,30.38,0,0,1-18,17.2,31.36,31.36,0,0,1-10.72,1.9A29.87,29.87,0,0,1,168,118.66a26.92,26.92,0,0,1-15.18-15.72c-5.29-14.5,3-30.84,18.33-36.43a30.37,30.37,0,0,1,25.05,1.74,6.79,6.79,0,0,1-6.56,11.9,16.74,16.74,0,0,0-13.84-.88c-8.35,3-12.94,11.58-10.23,19a13.52,13.52,0,0,0,7.67,7.83,17.42,17.42,0,0,0,22.4-9.28A6.78,6.78,0,0,1,204.43,93.05Z"/><path class="cls-9" d="M340.25,122.43c-11.38,0-21.59-6.91-25.81-18.51a31,31,0,0,1,.22-21.66,27,27,0,0,1,16.07-15.74,26.16,26.16,0,0,1,21,1.15,26.5,26.5,0,0,1,13.42,16.13,6.79,6.79,0,0,1-4.19,8.3l-31.38,11.42c3.72,4.78,9.94,6.59,16.24,4.3a22.44,22.44,0,0,0,9.49-6.84,6.79,6.79,0,1,1,10.64,8.45,36.09,36.09,0,0,1-15.48,11.16A29.69,29.69,0,0,1,340.25,122.43Zm-.3-44a13.35,13.35,0,0,0-4.57.82,13.5,13.5,0,0,0-8.08,8,16.11,16.11,0,0,0-.84,2.94l22.28-8.11a12.74,12.74,0,0,0-3.17-2.28A12.39,12.39,0,0,0,340,78.48Z"/><path class="cls-23" d="M399.46,122.43a27,27,0,0,1-11.72-2.65,28,28,0,0,1-14.12-15.85,31,31,0,0,1,.22-21.66,27,27,0,0,1,16.07-15.74,26.16,26.16,0,0,1,21,1.15,26.5,26.5,0,0,1,13.42,16.13,6.79,6.79,0,0,1-4.19,8.3l-31.38,11.42a13.74,13.74,0,0,0,4.91,4,14.33,14.33,0,0,0,11.33.3,22.44,22.44,0,0,0,9.49-6.84,6.79,6.79,0,0,1,10.64,8.45A36.09,36.09,0,0,1,409.6,120.6,29.63,29.63,0,0,1,399.46,122.43Zm-.33-44a13.35,13.35,0,0,0-4.57.82,13.5,13.5,0,0,0-8.08,8,16.11,16.11,0,0,0-.84,2.94l22.28-8.11a12.74,12.74,0,0,0-3.17-2.28A12.39,12.39,0,0,0,399.13,78.48Z"/><path class="cls-24" d="M458.64,122.43a27,27,0,0,1-11.72-2.65,28,28,0,0,1-14.12-15.85A31,31,0,0,1,433,82.27a27,27,0,0,1,16.07-15.74,26.16,26.16,0,0,1,21,1.15,26.51,26.51,0,0,1,13.42,16.13,6.79,6.79,0,0,1-4.19,8.3l-31.38,11.42a13.74,13.74,0,0,0,4.91,4,14.33,14.33,0,0,0,11.33.3,22.44,22.44,0,0,0,9.49-6.84,6.79,6.79,0,1,1,10.64,8.45,36.09,36.09,0,0,1-15.48,11.16A29.63,29.63,0,0,1,458.64,122.43Zm-.33-44a13.33,13.33,0,0,0-4.57.82,13.5,13.5,0,0,0-8.08,8,16.11,16.11,0,0,0-.84,2.94l22.28-8.11a12.74,12.74,0,0,0-3.17-2.28A12.39,12.39,0,0,0,458.31,78.48Z"/><path class="cls-12" d="M241.08,122a28.37,28.37,0,1,1,28-28.37A28.21,28.21,0,0,1,241.08,122Zm0-43.16a14.79,14.79,0,1,0,14.39,14.78A14.61,14.61,0,0,0,241.08,78.87Z"/><path class="cls-25" d="M277.26,57a6.79,6.79,0,0,0-6.17,7.36l4,45.28,13.21-4.95-3.63-41.52A6.79,6.79,0,0,0,277.26,57Z"/><path class="cls-9" d="M275.92,119.64a6.79,6.79,0,0,0,6.76,6.2l.6,0a6.79,6.79,0,0,0,6.17-7.36l-1.21-13.82L275,109.59Z"/><path class="cls-9" d="M295.62,101.88,297,117.8a6.79,6.79,0,0,0,6.76,6.2l.6,0a6.79,6.79,0,0,0,6.17-7.36l-1.72-19.68Z"/><path class="cls-25" d="M305.71,61.28a6.79,6.79,0,1,0-13.53,1.18l3.45,39.41,13.21-4.95Z"/><path class="cls-21" d="M41.51,190.62a12.13,12.13,0,0,1-11.18-7l0-.09a14.58,14.58,0,0,1-1.38-6,12.48,12.48,0,0,1,1.21-5.43C24.25,170.83,20,166,20,160.15V138.28c0-6.86,5.82-12.23,13.24-12.23,5.94,0,10.85,3.44,12.58,8.32,1.55-5.17,6.6-8.86,12.75-8.86,7.43,0,13.24,5.37,13.24,12.23v16.11c0,11.38-1,18.37-6.28,25-3.3,4.15-8.71,7.67-15.21,9.91l-.13,0A32,32,0,0,1,41.51,190.62Z"/><path class="cls-21" d="M113.67,186.4H72.5c-6.68,0-11.91-5.61-11.91-12.76s5.23-12.76,11.91-12.76h41.17c6.68,0,11.91,5.61,11.91,12.76S120.35,186.4,113.67,186.4Zm-5.23-28.48H77.73c-6.68,0-11.91-5.58-11.91-12.71S71,132.5,77.73,132.5h30.72c6.68,0,11.91,5.58,11.91,12.71S115.12,157.93,108.44,157.93Z"/><path class="cls-21" d="M159.78,188.48h-33.6c-6.47,0-11.54-5.35-11.54-12.18s5.07-12.12,11.54-12.12h11.34l.16-1.46h-6.91c-6.55,0-11.48-5.21-11.48-12.12s5-12.07,11.48-12.07h17.39c14,0,15.48,9.75,15.48,13.94,0,1.94-.46,7-1,12.07a11.88,11.88,0,0,1,8.68,11.77C171.32,183.13,166.25,188.48,159.78,188.48Z"/><path class="cls-21" d="M202.73,170.78H168.19c-6.44,0-11.48-5.65-11.48-12.87s5-12.82,11.48-12.82h34.54c6.44,0,11.48,5.61,11.48,12.76C214.21,165.22,209.28,170.78,202.73,170.78Z"/><path class="cls-21" d="M212.68,190c-7,0-12.87-6.06-12.87-13.24a12.22,12.22,0,0,1,4.83-9.83,15.53,15.53,0,0,1,2.9-1.73,7.57,7.57,0,0,0,2.41-2.8c.14-.46.68-2.51.68-7.45v-.36H205.9c-6.56,0-11.7-5.47-11.7-12.44s5.14-12.44,11.7-12.44h35.94c3.72,0,7.37.29,11.07,3.84a13.36,13.36,0,0,1,4.2,10c0,3.69-1.57,7.8-2.89,10.59-3,6.6-11.09,17.13-19.87,17.52a28.3,28.3,0,0,1-2.88,6.07C228.21,182.89,220.24,190,212.68,190Zm-.83-16.8h0Zm24.53-11.42.29.4.07-.06-.35-.47Z"/><path class="cls-21" d="M277.16,188.48a14.39,14.39,0,0,1-12.21-6.61,31.19,31.19,0,0,1-4.38,3.84,12.73,12.73,0,0,1-7.67,2.56,13.7,13.7,0,0,1-13.3-13.4c0-6,3.8-9,5.83-10.65s3.39-2.74,3.18-17.39V140c0-6.8,5.72-12.12,13-12.12a14.06,14.06,0,0,1,5.71,1.18,13.67,13.67,0,0,1,8.26-2.68c7.31,0,13,5.33,13,12.12v4.65a13.13,13.13,0,0,1,18,11.67c0,2.57-1.06,6.12-3.16,10.55a49.7,49.7,0,0,1-16.8,19.93A16.39,16.39,0,0,1,277.16,188.48Z"/><path class="cls-21" d="M327.84,191.31c-6.48,0-11.71-4.17-12.7-10.15l-.77-4.47-9.86.78a11.74,11.74,0,0,1-8.95-3.12,13.17,13.17,0,0,1-4.05-9.67,12.89,12.89,0,0,1,3.85-9.42,13.18,13.18,0,0,1-2-7c0-6.75,4.62-12,11-12.57l3.63-.27c1-5.88,6.36-10.1,13.23-10.1,5.91,0,10.62,3.22,12.34,8.22l6.93-.51a11.85,11.85,0,0,1,9,3.16,12.86,12.86,0,0,1,4,9.42,13.23,13.23,0,0,1-1.36,5.94q.35.28.67.58a12.94,12.94,0,0,1,4,9.48c0,6.78-4.68,12.07-11.14,12.58l-4.91.39.36,2.13a13.79,13.79,0,0,1,.17,2.07C341.3,185.91,335.51,191.31,327.84,191.31Zm3.94-13v0Z"/><path class="cls-21" d="M372.71,191.31a11.85,11.85,0,0,1-11.93-9.61l-2.37-12.27a12.73,12.73,0,0,1-1.44.06c-6.56,0-11.7-5.47-11.7-12.44a11.61,11.61,0,0,1,8.8-11.59c.13-6.51,5.83-11.58,13.08-11.58a11.86,11.86,0,0,1,11.48,7.56l6.65-1.09a21.24,21.24,0,0,1,3.79-.34c7.83,0,13.3,5.07,13.3,12.34,0,5.61-3.83,14.45-6.56,18.94l-.06.1c-2,3.23-4.49,7.17-9.91,7.89C385.81,186,380.06,191.31,372.71,191.31Zm4.65-12.81v0Z"/><path class="cls-21" d="M403.64,189c-6.89,0-12.28-5.7-12.28-13a13.06,13.06,0,0,1,5.35-10.66l.34-.23c2.35-1.51,3.87-1.71,7.18-2.13,6-.73,10.34-2,13.56-4.3a12.78,12.78,0,0,1-2,.16,13.8,13.8,0,0,1-5.85-1.36,74.23,74.23,0,0,0-10.51-3.43l-.25-.06a12.11,12.11,0,0,1-9-12,12.48,12.48,0,0,1,12.66-12.87c4.26,0,14.06,3.37,15.32,3.81a33.73,33.73,0,0,1,3.32,1.36,12.69,12.69,0,0,1,5.93,5.94,12.33,12.33,0,0,1,10.8-5.79,12.68,12.68,0,0,1,13,12.66c0,4.62-3.85,15-5.86,18.83-4.76,9.33-12.14,15.68-22.53,19.37a66.85,66.85,0,0,1-15,3.31C406.43,188.81,404.56,189,403.64,189Zm38.83-41.62,0,.07Z"/><path class="cls-21" d="M486.49,187.74c-5.86,0-9.62-4-13.26-7.9a112.59,112.59,0,0,1-9.32-11.45,88.08,88.08,0,0,1-4.75,8,12.49,12.49,0,0,1-10.75,6c-7.51,0-14.1-6.21-14.1-13.3,0-4.05,1.6-6.23,3.46-8.75a114.06,114.06,0,0,0,10.53-18.92c2.65-6.14,8-9.84,14.24-9.84a14.48,14.48,0,0,1,8.49,2.59,15,15,0,1,1,17.82,23.06,94,94,0,0,0,6.91,7.18,12,12,0,0,1,4.29,9.31C500.05,181.17,493.72,187.74,486.49,187.74Z"/><path class="cls-21" d="M529.12,170.78H494.58c-6.44,0-11.48-5.65-11.48-12.87s5-12.82,11.48-12.82h34.54c6.44,0,11.48,5.61,11.48,12.76C540.6,165.22,535.66,170.78,529.12,170.78Z"/><path class="cls-21" d="M537,189c-6.89,0-12.28-5.7-12.28-13a13.06,13.06,0,0,1,5.35-10.66l.34-.23c2.35-1.51,3.87-1.71,7.18-2.13,6-.73,10.34-2,13.56-4.3a12.78,12.78,0,0,1-2,.16,13.8,13.8,0,0,1-5.85-1.36,74.23,74.23,0,0,0-10.51-3.43l-.25-.06a12.11,12.11,0,0,1-9-12,12.48,12.48,0,0,1,12.66-12.87c4.26,0,14.06,3.37,15.32,3.81a33.73,33.73,0,0,1,3.32,1.36,12.69,12.69,0,0,1,5.93,5.94,12.33,12.33,0,0,1,10.8-5.79,12.68,12.68,0,0,1,13,12.66c0,4.62-3.85,15-5.86,18.83-4.76,9.33-12.14,15.68-22.53,19.37a66.85,66.85,0,0,1-15,3.31C539.81,188.81,537.94,189,537,189Zm38.83-41.62,0,.07Z"/><path class="cls-21" d="M587.23,189.44a14,14,0,0,1-11.51-22.08,12.9,12.9,0,0,1-.75-3.49l-1.57-23.14,0-1.27c.47-6.85,6.27-11.82,13.81-11.82,7.88,0,13.83,5.46,13.83,12.71l0,1-1.55,22.56a12.92,12.92,0,0,1-.75,3.5,14,14,0,0,1-11.51,22.08Zm-2.78-14.67a3.08,3.08,0,0,0-.06.63,2.84,2.84,0,0,0,5.69,0,3.09,3.09,0,0,0-.06-.63A14.34,14.34,0,0,1,584.45,174.77Z"/><path class="cls-21" d="M606,189.44a14,14,0,0,1-11.51-22.08,12.9,12.9,0,0,1-.75-3.49l-1.57-23.14,0-1.27c.47-6.85,6.27-11.82,13.81-11.82,7.88,0,13.83,5.46,13.83,12.71l0,1-1.55,22.56a12.92,12.92,0,0,1-.75,3.5A14,14,0,0,1,606,189.44Zm-2.78-14.67a3.08,3.08,0,0,0-.06.63,2.84,2.84,0,0,0,5.69,0,3.09,3.09,0,0,0-.06-.63A14.34,14.34,0,0,1,603.18,174.77Z"/><path class="cls-12" d="M38,160.15c0,2.24-2,3.84-4.8,3.84s-4.8-1.6-4.8-3.84V138.28c0-2.13,2.08-3.79,4.8-3.79s4.8,1.6,4.8,3.79Zm25.33-6.29c0,11-1,15.47-4.43,19.73-2.29,2.88-6.4,5.49-11.36,7.2a25.48,25.48,0,0,1-6.08,1.39A3.71,3.71,0,0,1,37.94,180a6.1,6.1,0,0,1-.59-2.45,3.89,3.89,0,0,1,2.29-3.63,7.93,7.93,0,0,1,2.4-.85c4.75-1.33,8.16-3.47,9.65-6,1.76-3,2.08-5.12,2.08-13.12V137.75c0-2.13,2.08-3.79,4.8-3.79s4.8,1.6,4.8,3.79Z"/><path class="cls-12" d="M113.67,169.32c2,0,3.47,1.81,3.47,4.32s-1.49,4.32-3.47,4.32H72.5c-2,0-3.47-1.81-3.47-4.32s1.44-4.32,3.47-4.32Zm-5.23-28.37c2,0,3.47,1.81,3.47,4.27s-1.44,4.27-3.47,4.27H77.73c-2,0-3.47-1.81-3.47-4.27s1.44-4.27,3.47-4.27Z"/><path class="cls-12" d="M159.78,172.63c1.76,0,3.09,1.55,3.09,3.68s-1.28,3.73-3.09,3.73h-33.6c-1.81,0-3.09-1.55-3.09-3.73s1.28-3.68,3.09-3.68H145c.8-6.08,1.76-15.09,1.76-16.91,0-1.12-.43-1.44-1.87-1.44H130.77c-1.81,0-3-1.49-3-3.68s1.28-3.63,3-3.63h17.39c5.17,0,7,1.49,7,5.49,0,2.19-1,11.79-2,20.16Z"/><path class="cls-12" d="M202.73,153.53c1.72,0,3,1.87,3,4.32s-1.27,4.48-3,4.48H168.19c-1.72,0-3-1.87-3-4.43s1.31-4.37,3-4.37Z"/><path class="cls-12" d="M241.85,138.18c3,0,3.95.27,5.23,1.49a5,5,0,0,1,1.6,3.95,18.78,18.78,0,0,1-2.08,7c-3,6.51-9.23,12.69-12.75,12.69-2.08,0-4.16-2.29-4.16-4.53a4.2,4.2,0,0,1,2.13-3.47,16.61,16.61,0,0,0,6-7,6.24,6.24,0,0,0,.53-1.6c0-.37-.27-.48-1.12-.48H205.9c-1.87,0-3.25-1.71-3.25-4s1.39-4,3.25-4ZM228.25,155c0,8.16-1.28,14.13-3.89,18.24s-8.48,8.32-11.68,8.32a4.83,4.83,0,0,1-4.43-4.8,3.79,3.79,0,0,1,1.55-3.15,9.58,9.58,0,0,1,1.81-1,15.69,15.69,0,0,0,6-6.56c1-2.08,1.49-5.92,1.49-11.09V153.8c0-2.08,2-3.68,4.59-3.68s4.59,1.55,4.59,3.68Z"/><path class="cls-12" d="M266.23,146.71v1.65c-.05,11.31-.59,15.47-2.72,20.43a23.33,23.33,0,0,1-7.89,10.08,4.35,4.35,0,0,1-2.72,1,5.32,5.32,0,0,1-4.85-5c0-1.55.53-2.35,2.67-4.05,5.28-4.27,6.56-9.12,6.35-24.1V140c0-2.08,2-3.68,4.59-3.68s4.59,1.55,4.59,3.68Zm14,19.89c0,.91.11,1.28.37,1.28s.64-.32,1.55-1.28a41.18,41.18,0,0,0,7.73-12.91c.75-2.19,1.76-3,3.68-3a4.42,4.42,0,0,1,4.64,4.16c0,1.17-.91,3.89-2.35,6.93A41.54,41.54,0,0,1,282,178.33a8,8,0,0,1-4.8,1.71,6.09,6.09,0,0,1-6.13-6.35V138.55c0-2.08,2-3.68,4.59-3.68s4.59,1.55,4.59,3.68Z"/><path class="cls-12" d="M316.32,138.23a4.06,4.06,0,0,1-.05-.8c0-2.19,2-3.68,5-3.68,2.51,0,4.21,1.23,4.53,3.25l1,5.49,14.4-1.07c2.24-.16,3.95,1.65,3.95,4.16,0,2.24-1.33,3.89-3.31,4.05l-13.65,1.07,1.33,7.79,15-1.12c2.24-.16,3.95,1.65,3.95,4.21,0,2.35-1.33,4-3.36,4.16l-14.13,1.12,1.87,10.88a7.36,7.36,0,0,1,.11,1c0,2.51-2,4.11-5,4.11-2.4,0-4.05-1.17-4.37-3.09l-2.08-12.11-17.55,1.39c-2.19.16-3.89-1.71-3.89-4.37,0-2.35,1.33-4.05,3.31-4.21L320,159.19l-1.33-7.79-12.91,1c-2.19.16-3.89-1.65-3.89-4.16,0-2.35,1.33-4,3.25-4.16l12.11-.91Z"/><path class="cls-12" d="M362.63,146.71a8.27,8.27,0,0,1-.11-1c0-1.92,2-3.36,4.64-3.36,2,0,3.41,1,3.73,2.67l1.17,6.08,14.67-2.4a12.76,12.76,0,0,1,2.35-.21c3.15,0,4.85,1.39,4.85,3.89,0,3-2.61,10.08-5.33,14.56-2.24,3.57-2.77,4.05-4.59,4.05-2.4,0-4.59-1.87-4.59-4a3.54,3.54,0,0,1,.8-2.13,29.78,29.78,0,0,0,3.68-6.51l.21-.48a3.09,3.09,0,0,0,.27-.91c0-.27-.21-.43-.64-.43a4.77,4.77,0,0,0-1.17.16l-9.12,1.6,3.84,19.94a3.28,3.28,0,0,1,.11,1c0,2.08-2,3.63-4.69,3.63a3.38,3.38,0,0,1-3.63-2.72l-3.95-20.42L357.72,161a2.83,2.83,0,0,1-.75.05c-1.87,0-3.25-1.71-3.25-4a3.21,3.21,0,0,1,2.51-3.41l7.52-1.23Z"/><path class="cls-12" d="M415.38,140.95c.8.27,2,.8,2.35,1a4.32,4.32,0,0,1,2.45,4,4.54,4.54,0,0,1-4.43,4.53,5.68,5.68,0,0,1-2.56-.69,82.07,82.07,0,0,0-11.95-3.89,3.66,3.66,0,0,1-2.67-3.84,4.09,4.09,0,0,1,4.21-4.43C404.39,137.59,410.79,139.3,415.38,140.95Zm27.3,6.19c0,2.24-2.83,10.93-4.91,14.93-3.79,7.41-9.6,12.37-17.86,15.31a58.52,58.52,0,0,1-13.12,2.88c-1.28.16-2.83.32-3.15.32-2.19,0-3.84-2-3.84-4.53a4.66,4.66,0,0,1,1.81-3.79c.75-.48.75-.48,3.68-.85,17.17-2.08,24.9-9,29-25.92.37-1.6,1.87-2.56,3.89-2.56A4.3,4.3,0,0,1,442.68,147.13Z"/><path class="cls-12" d="M462.55,150.92c-3.57,9-6.61,15.09-10.4,20.75a4.13,4.13,0,0,1-3.73,2.24c-2.83,0-5.65-2.4-5.65-4.85,0-1.17.16-1.49,1.81-3.73,3.47-4.64,8.32-13.39,11.47-20.53,1.33-3.09,3.68-4.8,6.51-4.8s4.75,1.33,6.61,4.53c4.05,7.52,13.76,19.57,21,26.18a3.61,3.61,0,0,1,1.44,3c0,2.83-2.56,5.6-5.12,5.6-1.76,0-3.2-1.07-7.09-5.23a126.08,126.08,0,0,1-16.64-23.14Zm26.61-7.31a6.53,6.53,0,1,1-6.51-6.51A6.58,6.58,0,0,1,489.16,143.61Zm-9.49,0a3,3,0,0,0,3,2.93,3,3,0,0,0,2.93-2.93,3,3,0,0,0-5.92,0Z"/><path class="cls-12" d="M529.12,153.53c1.72,0,3,1.87,3,4.32s-1.27,4.48-3,4.48H494.58c-1.72,0-3-1.87-3-4.43s1.32-4.37,3-4.37Z"/><path class="cls-12" d="M548.75,140.95c.8.27,2,.8,2.35,1a4.32,4.32,0,0,1,2.45,4,4.54,4.54,0,0,1-4.43,4.53,5.68,5.68,0,0,1-2.56-.69,82.07,82.07,0,0,0-11.95-3.89A3.66,3.66,0,0,1,532,142a4.09,4.09,0,0,1,4.21-4.43C537.77,137.59,544.17,139.3,548.75,140.95Zm27.3,6.19c0,2.24-2.83,10.93-4.91,14.93-3.79,7.41-9.6,12.37-17.86,15.31a58.52,58.52,0,0,1-13.12,2.88c-1.28.16-2.83.32-3.15.32-2.19,0-3.84-2-3.84-4.53a4.66,4.66,0,0,1,1.81-3.79c.75-.48.75-.48,3.68-.85,17.17-2.08,24.9-9,29-25.92.37-1.6,1.87-2.56,3.89-2.56A4.3,4.3,0,0,1,576.06,147.13Z"/><path class="cls-12" d="M592.83,175.4a5.6,5.6,0,1,1-5.6-5.6A5.67,5.67,0,0,1,592.83,175.4Zm-1.76-12.16c-.16,2.13-1.55,3.36-3.84,3.36s-3.68-1.23-3.84-3.36l-1.55-22.5V140c.16-2.35,2.4-3.95,5.39-3.95,3.15,0,5.39,1.76,5.39,4.27v.37Z"/><path class="cls-12" d="M611.56,175.4a5.6,5.6,0,1,1-5.6-5.6A5.67,5.67,0,0,1,611.56,175.4Zm-1.76-12.16c-.16,2.13-1.55,3.36-3.84,3.36s-3.68-1.23-3.84-3.36l-1.55-22.5V140c.16-2.35,2.4-3.95,5.39-3.95,3.15,0,5.39,1.76,5.39,4.27v.37Z"/></svg>