<svg id="レイヤー_1" data-name="レイヤー 1" xmlns="http://www.w3.org/2000/svg" viewBox="0 0 180 180"><defs><style>.cls-1{fill:#fdf9dc;}.cls-2{fill:#d2ef78;}.cls-3{fill:#ffe46f;}.cls-4{fill:#ffc93e;}.cls-5{fill:#ff836e;}.cls-6{fill:#e45951;}.cls-7{fill:#cb4038;}.cls-8{fill:#ffda72;}.cls-9{fill:#ffa795;}</style></defs><title>img-reviews-desc</title><circle class="cls-1" cx="90" cy="90" r="90"/><path class="cls-2" d="M90,5A85,85,0,1,1,5,90,85.1,85.1,0,0,1,90,5m0-5a90,90,0,1,0,90,90A90,90,0,0,0,90,0Z"/><polygon class="cls-3" points="78.32 121.99 100.23 121.99 100.81 101.22 77.72 101.22 78.32 121.99"/><path class="cls-4" d="M38.43,122l3.28,24.7c.45,3.36,4,6.06,8,6.06h29.5L78.32,122Z"/><path class="cls-4" d="M99.37,152.75h29.89c4,0,7.56-2.7,8-6.06l3.28-24.7H100.23Z"/><polygon class="cls-5" points="78.32 121.99 79.22 152.75 99.37 152.75 100.23 121.99 78.32 121.99"/><polygon class="cls-5" points="100.81 101.22 101.96 72.33 76.53 72.33 77.72 101.22 100.81 101.22"/><polygon class="cls-6" points="100.81 101.22 100.23 121.99 140.54 121.99 143.3 101.22 100.81 101.22"/><polygon class="cls-6" points="77.72 101.22 35.67 101.22 38.43 121.99 78.32 121.99 77.72 101.22"/><polygon class="cls-7" points="77.72 101.22 78.32 121.99 100.23 121.99 100.81 101.22 77.72 101.22"/><path class="cls-4" d="M31.67,66.21a8.85,8.85,0,0,0-.2,3.39l4.2,31.61h42L76.9,73.05H37C33.42,73.05,31.21,70,31.67,66.21Z"/><path class="cls-4" d="M142.23,73.05H101.6l-.79,28.16H143.3l4.2-31.61a9.19,9.19,0,0,0,.06-1.67A5.29,5.29,0,0,1,142.23,73.05Z"/><path class="cls-8" d="M147.36,65.18l-5.87-24.4a8,8,0,0,0-7.38-6h-89a8,8,0,0,0-7.38,6l-5.87,24.4a9,9,0,0,0-.18,1C31.21,70,33.42,73.05,37,73.05H142.23a5.29,5.29,0,0,0,5.34-5.12A8.29,8.29,0,0,0,147.36,65.18Z"/><polygon class="cls-9" points="79.85 34.75 98.94 34.75 101.57 73.05 76.89 73.05 79.85 34.75"/><path class="cls-6" d="M32.88,92.5c-6.55,0-14-1.92-22.88-5.74l7.74-6.68-.58-10c16.35,7,20.2,3.94,23.61,1.24C42.44,70,43.33,68.45,45,65.4a59.36,59.36,0,0,1,7.75-11.31C61.69,44,73.39,41.58,81.14,40c1.06-.22,2.07-.43,3-.65L88.27,57c-1.08.25-2.23.49-3.42.74-6.66,1.39-13.55,2.83-18.47,8.39a42.05,42.05,0,0,0-5.49,8.14c-2,3.58-4.27,7.65-8.82,11.27A29.64,29.64,0,0,1,32.88,92.5Z"/><path class="cls-6" d="M147.12,92.5c6.55,0,14-1.92,22.88-5.74l-7.74-6.68.58-10c-16.35,7-20.2,3.94-23.61,1.24-1.67-1.33-2.57-2.86-4.27-5.91a59.36,59.36,0,0,0-7.75-11.31C118.31,44,106.61,41.58,98.86,40c-1.06-.22-2.07-.43-3-.65L91.73,57c1.08.25,2.23.49,3.42.74,6.66,1.39,13.55,2.83,18.47,8.39a42.05,42.05,0,0,1,5.49,8.14c2,3.58,4.27,7.65,8.82,11.27A29.64,29.64,0,0,0,147.12,92.5Z"/><path class="cls-5" d="M145.57,36.21a14,14,0,0,0-20.09-9.44L98.53,40.06c-2.23,1.1-3.08,5.15-2.14,9.11l.4,1.68a12.8,12.8,0,0,0,2.32,5c-.74-3.84.3-7.33,2.68-8l23.45-6.12c7-1.83,15.59,2.85,18.33,11a14.07,14.07,0,0,0,3-12.48Z"/><path class="cls-5" d="M132.2,55l-29.77,1.45a4.6,4.6,0,0,1-3.5-1.9c0,.42.1.85.18,1.29a5,5,0,0,0,3.7,2.22l30-.29a14.13,14.13,0,0,0,10.71-5A15.89,15.89,0,0,0,142.34,50,14.42,14.42,0,0,1,132.2,55Z"/><path class="cls-6" d="M132.2,55a14.42,14.42,0,0,0,10.14-5c-3.65-6.49-11-9.87-17.1-8.27l-23.45,6.12c-2.12.55-3.17,3.38-2.86,6.66a4.6,4.6,0,0,0,3.5,1.9Z"/><path class="cls-5" d="M34.38,36.21a14,14,0,0,1,20-9.46L81.27,40c2.22,1.1,3.07,5.14,2.12,9.11L83,50.82a12.84,12.84,0,0,1-2.31,5c.74-3.84-.29-7.33-2.66-8l-23.37-6.1c-7-1.82-15.54,2.86-18.28,11a14.09,14.09,0,0,1-3-12.48Z"/><path class="cls-5" d="M47.7,55l29.67,1.43a4.59,4.59,0,0,0,3.49-1.9c0,.42-.1.85-.18,1.29A5,5,0,0,1,77,58l-30-.27a14,14,0,0,1-10.67-5A15.94,15.94,0,0,1,37.59,50,14.33,14.33,0,0,0,47.7,55Z"/><path class="cls-6" d="M47.7,55A14.33,14.33,0,0,1,37.59,50c3.65-6.49,11-9.88,17.05-8.29L78,47.82c2.11.55,3.16,3.38,2.85,6.66a4.59,4.59,0,0,1-3.49,1.9Z"/><rect class="cls-6" x="77.48" y="37.63" width="25.57" height="22.32" rx="8.37" ry="8.37"/></svg>