<svg id="レイヤー_1" data-name="レイヤー 1" xmlns="http://www.w3.org/2000/svg" viewBox="0 0 200 230"><defs><style>.cls-1{fill:#fefadd;}.cls-2{fill:#ffdb37;}.cls-3{fill:#066b74;}.cls-4,.cls-7{fill:#fff;}.cls-4{stroke:#89909f;stroke-miterlimit:10;stroke-width:2px;}.cls-5{fill:#89909f;}.cls-6{fill:#f45934;}</style></defs><title>img_newregist_2</title><rect class="cls-1" x="1.5" y="1.5" width="177" height="227" rx="10.5" ry="10.5"/><path class="cls-2" d="M168,3a9,9,0,0,1,9,9V218a9,9,0,0,1-9,9H12a9,9,0,0,1-9-9V12a9,9,0,0,1,9-9H168m0-3H12A12,12,0,0,0,0,12V218a12,12,0,0,0,12,12H168a12,12,0,0,0,12-12V12A12,12,0,0,0,168,0Z"/><path class="cls-3" d="M39.39,147.41c0-.84,0-2,2-2s2,1.15,2,2h8.48c0-.84,0-2,2-2s2,1.15,2,2h2.72c.84,0,1.32.59,1.32,1.68s-.45,1.65-1.32,1.65H55.82v6.75H59c.9,0,1.4.64,1.4,1.76S59.91,161,59,161H55.91a11.18,11.18,0,0,0,3.36,1.74c1.2.36,1.51.7,1.51,1.57a1.87,1.87,0,0,1-1.74,2.1c-1.2,0-3.39-1.09-5.32-2.69a2.41,2.41,0,0,1,.11.78c0,1-.45,1.57-1.26,1.57H49.83v1.29h8.29c.9,0,1.4.64,1.4,1.74s-.5,1.76-1.4,1.76H37.4c-.9,0-1.4-.62-1.4-1.76s.5-1.74,1.4-1.74h8.34v-1.29h-3c-.84,0-1.29-.56-1.29-1.62a1.45,1.45,0,0,1,.08-.5c-3.42,2.44-4.84,2.63-5.12,2.63a2.11,2.11,0,0,1-1.79-2.21c0-.73.42-1.12,1.62-1.54A12.89,12.89,0,0,0,39.67,161H36.45c-.9,0-1.4-.62-1.4-1.76s.5-1.76,1.4-1.76h2.94v-6.75H36.92c-.87,0-1.32-.59-1.32-1.65s.48-1.68,1.32-1.68Zm13.19,15.51a.61.61,0,0,1,.22,0A11,11,0,0,1,51.09,161H44.54a12.92,12.92,0,0,1-1.74,1.9h2.94c.17-1.06.76-1.51,2-1.51s2,.53,2,1.51Zm-.73-12.18H43.36v.92h8.48Zm0,2.86H43.36v1h8.48Zm0,2.91H43.36v1h8.48Z"/><path class="cls-3" d="M79.74,153.66a26.83,26.83,0,0,0,8,8.54c1.23.78,1.6,1.23,1.6,2a2.49,2.49,0,0,1-2,2.55c-1.34,0-2.49-1-4.54-2.86a3.77,3.77,0,0,1,.14,1c0,1.26-.56,2-1.57,2H77.87v3.47c0,1-.73,1.62-2,1.62s-2-.59-2-1.62v-3.47H70.39c-1,0-1.57-.7-1.57-2a3.77,3.77,0,0,1,.14-1,19.71,19.71,0,0,1-2.66,2.24,2.75,2.75,0,0,1-1.74.62,2,2,0,0,1-2-2.16c0-.92.36-1.48,1.57-2.35A32.22,32.22,0,0,0,71.85,154c.08-.11.14-.22.2-.31H64.51c-1,0-1.6-.7-1.6-2s.59-2,1.6-2h9.27V147c0-1,.73-1.62,2-1.62s2,.59,2,1.62v2.63h9.41c1,0,1.6.73,1.6,2s-.59,2-1.6,2Zm-6,4.34a31.62,31.62,0,0,1-3.86,4.93,1.72,1.72,0,0,1,.48-.08h3.39Zm7.5,4.84a3,3,0,0,1,.5.08A32.06,32.06,0,0,1,77.87,158v4.84Z"/><path class="cls-3" d="M97.62,151.61a1.11,1.11,0,0,1,1.06-.62c.64,0,.92.28,1.09,1a26.85,26.85,0,0,1,.59,3.44c0-1,.36-1.48,1.12-1.48h5.12V153h-4.17c-.59,0-1-.45-1-1.18s.34-1.2,1-1.2h4.17v-.78h-4.7c-.67,0-1-.48-1-1.32s.36-1.34,1-1.34h4.7c0-.73,0-1.82,1.85-1.82s1.82,1.09,1.82,1.82h5.49c.7,0,1.06.48,1.06,1.34s-.39,1.32-1.06,1.32h-5.49v.78h5c.62,0,1,.42,1,1.2s-.36,1.18-1,1.18h-5v.87h5.82c.73,0,1.12.5,1.12,1.4s-.39,1.4-1.12,1.4H101.48c-.59,0-.92-.28-1.09-1a4.25,4.25,0,0,1,0,.59c0,.7-.45,1.06-1.37,1.06-.64,0-1-.34-1.06-1.15s-.25-1.79-.36-2.52v16.07c0,1-.7,1.57-2,1.57s-2-.56-2-1.57v-15.4c-.36,4.84-.48,5.35-1.88,5.35-.9,0-1.46-.45-1.46-1.18,0-.2,0-.45.06-.7.14-1,.34-2.13.39-3.39.11-2.18.17-2.44.36-2.72a1.56,1.56,0,0,1,1.15-.45c.73,0,1.18.22,1.37.67v-5c0-1,.7-1.57,2-1.57s2,.59,2,1.57Zm18.06,16.8c0,2.35-.9,3.19-3.47,3.19s-3.05-.31-3.05-1.71c0-1.06.45-1.71,1.2-1.71.14,0,.81.08,1,.08.7,0,.7-.42.7-1.37h-6.94V170c0,.92-.64,1.43-1.79,1.43s-1.82-.5-1.82-1.43v-9.88c0-2,.59-2.6,2.6-2.6h9c2,0,2.6.59,2.6,2.6ZM112,161.36c0-1,0-1.06-.62-1.06h-5.71c-.62,0-.62.11-.62,1.06Zm0,3.28v-1.06h-6.94v1.06Z"/><path class="cls-3" d="M142.37,155.84q2.18,0,2.18,2a16.87,16.87,0,0,1-.45,3,23.41,23.41,0,0,1-1.88,5.21,12.75,12.75,0,0,0,1.93,1.74c.81.62,1.06,1,1.06,1.51a1.93,1.93,0,0,1-1.85,2c-1,0-1.57-.42-3.11-2.13-.14.2-1.32,1.88-2.6,1.88-.81,0-1.37-.5-1.68-1.46,0,1.09,0,2.18-2,2.18-1.29,0-2-.56-2-1.6v-9.27a1.31,1.31,0,0,1-1.37,1.2H127.4v1.48h2.83c.84,0,1.32.59,1.32,1.68s-.48,1.65-1.32,1.65H127.4v3.3c0,1-.67,1.46-1.82,1.46s-1.85-.5-1.85-1.46v-3.3h-3c-.87,0-1.32-.59-1.32-1.65s.45-1.68,1.32-1.68h3v-1.48h-3.19c-.9,0-1.43-.64-1.43-1.76s.5-1.76,1.43-1.76h1.2c-.22-.78-.53-1.68-.78-2.49-1.12,0-2,0-2-1.74,0-1.12.5-1.74,1.37-1.74h3.44v-1.71H120.9c-.81,0-1.26-.59-1.26-1.6s.45-1.6,1.26-1.6h2.83v-.87c0-.92.67-1.46,1.85-1.46s1.82.53,1.82,1.46v.87h2.66c.81,0,1.29.59,1.29,1.6s-.48,1.6-1.29,1.6H127.4v1.71h3.33a1.23,1.23,0,0,1,1.29,1v-4.7c0-2,.59-2.55,2.69-2.55h7.42c1.76,0,2.41.64,2.41,2.46a23.16,23.16,0,0,1-.28,3.44c-.28,1.85-1,2.46-2.94,2.46-2.52,0-3.08-.31-3.08-1.76,0-1,.39-1.6,1.12-1.6.28,0,.84.06,1.15.06s.39-.36.39-1c0-.36-.06-.53-.48-.53h-3.84c-.48,0-.59.11-.59.62v5.4Zm-15.76,2.72c.22-.67.5-1.68.73-2.49h-2.8c.22.78.48,1.71.64,2.49Zm5.4-3.47a1.28,1.28,0,0,1-1.29,1h-.14c-.22,1-.45,1.68-.7,2.49,1.12,0,2,0,2.13,1.2Zm4,13.58a2.17,2.17,0,0,1,.84-1.23,9.06,9.06,0,0,0,1.23-1.46,18.4,18.4,0,0,1-2.07-6.38Zm3.14-9.52a20,20,0,0,0,.84,3.42,11.73,11.73,0,0,0,.84-3.11c0-.22-.17-.31-.53-.31Z"/><path class="cls-3" d="M75.59,181.4c1.85,0,2.58.67,2.8,2.55.87,7.87,4.17,14.22,9,17.33,1.23.78,1.6,1.26,1.6,2.07A2.61,2.61,0,0,1,86.82,206c-2.52,0-6.92-5.21-8.51-8.18a45.63,45.63,0,0,1-2.16-5,31.44,31.44,0,0,1-4.06,7.78c-2.32,3.16-5.29,5.57-6.86,5.57a2.41,2.41,0,0,1-2.32-2.49c0-.9.28-1.34,1.23-1.9a14.09,14.09,0,0,0,5.07-4.7,29,29,0,0,0,4.54-10.58,3.19,3.19,0,0,0,.14-.81c0-.2-.08-.25-.39-.25H69c-1,0-1.6-.73-1.6-2s.56-2,1.6-2Z"/><path class="cls-3" d="M100.54,185.41c0-.64.06-1.48.08-2.3,0-1.26,0-2.74,2.32-2.74,1.51,0,2.13.56,2.13,2,0,.48,0,1.57-.11,3.08h7.2c2.32,0,3.39.81,3.39,2.58a127.06,127.06,0,0,1-.81,13.44c-.53,3.75-1.46,4.56-5.21,4.56-3.5,0-4.84-.06-4.84-2.27,0-1.34.59-2.07,1.65-2.07.76,0,1.88.2,2.8.2s1.26-.28,1.51-2c.34-2.55.62-7.39.62-9.63,0-.45-.31-.7-.81-.7h-5.74a26,26,0,0,1-1.74,7.59c-2.1,5.32-7.42,9.24-9.63,9.24a2.42,2.42,0,0,1-2.24-2.49c0-1,.64-1.34,2.86-2.77,5.29-3.39,6-8.85,6.33-11.56H93.6c-1.06,0-1.62-.73-1.62-2s.59-2,1.62-2Z"/><path class="cls-2" d="M178.6,93.34v23.32a1.34,1.34,0,0,0,2.19,1l13.48-11.1a2.06,2.06,0,0,0,0-3.19L180.79,92.31A1.34,1.34,0,0,0,178.6,93.34Z"/><rect class="cls-4" x="25.75" y="22.73" width="128.5" height="30" rx="4" ry="4"/><rect class="cls-4" x="25.75" y="62.73" width="128.5" height="30" rx="4" ry="4"/><path class="cls-5" d="M37.09,35.2a.78.78,0,0,1,.36.7.76.76,0,0,1-.84.81,1,1,0,0,1-.31-.06l-3.11-1.2a1.23,1.23,0,0,1-.7-1.06,1.25,1.25,0,0,1,1.29-1.32,1.23,1.23,0,0,1,.64.17ZM36.31,37a.82.82,0,0,1,.28-.06.79.79,0,0,1,.87.81.87.87,0,0,1-.36.7l-2.66,2A1.27,1.27,0,0,1,33,40.38a1.38,1.38,0,0,1-.5-1,1.09,1.09,0,0,1,.7-1.12Zm3.33,5a1.26,1.26,0,1,1-2.52,0l.42-3.28a.85.85,0,0,1,.84-.78.87.87,0,0,1,.84.78Zm-.42-7.11a.84.84,0,0,1-1.68,0l-.42-3.28a1.17,1.17,0,0,1,1.26-1.29,1.21,1.21,0,0,1,1.26,1.29Zm3.11-1.68a1.1,1.1,0,0,1,.64-.17,1.31,1.31,0,0,1,1.29,1.32,1.25,1.25,0,0,1-.7,1.06l-3.11,1.2a1,1,0,0,1-.31.06.78.78,0,0,1-.87-.81.84.84,0,0,1,.39-.7Zm1.23,5a1.16,1.16,0,0,1,.7,1.12,1.59,1.59,0,0,1-.5,1,1.26,1.26,0,0,1-1.43.06l-2.66-2a.84.84,0,0,1-.36-.7.79.79,0,0,1,.87-.81.82.82,0,0,1,.28.06Z"/><path class="cls-5" d="M51.09,35.2a.78.78,0,0,1,.36.7.76.76,0,0,1-.84.81,1,1,0,0,1-.31-.06l-3.11-1.2a1.23,1.23,0,0,1-.7-1.06,1.25,1.25,0,0,1,1.29-1.32,1.23,1.23,0,0,1,.64.17ZM50.31,37a.82.82,0,0,1,.28-.06.79.79,0,0,1,.87.81.87.87,0,0,1-.36.7l-2.66,2A1.27,1.27,0,0,1,47,40.38a1.38,1.38,0,0,1-.5-1,1.09,1.09,0,0,1,.7-1.12Zm2.91-2.1a.84.84,0,0,1-1.68,0l-.42-3.28a1.17,1.17,0,0,1,1.26-1.29,1.21,1.21,0,0,1,1.26,1.29ZM53.64,42a1.26,1.26,0,1,1-2.52,0l.42-3.28a.85.85,0,0,1,.84-.78.87.87,0,0,1,.84.78Zm2.69-8.79a1.1,1.1,0,0,1,.64-.17,1.31,1.31,0,0,1,1.29,1.32,1.25,1.25,0,0,1-.7,1.06l-3.11,1.2a1,1,0,0,1-.31.06.78.78,0,0,1-.87-.81.84.84,0,0,1,.39-.7Zm1.23,5a1.16,1.16,0,0,1,.7,1.12,1.59,1.59,0,0,1-.5,1,1.26,1.26,0,0,1-1.43.06l-2.66-2a.84.84,0,0,1-.36-.7.79.79,0,0,1,.87-.81.82.82,0,0,1,.28.06Z"/><path class="cls-5" d="M65.09,35.2a.78.78,0,0,1,.36.7.76.76,0,0,1-.84.81,1,1,0,0,1-.31-.06l-3.11-1.2a1.23,1.23,0,0,1-.7-1.06,1.25,1.25,0,0,1,1.29-1.32,1.23,1.23,0,0,1,.64.17ZM64.31,37a.82.82,0,0,1,.28-.06.79.79,0,0,1,.87.81.87.87,0,0,1-.36.7l-2.66,2A1.27,1.27,0,0,1,61,40.38a1.38,1.38,0,0,1-.5-1,1.09,1.09,0,0,1,.7-1.12Zm2.91-2.1a.84.84,0,0,1-1.68,0l-.42-3.28a1.17,1.17,0,0,1,1.26-1.29,1.21,1.21,0,0,1,1.26,1.29ZM67.64,42a1.26,1.26,0,1,1-2.52,0l.42-3.28a.85.85,0,0,1,.84-.78.87.87,0,0,1,.84.78Zm2.69-8.79a1.1,1.1,0,0,1,.64-.17,1.31,1.31,0,0,1,1.29,1.32,1.25,1.25,0,0,1-.7,1.06l-3.11,1.2a1,1,0,0,1-.31.06.78.78,0,0,1-.87-.81.84.84,0,0,1,.39-.7Zm1.23,5a1.16,1.16,0,0,1,.7,1.12,1.59,1.59,0,0,1-.5,1,1.26,1.26,0,0,1-1.43.06l-2.66-2a.84.84,0,0,1-.36-.7.79.79,0,0,1,.87-.81.82.82,0,0,1,.28.06Z"/><path class="cls-5" d="M79.09,35.2a.78.78,0,0,1,.36.7.76.76,0,0,1-.84.81,1,1,0,0,1-.31-.06l-3.11-1.2a1.23,1.23,0,0,1-.7-1.06,1.25,1.25,0,0,1,1.29-1.32,1.23,1.23,0,0,1,.64.17ZM78.31,37a.82.82,0,0,1,.28-.06.79.79,0,0,1,.87.81.87.87,0,0,1-.36.7l-2.66,2A1.27,1.27,0,0,1,75,40.38a1.38,1.38,0,0,1-.5-1,1.09,1.09,0,0,1,.7-1.12Zm2.91-2.1a.84.84,0,0,1-1.68,0l-.42-3.28a1.17,1.17,0,0,1,1.26-1.29,1.21,1.21,0,0,1,1.26,1.29ZM81.64,42a1.26,1.26,0,1,1-2.52,0l.42-3.28a.85.85,0,0,1,.84-.78.87.87,0,0,1,.84.78Zm2.69-8.79a1.1,1.1,0,0,1,.64-.17,1.31,1.31,0,0,1,1.29,1.32,1.25,1.25,0,0,1-.7,1.06l-3.11,1.2a1,1,0,0,1-.31.06.78.78,0,0,1-.87-.81.84.84,0,0,1,.39-.7Zm1.23,5a1.16,1.16,0,0,1,.7,1.12,1.59,1.59,0,0,1-.5,1,1.26,1.26,0,0,1-1.43.06l-2.66-2a.84.84,0,0,1-.36-.7.79.79,0,0,1,.87-.81.82.82,0,0,1,.28.06Z"/><path class="cls-5" d="M93.09,35.2a.78.78,0,0,1,.36.7.76.76,0,0,1-.84.81,1,1,0,0,1-.31-.06l-3.11-1.2a1.23,1.23,0,0,1-.7-1.06,1.25,1.25,0,0,1,1.29-1.32,1.23,1.23,0,0,1,.64.17ZM92.31,37a.82.82,0,0,1,.28-.06.79.79,0,0,1,.87.81.87.87,0,0,1-.36.7l-2.66,2A1.27,1.27,0,0,1,89,40.38a1.38,1.38,0,0,1-.5-1,1.09,1.09,0,0,1,.7-1.12Zm3.33,5a1.26,1.26,0,1,1-2.52,0l.42-3.28a.85.85,0,0,1,.84-.78.87.87,0,0,1,.84.78Zm-.42-7.11a.84.84,0,0,1-1.68,0l-.42-3.28a1.17,1.17,0,0,1,1.26-1.29,1.21,1.21,0,0,1,1.26,1.29Zm3.11-1.68a1.1,1.1,0,0,1,.64-.17,1.31,1.31,0,0,1,1.29,1.32,1.25,1.25,0,0,1-.7,1.06l-3.11,1.2a1,1,0,0,1-.31.06.78.78,0,0,1-.87-.81.84.84,0,0,1,.39-.7Zm1.23,5a1.16,1.16,0,0,1,.7,1.12,1.59,1.59,0,0,1-.5,1,1.26,1.26,0,0,1-1.43.06l-2.66-2a.84.84,0,0,1-.36-.7.79.79,0,0,1,.87-.81.82.82,0,0,1,.28.06Z"/><path class="cls-5" d="M107.09,35.2a.78.78,0,0,1,.36.7.76.76,0,0,1-.84.81,1,1,0,0,1-.31-.06l-3.11-1.2a1.23,1.23,0,0,1-.7-1.06,1.25,1.25,0,0,1,1.29-1.32,1.23,1.23,0,0,1,.64.17ZM106.31,37a.82.82,0,0,1,.28-.06.79.79,0,0,1,.87.81.87.87,0,0,1-.36.7l-2.66,2a1.27,1.27,0,0,1-1.43-.06,1.38,1.38,0,0,1-.5-1,1.09,1.09,0,0,1,.7-1.12Zm3.33,5a1.26,1.26,0,1,1-2.52,0l.42-3.28a.85.85,0,0,1,.84-.78.87.87,0,0,1,.84.78Zm-.42-7.11a.84.84,0,0,1-1.68,0l-.42-3.28a1.17,1.17,0,0,1,1.26-1.29,1.21,1.21,0,0,1,1.26,1.29Zm3.11-1.68a1.1,1.1,0,0,1,.64-.17,1.31,1.31,0,0,1,1.29,1.32,1.25,1.25,0,0,1-.7,1.06l-3.11,1.2a1,1,0,0,1-.31.06.78.78,0,0,1-.87-.81.84.84,0,0,1,.39-.7Zm1.23,5a1.16,1.16,0,0,1,.7,1.12,1.59,1.59,0,0,1-.5,1,1.26,1.26,0,0,1-1.43.06l-2.66-2a.84.84,0,0,1-.36-.7.79.79,0,0,1,.87-.81.82.82,0,0,1,.28.06Z"/><path class="cls-5" d="M37.09,76.21a.77.77,0,0,1,.36.7.76.76,0,0,1-.84.81,1,1,0,0,1-.31-.06l-3.11-1.2a1.23,1.23,0,0,1-.7-1.06,1.25,1.25,0,0,1,1.29-1.32,1.23,1.23,0,0,1,.64.17ZM36.31,78a.84.84,0,0,1,1.15.76.87.87,0,0,1-.36.7l-2.66,2A1.27,1.27,0,0,1,33,81.39a1.37,1.37,0,0,1-.5-1,1.09,1.09,0,0,1,.7-1.12Zm3.33,5a1.26,1.26,0,1,1-2.52,0l.42-3.28a.85.85,0,0,1,.84-.78.87.87,0,0,1,.84.78Zm-.42-7.11a.84.84,0,0,1-1.68,0l-.42-3.28a1.17,1.17,0,0,1,1.26-1.29,1.21,1.21,0,0,1,1.26,1.29Zm3.11-1.68a1.1,1.1,0,0,1,.64-.17,1.31,1.31,0,0,1,1.29,1.32,1.25,1.25,0,0,1-.7,1.06l-3.11,1.2a1,1,0,0,1-.31.06.78.78,0,0,1-.87-.81.83.83,0,0,1,.39-.7Zm1.23,5a1.16,1.16,0,0,1,.7,1.12,1.59,1.59,0,0,1-.5,1,1.26,1.26,0,0,1-1.43.06l-2.66-2a.83.83,0,0,1-.36-.7A.84.84,0,0,1,40.45,78Z"/><path class="cls-5" d="M51.09,76.21a.77.77,0,0,1,.36.7.76.76,0,0,1-.84.81,1,1,0,0,1-.31-.06l-3.11-1.2a1.23,1.23,0,0,1-.7-1.06,1.25,1.25,0,0,1,1.29-1.32,1.23,1.23,0,0,1,.64.17ZM50.31,78a.84.84,0,0,1,1.15.76.87.87,0,0,1-.36.7l-2.66,2A1.27,1.27,0,0,1,47,81.39a1.37,1.37,0,0,1-.5-1,1.09,1.09,0,0,1,.7-1.12Zm2.91-2.1a.84.84,0,0,1-1.68,0l-.42-3.28a1.17,1.17,0,0,1,1.26-1.29,1.21,1.21,0,0,1,1.26,1.29ZM53.64,83a1.26,1.26,0,1,1-2.52,0l.42-3.28a.85.85,0,0,1,.84-.78.87.87,0,0,1,.84.78Zm2.69-8.79a1.1,1.1,0,0,1,.64-.17,1.31,1.31,0,0,1,1.29,1.32,1.25,1.25,0,0,1-.7,1.06l-3.11,1.2a1,1,0,0,1-.31.06.78.78,0,0,1-.87-.81.83.83,0,0,1,.39-.7Zm1.23,5a1.16,1.16,0,0,1,.7,1.12,1.59,1.59,0,0,1-.5,1,1.26,1.26,0,0,1-1.43.06l-2.66-2a.83.83,0,0,1-.36-.7A.84.84,0,0,1,54.45,78Z"/><path class="cls-5" d="M65.09,76.21a.77.77,0,0,1,.36.7.76.76,0,0,1-.84.81,1,1,0,0,1-.31-.06l-3.11-1.2a1.23,1.23,0,0,1-.7-1.06,1.25,1.25,0,0,1,1.29-1.32,1.23,1.23,0,0,1,.64.17ZM64.31,78a.84.84,0,0,1,1.15.76.87.87,0,0,1-.36.7l-2.66,2A1.27,1.27,0,0,1,61,81.39a1.37,1.37,0,0,1-.5-1,1.09,1.09,0,0,1,.7-1.12Zm2.91-2.1a.84.84,0,0,1-1.68,0l-.42-3.28a1.17,1.17,0,0,1,1.26-1.29,1.21,1.21,0,0,1,1.26,1.29ZM67.64,83a1.26,1.26,0,1,1-2.52,0l.42-3.28a.85.85,0,0,1,.84-.78.87.87,0,0,1,.84.78Zm2.69-8.79a1.1,1.1,0,0,1,.64-.17,1.31,1.31,0,0,1,1.29,1.32,1.25,1.25,0,0,1-.7,1.06l-3.11,1.2a1,1,0,0,1-.31.06.78.78,0,0,1-.87-.81.83.83,0,0,1,.39-.7Zm1.23,5a1.16,1.16,0,0,1,.7,1.12,1.59,1.59,0,0,1-.5,1,1.26,1.26,0,0,1-1.43.06l-2.66-2a.83.83,0,0,1-.36-.7A.84.84,0,0,1,68.45,78Z"/><path class="cls-5" d="M79.09,76.21a.77.77,0,0,1,.36.7.76.76,0,0,1-.84.81,1,1,0,0,1-.31-.06l-3.11-1.2a1.23,1.23,0,0,1-.7-1.06,1.25,1.25,0,0,1,1.29-1.32,1.23,1.23,0,0,1,.64.17ZM78.31,78a.84.84,0,0,1,1.15.76.87.87,0,0,1-.36.7l-2.66,2A1.27,1.27,0,0,1,75,81.39a1.37,1.37,0,0,1-.5-1,1.09,1.09,0,0,1,.7-1.12Zm2.91-2.1a.84.84,0,0,1-1.68,0l-.42-3.28a1.17,1.17,0,0,1,1.26-1.29,1.21,1.21,0,0,1,1.26,1.29ZM81.64,83a1.26,1.26,0,1,1-2.52,0l.42-3.28a.85.85,0,0,1,.84-.78.87.87,0,0,1,.84.78Zm2.69-8.79a1.1,1.1,0,0,1,.64-.17,1.31,1.31,0,0,1,1.29,1.32,1.25,1.25,0,0,1-.7,1.06l-3.11,1.2a1,1,0,0,1-.31.06.78.78,0,0,1-.87-.81.83.83,0,0,1,.39-.7Zm1.23,5a1.16,1.16,0,0,1,.7,1.12,1.59,1.59,0,0,1-.5,1,1.26,1.26,0,0,1-1.43.06l-2.66-2a.83.83,0,0,1-.36-.7A.84.84,0,0,1,82.45,78Z"/><path class="cls-5" d="M93.09,76.21a.77.77,0,0,1,.36.7.76.76,0,0,1-.84.81,1,1,0,0,1-.31-.06l-3.11-1.2a1.23,1.23,0,0,1-.7-1.06,1.25,1.25,0,0,1,1.29-1.32,1.23,1.23,0,0,1,.64.17ZM92.31,78a.84.84,0,0,1,1.15.76.87.87,0,0,1-.36.7l-2.66,2A1.27,1.27,0,0,1,89,81.39a1.37,1.37,0,0,1-.5-1,1.09,1.09,0,0,1,.7-1.12Zm3.33,5a1.26,1.26,0,1,1-2.52,0l.42-3.28a.85.85,0,0,1,.84-.78.87.87,0,0,1,.84.78Zm-.42-7.11a.84.84,0,0,1-1.68,0l-.42-3.28a1.17,1.17,0,0,1,1.26-1.29,1.21,1.21,0,0,1,1.26,1.29Zm3.11-1.68a1.1,1.1,0,0,1,.64-.17,1.31,1.31,0,0,1,1.29,1.32,1.25,1.25,0,0,1-.7,1.06l-3.11,1.2a1,1,0,0,1-.31.06.78.78,0,0,1-.87-.81.83.83,0,0,1,.39-.7Zm1.23,5a1.16,1.16,0,0,1,.7,1.12,1.59,1.59,0,0,1-.5,1,1.26,1.26,0,0,1-1.43.06l-2.66-2a.83.83,0,0,1-.36-.7A.84.84,0,0,1,96.45,78Z"/><path class="cls-5" d="M107.09,76.21a.77.77,0,0,1,.36.7.76.76,0,0,1-.84.81,1,1,0,0,1-.31-.06l-3.11-1.2a1.23,1.23,0,0,1-.7-1.06,1.25,1.25,0,0,1,1.29-1.32,1.23,1.23,0,0,1,.64.17ZM106.31,78a.84.84,0,0,1,1.15.76.87.87,0,0,1-.36.7l-2.66,2a1.27,1.27,0,0,1-1.43-.06,1.37,1.37,0,0,1-.5-1,1.09,1.09,0,0,1,.7-1.12Zm3.33,5a1.26,1.26,0,1,1-2.52,0l.42-3.28a.85.85,0,0,1,.84-.78.87.87,0,0,1,.84.78Zm-.42-7.11a.84.84,0,0,1-1.68,0l-.42-3.28a1.17,1.17,0,0,1,1.26-1.29,1.21,1.21,0,0,1,1.26,1.29Zm3.11-1.68a1.1,1.1,0,0,1,.64-.17,1.31,1.31,0,0,1,1.29,1.32,1.25,1.25,0,0,1-.7,1.06l-3.11,1.2a1,1,0,0,1-.31.06.78.78,0,0,1-.87-.81.83.83,0,0,1,.39-.7Zm1.23,5a1.16,1.16,0,0,1,.7,1.12,1.59,1.59,0,0,1-.5,1,1.26,1.26,0,0,1-1.43.06l-2.66-2a.83.83,0,0,1-.36-.7.84.84,0,0,1,1.15-.76Z"/><rect class="cls-6" x="56.75" y="102.56" width="70" height="22" rx="4" ry="4"/><path class="cls-7" d="M77.69,113.4c0-3.64,2-8.24,7.24-8.24s7.22,4.62,7.22,8.24-2,8.24-7.22,8.24S77.69,117,77.69,113.4Zm2.92,0c0,2.42,1.2,5.46,4.3,5.46s4.3-3.14,4.3-5.46-1.16-5.46-4.28-5.46S80.61,110.8,80.61,113.4Z"/><path class="cls-7" d="M97.41,115.24v5.08A1.34,1.34,0,0,1,96,121.64a1.28,1.28,0,0,1-1.36-1.28V106.58a1.4,1.4,0,0,1,1.42-1.42,1.44,1.44,0,0,1,1.36,1.42v4.94l6.3-6a1.32,1.32,0,0,1,.9-.36,1.35,1.35,0,0,1,1.34,1.32,1.39,1.39,0,0,1-.48,1.12l-5.22,4.92c.52.1,1.1.2,2,1.54l3.7,5.44a1.3,1.3,0,0,1,.22.74,1.32,1.32,0,0,1-1.22,1.4,1.6,1.6,0,0,1-1.36-.66l-3.4-5.24a2.22,2.22,0,0,0-2-1.24Z"/></svg>