<svg id="レイヤー_1" data-name="レイヤー 1" xmlns="http://www.w3.org/2000/svg" viewBox="0 0 200 230"><defs><style>.cls-1{fill:#fefadd;}.cls-2{fill:#ffdb37;}.cls-3{fill:#066b74;}.cls-4{fill:#f45934;}.cls-5{fill:#333;}.cls-6{fill:#89909f;}.cls-7{fill:#fff;}.cls-8{fill:#efefef;}.cls-9{fill:#b4b8c2;}</style></defs><title>img_newregist_1</title><rect class="cls-1" x="1.5" y="1.5" width="177" height="227" rx="10.5" ry="10.5"/><path class="cls-2" d="M168,3a9,9,0,0,1,9,9V218a9,9,0,0,1-9,9H12a9,9,0,0,1-9-9V12a9,9,0,0,1,9-9H168m0-3H12A12,12,0,0,0,0,12V218a12,12,0,0,0,12,12H168a12,12,0,0,0,12-12V12A12,12,0,0,0,168,0Z"/><path class="cls-3" d="M33.38,156.09c-.87,0-1.37-.62-1.37-1.68-3.78,3.11-6.44,4.06-7.34,4.06a1.93,1.93,0,0,1-1.82-2c0-.92.42-1.37,1.76-1.88a25.77,25.77,0,0,0,2.52-1.26c-.53-.48-.87-.76-1.12-1-.92-.76-1.23-1.18-1.23-1.71a2.19,2.19,0,0,1,2-2,1.69,1.69,0,0,1,.7.17,2.87,2.87,0,0,1-.17-1c0-1,.5-1.65,1.34-1.65h5.15c1.15,0,1.6.11,2,.53A2.07,2.07,0,0,1,38,145.28c.78,0,1.09.17,1.57,1,.34.53.53.9.7,1.18.17-.2.56-.67.92-1.15.53-.67.9-.9,1.46-.9a2,2,0,0,1,2,1.9c0,1-1.71,2.58-2.18,3l1,1a15.76,15.76,0,0,0,1.79-1.82c.45-.53.73-.7,1.18-.7a2.14,2.14,0,0,1,2,1.82c0,1-1.6,2.41-2.18,2.88.76.42,1.48.76,2.21,1.12a1.58,1.58,0,0,1,1,1.43,2.29,2.29,0,0,1-1.9,2.35c-1.71,0-6.36-3.92-6.47-4.06,0,1.12-.5,1.74-1.37,1.74Zm11.82,6.47c0,2.35-.9,2.35-3.16,2.35.9.34,1.15.78,1.15,1.23a2.85,2.85,0,0,1-.34,1.15h4.09c.92,0,1.46.64,1.46,1.82s-.53,1.82-1.46,1.82H25.88c-.92,0-1.46-.64-1.46-1.82s.53-1.82,1.46-1.82h4.59c-.56-.92-.56-1-.56-1.26a1.31,1.31,0,0,1,.73-1.12c-2.07,0-3,0-3-2.35v-3.05c0-1.85.5-2.35,2.35-2.35H42.84c1.85,0,2.35.5,2.35,2.35Zm-16.66-13c.62.53,1.18,1.06,1.74,1.57a5.91,5.91,0,0,0,1.43-1.57Zm3.84,10.61c-.62,0-.62.11-.62,1,0,.5.11.62.62.62h8.09c.62,0,.62-.11.62-1,0-.5-.11-.62-.62-.62Zm6.22,7.08a7.31,7.31,0,0,0,.42-.81c.56-1.18.64-1.32,1.06-1.57H33.46a2.79,2.79,0,0,1,.78,1.68.83.83,0,0,1-.42.7Zm1-14.64a24.35,24.35,0,0,1-3.11-4.34c-.17,1.18-1,2.6-2.58,4.34Z"/><path class="cls-3" d="M54.91,155.45c-1,0-1.62,0-1.85-1a2,2,0,0,1-2.16-2.13c0-.56.2-.87.9-1.51A16.77,16.77,0,0,0,55,146.46c.48-.9.76-1.09,1.62-1.09,1.34,0,2.41.7,2.27,1.88,2.1,1.26,3.08,1.9,3.08,2.88a2.15,2.15,0,0,1-2,2.16,1.53,1.53,0,0,1,.67,1.51c0,1.65-.9,1.65-2.13,1.65v1.43h1.34c.87,0,1.34.62,1.34,1.68s-.48,1.68-1.34,1.68H58.58v2.91c.14-.45.28-.87.39-1.37.11-.67.39-1,1-1,.92,0,1.62.45,1.62,1a7.89,7.89,0,0,1-.48,1.93c-.28.76-.59,1-1.09,1a2.17,2.17,0,0,1-1.4-.5v1.6a2.61,2.61,0,0,1,.87-.2,1.29,1.29,0,0,1,1.09.78,1.6,1.6,0,0,1,.78-1.54,12.47,12.47,0,0,0,2-1.12c.9-.64,1.2-.78,1.74-.78,1.23,0,1.71,1.74,1.71,2.13,0,.62-.36,1.09-1.6,1.93a7.14,7.14,0,0,1-3,1.34,1.47,1.47,0,0,1-1.15-.78,1.37,1.37,0,0,1,0,.31c0,1.26-1,1.54-6.08,3a9.47,9.47,0,0,1-2.13.48c-.92,0-1.6-.87-1.6-2s.36-1.46,1.57-1.68c.76-.17,1.54-.34,2.16-.53V165.7a2.21,2.21,0,0,1-1.68.76c-.76,0-.87-.17-1.32-1.76a18.92,18.92,0,0,1-.84-2.52c0-.73.78-1.29,1.79-1.29s1.26.36,2,3.05v-3.7H52.64c-.87,0-1.34-.62-1.34-1.68s.48-1.68,1.34-1.68h2.27Zm4.56-3.33a3.87,3.87,0,0,1-.67-.59c-.48-.45-.9-.76-1.43-1.18-.34.5-.81,1.12-1.34,1.76Zm7.7,5.94H62.55c-.81,0-1.34-.56-1.34-1.68s.53-1.71,1.34-1.71h8.76c0-.39.06-.84.06-1.09h-7.7c-.7,0-1.09-.48-1.09-1.37s.39-1.37,1.09-1.37h7.84c0-1,0-1.06-.34-1.06h-7.7c-.84,0-1.32-.59-1.32-1.65s.48-1.68,1.32-1.68h9.88c1.88,0,2.1,1.06,2.1,2,0,1.51-.2,5-.28,6.27h.92c.87,0,1.34.62,1.34,1.68s-.48,1.71-1.34,1.71H70.78v.84a7.89,7.89,0,0,0,.78,1.51,13,13,0,0,0,1.6-1.32c.64-.59.81-.67,1.34-.67a2.32,2.32,0,0,1,2.24,1.9c0,1.12-2.13,2.44-3.11,3A17.52,17.52,0,0,0,76.47,166c1,.73,1.18,1.06,1.18,1.88a2,2,0,0,1-2,2.13c-1.74,0-4.14-3.28-4.87-4.76v2.55c0,2.72-1,3.7-3.86,3.7-2.3,0-3-.45-3-1.93,0-1.15.5-1.82,1.34-1.82.2,0,1,.08,1.29.08s.59-.2.59-.76Zm-.64,2.74a2.21,2.21,0,0,1-1.93,2c-.53,0-.67-.08-1.43-.78-1.2-1.06-1.32-1.23-1.32-1.68a2.22,2.22,0,0,1,2-2A3.44,3.44,0,0,1,66.53,160.8Z"/><path class="cls-3" d="M101.45,163.2a2.73,2.73,0,0,1-2.52,2.49c-.7,0-1.23-.31-2.07-1.15s-1.74-1.68-2.69-2.52c-4.84,6-10.36,8.82-11.9,8.82A2.72,2.72,0,0,1,80,168.1c0-1.23.53-1.54,2.58-2.58a23.77,23.77,0,0,0,8-6.41,29.72,29.72,0,0,0-3.08-2.1c-2.16-1.34-2.49-1.68-2.49-2.6a2.65,2.65,0,0,1,2.44-2.49c1,0,2.77,1.2,4.09,2.13l1.76,1.23a41.57,41.57,0,0,0,3.3-7.11c.5-1.18,1.09-1.65,2-1.65,1.43,0,2.69,1,2.69,2,0,.92-1.09,4.2-4.37,9.58C100.61,161.19,101.45,162.11,101.45,163.2Z"/><path class="cls-3" d="M106.35,160.85c-1.18,0-1.82-.81-1.82-2.27s.64-2.3,1.82-2.3h21.56c1.18,0,1.82.81,1.82,2.3s-.64,2.27-1.82,2.27Z"/><path class="cls-3" d="M134.72,149.43c0-1.15.81-1.82,2.27-1.82s2.27.67,2.27,1.82v3.05c0,4.68,0,9.44-2.52,14.11-1.18,2.24-2.27,3.78-3.75,3.78a2.61,2.61,0,0,1-2.69-2.44c0-.7.14-.9,1.46-2.55,2.13-2.58,3-6,3-11.84Zm12,15.06a17.86,17.86,0,0,0,5.66-8.09c.42-1.06,1-1.51,1.85-1.51A2.5,2.5,0,0,1,157,157c0,1.9-3.3,9-9.35,12.43a4.91,4.91,0,0,1-2.55.76c-2.1,0-2.94-1.09-2.94-3.84V148.76c0-1.18.81-1.82,2.3-1.82s2.3.64,2.3,1.82Z"/><path class="cls-3" d="M83.37,206.35c-6.41,0-11.06,0-14.59-3.53a10.77,10.77,0,0,1-1.12,1.34c-1.54,1.71-2.1,2.1-2.83,2.1a2.52,2.52,0,0,1-2.21-2.49c0-.53.17-.78.92-1.4a19.24,19.24,0,0,0,2.32-2.49v-5a.54.54,0,0,0-.62-.62h-1c-1,0-1.51-.67-1.51-1.88s.53-1.88,1.51-1.88h3c2.07,0,2.69.59,2.69,2.52v5.52c2.69,3.72,6.86,3.75,10.67,3.75,1,0,1.93,0,2.69-.06,1.9-.08,3.36-.11,3.44-.11,1.57,0,2.44.67,2.44,1.93,0,2.18-1.06,2.32-4.12,2.32ZM68.84,182.58c1.2,1.46,1.57,2.13,1.57,2.88a2.44,2.44,0,0,1-2.35,2.32c-.67,0-1.06-.25-1.62-1.06-.42-.59-1.37-1.79-1.74-2.24-.67-.76-.84-1.06-.84-1.6a2.42,2.42,0,0,1,2.44-2.21C67,180.68,67.58,181.07,68.84,182.58ZM81,188.18c0,.76-.06,1.46-.08,2h6.19c.92,0,1.46.64,1.46,1.79s-.53,1.79-1.46,1.79H82.53a11.8,11.8,0,0,0,4.34,4c.84.5,1.12.84,1.12,1.43a2.38,2.38,0,0,1-2,2.38c-2.13,0-5.43-3.84-6.44-5.52A9.43,9.43,0,0,1,75.39,200a6,6,0,0,1-2,.73,2.21,2.21,0,0,1-2-2.24c0-.73.36-1.12,1.48-1.6a6.7,6.7,0,0,0,3.44-3.11H72c-.92,0-1.43-.64-1.43-1.79s.5-1.79,1.43-1.79h5.1c.06-.64.06-1.32.08-2H72.7c-.92,0-1.46-.64-1.46-1.82s.53-1.82,1.46-1.82h2c-.22-.31-.34-.42-.42-.56-1-1.2-1-1.37-1-1.85,0-.87,1.18-1.71,2.41-1.71,1.4,0,2.63,2.07,2.63,2.83a1.61,1.61,0,0,1-.79,1.29H80c.59-1.29.76-1.68.87-1.93.76-1.9,1-2.13,2.07-2.13,1.29,0,2.38.78,2.38,1.74a5.62,5.62,0,0,1-.92,2.32h1.88c.92,0,1.46.64,1.46,1.82s-.53,1.82-1.46,1.82Z"/><path class="cls-3" d="M93.66,194.59a1.58,1.58,0,0,1-.67.17,2.54,2.54,0,0,1-2.46-2.16,1.74,1.74,0,0,1,.39-1.18,22.21,22.21,0,0,0,2.94-5.24,21.76,21.76,0,0,0,1.32-3.44c.45-1.79.81-2.21,1.9-2.21,1.37,0,2.38.7,2.38,1.62,0,.59-.14,1-.9,3.08-.36,1-.59,1.6-.9,2.41v17.47c0,1-.73,1.6-2,1.6s-2-.59-2-1.6Zm6.24-6.08c-.87,0-1.34-.62-1.34-1.65s.48-1.68,1.34-1.68h15.6c.87,0,1.34.59,1.34,1.68s-.48,1.65-1.34,1.65Zm0,11.28c0-2,.56-2.6,2.6-2.6h10.39c2,0,2.6.56,2.6,2.6v3.5c0,2-.56,2.6-2.6,2.6H102.54c-2,0-2.6-.56-2.6-2.6Zm1.82-15.48c-.78,0-1.23-.53-1.23-1.51s.45-1.54,1.23-1.54h11.82c.78,0,1.23.53,1.23,1.54s-.45,1.51-1.23,1.51Zm0,8c-.76,0-1.18-.53-1.18-1.46s.42-1.48,1.18-1.48H113.6c.78,0,1.18.53,1.18,1.48s-.42,1.46-1.18,1.46Zm0,3.95c-.76,0-1.2-.53-1.2-1.51s.45-1.51,1.2-1.51h11.82c.78,0,1.2.53,1.2,1.51s-.42,1.51-1.2,1.51Zm2.69,4.09c-.34,0-.48.14-.48.48v1.4c0,.34.14.48.48.48H111c.34,0,.48-.14.48-.48v-1.4c0-.34-.14-.48-.48-.48Z"/><path class="cls-2" d="M177.58,93.34v23.32a1.34,1.34,0,0,0,2.19,1l13.48-11.1a2.06,2.06,0,0,0,0-3.19L179.77,92.31A1.34,1.34,0,0,0,177.58,93.34Z"/><path class="cls-4" d="M126.1,50.25l22.06-13.14a2.68,2.68,0,0,0-.36-.15l-37.09-7a2.33,2.33,0,0,0-.24,0Z"/><path class="cls-4" d="M151,41.69a2.65,2.65,0,0,0,0-.92L135.43,50l10.76,15.34a2.63,2.63,0,0,0,.59-1.18Z"/><path class="cls-4" d="M106.39,32.23a2.69,2.69,0,0,0-.4,1l-4.24,22.52a2.67,2.67,0,0,0,0,1.12l15.71-10.23Z"/><path class="cls-4" d="M131.77,51.19l-6.85,5.26L120.48,49l-15.39,10s.09,0,.14.05l37,7Z"/><polygon class="cls-5" points="68.96 45.73 34.21 55.23 35.96 63.98 70.96 53.23 68.96 45.73"/><polygon class="cls-5" points="60.96 110.73 63.96 119.73 78.96 116.23 75.71 105.98 60.96 110.73"/><path class="cls-6" d="M67.65,42.78,35.87,51.5a9.44,9.44,0,0,0-6.59,11.57l15,54.48a9.44,9.44,0,0,0,11.57,6.59l31.78-8.72a9.44,9.44,0,0,0,6.59-11.57l-15-54.48A9.44,9.44,0,0,0,67.65,42.78ZM46.19,53.55l13.62-3.74a2.35,2.35,0,0,1,1.25,4.54L47.44,58.09a2.35,2.35,0,1,1-1.25-4.54Zm24.6,63A3.67,3.67,0,1,1,73.36,112,3.67,3.67,0,0,1,70.8,116.51Zm13-14.71-31.78,8.72L39.61,65.12,71.39,56.4Z"/><polygon class="cls-7" points="35.46 65.98 44.74 100.06 65.26 56.77 35.46 65.98"/><polygon class="cls-8" points="86.21 103.98 73.46 54.23 65.26 56.77 44.74 100.06 48.46 113.73 86.21 103.98"/><path class="cls-9" d="M125.14,68a18.86,18.86,0,0,1-2.25,8,27.1,27.1,0,0,1-4.94,6.76c-.49.5-1,1-1.54,1.42-.26.23-.51.47-.79.69l-.84.62c-.56.41-1.12.83-1.69,1.23l-1.8,1.06-.9.52-.95.43c-.63.28-1.25.58-1.89.84a36.91,36.91,0,0,1-3.93,1.22l-.15-.35c1.1-.83,2.24-1.51,3.34-2.28s2.18-1.5,3.19-2.34a55.13,55.13,0,0,0,5.82-5.16,54.16,54.16,0,0,0,4.92-6,49.7,49.7,0,0,0,4.05-6.78Z"/><path class="cls-9" d="M114.31,70.44a15.64,15.64,0,0,1-2.73,5.88A21.75,21.75,0,0,1,107,81a23.49,23.49,0,0,1-5.63,3.24,20.56,20.56,0,0,1-6.25,1.49l-.11-.36c1.81-1.14,3.61-2.08,5.28-3.22a54.4,54.4,0,0,0,4.86-3.49c1.56-1.23,3-2.58,4.47-4s2.87-2.84,4.32-4.39Z"/></svg>