<svg id="レイヤー_1" data-name="レイヤー 1" xmlns="http://www.w3.org/2000/svg" viewBox="0 0 500 170"><defs><style>.cls-1{fill:#f35934;}.cls-2{fill:#066b74;}.cls-3{fill:#c6b405;}.cls-4{fill:#fff;}.cls-5{fill:#b29605;}.cls-6{fill:#fdf9dc;}.cls-7{fill:#d6d9e2;}.cls-8{fill:#d2ef78;}.cls-9{fill:#e7e9ee;}.cls-10{fill:#c63338;}</style></defs><title>img_blogappli_step3</title><path class="cls-1" d="M333.18,53c0-22.92-27.09-41.5-60.5-41.5s-60.5,18.58-60.5,41.5c0,20.76,22.22,38,51.24,41a26.72,26.72,0,0,0,2.84,9.15c3.67,6.17,16.17,6.83,16.17,6.83s-7.67-3.67-8.67-11.17a8.41,8.41,0,0,1,.52-4.36C307,93.87,333.18,75.53,333.18,53Z"/><path class="cls-2" d="M406.21,58.51c-12.65,3.06-15.16,5.54-18.25,18-3.1-12.5-5.61-15-18.25-18,12.65-3.06,15.16-5.54,18.25-18C391.06,53,393.57,55.45,406.21,58.51Z"/><path class="cls-3" d="M417.39,33.37c-8.93,2.16-10.7,3.91-12.88,12.74-2.19-8.82-4-10.57-12.88-12.74,8.93-2.16,10.7-3.91,12.88-12.74C406.69,29.46,408.47,31.21,417.39,33.37Z"/><path class="cls-4" d="M232.86,38.19a3.39,3.39,0,0,1,3.7-3.45h13a2.65,2.65,0,0,1,0,5.29H239.2c-.84,0-.92.21-1,.92l-.63,6.51a8.32,8.32,0,0,1,5.88-1.89c6.68,0,10.21,5.38,10.21,11.09,0,6.09-3.91,11.93-11.76,11.93-6.8,0-11-4.45-11-7a2.68,2.68,0,0,1,2.69-2.77c.92,0,1.39.17,3,1.76a6.92,6.92,0,0,0,5.54,2.31c4.75,0,6-4,6-6.18s-1.3-5.88-5.67-5.88A5.82,5.82,0,0,0,237.69,53c-1.51,1.55-2,1.68-2.81,1.68a3,3,0,0,1-3.15-3.11Z"/><path class="cls-4" d="M280.32,51.3c0,8.91-2.35,17.31-11.59,17.31s-11.64-8.19-11.64-17.31c0-8.44,2.14-17.31,11.64-17.31C278.05,34,280.32,42.6,280.32,51.3ZM263,51.3c0,6.89,1.34,11.64,5.71,11.64s5.71-4.5,5.71-11.64c0-6.93-1.39-11.64-5.71-11.64S263,44.37,263,51.3Z"/><path class="cls-4" d="M284.1,47.12c0-1,0-2.24,1.73-2.24,1.5,0,2,1.06,2.08,2.18a5.49,5.49,0,0,1,4.9-2.18c5.66,0,7.94,4.9,7.94,10s-2.11,9.76-7.68,9.76A7.31,7.31,0,0,1,288.19,63v3.23a2.08,2.08,0,0,1-2,2.11,2.11,2.11,0,0,1-2.14-2Zm4.1,8.86a4.08,4.08,0,0,0,4.32,4.38c1.92,0,4.06-.77,4.06-5.79,0-1.44-.32-3.42-1.41-4.48a3.71,3.71,0,0,0-2.82-.93c-2.91,0-4.16,2.5-4.16,4.51Z"/><path class="cls-4" d="M304.58,49.27a1.91,1.91,0,0,1,0-3.81h1.5V42a2,2,0,0,1,2-2,1.93,1.93,0,0,1,2,2v3.52h3.78a1.91,1.91,0,0,1,0,3.81h-3.78v9.89c0,.38.1,1,.64,1s.8-.35,1.25-1.31c.67-1.44,1.28-1.73,2-1.73a2.05,2.05,0,0,1,2,2.08c0,1.38-1.76,5.44-5.54,5.44-4.19,0-4.32-3.94-4.32-5.31v-10Z"/><path class="cls-5" d="M383.07,131.09h-4.65c-7.26-7.46-22.59-12.62-40.4-12.62s-33.15,5.16-40.4,12.62H293l.18,9.84h0s0,.06,0,.09c.22,12.29,20.31,22.16,44.88,22.16s44.66-9.87,44.88-22.16c0,0,0-.06,0-.09h0Z"/><path class="cls-3" d="M383.19,124.42h-4.67c-7.28-7.5-22.65-12.69-40.51-12.69s-33.23,5.19-40.51,12.69h-4.67l.18,9.9h0s0,.06,0,.09c.22,12.35,20.37,22.27,45,22.27s44.77-9.92,45-22.27c0,0,0-.06,0-.09h0Z"/><path class="cls-5" d="M383.26,121.07h-4.67c-7.29-7.52-22.68-12.73-40.57-12.73s-33.28,5.2-40.57,12.73h-4.67L293,131h0s0,.06,0,.09c.22,12.38,20.4,22.33,45.06,22.33s44.83-9.95,45.06-22.33c0,0,0-.06,0-.09h0Z"/><path class="cls-3" d="M383.38,114.35h-4.68c-7.31-7.56-22.74-12.79-40.68-12.79s-33.37,5.23-40.68,12.79h-4.68l.18,10h0s0,.06,0,.09c.23,12.45,20.45,22.45,45.18,22.45s45-10,45.18-22.45c0,0,0-.06,0-.09h0Z"/><path class="cls-5" d="M383.43,111.17h-4.69C371.43,103.58,356,98.34,338,98.34s-33.41,5.24-40.73,12.83H292.6l.18,10h0s0,.06,0,.09c.23,12.48,20.48,22.51,45.24,22.51s45-10,45.24-22.51c0,0,0-.06,0-.09h0Z"/><path class="cls-3" d="M383.56,104.39h-4.7C371.52,96.77,356,91.5,338,91.5s-33.5,5.27-40.84,12.9h-4.7l.18,10.05h0s0,.06,0,.09c.23,12.55,20.53,22.63,45.36,22.63s45.13-10.08,45.36-22.63c0,0,0-.06,0-.09h0Z"/><path class="cls-5" d="M383.62,101.18h-4.71C371.56,93.54,356,88.25,338,88.25s-33.54,5.29-40.89,12.93h-4.71l.18,10.08h0s0,.06,0,.09C292.83,123.94,313.16,134,338,134s45.19-10.11,45.42-22.69c0,0,0-.06,0-.09h0Z"/><path class="cls-3" d="M383.74,94.35H379c-7.37-7.69-22.93-13-41-13s-33.64,5.31-41,13h-4.72l.18,10.14h0s0,.06,0,.1c.23,12.65,20.62,22.81,45.54,22.81s45.31-10.16,45.54-22.81c0,0,0-.06,0-.1h0Z"/><path class="cls-5" d="M383.79,91.3h-4.73c-7.37-7.7-23-13-41.05-13S304.34,83.6,297,91.3h-4.73l.18,10.16h0s0,.06,0,.1c.23,12.68,20.64,22.86,45.59,22.86s45.36-10.18,45.59-22.86c0,0,0-.06,0-.1h0Z"/><path class="cls-3" d="M383.77,92.45c-.23,12.77-20.72,23-45.76,23s-45.53-10.26-45.76-23S312.51,69,338,69,384,79.55,383.77,92.45Z"/><path class="cls-5" d="M374.62,92.45h-2.93c-.06,4.72-3.87,9-10,12s-14.45,5-23.7,5-17.6-1.89-23.7-5-9.91-7.32-10-12,3.66-9,9.75-12.15,14.56-5.07,23.93-5.07,17.82,1.94,23.93,5.07,9.81,7.42,9.75,12.15h5.86C377.72,81.31,360,72.21,338,72.21s-39.71,9.1-39.53,20.24,17.87,19.92,39.53,19.92,39.36-8.88,39.53-19.92Z"/><path class="cls-6" d="M329.54,95.89l0,6.74q0,2.36-4.34,2.36t-4.37-2.36l-.13-19.74q0-3.12,5.79-3.12h18.77q7.45,0,11.68,2t4.19,6.08q0,4-4.28,6t-11.64,2Zm0-4.43h14.09q5,0,6.9-.8a2.85,2.85,0,0,0,1.87-2.81A2.81,2.81,0,0,0,350.54,85q-1.86-.78-6.91-.78H329.5Z"/><path class="cls-7" d="M190.77,9.48H90.59a5.32,5.32,0,0,0-5.32,5.32V154.87a5.32,5.32,0,0,0,5.32,5.32H212.93a5.32,5.32,0,0,0,5.32-5.32V37Z"/><path class="cls-4" d="M188.11,6.82H87.93a5.32,5.32,0,0,0-5.32,5.32V152.21a5.32,5.32,0,0,0,5.32,5.32H210.27a5.32,5.32,0,0,0,5.32-5.32V34.3Z"/><path class="cls-7" d="M188.11,29a5.32,5.32,0,0,0,5.32,5.32h22.16L188.11,6.82Z"/><rect class="cls-8" x="95.91" y="41.1" width="106.39" height="35.46"/><rect class="cls-9" x="95.61" y="100.57" width="106.98" height="4"/><rect class="cls-9" x="95.61" y="87.27" width="106.98" height="4"/><rect class="cls-9" x="95.61" y="113.87" width="106.98" height="4"/><rect class="cls-9" x="95.61" y="126.28" width="106.98" height="4"/><rect class="cls-9" x="95.61" y="138.69" width="106.98" height="4"/><path class="cls-2" d="M191.38,54.85v8a.46.46,0,0,0,.75.35l4.6-3.79a.7.7,0,0,0,0-1.09l-4.6-3.78A.46.46,0,0,0,191.38,54.85Z"/><rect class="cls-2" x="101.82" y="50.55" width="7.61" height="17.73"/><rect class="cls-2" x="115.12" y="50.55" width="13.59" height="17.73"/><rect class="cls-2" x="132.85" y="50.55" width="8.49" height="17.73"/><rect class="cls-2" x="146.15" y="50.55" width="13.59" height="17.73"/><path class="cls-10" d="M108.26,103l1.74,2.59,2.78-.91-10.24-14.5-2.09.68.28,17.75,2.79-.91-.1-3.12-.05-1.28,4.21-1.37Zm-5-2-.16-5.78,3.22,4.78Z"/><path class="cls-10" d="M120.32,95.08a4.26,4.26,0,0,0,1.07-1.55,5.19,5.19,0,0,0,.36-1.9,6.59,6.59,0,0,0-1.26-3.87,5.2,5.2,0,0,0-1.41-1.32,4.29,4.29,0,0,0-1.77-.62,4.67,4.67,0,0,0-2,.22L110,87.76l5.26,16.13,2.67-.87-2-6.07,2.63-.86A4.61,4.61,0,0,0,120.32,95.08Zm-2.83-1.77-2.5.81-1.44-4.42,2.49-.81a1.9,1.9,0,0,1,1.65.14,2.48,2.48,0,0,1,1.05,1.43,2.45,2.45,0,0,1,0,1.77A1.93,1.93,0,0,1,117.49,93.31Z"/><path class="cls-10" d="M133.71,90.72a4.28,4.28,0,0,0,1.07-1.55,5.17,5.17,0,0,0,.36-1.9,6.41,6.41,0,0,0-.32-2,6.3,6.3,0,0,0-.94-1.83,5.11,5.11,0,0,0-1.41-1.32,4.28,4.28,0,0,0-1.77-.62,4.66,4.66,0,0,0-2,.22l-5.3,1.73,5.25,16.13,2.67-.87-2-6.07,2.63-.86A4.65,4.65,0,0,0,133.71,90.72Zm-2.83-1.77-2.5.81-1.44-4.42,2.49-.81a1.91,1.91,0,0,1,1.65.14,2.48,2.48,0,0,1,1,1.43,2.43,2.43,0,0,1,0,1.77A1.92,1.92,0,0,1,130.88,88.95Z"/><path class="cls-10" d="M149,92.9l3.09-1-5.32-6a3.86,3.86,0,0,0,.76-.89,4.17,4.17,0,0,0,.5-1.16,4.78,4.78,0,0,0,.15-1.39,5.62,5.62,0,0,0-.3-1.61,6.36,6.36,0,0,0-.92-1.82,4.73,4.73,0,0,0-1.38-1.28,4.4,4.4,0,0,0-3.74-.4l-5.36,1.75,5.25,16.13,2.67-.87L142.3,88l1.92-.63Zm-7.54-7.57-1.39-4.26,2.52-.82a1.88,1.88,0,0,1,1.6.13,2.63,2.63,0,0,1,1,3.08,1.89,1.89,0,0,1-1.22,1Z"/><path class="cls-10" d="M153.31,84.87a14.12,14.12,0,0,0,.71,1.66,6.47,6.47,0,0,0,.87,1.31,5.47,5.47,0,0,0,3.2,1.75,5.38,5.38,0,0,0,4.16-1.35,5.49,5.49,0,0,0,1.55-3.3,6.83,6.83,0,0,0-.06-1.57,13.33,13.33,0,0,0-.39-1.76q-.28-.94-.65-2.09T162,77.43a13.05,13.05,0,0,0-.72-1.66,6.88,6.88,0,0,0-.88-1.31,5.53,5.53,0,0,0-3.19-1.75A5.39,5.39,0,0,0,153,74.07a5.51,5.51,0,0,0-1.56,3.3,6.63,6.63,0,0,0,.07,1.57,14.27,14.27,0,0,0,.4,1.76q.27.94.65,2.09C152.86,83.57,153.09,84.26,153.31,84.87Zm1.14-7.69a2.55,2.55,0,0,1,.54-.86,2.29,2.29,0,0,1,2-.64,2.31,2.31,0,0,1,.92.39,2.51,2.51,0,0,1,.5.45,3.93,3.93,0,0,1,.46.74c.16.32.33.72.52,1.22s.41,1.13.66,1.9.45,1.41.59,1.93.23.94.29,1.29a3.7,3.7,0,0,1,.05.86,2.38,2.38,0,0,1-.13.66,2.45,2.45,0,0,1-.51.87,2.19,2.19,0,0,1-2,.65,2.75,2.75,0,0,1-.95-.4,2.54,2.54,0,0,1-.5-.45,3.85,3.85,0,0,1-.46-.73,10.91,10.91,0,0,1-.51-1.21q-.28-.75-.65-1.91c-.25-.77-.45-1.41-.59-1.92a11.25,11.25,0,0,1-.31-1.29,3.9,3.9,0,0,1-.06-.87A2.5,2.5,0,0,1,154.45,77.18Z"/><polygon class="cls-10" points="174.65 84.54 173.93 66.93 171.14 67.84 171.82 79.24 165.65 69.63 162.89 70.53 172.65 85.19 174.65 84.54"/><polygon class="cls-10" points="186.29 62.9 177.29 65.84 182.54 81.97 191.54 79.03 190.63 76.22 184.29 78.29 183.02 74.37 188.41 72.61 187.5 69.8 182.1 71.56 180.87 67.78 187.21 65.71 186.29 62.9"/><path class="cls-10" d="M200,61a5.07,5.07,0,0,0-2.31-1.23,5,5,0,0,0-2.58.22l-4.93,1.61,5.25,16.13,4.93-1.61a5,5,0,0,0,2.21-1.35,5.08,5.08,0,0,0,1.14-2.35,5.63,5.63,0,0,0,.13-1.26,7,7,0,0,0-.15-1.35c-.1-.48-.23-1-.4-1.55s-.36-1.17-.57-1.83-.42-1.27-.61-1.82-.39-1-.59-1.49a7.22,7.22,0,0,0-.67-1.19A5.45,5.45,0,0,0,200,61Zm1,10a2.26,2.26,0,0,1-.1.71,2.37,2.37,0,0,1-1.67,1.65l-2,.66-3.42-10.51,2-.66a2.37,2.37,0,0,1,2.32.35,2.23,2.23,0,0,1,.5.51,4.75,4.75,0,0,1,.43.77c.14.31.3.7.46,1.15s.35,1,.55,1.64.38,1.19.51,1.65.24.87.31,1.2A5,5,0,0,1,201,71.06Z"/><path class="cls-10" d="M200.49,49.47l-7.18,2.34c-.22-.3-.43-.62-.66-.92a53.59,53.59,0,0,0-18-14.93,53.34,53.34,0,0,0-71.72,23.36A53.62,53.62,0,0,0,97.11,82c0,.37,0,.75,0,1.13l-7.19,2.34,1,3,110.56-36ZM101.13,80.28a49.42,49.42,0,0,1,87.25-28.42c.34.41.63.83,1,1.25l-20,6.53c-.34-.27-.68-.55-1-.8A30.47,30.47,0,0,0,141,54.57a30.43,30.43,0,0,0-19.49,19.49c-.13.41-.24.83-.36,1.25l-20,6.53C101.11,81.32,101.09,80.8,101.13,80.28Zm64.43-19.43L124.86,74.1c.22-.6.44-1.21.7-1.79.18-.4.37-.79.56-1.17A27.28,27.28,0,0,1,162.79,59.2c.39.2.77.41,1.15.62C164.49,60.13,165,60.49,165.56,60.85Z"/><path class="cls-10" d="M210.93,81.53l-1-3-110.56,36,1,3,7.19-2.34c.22.3.43.62.66.92a53.5,53.5,0,0,0,18,14.92A53.32,53.32,0,0,0,198,107.68,53.59,53.59,0,0,0,203.75,85c0-.39,0-.76,0-1.13ZM176,92.91c-.22.6-.44,1.2-.7,1.79-.18.39-.37.79-.56,1.17a27.26,27.26,0,0,1-36.67,11.94c-.38-.19-.77-.4-1.14-.61-.56-.32-1.09-.68-1.62-1Zm23.74-6.18a49.41,49.41,0,0,1-87.24,28.42c-.33-.4-.63-.84-1-1.25l20-6.53c.34.27.68.55,1,.8a30.43,30.43,0,0,0,44.95-10.87,30,30,0,0,0,1.8-4.36c.14-.41.24-.83.36-1.25l20-6.53C199.75,85.69,199.77,86.22,199.73,86.74Z"/><polygon class="cls-10" points="136.73 51.74 139.24 49.16 142.8 49.77 141.12 46.58 142.79 43.39 139.24 44 136.72 41.42 136.21 44.99 132.97 46.58 136.21 48.18 136.73 51.74"/><polygon class="cls-10" points="164.13 115.27 161.62 117.85 158.06 117.24 159.74 120.43 158.07 123.62 161.62 123.01 164.13 125.59 164.65 122.02 167.88 120.42 164.65 118.83 164.13 115.27"/><polygon class="cls-10" points="118.23 67.13 121.17 65.05 117.73 63.98 116.66 60.54 114.58 63.48 110.98 63.44 113.14 66.32 111.98 69.74 115.39 68.58 118.28 70.73 118.23 67.13"/><polygon class="cls-10" points="182.62 99.88 179.68 101.96 183.12 103.03 184.2 106.47 186.28 103.53 189.88 103.57 187.72 100.68 188.88 97.27 185.46 98.43 182.58 96.28 182.62 99.88"/><polygon class="cls-10" points="134.05 115.7 131.97 112.76 130.9 116.2 127.46 117.27 130.41 119.35 130.36 122.95 133.25 120.8 136.66 121.95 135.5 118.54 137.66 115.65 134.05 115.7"/><polygon class="cls-10" points="166.8 51.31 168.89 54.25 169.95 50.81 173.39 49.74 170.45 47.66 170.49 44.05 167.61 46.21 164.19 45.06 165.35 48.47 163.2 51.36 166.8 51.31"/></svg>