<svg id="レイヤー_1" data-name="レイヤー 1" xmlns="http://www.w3.org/2000/svg" viewBox="0 0 500 190"><defs><style>.cls-1{fill:#fff;}.cls-2{fill:#d6d9e2;}.cls-3{fill:#89909f;}.cls-4{fill:#f45934;}.cls-5{fill:#f8ba7c;}.cls-6{fill:#ffca90;}.cls-7{fill:#fdf9dc;}</style></defs><title>img_blogappli_step2</title><rect class="cls-1" x="75" y="2.58" width="350" height="50" rx="8" ry="8"/><path class="cls-2" d="M417,54.08H83a9.51,9.51,0,0,1-9.5-9.5v-34A9.51,9.51,0,0,1,83,1.08H417a9.51,9.51,0,0,1,9.5,9.5v34A9.51,9.51,0,0,1,417,54.08ZM83,4.08a6.51,6.51,0,0,0-6.5,6.5v34a6.51,6.51,0,0,0,6.5,6.5H417a6.51,6.51,0,0,0,6.5-6.5v-34a6.51,6.51,0,0,0-6.5-6.5Z"/><path class="cls-3" d="M101.84,37A1.76,1.76,0,0,1,100,38.79,1.82,1.82,0,0,1,98.28,37V28.55a2.52,2.52,0,0,0-2.74-2.63,4.07,4.07,0,0,0-4,4V37a1.78,1.78,0,0,1-1.85,1.75A1.82,1.82,0,0,1,88,37V18.65a1.79,1.79,0,0,1,3.58,0v5.64A5.73,5.73,0,0,1,96,22.38c2.91,0,5.88,1.7,5.88,5.11Z"/><path class="cls-3" d="M105.44,26a1.58,1.58,0,0,1,0-3.16h1.32V20a1.68,1.68,0,0,1,1.79-1.65,1.64,1.64,0,0,1,1.71,1.62v2.93h3.3a1.58,1.58,0,0,1,0,3.16h-3.3v8.22c0,.32.08.82.56.82s.7-.29,1.09-1.09c.59-1.2,1.12-1.44,1.71-1.44a1.74,1.74,0,0,1,1.76,1.73c0,1.14-1.54,4.52-4.84,4.52-3.67,0-3.78-3.27-3.78-4.42V26Z"/><path class="cls-3" d="M118.32,26a1.58,1.58,0,0,1,0-3.16h1.32V20a1.68,1.68,0,0,1,1.79-1.65,1.64,1.64,0,0,1,1.71,1.62v2.93h3.3a1.58,1.58,0,0,1,0,3.16h-3.3v8.22c0,.32.08.82.56.82s.7-.29,1.09-1.09c.59-1.2,1.12-1.44,1.71-1.44a1.75,1.75,0,0,1,1.76,1.73c0,1.14-1.54,4.52-4.84,4.52-3.67,0-3.78-3.27-3.78-4.42V26Z"/><path class="cls-3" d="M130.65,24.24c0-.82,0-1.86,1.51-1.86A1.72,1.72,0,0,1,134,24.19a4.9,4.9,0,0,1,4.28-1.81c5,0,6.94,4.07,6.94,8.3s-1.85,8.11-6.72,8.11a6.63,6.63,0,0,1-4.26-1.36v2.69a1.76,1.76,0,0,1-1.71,1.75,1.8,1.8,0,0,1-1.88-1.7Zm3.58,7.37A3.46,3.46,0,0,0,138,35.25c1.68,0,3.56-.64,3.56-4.81a5.29,5.29,0,0,0-1.23-3.72,3.35,3.35,0,0,0-2.46-.77,3.59,3.59,0,0,0-3.64,3.75Z"/><path class="cls-3" d="M152.6,24.82a2.59,2.59,0,0,1-5.18,0,2.59,2.59,0,0,1,5.18,0Zm0,11.52a2.53,2.53,0,0,1-2.6,2.45,2.45,2.45,0,1,1,2.6-2.45Z"/><path class="cls-3" d="M165,17.8c.48-.9,1-.93,1.26-.93a1.06,1.06,0,0,1,1.09,1,2.17,2.17,0,0,1-.14.67l-9.94,19.36c-.48.9-1,.93-1.26.93a1,1,0,0,1-1.09-1,1.38,1.38,0,0,1,.14-.64Z"/><path class="cls-3" d="M175.17,17.8c.48-.9,1-.93,1.26-.93a1.06,1.06,0,0,1,1.09,1,2.17,2.17,0,0,1-.14.67l-9.94,19.36c-.48.9-1,.93-1.26.93a1,1,0,0,1-1.09-1,1.38,1.38,0,0,1,.14-.64Z"/><path class="cls-3" d="M189.57,32.91a13.24,13.24,0,0,1,.39,1.81,1.74,1.74,0,0,1-3.47,0,13,13,0,0,1,.62-2.58c.34-1.25.48-1.86,1-3.64-1.82,1.65-2.46,2.21-3.44,3.17-1.4,1.28-1.54,1.44-2.27,1.44a1.71,1.71,0,0,1-1.76-1.65c0-1.25,1-1.52,1.82-1.75,1.51-.43,3.95-1.06,5.49-1.49-1-.27-5.26-1.41-6.13-1.68A1.67,1.67,0,0,1,180.58,25a1.69,1.69,0,0,1,1.76-1.65c.73,0,.87.16,2.27,1.44,1.12,1.06,2.27,2.13,3.44,3.17-.5-1.92-.7-2.69-1.18-4.42a13,13,0,0,1-.39-1.81,1.74,1.74,0,0,1,3.47,0,12.94,12.94,0,0,1-.62,2.58c-.34,1.25-.48,1.86-1,3.64,1.15-1,2.32-2.1,3.44-3.17,1.4-1.28,1.54-1.44,2.27-1.44A1.69,1.69,0,0,1,195.87,25c0,1.25-1,1.52-1.82,1.76-1.51.42-3.95,1.06-5.49,1.49,1,.27,5.26,1.41,6.13,1.67a1.67,1.67,0,0,1,1.18,1.57,1.69,1.69,0,0,1-1.76,1.65c-.73,0-.87-.16-2.27-1.44-1.12-1-2.3-2.13-3.44-3.17C188.9,30.41,189.1,31.21,189.57,32.91Z"/><path class="cls-3" d="M212.21,32.91a13.24,13.24,0,0,1,.39,1.81,1.74,1.74,0,0,1-3.47,0,13.07,13.07,0,0,1,.62-2.58c.34-1.25.48-1.86,1-3.64-1.82,1.65-2.46,2.21-3.44,3.17-1.4,1.28-1.54,1.44-2.27,1.44a1.71,1.71,0,0,1-1.76-1.65c0-1.25,1-1.52,1.82-1.75,1.51-.43,3.95-1.06,5.49-1.49-1-.27-5.26-1.41-6.13-1.68A1.67,1.67,0,0,1,203.22,25,1.69,1.69,0,0,1,205,23.31c.73,0,.87.16,2.27,1.44,1.12,1.06,2.27,2.13,3.44,3.17-.5-1.92-.7-2.69-1.18-4.42a13,13,0,0,1-.39-1.81,1.74,1.74,0,0,1,3.47,0,12.94,12.94,0,0,1-.62,2.58c-.34,1.25-.48,1.86-1,3.64,1.15-1,2.32-2.1,3.44-3.17,1.4-1.28,1.54-1.44,2.27-1.44A1.69,1.69,0,0,1,218.51,25c0,1.25-1,1.52-1.82,1.76-1.51.42-3.95,1.06-5.49,1.49,1,.27,5.26,1.41,6.13,1.67a1.67,1.67,0,0,1,1.18,1.57,1.69,1.69,0,0,1-1.76,1.65c-.73,0-.87-.16-2.27-1.44-1.12-1-2.3-2.13-3.44-3.17C211.54,30.41,211.73,31.21,212.21,32.91Z"/><path class="cls-3" d="M234.84,32.91a13.11,13.11,0,0,1,.39,1.81,1.74,1.74,0,0,1-3.47,0,13.07,13.07,0,0,1,.62-2.58c.34-1.25.48-1.86,1-3.64-1.82,1.65-2.46,2.21-3.44,3.17-1.4,1.28-1.54,1.44-2.27,1.44a1.71,1.71,0,0,1-1.76-1.65c0-1.25,1-1.52,1.82-1.75,1.51-.43,3.95-1.06,5.49-1.49-1-.27-5.26-1.41-6.13-1.68A1.67,1.67,0,0,1,225.85,25a1.69,1.69,0,0,1,1.76-1.65c.73,0,.87.16,2.27,1.44,1.12,1.06,2.27,2.13,3.44,3.17-.5-1.92-.7-2.69-1.18-4.42a13,13,0,0,1-.39-1.81,1.74,1.74,0,0,1,3.47,0,13,13,0,0,1-.62,2.58c-.34,1.25-.48,1.86-1,3.64,1.15-1,2.32-2.1,3.44-3.17,1.4-1.28,1.54-1.44,2.27-1.44A1.69,1.69,0,0,1,241.14,25c0,1.25-1,1.52-1.82,1.76-1.51.42-3.95,1.06-5.49,1.49,1,.27,5.26,1.41,6.13,1.67a1.67,1.67,0,0,1,1.18,1.57,1.69,1.69,0,0,1-1.76,1.65c-.73,0-.87-.16-2.27-1.44-1.12-1-2.3-2.13-3.44-3.17C234.17,30.41,234.37,31.21,234.84,32.91Z"/><path class="cls-3" d="M257.48,32.91a13.1,13.1,0,0,1,.39,1.81,1.74,1.74,0,0,1-3.47,0,13,13,0,0,1,.62-2.58c.34-1.25.48-1.86,1-3.64-1.82,1.65-2.46,2.21-3.44,3.17-1.4,1.28-1.54,1.44-2.27,1.44a1.71,1.71,0,0,1-1.76-1.65c0-1.25,1-1.52,1.82-1.75,1.51-.43,3.95-1.06,5.49-1.49-1-.27-5.26-1.41-6.13-1.68A1.67,1.67,0,0,1,248.49,25a1.69,1.69,0,0,1,1.76-1.65c.73,0,.87.16,2.27,1.44,1.12,1.06,2.27,2.13,3.44,3.17-.5-1.92-.7-2.69-1.18-4.42a13.18,13.18,0,0,1-.39-1.81,1.74,1.74,0,0,1,3.47,0,13,13,0,0,1-.62,2.58c-.34,1.25-.48,1.86-1,3.64,1.15-1,2.32-2.1,3.44-3.17,1.4-1.28,1.54-1.44,2.27-1.44A1.69,1.69,0,0,1,263.78,25c0,1.25-1,1.52-1.82,1.76-1.51.42-3.95,1.06-5.49,1.49,1,.27,5.26,1.41,6.13,1.67a1.67,1.67,0,0,1,1.18,1.57A1.69,1.69,0,0,1,262,33.1c-.73,0-.87-.16-2.27-1.44-1.12-1-2.3-2.13-3.44-3.17C256.81,30.41,257,31.21,257.48,32.91Z"/><path class="cls-3" d="M280.11,32.91a13.24,13.24,0,0,1,.39,1.81,1.74,1.74,0,0,1-3.47,0,13,13,0,0,1,.62-2.58c.34-1.25.48-1.86,1-3.64-1.82,1.65-2.46,2.21-3.44,3.17-1.4,1.28-1.54,1.44-2.27,1.44a1.71,1.71,0,0,1-1.76-1.65c0-1.25,1-1.52,1.82-1.75,1.51-.43,3.95-1.06,5.49-1.49-1-.27-5.26-1.41-6.13-1.68A1.67,1.67,0,0,1,271.13,25a1.69,1.69,0,0,1,1.76-1.65c.73,0,.87.16,2.27,1.44,1.12,1.06,2.27,2.13,3.44,3.17-.5-1.92-.7-2.69-1.18-4.42a13,13,0,0,1-.39-1.81,1.74,1.74,0,0,1,3.47,0,12.94,12.94,0,0,1-.62,2.58c-.34,1.25-.48,1.86-1,3.64,1.15-1,2.32-2.1,3.44-3.17,1.4-1.28,1.54-1.44,2.27-1.44A1.69,1.69,0,0,1,286.41,25c0,1.25-1,1.52-1.82,1.76-1.51.42-3.95,1.06-5.49,1.49,1,.27,5.26,1.41,6.13,1.67a1.67,1.67,0,0,1,1.18,1.57,1.69,1.69,0,0,1-1.76,1.65c-.73,0-.87-.16-2.27-1.44-1.12-1-2.3-2.13-3.44-3.17C279.44,30.41,279.64,31.21,280.11,32.91Z"/><path class="cls-3" d="M295.71,36.34a2.59,2.59,0,1,1-2.6-2.45A2.53,2.53,0,0,1,295.71,36.34Z"/><path class="cls-3" d="M311.07,26.66a1.75,1.75,0,0,1-1.85,1.81c-.59,0-1-.08-1.79-1.2a2.79,2.79,0,0,0-2.52-1.38c-2.41,0-3.19,2.74-3.19,4.71s1,4.68,3.47,4.68a2.74,2.74,0,0,0,2.49-1.33c.62-.8,1.06-1.06,1.76-1.06a1.63,1.63,0,0,1,1.76,1.7c0,1.17-2.3,4.23-6.1,4.23S298,35.91,298,30.54c0-3,1.2-8.17,7.25-8.17C307.77,22.38,311.07,24.35,311.07,26.66Z"/><path class="cls-3" d="M328.48,30.6c0,3.48-1.6,8.19-7.62,8.19s-7.64-4.71-7.64-8.19,1.62-8.22,7.64-8.22S328.48,27.11,328.48,30.6Zm-11.54,0c0,1.33.31,4.68,3.92,4.68s3.92-3.35,3.92-4.68-.34-4.71-3.92-4.71S316.94,29.24,316.94,30.6Z"/><path class="cls-3" d="M352,37a1.76,1.76,0,0,1-1.82,1.75A1.8,1.8,0,0,1,348.46,37v-9.1a1.92,1.92,0,0,0-2.16-2,2.76,2.76,0,0,0-2.8,3V37a1.76,1.76,0,0,1-1.82,1.75A1.83,1.83,0,0,1,339.92,37v-9.1a1.91,1.91,0,0,0-2.16-2,2.75,2.75,0,0,0-2.77,3V37a1.76,1.76,0,0,1-1.82,1.75A1.82,1.82,0,0,1,331.41,37V26.21c0-.29-.22-1.33-.36-2.07-.2-1,.73-1.76,1.88-1.76a2,2,0,0,1,2,1.46c.67-.67,1.51-1.46,4.09-1.46a4.53,4.53,0,0,1,3.72,1.49c.39-.42,1.32-1.49,4.2-1.49,3.28,0,5,1.62,5,3.91Z"/><rect class="cls-4" x="180" y="63.58" width="140" height="50" rx="8" ry="8"/><path class="cls-1" d="M217.09,94.39V97.9c0,.84,0,1.82-1.51,1.82s-1.54-1-1.54-1.82V94.39H207.9c-2.21,0-2.35-1.25-2.35-2.33V84c0-1.14.19-2.35,2.35-2.35H214v-.73c0-.87,0-1.82,1.51-1.82s1.54,1,1.54,1.82v.73h6.17c2.18,0,2.38,1.25,2.38,2.35v8c0,1.23-.29,2.33-2.38,2.33Zm-8.67-7.89H214V84.13h-4.92c-.41,0-.7.11-.7.64ZM214,91.83v-2.9h-5.62v2.12c0,.59.22.78.84.78Zm8.67-7c0-.52-.17-.68-.79-.68h-4.82V86.5h5.62Zm0,4.13h-5.62v2.9h4.85c.62,0,.77-.27.77-.78Z"/><path class="cls-1" d="M235,82.47c1,0,1.92,0,1.92,1.18S236,84.9,235,84.9h-5c-1,0-1.92,0-1.92-1.18s.86-1.25,1.92-1.25Zm-.82,3.33c.84,0,1.92,0,1.92,1s-1.08,1.07-1.92,1.07h-3.46c-.84,0-1.92,0-1.92-1.07s1.08-1,1.92-1Zm0,3c.86,0,1.92,0,1.92,1.09s-1.06,1.07-1.92,1.07h-3.46c-.86,0-1.92,0-1.92-1.09s1.06-1.07,1.92-1.07Zm1.92,8.43c0,1.39-.48,2.07-2.11,2.07h-3c-1.85,0-2.09-1-2.09-2.07V93.91c0-1.41.46-2.1,2.09-2.1h3c1.85,0,2.11,1,2.11,2.1ZM234.2,79.5c.91,0,1.87,0,1.87,1s-1,1-1.9,1H231c-.86,0-1.9,0-1.9-1s1-1,1.87-1Zm-.55,15.27c0-.55,0-.59-.62-.59h-1c-.6,0-.6,0-.6.59v1.5c0,.55,0,.57.6.57h1c.6,0,.62,0,.62-.57Zm8.09-8.87v-.64h-2c-.86,0-1.92,0-1.92-1.07s1.06-1.07,1.92-1.07h2v-.59h-2.86c-.91,0-1.92,0-1.92-1.12s1-1.16,1.92-1.16h2.86c0-.46.12-1.32,1.51-1.32s1.46.8,1.46,1.32h3.22c.91,0,1.92,0,1.92,1.14s-1,1.14-1.92,1.14h-3.22v.59h2.5c.84,0,1.9,0,1.9,1.07s-1.06,1.07-1.9,1.07h-2.5v.64h3.53c.86,0,1.92,0,1.92,1.07S249.1,88,248.24,88h-9.65c-.86,0-1.9,0-1.9-1.07s1-1.07,1.9-1.07ZM240,96.51v1.44c0,1,0,1.82-1.3,1.82-1.49,0-1.49-.66-1.49-1.82V91.06c0-1.94,1.15-2.23,2.4-2.23H247c2.09,0,2.45.82,2.45,2v6.66c0,.78,0,2.26-2.81,2.26-.38,0-3.41,0-3.41-1.46a1.08,1.08,0,0,1,1.08-1.07c.31,0,1.68.32,2,.32.48,0,.53-.07.53-.52v-.52Zm6.74-4.74c0-.55,0-.78-.55-.78h-5.4c-.67,0-.79.09-.79.78Zm0,2.74v-.87H240v.87Z"/><path class="cls-1" d="M263.93,81.51c0-1.19,0-2.44,1.61-2.44s1.61,1.25,1.61,2.44v.36l3.36,0c1.37,0,2.57,0,2.57,1.41s-1.25,1.48-2.54,1.48l-3.38,0v4a9.42,9.42,0,0,1,.63,3.15c0,6.25-7,7.82-8,7.82a1.57,1.57,0,0,1-1.66-1.62c0-1.16.79-1.37,2-1.73,3.07-.87,4.13-2.35,4.2-3.33a3.63,3.63,0,0,1-3,1.41,4.38,4.38,0,1,1,.1-8.73,6.82,6.82,0,0,1,2.54.48V84.79l-9.5.07c-1.3,0-2.54,0-2.54-1.44S253,82,254.41,82l9.53-.07Zm-4,8.62a1.68,1.68,0,0,0,1.85,1.62,1.72,1.72,0,0,0,1.9-1.64,1.88,1.88,0,0,0-3.74,0Z"/><path class="cls-1" d="M287,87c5.62,0,7.06,3.6,7.06,5.68,0,4.35-4.51,6.38-9.1,6.38-.91,0-6.29,0-6.29-3.76,0-1.8,1.56-3.37,4.42-3.37,4.34,0,4.8,3.08,4.94,4.06,2.3-.87,2.93-2.1,2.93-3.12,0-3.24-4-3.24-4.78-3.24a11.52,11.52,0,0,0-7.42,2.33c-1.75,1.19-1.94,1.3-2.62,1.3a1.57,1.57,0,0,1-1.61-1.6,2.11,2.11,0,0,1,1.2-1.73c4.32-2.85,5-3.26,11.28-7.14-3,.39-8.11.55-8.3.55a1.49,1.49,0,0,1-1.58-1.5c0-1.53,1.39-1.53,2.09-1.53l2.35,0c1.87,0,4.87-.14,5.76-.18.24,0,1.94-.09,2-.09,1.27,0,2.26.52,2.26,1.8A2.74,2.74,0,0,1,290.11,84a61.35,61.35,0,0,1-5.69,3.37A7,7,0,0,1,287,87ZM283,94.39c-.77,0-1.22.34-1.22.73,0,.64,1.08,1.25,2.42,1.25.22,0,.36,0,.62,0C284.76,95.78,284.66,94.39,283,94.39Z"/><path class="cls-5" d="M278.77,150.94s-14.48-14.61-27.46-11.5c-10,2.4-10.34,9,3.37,15.58,8,3.83,10.12,4,20.88,14,5.85,5.41,17.13,10.4,26.2,13.84l-23-31.94Z"/><path class="cls-6" d="M349.06,140.45c-.15-9.7-4.33-28.85-11.71-33.7s-12.12-.93-12.12-.93-5.59-4.28-11.43-2c-6.63,2.61-6.08,6.7-6.08,6.7s-6-6.22-13.55-3.5c-6.09,2.19-6.7,9.65-6.7,9.65s-18.4-30-24.73-36.47c-6-6.16-15.54-.32-13.07,8,2.39,8.06,28.2,60.92,29.07,62.69l23,31.94c5.54,2.1,10.26,3.61,12.42,4.28a6.65,6.65,0,0,0,3.22.19,84.82,84.82,0,0,0,12.08-3.75c7.28-2.67,13.11-6.09,16.69-7.65a5.75,5.75,0,0,0,3.45-5.44C349.41,163.37,349.2,149,349.06,140.45Z"/><path class="cls-7" d="M264,88l-8.67,4.67s-5.67-9,0-11.5C259.9,79.17,264,88,264,88Z"/></svg>