<svg id="レイヤー_1" data-name="レイヤー 1" xmlns="http://www.w3.org/2000/svg" viewBox="0 0 500 190"><defs><style>.cls-1{fill:#d6d9e2;}.cls-2{fill:#fff;}.cls-3{fill:#d2ef78;}.cls-4{fill:#e7e9ee;}.cls-5{fill:#066b74;}.cls-6{fill:#f35934;}.cls-7{fill:#b29605;}.cls-8{fill:#c6b405;}.cls-9{fill:#fdf9dc;}</style></defs><title>img_introduce_step1</title><path class="cls-1" d="M153.28,11.94h-113a6,6,0,0,0-6,6v158a6,6,0,0,0,6,6h138a6,6,0,0,0,6-6v-133Z"/><path class="cls-2" d="M150.28,8.94h-113a6,6,0,0,0-6,6v158a6,6,0,0,0,6,6h138a6,6,0,0,0,6-6v-133Z"/><path class="cls-1" d="M150.28,33.94a6,6,0,0,0,6,6h25l-31-31Z"/><rect class="cls-3" x="46.28" y="47.6" width="120" height="40"/><rect class="cls-4" x="45.95" y="114.94" width="120.67" height="4"/><rect class="cls-4" x="45.95" y="99.93" width="120.67" height="4"/><rect class="cls-4" x="45.95" y="129.94" width="120.67" height="4"/><rect class="cls-4" x="45.95" y="143.94" width="120.67" height="4"/><rect class="cls-4" x="45.95" y="157.94" width="120.67" height="4"/><path class="cls-5" d="M154,63.12v9a.51.51,0,0,0,.84.4L160,68.21A.79.79,0,0,0,160,67l-5.18-4.27A.51.51,0,0,0,154,63.12Z"/><rect class="cls-5" x="52.95" y="58.27" width="8.58" height="20"/><rect class="cls-5" x="67.95" y="58.27" width="15.33" height="20"/><rect class="cls-5" x="87.95" y="58.27" width="9.58" height="20"/><rect class="cls-5" x="102.96" y="58.27" width="15.33" height="20"/><path class="cls-6" d="M325.59,56.42c0-26.71-28.06-48.36-62.67-48.36s-62.67,21.65-62.67,48.36c0,24.8,24.2,45.23,55.37,48l5.9,16,7.88-15.92C301,102,325.59,81.44,325.59,56.42Z"/><path class="cls-7" d="M435.39,146.84h-4.65c-7.26-7.46-22.59-12.62-40.4-12.62s-33.15,5.16-40.4,12.62h-4.65l.18,9.84h0s0,.06,0,.09c.22,12.29,20.31,22.16,44.88,22.16s44.66-9.87,44.88-22.16c0,0,0-.06,0-.09h0Z"/><path class="cls-8" d="M435.51,140.18h-4.67c-7.28-7.5-22.65-12.69-40.51-12.69s-33.23,5.19-40.51,12.69h-4.67l.18,9.9h0s0,.06,0,.09c.22,12.35,20.37,22.27,45,22.27s44.77-9.92,45-22.27c0,0,0-.06,0-.09h0Z"/><path class="cls-7" d="M435.57,136.83H430.9c-7.29-7.52-22.68-12.73-40.57-12.73s-33.28,5.2-40.57,12.73H345.1l.18,9.92h0s0,.06,0,.09c.22,12.38,20.4,22.33,45.06,22.33s44.83-9.95,45.06-22.33c0,0,0-.06,0-.09h0Z"/><path class="cls-8" d="M435.7,130.11H431c-7.31-7.56-22.74-12.79-40.68-12.79s-33.37,5.23-40.68,12.79H345l.18,10h0s0,.06,0,.09c.23,12.45,20.45,22.45,45.18,22.45s45-10,45.18-22.45c0,0,0-.06,0-.09h0Z"/><path class="cls-7" d="M435.75,126.92h-4.69c-7.32-7.58-22.77-12.83-40.73-12.83s-33.41,5.24-40.73,12.83h-4.69l.18,10h0s0,.06,0,.09c.23,12.48,20.48,22.51,45.24,22.51s45-10,45.24-22.51c0,0,0-.06,0-.09h0Z"/><path class="cls-8" d="M435.88,120.14h-4.7c-7.34-7.62-22.83-12.9-40.84-12.9s-33.5,5.27-40.84,12.9h-4.7L345,130.2h0s0,.06,0,.09c.23,12.55,20.53,22.63,45.36,22.63s45.13-10.08,45.36-22.63c0,0,0-.06,0-.09h0Z"/><path class="cls-7" d="M435.93,116.93h-4.71c-7.35-7.64-22.86-12.93-40.89-12.93s-33.54,5.29-40.89,12.93h-4.71l.18,10.08h0s0,.06,0,.09c.23,12.58,20.56,22.69,45.42,22.69s45.19-10.11,45.42-22.69c0,0,0-.06,0-.09h0Z"/><path class="cls-8" d="M436.06,110.1h-4.72c-7.37-7.69-22.93-13-41-13s-33.64,5.31-41,13h-4.72l.18,10.14h0s0,.06,0,.1c.23,12.65,20.62,22.81,45.54,22.81s45.31-10.16,45.54-22.81c0,0,0-.06,0-.1h0Z"/><path class="cls-7" d="M436.11,107.06h-4.73c-7.37-7.7-23-13-41.05-13s-33.68,5.33-41.05,13h-4.73l.18,10.16h0s0,.06,0,.1c.23,12.68,20.64,22.86,45.59,22.86S435.7,130,435.93,117.31c0,0,0-.06,0-.1h0Z"/><path class="cls-8" d="M436.09,108.2c-.23,12.77-20.72,23-45.76,23s-45.53-10.26-45.76-23,20.25-23.46,45.76-23.46S436.33,95.3,436.09,108.2Z"/><path class="cls-7" d="M426.94,108.2H424c-.06,4.72-3.87,9-10,12s-14.45,5-23.7,5-17.6-1.89-23.7-5-9.91-7.32-10-12,3.66-9,9.75-12.15S381,91,390.34,91s17.82,1.94,23.93,5.07,9.81,7.42,9.75,12.15h5.86C430,97.06,412.35,88,390.34,88s-39.71,9.1-39.53,20.24,17.87,19.92,39.53,19.92,39.36-8.88,39.53-19.92Z"/><path class="cls-9" d="M381.86,111.65l0,6.74q0,2.36-4.34,2.36t-4.37-2.36L373,98.65q0-3.12,5.79-3.12H397.6q7.45,0,11.68,2t4.19,6.08q0,4-4.28,6t-11.64,2Zm0-4.43h14.09q5,0,6.9-.8a2.85,2.85,0,0,0,1.87-2.81,2.81,2.81,0,0,0-1.84-2.84Q401,100,396,100H381.82Z"/><path class="cls-5" d="M328.84,131.65l-22.3-22.06a4.64,4.64,0,1,0-6.52,6.59l14.28,14.13H228.76a4.64,4.64,0,1,0,0,9.27H314.3L300,153.71a4.64,4.64,0,1,0,6.52,6.59l22.3-22.06a4.64,4.64,0,0,0,0-6.59Z"/><circle class="cls-5" cx="214.5" cy="134.9" r="4.63"/><circle class="cls-5" cx="200.25" cy="134.9" r="4.63"/><path class="cls-2" d="M223.1,42.61a3.4,3.4,0,0,1,3.7-3.45h13a2.65,2.65,0,0,1,0,5.29H229.44c-.84,0-.92.21-1,.92l-.63,6.51A8.33,8.33,0,0,1,233.69,50c6.68,0,10.21,5.38,10.21,11.09C243.89,67.19,240,73,232.13,73c-6.8,0-11-4.45-11-7a2.68,2.68,0,0,1,2.69-2.77c.92,0,1.39.17,3,1.76a6.91,6.91,0,0,0,5.54,2.31c4.75,0,6-4,6-6.17s-1.3-5.88-5.67-5.88a5.82,5.82,0,0,0-4.71,2.14c-1.51,1.55-2,1.68-2.81,1.68A3,3,0,0,1,222,56Z"/><path class="cls-2" d="M270.56,55.72C270.56,64.63,268.21,73,259,73s-11.64-8.19-11.64-17.31c0-8.44,2.14-17.31,11.64-17.31C268.29,38.41,270.56,47,270.56,55.72Zm-17.31,0c0,6.89,1.34,11.64,5.71,11.64s5.71-4.5,5.71-11.64c0-6.93-1.39-11.64-5.71-11.64S253.26,48.79,253.26,55.72Z"/><path class="cls-2" d="M274.34,51.54c0-1,0-2.24,1.73-2.24,1.5,0,2,1.06,2.08,2.18A5.49,5.49,0,0,1,283,49.3c5.66,0,7.94,4.9,7.94,10S288.87,69,283.3,69a7.31,7.31,0,0,1-4.86-1.63v3.23a2.08,2.08,0,0,1-2,2.11,2.1,2.1,0,0,1-2.14-2Zm4.1,8.86a4.08,4.08,0,0,0,4.32,4.38c1.92,0,4.06-.77,4.06-5.79,0-1.44-.32-3.42-1.41-4.48a3.71,3.71,0,0,0-2.82-.93c-2.91,0-4.16,2.5-4.16,4.51Z"/><path class="cls-2" d="M294.82,53.69a1.91,1.91,0,0,1,0-3.81h1.5V46.39a2,2,0,0,1,2-2,1.93,1.93,0,0,1,2,2v3.52h3.78a1.91,1.91,0,0,1,0,3.81h-3.78v9.89c0,.38.1,1,.64,1s.8-.35,1.25-1.31c.67-1.44,1.28-1.73,2-1.73a2.05,2.05,0,0,1,2,2.08c0,1.38-1.76,5.44-5.54,5.44-4.19,0-4.32-3.94-4.32-5.31v-10Z"/><path class="cls-5" d="M457.54,69.27c-12.65,3.06-15.16,5.54-18.25,18-3.1-12.5-5.61-15-18.25-18,12.65-3.06,15.16-5.54,18.25-18C442.38,63.73,444.89,66.21,457.54,69.27Z"/><path class="cls-8" d="M468.72,44.12C459.79,46.29,458,48,455.83,56.86c-2.19-8.82-4-10.57-12.88-12.74,8.93-2.16,10.7-3.91,12.88-12.74C458,40.21,459.79,42,468.72,44.12Z"/></svg>