<svg id="レイヤー_1" data-name="レイヤー 1" xmlns="http://www.w3.org/2000/svg" viewBox="0 0 180 230"><defs><style>.cls-1{fill:#fefadd;}.cls-2{fill:#ffdb37;}.cls-3{fill:#066b74;}.cls-4{fill:#e8eaef;}.cls-5{fill:#89909f;}.cls-6{fill:#f45934;}.cls-7{fill:#fff;}</style></defs><title>img_newregist_3</title><rect class="cls-1" x="1.5" y="1.5" width="177" height="227" rx="10.5" ry="10.5"/><path class="cls-2" d="M168,3a9,9,0,0,1,9,9V218a9,9,0,0,1-9,9H12a9,9,0,0,1-9-9V12a9,9,0,0,1,9-9H168m0-3H12A12,12,0,0,0,0,12V218a12,12,0,0,0,12,12H168a12,12,0,0,0,12-12V12A12,12,0,0,0,168,0Z"/><path class="cls-3" d="M38.73,153.66a26.83,26.83,0,0,0,8,8.54c1.23.78,1.6,1.23,1.6,2a2.49,2.49,0,0,1-2,2.55c-1.34,0-2.49-1-4.54-2.86a3.77,3.77,0,0,1,.14,1c0,1.26-.56,2-1.57,2H36.85v3.47c0,1-.73,1.62-2,1.62s-2-.59-2-1.62v-3.47H29.37c-1,0-1.57-.7-1.57-2a3.73,3.73,0,0,1,.14-1,19.83,19.83,0,0,1-2.66,2.24,2.75,2.75,0,0,1-1.74.62,2,2,0,0,1-2-2.16c0-.92.36-1.48,1.57-2.35A32.26,32.26,0,0,0,30.83,154c.08-.11.14-.22.2-.31H23.49c-1,0-1.6-.7-1.6-2s.59-2,1.6-2h9.27V147c0-1,.73-1.62,2-1.62s2,.59,2,1.62v2.63h9.41c1,0,1.6.73,1.6,2s-.59,2-1.6,2Zm-6,4.34a31.61,31.61,0,0,1-3.86,4.93,1.71,1.71,0,0,1,.48-.08h3.39Zm7.5,4.84a3,3,0,0,1,.5.08A32.12,32.12,0,0,1,36.85,158v4.84Z"/><path class="cls-3" d="M67.26,159.79a22.19,22.19,0,0,0,5.4,6.16c1.2.9,2.35,1.74,2.35,2.52a2.69,2.69,0,0,1-2.32,2.6c-1,0-2.21-.7-3.78-2.13A23.28,23.28,0,0,1,62.25,159a24.29,24.29,0,0,1-8.37,11.2,4.14,4.14,0,0,1-2.41,1.06,2.67,2.67,0,0,1-2.27-2.72c0-.81.39-1.29,1.82-2.13a18.44,18.44,0,0,0,6.83-8.32A25.4,25.4,0,0,0,59.65,149c.06-2.27.08-3.53,2.07-3.53s2.41.56,2.41,2.41c0,1.23-.14,2.24-.22,3.08A32.73,32.73,0,0,0,67.26,159.79Z"/><path class="cls-3" d="M97.46,158.08v1.26h2.38c.73,0,1.12.53,1.12,1.43s-.42,1.43-1.12,1.43H97.46v1.29h2.38c.73,0,1.12.5,1.12,1.43s-.39,1.4-1.12,1.4H97.46v1.26h3.16c.87,0,1.34.62,1.34,1.68s-.48,1.65-1.34,1.65H90.21c-2.07,0-2.69-.56-2.69-2.55v-8.09a2.26,2.26,0,0,1-1.57-2v9.49c0,1.85-.53,2.38-2.38,2.38H80.1c-1.85,0-2.38-.53-2.38-2.38V161a2,2,0,0,1-1.85-1.9c0-.5.11-.73.67-1.6a19.17,19.17,0,0,0,2.58-7.17H77.8c-1,0-1.48-.67-1.48-1.88s.53-1.85,1.48-1.85h6.94c1.71,0,1.48,2.07,1.46,2.16.39-.84,1-1.12,2.49-1.12h3.22c.28-1.82.7-2.3,2-2.3a2,2,0,0,1,2.18,1.71c0,.08,0,.25-.06.59h3.64c2.07,0,2.69.59,2.69,2.55v2.1c0,1-.67,1.54-1.93,1.54-1.9,0-1.9-1-1.9-2.24,0-.5-.11-.62-.59-.62H95.25a18.68,18.68,0,0,1-2,3.95h.92c.39-.87.64-1.57.78-1.76a1.26,1.26,0,0,1,1.15-.56c1.18,0,2.32.73,2.32,1.48a2.89,2.89,0,0,1-.22.84h2.18c.81,0,1.26.56,1.26,1.57s-.45,1.57-1.26,1.57Zm-14.92,1.51c0-.48-.17-.48-.84-.48-.34,0-.45.14-.45.48v6.69c0,.48.17.48.81.48.34,0,.48-.14.48-.48Zm1.09-3.89c1.85,0,2.32.62,2.32,1.9.08-.53.28-.76,1.06-1.34A11.68,11.68,0,0,0,91,151h-.76c-.56,0-.62.06-.62.59,0,1.2,0,2.24-1.71,2.24h-.08c-1.2,0-1.88-.5-1.88-1.48v-2.16a4.51,4.51,0,0,1,0-.7,1.32,1.32,0,0,1-1.32.87H82.93a33.07,33.07,0,0,1-1.23,5.35Zm10.22,2.38h-2.6v1.26h2.6Zm0,4.12h-2.6v1.29h2.6Zm0,4.12h-2.6c0,1.15,0,1.26.56,1.26h2Z"/><path class="cls-3" d="M105.71,153.91c-.87,0-1.37-.62-1.37-1.71s.5-1.74,1.37-1.74h7.59c.9,0,1.37.62,1.37,1.74s-.5,1.71-1.37,1.71Zm8.21,13.36c.25-1.06.53-2.24.67-3.3.2-1.4.53-1.82,1.46-1.82,1.85,0,1.85,1.23,1.85,1.65A29.63,29.63,0,0,1,117,168c-.34,1.2-.59,1.48-1.37,1.48s-1.76-.45-1.76-1c0,1.88-.48,2.35-2.38,2.35h-4.06c-1.88,0-2.35-.48-2.35-2.35v-4c0-1.9.48-2.38,2.35-2.38h4.06c1.9,0,2.38.48,2.38,2.38Zm-7.2-17.61c-.84,0-1.32-.59-1.32-1.68s.48-1.68,1.32-1.68h5.6c.87,0,1.34.59,1.34,1.68s-.48,1.68-1.34,1.68Zm-.11,8c-.78,0-1.2-.53-1.2-1.51s.42-1.54,1.2-1.54h5.82c.78,0,1.23.56,1.23,1.54s-.45,1.51-1.23,1.51Zm0,3.81c-.81,0-1.23-.56-1.23-1.54s.42-1.57,1.23-1.57h5.77c.81,0,1.26.56,1.26,1.57s-.45,1.54-1.26,1.54Zm2.46,3.72c-.36,0-.45.08-.45.45v1.6c0,.36.08.45.45.45h.9c.36,0,.45-.08.45-.45v-1.6c0-.36-.08-.45-.45-.45Zm13.69-15.46a11.64,11.64,0,0,1-.62,2.77c.84.39,1.23.84,1.23,1.37,0,1-1,2.21-1.71,2.21a3,3,0,0,1-1.26-.42c-.14.17-2.8,3.3-4.62,3.3A1.91,1.91,0,0,1,114,157c0-.64.31-1,1.2-1.6a8.93,8.93,0,0,0,1.79-1.37c-1.32-.53-1.57-.78-1.57-1.43,0-1.09.73-2.13,1.54-2.13a5.87,5.87,0,0,1,1.93.53,8.25,8.25,0,0,0,.34-1.32h-3.5c-.92,0-1.43-.64-1.43-1.76s.5-1.79,1.43-1.79h11.54c1.88,0,2.58.64,2.58,2.38a49.78,49.78,0,0,1-.76,7.39c-.36,1.88-.92,2.63-3.33,2.63-2,0-2.77-.62-2.77-2.07,0-1.12.36-1.74,1.06-1.74.17,0,.45.06.67.06.48,0,.62-.2.73-1.09a34.62,34.62,0,0,0,.36-3.44c0-.53-.06-.56-1-.56Zm-4.51,13.19c0-.92.67-1.46,1.82-1.46a2.84,2.84,0,0,1,1.12.22,7.85,7.85,0,0,0-1-.9c-.78-.64-1.09-1.06-1.09-1.51a2,2,0,0,1,1.74-1.82c.59,0,1,.28,2,1.18,1.93,1.71,2.13,1.9,2.13,2.49A2,2,0,0,1,123.1,163a1.68,1.68,0,0,1-1.29-.67,1.66,1.66,0,0,1,.14.64v4.14c0,.67.08.67,1,.67.76,0,.81-.06.9-.87a1.22,1.22,0,0,1,1.4-1.23,2.9,2.9,0,0,1,1.68.48c-.22-.59-.53-1.23-.78-1.85a4.12,4.12,0,0,1-.39-1.4c0-.84,1-1.48,2.13-1.48.76,0,1.09.28,1.51,1.34a14.38,14.38,0,0,1,1.29,3.78,1.89,1.89,0,0,1-2,1.6c-.67,0-1-.25-1.43-1a4.32,4.32,0,0,1-1.37,3.67c-.53.31-1.46.42-3.61.42-3.3,0-4-.5-4-2.74Z"/><path class="cls-3" d="M134.58,161.66a2,2,0,0,1-.56.06,2.19,2.19,0,0,1-2.18-2.27c0-.59.11-.73,1.2-1.79a15.53,15.53,0,0,0,2.88-3.61c1-1.68,1.29-2,2.07-2a2.48,2.48,0,0,1,2.52,2.1c0,.9-.59,1.71-1.93,3.53v12.4c0,1-.73,1.6-2,1.6s-2-.56-2-1.6Zm5.18-14.14c0,.81-.56,1.71-2.07,3.33-1.71,1.79-2.55,2.41-3.44,2.41a2.23,2.23,0,0,1-2.07-2.21c0-.56.28-1,1.06-1.68a11.86,11.86,0,0,0,2.69-2.91,1.63,1.63,0,0,1,1.54-.92A2.17,2.17,0,0,1,139.76,147.52Zm13.86,12.38a1.78,1.78,0,0,1,1.93,1.93c0,1.29-1.26,3-3.28,4.82a20.84,20.84,0,0,0,4,1.12c1.15.2,1.48.59,1.48,1.57,0,1.34-.62,2.18-1.65,2.18a22.51,22.51,0,0,1-7.5-2.46c-4.7,2.32-7.56,2.49-7.78,2.49-1,0-1.68-.81-1.68-2s.42-1.51,1.93-1.71a15.24,15.24,0,0,0,4.14-1.15c-.31-.28-.78-.76-1.48-1.51-1.2,1-1.76,1.26-2.52,1.26a2,2,0,0,1-1.88-2.1,1.35,1.35,0,0,1,.73-1.29,12.82,12.82,0,0,0,4.48-4c-1,0-2.27.14-3,.14-1.06,0-1.68-.67-1.68-1.85,0-1.88,1.23-1.88,2.27-1.88a29.66,29.66,0,0,0,2.58-1.65,31.69,31.69,0,0,0-2.77-1.93c-.92-.5-1.18-.81-1.18-1.4a2.23,2.23,0,0,1,2-2.32,1.59,1.59,0,0,1,.62.11,11.29,11.29,0,0,0,1.93-1.88c.56-.76.84-.92,1.4-.92a2.28,2.28,0,0,1,2.24,2.07c0,.76-.7,1.57-2.58,2.86.42.34.84.73,1.26,1.06a45.57,45.57,0,0,0,3.5-3.53c.67-.78,1-1,1.71-1a2.09,2.09,0,0,1,2.07,2.1,2.33,2.33,0,0,1-.9,1.74,32.48,32.48,0,0,1-5.66,4.56c1.18-.06,2.44-.11,3.64-.2a1.77,1.77,0,0,1-.34-1,2.46,2.46,0,0,1,2.27-2c1,0,1.79,1.2,2.72,2.58.56.87,1,1.43,1.29,1.9a2.16,2.16,0,0,1,.28,1,2.32,2.32,0,0,1-2.21,2.13c-.73,0-.84-.17-1.71-1.46-1.6.2-3.47.36-5.32.48a6.69,6.69,0,0,1-.56,1.09Zm-7,3.14a13.28,13.28,0,0,0,2.07,1.82c.84-.5,1.88-1.43,1.88-1.71,0-.08-.08-.11-.28-.11Z"/><path class="cls-3" d="M40.42,191.09c-.87,0-1.37-.62-1.37-1.68-3.78,3.11-6.44,4.06-7.34,4.06a1.93,1.93,0,0,1-1.82-2c0-.92.42-1.37,1.76-1.88a25.78,25.78,0,0,0,2.52-1.26c-.53-.48-.87-.76-1.12-1-.92-.76-1.23-1.18-1.23-1.71a2.19,2.19,0,0,1,2-2,1.7,1.7,0,0,1,.7.17,2.87,2.87,0,0,1-.17-1c0-1,.5-1.65,1.34-1.65h5.15c1.15,0,1.6.11,2,.53A2.07,2.07,0,0,1,45,180.28c.78,0,1.09.17,1.57,1,.34.53.53.9.7,1.18.17-.2.56-.67.92-1.15.53-.67.9-.9,1.46-.9a2,2,0,0,1,2,1.9c0,1-1.71,2.58-2.18,3l1,1a15.83,15.83,0,0,0,1.79-1.82c.45-.53.73-.7,1.18-.7a2.14,2.14,0,0,1,2,1.82c0,1-1.6,2.41-2.18,2.88.76.42,1.48.76,2.21,1.12a1.58,1.58,0,0,1,1,1.43,2.29,2.29,0,0,1-1.9,2.35c-1.71,0-6.36-3.92-6.47-4.06,0,1.12-.5,1.74-1.37,1.74Zm11.82,6.47c0,2.35-.9,2.35-3.16,2.35.9.34,1.15.78,1.15,1.23a2.85,2.85,0,0,1-.34,1.15H54c.92,0,1.46.64,1.46,1.82s-.53,1.82-1.46,1.82H32.92c-.92,0-1.46-.64-1.46-1.82s.53-1.82,1.46-1.82h4.59c-.56-.92-.56-1-.56-1.26a1.31,1.31,0,0,1,.73-1.12c-2.07,0-3,0-3-2.35v-3.05c0-1.85.5-2.35,2.35-2.35H49.89c1.85,0,2.35.5,2.35,2.35Zm-16.66-13c.62.53,1.18,1.06,1.74,1.57a5.93,5.93,0,0,0,1.43-1.57Zm3.84,10.61c-.62,0-.62.11-.62,1,0,.5.11.62.62.62h8.09c.62,0,.62-.11.62-1,0-.5-.11-.62-.62-.62Zm6.22,7.08a7.31,7.31,0,0,0,.42-.81c.56-1.18.64-1.32,1.06-1.57H40.51a2.79,2.79,0,0,1,.78,1.68.83.83,0,0,1-.42.7Zm1-14.64a24.36,24.36,0,0,1-3.11-4.34c-.17,1.18-1,2.6-2.58,4.34Z"/><path class="cls-3" d="M62,190.45c-1,0-1.62,0-1.85-1a2,2,0,0,1-2.16-2.13c0-.56.2-.87.9-1.51a16.74,16.74,0,0,0,3.25-4.37c.48-.9.76-1.09,1.62-1.09,1.34,0,2.41.7,2.27,1.88,2.1,1.26,3.08,1.9,3.08,2.88a2.15,2.15,0,0,1-2,2.16,1.53,1.53,0,0,1,.67,1.51c0,1.65-.9,1.65-2.13,1.65v1.43H67c.87,0,1.34.62,1.34,1.68s-.48,1.68-1.34,1.68H65.62v2.91c.14-.45.28-.87.39-1.37.11-.67.39-1,1-1,.92,0,1.62.45,1.62,1a7.89,7.89,0,0,1-.48,1.93c-.28.76-.59,1-1.09,1a2.17,2.17,0,0,1-1.4-.5v1.6a2.61,2.61,0,0,1,.87-.2,1.29,1.29,0,0,1,1.09.78,1.6,1.6,0,0,1,.78-1.54,12.51,12.51,0,0,0,2-1.12c.9-.64,1.2-.78,1.74-.78,1.23,0,1.71,1.74,1.71,2.13,0,.62-.36,1.09-1.6,1.93a7.15,7.15,0,0,1-3,1.34,1.47,1.47,0,0,1-1.15-.78,1.37,1.37,0,0,1,0,.31c0,1.26-1,1.54-6.08,3a9.47,9.47,0,0,1-2.13.48c-.92,0-1.6-.87-1.6-2s.36-1.46,1.57-1.68c.76-.17,1.54-.34,2.16-.53V200.7a2.21,2.21,0,0,1-1.68.76c-.76,0-.87-.17-1.32-1.76a18.91,18.91,0,0,1-.84-2.52c0-.73.78-1.29,1.79-1.29s1.26.36,2,3.05v-3.7H59.68c-.87,0-1.34-.62-1.34-1.68s.48-1.68,1.34-1.68H62Zm4.56-3.33a3.86,3.86,0,0,1-.67-.59c-.48-.45-.9-.76-1.43-1.18-.34.5-.81,1.12-1.34,1.76Zm7.7,5.94H69.59c-.81,0-1.34-.56-1.34-1.68s.53-1.71,1.34-1.71h8.76c0-.39.06-.84.06-1.09h-7.7c-.7,0-1.09-.48-1.09-1.37s.39-1.37,1.09-1.37h7.84c0-1,0-1.06-.34-1.06h-7.7c-.84,0-1.32-.59-1.32-1.65s.48-1.68,1.32-1.68H80.4c1.88,0,2.1,1.06,2.1,2,0,1.51-.2,5-.28,6.27h.92c.87,0,1.34.62,1.34,1.68s-.48,1.71-1.34,1.71H77.83v.84a7.78,7.78,0,0,0,.78,1.51,12.93,12.93,0,0,0,1.6-1.32c.64-.59.81-.67,1.34-.67a2.32,2.32,0,0,1,2.24,1.9c0,1.12-2.13,2.44-3.11,3A17.6,17.6,0,0,0,83.51,201c1,.73,1.18,1.06,1.18,1.88a2,2,0,0,1-2,2.13c-1.74,0-4.14-3.28-4.87-4.76v2.55c0,2.72-1,3.7-3.86,3.7-2.3,0-3-.45-3-1.93,0-1.15.5-1.82,1.34-1.82.2,0,1,.08,1.29.08s.59-.2.59-.76Zm-.64,2.74a2.21,2.21,0,0,1-1.93,2c-.53,0-.67-.08-1.43-.78-1.2-1.06-1.32-1.23-1.32-1.68a2.22,2.22,0,0,1,2-2A3.44,3.44,0,0,1,73.57,195.8Z"/><path class="cls-3" d="M104,197v4.68c0,.73.11.87,1.18.87l1.76,0c.67,0,.78-.17,1-1.09.22-1.4.62-1.76,1.82-1.76s2.16.64,2.16,1.68a7.59,7.59,0,0,1-.92,3.39c-.7,1.09-1.71,1.34-5.26,1.34-4.54,0-5.74-.08-5.74-3.39V197H97.43a10.45,10.45,0,0,1-8.82,9.44,2.05,2.05,0,0,1-1.9-2.24c0-.87.39-1.32,1.54-1.71a6.72,6.72,0,0,0,4.12-3.05,7,7,0,0,0,.9-2.44H88.44c-1,0-1.48-.67-1.48-1.85s.53-1.88,1.48-1.88c3.16,0,13.3,0,21.76,0,.92,0,1.46.64,1.46,1.85s-.53,1.85-1.46,1.85ZM97.12,182.8c0-1.26,0-2.46,2.16-2.46s2.18,1.2,2.18,2.46H109c2,0,2.6.64,2.6,2.6v3c0,1-.73,1.6-2,1.6s-2-.59-2-1.6V187c0-.53-.08-.62-.62-.62H91.63c-.53,0-.62.08-.62.62v1.46c0,1-.7,1.57-2,1.57s-2-.56-2-1.57v-3c0-2,.64-2.6,2.6-2.6Zm-4.34,8.9c-1,0-1.46-.64-1.46-1.82s.53-1.82,1.46-1.82h13.08c.92,0,1.46.67,1.46,1.82s-.53,1.82-1.46,1.82Z"/><path class="cls-3" d="M124,190.9c0-1.18.81-1.79,2.27-1.79a3,3,0,0,1,1.4.28c.34-.25,1.18-.92,2.07-1.68,1.48-1.23,1.65-1.4,1.65-1.68s-.14-.31-.42-.31h-14.7c-1,0-1.6-.7-1.6-2s.59-2,1.6-2h18.84c1.76,0,2.74.76,2.74,2.16s-.87,2.63-3.25,5a57,57,0,0,1-6.08,5.07v9.24c0,2.38-1.18,3.19-4.65,3.19s-4.42-.5-4.42-2.32c0-1.4.56-2.18,1.6-2.18.5,0,1.54.14,2,.14.64,0,.92-.31.92-1Z"/><path class="cls-3" d="M149,197.5c-.07,1.26-1,2-2.45,2s-2.48-.75-2.55-2l-.61-14.31c0-.51,0-2.82,3.09-2.82,2,0,3.2,1.05,3.13,2.82Zm.65,6.32a3.13,3.13,0,1,1-6.26,0,3.13,3.13,0,1,1,6.26,0Z"/><rect class="cls-4" x="95.97" y="87.9" width="30.7" height="29.67"/><path class="cls-5" d="M82,71.34l9.39,1.23A3.34,3.34,0,0,0,95,70.3L96.07,67a3.34,3.34,0,0,1,3.27-2.3,136.08,136.08,0,0,1,14.13.88,135.8,135.8,0,0,1,13.83,3,3.34,3.34,0,0,1,2.51,3.11l.13,3.49a3.33,3.33,0,0,0,2.84,3.18l9.36,1.4a3.34,3.34,0,0,0,3.64-2.18l1.85-5.18c2.2-4.61.1-8.69-5.17-11.07s-16.85-5.94-27.36-7.41-22.62-1.23-28.34-.4-8.86,4.19-8,9.22l.35,5.48A3.34,3.34,0,0,0,82,71.34Z"/><path class="cls-5" d="M111.71,108.42a5.85,5.85,0,1,0-4.14-1.71A5.82,5.82,0,0,0,111.71,108.42Z"/><path class="cls-5" d="M141.93,100.38s-5.66-5.1-8.17-8.92c-6.49-9.92-6.91-18.33-6.91-18.33a1.15,1.15,0,0,0-1.07-.74h-6.16a1.15,1.15,0,0,0-1.15,1.15V78a1.15,1.15,0,0,1-1.15,1.15H106.1A1.15,1.15,0,0,1,105,78V73.53a1.15,1.15,0,0,0-1.15-1.15H97.64a1.15,1.15,0,0,0-1.08.74s-.43,8.46-7,18.42c-2.5,3.8-8.1,8.83-8.1,8.83a8.43,8.43,0,0,0-2.22,5.7v1.2a16.47,16.47,0,0,0,16.47,16.47h31.92a16.47,16.47,0,0,0,16.47-16.47v-1.2A8.43,8.43,0,0,0,141.93,100.38Zm-44.19,2.19a14,14,0,1,1,4.09,9.87A13.93,13.93,0,0,1,97.75,102.56Z"/><ellipse class="cls-6" cx="53.84" cy="44.98" rx="33.75" ry="18.25" transform="translate(-12.14 21.13) rotate(-20)"/><path class="cls-7" d="M39.37,46.53a1.34,1.34,0,0,1-.81,1.82c-.42.15-.69.18-1.59-.43a2.07,2.07,0,0,0-2.15-.38c-1.7.62-1.51,2.85-1,4.31s2,3.22,3.71,2.58c.59-.21,1-.47,1.4-1.62.22-.75.46-1.06,1-1.24a1.26,1.26,0,0,1,1.7.81c.32.87-.48,3.73-3.16,4.7s-5.77-.33-7.22-4.32c-.82-2.25-1.36-6.37,2.91-7.92C35.89,44.2,38.75,44.81,39.37,46.53Z"/><path class="cls-7" d="M52.75,45c.94,2.58,1.09,6.49-3.15,8s-6.66-1.53-7.6-4.12-1.07-6.51,3.17-8.06S51.81,42.38,52.75,45Zm-8.13,3c.36,1,1.48,3.39,4,2.47s1.86-3.49,1.5-4.48-1.51-3.41-4-2.49S44.25,46.92,44.62,47.93Z"/><path class="cls-7" d="M66.39,45.32c.22.61.5,1.38-.56,1.77-.91.33-1.44-.21-1.77-.87a3.61,3.61,0,0,1-2.51,2.43c-3.49,1.27-6-1.23-7.15-4.37s-.87-6.5,2.54-7.74a4.8,4.8,0,0,1,3.39-.07l-1.39-3.83a1.34,1.34,0,0,1,.74-1.72,1.36,1.36,0,0,1,1.76.79Zm-4.5-4.55A2.65,2.65,0,0,0,58.27,39c-.67.24-2.53.92-1.25,4.41.53,1.46,1.63,3.3,3.72,2.54a2.81,2.81,0,0,0,1.68-3.79Z"/><path class="cls-7" d="M69.83,39.8c.3.65,1.26,2.6,3.35,1.84.65-.24,1-.58,1.33-1.69.22-.86.44-1.12,1-1.32a1.3,1.3,0,0,1,1.6.89c.53,1.46-.68,3.71-3.11,4.59-1.72.63-5.26.89-7.08-4.1-1.68-4.62.26-7.2,2.49-8a4.89,4.89,0,0,1,6.27,3.17c.52,1.42.43,2.35-.64,2.73Zm2.72-3.63c.41-.15.48-.29.42-.44a2.13,2.13,0,0,0-2.66-1.29c-1.68.61-1.36,2.53-1.27,3Z"/><path class="cls-6" d="M50.3,61.76s-1.07,4.9,1.68,8.06a8.38,8.38,0,0,0,6.34,2.95,7.8,7.8,0,0,1-3.88-5.2c-.77-3.71,5.09-7.07,5.09-7.07Z"/></svg>