<svg id="レイヤー_1" data-name="レイヤー 1" xmlns="http://www.w3.org/2000/svg" viewBox="0 0 500 200"><defs><style>.cls-1{fill:#066b74;}.cls-2{fill:#f35934;}.cls-3{fill:#fff;}.cls-4{fill:#b29605;}.cls-5{fill:#c6b405;}.cls-6{fill:#fdf9dc;}.cls-7{fill:#333;}.cls-8{fill:#888f9e;}.cls-9{fill:#9ea4b0;}.cls-10{fill:#9cd155;}.cls-11{fill:#b4e06e;}</style></defs><title>img_introduce_step3</title><path class="cls-1" d="M334.81,148l-22.3-22.06A4.64,4.64,0,1,0,306,132.5l14.28,14.13H214.74a4.64,4.64,0,1,0,0,9.27H320.27L306,170a4.64,4.64,0,1,0,6.52,6.59l22.3-22.06a4.64,4.64,0,0,0,0-6.59Z"/><circle class="cls-1" cx="200.48" cy="151.21" r="4.63"/><circle class="cls-1" cx="186.23" cy="151.21" r="4.63"/><path class="cls-2" d="M348.9,62.2c0-30.38-40.29-55-90-55s-90,24.62-90,55c0,29.07,36.92,52.88,83.67,54.86l6.67,15.81L265.94,117C312.35,114.84,348.9,91.13,348.9,62.2Z"/><path class="cls-3" d="M192.22,59.79a3.23,3.23,0,0,1,3.52-3.28h12.4a2.52,2.52,0,0,1,0,5h-9.92c-.8,0-.88.2-1,.88l-.6,6.2a7.93,7.93,0,0,1,5.6-1.8c6.36,0,9.72,5.12,9.72,10.56,0,5.8-3.72,11.36-11.2,11.36-6.48,0-10.52-4.24-10.52-6.64a2.55,2.55,0,0,1,2.56-2.64c.88,0,1.32.16,2.84,1.68a6.58,6.58,0,0,0,5.28,2.2c4.52,0,5.72-3.84,5.72-5.88s-1.24-5.6-5.4-5.6a5.54,5.54,0,0,0-4.48,2c-1.44,1.48-1.88,1.6-2.68,1.6a2.86,2.86,0,0,1-3-3Z"/><path class="cls-3" d="M246,70.51a4,4,0,0,1,2-1.12,2,2,0,0,1,2,1.84c0,1.6-4.24,5.68-10.36,5.68-1.28,0-3.64,0-9.2-2.52-1.2-.52-3.84-1.72-5.64-1.72a8.52,8.52,0,0,0-4.8,1.76,4.73,4.73,0,0,1-2.08.92,1.91,1.91,0,0,1-2-2c0-2.08,5.24-4.6,8.88-4.6,1.24,0,2.92.2,7,2.12,3,1.4,5.6,2.36,7.88,2.36A9.16,9.16,0,0,0,246,70.51Z"/><path class="cls-3" d="M256.74,66.75a2.51,2.51,0,0,1-1.64.52,2.46,2.46,0,0,1-2.6-2.6,2.7,2.7,0,0,1,.92-2.2l6.68-5.88a3.6,3.6,0,0,1,2.4-.8,2.73,2.73,0,0,1,3.08,2.76v27.4a2.59,2.59,0,0,1-2.68,2.8,2.66,2.66,0,0,1-2.76-2.88v-22Z"/><path class="cls-3" d="M295.14,72.27c0,8.48-2.24,16.48-11,16.48S273,80.95,273,72.27c0-8,2-16.48,11.08-16.48C293,55.79,295.14,64,295.14,72.27Zm-16.48,0c0,6.56,1.28,11.08,5.44,11.08s5.44-4.28,5.44-11.08c0-6.6-1.32-11.08-5.44-11.08S278.66,65.67,278.66,72.27Z"/><path class="cls-3" d="M305,73.55c-5.28,0-7.32-4.56-7.32-8.88s2.08-8.88,7.32-8.88c5.4,0,7.36,4.64,7.36,8.88S310.45,73.55,305,73.55Zm17.76-17a1.36,1.36,0,0,1,1.2-.76,1.21,1.21,0,0,1,1.24,1.2,1.54,1.54,0,0,1-.36.88L303,88c-.32.4-.6.76-1.2.76a1.21,1.21,0,0,1-1.24-1.2,1.44,1.44,0,0,1,.36-.88Zm-20.6,8.12c0,2.2.92,4.56,2.84,4.56s2.88-2.36,2.88-4.56-.92-4.6-2.88-4.6S302.21,62.47,302.21,64.67Zm18.52,24.08c-5.28,0-7.32-4.56-7.32-8.88S315.49,71,320.73,71s7.36,4.64,7.36,8.88S326.13,88.75,320.73,88.75Zm-2.88-8.88c0,2.2,1,4.6,2.88,4.6s2.88-2.4,2.88-4.6-.92-4.56-2.88-4.56S317.85,77.67,317.85,79.87Z"/><path class="cls-3" d="M205.44,42.82A1.55,1.55,0,0,1,204,41.19a1.81,1.81,0,0,1,.73-1.32c1.15-1.15,3.14-3.14,3.42-3.45-.25-1.09-.48-1.79-.7-2.52-1.62,1.26-1.93,1.26-2.24,1.26-1,0-1.4-1.15-1.4-1.6a1.48,1.48,0,0,1,.53-1.18c.28-.28,1.68-1.37,2-1.62a15.69,15.69,0,0,0-1.46-2.69c-.42-.59-.42-.81-.42-.92a1.73,1.73,0,0,1,1.71-1.51c1,0,2.21,2,2.52,2.55.2-.25,1.09-1.37,1.26-1.62a1.3,1.3,0,0,1,1.15-.62,1.76,1.76,0,0,1,1.68,1.65c0,.5-1.48,2.58-2.6,3.84a32.09,32.09,0,0,1,2,11c0,6.8-2,8.15-4.45,8.15-1,0-3.25-.14-3.25-1.62A1.68,1.68,0,0,1,206,47.16c.22,0,1.2.2,1.4.2.76,0,1.54-.25,1.54-4.28,0-.62,0-1.48-.11-2.63C207.82,41.39,206.37,42.82,205.44,42.82ZM226.28,34c1.51,0,2.18,0,2.18.87s-.67.9-2.18.9h-2.49v.87h2.66c1.29,0,2.13,0,2.13.9s-.84.87-2.13.87h-2.66v.92h3.3c.84,0,2.18,0,2.18,1.12s-1.34,1.09-2.18,1.09H216.45c-1.54,0-2.66-.73-2.66-2.46V36.41a1.42,1.42,0,0,1-.45.08A1.56,1.56,0,0,1,211.86,35c0-.53.17-.76,1.71-2.77.28-.39,1.46-2.07,1.76-2.38a1.21,1.21,0,0,1,.92-.42,1.78,1.78,0,0,1,.64.11,1.89,1.89,0,0,1-.08-.64h-1.68c-1.15,0-2.18,0-2.18-1.18s1-1.18,2.18-1.18h1.68a1.37,1.37,0,0,1,1.46-1.6c1.26,0,1.62.59,1.65,1.6H223a1.34,1.34,0,0,1,1.48-1.43c1,0,1.65.25,1.71,1.46h1.26c1.15,0,2.16,0,2.16,1.15s-1,1.18-2.16,1.18h-1.23c-.06.56-.14,1.51-1.57,1.51a2.54,2.54,0,0,1-.84-.11,1.9,1.9,0,0,1,.06.87h3.08c1.51,0,2.16,0,2.16,1s-.81,1.06-2.16,1.06h-3.14V34Zm.22,8.32c2,0,2.44,1,2.44,1.65,0,1.06-1.74,2.35-3.14,3.33.84.17,1.76.28,2.86.42a1.31,1.31,0,0,1,1.18,1.46,1.38,1.38,0,0,1-1.4,1.48,22.69,22.69,0,0,1-6.55-1.4,37.93,37.93,0,0,1-7.59,1.63c-.48,0-1.79,0-1.79-1.48a1.37,1.37,0,0,1,.9-1.4c.39-.08,3.67-.59,4.37-.76a16.17,16.17,0,0,1-3.22-2.66h-.22c-1.15,0-1.62-.36-1.62-1.12,0-1.15,1-1.15,2.18-1.15ZM220.2,34v-.87h-2.38c-.48,0-.64.14-.64.87Zm-3,1.76v.87h3v-.87Zm0,2.63c0,.81,0,.92.62.92h2.41v-.92Zm2.74-9.55c0,.53-.11,1.51-1.6,1.51a1.86,1.86,0,0,1-.48-.06.66.66,0,0,1,.14.36,4.13,4.13,0,0,1-.08.45h2.63c.5-1.32.73-1.88,1.74-1.88a1.77,1.77,0,0,1,.76.17,2.4,2.4,0,0,1-.08-.56Zm-.73,15.74A18.55,18.55,0,0,0,221.88,46c.5-.22,2.1-.92,2.1-1.32,0-.14-.22-.14-.36-.14Z"/><path class="cls-3" d="M235,39.93c-.81.64-1.18.7-1.51.7a1.66,1.66,0,0,1-1.68-1.71,1.42,1.42,0,0,1,.64-1.23,26,26,0,0,0,4.31-4.76c.78-1.29,1-1.71,1.82-1.71.34,0,1.76.34,1.76,1.54,0,.87-1.23,2.46-2.07,3.61V48.45c0,1,0,2.3-1.62,2.3s-1.65-1.2-1.65-2.3Zm.25-8.32a2.22,2.22,0,0,1-1.48.67,1.7,1.7,0,0,1-1.57-1.62c0-.53.22-.76,2.1-2.8.34-.34,1.68-2,2-2.32a1.49,1.49,0,0,1,1.18-.5,1.74,1.74,0,0,1,1.65,1.9C238.88,28,236.27,30.72,235.26,31.62Zm19.6,8.71h.62c1.15,0,2.24,0,2.24,1.46s-1.09,1.48-2.24,1.48h-.62v4.2c0,3-2.41,3-3.89,3-3.56,0-3.92-.76-3.92-1.82,0-.53.28-1.76,1.4-1.76.36,0,1.93.28,2.27.28s.78,0,.78-.7V43.27h-7.11c.67.7,2.27,2.63,2.27,3.45a1.56,1.56,0,0,1-1.54,1.48c-.78,0-.9-.17-2-1.68-.17-.22-1-1.23-1.09-1.43a1.46,1.46,0,0,1-.28-.81,1.22,1.22,0,0,1,.45-1c-1.71,0-2.66,0-2.66-1.48s1.09-1.46,2.24-1.46h9.72V39.15H242c-1.09,0-2.24,0-2.24-1.4s1.15-1.4,2.24-1.4h13.5c1.09,0,2.24,0,2.24,1.4s-1.18,1.4-2.24,1.4h-.62ZM254,25.51a2.24,2.24,0,0,1,2.58,2.38v5c0,1.93-1.46,2.35-2.58,2.35H243.36a2.24,2.24,0,0,1-2.58-2.35v-5a2.28,2.28,0,0,1,2.58-2.38Zm-.9,3.56c0-.76,0-1-.56-1h-7.78c-.59,0-.59.22-.59,1Zm-8.93,2.52c0,.79,0,1,.59,1h7.78c.56,0,.59-.2.59-1Z"/><path class="cls-3" d="M272.67,37.64a15.77,15.77,0,0,1-6.44,12.07,5.08,5.08,0,0,1-2.63,1.2,1.91,1.91,0,0,1-1.76-1.9c0-.92.2-1,2.27-2.32A11.31,11.31,0,0,0,268.19,42a13.29,13.29,0,0,0,1.18-4.37h-2.72c-1.34,0-2.18,0-2.24-1.57-1.74,1.51-2.38,1.51-2.8,1.51a1.85,1.85,0,0,1-1.82-1.82c0-.84.25-1,2.6-2.8a15.93,15.93,0,0,0,4.56-6c.25-.59.64-1.43,1.62-1.43a1.79,1.79,0,0,1,1.85,1.68c0,2.18-3.84,6.72-4.17,7.06H280A23.85,23.85,0,0,1,276,29a.93.93,0,0,0-1-.59H273.6c-1,0-2.35,0-2.35-1.68s1.34-1.68,2.35-1.68h1.85c2.21,0,2.27.06,3.22,1.43,2.8,4,3.3,4.76,6.36,7.2a2,2,0,0,1,.92,1.6,1.92,1.92,0,0,1-1.76,1.88,3.64,3.64,0,0,1-1.93-.9,41.79,41.79,0,0,1,.2,4.28c0,7.48-1.09,10.22-5.68,10.22a17.34,17.34,0,0,1-4.2-.59,1.51,1.51,0,0,1-.81-1.48c0-.53.31-1.88,1.48-1.88.28,0,2.69.5,3.19.5a1.94,1.94,0,0,0,2.13-1.4,35.19,35.19,0,0,0,.53-7c0-1.06,0-1.34-.76-1.34Z"/><path class="cls-3" d="M299.24,44.89a5.52,5.52,0,0,1-4.48,2.63c-3.78,0-6.16-4-6.16-8.18,0-7.25,5.94-12.18,12.85-12.18,5.85,0,11.76,3.44,11.76,11,0,9.35-8.65,11.14-10.89,11.14a1.83,1.83,0,0,1-2-2c0-1.46.84-1.62,2.72-2a8.4,8.4,0,0,0,3.92-1.62,7.49,7.49,0,0,0-4.54-13.1C302.72,38.39,300.76,42.65,299.24,44.89Zm-7-5.63c0,2.77,1.43,4.37,2.63,4.37s2.24-2.6,2.49-3.39a26.78,26.78,0,0,0,1.48-9.13A8.13,8.13,0,0,0,292.24,39.26Z"/><path class="cls-4" d="M169.87,181.78h-1.62c-2.52-2.56-7.85-4.33-14-4.33s-11.51,1.77-14,4.33h-1.62l.06,3.38h0s0,0,0,0c.08,4.22,7.06,7.61,15.59,7.61s15.52-3.39,15.59-7.61c0,0,0,0,0,0h0Z"/><path class="cls-5" d="M169.92,179.49h-1.62c-2.53-2.58-7.87-4.36-14.07-4.36s-11.54,1.78-14.07,4.36h-1.62l.06,3.4h0s0,0,0,0c.08,4.24,7.08,7.65,15.63,7.65s15.56-3.41,15.63-7.65c0,0,0,0,0,0h0Z"/><path class="cls-4" d="M169.94,178.4h-1.62c-2.53-2.58-7.88-4.37-14.09-4.37s-11.56,1.79-14.09,4.37h-1.62l.06,3.41h0s0,0,0,0c.08,4.25,7.08,7.67,15.65,7.67s15.58-3.42,15.65-7.67c0,0,0,0,0,0h0Z"/><path class="cls-5" d="M170,176.09h-1.63c-2.54-2.6-7.9-4.39-14.13-4.39s-11.59,1.8-14.13,4.39h-1.63l.06,3.42h0s0,0,0,0c.08,4.27,7.1,7.71,15.69,7.71s15.62-3.43,15.69-7.71c0,0,0,0,0,0h0Z"/><path class="cls-4" d="M170,175h-1.63c-2.54-2.6-7.91-4.4-14.15-4.4s-11.6,1.8-14.15,4.4h-1.63l.06,3.43h0s0,0,0,0c.08,4.28,7.11,7.73,15.71,7.73s15.64-3.44,15.71-7.73c0,0,0,0,0,0h0Z"/><path class="cls-5" d="M170,172.68h-1.63c-2.55-2.62-7.93-4.43-14.18-4.43s-11.64,1.81-14.18,4.43H138.4l.06,3.45h0s0,0,0,0c.08,4.31,7.13,7.77,15.75,7.77s15.68-3.46,15.75-7.77c0,0,0,0,0,0h0Z"/><path class="cls-4" d="M170.06,171.57h-1.64c-2.55-2.62-7.94-4.44-14.2-4.44s-11.65,1.81-14.2,4.44h-1.64l.06,3.46h0s0,0,0,0c.08,4.32,7.14,7.79,15.77,7.79s15.7-3.47,15.77-7.79c0,0,0,0,0,0h0Z"/><path class="cls-5" d="M170.1,169.23h-1.64c-2.56-2.64-8-4.46-14.24-4.46s-11.68,1.82-14.24,4.46h-1.64l.06,3.48h0s0,0,0,0c.08,4.34,7.16,7.83,15.82,7.83S170,177.08,170,172.74c0,0,0,0,0,0h0Z"/><path class="cls-4" d="M170.12,168.05h-1.64c-2.56-2.64-8-4.47-14.26-4.47s-11.7,1.83-14.26,4.47h-1.64l.06,3.49h0s0,0,0,0c.08,4.35,7.17,7.85,15.84,7.85s15.76-3.5,15.84-7.85c0,0,0,0,0,0h0Z"/><path class="cls-5" d="M170.17,165.69h-1.65c-2.57-2.66-8-4.5-14.3-4.5s-11.73,1.84-14.3,4.5h-1.65l.06,3.51h0s0,0,0,0c.08,4.38,7.19,7.89,15.88,7.89s15.8-3.52,15.88-7.89c0,0,0,0,0,0h0Z"/><path class="cls-4" d="M170.19,164.57h-1.65c-2.57-2.67-8-4.51-14.32-4.51s-11.74,1.84-14.32,4.51h-1.65l.06,3.52h0s0,0,0,0c.08,4.39,7.2,7.91,15.9,7.91s15.82-3.52,15.9-7.91c0,0,0,0,0,0h0Z"/><path class="cls-5" d="M170.23,162.19h-1.65c-2.58-2.68-8-4.53-14.35-4.53s-11.78,1.85-14.35,4.53h-1.65l.06,3.53h0s0,0,0,0c.08,4.41,7.22,8,15.94,8s15.86-3.54,15.94-8c0,0,0,0,0,0h0Z"/><path class="cls-4" d="M170.25,161.06h-1.66c-2.58-2.69-8-4.54-14.37-4.54s-11.79,1.86-14.37,4.54h-1.66l.06,3.54h0s0,0,0,0c.08,4.42,7.23,8,16,8s15.88-3.55,16-8c0,0,0,0,0,0h0Z"/><path class="cls-5" d="M170.29,158.66h-1.66c-2.59-2.7-8.06-4.57-14.41-4.57s-11.82,1.87-14.41,4.57h-1.66l.06,3.56h0s0,0,0,0c.08,4.45,7.25,8,16,8s15.93-3.57,16-8c0,0,0,0,0,0h0Z"/><path class="cls-4" d="M170.31,157.59h-1.66c-2.59-2.71-8.07-4.58-14.43-4.58s-11.84,1.87-14.43,4.58h-1.66l.06,3.57h0s0,0,0,0c.08,4.46,7.26,8,16,8s15.95-3.58,16-8c0,0,0,0,0,0h0Z"/><path class="cls-5" d="M170.31,158c-.08,4.49-7.28,8.09-16.08,8.09s-16-3.61-16.08-8.09,7.12-8.24,16.08-8.24S170.39,153.45,170.31,158Z"/><path class="cls-4" d="M167.09,158h-1c0,1.66-1.36,3.15-3.51,4.23a20.8,20.8,0,0,1-16.66,0c-2.15-1.08-3.48-2.57-3.51-4.23s1.29-3.17,3.43-4.27a20.75,20.75,0,0,1,16.82,0c2.14,1.1,3.45,2.61,3.43,4.27h2.06c.06-3.92-6.16-7.11-13.9-7.11s-14,3.2-13.9,7.11,6.28,7,13.9,7,13.84-3.12,13.9-7Z"/><path class="cls-6" d="M151.24,159.2v2.37q0,.83-1.53.83t-1.54-.83l0-6.94q0-1.1,2-1.1h6.6a9.77,9.77,0,0,1,4.11.7,2.25,2.25,0,0,1,1.47,2.14,2.29,2.29,0,0,1-1.5,2.12,9.73,9.73,0,0,1-4.09.7Zm0-1.56h5a7,7,0,0,0,2.43-.28,1,1,0,0,0,.66-1,1,1,0,0,0-.65-1,7.19,7.19,0,0,0-2.43-.27h-5Z"/><path class="cls-2" d="M6.12,167.49a1.88,1.88,0,0,1-1.23.39,1.84,1.84,0,0,1-1.95-1.95,2,2,0,0,1,.69-1.65l5-4.41a2.7,2.7,0,0,1,1.8-.6,2,2,0,0,1,2.31,2.07v20.55a1.94,1.94,0,0,1-2,2.1,2,2,0,0,1-2.07-2.16V165.3Z"/><path class="cls-2" d="M35,171.63C35,178,33.36,184,26.76,184s-8.31-5.85-8.31-12.36c0-6,1.53-12.36,8.31-12.36S35,165.43,35,171.63Zm-12.36,0c0,4.92,1,8.31,4.08,8.31s4.08-3.21,4.08-8.31c0-4.95-1-8.31-4.08-8.31S22.68,166.69,22.68,171.63Z"/><path class="cls-2" d="M37.53,179.23a2.75,2.75,0,0,1,2.76-2.76,2.78,2.78,0,0,1,2.79,3c0,3.24-3.48,6-4.35,6a.82.82,0,0,1-.84-.84c0-.45.12-.54,1.11-1.29A7.49,7.49,0,0,0,40.26,182,2.76,2.76,0,0,1,37.53,179.23Z"/><path class="cls-2" d="M62.1,171.63C62.1,178,60.42,184,53.82,184s-8.31-5.85-8.31-12.36c0-6,1.53-12.36,8.31-12.36S62.1,165.43,62.1,171.63Zm-12.36,0c0,4.92,1,8.31,4.08,8.31s4.08-3.21,4.08-8.31c0-4.95-1-8.31-4.08-8.31S49.74,166.69,49.74,171.63Z"/><path class="cls-2" d="M81.46,171.63c0,6.36-1.68,12.36-8.28,12.36s-8.31-5.85-8.31-12.36c0-6,1.53-12.36,8.31-12.36S81.46,165.43,81.46,171.63Zm-12.36,0c0,4.92,1,8.31,4.08,8.31s4.08-3.21,4.08-8.31c0-4.95-1-8.31-4.08-8.31S69.1,166.69,69.1,171.63Z"/><path class="cls-2" d="M100.82,171.63c0,6.36-1.68,12.36-8.28,12.36s-8.31-5.85-8.31-12.36c0-6,1.53-12.36,8.31-12.36S100.82,165.43,100.82,171.63Zm-12.36,0c0,4.92,1,8.31,4.08,8.31s4.08-3.21,4.08-8.31c0-4.95-1-8.31-4.08-8.31S88.46,166.69,88.46,171.63Z"/><path class="cls-7" d="M104.2,165.88c0-.87,0-2,1.51-2,1.32,0,1.74.92,1.82,1.9a4.81,4.81,0,0,1,4.28-1.9c5,0,6.94,4.29,6.94,8.74s-1.85,8.54-6.72,8.54a6.4,6.4,0,0,1-4.26-1.43v2.83a1.82,1.82,0,0,1-1.71,1.85,1.84,1.84,0,0,1-1.88-1.79Zm3.58,7.76a3.57,3.57,0,0,0,3.78,3.84c1.68,0,3.56-.67,3.56-5.07a5.77,5.77,0,0,0-1.23-3.92,3.25,3.25,0,0,0-2.46-.81,3.7,3.7,0,0,0-3.64,3.95Z"/><path class="cls-7" d="M121.59,167.76a1.67,1.67,0,0,1,0-3.33h1.32v-3.05a1.72,1.72,0,0,1,1.79-1.74,1.69,1.69,0,0,1,1.71,1.71v3.08h3.3a1.67,1.67,0,0,1,0,3.33h-3.3v8.65c0,.34.08.87.56.87s.7-.31,1.09-1.15c.59-1.26,1.12-1.51,1.71-1.51a1.79,1.79,0,0,1,1.76,1.82c0,1.2-1.54,4.76-4.84,4.76-3.67,0-3.78-3.44-3.78-4.65v-8.79Z"/><path class="cls-4" d="M499.33,174.74h-1.64c-2.56-2.64-8-4.47-14.26-4.47s-11.7,1.83-14.26,4.47h-1.64l.06,3.49h0s0,0,0,0c.08,4.35,7.17,7.85,15.84,7.85s15.76-3.5,15.84-7.85c0,0,0,0,0,0h0Z"/><path class="cls-5" d="M499.38,172.38h-1.65c-2.57-2.66-8-4.5-14.3-4.5s-11.73,1.84-14.3,4.5h-1.65l.06,3.51h0s0,0,0,0c.08,4.38,7.19,7.89,15.88,7.89s15.8-3.52,15.88-7.89c0,0,0,0,0,0h0Z"/><path class="cls-4" d="M499.4,171.26h-1.65c-2.57-2.67-8-4.51-14.32-4.51s-11.74,1.84-14.32,4.51h-1.65l.06,3.52h0s0,0,0,0c.08,4.39,7.2,7.91,15.9,7.91s15.82-3.52,15.9-7.91c0,0,0,0,0,0h0Z"/><path class="cls-5" d="M499.44,168.87h-1.65c-2.58-2.68-8-4.53-14.35-4.53s-11.78,1.85-14.35,4.53h-1.65l.06,3.53h0s0,0,0,0c.08,4.41,7.22,8,15.94,8s15.86-3.54,15.94-8c0,0,0,0,0,0h0Z"/><path class="cls-4" d="M499.46,167.75H497.8c-2.58-2.69-8-4.54-14.37-4.54s-11.79,1.86-14.37,4.54H467.4l.06,3.54h0s0,0,0,0c.08,4.42,7.23,8,16,8s15.88-3.55,16-8c0,0,0,0,0,0h0Z"/><path class="cls-5" d="M499.5,165.35h-1.66c-2.59-2.7-8.06-4.57-14.41-4.57s-11.82,1.87-14.41,4.57h-1.66l.06,3.56h0s0,0,0,0c.08,4.45,7.25,8,16,8s15.93-3.57,16-8c0,0,0,0,0,0h0Z"/><path class="cls-4" d="M499.52,164.27h-1.66c-2.59-2.71-8.07-4.58-14.43-4.58s-11.84,1.87-14.43,4.58h-1.66l.06,3.57h0s0,0,0,0c.08,4.46,7.26,8,16,8s15.95-3.58,16-8c0,0,0,0,0,0h0Z"/><path class="cls-5" d="M499.52,164.68c-.08,4.49-7.28,8.09-16.08,8.09s-16-3.61-16.08-8.09,7.12-8.24,16.08-8.24S499.6,160.14,499.52,164.68Z"/><path class="cls-4" d="M496.3,164.68h-1c0,1.66-1.36,3.15-3.51,4.23a20.8,20.8,0,0,1-16.66,0c-2.15-1.08-3.48-2.57-3.51-4.23s1.29-3.17,3.43-4.27a20.75,20.75,0,0,1,16.82,0c2.14,1.1,3.45,2.61,3.43,4.27h2.06c.06-3.92-6.16-7.11-13.9-7.11s-14,3.2-13.9,7.11,6.28,7,13.9,7,13.84-3.12,13.9-7Z"/><path class="cls-6" d="M480.45,165.89v2.37q0,.83-1.53.83t-1.54-.83l0-6.94q0-1.1,2-1.1H486a9.77,9.77,0,0,1,4.11.7,2.25,2.25,0,0,1,1.47,2.14,2.29,2.29,0,0,1-1.5,2.12,9.73,9.73,0,0,1-4.09.7Zm0-1.56h5a7,7,0,0,0,2.43-.28,1,1,0,0,0,.66-1,1,1,0,0,0-.65-1,7.19,7.19,0,0,0-2.43-.27h-5Z"/><path class="cls-2" d="M353.12,167.5a1.88,1.88,0,0,1-1.23.39,1.84,1.84,0,0,1-1.95-2,2,2,0,0,1,.69-1.65l5-4.41a2.7,2.7,0,0,1,1.8-.6,2,2,0,0,1,2.31,2.07v20.55a1.94,1.94,0,0,1-2,2.1,2,2,0,0,1-2.07-2.16V165.31Z"/><path class="cls-2" d="M366,179.24a2.75,2.75,0,0,1,2.76-2.76,2.78,2.78,0,0,1,2.79,3c0,3.24-3.48,6-4.35,6a.82.82,0,0,1-.84-.84c0-.45.12-.54,1.11-1.29a7.46,7.46,0,0,0,1.26-1.35A2.76,2.76,0,0,1,366,179.24Z"/><path class="cls-2" d="M390.56,171.64c0,6.36-1.68,12.36-8.28,12.36S374,178.15,374,171.64c0-6,1.53-12.36,8.31-12.36S390.56,165.43,390.56,171.64Zm-12.36,0c0,4.92,1,8.31,4.08,8.31s4.08-3.21,4.08-8.31-1-8.31-4.08-8.31S378.2,166.69,378.2,171.64Z"/><path class="cls-2" d="M409.93,171.64c0,6.36-1.68,12.36-8.28,12.36s-8.31-5.85-8.31-12.36c0-6,1.53-12.36,8.31-12.36S409.93,165.43,409.93,171.64Zm-12.36,0c0,4.92,1,8.31,4.08,8.31s4.08-3.21,4.08-8.31-1-8.31-4.08-8.31S397.57,166.69,397.57,171.64Z"/><path class="cls-2" d="M429.29,171.64c0,6.36-1.68,12.36-8.28,12.36s-8.31-5.85-8.31-12.36c0-6,1.53-12.36,8.31-12.36S429.29,165.43,429.29,171.64Zm-12.36,0c0,4.92,1,8.31,4.08,8.31s4.08-3.21,4.08-8.31-1-8.31-4.08-8.31S416.93,166.69,416.93,171.64Z"/><path class="cls-7" d="M432.66,165.88c0-.87,0-2,1.51-2,1.32,0,1.74.92,1.82,1.9a4.81,4.81,0,0,1,4.28-1.9c5,0,6.94,4.28,6.94,8.74s-1.85,8.54-6.72,8.54a6.4,6.4,0,0,1-4.26-1.43v2.83a1.82,1.82,0,0,1-1.71,1.85,1.84,1.84,0,0,1-1.88-1.79Zm3.58,7.76a3.57,3.57,0,0,0,3.78,3.84c1.68,0,3.56-.67,3.56-5.07a5.77,5.77,0,0,0-1.23-3.92,3.25,3.25,0,0,0-2.46-.81,3.7,3.7,0,0,0-3.64,3.95Z"/><path class="cls-7" d="M450.05,167.76a1.67,1.67,0,0,1,0-3.33h1.32v-3.05a1.72,1.72,0,0,1,1.79-1.74,1.69,1.69,0,0,1,1.71,1.71v3.08h3.3a1.67,1.67,0,0,1,0,3.33h-3.3v8.65c0,.34.08.87.56.87s.7-.31,1.09-1.15c.59-1.26,1.12-1.51,1.71-1.51a1.79,1.79,0,0,1,1.76,1.82c0,1.2-1.54,4.76-4.84,4.76-3.67,0-3.78-3.44-3.78-4.65v-8.79Z"/><path class="cls-8" d="M457.66,46.1A33.17,33.17,0,0,0,424.5,12.93V79.26A33.16,33.16,0,0,0,457.66,46.1Z"/><path class="cls-9" d="M424.5,12.93a33.16,33.16,0,0,0,0,66.33h0V12.93Z"/><path class="cls-8" d="M467,111.21c-1.48-8.87-9-21.13-14.39-26.87-1.46-1.55-4-.91-4.88-.36a44.06,44.06,0,0,1-23.21,6.6v50.35C447.28,140.93,470.61,133,467,111.21Z"/><path class="cls-9" d="M424.5,90.59A44.06,44.06,0,0,1,401.3,84c-.89-.55-3.42-1.2-4.88.36-5.39,5.74-12.91,18-14.39,26.87-3.64,21.84,19.69,29.72,42.47,29.72h0V90.59Z"/><path class="cls-10" d="M117.56,46.1A33.17,33.17,0,0,0,84.39,12.93h0V79.26h0A33.16,33.16,0,0,0,117.56,46.1Z"/><path class="cls-11" d="M51.23,46.1A33.16,33.16,0,0,0,84.39,79.26V12.93A33.16,33.16,0,0,0,51.23,46.1Z"/><polygon class="cls-10" points="90.63 93.11 89.79 82.56 84.39 82.56 84.39 101.53 84.39 101.53 90.63 93.11"/><polygon class="cls-11" points="79 82.56 78.16 93.11 84.39 101.53 84.39 82.56 79 82.56"/><path class="cls-10" d="M126.86,111.21c-1.48-8.87-9-21.13-14.39-26.87-1.46-1.55-4-.91-4.88-.36a44.65,44.65,0,0,1-7.75,3.79L84.39,108.67h0v9.7h0a4,4,0,1,1,0,7.94h0v14.63h0C107.18,140.93,130.5,133,126.86,111.21Z"/><path class="cls-11" d="M80.43,122.34a4,4,0,0,1,4-4v-9.7L68.94,87.78A44.66,44.66,0,0,1,61.19,84c-.89-.55-3.42-1.2-4.88.36-5.39,5.74-12.91,18-14.39,26.87C38.29,133,61.61,140.93,84.39,140.93V126.31A4,4,0,0,1,80.43,122.34Z"/></svg>