<svg xmlns="http://www.w3.org/2000/svg" viewBox="0 0 600 230"><defs><style>.cls-1{isolation:isolate;}.cls-2{opacity:0.1;}.cls-3{fill:#231815;}.cls-4{fill:#fff;}.cls-5{fill:#f45934;}.cls-6{fill:#066b74;}.cls-7{fill:#267e86;}.cls-8{fill:#fefadd;}.cls-9{fill:#89909f;}.cls-10{fill:#a8adb8;}.cls-11{fill:#aeb3bd;}.cls-12{fill:#a68905;}.cls-13{fill:#c6b405;}.cls-14{fill:#b29605;}.cls-15{fill:#fdf9dc;}.cls-16{fill:#c7b505;}.cls-17{fill:#b59500;}.cls-18{fill:#c73338;}.cls-19{fill:#dee1e8;}.cls-20{fill:#bbc0cf;}.cls-21{fill:#d0d4de;}.cls-22{fill:#a2a7b3;}.cls-23{fill:#b4b8c2;}.cls-24{fill:#8bca45;}.cls-25{fill:#48ae31;}.cls-26{fill:#fe8348;}.cls-27{fill:#e55e41;}.cls-28{fill:#815a41;}.cls-29{fill:#c0aea9;mix-blend-mode:multiply;}.cls-30{fill:#5d3e21;}.cls-31{fill:#f7885e;}.cls-32{fill:#fde695;}.cls-33{fill:#f5d472;}.cls-34{fill:#fdf0be;}.cls-35{fill:#b51100;}</style></defs><title>img_newregist のコピー 2</title><g class="cls-1"><g id="レイヤー_1" data-name="レイヤー 1"><g class="cls-2"><circle class="cls-3" cx="199.45" cy="90.02" r="83.4"/><circle class="cls-3" cx="80.77" cy="141.54" r="77.23"/><circle class="cls-3" cx="335.59" cy="149.72" r="76.72"/><circle class="cls-3" cx="135.43" cy="21.99" r="14.37"/><circle class="cls-3" cx="135.43" cy="21.99" r="14.37"/><circle class="cls-3" cx="63.09" cy="30.33" r="24.37"/><circle class="cls-3" cx="63.09" cy="30.33" r="24.37"/></g><circle class="cls-4" cx="197.45" cy="88.02" r="83.4"/><circle class="cls-4" cx="78.77" cy="139.54" r="77.23"/><circle class="cls-4" cx="333.59" cy="147.72" r="76.72"/><circle class="cls-4" cx="133.43" cy="19.99" r="14.37"/><circle class="cls-4" cx="61.09" cy="28.33" r="24.37"/><g class="cls-2"><circle cx="498.29" cy="128.04" r="100"/><circle cx="414.76" cy="64.66" r="24.37" transform="translate(284.49 463.71) rotate(-80.78)"/><circle cx="414.76" cy="64.66" r="24.37" transform="translate(284.49 463.71) rotate(-80.78)"/></g><circle class="cls-4" cx="496.29" cy="126.04" r="100"/><circle class="cls-4" cx="412.76" cy="62.66" r="24.37" transform="translate(284.79 460.05) rotate(-80.78)"/><circle class="cls-4" cx="412.76" cy="62.66" r="24.37" transform="translate(284.79 460.05) rotate(-80.78)"/><circle class="cls-4" cx="496.29" cy="126.04" r="100"/><circle class="cls-4" cx="412.76" cy="62.66" r="24.37" transform="translate(284.79 460.05) rotate(-80.78)"/><path class="cls-5" d="M418.43,151c.82,0,1.9,0,1.9,1.37s-.91,1.25-1.9,1.25H404.15c-1,1.15-2.4,2.66-3.26,2.66a1.49,1.49,0,0,1-1.47-1.44c0-.48.15-.62,1.4-1.92.69-.74,1.22-1.39,2.47-2.95a1.51,1.51,0,0,1,1.27-.77,1.55,1.55,0,0,1,1.51,1.39,1.81,1.81,0,0,1-.07.41ZM409,162.57a1.55,1.55,0,0,1,1.35-.87,1.47,1.47,0,0,1,1.49,1.37c0,.87-1.56,2.71-1.9,3.1,3.17,2,3.29,2.09,3.29,2.88a1.44,1.44,0,0,1-1.39,1.44c-.39,0-.53-.07-1.23-.51l-2.78-1.77a14.69,14.69,0,0,1-6.7,3.26,1.44,1.44,0,0,1-1.39-1.51c0-1,.77-1.25,1.34-1.44a17.65,17.65,0,0,0,4.16-1.94c-.39-.24-2.19-1.25-2.55-1.47A1.28,1.28,0,0,1,402,164a1.39,1.39,0,0,1,1.27-1.39c.67,0,1.37.41,4.22,2.07A15.71,15.71,0,0,0,409,162.57Zm6.92-3.91c2.13,0,2.18,1.2,2.32,4.17a11.4,11.4,0,0,0,.75,4.44c0,.07.1.24.14.24.24,0,.27-1.15.34-1.34a1.18,1.18,0,0,1,1.1-.82c1.16,0,1.16,1.44,1.16,1.75,0,.56-.34,4.42-2.36,4.42-2.28,0-3.64-4.08-3.89-8.09-.12-2-.12-2.28-.93-2.28H401.73c-.94,0-1.92,0-1.92-1.2s.89-1.29,1.92-1.29Zm.89-3.72c1,0,1.92,0,1.92,1.22s-1,1.22-1.92,1.22H405.21c-1,0-1.92,0-1.92-1.22s1-1.22,1.92-1.22Z"/><path class="cls-5" d="M443.18,160.5c0,4.4-3.6,9.24-11.33,9.24-3.1,0-4.18-.33-4.18-1.82a1.58,1.58,0,0,1,1.63-1.68c.32,0,1.06.12,1.25.14.39.05,1.18.08,1.56.08,5.95,0,7.85-4,7.85-5.91,0-3.21-3.29-4.85-6.24-4.85-3.19,0-7,2-8.28,2.6a3.06,3.06,0,0,1-1.44.43,1.73,1.73,0,0,1-1.56-1.9,1.69,1.69,0,0,1,.94-1.51c2.23-1.15,6.93-2.81,9.67-2.81C439.24,152.51,443.18,155.58,443.18,160.5Zm-2.84-9.62a3.27,3.27,0,0,1,.7,1.66,1.06,1.06,0,0,1-1.05,1.05c-.53,0-.63-.17-1.49-1.58-.56-.94-.6-1.06-.6-1.35a1,1,0,0,1,.91-.93C439.38,149.73,439.7,149.92,440.34,150.88Zm3.37.43a1,1,0,0,1-1,1.08,1.19,1.19,0,0,1-1.08-.81c-.79-1.68-.89-1.88-.89-2.19,0-.62.72-.84,1-.84C442.87,148.55,443.71,150.81,443.71,151.31Z"/><path class="cls-5" d="M451.21,160.55c1.46.67,3.5,1.63,8.49,5.28,2.81,2.07,3.15,2.74,3.15,3.53a1.78,1.78,0,0,1-1.71,1.73c-.69,0-1-.29-1.72-1.08-2.48-2.62-7.3-5.4-10.73-7.42-.92-.53-1.92-1.13-1.92-2.4s.64-1.68,4.15-3.69a34,34,0,0,0,7.68-5.86,1.73,1.73,0,0,1,3,1.18c0,.5,0,.91-2.33,2.85a42.28,42.28,0,0,1-8,5.31c-.1,0-.39.21-.39.31S451,160.46,451.21,160.55Z"/><path class="cls-5" d="M469.89,152.27a2.44,2.44,0,0,1-.29-1.05,1.67,1.67,0,0,1,1.78-1.59c1,0,1.27.53,1.87,1.75.87,1.83,1.54,3.72,2.24,5.62.52-.24,4.58-1.87,6.45-1.87a1.54,1.54,0,0,1,1.59,1.58,1.62,1.62,0,0,1-.92,1.51c-.33.17-2.92.75-3.48.92-4.75,1.34-8.61,3.26-8.61,5.76s4.63,2.52,5.83,2.52a31.75,31.75,0,0,0,5-.34c.31-.05,1.49-.29,1.66-.29a1.64,1.64,0,0,1,1.51,1.8,1.32,1.32,0,0,1-.91,1.47,24.86,24.86,0,0,1-6.39.55c-2.71,0-10.25,0-10.25-5.71,0-3.68,3.51-5.5,5.48-6.53C471.21,155.18,470.92,154.58,469.89,152.27Z"/><path class="cls-5" d="M490.66,167.87a1.69,1.69,0,0,1-1.51.77,1.6,1.6,0,0,1-1.54-1.56c0-.36.1-.5.89-1.78a16.87,16.87,0,0,0,2-4.22c.2-.55.51-1.39,1.59-1.39a1.57,1.57,0,0,1,1.58,1.41C493.66,162.57,491.81,166.34,490.66,167.87Zm6.12-15.19c0-1.37,0-2.52,1.59-2.52s1.68,1.08,1.68,2.52v2.06h6c1.2,0,2.55,0,2.55,1.59s-1.35,1.56-2.55,1.56h-6v10.27c0,1,0,2.74-2.76,2.74a10.16,10.16,0,0,1-3.46-.63,1.54,1.54,0,0,1-1-1.49,1.48,1.48,0,0,1,1.44-1.58c.39,0,2,.53,2.33.53s.19,0,.19-.65v-9.19h-6.17c-1.2,0-2.54,0-2.54-1.56s1.34-1.59,2.54-1.59h6.17Zm10.61,15.86c-.93,0-1-.24-2-2.32a39.08,39.08,0,0,0-2.12-3.89,2.53,2.53,0,0,1-.43-1.2,1.6,1.6,0,0,1,1.59-1.61c.84,0,1.27.41,2.68,2.9.68,1.18,2,3.48,2,4.61A1.55,1.55,0,0,1,507.39,168.54Zm1.2-17a2.65,2.65,0,1,1-2.66-2.64A2.67,2.67,0,0,1,508.59,151.5Zm-3.86,0a1.21,1.21,0,1,0,2.42,0,1.17,1.17,0,0,0-1.22-1.17A1.19,1.19,0,0,0,504.73,151.5Z"/><path class="cls-5" d="M524.3,168.23c0,1.32,0,2.57-1.68,2.57s-1.8-1.13-1.8-2.57v-8.16a30.43,30.43,0,0,1-8.52,3.12,1.64,1.64,0,0,1-1.56-1.85c0-1.24.91-1.48,1.75-1.68a25.93,25.93,0,0,0,13.42-7.82,13.7,13.7,0,0,1,1-1.15,1.52,1.52,0,0,1,1-.34,1.9,1.9,0,0,1,1.75,1.73,1.74,1.74,0,0,1-.53,1.18,30.35,30.35,0,0,1-4.8,4.51Z"/><path class="cls-5" d="M533.45,168.18a1.47,1.47,0,0,1,1.54-1.56c2.93-.28,7.32-.74,11.14-4.34a14.29,14.29,0,0,0,3.65-6.07,1.37,1.37,0,0,1,1.36-1,1.66,1.66,0,0,1,1.83,1.56,14.77,14.77,0,0,1-4.51,7.87,19.55,19.55,0,0,1-13.25,5.28A1.57,1.57,0,0,1,533.45,168.18Zm6.22-10.05c-.67,0-.86-.17-2.74-1.68-.43-.34-2.3-1.68-2.68-2a1.58,1.58,0,0,1-.75-1.32,1.75,1.75,0,0,1,1.66-1.85c.53,0,.77,0,3.21,1.87,3,2.24,3,2.72,3,3.32A1.68,1.68,0,0,1,539.67,158.13Z"/><path class="cls-5" d="M561.51,168.47c0,1.3,0,2.55-1.66,2.55-1.82,0-1.82-1.11-1.82-2.55V152.68c0-1.32,0-2.57,1.68-2.57s1.8,1.13,1.8,2.57v4a50.06,50.06,0,0,1,7.75,2.6c1.22.55,2,1,2,2a1.62,1.62,0,0,1-1.59,1.73c-.28,0-.38,0-2.35-.92a40.48,40.48,0,0,0-5.85-2Z"/><path class="cls-5" d="M577.84,168.83c-.58.82-.94,1.25-1.73,1.25a1.72,1.72,0,0,1-1.75-1.61c0-.43,0-.48,1.15-2.37a22.51,22.51,0,0,0,3.07-8.19c-.45,0-2.42.29-2.83.29a1.39,1.39,0,0,1-1.54-1.54c0-1.46.87-1.68,4.92-2a37.69,37.69,0,0,1,.32-3.79,1.52,1.52,0,0,1,1.53-.94c1.66,0,1.66,1.39,1.66,2.19,0,.62,0,.74-.17,2.35,3.58-.14,7.25.12,7.25,6.1a24.77,24.77,0,0,1-.89,6.4c-.43,1.32-1.39,3.75-4.32,3.75a7.9,7.9,0,0,1-3.43-.77,1.56,1.56,0,0,1-.63-1.3,1.52,1.52,0,0,1,1.49-1.63,2,2,0,0,1,.67.12,4.74,4.74,0,0,0,1.47.31c1.39,0,1.7-1.15,2-2.54a20,20,0,0,0,.48-4.2c0-2.09-.41-3.17-3.34-3.17-.6,0-1,0-1.27,0C580.48,165,578.08,168.47,577.84,168.83Zm17.88-8.71a1.6,1.6,0,0,1-1.59,1.51c-.93,0-1.12-.41-1.87-2a41.25,41.25,0,0,0-2.42-4.32c-.77-1.15-.87-1.27-.87-1.65a1.57,1.57,0,0,1,1.64-1.59,5,5,0,0,1-.6-1.7.87.87,0,0,1,.86-1c1.46,0,2.06,2.68,2.06,3a.88.88,0,0,1-.72.94C593,154.48,595.72,159.23,595.72,160.12Zm.12-8.5a1,1,0,0,1-1,1c-.55,0-.81-.48-1-.87a6.84,6.84,0,0,1-.8-2.08.86.86,0,0,1,.89-.89c1.06,0,1.73,2,1.83,2.35A1.83,1.83,0,0,1,595.84,151.62Z"/><path class="cls-5" d="M425.51,196a1.19,1.19,0,0,1,.68,1.08c0,.43-.7,1.84-2.16,3.84a1.56,1.56,0,0,1-1.18.79,1.58,1.58,0,0,1-1.51-1.42c0-.38.12-.57,1.27-2.28.22-.31,1.2-2,1.25-2a1.88,1.88,0,0,1-1.66-2V182.3a1.86,1.86,0,0,1,2-2.05h5.19a1.86,1.86,0,0,1,2,2.05v11.64a1.84,1.84,0,0,1-1.32,2c.57.77,1.24,2.16,1.84,2.93a1.67,1.67,0,0,1,.39.94,1.56,1.56,0,0,1-1.49,1.42c-.43,0-.77-.15-1.22-.77-.05-.1-1.76-2.55-1.76-3.41a1.39,1.39,0,0,1,.46-1Zm3.27-11.5V183.4c0-.55-.29-.55-.53-.55h-2.88c-.43,0-.53.17-.53.55v1.08Zm-3.94,2.59v1.66h3.94v-1.66Zm0,4.27v1.18c0,.36.1.53.53.53h2.88c.24,0,.53,0,.53-.53v-1.18Zm14.55,7.4c0,.84,0,2.78-2.76,2.78a9.62,9.62,0,0,1-2.81-.48,1.46,1.46,0,0,1-.94-1.51,1.28,1.28,0,0,1,1.18-1.35c.33,0,1.8.41,2.11.41s.38-.21.38-.6v-7.61h-2.78c-1,0-1.92,0-1.92-1.29,0-1.49.72-1.49,1.92-1.49h8.14c1,0,1.92,0,1.92,1.3,0,1.48-.68,1.48-1.92,1.48h-2.52Zm2.16-17a1.63,1.63,0,0,1,1.63,1.61v1.8c0,1,0,1.95-1.25,1.95a1.22,1.22,0,0,1-1.34-1.42c0-1.08,0-1.2-.39-1.2h-4.92c-.24,0-.48.07-.48.36v.43c0,1,0,1.92-1.25,1.92s-1.34-.84-1.34-1.92v-1.92a1.62,1.62,0,0,1,1.61-1.61h2.33c0-1.22,0-2.2,1.46-2.2s1.46,1,1.46,2.2Z"/><path class="cls-5" d="M460.85,182.58c1.25,0,2.59,0,2.59,1.59s-1.46,1.53-2.54,1.56l-3.22.05,0,1.7,3.65,0c1,0,1.48,0,1.82.19a1.49,1.49,0,0,1,.74,1.29,1.51,1.51,0,0,1-.72,1.28c-.33.24-.76.21-1.82.24l-3.65,0,0,3c2.08.56,6.26,2.5,6.26,4.4a1.85,1.85,0,0,1-1.73,1.75c-.57,0-.69-.17-2-1.32a8,8,0,0,0-2.54-1.54c-.17,2.47-2,4.13-5.36,4.13-4.13,0-5.54-2.38-5.54-4.25,0-3.21,3.6-4.08,5.83-4.08a17.13,17.13,0,0,1,2,.15l0-2.21-5.62.07c-1.2,0-2.57,0-2.57-1.51s1.34-1.54,2.55-1.54l5.59-.05,0-1.7-5,0c-1.32,0-1.65,0-2.11-.43a1.56,1.56,0,0,1-.45-1.13c0-1.54,1.34-1.54,2.54-1.56l5-.07c0-1.47,0-1.64.19-1.95a1.6,1.6,0,0,1,1.37-.67c1.58,0,1.58,1.39,1.58,2.59Zm-8.21,12.8c-.07,0-2.47,0-2.47,1.29,0,.84,1.18,1.2,2.19,1.2a2.11,2.11,0,0,0,2.3-2.13A5.54,5.54,0,0,0,452.64,195.38Z"/><path class="cls-5" d="M474.54,196.74c.29,0,2.41.12,2.86.12,2.47,0,5.19-1.22,5.19-4.6,0-2.45-1.68-3.46-4.47-3.46a13.68,13.68,0,0,0-6.48,1.92,2.93,2.93,0,0,1-1.32.48,1.67,1.67,0,0,1-1.56-1.68,1.77,1.77,0,0,1,1.32-1.61,20.3,20.3,0,0,1,8.47-2c3.92,0,7,2.31,7,6.43a7.12,7.12,0,0,1-3.15,6.1,13.08,13.08,0,0,1-6.43,1.51c-2.28,0-3-.33-3-1.82A1.39,1.39,0,0,1,474.54,196.74Z"/><path class="cls-5" d="M488.72,185.3c-.45,0-.79.09-1,.09a1.55,1.55,0,0,1-1.75-1.63c0-1.54,1.08-1.63,2.43-1.73l15.41-1.15c1-.07,2.49-.19,2.49,1.66,0,1.39-.74,1.46-2.4,1.7a13.33,13.33,0,0,0-4.41,1.68c-1.54,1-3.89,3.05-3.89,6.26,0,3.6,3.14,4.52,5.88,5,1.46.24,2.13.34,2.13,1.61a1.67,1.67,0,0,1-1.56,1.85,15.42,15.42,0,0,1-6.38-2.07,6.46,6.46,0,0,1-3.36-5.92c0-4,2.45-6.46,4.73-8.09Z"/><path class="cls-5" d="M518.27,188.06a11.18,11.18,0,0,1,2-.15c5,0,8.86,2.33,8.86,6.36s-3.56,6.67-7.88,6.67a1.58,1.58,0,0,1-1.8-1.68c0-1.36,1.06-1.51,2.35-1.7,1.61-.22,3.85-.91,3.85-3.26,0-3.1-4.28-3.27-5.55-3.27a8.56,8.56,0,0,0-1.87.19v6a4.78,4.78,0,0,1-.24,2.11,3.56,3.56,0,0,1-3.24,1.54,5.82,5.82,0,0,1-6-5.69c0-3.65,3.53-5.83,6.34-6.67v-2.38l-4.08.14c-1.73.08-1.85-1.17-1.85-1.51,0-1.49,1.25-1.53,1.95-1.56l4-.12v-.72c0-1.22,0-2.57,1.58-2.57s1.59,1.35,1.59,2.57V183l2.54-.08c.89,0,1.13,0,1.47.2a1.65,1.65,0,0,1,.72,1.32c0,1.44-1.47,1.48-1.87,1.51l-2.86.09ZM515.1,192c-2.66.72-2.93,2.45-2.93,3.12a2.35,2.35,0,0,0,2.38,2.45c.53,0,.55-.26.55-1.15Zm13.11-3.84c-.82,0-1-.21-2.19-2.13a26,26,0,0,0-1.82-2.43,1.74,1.74,0,0,1-.55-1.25,1.55,1.55,0,0,1,1.53-1.53c.65,0,1.3.33,3.05,2.78.48.67,1.63,2.28,1.63,2.86A1.65,1.65,0,0,1,528.21,188.15Z"/><path class="cls-5" d="M534.09,192.33c-.7.55-1,.6-1.3.6a1.42,1.42,0,0,1-1.44-1.47,1.21,1.21,0,0,1,.55-1.05,22.44,22.44,0,0,0,3.7-4.08c.67-1.11.82-1.47,1.56-1.47.29,0,1.51.29,1.51,1.32,0,.75-1,2.12-1.78,3.1v10.34c0,.89,0,2-1.39,2s-1.41-1-1.41-2Zm.21-7.13a1.91,1.91,0,0,1-1.27.58,1.46,1.46,0,0,1-1.34-1.4c0-.45.19-.64,1.8-2.4.28-.28,1.44-1.7,1.68-2a1.26,1.26,0,0,1,1-.43,1.49,1.49,0,0,1,1.42,1.63C537.4,182.1,535.17,184.43,534.3,185.2Zm16.8,7.46h.53c1,0,1.92,0,1.92,1.25s-.93,1.27-1.92,1.27h-.53v3.6c0,2.6-2.06,2.6-3.33,2.6-3,0-3.36-.65-3.36-1.56,0-.46.24-1.52,1.2-1.52.31,0,1.65.24,1.94.24s.67,0,.67-.6v-2.76h-6.09c.57.6,1.94,2.26,1.94,3a1.34,1.34,0,0,1-1.32,1.27c-.67,0-.77-.15-1.7-1.44-.15-.19-.82-1.06-.94-1.23a1.26,1.26,0,0,1-.24-.69,1.06,1.06,0,0,1,.38-.87c-1.46,0-2.28,0-2.28-1.27s.94-1.25,1.93-1.25h8.32v-1h-8.16c-.93,0-1.92,0-1.92-1.2s1-1.2,1.92-1.2h11.57c.94,0,1.92,0,1.92,1.2s-1,1.2-1.92,1.2h-.53ZM550.38,180a1.92,1.92,0,0,1,2.21,2v4.32a1.93,1.93,0,0,1-2.21,2h-9.14a1.92,1.92,0,0,1-2.21-2V182a2,2,0,0,1,2.21-2Zm-.76,3.05c0-.65,0-.84-.48-.84h-6.68c-.5,0-.5.19-.5.84ZM542,185.18c0,.67,0,.84.5.84h6.68c.48,0,.5-.17.5-.84Z"/><path class="cls-5" d="M564.11,197.92a2.23,2.23,0,0,1-2.23,2.21,2.21,2.21,0,1,1,2.23-2.21Zm-1.3-4.32c-.07.7-.33,1.13-.93,1.13s-.87-.41-.94-1.13l-1-10.37c-.12-1.17,0-2.88,1.92-2.88s2.08,1.51,1.94,2.88Z"/><circle class="cls-2" cx="584.09" cy="213.32" r="14.37"/><circle class="cls-4" cx="582.09" cy="211.32" r="14.37"/><circle class="cls-2" cx="220.09" cy="211.32" r="14.37"/><circle class="cls-4" cx="218.09" cy="209.32" r="14.37"/><path class="cls-6" d="M43.3,185.46A2.67,2.67,0,0,1,46,188.34c0,3.68-4.16,7.73-6.27,7.73a1.78,1.78,0,0,1-1.75-1.8c0-.84.5-1.13,1.27-1.56,1.44-.79,3.24-2.3,3.24-3.74,0-.27-.12-.27-.62-.27H27.79c-1.24,0-2.56,0-2.56-1.63s1.32-1.61,2.56-1.61Zm-7.15,7c0,2-.17,6.5-3.27,9.53a10.75,10.75,0,0,1-5.16,2.76,1.63,1.63,0,0,1-1.53-1.83,1.38,1.38,0,0,1,1-1.46c3.88-1.66,5.56-3.12,5.59-9.31,0-1.08.55-1.85,1.61-1.85C36.15,190.29,36.15,191.61,36.15,192.45Z"/><path class="cls-6" d="M49.11,202.34a1.46,1.46,0,0,1,1.53-1.56c2.93-.29,7.32-.75,11.14-4.35a14.29,14.29,0,0,0,3.65-6.07,1.39,1.39,0,0,1,1.37-1,1.67,1.67,0,0,1,1.82,1.56,14.69,14.69,0,0,1-4.51,7.87A19.55,19.55,0,0,1,50.86,204,1.56,1.56,0,0,1,49.11,202.34Zm6.21-10.06c-.67,0-.86-.17-2.73-1.68-.43-.34-2.31-1.68-2.69-2a1.58,1.58,0,0,1-.74-1.32,1.75,1.75,0,0,1,1.65-1.85c.53,0,.77,0,3.22,1.88,3,2.23,3,2.71,3,3.31A1.68,1.68,0,0,1,55.32,192.28Z"/><path class="cls-6" d="M76.77,191.66a17.87,17.87,0,0,1-3.14,4.22,1.84,1.84,0,0,1-3.1-1.25,2,2,0,0,1,.79-1.39,13.86,13.86,0,0,0,4-7.82,1.39,1.39,0,0,1,1.51-1.3c1.23,0,1.88.67,1.88,1.61a11.89,11.89,0,0,1-.58,2.73h11c1.23,0,2.55,0,2.55,1.61s-1.32,1.59-2.55,1.59h-3c0,2.3-.12,6.69-2.8,9.88a10.28,10.28,0,0,1-6.72,3.77,1.61,1.61,0,0,1-1.59-1.8c0-1.2,1-1.46,1.78-1.63a7.59,7.59,0,0,0,5.66-5.95,33.23,33.23,0,0,0,.34-4.27Z"/><path class="cls-6" d="M110.92,193.07c1.29,0,2.54,0,2.54,1.66s-1.25,1.65-2.54,1.65H95.84c-1.29,0-2.54,0-2.54-1.65s1.25-1.66,2.54-1.66Z"/><path class="cls-6" d="M122.51,202.62c0,1.3,0,2.55-1.65,2.55-1.83,0-1.83-1.11-1.83-2.55V186.83c0-1.32,0-2.57,1.68-2.57s1.8,1.13,1.8,2.57v4a49.73,49.73,0,0,1,7.76,2.59c1.22.55,2,1,2,2a1.62,1.62,0,0,1-1.59,1.73c-.29,0-.38,0-2.35-.91a39.07,39.07,0,0,0-5.86-2Z"/><rect class="cls-6" x="21.49" y="86.23" width="76.41" height="83.16" rx="5.25" ry="5.25" transform="translate(-29.96 18.9) rotate(-14.43)"/><rect class="cls-7" x="21.01" y="84.36" width="76.41" height="83.16" rx="5.25" ry="5.25" transform="translate(-29.51 18.72) rotate(-14.43)"/><rect class="cls-8" x="28.24" y="89.69" width="60.5" height="70.75" rx="5.25" ry="5.25" transform="translate(-29.31 18.52) rotate(-14.43)"/><path class="cls-9" d="M69.33,79.16l-13.4,3.45A7.7,7.7,0,0,0,41.19,86.4L27.78,89.85A2.53,2.53,0,0,0,26,92.93l1.38,5.37a2.53,2.53,0,0,0,3.08,1.82L72,89.43a2.53,2.53,0,0,0,1.82-3.08L72.41,81A2.52,2.52,0,0,0,69.33,79.16Zm-20,8.26a3,3,0,1,1,2.12-3.59A3,3,0,0,1,49.31,87.42Z"/><path class="cls-10" d="M69,77.76,55.56,81.21A7.7,7.7,0,0,0,40.82,85l-13.4,3.45a2.52,2.52,0,0,0-1.82,3.08L27,96.9a2.53,2.53,0,0,0,3.08,1.82L71.61,88A2.53,2.53,0,0,0,73.43,85l-1.38-5.37A2.53,2.53,0,0,0,69,77.76ZM49,86a3,3,0,1,1,2.12-3.6A3,3,0,0,1,49,86Z"/><g id="List"><path class="cls-11" d="M76.75,110.91l-.72-2.8-28.94,7.45.72,2.8Zm-26.3,17.72,29-7.45-.73-2.8-28.94,7.45Zm30.87,0L52.37,136.1l.72,2.8,29-7.45ZM84,138.92,55,146.37l.72,2.8,29-7.45ZM41,115.13l-6.53,1.68,1.68,6.54,6.53-1.68Zm2.65,10.27-6.54,1.68,1.68,6.54,6.54-1.68Zm2.64,10.27-6.54,1.68,1.68,6.54L48,142.21Zm-3.9,12,1.69,6.54,6.53-1.68-1.68-6.54Z"/></g><g id="Checked"><path class="cls-5" d="M73.39,97.84l-28.95,7.44.72,2.81,29-7.45Zm-33.86,7.71a.25.25,0,0,0-.12-.18l-.83-.5a.25.25,0,0,0-.33.09l-2.59,4.35a.24.24,0,0,1-.33.09l-1.92-1.16a.32.32,0,0,0-.19,0,.26.26,0,0,0-.14.11l-.52.78a.2.2,0,0,0,0,.18s0,0,0,0h0l.24.94h0a.31.31,0,0,0,.09.11l1.95,1.21.42.25.83.49a.24.24,0,0,0,.33-.08l3.33-5.61a.25.25,0,0,0,0-.15h0l-.24-.93Z"/></g><path class="cls-6" d="M273.28,190.29a20.64,20.64,0,0,1-2.47,4.22,1.34,1.34,0,0,1-1,.45,1.55,1.55,0,0,1-1.52-1.41c0-.45.09-.59.89-1.79,1.55-2.34,1.8-3.16,2.86-6.43.33-1,1-1.22,1.41-1.22A1.51,1.51,0,0,1,275,185.5a8.58,8.58,0,0,1-.61,2.11H278a1.84,1.84,0,0,1,1.93,2.07,11.75,11.75,0,0,1-.12,1.69,1.7,1.7,0,0,1,1-.8v-4.25c0-.94,0-1.88,1.37-1.88s1.45.85,1.45,1.88v6.31a18.75,18.75,0,0,0,6,3.38,1.23,1.23,0,0,1,1,1.29c0,.33-.28,1.69-1.36,1.69a14.12,14.12,0,0,1-5.63-2.86v7.6c0,.94,0,1.88-1.36,1.88s-1.46-.84-1.46-1.88v-10a6.1,6.1,0,0,1-1.17-1.43,19.31,19.31,0,0,1-3.38,8.63c-2.3,3-5,4.65-6,4.65a1.37,1.37,0,0,1-1.52-1.38c0-.9.63-1.29,1.27-1.67a15,15,0,0,0,4.83-4.79c-.47-.37-1.55-1.17-2.72-2-.47-.3-.8-.54-.8-1.15a1.49,1.49,0,0,1,1.34-1.5c.51,0,1.08.28,3.42,2.06a14.68,14.68,0,0,0,1-4.43c0-.49-.24-.49-.59-.49Z"/><path class="cls-6" d="M296.68,199.13v3.69c.45,0,2.4-.38,2.8-.38a1.29,1.29,0,0,1,1.38,1.36c0,1.13-.77,1.25-2.35,1.53a46.21,46.21,0,0,1-6,.54,1.35,1.35,0,0,1-1.48-1.46,1.22,1.22,0,0,1,1.15-1.26l1.71-.1V192.52a2.2,2.2,0,0,1,1-2,10.66,10.66,0,0,1-3,.94,1.36,1.36,0,0,1-1.25-1.46,1.14,1.14,0,0,1,.92-1.19,36.07,36.07,0,0,0,8.4-4.06,2.45,2.45,0,0,1,1.59-.64,2.67,2.67,0,0,1,1.67.66,46.61,46.61,0,0,0,6.43,3.5c2.44.89,2.75,1,2.75,1.88s-.57,1.61-1.34,1.61a9.81,9.81,0,0,1-2-.63,1.9,1.9,0,0,1,.26.78v5.51a1.45,1.45,0,0,1-.33.94,1.26,1.26,0,0,1,1.24,1.29c0,.84-.09.91-2.63,2.91a15.25,15.25,0,0,0,3.36.63,1.24,1.24,0,0,1,1.15,1.29c0,.17,0,1.44-1.6,1.44a15.79,15.79,0,0,1-7.77-2.73,10,10,0,0,1-3.14-4.06ZM307,190.22c-.45-.24-1.76-.92-3.31-1.86-.35-.21-2-1.41-2.14-1.41s-.25.12-.56.36a27,27,0,0,1-5.54,3,2.48,2.48,0,0,1,.52-.07h4.18v-.94c0-1.13.63-1.34,1.55-1.34a1.17,1.17,0,0,1,1.33,1.34v.94Zm-9.86,2.51c-.47,0-.47,0-.47.79h9.79c0-.72,0-.79-.52-.79Zm8.8,3.92c.52,0,.54-.05.54-.85h-9.81v.85Zm-3.14,2.48a7.15,7.15,0,0,0,2.16,2.19c1.26-1,1.45-1.15,2.6-2.19h-4.76Z"/><path class="cls-6" d="M324,193h7.65c1,0,1.46,0,1.78.21a1.54,1.54,0,0,1,0,2.58c-.33.24-.8.21-1.81.21H324v3.52c0,1.69.66,1.79,3.45,1.79.77,0,2.37,0,3.68-.12.22,0,.61-.07.78-.07a1.54,1.54,0,0,1,1.57,1.66,1.47,1.47,0,0,1-1.05,1.46,35,35,0,0,1-4.21.21c-7.18,0-7.48-1.78-7.48-4.06V196h-4.34a3.62,3.62,0,0,1-1.81-.21,1.53,1.53,0,0,1-.7-1.29,1.57,1.57,0,0,1,.7-1.29c.33-.21.77-.21,1.81-.21h4.34v-3.9h-3.52a3.64,3.64,0,0,1-1.81-.21,1.53,1.53,0,0,1-.7-1.29,1.57,1.57,0,0,1,.7-1.29c.33-.21.78-.21,1.81-.21H330.3c1,0,1.48,0,1.8.21a1.54,1.54,0,0,1,.71,1.29,1.58,1.58,0,0,1-.71,1.29c-.32.21-.77.21-1.8.21H324Z"/><path class="cls-6" d="M354,200c1.19,0,2.51,0,2.51,1.55s-1.32,1.55-2.51,1.55H338.77c-1.2,0-2.49,0-2.49-1.55s1.29-1.55,2.49-1.55Zm-1.69-13c1,0,1.48,0,1.8.24a1.5,1.5,0,0,1,.71,1.29,1.55,1.55,0,0,1-.71,1.29c-.32.21-.77.21-1.8.21H340.62c-1,0-1.48,0-1.8-.21a1.52,1.52,0,0,1-.71-1.29,1.49,1.49,0,0,1,.71-1.29c.32-.24.77-.24,1.8-.24Z"/><path class="cls-6" d="M365,190.61c-2.49,3.62-4.88,5.17-5.65,5.17a1.64,1.64,0,0,1-1.6-1.62c0-.71.42-1,.92-1.41,3.07-2.37,3.7-3.73,5.46-7.42a1.54,1.54,0,0,1,1.39-1,1.74,1.74,0,0,1,1.78,1.6c0,.35-.07.47-.58,1.64H373c1.9,0,2.93.89,2.93,2.56a16.09,16.09,0,0,1-2.68,8.26c1.72,1.48,1.9,1.64,1.9,2.39a1.52,1.52,0,0,1-1.52,1.62c-.61,0-.8-.14-2.42-1.55-2.86,2.8-7.88,4.72-9.17,4.72a1.64,1.64,0,0,1-1.6-1.78c0-1.13.8-1.34,1.31-1.48a15.42,15.42,0,0,0,6.9-3.48c-.49-.37-2.77-1.85-3.21-2.18-.61-.47-.73-.82-.73-1.22a1.57,1.57,0,0,1,1.5-1.62c1,0,3.24,1.65,4.53,2.56a10.9,10.9,0,0,0,1.93-5.21c0-.52-.12-.52-.71-.52Z"/><path class="cls-6" d="M396.44,193.43c1.27,0,2.49,0,2.49,1.62s-1.22,1.62-2.49,1.62H381.7c-1.26,0-2.48,0-2.48-1.62s1.22-1.62,2.48-1.62Z"/><path class="cls-12" d="M537.9,87.67h-2.32C532,84,524.33,81.45,515.46,81.45S499,84,495.33,87.67H493l.08,4.84h0s0,0,0,0c.11,6,10.12,10.91,22.36,10.91s22.24-4.86,22.35-10.91v0h0Z"/><path class="cls-13" d="M538,84.39h-2.32c-3.63-3.7-11.29-6.25-20.18-6.25s-16.55,2.55-20.18,6.25H493l.08,4.87h0v0c.11,6.08,10.14,11,22.41,11s22.3-4.89,22.41-11v0h0Z"/><path class="cls-12" d="M538,82.83h-2.33c-3.63-3.7-11.3-6.26-20.2-6.26s-16.57,2.56-20.2,6.26h-2.33l.09,4.88h0v.05c.11,6.09,10.15,11,22.44,11s22.33-4.9,22.44-11v-.05h0Z"/><path class="cls-13" d="M538.05,79.52h-2.34c-3.64-3.72-11.32-6.29-20.25-6.29s-16.62,2.57-20.26,6.29h-2.33l.09,4.91h0v0c.11,6.12,10.18,11,22.5,11s22.39-4.93,22.5-11v0h0Z"/><path class="cls-12" d="M538.08,78h-2.34c-3.64-3.73-11.34-6.31-20.28-6.31S498.82,74.22,495.18,78h-2.34l.09,4.93h0v0C493,89.06,503.13,94,515.46,94S537.87,89.06,538,82.92c0,0,0,0,0,0h0Z"/><path class="cls-13" d="M538.14,74.62h-2.35c-3.65-3.75-11.37-6.35-20.33-6.35s-16.68,2.6-20.34,6.35h-2.34l.09,4.95h0v0c.11,6.18,10.22,11.14,22.59,11.14s22.47-5,22.59-11.14c0,0,0,0,0,0h0Z"/><path class="cls-12" d="M538.16,73h-2.34c-3.66-3.76-11.39-6.36-20.36-6.36S498.75,69.28,495.1,73h-2.35l.09,5h0v0c.11,6.19,10.24,11.16,22.62,11.16s22.5-5,22.61-11.16v0h0Z"/><path class="cls-13" d="M538.23,69.68h-2.36c-3.66-3.78-11.41-6.4-20.41-6.4S498.71,65.9,495,69.68h-2.35l.09,5h0v0c.11,6.23,10.27,11.23,22.68,11.23s22.56-5,22.67-11.23v0h0Z"/><path class="cls-12" d="M538.26,68H535.9c-3.67-3.79-11.43-6.41-20.44-6.41S498.69,64.2,495,68h-2.35l.09,5h0V73c.11,6.24,10.28,11.25,22.71,11.25s22.59-5,22.7-11.25V73h0Z"/><path class="cls-13" d="M538.32,64.6H536c-3.69-3.81-11.47-6.44-20.5-6.44S498.64,60.79,495,64.6H492.6l.09,5h0v.05C492.8,76,503,81,515.46,81s22.65-5,22.77-11.31c0,0,0,0,0-.05h0Z"/><path class="cls-12" d="M538.35,63H536c-3.68-3.82-11.47-6.47-20.52-6.47S498.62,59.18,494.93,63h-2.36l.09,5h0v0c.12,6.29,10.32,11.34,22.8,11.34s22.68-5.05,22.79-11.34v0h0Z"/><path class="cls-13" d="M538.41,59.58H536c-3.7-3.84-11.51-6.49-20.58-6.49s-16.88,2.65-20.58,6.49h-2.37l.09,5.07h0v0C492.71,71,503,76.1,515.46,76.1S538.2,71,538.32,64.7c0,0,0,0,0,0h0Z"/><path class="cls-12" d="M538.44,58h-2.38c-3.7-3.86-11.52-6.52-20.6-6.52S498.55,54.11,494.85,58h-2.37l.09,5.08h0v0c.12,6.34,10.36,11.44,22.89,11.44s22.77-5.1,22.88-11.44v0h0Z"/><path class="cls-13" d="M538.5,54.52h-2.38C532.41,50.65,524.57,48,515.46,48s-17,2.68-20.66,6.55h-2.38l.09,5.11h0v0c.12,6.37,10.39,11.49,23,11.49s22.83-5.12,22.95-11.49c0,0,0,0,0,0h0Z"/><path class="cls-12" d="M538.53,53h-2.39c-3.71-3.88-11.56-6.57-20.68-6.57s-17,2.69-20.69,6.57h-2.38l.09,5.12h0v0c.12,6.39,10.4,11.52,23,11.52s22.86-5.13,23-11.52v0h0Z"/><path class="cls-13" d="M538.52,53.56c-.12,6.44-10.44,11.61-23.06,11.61S492.52,60,492.4,53.56s10.2-11.82,23.06-11.82S538.63,47.06,538.52,53.56Z"/><path class="cls-14" d="M533.91,53.56h-1.48c0,2.38-1.95,4.52-5,6.07a29.79,29.79,0,0,1-23.89,0c-3.07-1.55-5-3.69-5-6.07s1.84-4.54,4.91-6.12a29.79,29.79,0,0,1,24.12,0c3.07,1.58,4.94,3.74,4.91,6.12h3c.09-5.61-8.83-10.19-19.92-10.2s-20,4.59-19.92,10.2,9,10,19.92,10,19.83-4.47,19.92-10Z"/><path class="cls-15" d="M511.19,55.3v3.4c0,.79-.73,1.19-2.19,1.19s-2.2-.4-2.2-1.19l-.07-10c0-1,1-1.57,2.92-1.57h9.46a14,14,0,0,1,5.89,1,3.21,3.21,0,0,1,2.11,3.06,3.3,3.3,0,0,1-2.16,3,14,14,0,0,1-5.86,1Zm0-2.23h7.1a10.08,10.08,0,0,0,3.48-.4,1.55,1.55,0,0,0,0-2.85,10.33,10.33,0,0,0-3.48-.39h-7.12Z"/><path class="cls-12" d="M584,87.67h-2.32c-3.62-3.68-11.25-6.22-20.12-6.22S545.09,84,541.47,87.67h-2.31l.08,4.84h0s0,0,0,0c.11,6,10.12,10.91,22.36,10.91S583.84,98.61,584,92.56v0h0Z"/><path class="cls-13" d="M584.1,84.39h-2.33c-3.62-3.7-11.28-6.25-20.17-6.25s-16.55,2.55-20.18,6.25H539.1l.08,4.87h0v0c.11,6.08,10.15,11,22.42,11s22.3-4.89,22.41-11v0h0Z"/><path class="cls-12" d="M584.13,82.83H581.8c-3.63-3.7-11.3-6.26-20.2-6.26S545,79.13,541.39,82.83h-2.32l.09,4.88h0v.05c.11,6.09,10.15,11,22.44,11s22.33-4.9,22.44-11v-.05h0Z"/><path class="cls-13" d="M584.19,79.52h-2.34c-3.64-3.72-11.32-6.29-20.25-6.29S545,75.8,541.34,79.52H539l.09,4.91h0v0c.11,6.12,10.18,11,22.5,11s22.39-4.93,22.5-11c0,0,0,0,0,0h0Z"/><path class="cls-12" d="M584.21,78h-2.33c-3.65-3.73-11.34-6.31-20.28-6.31S545,74.22,541.32,78H539l.09,4.93h0v0C539.18,89.06,549.27,94,561.6,94S584,89.06,584.12,82.92v0h0Z"/><path class="cls-13" d="M584.27,74.62h-2.34c-3.65-3.75-11.37-6.35-20.33-6.35s-16.68,2.6-20.34,6.35h-2.34l.09,4.95h0v0c.11,6.18,10.22,11.14,22.59,11.14s22.47-5,22.58-11.14v0h0Z"/><path class="cls-12" d="M584.3,73H582c-3.66-3.76-11.39-6.36-20.36-6.36s-16.71,2.6-20.36,6.36h-2.35l.09,5h0v0c.11,6.19,10.24,11.16,22.62,11.16s22.5-5,22.61-11.16v0h0Z"/><path class="cls-13" d="M584.36,69.68H582c-3.67-3.78-11.41-6.4-20.41-6.4s-16.75,2.62-20.42,6.4h-2.35l.09,5h0v0c.11,6.23,10.27,11.23,22.68,11.23s22.56-5,22.67-11.23v0h0Z"/><path class="cls-12" d="M584.39,68H582c-3.67-3.79-11.43-6.41-20.44-6.41S544.83,64.2,541.15,68H538.8l.09,5h0V73c.11,6.24,10.28,11.25,22.71,11.25s22.59-5,22.7-11.25V73h0Z"/><path class="cls-13" d="M584.46,64.6H582.1c-3.69-3.81-11.47-6.44-20.5-6.44s-16.82,2.63-20.5,6.44h-2.36l.09,5h0v.05C538.94,76,549.14,81,561.6,81s22.65-5,22.76-11.31v-.05h0Z"/><path class="cls-12" d="M584.49,63h-2.37c-3.69-3.82-11.48-6.47-20.52-6.47S544.76,59.18,541.07,63h-2.36l.09,5h0v0c.11,6.29,10.32,11.34,22.8,11.34s22.68-5.05,22.79-11.34v0h0Z"/><path class="cls-13" d="M584.55,59.58h-2.37c-3.7-3.84-11.51-6.49-20.58-6.49S544.71,55.74,541,59.58h-2.37l.09,5.07h0v0c.11,6.32,10.35,11.4,22.86,11.4S584.34,71,584.45,64.7v0h0Z"/><path class="cls-12" d="M584.58,58H582.2c-3.7-3.86-11.52-6.52-20.6-6.52S544.69,54.11,541,58h-2.37l.09,5.08h0v0c.12,6.34,10.36,11.44,22.89,11.44s22.77-5.1,22.88-11.44v0h0Z"/><path class="cls-13" d="M584.64,54.52h-2.38C578.55,50.65,570.71,48,561.6,48s-17,2.68-20.66,6.55h-2.38l.09,5.11h0v0c.11,6.37,10.39,11.49,23,11.49s22.83-5.12,22.95-11.49c0,0,0,0,0,0h0Z"/><path class="cls-12" d="M584.67,53h-2.39c-3.71-3.88-11.56-6.57-20.68-6.57s-17,2.69-20.69,6.57h-2.38l.09,5.12h0v0c.12,6.39,10.4,11.52,23,11.52s22.86-5.13,23-11.52v0h0Z"/><path class="cls-13" d="M584.66,53.56c-.12,6.44-10.44,11.61-23.06,11.61s-23-5.17-23.06-11.61,10.2-11.82,23.06-11.82S584.77,47.06,584.66,53.56Z"/><path class="cls-14" d="M580,53.56h-1.47c0,2.38-2,4.52-5,6.07a29.79,29.79,0,0,1-23.89,0c-3.07-1.55-5-3.69-5-6.07s1.84-4.54,4.91-6.12a29.79,29.79,0,0,1,24.12,0c3.06,1.58,4.94,3.74,4.91,6.12h2.95c.09-5.61-8.83-10.19-19.92-10.2s-20,4.59-19.93,10.2,9,10,19.93,10,19.83-4.47,19.92-10Z"/><path class="cls-15" d="M557.33,55.3v3.4c0,.79-.73,1.19-2.19,1.19s-2.2-.4-2.2-1.19l-.07-10c0-1,1-1.57,2.92-1.57h9.46a13.88,13.88,0,0,1,5.88,1,3.2,3.2,0,0,1,2.11,3.06,3.28,3.28,0,0,1-2.15,3,14,14,0,0,1-5.87,1Zm0-2.23h7.1a10.08,10.08,0,0,0,3.48-.4,1.45,1.45,0,0,0,.94-1.42,1.43,1.43,0,0,0-.93-1.43,10.33,10.33,0,0,0-3.48-.39h-7.12Z"/><path class="cls-12" d="M561,126.23h-2.32C555,122.56,547.4,120,538.53,120s-16.51,2.54-20.13,6.21h-2.31l.08,4.84h0s0,0,0,.05c.11,6,10.12,10.91,22.36,10.91s22.24-4.86,22.35-10.91v-.05h0Z"/><path class="cls-13" d="M561,123H558.7c-3.62-3.7-11.28-6.25-20.17-6.25S522,119.25,518.35,123H516l.08,4.87h0s0,0,0,0c.11,6.08,10.14,11,22.41,11s22.3-4.89,22.41-11v0h0Z"/><path class="cls-12" d="M561.06,121.39h-2.33c-3.63-3.7-11.3-6.26-20.2-6.26s-16.57,2.56-20.21,6.26H516l.09,4.88h0v0c.11,6.1,10.15,11,22.44,11s22.33-4.89,22.44-11v0h0Z"/><path class="cls-13" d="M561.12,118.08h-2.34c-3.64-3.72-11.32-6.29-20.25-6.29s-16.62,2.57-20.26,6.29h-2.33L516,123h0V123c.11,6.13,10.18,11,22.5,11s22.39-4.92,22.5-11V123h0Z"/><path class="cls-12" d="M561.15,116.52h-2.34c-3.65-3.74-11.34-6.32-20.28-6.32s-16.64,2.58-20.28,6.32h-2.34l.09,4.92h0v0c.11,6.15,10.2,11.08,22.53,11.08s22.41-4.93,22.53-11.08c0,0,0,0,0,0h0Z"/><path class="cls-13" d="M561.21,113.18h-2.35c-3.65-3.75-11.37-6.34-20.33-6.34s-16.68,2.59-20.34,6.34h-2.34l.09,4.95h0v.05c.11,6.17,10.22,11.13,22.59,11.13s22.47-5,22.59-11.13a.43.43,0,0,0,0-.05h0Z"/><path class="cls-12" d="M561.23,111.6h-2.34c-3.66-3.76-11.39-6.36-20.36-6.36s-16.71,2.6-20.36,6.36h-2.35l.09,5h0v0c.11,6.19,10.24,11.16,22.62,11.16s22.5-5,22.61-11.16v0h0Z"/><path class="cls-13" d="M561.29,108.24h-2.35c-3.66-3.78-11.41-6.39-20.41-6.39s-16.75,2.61-20.42,6.39h-2.35l.09,5h0v0c.11,6.23,10.27,11.23,22.68,11.23s22.56-5,22.67-11.23v0h0Z"/><path class="cls-12" d="M561.33,106.55H559c-3.67-3.79-11.43-6.41-20.44-6.41s-16.77,2.62-20.45,6.41h-2.35l.09,5h0v0c.11,6.24,10.28,11.25,22.71,11.25s22.59-5,22.7-11.25v0h0Z"/><path class="cls-13" d="M561.39,103.17H559c-3.69-3.82-11.47-6.45-20.5-6.45s-16.82,2.63-20.5,6.45h-2.36l.09,5h0v0c.11,6.27,10.31,11.31,22.77,11.31s22.65-5,22.76-11.31c0,0,0,0,0,0h0Z"/><path class="cls-12" d="M561.42,101.56h-2.37c-3.69-3.82-11.47-6.46-20.52-6.46s-16.84,2.64-20.53,6.46h-2.36l.09,5h0v.05c.12,6.29,10.32,11.34,22.8,11.34s22.68-5,22.79-11.34v-.05h0Z"/><path class="cls-13" d="M561.48,98.15h-2.37c-3.7-3.85-11.51-6.5-20.58-6.5S521.64,94.3,518,98.15h-2.37l.09,5.06h0v.05c.11,6.32,10.35,11.4,22.86,11.4s22.74-5.08,22.86-11.4c0,0,0,0,0-.05h0Z"/><path class="cls-12" d="M561.51,96.53h-2.38c-3.7-3.85-11.52-6.52-20.6-6.52s-16.91,2.67-20.61,6.52h-2.37l.09,5.08h0v0c.12,6.34,10.36,11.44,22.89,11.44s22.77-5.1,22.88-11.44v0h0Z"/><path class="cls-13" d="M561.57,93.09h-2.38c-3.71-3.88-11.55-6.56-20.66-6.56s-16.95,2.68-20.66,6.56h-2.38l.09,5.1h0v0c.11,6.37,10.39,11.5,22.95,11.5s22.83-5.13,23-11.5c0,0,0,0,0,0h0Z"/><path class="cls-12" d="M561.6,91.55h-2.39C555.5,87.67,547.65,85,538.53,85s-17,2.69-20.69,6.57h-2.38l.09,5.12h0v0c.12,6.39,10.4,11.52,23,11.52s22.86-5.13,23-11.52v0h0Z"/><path class="cls-13" d="M561.59,92.13c-.12,6.43-10.44,11.6-23.06,11.6s-22.95-5.17-23.06-11.6,10.2-11.82,23.06-11.82S561.7,85.63,561.59,92.13Z"/><path class="cls-14" d="M557,92.13H555.5c0,2.37-2,4.51-5,6.06a29.79,29.79,0,0,1-23.89,0c-3.07-1.55-5-3.69-5-6.06s1.84-4.55,4.91-6.13a29.79,29.79,0,0,1,24.12,0c3.07,1.58,4.94,3.74,4.91,6.13h3c.09-5.62-8.83-10.2-19.92-10.2s-20,4.58-19.93,10.2,9,10,19.93,10,19.83-4.48,19.92-10Z"/><path class="cls-15" d="M534.26,93.86v3.4c0,.79-.73,1.19-2.19,1.19s-2.2-.4-2.2-1.19l-.07-10c0-1,1-1.57,2.92-1.57h9.46a14.12,14.12,0,0,1,5.89,1,3.23,3.23,0,0,1,2.11,3.06,3.29,3.29,0,0,1-2.16,3,13.84,13.84,0,0,1-5.86,1Zm0-2.23h7.1a10.08,10.08,0,0,0,3.48-.4,1.55,1.55,0,0,0,0-2.85,10.33,10.33,0,0,0-3.48-.39h-7.12Z"/><ellipse class="cls-6" cx="475.06" cy="30.84" rx="14.03" ry="13.87"/><ellipse class="cls-16" cx="504.65" cy="19.76" rx="9.91" ry="9.79"/><rect class="cls-17" x="454.18" y="63.34" width="14.49" height="5.27" rx="2.25" ry="2.25" transform="translate(920.81 144.97) rotate(-178.38)"/><path class="cls-17" d="M467.05,56.74a7.06,7.06,0,1,1-8.28-5.58A7.05,7.05,0,0,1,467.05,56.74Z"/><path class="cls-16" d="M452.1,59.65a7.06,7.06,0,1,1-8.27-5.58A7,7,0,0,1,452.1,59.65Z"/><path class="cls-16" d="M425.17,108.35a5.64,5.64,0,0,1-1.79.05,5.56,5.56,0,0,1-4.8-6.24c2-15.44,18.37-31.35,35.73-34.73,16.87-3.29,37.8,5,45.7,18a5.57,5.57,0,1,1-9.52,5.78c-5-8.22-20.61-15.46-34.05-12.84-13.82,2.69-25.56,15.54-26.82,25.22A5.57,5.57,0,0,1,425.17,108.35Z"/><rect class="cls-16" x="438.57" y="66.38" width="14.49" height="5.27" rx="2.25" ry="2.25" transform="translate(9.8 184.8) rotate(-23.67)"/><path class="cls-5" d="M486.71,107.84c-1.14-15.58-18.82-25.92-26.28-28.21-2.91-.88-9-1.54-15.38-2a39.94,39.94,0,0,0-15.48,17.1l-5.73,11.49c-7.33,14.72-5,26,4.53,31.16,5.74,3.09,14.1,3.93,24.53,1.9l15.85-3.09C476.13,129.9,487.49,118.42,486.71,107.84Z"/><path class="cls-18" d="M496.47,92.06l-9.62-8.5a40.5,40.5,0,0,0-19.57-9.87,32.42,32.42,0,0,0-22.23,3.93c6.37.47,12.47,1.13,15.38,2,7.46,2.29,25.14,12.63,26.28,28.21.78,10.58-10.58,22.06-18,28.34l13.2-2.57C509.68,128.21,516.22,109.51,496.47,92.06Z"/><circle class="cls-19" cx="335.7" cy="131.27" r="43.65"/><circle class="cls-20" cx="336.55" cy="130.41" r="27.5"/><circle class="cls-21" cx="334.86" cy="132.14" r="24.75"/><path class="cls-9" d="M279.45,97.87l1.54,8.24a2.43,2.43,0,0,0,2.82,1.94l.91-.17h0a2.42,2.42,0,0,1-1.43-1.78l-1.54-8.24A2.39,2.39,0,0,0,279,95.9a2.25,2.25,0,0,0-.77.3A2.45,2.45,0,0,1,279.45,97.87Z"/><path class="cls-9" d="M289.52,96l1.54,8.25a2.42,2.42,0,0,0,2.81,1.93l.91-.17h0a2.42,2.42,0,0,1-1.43-1.78L291.85,96a2.35,2.35,0,0,0-2.65-2,1.85,1.85,0,0,0-.8.34A2.52,2.52,0,0,1,289.52,96Z"/><path class="cls-9" d="M307,165.54l-8-42.79a10.41,10.41,0,0,0,6.28-11.54l-3.21-17.16a2.39,2.39,0,0,0-2.75-2,2.08,2.08,0,0,0-.77.31,2.4,2.4,0,0,1,1.19,1.66L303,111.24a10.43,10.43,0,0,1-6.28,11.54l8,42.78a4.69,4.69,0,0,1-3,5.43,4,4,0,0,0,1.89.12A4.66,4.66,0,0,0,307,165.54Z"/><path class="cls-22" d="M285,108l.24-.05a2.39,2.39,0,0,1-.46-.12h0L284,108A2.31,2.31,0,0,0,285,108Z"/><path class="cls-23" d="M287.31,108l.9-.17a2.43,2.43,0,0,0,1.94-2.82l-1.54-8.24a2.49,2.49,0,0,1,.4-1.88,2.32,2.32,0,0,0-.61-.56,2.44,2.44,0,0,0-1,2.45L289,105a2.42,2.42,0,0,1-1.93,2.82l-.67.13A2.42,2.42,0,0,0,287.31,108Z"/><path class="cls-22" d="M295,106.16l.24,0a2.22,2.22,0,0,1-.46-.12h0l-.72.13A2.31,2.31,0,0,0,295,106.16Z"/><path class="cls-23" d="M299.54,167.15l-8-42.79a10.42,10.42,0,0,1-10-8.5L278.33,98.7a2.42,2.42,0,0,1,.52-2,2.57,2.57,0,0,0-.59-.5,2.43,2.43,0,0,0-1.09,2.51l3.2,17.16a10.43,10.43,0,0,0,10,8.5l8,42.79A4.89,4.89,0,0,0,301.7,171a4,4,0,0,0,.57-.24A4.94,4.94,0,0,1,299.54,167.15Z"/><path class="cls-23" d="M297.37,106.13l.91-.17a2.41,2.41,0,0,0,1.93-2.82l-1.54-8.24a2.4,2.4,0,0,1,.53-2,2.35,2.35,0,0,0-.6-.49,2.41,2.41,0,0,0-1.09,2.5l1.54,8.25a2.44,2.44,0,0,1-1.94,2.82l-.67.12A2.42,2.42,0,0,0,297.37,106.13Z"/><path class="cls-22" d="M304.71,165.56l-8-42.78A10.43,10.43,0,0,0,303,111.24l-3.21-17.17a2.33,2.33,0,0,0-.59-1.17,2.4,2.4,0,0,0-.53,2l1.54,8.24a2.41,2.41,0,0,1-1.93,2.82l-.91.17a2.42,2.42,0,0,1-.93,0l-.23.05a2.41,2.41,0,0,1-.93,0l-.24,0a2.31,2.31,0,0,1-1,0l-.19,0a2.42,2.42,0,0,1-2.81-1.93L289.52,96A2.56,2.56,0,0,0,289,94.9a2.49,2.49,0,0,0-.4,1.88l1.54,8.24a2.43,2.43,0,0,1-1.94,2.82l-.9.17a2.42,2.42,0,0,1-.93,0l-.24,0a2.23,2.23,0,0,1-.93,0L285,108a2.31,2.31,0,0,1-1,0l-.18,0a2.43,2.43,0,0,1-2.82-1.94l-1.54-8.24a2.43,2.43,0,0,0-.6-1.17,2.42,2.42,0,0,0-.52,2l3.21,17.16a10.42,10.42,0,0,0,10,8.5l8,42.79a4.94,4.94,0,0,0,2.73,3.6A4.76,4.76,0,0,0,304.71,165.56Z"/><path class="cls-9" d="M369.6,165.67a4.87,4.87,0,0,0,1.41,4.88,3.62,3.62,0,0,1-.46-.06,4.65,4.65,0,0,1-3.07-5.78l6.75-26.43a16.62,16.62,0,0,0,2.22.58Z"/><path class="cls-9" d="M389.26,91.1a3.81,3.81,0,0,1,1.57.08,4,4,0,0,1,1.66.89,4.06,4.06,0,0,0-1.1,0c-3,0-10.56,5.29-21.54,39.56a4.5,4.5,0,0,0,2.2,5.69c-2.8-.95-5.54-2.85-4.33-6.65C378.71,96.39,386.3,91.14,389.26,91.1Z"/><path class="cls-9" d="M374.23,138.28a11.5,11.5,0,0,1-2.18-1,18.74,18.74,0,0,0,2.28.59Z"/><path class="cls-22" d="M369.85,131.62c11-34.27,18.57-39.52,21.54-39.56a4.06,4.06,0,0,1,1.1,0A4.9,4.9,0,0,1,393.9,97L376,166.89a4.69,4.69,0,0,1-5,3.66,4.87,4.87,0,0,1-1.41-4.88l6.85-26.81a16.62,16.62,0,0,1-2.22-.58l.1-.38a18.74,18.74,0,0,1-2.28-.59A4.5,4.5,0,0,1,369.85,131.62Z"/><path class="cls-22" d="M373.21,137.65c-.38-.1-.77-.21-1.16-.34l-.43-.3c.57.17,1.13.31,1.65.41Z"/><path class="cls-23" d="M375,166.41l17.88-69.94a5,5,0,0,0-1-4.44,4.44,4.44,0,0,1,.63,0A4.9,4.9,0,0,1,393.9,97L376,166.89a4.69,4.69,0,0,1-5,3.66,3.92,3.92,0,0,1-.45-.46A4.75,4.75,0,0,0,375,166.41Z"/><path class="cls-22" d="M375.33,138.61c-.36-.1-.73-.2-1.1-.33l0-.15c.39.1.77.18,1.12.25Z"/><path class="cls-22" d="M374.27,138.13c-.36-.1-.73-.2-1.1-.33l0-.15c.39.1.76.18,1.12.25Z"/><path class="cls-22" d="M369.85,131.62c11-34.27,18.57-39.52,21.54-39.56a3.59,3.59,0,0,1,.47,0,5,5,0,0,1,1,4.44L375,166.41a4.75,4.75,0,0,1-4.4,3.68,5,5,0,0,1-1-4.42l6.85-26.81c-.35-.07-.73-.15-1.12-.25l.06-.23c-.35-.07-.73-.15-1.12-.25l.06-.23c-.36-.07-.73-.15-1.12-.25l.06-.23c-.52-.1-1.08-.24-1.65-.41A4.38,4.38,0,0,1,369.85,131.62Z"/><path class="cls-24" d="M335.14,104.89a.56.56,0,0,0-.05-.08s0,0,0,0Z"/><path class="cls-25" d="M335.07,104.85A6,6,0,1,0,324,101a6,6,0,0,0-8.75,7.86,6,6,0,1,0,7.49,8.55,6,6,0,0,0,7.05-1.75,6,6,0,1,0,5.26-10.83Z"/><path class="cls-24" d="M320.23,115.25a6,6,0,0,0,7.06-1.75,6,6,0,0,0,8.83-5.39,5.91,5.91,0,0,0-1-3.22l-.07,0s0,0,0,0a6.07,6.07,0,0,0-2.54-2.14,6,6,0,0,0,1-3.36,6,6,0,0,0-1-3.23,6.21,6.21,0,0,0-2.59-.56A6,6,0,0,0,324,101a6,6,0,0,0-8.75,7.86,6,6,0,0,0-3.78,5.65,5.93,5.93,0,0,0,1,3.22,5.87,5.87,0,0,0,2.58.56A6,6,0,0,0,320.23,115.25Z"/><rect class="cls-26" x="307.95" y="116.43" width="8.23" height="24.7" rx="3.89" ry="3.89" transform="translate(73.83 -110.41) rotate(22.69)"/><rect class="cls-27" x="312.51" y="121.09" width="8.23" height="24.7" rx="3.89" ry="3.89" transform="translate(24.68 -47.74) rotate(8.97)"/><path class="cls-28" d="M360.22,118.49c.22.4.42.82.61,1.24C360.64,119.31,360.44,118.9,360.22,118.49Z"/><path class="cls-28" d="M361.05,120.24c.17.41.33.83.47,1.25C361.38,121.07,361.22,120.65,361.05,120.24Z"/><path class="cls-28" d="M361.72,122.1c.12.41.24.82.34,1.24C362,122.92,361.84,122.51,361.72,122.1Z"/><path class="cls-28" d="M362.66,128.18c0,.39,0,.78,0,1.17C362.67,129,362.66,128.57,362.66,128.18Z"/><path class="cls-28" d="M362.52,126.08c.05.4.09.8.11,1.21C362.61,126.88,362.57,126.48,362.52,126.08Z"/><path class="cls-28" d="M362.21,124.05c.08.4.16.82.22,1.23C362.37,124.86,362.29,124.46,362.21,124.05Z"/><path class="cls-28" d="M362.6,130.34c0,.37,0,.75-.09,1.12C362.56,131.09,362.58,130.71,362.6,130.34Z"/><path class="cls-28" d="M327.68,151.39q-.49-.46-1-1C327,150.76,327.34,151.08,327.68,151.39Z"/><path class="cls-28" d="M329,152.46c-.28-.2-.53-.42-.79-.64C328.46,152,328.71,152.26,329,152.46Z"/><path class="cls-28" d="M356.74,114a14.91,14.91,0,0,1,1.12,1.13A14.91,14.91,0,0,0,356.74,114Z"/><path class="cls-28" d="M359.22,116.87c.27.39.53.8.77,1.21C359.75,117.67,359.49,117.26,359.22,116.87Z"/><path class="cls-28" d="M358.06,115.38a13.4,13.4,0,0,1,.93,1.18A13.4,13.4,0,0,0,358.06,115.38Z"/><path class="cls-28" d="M355.27,112.85a15.45,15.45,0,0,1,1.33,1.06A15.45,15.45,0,0,0,355.27,112.85Z"/><path class="cls-28" d="M361.92,134.77c-.08.33-.15.66-.24,1C361.77,135.43,361.84,135.1,361.92,134.77Z"/><path class="cls-28" d="M360.39,139.36c-.1.23-.19.47-.3.7C360.2,139.83,360.29,139.59,360.39,139.36Z"/><path class="cls-28" d="M361.28,137c-.1.29-.19.59-.3.89C361.09,137.62,361.18,137.32,361.28,137Z"/><path class="cls-28" d="M326.93,149.94c9.29,5.24,22.06.2,28.52-11.25,5.09-9,4.73-19.31-.18-25.84a14.06,14.06,0,0,0-1.37-.9c-9.29-5.24-22.06-.2-28.52,11.26-5.41,9.59-4.66,20.62,1.17,27-.35-.39-.68-.78-1-1.2A14,14,0,0,0,326.93,149.94Z"/><path class="cls-28" d="M330.48,153.43h0a15.83,15.83,0,0,0,5.23,1.82,15.83,15.83,0,0,1-5.23-1.82Z"/><path class="cls-28" d="M362.36,132.54c-.05.36-.1.71-.17,1.06C362.26,133.25,362.31,132.9,362.36,132.54Z"/><polygon class="cls-29" points="355.27 112.85 355.27 112.85 355.27 112.85 355.27 112.85"/><path class="cls-29" d="M362.66,129.35q0,.5-.06,1Q362.65,129.84,362.66,129.35Z"/><path class="cls-29" d="M356.6,113.91l.14.12Z"/><path class="cls-29" d="M362.51,131.46q-.06.54-.15,1.08Q362.45,132,362.51,131.46Z"/><path class="cls-29" d="M362.19,133.6q-.12.59-.27,1.17Q362.07,134.19,362.19,133.6Z"/><path class="cls-29" d="M357.86,115.16a2.09,2.09,0,0,1,.2.22A2.09,2.09,0,0,0,357.86,115.16Z"/><path class="cls-29" d="M326.72,150.43l-.17-.18Z"/><path class="cls-29" d="M330.48,153.43c-.52-.3-1-.63-1.49-1A15.24,15.24,0,0,0,330.48,153.43Z"/><path class="cls-29" d="M328.2,151.82l-.52-.43Z"/><path class="cls-29" d="M359,142.18c-5.31,9.42-14.88,14.48-23.28,13.08,8.4,1.41,18-3.66,23.28-13.08.4-.7.75-1.41,1.08-2.12C359.76,140.77,359.41,141.48,359,142.18Z"/><path class="cls-29" d="M362.63,127.29c0,.29,0,.59,0,.89C362.65,127.88,362.65,127.58,362.63,127.29Z"/><path class="cls-29" d="M361.52,121.49c.07.2.14.4.2.61C361.66,121.89,361.59,121.69,361.52,121.49Z"/><path class="cls-29" d="M362.06,123.34l.15.71Z"/><path class="cls-29" d="M361.68,135.76c-.12.42-.26.84-.4,1.27C361.42,136.6,361.56,136.18,361.68,135.76Z"/><path class="cls-29" d="M362.43,125.28l.09.8Z"/><path class="cls-29" d="M360.83,119.73c.08.17.15.34.22.51C361,120.07,360.91,119.9,360.83,119.73Z"/><path class="cls-29" d="M359,116.56a3.55,3.55,0,0,1,.23.31A3.55,3.55,0,0,0,359,116.56Z"/><path class="cls-29" d="M361,137.92c-.18.48-.38,1-.59,1.44C360.6,138.88,360.8,138.4,361,137.92Z"/><path class="cls-29" d="M360,118.08c.07.14.15.27.23.41C360.14,118.35,360.06,118.22,360,118.08Z"/><path class="cls-30" d="M359,142.18c.4-.7.75-1.41,1.08-2.12.11-.23.2-.47.3-.7.21-.48.41-1,.59-1.44.11-.3.2-.6.3-.89s.28-.85.4-1.27.16-.66.24-1,.19-.78.27-1.17.12-.7.17-1.06.11-.72.15-1.08.07-.75.09-1.12,0-.66.06-1,0-.78,0-1.17,0-.6,0-.89-.06-.81-.11-1.21l-.09-.8c-.06-.41-.14-.83-.22-1.23l-.15-.71c-.1-.42-.22-.83-.34-1.24-.06-.21-.13-.41-.2-.61-.14-.42-.3-.84-.47-1.25-.07-.17-.14-.34-.22-.51-.19-.42-.39-.84-.61-1.24-.08-.14-.16-.27-.23-.41-.24-.41-.5-.82-.77-1.21a3.55,3.55,0,0,0-.23-.31,13.4,13.4,0,0,0-.93-1.18,2.09,2.09,0,0,0-.2-.22,14.91,14.91,0,0,0-1.12-1.13l-.14-.12a15.45,15.45,0,0,0-1.33-1.06h0c4.91,6.53,5.27,16.82.18,25.84-6.46,11.45-19.23,16.49-28.52,11.25a14,14,0,0,1-1.37-.89c.31.42.64.81,1,1.2l.17.18q.46.49,1,1l.52.43c.26.22.51.44.79.64.48.34,1,.67,1.49,1h0a15.83,15.83,0,0,0,5.23,1.82C344.13,156.66,353.7,151.6,359,142.18Z"/><path class="cls-5" d="M364.35,143.35c-2.32-.26-5.51-2.54-4.94-4.06s-.85-6.86-5.77-9-8.85-2.66-12-.28-4.64,6.52-.7,8.83,10.8,1.27,12,4.39.11,4.11,1.82,5.08c2.17,1.23,8.34,3.05,9.87-.1S365.54,143.93,364.35,143.35Z"/><path class="cls-31" d="M348.58,129.62s-2.77-.34-4,.33,4.25,1.23,6.56,1.6C353.22,131.89,351.75,130.47,348.58,129.62Z"/><polygon class="cls-32" points="233.48 16.32 177.14 2.99 155.47 94.59 232.85 112.9 248.61 46.25 233.48 16.32"/><polygon class="cls-33" points="248.61 46.25 233.48 16.32 232.52 16.09 161.59 68.72 155.47 94.59 177.28 99.75 248.45 46.94 248.61 46.25"/><polygon class="cls-34" points="227.58 41.28 248.61 46.25 233.48 16.32 227.58 41.28"/><path class="cls-35" d="M187.84,67.07c-1.13,1.27-1.71,1.46-2.25,1.55a2.71,2.71,0,0,1-3.19-2.29,2.36,2.36,0,0,1,.7-2.18,42.13,42.13,0,0,0,5.66-8.89c.92-2.3,1.07-3,2.48-3.27.54-.09,2.94.06,3.28,2,.24,1.4-1.32,4.32-2.36,6.41l3.34,19.53c.28,1.68.63,3.72-2,4.17s-3-1.49-3.3-3.26ZM186,53.55a3.66,3.66,0,0,1-2.21,1.5,2.81,2.81,0,0,1-3-2.2c-.15-.86.15-1.28,2.63-5.11.45-.64,2.16-3.68,2.52-4.3a2.45,2.45,0,0,1,1.77-1.14,2.85,2.85,0,0,1,3.2,2.62C190.8,46.7,187.34,51.82,186,53.55Zm34.13,8.67,1-.17c1.86-.32,3.63-.62,4,1.74s-1.36,2.7-3.21,3l-1,.17,1.16,6.79c.84,4.9-3.06,5.56-5.46,6-5.76,1-6.55-.14-6.85-1.86-.15-.86,0-2.93,1.78-3.24.59-.1,3.2-.08,3.75-.17s1.26-.26,1.07-1.35l-.89-5.21-11.51,2c1.28.95,4.4,3.64,4.63,4.95a2.57,2.57,0,0,1-2.09,2.83c-1.26.21-1.49,0-3.68-2.17-.33-.32-1.88-1.73-2.16-2a2.45,2.45,0,0,1-.68-1.24,2,2,0,0,1,.45-1.75c-2.76.47-4.3.73-4.72-1.67s1.37-2.66,3.23-3l15.72-2.69-.33-1.9-15.4,2.63c-1.77.3-3.63.62-4-1.65s1.47-2.58,3.24-2.88L220,55.62c1.77-.31,3.63-.62,4,1.64s-1.52,2.59-3.24,2.89l-1,.17Zm-5.46-23.74c.91-.15,4.17-.71,4.83,3.14l1.39,8.16c.54,3.13-1.7,4.21-3.52,4.52l-17.26,3c-.9.15-4.17.71-4.82-3.1L193.85,46c-.53-3.13,1.7-4.26,3.51-4.57Zm-.46,6c-.17-1.23-.27-1.59-1.18-1.43l-12.6,2.15c-.95.16-.89.52-.68,1.75ZM200.4,51c.22,1.27.27,1.59,1.22,1.43l12.6-2.16c.9-.15.89-.48.68-1.74Z"/><path class="cls-35" d="M208.73,89a29.1,29.1,0,1,1,23.78-33.58A29.14,29.14,0,0,1,208.73,89Zm-8.79-51.43a23.08,23.08,0,1,0,26.64,18.86A23.1,23.1,0,0,0,199.94,37.56Z"/><path class="cls-6" d="M140,105.65V103.3c0-.9,0-1.76,1.34-1.76s1.34.88,1.34,1.76v2.35h6c.79,0,1.76,0,1.76,1.26s-1,1.27-1.76,1.27h-6V112h5.2c.68,0,1.73,0,1.73,1.25s-1.05,1.24-1.73,1.24h-5.2v4.18h7.15c.75,0,1.76,0,1.76,1.29s-1,1.28-1.76,1.28H133.07c-.86,0-1.74,0-1.74-1.3s.88-1.27,1.74-1.27H140v-4.18h-4.89c-.66,0-1.71,0-1.71-1.24s1-1.25,1.71-1.25H140v-3.79h-4.51c-.77,1.32-1.81,3-2.93,3a1.27,1.27,0,0,1-1.27-1.26c0-.39.08-.53.61-1.25a18,18,0,0,0,2.8-5.5,1.27,1.27,0,0,1,1.27-1,1.32,1.32,0,0,1,1.39,1.24,8.73,8.73,0,0,1-.64,2.28Z"/><path class="cls-6" d="M156.87,111.84c-.33,0-.49-.11-1.9-1.1-.24-.16-1.32-.86-1.51-1a1.19,1.19,0,0,1-.53-.94,1.37,1.37,0,0,1,1.21-1.3,7.43,7.43,0,0,1,2.73,1.43c1.07.77,1.36,1.14,1.25,1.74C158.08,110.87,157.64,111.84,156.87,111.84Zm1.78,2.77c0,.11-.16,2-2.42,5.68-.66,1-1,1.34-1.48,1.34s-1.51-.55-1.51-1.28c0-.35.15-.64.7-1.52a21.35,21.35,0,0,0,2.24-4.59,1,1,0,0,1,1-.71C157.48,113.53,158.65,113.69,158.65,114.61Zm-1.21-7.83c-.46,0-.6-.14-1.87-1.15-.24-.2-1.32-1-1.52-1.21a.91.91,0,0,1-.33-.72,1.34,1.34,0,0,1,1.21-1.28,5.19,5.19,0,0,1,2.49,1.47c1.21,1.06,1.27,1.26,1.27,1.61A1.32,1.32,0,0,1,157.44,106.78Zm9.68.55h4.4c.9,0,1.76,0,1.76,1.16s-.73,1.28-1.76,1.28h-4.4v2.42h3a2,2,0,0,1,2.24,2.09v5a2,2,0,0,1-2.24,2.09h-7.94a2,2,0,0,1-2.23-2.09v-5a2,2,0,0,1,2.23-2.09h2.31v-2.42H160.3c-.93,0-1.76,0-1.76-1.17s.7-1.27,1.76-1.27h4.16V105.1c-.64,0-1.46.07-2.62.07-.38,0-1.52,0-1.76,0a1,1,0,0,1-.84-1.17c0-1,.42-1.32,1.41-1.32,2.16,0,4.29,0,6.43-.2.63-.06,3.74-.46,4-.46,1.21,0,1.21.9,1.21,1.14,0,1.17-.29,1.37-5.15,1.81Zm-3.9,7.37c-.46,0-.72,0-.72.59v3c0,.6.26.6.72.6h5.7c.47,0,.71,0,.71-.6v-3c0-.59-.24-.59-.71-.59Z"/><path class="cls-6" d="M181.86,109.09a5.26,5.26,0,0,1,2.35-.53,3.19,3.19,0,0,1,3.21,1.89,44.31,44.31,0,0,1,5-1.58,1.32,1.32,0,0,1,1.3,1.45c0,.88-.49,1.14-1.37,1.38-1.91.51-3.12.91-4.38,1.35.05.59.09,1.25.09,1.78s0,1.91-1.45,1.91a1.41,1.41,0,0,1-1.43-1.56c0-.15,0-.81,0-.94-1.16.57-3.06,1.51-3.06,2.57,0,.9,1,1.39,3.88,1.39a29.19,29.19,0,0,0,3.69-.31,5.92,5.92,0,0,1,.95-.16,1.45,1.45,0,0,1,1.43,1.52,1.37,1.37,0,0,1-.88,1.28c-1.12.48-4.71.48-5.61.48s-3.76,0-5.15-1.14a3.5,3.5,0,0,1-1.34-2.71c0-1.43.59-3.17,5.63-5.65a1.55,1.55,0,0,0-1.17-.51c-2.22,0-4.86,2.07-5.76,3-.75.7-1,.92-1.56.92a1.53,1.53,0,0,1-1.5-1.49,1.38,1.38,0,0,1,.57-1.08c2.82-2.53,3.72-3.35,4.62-5l-2.28,0c-.58,0-1.92,0-1.92-1.37s1.21-1.34,1.7-1.34c1.25,0,2.53,0,3.78-.07.13-.33.62-1.89.77-2.17a1.45,1.45,0,0,1,1.21-.71,1.52,1.52,0,0,1,1.54,1.37,4.82,4.82,0,0,1-.42,1.36c.9,0,2.51-.15,3.33-.24a6.22,6.22,0,0,1,.68,0,1.23,1.23,0,0,1,1.38,1.35,1.2,1.2,0,0,1-1,1.34,54.42,54.42,0,0,1-5.79.37A14.25,14.25,0,0,1,181.86,109.09Z"/><path class="cls-6" d="M203.77,109.33a10.79,10.79,0,0,1,1.87-.13c4.6,0,8.12,2.13,8.12,5.83s-3.26,6.11-7.22,6.11a1.44,1.44,0,0,1-1.65-1.54c0-1.25,1-1.38,2.16-1.56,1.47-.2,3.52-.83,3.52-3,0-2.84-3.92-3-5.08-3a8.15,8.15,0,0,0-1.72.17v5.53a4.38,4.38,0,0,1-.22,1.93,3.27,3.27,0,0,1-3,1.41,5.33,5.33,0,0,1-5.52-5.21c0-3.35,3.23-5.35,5.81-6.12v-2.18l-3.74.13c-1.59.07-1.7-1.08-1.7-1.38,0-1.37,1.15-1.41,1.78-1.43l3.66-.11v-.66c0-1.13,0-2.36,1.45-2.36s1.45,1.23,1.45,2.36v.57l2.33-.07c.82,0,1,0,1.35.18a1.53,1.53,0,0,1,.66,1.21c0,1.32-1.35,1.36-1.72,1.38l-2.62.09Zm-2.9,3.61c-2.45.66-2.69,2.24-2.69,2.86a2.15,2.15,0,0,0,2.18,2.24c.48,0,.51-.24.51-1.05Zm12-3.52c-.75,0-.88-.2-2-2a24,24,0,0,0-1.67-2.22,1.6,1.6,0,0,1-.51-1.15,1.43,1.43,0,0,1,1.41-1.41c.59,0,1.19.31,2.79,2.56a9,9,0,0,1,1.5,2.61A1.53,1.53,0,0,1,212.88,109.42Z"/><path class="cls-6" d="M218.07,113.25c-.64.5-.93.54-1.19.54a1.3,1.3,0,0,1-1.32-1.34,1.11,1.11,0,0,1,.51-1,20.14,20.14,0,0,0,3.38-3.74c.62-1,.75-1.34,1.43-1.34.27,0,1.39.27,1.39,1.21,0,.68-1,1.94-1.63,2.84v9.48c0,.82,0,1.81-1.27,1.81s-1.3-.95-1.3-1.81Zm.2-6.54a1.8,1.8,0,0,1-1.17.53,1.34,1.34,0,0,1-1.23-1.28c0-.42.17-.59,1.65-2.2.26-.26,1.32-1.56,1.54-1.82a1.15,1.15,0,0,1,.92-.4,1.37,1.37,0,0,1,1.3,1.5C221.1,103.87,219.06,106,218.27,106.71Zm15.4,6.84h.48c.9,0,1.76,0,1.76,1.15s-.86,1.16-1.76,1.16h-.48v3.3c0,2.38-1.89,2.38-3.06,2.38-2.8,0-3.08-.59-3.08-1.43,0-.42.22-1.39,1.1-1.39.29,0,1.52.22,1.78.22s.62,0,.62-.55v-2.53h-5.59c.53.55,1.78,2.07,1.78,2.71a1.23,1.23,0,0,1-1.21,1.17c-.62,0-.7-.14-1.56-1.32-.13-.18-.75-1-.86-1.13a1.1,1.1,0,0,1-.22-.63,1,1,0,0,1,.35-.8c-1.34,0-2.09,0-2.09-1.16s.86-1.15,1.76-1.15H231v-.92h-7.48c-.86,0-1.76,0-1.76-1.1s.9-1.1,1.76-1.1h10.6c.86,0,1.76,0,1.76,1.1s-.92,1.1-1.76,1.1h-.48ZM233,101.91a1.76,1.76,0,0,1,2,1.87v4a1.77,1.77,0,0,1-2,1.85h-8.39a1.75,1.75,0,0,1-2-1.85v-4a1.79,1.79,0,0,1,2-1.87Zm-.71,2.8c0-.6,0-.77-.44-.77h-6.11c-.47,0-.47.17-.47.77Zm-7,2c0,.61,0,.77.47.77h6.11c.44,0,.47-.16.47-.77Z"/><path class="cls-6" d="M242.85,113.11a.88.88,0,0,1,.94.91c0,.48-.55,2.5-.61,2.94s-.35,2.49-.53,2.89a1.46,1.46,0,0,1-1.41.81,1.84,1.84,0,0,1-1.74-1.1,18.89,18.89,0,0,1-1.12-7.2c0-3.6.53-8,1.28-9.13a1.35,1.35,0,0,1,1.07-.55,1.43,1.43,0,0,1,1.54,1.28c0,.26-.59,3.41-.68,4.05a43,43,0,0,0-.35,6,9.12,9.12,0,0,0,.11,1.82C241.75,113.77,241.94,113.11,242.85,113.11Zm5.1,2.69c.05,1.36,2.49,1.41,3,1.41,1,0,2.59-.14,3.17-.2a6.31,6.31,0,0,1,.94-.11,1.36,1.36,0,0,1,1.39,1.47c0,1-.4,1.78-3.85,1.78-3,0-4.8,0-6.16-1.1a3.69,3.69,0,0,1-1.35-2.94c0-.91,0-2.27,1.5-2.27C247.86,113.84,247.91,114.68,248,115.8ZM246.74,104c.13,0,2.69.11,3.15.11a23.6,23.6,0,0,0,3.65-.37,5,5,0,0,1,1.1-.18,1.49,1.49,0,0,1,.22,2.93,42.92,42.92,0,0,1-6.31.46c-2,0-3.15,0-3.15-1.61A1.41,1.41,0,0,1,246.74,104Z"/><path class="cls-6" d="M122.1,131c0-1.15,0-2.36,1.48-2.36s1.47,1.21,1.47,2.36v.35l3.08,0c1.25,0,2.36,0,2.36,1.36s-1.15,1.43-2.34,1.43l-3.1,0V138a9.57,9.57,0,0,1,.57,3c0,6-6.42,7.55-7.37,7.55a1.48,1.48,0,0,1-1.52-1.57c0-1.12.73-1.32,1.87-1.67,2.82-.83,3.79-2.26,3.85-3.21a3.25,3.25,0,0,1-2.77,1.36,4.21,4.21,0,1,1,.09-8.42,5.92,5.92,0,0,1,2.33.46v-1.37l-8.71.07c-1.19,0-2.33,0-2.33-1.39s1-1.4,2.31-1.4l8.73-.07Zm-3.67,8.31a1.58,1.58,0,0,0,1.69,1.57,1.6,1.6,0,0,0,1.74-1.59,1.62,1.62,0,0,0-1.78-1.63A1.64,1.64,0,0,0,118.43,139.34Z"/><path class="cls-6" d="M143.08,136.31c5.15,0,6.47,3.47,6.47,5.48,0,4.2-4.14,6.16-8.34,6.16-.84,0-5.77,0-5.77-3.63,0-1.74,1.43-3.26,4.05-3.26,4,0,4.4,3,4.53,3.92,2.12-.84,2.69-2,2.69-3,0-3.12-3.65-3.12-4.38-3.12a10.26,10.26,0,0,0-6.8,2.24c-1.6,1.15-1.78,1.26-2.4,1.26a1.48,1.48,0,0,1-1.47-1.55,2,2,0,0,1,1.1-1.67c4-2.75,4.6-3.14,10.34-6.88-2.77.37-7.44.52-7.61.52a1.39,1.39,0,0,1-1.45-1.45c0-1.47,1.27-1.47,1.91-1.47l2.16,0c1.71,0,4.46-.13,5.28-.17.22,0,1.78-.09,1.85-.09,1.16,0,2.06.5,2.06,1.74a2.67,2.67,0,0,1-1.4,2.11,56,56,0,0,1-5.22,3.25A6.14,6.14,0,0,1,143.08,136.31Zm-3.72,7.15c-.7,0-1.12.33-1.12.7,0,.62,1,1.21,2.22,1.21.2,0,.33,0,.57,0C141,144.8,140.9,143.46,139.36,143.46Z"/><path class="cls-6" d="M155.84,148a1,1,0,1,1-2,0V130.19a1.77,1.77,0,0,1,1.61-1.72h4.84a1,1,0,0,1,1,1.06,1,1,0,0,1-1,1.08h-3.89c-.35,0-.53.17-.53.55Z"/><path class="cls-6" d="M172.65,136.33a10.7,10.7,0,0,1,1.87-.13c4.6,0,8.12,2.13,8.12,5.83s-3.26,6.11-7.22,6.11a1.44,1.44,0,0,1-1.65-1.54c0-1.25,1-1.38,2.15-1.56,1.48-.2,3.53-.83,3.53-3,0-2.84-3.92-3-5.09-3a8,8,0,0,0-1.71.17v5.53a4.38,4.38,0,0,1-.22,1.93,3.27,3.27,0,0,1-3,1.41,5.33,5.33,0,0,1-5.53-5.21c0-3.35,3.24-5.35,5.81-6.12v-2.18l-3.74.13c-1.58.07-1.69-1.08-1.69-1.38,0-1.37,1.14-1.41,1.78-1.43l3.65-.11v-.66c0-1.13,0-2.36,1.45-2.36s1.46,1.23,1.46,2.36v.57l2.33-.07c.81,0,1,0,1.34.18A1.5,1.5,0,0,1,177,133c0,1.32-1.34,1.36-1.72,1.38l-2.61.09Zm-2.91,3.61c-2.44.66-2.68,2.24-2.68,2.86a2.15,2.15,0,0,0,2.18,2.24c.48,0,.5-.24.5-1Zm12-3.52c-.75,0-.88-.2-2-2a22,22,0,0,0-1.67-2.22,1.63,1.63,0,0,1-.5-1.15,1.42,1.42,0,0,1,1.4-1.41c.6,0,1.19.31,2.8,2.56a8.94,8.94,0,0,1,1.49,2.61A1.52,1.52,0,0,1,181.76,136.42Z"/><path class="cls-6" d="M186.94,140.25c-.63.5-.92.54-1.19.54a1.29,1.29,0,0,1-1.31-1.34,1.12,1.12,0,0,1,.5-1,20.21,20.21,0,0,0,3.39-3.74c.62-1,.75-1.34,1.43-1.34.26,0,1.39.27,1.39,1.21,0,.68-1,1.94-1.63,2.84v9.48c0,.82,0,1.81-1.28,1.81s-1.3-1-1.3-1.81Zm.2-6.54a1.74,1.74,0,0,1-1.16.53,1.34,1.34,0,0,1-1.24-1.28c0-.42.18-.59,1.65-2.2.27-.26,1.32-1.56,1.54-1.82a1.16,1.16,0,0,1,.93-.4,1.38,1.38,0,0,1,1.3,1.5C190,130.87,187.93,133,187.14,133.71Zm15.4,6.84H203c.9,0,1.76,0,1.76,1.15s-.86,1.16-1.76,1.16h-.49v3.3c0,2.38-1.89,2.38-3,2.38-2.8,0-3.08-.59-3.08-1.43,0-.42.22-1.39,1.09-1.39.29,0,1.52.22,1.79.22s.61,0,.61-.55v-2.53h-5.59c.53.55,1.79,2.07,1.79,2.71a1.23,1.23,0,0,1-1.21,1.17c-.62,0-.71-.14-1.57-1.32-.13-.18-.74-1-.85-1.13a1.1,1.1,0,0,1-.22-.63,1,1,0,0,1,.35-.8c-1.34,0-2.09,0-2.09-1.16s.86-1.15,1.76-1.15h7.63v-.92h-7.48c-.86,0-1.76,0-1.76-1.1s.9-1.1,1.76-1.1H203c.86,0,1.76,0,1.76,1.1s-.93,1.1-1.76,1.1h-.49Zm-.66-11.64a1.77,1.77,0,0,1,2,1.87v4a1.78,1.78,0,0,1-2,1.85H193.5a1.75,1.75,0,0,1-2-1.85v-4a1.79,1.79,0,0,1,2-1.87Zm-.7,2.8c0-.6,0-.77-.44-.77h-6.12c-.46,0-.46.17-.46.77Zm-7,2c0,.61,0,.77.46.77h6.12c.44,0,.46-.16.46-.77Z"/><path class="cls-6" d="M211.33,143.44c0,.68.09.81.66.81a12.64,12.64,0,0,0,9.9-6.73c.44-.84.68-1.32,1.5-1.32a1.56,1.56,0,0,1,1.58,1.49c0,1.15-1.72,3.9-3.81,5.72a16.09,16.09,0,0,1-10.29,4c-2,0-2.75-.88-2.75-2.75V132.15c0-1.21,0-2.36,1.54-2.36s1.67,1,1.67,2.36Z"/><path class="cls-6" d="M232.41,139.92c-.49,0-.73-.16-2.75-1.39-.33-.2-1.74-1-2-1.17a1.3,1.3,0,0,1-.5-1.08,1.45,1.45,0,0,1,1.41-1.43c.88,0,3,1.39,4.13,2.14.57.37,1,.68,1,1.38A1.5,1.5,0,0,1,232.41,139.92Zm-4.36,6.2a1.49,1.49,0,0,1,1.41-1.61,12.09,12.09,0,0,0,4.36-.44c2.37-.61,6.46-2.2,9.3-8.58a1.42,1.42,0,0,1,1.34-.79,1.51,1.51,0,0,1,1.65,1.45c0,.68-1.1,3.26-3.23,5.66a16.84,16.84,0,0,1-12.74,5.89C229.39,147.7,228.05,147.7,228.05,146.12Zm8.1-14a1.44,1.44,0,0,1,.39,1,1.5,1.5,0,0,1-1.47,1.49c-.44,0-.62-.13-2.31-1.32-.35-.24-2-1.16-2.25-1.41a1.36,1.36,0,0,1-.48-1.07,1.49,1.49,0,0,1,1.58-1.48C232.56,129.46,235.42,131.44,236.15,132.1Z"/><path class="cls-6" d="M252.34,141.9c0,2,0,2.35,4.4,2.35a44.05,44.05,0,0,0,4.93-.29c.77-.08,2.22-.22,2.36-.22a1.51,1.51,0,0,1,1.49,1.59,1.43,1.43,0,0,1-1.1,1.49,49.22,49.22,0,0,1-7.28.55c-6.71,0-7.94-1.23-7.94-4.68V131.62c0-1.19,0-2.33,1.51-2.33s1.63,1,1.63,2.33v3.81A30.38,30.38,0,0,0,262,133.2a2.39,2.39,0,0,1,.92-.26,1.58,1.58,0,0,1,1.45,1.61c0,.92-.48,1.27-2.37,1.95a33.24,33.24,0,0,1-9.62,1.87Zm11.31-9.29a2.42,2.42,0,1,1,2.42-2.42A2.42,2.42,0,0,1,263.65,132.61Zm0-3.52a1.11,1.11,0,0,0-1.1,1.1,1.1,1.1,0,0,0,2.2,0A1.12,1.12,0,0,0,263.65,129.09Z"/><path class="cls-6" d="M274.05,129.33a1,1,0,1,1,2,0v17.76a1.78,1.78,0,0,1-1.61,1.71h-4.84a1.07,1.07,0,0,1,0-2.13h3.9c.35,0,.52-.18.52-.55Z"/></g></g></svg>