<svg id="img" xmlns="http://www.w3.org/2000/svg" viewBox="0 0 150 150"><defs><style>.cls-1{fill:#066b74;}.cls-2{fill:#267e86;}.cls-3{fill:#fff;}.cls-4{fill:#89909f;}.cls-5{fill:#a8adb8;}.cls-6{opacity:0.5;}.cls-7{fill:#bdc3c7;}.cls-8{fill:#f45934;}.cls-9{fill:#a68905;}.cls-10{fill:#c6b405;}.cls-11{fill:#b29605;}.cls-12{fill:#fdf9dc;}.cls-13{fill:#c7b505;}</style></defs><title>img_monitorflow3</title><rect class="cls-1" x="41.56" y="14.45" width="68.64" height="74.7" rx="5.25" ry="5.25" transform="matrix(0.96, 0.28, -0.28, 0.96, 17.17, -18.87)"/><rect class="cls-2" x="42.03" y="12.79" width="68.64" height="74.7" rx="5.25" ry="5.25" transform="translate(16.73 -19.07) rotate(15.96)"/><rect class="cls-3" x="49.02" y="17.36" width="54.35" height="63.55" rx="5.25" ry="5.25" transform="translate(16.45 -19.06) rotate(15.96)"/><path class="cls-4" d="M105.45,18.49l-12-3.42a6.92,6.92,0,0,0-13.14-3.76l-12-3.42a2.27,2.27,0,0,0-2.81,1.56l-1.37,4.79A2.27,2.27,0,0,0,65.78,17l37.06,10.6a2.27,2.27,0,0,0,2.81-1.56L107,21.3A2.27,2.27,0,0,0,105.45,18.49Zm-19.27-2.7A2.65,2.65,0,1,1,89.46,14,2.65,2.65,0,0,1,86.18,15.79Z"/><path class="cls-5" d="M105.81,17.24l-12-3.42a6.92,6.92,0,0,0-13.14-3.76l-12-3.42A2.27,2.27,0,0,0,65.94,8.2L64.57,13a2.27,2.27,0,0,0,1.56,2.81l37.06,10.6A2.27,2.27,0,0,0,106,24.84L107.37,20A2.27,2.27,0,0,0,105.81,17.24Zm-19.27-2.7a2.65,2.65,0,1,1,3.28-1.82A2.65,2.65,0,0,1,86.54,14.54Z"/><g id="List" class="cls-6"><path class="cls-7" d="M71.67,36.58,71,39.08l25.81,7.38.71-2.5ZM68.34,48.24l25.81,7.38.71-2.5L69.05,45.74ZM65.72,57.4l25.81,7.38.71-2.5L66.43,54.9ZM63.1,66.56l25.81,7.38.71-2.5L63.81,64.06Zm4.06-33.07-5.83-1.67-1.67,5.83,5.83,1.67ZM58.7,41,57,46.81l5.83,1.67,1.67-5.83ZM54.42,56l5.83,1.67,1.67-5.83-5.83-1.67ZM51.8,65.13l5.83,1.67L59.29,61,53.46,59.3Z"/></g><g id="Checked"><path class="cls-8" d="M74.29,27.42l-.71,2.5L99.39,37.3l.71-2.5ZM70.36,25.2l-.42-.76a.22.22,0,0,0-.29-.08l-4,2.2a.22.22,0,0,1-.29-.08l-1-1.77a.22.22,0,0,0-.29-.08l-.76.37a.21.21,0,0,0-.1.13.22.22,0,0,0,0,0h0L63,26h0a.22.22,0,0,0,0,.12l1,1.83.21.38.42.76a.22.22,0,0,0,.29.08L70,26.33a.21.21,0,0,0,.09-.1h0l.24-.83h0A.21.21,0,0,0,70.36,25.2Z"/></g><path class="cls-9" d="M58.24,113.64H55.92c-3.62-3.67-11.25-6.21-20.12-6.21S19.29,110,15.67,113.64H13.35l.09,4.85h0s0,0,0,0c.11,6,10.12,10.91,22.35,10.91S58,124.58,58.15,118.53c0,0,0,0,0,0h0Z"/><path class="cls-10" d="M58.3,110.36H56c-3.63-3.69-11.28-6.25-20.18-6.25s-16.55,2.55-20.18,6.25H13.29l.09,4.87h0s0,0,0,0c.11,6.08,10.14,11,22.41,11s22.3-4.89,22.41-11c0,0,0,0,0,0h0Z"/><path class="cls-9" d="M58.32,108.8H56c-3.63-3.7-11.3-6.26-20.2-6.26s-16.57,2.56-20.2,6.26H13.27l.09,4.88h0s0,0,0,0c.11,6.1,10.16,11,22.44,11s22.33-4.9,22.44-11c0,0,0,0,0,0h0Z"/><path class="cls-10" d="M58.38,105.49H56.05c-3.64-3.72-11.33-6.3-20.26-6.3s-16.62,2.57-20.26,6.3H13.21l.09,4.91h0s0,0,0,0c.11,6.13,10.18,11.05,22.5,11.05s22.39-4.92,22.5-11.05c0,0,0,0,0,0h0Z"/><path class="cls-9" d="M58.41,103.92H56.08c-3.64-3.73-11.34-6.31-20.28-6.31s-16.64,2.58-20.28,6.31H13.18l.09,4.92h0s0,0,0,0C13.38,115,23.46,120,35.79,120S58.21,115,58.32,108.89c0,0,0,0,0,0h0Z"/><path class="cls-10" d="M58.47,100.59H56.13c-3.65-3.75-11.37-6.35-20.34-6.35s-16.68,2.59-20.34,6.35H13.12l.09,4.95h0s0,0,0,0c.11,6.18,10.22,11.14,22.59,11.14s22.48-5,22.59-11.14c0,0,0,0,0,0h0Z"/><path class="cls-9" d="M58.5,99H56.16c-3.66-3.76-11.39-6.36-20.36-6.36S19.09,95.25,15.43,99H13.09l.09,5h0s0,0,0,0c.11,6.19,10.24,11.17,22.62,11.17s22.5-5,22.62-11.17c0,0,0,0,0,0h0Z"/><path class="cls-10" d="M58.56,95.65H56.21c-3.67-3.78-11.42-6.4-20.42-6.4S19,91.87,15.38,95.65H13l.09,5h0s0,0,0,0c.11,6.22,10.26,11.22,22.68,11.22s22.56-5,22.68-11.22c0,0,0,0,0,0h0Z"/><path class="cls-9" d="M58.59,94H56.24c-3.67-3.79-11.43-6.41-20.44-6.41S19,90.17,15.35,94H13l.09,5h0s0,0,0,0c.11,6.24,10.28,11.25,22.71,11.25s22.59-5,22.71-11.25c0,0,0,0,0,0h0Z"/><path class="cls-10" d="M58.65,90.57H56.29c-3.68-3.81-11.46-6.45-20.5-6.45S19,86.76,15.3,90.57H12.94l.09,5h0s0,0,0,0C13.14,101.92,23.33,107,35.79,107s22.65-5,22.77-11.31c0,0,0,0,0,0h0Z"/><path class="cls-9" d="M58.68,89H56.32c-3.69-3.82-11.48-6.46-20.52-6.46S19,85.15,15.27,89H12.91L13,94h0s0,0,0,0c.11,6.29,10.32,11.34,22.8,11.34s22.68-5.05,22.8-11.34c0,0,0,0,0,0h0Z"/><path class="cls-10" d="M58.74,85.55H56.37c-3.7-3.84-11.51-6.5-20.58-6.5s-16.88,2.66-20.58,6.5H12.84l.09,5.07h0s0,0,0,0c.11,6.32,10.35,11.4,22.86,11.4S58.54,97,58.65,90.67c0,0,0,0,0,0h0Z"/><path class="cls-9" d="M58.77,83.94H56.4c-3.7-3.85-11.52-6.52-20.61-6.52s-16.9,2.66-20.61,6.52H12.82L12.91,89h0s0,0,0,0C13,95.4,23.27,100.5,35.79,100.5S58.57,95.4,58.68,89.06c0,0,0,0,0,0h0Z"/><path class="cls-10" d="M58.84,80.49H56.46c-3.71-3.87-11.55-6.55-20.66-6.55s-17,2.68-20.66,6.55H12.75l.09,5.11h0s0,0,0,0C13,92,23.24,97.14,35.79,97.14S58.63,92,58.74,85.65c0,0,0,0,0,0h0Z"/><path class="cls-9" d="M58.86,79H56.48c-3.72-3.88-11.57-6.57-20.69-6.57s-17,2.68-20.69,6.57H12.73l.09,5.12h0s0,0,0,0c.12,6.39,10.4,11.52,23,11.52s22.86-5.13,23-11.52c0,0,0,0,0,0h0Z"/><path class="cls-10" d="M58.85,79.54c-.12,6.44-10.44,11.6-23.06,11.6S12.85,86,12.74,79.54,22.94,67.71,35.79,67.71,59,73,58.85,79.54Z"/><path class="cls-11" d="M54.24,79.54H52.77c0,2.38-2,4.52-5,6.07a27.22,27.22,0,0,1-11.94,2.5,27.22,27.22,0,0,1-11.94-2.5c-3.08-1.55-5-3.69-5-6.07s1.84-4.55,4.91-6.12a27.08,27.08,0,0,1,12.06-2.55,27.08,27.08,0,0,1,12.06,2.55c3.07,1.58,4.94,3.74,4.91,6.12h3c.09-5.61-8.83-10.2-19.92-10.2s-20,4.59-19.92,10.2,9,10,19.92,10,19.84-4.47,19.92-10Z"/><path class="cls-12" d="M31.52,81.27v3.4q0,1.19-2.19,1.19t-2.2-1.19l-.07-9.95q0-1.57,2.92-1.57h9.46a14,14,0,0,1,5.89,1,3.22,3.22,0,0,1,2.11,3.06,3.28,3.28,0,0,1-2.16,3,14,14,0,0,1-5.86,1Zm0-2.23h7.1a10.09,10.09,0,0,0,3.48-.4A1.44,1.44,0,0,0,43,77.22a1.42,1.42,0,0,0-.93-1.43,10.31,10.31,0,0,0-3.48-.39H31.5Z"/><path class="cls-9" d="M138.88,113.64h-2.32c-3.62-3.67-11.25-6.21-20.12-6.21S99.93,110,96.31,113.64H94l.09,4.85h0s0,0,0,0c.11,6,10.12,10.91,22.35,10.91s22.24-4.86,22.35-10.91c0,0,0,0,0,0h0Z"/><path class="cls-10" d="M138.94,110.36h-2.32c-3.63-3.69-11.28-6.25-20.18-6.25s-16.55,2.55-20.18,6.25H93.93l.09,4.87h0s0,0,0,0c.11,6.08,10.14,11,22.41,11s22.3-4.89,22.41-11c0,0,0,0,0,0h0Z"/><path class="cls-9" d="M139,108.8h-2.33c-3.63-3.7-11.3-6.26-20.2-6.26s-16.57,2.56-20.2,6.26H93.9l.09,4.88h0s0,0,0,0c.11,6.1,10.16,11,22.44,11s22.33-4.9,22.44-11c0,0,0,0,0,0h0Z"/><path class="cls-10" d="M139,105.49h-2.33c-3.64-3.72-11.33-6.3-20.26-6.3s-16.62,2.57-20.26,6.3H93.84l.09,4.91h0s0,0,0,0c.11,6.13,10.18,11.05,22.5,11.05s22.39-4.92,22.5-11.05c0,0,0,0,0,0h0Z"/><path class="cls-9" d="M139.05,103.92h-2.34c-3.64-3.73-11.34-6.31-20.28-6.31s-16.64,2.58-20.28,6.31H93.82l.09,4.92h0s0,0,0,0C94,115,104.1,120,116.43,120S138.85,115,139,108.89c0,0,0,0,0,0h0Z"/><path class="cls-10" d="M139.11,100.59h-2.34c-3.65-3.75-11.37-6.35-20.34-6.35s-16.68,2.59-20.34,6.35H93.76l.09,4.95h0s0,0,0,0c.11,6.18,10.22,11.14,22.59,11.14s22.48-5,22.59-11.14c0,0,0,0,0,0h0Z"/><path class="cls-9" d="M139.14,99H136.8c-3.66-3.76-11.39-6.36-20.36-6.36S99.73,95.25,96.07,99H93.73l.09,5h0s0,0,0,0c.11,6.19,10.24,11.17,22.62,11.17s22.5-5,22.62-11.17c0,0,0,0,0,0h0Z"/><path class="cls-10" d="M139.2,95.65h-2.35c-3.67-3.78-11.42-6.4-20.42-6.4S99.69,91.87,96,95.65H93.67l.09,5h0s0,0,0,0c.11,6.22,10.26,11.22,22.68,11.22s22.56-5,22.68-11.22c0,0,0,0,0,0h0Z"/><path class="cls-9" d="M139.23,94h-2.35c-3.67-3.79-11.43-6.41-20.44-6.41S99.66,90.17,96,94H93.64l.09,5h0s0,0,0,0c.11,6.24,10.28,11.25,22.71,11.25s22.59-5,22.71-11.25c0,0,0,0,0,0h0Z"/><path class="cls-10" d="M139.29,90.57h-2.36c-3.68-3.81-11.46-6.45-20.5-6.45s-16.82,2.64-20.5,6.45H93.57l.09,5h0s0,0,0,0C93.78,101.92,104,107,116.43,107s22.65-5,22.77-11.31c0,0,0,0,0,0h0Z"/><path class="cls-9" d="M139.32,89H137c-3.69-3.82-11.48-6.46-20.52-6.46S99.6,85.15,95.91,89H93.55l.09,5h0s0,0,0,0c.11,6.29,10.32,11.34,22.8,11.34s22.68-5.05,22.8-11.34c0,0,0,0,0,0h0Z"/><path class="cls-10" d="M139.38,85.55H137c-3.7-3.84-11.51-6.5-20.58-6.5s-16.88,2.66-20.58,6.5H93.48l.09,5.07h0s0,0,0,0c.11,6.32,10.35,11.4,22.86,11.4s22.74-5.08,22.86-11.4c0,0,0,0,0,0h0Z"/><path class="cls-9" d="M139.41,83.94H137c-3.7-3.85-11.52-6.52-20.61-6.52s-16.9,2.66-20.61,6.52H93.45L93.55,89h0s0,0,0,0c.11,6.34,10.36,11.43,22.89,11.43s22.77-5.09,22.89-11.43c0,0,0,0,0,0h0Z"/><path class="cls-10" d="M139.48,80.49H137.1c-3.71-3.87-11.55-6.55-20.66-6.55s-17,2.68-20.66,6.55H93.39l.09,5.11h0s0,0,0,0c.12,6.37,10.39,11.49,22.95,11.49S139.27,92,139.38,85.65c0,0,0,0,0,0h0Z"/><path class="cls-9" d="M139.5,79h-2.38c-3.72-3.88-11.57-6.57-20.69-6.57s-17,2.68-20.69,6.57H93.36l.09,5.12h0s0,0,0,0c.12,6.39,10.4,11.52,23,11.52s22.86-5.13,23-11.52c0,0,0,0,0,0h0Z"/><path class="cls-10" d="M139.49,79.54c-.12,6.44-10.44,11.6-23.06,11.6S93.49,86,93.37,79.54s10.21-11.82,23.06-11.82S139.61,73,139.49,79.54Z"/><path class="cls-11" d="M134.88,79.54h-1.48c0,2.38-2,4.52-5,6.07a29.83,29.83,0,0,1-23.89,0c-3.08-1.55-5-3.69-5-6.07s1.84-4.55,4.91-6.12a29.74,29.74,0,0,1,24.12,0c3.07,1.58,4.94,3.74,4.91,6.12h3c.09-5.61-8.83-10.2-19.92-10.2s-20,4.59-19.92,10.2,9,10,19.92,10,19.84-4.47,19.92-10Z"/><path class="cls-12" d="M112.16,81.27v3.4q0,1.19-2.19,1.19t-2.2-1.19l-.07-9.95q0-1.57,2.92-1.57h9.46a14,14,0,0,1,5.89,1,3.22,3.22,0,0,1,2.11,3.06,3.28,3.28,0,0,1-2.16,3,14,14,0,0,1-5.86,1Zm0-2.23h7.1a10.09,10.09,0,0,0,3.48-.4,1.44,1.44,0,0,0,.94-1.42,1.42,1.42,0,0,0-.93-1.43,10.31,10.31,0,0,0-3.48-.39h-7.12Z"/><path class="cls-9" d="M98.56,133.2H96.24C92.62,129.53,85,127,76.11,127S59.61,129.53,56,133.2H53.67l.09,4.85h0s0,0,0,0c.11,6,10.12,10.91,22.35,10.91s22.24-4.86,22.35-10.91c0,0,0,0,0,0h0Z"/><path class="cls-10" d="M98.62,129.92H96.29c-3.63-3.69-11.28-6.25-20.18-6.25s-16.55,2.55-20.18,6.25H53.61l.09,4.87h0s0,0,0,0c.11,6.08,10.14,11,22.41,11s22.3-4.89,22.41-11c0,0,0,0,0,0h0Z"/><path class="cls-9" d="M98.64,128.36H96.32c-3.63-3.7-11.3-6.26-20.2-6.26s-16.57,2.56-20.2,6.26H53.58l.09,4.88h0s0,0,0,0c.11,6.1,10.16,11,22.44,11s22.33-4.9,22.44-11c0,0,0,0,0,0h0Z"/><path class="cls-10" d="M98.7,125.05H96.37c-3.64-3.72-11.33-6.3-20.26-6.3s-16.62,2.57-20.26,6.3H53.53l.09,4.91h0s0,0,0,0c.11,6.13,10.18,11.05,22.5,11.05S98.5,136.14,98.61,130c0,0,0,0,0,0h0Z"/><path class="cls-9" d="M98.73,123.49H96.4c-3.64-3.73-11.34-6.31-20.28-6.31s-16.64,2.58-20.28,6.31H53.5l.09,4.92h0s0,0,0,0c.11,6.14,10.2,11.08,22.53,11.08s22.42-4.94,22.53-11.08c0,0,0,0,0,0h0Z"/><path class="cls-10" d="M98.79,120.15H96.45c-3.65-3.75-11.37-6.35-20.34-6.35s-16.68,2.59-20.34,6.35H53.44l.09,4.95h0s0,0,0,0c.11,6.18,10.22,11.14,22.59,11.14s22.48-5,22.59-11.14c0,0,0,0,0,0h0Z"/><path class="cls-9" d="M98.82,118.57H96.48c-3.66-3.76-11.39-6.36-20.36-6.36s-16.7,2.6-20.36,6.36H53.41l.09,5h0s0,0,0,0c.11,6.19,10.24,11.17,22.62,11.17s22.5-5,22.62-11.17c0,0,0,0,0,0h0Z"/><path class="cls-10" d="M98.88,115.21H96.53c-3.67-3.78-11.42-6.4-20.42-6.4s-16.75,2.61-20.42,6.4H53.35l.09,5h0s0,0,0,0c.11,6.22,10.26,11.22,22.68,11.22s22.56-5,22.68-11.22c0,0,0,0,0,0h0Z"/><path class="cls-9" d="M98.91,113.52H96.56c-3.67-3.79-11.43-6.41-20.44-6.41s-16.77,2.62-20.44,6.41H53.32l.09,5h0s0,0,0,0c.11,6.24,10.28,11.25,22.71,11.25s22.59-5,22.71-11.25c0,0,0,0,0,0h0Z"/><path class="cls-10" d="M99,110.14H96.61c-3.68-3.81-11.46-6.45-20.5-6.45s-16.82,2.64-20.5,6.45H53.26l.09,5h0s0,0,0,0c.11,6.27,10.31,11.31,22.77,11.31s22.65-5,22.77-11.31c0,0,0,0,0,0h0Z"/><path class="cls-9" d="M99,108.53H96.64c-3.69-3.82-11.48-6.46-20.52-6.46s-16.84,2.64-20.52,6.46H53.23l.09,5h0s0,0,0,0c.11,6.29,10.32,11.34,22.8,11.34s22.68-5.05,22.8-11.34c0,0,0,0,0,0h0Z"/><path class="cls-10" d="M99.06,105.12H96.69c-3.7-3.84-11.51-6.5-20.58-6.5s-16.88,2.66-20.58,6.5H53.16l.09,5.07h0s0,0,0,0c.11,6.32,10.35,11.4,22.86,11.4s22.74-5.08,22.86-11.4c0,0,0,0,0,0h0Z"/><path class="cls-9" d="M99.09,103.5H96.72C93,99.65,85.2,97,76.11,97s-16.9,2.66-20.61,6.52H53.13l.09,5.08h0s0,0,0,0c.11,6.34,10.36,11.43,22.89,11.43S98.89,115,99,108.63c0,0,0,0,0,0h0Z"/><path class="cls-10" d="M99.16,100.06H96.78c-3.71-3.87-11.55-6.55-20.66-6.55s-17,2.68-20.66,6.55H53.07l.09,5.11h0s0,0,0,0c.12,6.37,10.39,11.49,22.95,11.49s22.83-5.12,22.95-11.49c0,0,0,0,0,0h0Z"/><path class="cls-9" d="M99.18,98.52H96.8C93.09,94.64,85.23,92,76.11,92s-17,2.68-20.69,6.57H53l.09,5.12h0s0,0,0,0c.12,6.39,10.4,11.52,23,11.52s22.86-5.13,23-11.52c0,0,0,0,0,0h0Z"/><path class="cls-10" d="M99.17,99.1c-.12,6.44-10.44,11.6-23.06,11.6s-22.94-5.17-23.06-11.6S63.26,87.28,76.11,87.28,99.29,92.6,99.17,99.1Z"/><path class="cls-11" d="M94.56,99.1H93.09c0,2.38-2,4.52-5,6.07a27.22,27.22,0,0,1-11.94,2.5,27.22,27.22,0,0,1-11.94-2.5c-3.08-1.55-5-3.69-5-6.07S61,94.55,64.06,93a27.08,27.08,0,0,1,12.06-2.55A27.08,27.08,0,0,1,88.17,93c3.07,1.58,4.94,3.74,4.91,6.12h3c.09-5.61-8.83-10.2-19.92-10.2s-20,4.59-19.92,10.2,9,10,19.92,10,19.84-4.47,19.92-10Z"/><path class="cls-12" d="M71.84,100.83v3.4q0,1.19-2.19,1.19t-2.2-1.19l-.07-9.95q0-1.57,2.92-1.57h9.46a14,14,0,0,1,5.89,1,3.22,3.22,0,0,1,2.11,3.06,3.28,3.28,0,0,1-2.16,3,14,14,0,0,1-5.86,1Zm0-2.23h7.1a10.09,10.09,0,0,0,3.48-.4,1.44,1.44,0,0,0,.94-1.42,1.42,1.42,0,0,0-.93-1.43A10.31,10.31,0,0,0,78.94,95H71.82Z"/><path class="cls-1" d="M23.64,57.92c-7.54,1.83-9,3.31-10.89,10.76C10.9,61.23,9.41,59.75,1.86,57.92c7.54-1.83,9-3.31,10.89-10.76C14.6,54.62,16.09,56.1,23.64,57.92Z"/><path class="cls-13" d="M33.14,40.44c-5.86,1.42-7,2.57-8.45,8.35-1.43-5.79-2.6-6.94-8.45-8.35,5.86-1.42,7-2.57,8.45-8.35C26.12,37.87,27.28,39,33.14,40.44Z"/><path class="cls-1" d="M138.64,45.84c-7.54-1.83-9-3.31-10.89-10.76-1.85,7.45-3.34,8.93-10.89,10.76,7.54,1.83,9,3.31,10.89,10.76C129.6,49.15,131.09,47.67,138.64,45.84Z"/><path class="cls-13" d="M148.14,63.33c-5.86-1.42-7-2.57-8.45-8.35-1.43,5.79-2.6,6.94-8.45,8.35,5.86,1.42,7,2.57,8.45,8.35C141.12,65.9,142.28,64.75,148.14,63.33Z"/></svg>