<svg id="img" xmlns="http://www.w3.org/2000/svg" viewBox="0 0 500 210"><defs><style>.cls-1{fill:#066b74;}.cls-2{fill:#b29605;}.cls-3{fill:#c6b405;}.cls-4{fill:#fdf9dc;}.cls-5{fill:#f35934;}.cls-6{fill:#fff;}.cls-7{fill:none;}.cls-8{fill:#9cd155;}.cls-9{fill:#b4e06e;}</style></defs><title>img_introduce_step2</title><path class="cls-1" d="M346.8,168.94l-22.3-22.06a4.64,4.64,0,0,0-6.52,6.6l14.28,14.12H176.72a4.64,4.64,0,1,0,0,9.27H332.26L318,191a4.64,4.64,0,1,0,6.52,6.59l22.3-22.06a4.62,4.62,0,0,0,0-6.59Z"/><circle class="cls-1" cx="162.46" cy="172.19" r="4.63"/><circle class="cls-1" cx="148.21" cy="172.19" r="4.63"/><path class="cls-2" d="M416.19,121.81h-3.6c-5.63-5.72-17.51-9.67-31.3-9.67s-25.68,4-31.3,9.67h-3.6l.13,7.53h0s0,0,0,.07c.17,9.41,15.74,17,34.77,17s34.59-7.56,34.76-17v-.07h0Z"/><path class="cls-3" d="M416.28,116.7h-3.61C407,111,395.12,107,381.29,107s-25.74,4-31.38,9.71h-3.62l.14,7.58h0v.07c.17,9.46,15.78,17.05,34.86,17.05s34.68-7.59,34.86-17.05c0,0,0,0,0-.07h0Z"/><path class="cls-2" d="M416.33,114.28h-3.62c-5.65-5.75-17.57-9.74-31.42-9.74s-25.78,4-31.42,9.74h-3.62l.14,7.6h0V122c.17,9.48,15.79,17.1,34.9,17.1s34.73-7.62,34.9-17.1v-.07h0Z"/><path class="cls-3" d="M416.42,109.14h-3.63c-5.66-5.79-17.61-9.79-31.5-9.79s-25.84,4-31.51,9.79h-3.62l.13,7.63h0v.08c.17,9.53,15.83,17.18,35,17.18s34.82-7.65,35-17.18v-.08h0Z"/><path class="cls-2" d="M416.46,106.7h-3.63c-5.67-5.8-17.64-9.82-31.54-9.82s-25.88,4-31.54,9.82h-3.64l.14,7.65h0v.08c.18,9.55,15.86,17.23,35,17.23s34.86-7.68,35-17.23a.22.22,0,0,0,0-.08h0Z"/><path class="cls-3" d="M416.56,101.52h-3.64c-5.69-5.84-17.69-9.87-31.63-9.87s-26,4-31.63,9.87H346l.14,7.69h0v.07c.17,9.61,15.9,17.32,35.13,17.32s34.95-7.71,35.13-17.32v-.07h0Z"/><path class="cls-2" d="M416.6,99.06H413c-5.69-5.85-17.71-9.9-31.67-9.9s-26,4-31.67,9.9H346l.14,7.71h0s0,0,0,.07c.18,9.63,15.93,17.37,35.18,17.37s35-7.74,35.17-17.37v-.07h0Z"/><path class="cls-3" d="M416.7,93.83H413c-5.7-5.88-17.75-10-31.75-10s-26.05,4.07-31.75,10h-3.66l.14,7.76h0v.07c.18,9.68,16,17.46,35.27,17.46s35.09-7.78,35.27-17.46c0,0,0,0,0-.07h0Z"/><path class="cls-2" d="M416.75,91.21h-3.67c-5.71-5.9-17.78-10-31.79-10s-26.08,4.08-31.8,10h-3.66L346,99h0s0,0,0,.08c.18,9.7,16,17.5,35.32,17.5s35.14-7.8,35.31-17.5V99h0Z"/><path class="cls-3" d="M416.84,85.94h-3.67c-5.73-5.93-17.83-10-31.88-10s-26.15,4.1-31.88,10h-3.67l.14,7.82h0v.07c.18,9.76,16,17.6,35.41,17.6s35.23-7.84,35.41-17.6c0,0,0,0,0-.07h0Z"/><path class="cls-2" d="M416.89,83.44h-3.68c-5.74-5.94-17.85-10-31.92-10s-26.19,4.11-31.92,10h-3.68l.14,7.84h0s0,0,0,.07C346,101.14,361.88,109,381.29,109s35.28-7.85,35.45-17.64v-.07h0Z"/><path class="cls-3" d="M417,78.13H413.3c-5.75-6-17.9-10.11-32-10.11s-26.26,4.14-32,10.11H345.6l.14,7.88h0v.08c.18,9.83,16.09,17.73,35.55,17.73s35.37-7.9,35.55-17.73V86h0Z"/><path class="cls-2" d="M417,75.61h-3.69c-5.76-6-17.92-10.13-32-10.13S355,69.62,349.24,75.61h-3.69l.14,7.9h0s0,0,0,.08c.18,9.86,16.12,17.78,35.6,17.78s35.41-7.92,35.59-17.78v-.08h0Z"/><path class="cls-3" d="M417.12,70.26h-3.7c-5.77-6-18-10.19-32.13-10.19s-26.36,4.17-32.14,10.19h-3.7l.15,7.94h0v.08c.18,9.91,16.16,17.88,35.69,17.88s35.51-8,35.69-17.88V78.2h0Z"/><path class="cls-2" d="M417.17,67.87h-3.71c-5.78-6-18-10.21-32.17-10.21s-26.4,4.18-32.17,10.21h-3.71l.14,8h0s0,0,0,.07c.17,9.94,16.17,17.92,35.73,17.92s35.55-8,35.73-17.92v-.07h0Z"/><path class="cls-3" d="M417.15,68.77c-.18,10-16.24,18-35.86,18s-35.68-8-35.86-18,15.87-18.38,35.86-18.38S417.33,58.66,417.15,68.77Z"/><path class="cls-2" d="M410,68.77h-2.3c-.05,3.7-3,7-7.82,9.43s-11.32,3.88-18.57,3.88-13.8-1.47-18.58-3.88-7.77-5.73-7.82-9.43,2.87-7.08,7.64-9.53,11.41-4,18.76-4,14,1.52,18.75,4,7.69,5.82,7.64,9.53h4.59c.14-8.73-13.73-15.86-31-15.86s-31.12,7.13-31,15.86,14,15.61,31,15.61,30.85-7,31-15.61Z"/><path class="cls-4" d="M374.65,71.47v5.28c0,1.24-1.13,1.86-3.4,1.86s-3.42-.62-3.42-1.86l-.11-15.47q0-2.45,4.54-2.45H387a21.76,21.76,0,0,1,9.16,1.58q3.32,1.56,3.28,4.76c0,2.11-1.14,3.68-3.35,4.73A21.7,21.7,0,0,1,387,71.47Zm0-3.47h11.05a15.61,15.61,0,0,0,5.41-.63,2.41,2.41,0,0,0,0-4.42,16,16,0,0,0-5.42-.61H374.62Z"/><path class="cls-2" d="M488,121.81h-3.61c-5.62-5.72-17.5-9.67-31.29-9.67s-25.68,4-31.3,9.67h-3.61l.14,7.53h0v.07c.17,9.41,15.74,17,34.77,17s34.59-7.56,34.76-17v-.07h0Z"/><path class="cls-3" d="M488,116.7h-3.61C478.79,111,466.88,107,453.05,107s-25.75,4-31.38,9.71h-3.62l.14,7.58h0v.07c.17,9.46,15.78,17.05,34.86,17.05s34.68-7.59,34.85-17.05v-.07h0Z"/><path class="cls-2" d="M488.09,114.28h-3.62c-5.65-5.75-17.57-9.74-31.42-9.74s-25.78,4-31.42,9.74H418l.13,7.6h0V122c.17,9.48,15.79,17.1,34.9,17.1s34.72-7.62,34.9-17.1c0,0,0,0,0-.07h0Z"/><path class="cls-3" d="M488.18,109.14h-3.63c-5.66-5.79-17.62-9.79-31.5-9.79s-25.85,4-31.51,9.79h-3.63l.14,7.63h0s0,0,0,.08c.18,9.53,15.84,17.18,35,17.18s34.82-7.65,35-17.18v-.08h0Z"/><path class="cls-2" d="M488.22,106.7h-3.63c-5.67-5.8-17.64-9.82-31.54-9.82s-25.88,4-31.55,9.82h-3.63l.14,7.65h0v.08c.17,9.55,15.86,17.23,35,17.23s34.86-7.68,35-17.23v-.08h0Z"/><path class="cls-3" d="M488.32,101.52h-3.65C479,95.68,467,91.65,453.05,91.65s-25.95,4-31.63,9.87h-3.64l.14,7.69h0v.07c.17,9.61,15.9,17.32,35.13,17.32s34.95-7.71,35.13-17.32c0,0,0,0,0-.07h0Z"/><path class="cls-2" d="M488.36,99.06h-3.65c-5.69-5.85-17.7-9.9-31.66-9.9s-26,4-31.67,9.9h-3.65l.14,7.71h0s0,0,0,.07c.18,9.63,15.92,17.37,35.18,17.37s35-7.74,35.17-17.37v-.07h0Z"/><path class="cls-3" d="M488.46,93.83H484.8c-5.71-5.88-17.76-10-31.75-10S427,88,421.29,93.83h-3.65l.14,7.76h0v.07c.17,9.68,16,17.46,35.27,17.46s35.09-7.78,35.26-17.46v-.07h0Z"/><path class="cls-2" d="M488.5,91.21h-3.66c-5.71-5.9-17.78-10-31.79-10s-26.09,4.08-31.8,10h-3.66l.14,7.77h0v.08c.18,9.7,16,17.5,35.32,17.5s35.14-7.8,35.31-17.5V99h0Z"/><path class="cls-3" d="M488.6,85.94h-3.67c-5.73-5.93-17.83-10-31.88-10s-26.16,4.1-31.88,10h-3.68l.15,7.82h0v.07c.17,9.76,16,17.6,35.41,17.6s35.23-7.84,35.41-17.6c0,0,0,0,0-.07h0Z"/><path class="cls-2" d="M488.64,83.44H485c-5.74-5.94-17.85-10-31.92-10s-26.19,4.11-31.92,10h-3.68l.14,7.84h0s0,0,0,.07c.18,9.79,16.05,17.64,35.46,17.64s35.27-7.85,35.45-17.64v-.07h0Z"/><path class="cls-3" d="M488.74,78.13h-3.69c-5.75-6-17.89-10.11-32-10.11s-26.26,4.14-32,10.11h-3.69L417.5,86h0v.08c.17,9.83,16.09,17.73,35.55,17.73s35.37-7.9,35.55-17.73c0,0,0,0,0-.08h0Z"/><path class="cls-2" d="M488.79,75.61h-3.7c-5.75-6-17.92-10.13-32-10.13S426.76,69.62,421,75.61h-3.69l.14,7.9h0v.08c.18,9.86,16.12,17.78,35.6,17.78s35.41-7.92,35.59-17.78v-.08h0Z"/><path class="cls-3" d="M488.88,70.26h-3.7c-5.77-6-18-10.19-32.13-10.19s-26.37,4.17-32.14,10.19h-3.7l.14,7.94h0v.08c.18,9.91,16.15,17.88,35.69,17.88s35.51-8,35.69-17.88c0,0,0,0,0-.08h0Z"/><path class="cls-2" d="M488.93,67.87h-3.71c-5.78-6-18-10.21-32.17-10.21s-26.4,4.18-32.18,10.21h-3.7l.14,8h0s0,0,0,.07c.18,9.94,16.18,17.92,35.74,17.92s35.55-8,35.73-17.92v-.07h0Z"/><path class="cls-3" d="M488.91,68.77c-.18,10-16.24,18-35.86,18s-35.69-8-35.87-18,15.88-18.38,35.87-18.38S489.09,58.66,488.91,68.77Z"/><path class="cls-2" d="M481.74,68.77h-2.3c-.05,3.7-3,7-7.82,9.43s-11.33,3.88-18.57,3.88-13.8-1.47-18.58-3.88-7.77-5.73-7.82-9.43,2.87-7.08,7.64-9.53,11.41-4,18.76-4,14,1.52,18.75,4,7.69,5.82,7.64,9.53H484c.14-8.73-13.73-15.86-31-15.86s-31.12,7.13-31,15.86,14,15.61,31,15.61,30.84-7,31-15.61Z"/><path class="cls-4" d="M446.4,71.47l0,5.28c0,1.24-1.13,1.86-3.4,1.86s-3.42-.62-3.43-1.86l-.1-15.47q0-2.45,4.54-2.45h14.71a21.79,21.79,0,0,1,9.16,1.58c2.2,1,3.3,2.63,3.28,4.76s-1.14,3.68-3.36,4.73a21.64,21.64,0,0,1-9.12,1.57Zm0-3.47h11a15.53,15.53,0,0,0,5.41-.63,2.23,2.23,0,0,0,1.47-2.2A2.21,2.21,0,0,0,462.86,63a15.88,15.88,0,0,0-5.41-.61H446.37Z"/><path class="cls-2" d="M452.07,181.78h-3.6c-5.63-5.71-17.51-9.66-31.3-9.66s-25.68,3.95-31.3,9.66h-3.61l.14,7.54h0v.07c.17,9.4,15.74,17,34.77,17s34.59-7.56,34.76-17v-.07h0Z"/><path class="cls-3" d="M452.16,176.68h-3.61C442.91,170.93,431,167,417.17,167s-25.74,4-31.38,9.72h-3.62l.14,7.57h0v.07c.17,9.46,15.78,17.06,34.86,17.06s34.68-7.6,34.85-17.06v-.07h0Z"/><path class="cls-2" d="M452.21,174.26h-3.62c-5.65-5.76-17.57-9.74-31.42-9.74s-25.78,4-31.42,9.74h-3.62l.14,7.59h0v.07c.17,9.48,15.79,17.1,34.9,17.1s34.73-7.62,34.9-17.1a.16.16,0,0,1,0-.07h0Z"/><path class="cls-3" d="M452.3,169.11h-3.63c-5.66-5.79-17.62-9.79-31.5-9.79s-25.85,4-31.51,9.79H382l.13,7.64h0s0,.05,0,.07c.18,9.53,15.84,17.19,35,17.19s34.82-7.66,35-17.19v-.07h0Z"/><path class="cls-2" d="M452.34,166.67h-3.63c-5.67-5.8-17.64-9.81-31.54-9.81s-25.88,4-31.55,9.81H382l.14,7.66h0v.07c.17,9.55,15.86,17.23,35,17.23S452,184,452.2,174.4v-.07h0Z"/><path class="cls-3" d="M452.44,161.49h-3.65c-5.68-5.84-17.68-9.87-31.62-9.87s-25.95,4-31.63,9.87H381.9l.14,7.69h0v.08c.17,9.6,15.9,17.32,35.13,17.32s34.95-7.72,35.13-17.32c0,0,0,0,0-.08h0Z"/><path class="cls-2" d="M452.48,159h-3.65c-5.69-5.85-17.7-9.89-31.66-9.89s-26,4-31.67,9.89h-3.65l.14,7.72h0s0,0,0,.07c.18,9.63,15.93,17.36,35.18,17.36s35-7.73,35.17-17.36v-.07h0Z"/><path class="cls-3" d="M452.58,153.8h-3.66c-5.71-5.88-17.76-9.94-31.75-9.94s-26.05,4.06-31.75,9.94h-3.66l.14,7.76h0v.07c.18,9.68,16,17.46,35.27,17.46s35.09-7.78,35.26-17.46c0,0,0,0,0-.07h0Z"/><path class="cls-2" d="M452.62,151.18H449c-5.71-5.9-17.78-10-31.79-10s-26.08,4.07-31.8,10h-3.66l.14,7.78h0s0,0,0,.07c.18,9.71,16,17.5,35.32,17.5s35.14-7.79,35.31-17.5V159h0Z"/><path class="cls-3" d="M452.72,145.91h-3.67c-5.73-5.93-17.83-10-31.88-10s-26.16,4.1-31.88,10h-3.67l.14,7.82h0v.07c.17,9.76,16,17.6,35.41,17.6s35.23-7.84,35.41-17.6c0,0,0-.05,0-.07h0Z"/><path class="cls-2" d="M452.76,143.41h-3.67c-5.74-5.94-17.85-10-31.92-10s-26.19,4.11-31.92,10h-3.68l.14,7.84h0s0,.05,0,.08c.18,9.78,16.05,17.64,35.46,17.64s35.27-7.86,35.45-17.64v-.08h0Z"/><path class="cls-3" d="M452.86,138.1h-3.69c-5.75-6-17.89-10.1-32-10.1s-26.26,4.13-32,10.1h-3.69l.15,7.88h0v.08c.18,9.83,16.09,17.73,35.55,17.73s35.37-7.9,35.55-17.73c0,0,0-.05,0-.08h0Z"/><path class="cls-2" d="M452.91,135.59h-3.69c-5.76-6-17.92-10.14-32.05-10.14s-26.29,4.15-32.05,10.14h-3.69l.14,7.9h0s0,0,0,.07c.18,9.86,16.12,17.78,35.6,17.78s35.41-7.92,35.59-17.78v-.07h0Z"/><path class="cls-3" d="M453,130.23h-3.7c-5.77-6-18-10.18-32.13-10.18s-26.36,4.16-32.14,10.18h-3.7l.15,8h0v.07c.18,9.92,16.15,17.88,35.69,17.88s35.51-8,35.69-17.88v-.07h0Z"/><path class="cls-2" d="M453.05,127.85h-3.71c-5.78-6-18-10.22-32.17-10.22s-26.4,4.18-32.18,10.22h-3.7l.14,8h0s0,.05,0,.07c.18,9.94,16.18,17.92,35.74,17.92s35.55-8,35.73-17.92v-.07h0Z"/><path class="cls-3" d="M453,128.74c-.18,10-16.24,18-35.86,18s-35.68-8-35.87-18,15.88-18.38,35.87-18.38S453.21,118.63,453,128.74Z"/><path class="cls-2" d="M445.86,128.74h-2.3c-.05,3.7-3,7-7.82,9.44a42.36,42.36,0,0,1-18.57,3.88c-7.25,0-13.8-1.48-18.58-3.88s-7.77-5.74-7.82-9.44,2.87-7.07,7.64-9.52,11.41-4,18.76-4,14,1.51,18.75,4,7.69,5.81,7.64,9.52h4.59c.14-8.73-13.73-15.86-31-15.86s-31.12,7.13-31,15.86,14,15.61,31,15.62,30.85-7,31-15.62Z"/><path class="cls-4" d="M410.53,131.44v5.29c0,1.23-1.13,1.85-3.4,1.85s-3.42-.62-3.43-1.85l-.1-15.47c0-1.64,1.5-2.45,4.54-2.45h14.71a21.78,21.78,0,0,1,9.16,1.57c2.2,1.05,3.3,2.64,3.28,4.77s-1.14,3.67-3.35,4.72a21.72,21.72,0,0,1-9.13,1.57Zm0-3.47h11.05a15.82,15.82,0,0,0,5.4-.62,2.25,2.25,0,0,0,1.47-2.2,2.21,2.21,0,0,0-1.44-2.23,16.26,16.26,0,0,0-5.42-.61H410.49Z"/><ellipse class="cls-5" cx="239.09" cy="82.18" rx="95" ry="60"/><path class="cls-6" d="M172.32,82.77a3.23,3.23,0,0,1,3.52-3.28h12.4a2.52,2.52,0,0,1,0,5h-9.92c-.8,0-.88.2-1,.88l-.6,6.2a7.93,7.93,0,0,1,5.6-1.8c6.36,0,9.72,5.12,9.72,10.56,0,5.79-3.72,11.35-11.2,11.35-6.48,0-10.51-4.24-10.51-6.63a2.55,2.55,0,0,1,2.55-2.64c.88,0,1.32.16,2.84,1.67a6.55,6.55,0,0,0,5.28,2.2c4.52,0,5.72-3.83,5.72-5.87s-1.24-5.6-5.4-5.6a5.54,5.54,0,0,0-4.48,2c-1.44,1.48-1.88,1.6-2.68,1.6a2.85,2.85,0,0,1-3-3Z"/><path class="cls-6" d="M196.48,108a3.71,3.71,0,1,1,7.4.36c0,4.32-4.64,8-5.8,8a1.09,1.09,0,0,1-1.12-1.12c0-.6.16-.72,1.48-1.72a10,10,0,0,0,1.68-1.8A3.68,3.68,0,0,1,196.48,108Z"/><path class="cls-6" d="M227.72,95.25c0,8.48-2.24,16.47-11,16.47s-11.08-7.79-11.08-16.47c0-8,2-16.48,11.08-16.48C225.56,78.77,227.72,87,227.72,95.25Zm-16.48,0c0,6.56,1.28,11.07,5.44,11.07s5.44-4.27,5.44-11.07c0-6.6-1.32-11.08-5.44-11.08S211.24,88.65,211.24,95.25Z"/><path class="cls-6" d="M252.92,95.25c0,8.48-2.24,16.47-11,16.47s-11.08-7.79-11.08-16.47c0-8,2-16.48,11.08-16.48C250.76,78.77,252.92,87,252.92,95.25Zm-16.48,0c0,6.56,1.28,11.07,5.44,11.07s5.44-4.27,5.44-11.07c0-6.6-1.32-11.08-5.44-11.08S236.44,88.65,236.44,95.25Z"/><path class="cls-6" d="M278.12,95.25c0,8.48-2.24,16.47-11,16.47S256,103.93,256,95.25c0-8,2-16.48,11.08-16.48C276,78.77,278.12,87,278.12,95.25Zm-16.48,0c0,6.56,1.28,11.07,5.44,11.07s5.44-4.27,5.44-11.07c0-6.6-1.32-11.08-5.44-11.08S261.64,88.65,261.64,95.25Z"/><path class="cls-6" d="M281.69,91.33c0-.93,0-2.1,1.62-2.1,1.41,0,1.86,1,1.95,2a5.13,5.13,0,0,1,4.59-2c5.31,0,7.44,4.59,7.44,9.36s-2,9.15-7.2,9.15a6.85,6.85,0,0,1-4.56-1.53v3a2,2,0,0,1-1.83,2,2,2,0,0,1-2-1.92Zm3.84,8.31a3.82,3.82,0,0,0,4.05,4.11c1.8,0,3.81-.72,3.81-5.43a6.18,6.18,0,0,0-1.32-4.2,3.48,3.48,0,0,0-2.64-.87,4,4,0,0,0-3.9,4.23Z"/><path class="cls-6" d="M300.89,93.34a1.78,1.78,0,0,1,0-3.56h1.41V86.5a1.84,1.84,0,0,1,1.92-1.86,1.81,1.81,0,0,1,1.83,1.83v3.31h3.54a1.78,1.78,0,0,1,0,3.56h-3.54v9.27c0,.36.09.93.6.93s.75-.33,1.17-1.23c.63-1.35,1.2-1.62,1.83-1.62a1.92,1.92,0,0,1,1.89,2c0,1.29-1.65,5.1-5.19,5.1-3.93,0-4.05-3.69-4.05-5V93.34Z"/><path class="cls-6" d="M179.87,58.38c-1.34,0-1.62,0-2.07-.68-3.27,2.47-5.71,3.08-6.44,3.08a1.45,1.45,0,0,1-1.57-1.48,1.43,1.43,0,0,1,1-1.46,17.56,17.56,0,0,0,3.39-1.56c-1.91-1.74-2-1.8-2-2.38a1.35,1.35,0,0,1,1.34-1.4c.84,0,1.88.81,3.11,2A7.44,7.44,0,0,0,178.64,52c0-.17-.17-.17-.39-.17h-4.68c-1.14,0-2.24,0-2.24-1.45s1-1.6,2.24-1.6h6.5c1.6,0,2.46.67,2.46,2.19,0,.81-.3,2.24-2.18,4.36H186c-1.79-2.26-2.85-4.84-2.85-6.18a1.39,1.39,0,0,1,1.43-1.35,1.45,1.45,0,0,1,1.28.56c.17.2,1,2,1.24,2.49.44-.36,2.38-2,2.8-2.35a1.5,1.5,0,0,1,.89-.33,1.57,1.57,0,0,1,1.57,1.51c0,.95-2.07,2.83-3.44,3.92a7.05,7.05,0,0,0,.92.95,31.55,31.55,0,0,0,2.77-2.63,2.14,2.14,0,0,1,1.57-.87,1.69,1.69,0,0,1,1.71,1.54c0,1-2,2.8-3.47,3.92a16.94,16.94,0,0,0,2.85,1.34,1.21,1.21,0,0,1,.87,1.24,1.75,1.75,0,0,1-1.74,1.7c-1,0-3.08-.53-5.93-2.85-.39.45-.7.45-1.91.45Zm-2.52,11.53a10.36,10.36,0,0,1-.53-1.73.79.79,0,0,1,.11-.42c-.72,0-2.74-.06-2.74-2.5v-3c0-2.47,1.9-2.47,3.11-2.47h11.37c1.23,0,3.13,0,3.13,2.47v3c0,2.38-1.9,2.44-2.6,2.5a1.55,1.55,0,0,1,.11.53,5.71,5.71,0,0,1-.5,1.62h4.08c.45,0,2.24,0,2.24,1.65s-1.68,1.66-2.24,1.66h-19.6c-.44,0-2.24,0-2.24-1.66s1.68-1.65,2.24-1.65Zm1.07-7.22c-.51,0-.87,0-.87.67V64c0,.65.36.65.87.65h9.07c.5,0,.87,0,.87-.65v-.67c0-.67-.39-.67-.87-.67Zm1.71,5.07a9.07,9.07,0,0,1,.92,2.15h4.12c.19-.45.84-1.9,1-2.15Z"/><path class="cls-6" d="M202.11,62.77h-1.68c-1.18,0-2.27,0-2.27-1.48s1-1.6,2.27-1.6h1.68V57.82h-.93c-1.12,0-2.24,0-2.24-1.43s1-1.54,2.24-1.54h5.1c1.12,0,2.24,0,2.24,1.43s-1,1.54-2.24,1.54h-.87v1.87h1.4c1.15,0,2.24,0,2.24,1.46,0,1.62-1,1.62-2.24,1.62h-1.4v6.58c.36-.08,2.13-.47,2.32-.47a1.15,1.15,0,0,1,.54.11c0-.73.22-.84,2-2,.26-.17,1.35-1.06,1.6-1.2a22.26,22.26,0,0,1-1.79-1.51c-.62-.56-.9-.84-.9-1.46a1.43,1.43,0,0,1,1.46-1.37c1.31,0,3.22,2.07,3.22,3.08a1.35,1.35,0,0,1-.76,1.2,2.14,2.14,0,0,1,1,1.54c0,1.35-3.7,3.39-4.31,3.39a1.24,1.24,0,0,1-.73-.22,1.32,1.32,0,0,1-1.15,1.51,40.73,40.73,0,0,1-8.46,1.48c-.72,0-1.54-.31-1.54-1.73,0-1,.9-1.29,1.63-1.38.19,0,2-.28,2.55-.33Zm5.29-12.6c1.68,1.32,1.87,1.49,1.87,2.19a1.59,1.59,0,0,1-1.51,1.56c-.75,0-1.29-.36-3.08-2-.56-.51-.61-.56-.73-.56s-.25,0-.81.61c-1.09,1.1-2.63,2.52-3.53,2.52a1.55,1.55,0,0,1-1.56-1.42c0-.79.22-1,2.29-2.66.37-.31,1.93-1.71,2.3-2a2,2,0,0,1,1.26-.4C204.71,48,205,48.27,207.4,50.17Zm-7.17,19.1c-.92,0-1.12-.79-1.2-1.21a29,29,0,0,1-.59-3.08,1.18,1.18,0,0,1,1.23-1.2c1,0,1.2.92,1.46,2.07a17.56,17.56,0,0,1,.36,2.13A1.3,1.3,0,0,1,200.23,69.27Zm8.23-2.19c-.11.56-.31,1.52-1.37,1.52a1.18,1.18,0,0,1-1.2-1.12c0-.28.39-2.19.44-2.61s.26-1.37,1.29-1.37a1.23,1.23,0,0,1,1.21,1.29A17.31,17.31,0,0,1,208.46,67.08Zm6.22-6.74h-3.92c-1.26,0-2.24,0-2.24-1.57s1.12-1.49,2.24-1.49h7.7V56h-6c-1.14,0-2.24,0-2.24-1.45s1.1-1.46,2.24-1.46h6v-.75c0-.31-.06-.45-.51-.45h-5.29c-1.31,0-2.24,0-2.24-1.65,0-1.49,1.09-1.49,2.24-1.49h6.83A2.25,2.25,0,0,1,222,51.18v6.1c1.45,0,2.41,0,2.41,1.6s-1.12,1.46-2.24,1.46H218v2.21c.17.25.28.42.64.92.23-.14,1.35-.78,1.6-.95,1.23-.78,1.51-.9,1.88-.9a1.71,1.71,0,0,1,1.56,1.68c0,.87-.25,1-3,2.69.39.39,1.82,1.79,2.74,2.66.56.53.65.79.65,1.18a1.87,1.87,0,0,1-1.71,1.73c-.7,0-1.62-.47-4.34-3.8V71a2.44,2.44,0,0,1-2.74,2.83c-1.49,0-4.09-.48-4.09-2.08a1.44,1.44,0,0,1,1.34-1.56c.28,0,1.68.44,2,.44s.2-.16.2-.28Z"/><path class="cls-6" d="M232.82,63.5a2.29,2.29,0,0,1-.28,1.09,3.66,3.66,0,0,0-.28,1.21c0,2.24,4.54,2.54,7.14,2.54a40.44,40.44,0,0,0,7.2-.81,4.63,4.63,0,0,1,1.17-.19,1.91,1.91,0,0,1,1.94,2.07,1.71,1.71,0,0,1-1.29,1.82c-2,.67-6.3.87-8.54.87-5.27,0-11.31-.82-11.31-6a6.76,6.76,0,0,1,1-3.55,1.63,1.63,0,0,1,1.54-.73C231.37,61.82,232.82,62.13,232.82,63.5Zm1.09-9.74c-2.12,0-3.58,0-3.58-1.94a1.61,1.61,0,0,1,1.79-1.76c.51,0,2.1.06,2.52.06,2.16,0,4.45-.06,6.58-.17.42,0,2.27-.2,2.63-.2,2,0,2.61,2.35,2.61,3.19,0,1.24-.34,1.4-2.41,2.5L242,56.61a1.83,1.83,0,0,1-.87.23,1.39,1.39,0,0,1-1.31-1.43c0-.87.81-1.35,2.88-2.3A70,70,0,0,1,233.91,53.76Zm15.18-2A1.12,1.12,0,0,1,248,52.89c-.59,0-.67-.17-1.54-1.77a15.15,15.15,0,0,1-1-1.62,1,1,0,0,1-.09-.36,1,1,0,0,1,1.1-1,1,1,0,0,1,.5.11A6.49,6.49,0,0,1,249.09,51.74Zm3-1.2a1.16,1.16,0,0,1-1.15,1.17c-.59,0-.7-.19-1.63-1.82s-1-1.71-1-2a1,1,0,0,1,1-1,1.46,1.46,0,0,1,.59.14A6.19,6.19,0,0,1,252.09,50.54Z"/><path class="cls-6" d="M260.37,51.18A3,3,0,0,1,260,50a1.93,1.93,0,0,1,2.07-1.85c1.2,0,1.48.62,2.18,2,1,2.13,1.8,4.34,2.61,6.56.61-.28,5.35-2.19,7.53-2.19a1.8,1.8,0,0,1,1.85,1.85,1.89,1.89,0,0,1-1.07,1.76c-.39.2-3.41.87-4.06,1.07-5.54,1.57-10,3.81-10,6.72s5.41,2.94,6.81,2.94a37.69,37.69,0,0,0,5.88-.39c.36-.06,1.73-.34,1.93-.34a1.9,1.9,0,0,1,1.76,2.1,1.53,1.53,0,0,1-1.06,1.71,29,29,0,0,1-7.45.64c-3.16,0-12,0-12-6.66,0-4.29,4.09-6.41,6.39-7.62C261.91,54.57,261.58,53.87,260.37,51.18Z"/><path class="cls-6" d="M289.8,62.74A1.12,1.12,0,0,1,291,63.89c0,.62-.7,3.19-.79,3.75s-.45,3.17-.67,3.67a1.84,1.84,0,0,1-1.79,1,2.33,2.33,0,0,1-2.21-1.4c-.28-.56-1.43-3.73-1.43-9.16,0-4.59.67-10.19,1.62-11.62a1.74,1.74,0,0,1,1.37-.7,1.81,1.81,0,0,1,2,1.63c0,.33-.75,4.34-.86,5.15a54.78,54.78,0,0,0-.45,7.64,12.1,12.1,0,0,0,.14,2.33C288.4,63.58,288.65,62.74,289.8,62.74Zm6.5,3.42c.05,1.74,3.16,1.79,3.86,1.79,1.35,0,3.31-.17,4-.25a8,8,0,0,1,1.21-.14,1.73,1.73,0,0,1,1.76,1.88c0,1.23-.5,2.26-4.9,2.26-3.78,0-6.1,0-7.84-1.4a4.72,4.72,0,0,1-1.71-3.75c0-1.15,0-2.88,1.91-2.88C296.19,63.67,296.24,64.73,296.3,66.16ZM294.76,51.1c.17,0,3.41.14,4,.14a30.09,30.09,0,0,0,4.65-.48,6.5,6.5,0,0,1,1.4-.22,1.89,1.89,0,0,1,.28,3.72,54.6,54.6,0,0,1-8,.59c-2.49,0-4,0-4-2.05A1.77,1.77,0,0,1,294.76,51.1Z"/><polygon class="cls-5" points="247.76 137.18 239.43 156.85 230.43 135.52 247.76 137.18"/><path class="cls-7" d="M65.24,190.79a5,5,0,1,0,0-10h0v10Z"/><path class="cls-7" d="M60.22,185.77a5,5,0,0,0,5,5v-10A5,5,0,0,0,60.22,185.77Z"/><path class="cls-8" d="M107.16,89.39A41.93,41.93,0,0,0,65.24,47.46h0v83.85h0A41.92,41.92,0,0,0,107.16,89.39Z"/><path class="cls-9" d="M23.32,89.39a41.92,41.92,0,0,0,41.92,41.92V47.46A41.93,41.93,0,0,0,23.32,89.39Z"/><polygon class="cls-8" points="73.12 148.81 72.06 135.48 65.24 135.48 65.24 159.47 65.24 159.47 73.12 148.81"/><polygon class="cls-9" points="58.42 135.48 57.36 148.81 65.24 159.47 65.24 135.48 58.42 135.48"/><path class="cls-8" d="M118.93,171.7c-1.87-11.21-11.38-26.71-18.19-34-1.84-2-5-1.15-6.17-.45a57.29,57.29,0,0,1-9.79,4.79L65.24,168.49h0v12.26h0a5,5,0,1,1,0,10h0v18.49h0C94,209.28,123.53,199.3,118.93,171.7Z"/><path class="cls-9" d="M60.22,185.77a5,5,0,0,1,5-5V168.49L45.7,142.08a57.75,57.75,0,0,1-9.8-4.79c-1.12-.7-4.32-1.52-6.16.45-6.81,7.25-16.32,22.75-18.19,34C7,199.3,36.44,209.28,65.24,209.28V190.79A5,5,0,0,1,60.22,185.77Z"/><path class="cls-3" d="M467.56,18.77c-6.33,1.53-10.12,2.91-12.71,5.48s-4,6.31-5.55,12.56c-1.54-6.25-2.95-10-5.54-12.56s-6.39-3.95-12.71-5.48c6.32-1.54,10.11-2.92,12.71-5.49S447.76,7,449.3.72c1.55,6.25,2.95,10,5.55,12.56S461.23,17.23,467.56,18.77Z"/><path class="cls-1" d="M430.44,34.7c-4.46,1.09-7.14,2.06-9,3.87s-2.82,4.46-3.92,8.87c-1.09-4.41-2.08-7-3.91-8.87s-4.51-2.78-9-3.87c4.46-1.08,7.14-2.05,9-3.86s2.82-4.46,3.91-8.87c1.1,4.41,2.09,7.05,3.92,8.87S426,33.62,430.44,34.7Z"/><rect class="cls-7" width="500" height="210"/></svg>
