<svg id="レイヤー_1" data-name="レイヤー 1" xmlns="http://www.w3.org/2000/svg" viewBox="0 0 500 210"><defs><style>.cls-1{fill:#f35934;}.cls-2{fill:#066b74;}.cls-3{fill:#b29605;}.cls-4{fill:#c6b405;}.cls-5{fill:#fdf9dc;}.cls-6{fill:#fff;}.cls-7{fill:#9cd155;}.cls-8{fill:#b4e06e;}</style></defs><title>img_introduce_step2</title><path class="cls-1" d="M334.09,82.18c0-33.14-42.53-60-95-60s-95,26.86-95,60c0,31.88,39.38,58,89.09,59.88l6.24,14.79L245.71,142C295.09,139.89,334.09,113.91,334.09,82.18Z"/><path class="cls-2" d="M346.8,168.94l-22.3-22.06a4.64,4.64,0,1,0-6.52,6.59l14.28,14.13H176.72a4.64,4.64,0,1,0,0,9.27H332.26L318,191a4.64,4.64,0,1,0,6.52,6.59l22.3-22.06a4.64,4.64,0,0,0,0-6.59Z"/><circle class="cls-2" cx="162.46" cy="172.19" r="4.63"/><circle class="cls-2" cx="148.21" cy="172.19" r="4.63"/><path class="cls-3" d="M416.19,121.81h-3.6c-5.62-5.71-17.5-9.66-31.3-9.66s-25.67,4-31.3,9.66h-3.6l.14,7.54h0s0,0,0,.07c.17,9.41,15.73,17,34.77,17s34.59-7.56,34.77-17c0,0,0,0,0-.07h0Z"/><path class="cls-4" d="M416.28,116.7h-3.61C407,111,395.12,107,381.29,107s-25.74,4-31.38,9.71h-3.61l.14,7.58h0s0,0,0,.07c.17,9.46,15.78,17.05,34.86,17.05s34.69-7.6,34.86-17.05c0,0,0,0,0-.07h0Z"/><path class="cls-3" d="M416.33,114.28h-3.62c-5.65-5.76-17.57-9.74-31.42-9.74s-25.77,4-31.42,9.74h-3.62l.14,7.59h0s0,0,0,.07c.17,9.48,15.8,17.1,34.9,17.1s34.73-7.62,34.9-17.1c0,0,0,0,0-.07h0Z"/><path class="cls-4" d="M416.42,109.14h-3.63c-5.66-5.79-17.62-9.79-31.5-9.79s-25.84,4-31.5,9.79h-3.63l.14,7.64h0s0,0,0,.07c.17,9.53,15.84,17.19,35,17.19s34.82-7.66,35-17.19c0,0,0,0,0-.07h0Z"/><path class="cls-3" d="M416.46,106.7h-3.63c-5.67-5.8-17.64-9.82-31.54-9.82s-25.88,4-31.54,9.82h-3.63l.14,7.65h0s0,0,0,.07c.17,9.55,15.86,17.23,35,17.23s34.86-7.68,35-17.23c0,0,0,0,0-.07h0Z"/><path class="cls-4" d="M416.56,101.52h-3.64c-5.68-5.83-17.69-9.87-31.63-9.87s-25.94,4-31.63,9.87H346l.14,7.69h0s0,0,0,.07c.17,9.6,15.9,17.32,35.13,17.32s35-7.72,35.13-17.32c0,0,0,0,0-.07h0Z"/><path class="cls-3" d="M416.6,99.06H413c-5.69-5.85-17.71-9.89-31.67-9.89s-26,4-31.67,9.89H346l.14,7.71h0s0,0,0,.07c.17,9.63,15.92,17.36,35.17,17.36s35-7.74,35.17-17.36c0,0,0,0,0-.07h0Z"/><path class="cls-4" d="M416.7,93.83H413c-5.7-5.88-17.75-9.95-31.75-9.95s-26,4.07-31.75,9.95h-3.66l.14,7.76h0s0,0,0,.07c.18,9.68,16,17.46,35.27,17.46s35.09-7.78,35.27-17.46c0,0,0,0,0-.07h0Z"/><path class="cls-3" d="M416.75,91.21h-3.66c-5.71-5.9-17.78-10-31.79-10s-26.08,4.08-31.79,10h-3.66L346,99h0s0,0,0,.07c.18,9.71,16,17.5,35.31,17.5s35.14-7.8,35.31-17.5c0,0,0,0,0-.07h0Z"/><path class="cls-4" d="M416.84,85.94h-3.67c-5.73-5.93-17.83-10-31.88-10s-26.15,4.1-31.88,10h-3.67l.14,7.82h0s0,0,0,.07c.18,9.76,16,17.6,35.41,17.6s35.23-7.84,35.41-17.6c0,0,0,0,0-.07h0Z"/><path class="cls-3" d="M416.89,83.44h-3.68c-5.73-5.94-17.85-10.05-31.92-10.05S355.1,77.5,349.37,83.44h-3.68l.14,7.84h0s0,0,0,.07c.18,9.78,16,17.64,35.45,17.64s35.28-7.86,35.45-17.64c0,0,0,0,0-.07h0Z"/><path class="cls-4" d="M417,78.13H413.3c-5.75-6-17.9-10.11-32-10.11s-26.26,4.13-32,10.11H345.6l.14,7.88h0s0,0,0,.07c.18,9.83,16.09,17.74,35.55,17.74s35.37-7.9,35.55-17.74c0,0,0,0,0-.07h0Z"/><path class="cls-3" d="M417,75.61h-3.69c-5.76-6-17.92-10.13-32-10.13s-26.29,4.14-32,10.13h-3.69l.14,7.9h0s0,0,0,.07c.18,9.86,16.11,17.78,35.59,17.78s35.42-7.92,35.59-17.78c0,0,0,0,0-.07h0Z"/><path class="cls-4" d="M417.12,70.26h-3.7c-5.77-6-18-10.19-32.13-10.19s-26.36,4.17-32.13,10.19h-3.7l.14,7.94h0s0,0,0,.07c.18,9.91,16.16,17.88,35.69,17.88s35.51-8,35.69-17.88c0,0,0,0,0-.07h0Z"/><path class="cls-3" d="M417.17,67.87h-3.71c-5.78-6-18-10.21-32.17-10.21s-26.39,4.18-32.17,10.21h-3.71l.14,8h0s0,0,0,.07c.18,9.94,16.18,17.92,35.73,17.92s35.55-8,35.73-17.92c0,0,0,0,0-.07h0Z"/><path class="cls-4" d="M417.15,68.77c-.18,10-16.24,18-35.86,18s-35.68-8-35.86-18,15.87-18.38,35.86-18.38S417.33,58.66,417.15,68.77Z"/><path class="cls-3" d="M410,68.77h-2.3c-.05,3.7-3,7-7.82,9.43s-11.33,3.88-18.58,3.88-13.8-1.48-18.58-3.88-7.77-5.74-7.82-9.43,2.87-7.07,7.64-9.52,11.41-4,18.75-4,14,1.52,18.75,4,7.69,5.81,7.64,9.52h4.59c.14-8.73-13.73-15.86-31-15.86s-31.12,7.13-31,15.86,14,15.61,31,15.61,30.85-7,31-15.61Z"/><path class="cls-5" d="M374.65,71.47l0,5.28q0,1.85-3.4,1.85t-3.42-1.85l-.11-15.47q0-2.45,4.54-2.45H387a21.79,21.79,0,0,1,9.16,1.57q3.31,1.57,3.28,4.77t-3.35,4.73a21.7,21.7,0,0,1-9.12,1.57Zm0-3.47h11a15.69,15.69,0,0,0,5.41-.62,2.23,2.23,0,0,0,1.47-2.2,2.21,2.21,0,0,0-1.44-2.22,16,16,0,0,0-5.42-.61H374.62Z"/><path class="cls-3" d="M487.95,121.81h-3.6c-5.62-5.71-17.5-9.66-31.3-9.66s-25.67,4-31.3,9.66h-3.6l.14,7.54h0s0,0,0,.07c.17,9.41,15.73,17,34.77,17s34.59-7.56,34.77-17c0,0,0,0,0-.07h0Z"/><path class="cls-4" d="M488,116.7h-3.61C478.79,111,466.88,107,453,107s-25.74,4-31.38,9.71h-3.61l.14,7.58h0s0,0,0,.07c.17,9.46,15.78,17.05,34.86,17.05s34.69-7.6,34.86-17.05c0,0,0,0,0-.07h0Z"/><path class="cls-3" d="M488.09,114.28h-3.62c-5.65-5.76-17.57-9.74-31.42-9.74s-25.77,4-31.42,9.74H418l.14,7.59h0s0,0,0,.07c.17,9.48,15.8,17.1,34.9,17.1s34.73-7.62,34.9-17.1c0,0,0,0,0-.07h0Z"/><path class="cls-4" d="M488.18,109.14h-3.63c-5.66-5.79-17.62-9.79-31.5-9.79s-25.84,4-31.5,9.79h-3.63l.14,7.64h0s0,0,0,.07c.17,9.53,15.84,17.19,35,17.19s34.82-7.66,35-17.19c0,0,0,0,0-.07h0Z"/><path class="cls-3" d="M488.22,106.7h-3.63c-5.67-5.8-17.64-9.82-31.54-9.82s-25.88,4-31.54,9.82h-3.63l.14,7.65h0s0,0,0,.07c.17,9.55,15.86,17.23,35,17.23s34.86-7.68,35-17.23c0,0,0,0,0-.07h0Z"/><path class="cls-4" d="M488.32,101.52h-3.64C479,95.68,467,91.65,453,91.65s-25.94,4-31.63,9.87h-3.64l.14,7.69h0s0,0,0,.07c.17,9.6,15.9,17.32,35.13,17.32s35-7.72,35.13-17.32c0,0,0,0,0-.07h0Z"/><path class="cls-3" d="M488.36,99.06h-3.65C479,93.21,467,89.16,453,89.16s-26,4-31.67,9.89h-3.65l.14,7.71h0s0,0,0,.07c.17,9.63,15.92,17.36,35.17,17.36s35-7.74,35.17-17.36c0,0,0,0,0-.07h0Z"/><path class="cls-4" d="M488.46,93.83H484.8C479.09,88,467,83.88,453,83.88S427,88,421.29,93.83h-3.66l.14,7.76h0s0,0,0,.07c.18,9.68,16,17.46,35.27,17.46s35.09-7.78,35.27-17.46c0,0,0,0,0-.07h0Z"/><path class="cls-3" d="M488.5,91.21h-3.66c-5.71-5.9-17.78-10-31.79-10s-26.08,4.08-31.79,10h-3.66l.14,7.78h0s0,0,0,.07c.18,9.71,16,17.5,35.31,17.5s35.14-7.8,35.31-17.5c0,0,0,0,0-.07h0Z"/><path class="cls-4" d="M488.6,85.94h-3.67c-5.73-5.93-17.83-10-31.88-10s-26.15,4.1-31.88,10h-3.67l.14,7.82h0s0,0,0,.07c.18,9.76,16,17.6,35.41,17.6s35.23-7.84,35.41-17.6c0,0,0,0,0-.07h0Z"/><path class="cls-3" d="M488.64,83.44H485C479.23,77.5,467.12,73.39,453,73.39s-26.19,4.11-31.92,10.05h-3.68l.14,7.84h0s0,0,0,.07c.18,9.78,16,17.64,35.45,17.64s35.28-7.86,35.45-17.64c0,0,0,0,0-.07h0Z"/><path class="cls-4" d="M488.74,78.13h-3.69c-5.75-6-17.9-10.11-32-10.11s-26.26,4.13-32,10.11h-3.69L417.5,86h0s0,0,0,.07c.18,9.83,16.09,17.74,35.55,17.74s35.37-7.9,35.55-17.74c0,0,0,0,0-.07h0Z"/><path class="cls-3" d="M488.79,75.61h-3.69c-5.76-6-17.92-10.13-32-10.13s-26.29,4.14-32,10.13h-3.69l.14,7.9h0s0,0,0,.07c.18,9.86,16.11,17.78,35.59,17.78s35.42-7.92,35.59-17.78c0,0,0,0,0-.07h0Z"/><path class="cls-4" d="M488.88,70.26h-3.7c-5.77-6-18-10.19-32.13-10.19s-26.36,4.17-32.13,10.19h-3.7l.14,7.94h0s0,0,0,.07c.18,9.91,16.16,17.88,35.69,17.88s35.51-8,35.69-17.88c0,0,0,0,0-.07h0Z"/><path class="cls-3" d="M488.93,67.87h-3.71c-5.78-6-18-10.21-32.17-10.21s-26.39,4.18-32.17,10.21h-3.71l.14,8h0s0,0,0,.07c.18,9.94,16.18,17.92,35.73,17.92s35.55-8,35.73-17.92c0,0,0,0,0-.07h0Z"/><path class="cls-4" d="M488.91,68.77c-.18,10-16.24,18-35.86,18s-35.68-8-35.86-18S433.06,50.39,453,50.39,489.09,58.66,488.91,68.77Z"/><path class="cls-3" d="M481.74,68.77h-2.3c-.05,3.7-3,7-7.82,9.43S460.29,82.08,453,82.08s-13.8-1.48-18.58-3.88-7.77-5.74-7.82-9.43,2.87-7.07,7.64-9.52,11.41-4,18.75-4,14,1.52,18.75,4,7.69,5.81,7.64,9.52H484c.14-8.73-13.73-15.86-31-15.86s-31.12,7.13-31,15.86,14,15.61,31,15.61,30.85-7,31-15.61Z"/><path class="cls-5" d="M446.4,71.47l0,5.28q0,1.85-3.4,1.85t-3.42-1.85l-.11-15.47q0-2.45,4.54-2.45h14.71a21.79,21.79,0,0,1,9.16,1.57q3.31,1.57,3.28,4.77t-3.35,4.73a21.7,21.7,0,0,1-9.12,1.57Zm0-3.47h11a15.69,15.69,0,0,0,5.41-.62,2.23,2.23,0,0,0,1.47-2.2,2.21,2.21,0,0,0-1.44-2.22,16,16,0,0,0-5.42-.61H446.37Z"/><path class="cls-3" d="M452.07,181.78h-3.6c-5.62-5.71-17.5-9.66-31.3-9.66s-25.67,4-31.3,9.66h-3.6l.14,7.54h0s0,0,0,.07c.17,9.41,15.73,17,34.77,17s34.59-7.56,34.77-17c0,0,0,0,0-.07h0Z"/><path class="cls-4" d="M452.16,176.68h-3.61C442.91,170.93,431,167,417.17,167s-25.74,4-31.38,9.71h-3.61l.14,7.58h0s0,0,0,.07c.17,9.46,15.78,17.05,34.86,17.05s34.69-7.6,34.86-17.05c0,0,0,0,0-.07h0Z"/><path class="cls-3" d="M452.21,174.26h-3.62c-5.65-5.76-17.57-9.74-31.42-9.74s-25.77,4-31.42,9.74h-3.62l.14,7.59h0s0,0,0,.07c.17,9.48,15.8,17.1,34.9,17.1s34.73-7.62,34.9-17.1c0,0,0,0,0-.07h0Z"/><path class="cls-4" d="M452.3,169.11h-3.63c-5.66-5.79-17.62-9.79-31.5-9.79s-25.84,4-31.5,9.79H382l.14,7.64h0s0,0,0,.07c.17,9.53,15.84,17.19,35,17.19s34.82-7.66,35-17.19c0,0,0,0,0-.07h0Z"/><path class="cls-3" d="M452.34,166.67h-3.63c-5.67-5.8-17.64-9.82-31.54-9.82s-25.88,4-31.54,9.82H382l.14,7.65h0s0,0,0,.07c.17,9.55,15.86,17.23,35,17.23S452,184,452.2,174.4c0,0,0,0,0-.07h0Z"/><path class="cls-4" d="M452.44,161.49h-3.64c-5.68-5.83-17.69-9.87-31.63-9.87s-25.94,4-31.63,9.87H381.9l.14,7.69h0s0,0,0,.07c.17,9.6,15.9,17.32,35.13,17.32s35-7.72,35.13-17.32c0,0,0,0,0-.07h0Z"/><path class="cls-3" d="M452.48,159h-3.65c-5.69-5.85-17.71-9.89-31.67-9.89s-26,4-31.67,9.89h-3.65l.14,7.71h0s0,0,0,.07c.17,9.63,15.92,17.36,35.17,17.36s35-7.74,35.17-17.36c0,0,0,0,0-.07h0Z"/><path class="cls-4" d="M452.58,153.8h-3.66c-5.7-5.88-17.75-9.95-31.75-9.95s-26,4.07-31.75,9.95h-3.66l.14,7.76h0s0,0,0,.07c.18,9.68,16,17.46,35.27,17.46s35.09-7.78,35.27-17.46c0,0,0,0,0-.07h0Z"/><path class="cls-3" d="M452.62,151.18H449c-5.71-5.9-17.78-10-31.79-10s-26.08,4.08-31.79,10h-3.66l.14,7.78h0s0,0,0,.07c.18,9.71,16,17.5,35.31,17.5s35.14-7.8,35.31-17.5c0,0,0,0,0-.07h0Z"/><path class="cls-4" d="M452.72,145.91H449c-5.73-5.93-17.83-10-31.88-10s-26.15,4.1-31.88,10h-3.67l.14,7.82h0s0,0,0,.07c.18,9.76,16,17.6,35.41,17.6s35.23-7.84,35.41-17.6c0,0,0,0,0-.07h0Z"/><path class="cls-3" d="M452.76,143.41h-3.68c-5.73-5.94-17.85-10.05-31.92-10.05s-26.19,4.11-31.92,10.05h-3.68l.14,7.84h0s0,0,0,.07c.18,9.78,16,17.64,35.45,17.64s35.28-7.86,35.45-17.64c0,0,0,0,0-.07h0Z"/><path class="cls-4" d="M452.86,138.1h-3.69c-5.75-6-17.9-10.11-32-10.11s-26.26,4.13-32,10.11h-3.69l.14,7.88h0s0,0,0,.07c.18,9.83,16.09,17.74,35.55,17.74s35.37-7.9,35.55-17.74c0,0,0,0,0-.07h0Z"/><path class="cls-3" d="M452.91,135.59h-3.69c-5.76-6-17.92-10.13-32-10.13s-26.29,4.14-32,10.13h-3.69l.14,7.9h0s0,0,0,.07c.18,9.86,16.11,17.78,35.59,17.78s35.42-7.92,35.59-17.78c0,0,0,0,0-.07h0Z"/><path class="cls-4" d="M453,130.23h-3.7c-5.77-6-18-10.19-32.13-10.19s-26.36,4.17-32.13,10.19h-3.7l.14,7.94h0s0,0,0,.07c.18,9.91,16.16,17.88,35.69,17.88s35.51-8,35.69-17.88c0,0,0,0,0-.07h0Z"/><path class="cls-3" d="M453,127.85h-3.71c-5.78-6-18-10.21-32.17-10.21s-26.39,4.18-32.17,10.21h-3.71l.14,8h0s0,0,0,.07c.18,9.94,16.18,17.92,35.73,17.92s35.55-8,35.73-17.92c0,0,0,0,0-.07h0Z"/><path class="cls-4" d="M453,128.74c-.18,10-16.24,18-35.86,18s-35.68-8-35.86-18,15.87-18.38,35.86-18.38S453.21,118.63,453,128.74Z"/><path class="cls-3" d="M445.86,128.74h-2.3c-.05,3.7-3,7-7.82,9.43s-11.33,3.88-18.58,3.88-13.8-1.48-18.58-3.88-7.77-5.74-7.82-9.43,2.87-7.07,7.64-9.52,11.41-4,18.75-4,14,1.52,18.75,4,7.69,5.81,7.64,9.52h4.59c.14-8.73-13.73-15.86-31-15.86s-31.12,7.13-31,15.86,14,15.61,31,15.61,30.85-7,31-15.61Z"/><path class="cls-5" d="M410.53,131.44l0,5.28q0,1.85-3.4,1.85t-3.42-1.85l-.11-15.47q0-2.45,4.54-2.45h14.71a21.79,21.79,0,0,1,9.16,1.57q3.31,1.57,3.28,4.77t-3.35,4.73a21.7,21.7,0,0,1-9.12,1.57Zm0-3.47h11a15.69,15.69,0,0,0,5.41-.62,2.23,2.23,0,0,0,1.47-2.2,2.21,2.21,0,0,0-1.44-2.22,16,16,0,0,0-5.42-.61H410.49Z"/><path class="cls-6" d="M177.8,97.17a2.58,2.58,0,0,1-2.6-2.68,2.43,2.43,0,0,1,2.32-2.56h3.68c3.16,0,5-2.24,5-4.28,0-2.72-2.76-3.48-4.48-3.48a5.2,5.2,0,0,0-4.88,2.76c-1,1.8-1.48,2.24-2.68,2.24a2.76,2.76,0,0,1-3-2.76c0-3,4-7.64,10.72-7.64,5.92,0,10,3.48,10,8.64a7.69,7.69,0,0,1-3.84,6.8c1.2.64,4.28,2.32,4.28,7.4,0,5.56-4.24,10.16-11,10.16-7.24,0-11.12-5.28-11.12-7.76a3.07,3.07,0,0,1,3-2.84c1.28,0,1.76.6,3,2.24a6.93,6.93,0,0,0,5.36,2.92c2,0,5.16-1.32,5.16-4.68,0-3.2-2.92-4.48-5-4.48Z"/><path class="cls-6" d="M194.08,108a3.67,3.67,0,0,1,3.68-3.68,3.71,3.71,0,0,1,3.72,4c0,4.32-4.64,8-5.8,8a1.09,1.09,0,0,1-1.12-1.12c0-.6.16-.72,1.48-1.72a10,10,0,0,0,1.68-1.8A3.68,3.68,0,0,1,194.08,108Z"/><path class="cls-6" d="M225.32,95.25c0,8.48-2.24,16.48-11,16.48s-11.08-7.8-11.08-16.48c0-8,2-16.48,11.08-16.48C223.16,78.77,225.32,87,225.32,95.25Zm-16.48,0c0,6.56,1.28,11.08,5.44,11.08s5.44-4.28,5.44-11.08c0-6.6-1.32-11.08-5.44-11.08S208.84,88.65,208.84,95.25Z"/><path class="cls-6" d="M250.52,95.25c0,8.48-2.24,16.48-11,16.48s-11.08-7.8-11.08-16.48c0-8,2-16.48,11.08-16.48C248.36,78.77,250.52,87,250.52,95.25Zm-16.48,0c0,6.56,1.28,11.08,5.44,11.08s5.44-4.28,5.44-11.08c0-6.6-1.32-11.08-5.44-11.08S234,88.65,234,95.25Z"/><path class="cls-6" d="M275.72,95.25c0,8.48-2.24,16.48-11,16.48s-11.08-7.8-11.08-16.48c0-8,2-16.48,11.08-16.48C273.56,78.77,275.72,87,275.72,95.25Zm-16.48,0c0,6.56,1.28,11.08,5.44,11.08s5.44-4.28,5.44-11.08c0-6.6-1.32-11.08-5.44-11.08S259.24,88.65,259.24,95.25Z"/><path class="cls-6" d="M279.29,91.33c0-.93,0-2.1,1.62-2.1,1.41,0,1.86,1,1.95,2a5.15,5.15,0,0,1,4.59-2c5.31,0,7.44,4.59,7.44,9.36s-2,9.15-7.2,9.15a6.85,6.85,0,0,1-4.56-1.53v3a2,2,0,0,1-1.83,2,2,2,0,0,1-2-1.92Zm3.84,8.31a3.82,3.82,0,0,0,4,4.11c1.8,0,3.81-.72,3.81-5.43a6.18,6.18,0,0,0-1.32-4.2,3.48,3.48,0,0,0-2.64-.87,4,4,0,0,0-3.9,4.23Z"/><path class="cls-6" d="M298.49,93.34a1.79,1.79,0,0,1,0-3.57h1.41V86.5a1.84,1.84,0,0,1,1.92-1.86,1.81,1.81,0,0,1,1.83,1.83v3.3h3.54a1.79,1.79,0,0,1,0,3.57h-3.54v9.27c0,.36.09.93.6.93s.75-.33,1.17-1.23c.63-1.35,1.2-1.62,1.83-1.62a1.92,1.92,0,0,1,1.89,2c0,1.29-1.65,5.1-5.19,5.1-3.93,0-4-3.69-4-5V93.34Z"/><path class="cls-6" d="M179.88,58.38c-1.34,0-1.62,0-2.07-.67-3.28,2.46-5.71,3.08-6.44,3.08a1.45,1.45,0,0,1-1.57-1.48,1.42,1.42,0,0,1,1-1.46,17.3,17.3,0,0,0,3.39-1.57c-1.9-1.74-2-1.79-2-2.38a1.35,1.35,0,0,1,1.34-1.4c.84,0,1.88.81,3.11,2A7.5,7.5,0,0,0,178.64,52c0-.17-.17-.17-.39-.17h-4.68c-1.15,0-2.24,0-2.24-1.46s1-1.6,2.24-1.6h6.5c1.6,0,2.46.67,2.46,2.18,0,.81-.31,2.24-2.18,4.37H186c-1.79-2.27-2.86-4.84-2.86-6.19a1.38,1.38,0,0,1,1.43-1.34,1.47,1.47,0,0,1,1.29.56c.17.2,1,2,1.23,2.49.45-.36,2.38-2,2.8-2.35a1.48,1.48,0,0,1,.9-.34,1.57,1.57,0,0,1,1.57,1.51c0,1-2.07,2.83-3.44,3.92a7.58,7.58,0,0,0,.92,1,32.15,32.15,0,0,0,2.77-2.63,2.14,2.14,0,0,1,1.57-.87,1.69,1.69,0,0,1,1.71,1.54c0,1-2,2.8-3.47,3.92a17.1,17.1,0,0,0,2.86,1.34,1.19,1.19,0,0,1,.87,1.23,1.76,1.76,0,0,1-1.74,1.71c-1,0-3.08-.53-5.94-2.86-.39.45-.7.45-1.9.45Zm-2.52,11.54a9.58,9.58,0,0,1-.53-1.74.76.76,0,0,1,.11-.42c-.73,0-2.74-.06-2.74-2.49v-3c0-2.46,1.9-2.46,3.11-2.46h11.37c1.23,0,3.14,0,3.14,2.46v3c0,2.38-1.9,2.44-2.6,2.49a1.5,1.5,0,0,1,.11.53,5.51,5.51,0,0,1-.5,1.62h4.09c.45,0,2.24,0,2.24,1.65s-1.68,1.65-2.24,1.65h-19.6c-.45,0-2.24,0-2.24-1.65s1.68-1.65,2.24-1.65Zm1.06-7.22c-.5,0-.87,0-.87.67V64c0,.64.36.64.87.64h9.07c.5,0,.87,0,.87-.64v-.67c0-.67-.39-.67-.87-.67Zm1.71,5.07a8.86,8.86,0,0,1,.92,2.16h4.12c.2-.45.84-1.9,1-2.16Z"/><path class="cls-6" d="M202.11,62.77h-1.68c-1.18,0-2.27,0-2.27-1.48s1-1.6,2.27-1.6h1.68V57.82h-.92c-1.12,0-2.24,0-2.24-1.43s1-1.54,2.24-1.54h5.1c1.12,0,2.24,0,2.24,1.43s-1,1.54-2.24,1.54h-.87v1.88h1.4c1.15,0,2.24,0,2.24,1.46,0,1.62-1,1.62-2.24,1.62h-1.4v6.58c.36-.08,2.13-.48,2.32-.48a1.17,1.17,0,0,1,.53.11c0-.73.22-.84,2-2,.25-.17,1.34-1.06,1.6-1.2a21.41,21.41,0,0,1-1.79-1.51c-.62-.56-.9-.84-.9-1.46a1.43,1.43,0,0,1,1.46-1.37c1.32,0,3.22,2.07,3.22,3.08a1.35,1.35,0,0,1-.76,1.2,2.14,2.14,0,0,1,1,1.54c0,1.34-3.7,3.39-4.31,3.39a1.25,1.25,0,0,1-.73-.22,1.31,1.31,0,0,1-1.15,1.51,40.82,40.82,0,0,1-8.46,1.48c-.73,0-1.54-.31-1.54-1.74,0-1,.9-1.29,1.62-1.37.2,0,2-.28,2.55-.34Zm5.29-12.6c1.68,1.32,1.88,1.48,1.88,2.18a1.6,1.6,0,0,1-1.51,1.57c-.76,0-1.29-.36-3.08-2-.56-.5-.62-.56-.73-.56s-.25.06-.81.62c-1.09,1.09-2.63,2.52-3.53,2.52A1.56,1.56,0,0,1,198,53.06c0-.78.22-1,2.3-2.66.36-.31,1.93-1.71,2.3-2A2.05,2.05,0,0,1,203.9,48C204.71,48,205,48.27,207.4,50.17Zm-7.17,19.1c-.92,0-1.12-.78-1.2-1.2a29.51,29.51,0,0,1-.59-3.08,1.18,1.18,0,0,1,1.23-1.2c1,0,1.21.92,1.46,2.07a17.05,17.05,0,0,1,.36,2.13A1.3,1.3,0,0,1,200.23,69.27Zm8.23-2.18c-.11.56-.31,1.51-1.37,1.51a1.18,1.18,0,0,1-1.2-1.12c0-.28.39-2.18.45-2.6s.25-1.37,1.29-1.37a1.23,1.23,0,0,1,1.2,1.29A17.41,17.41,0,0,1,208.46,67.08Zm6.22-6.75h-3.92c-1.26,0-2.24,0-2.24-1.57s1.12-1.48,2.24-1.48h7.7V56h-6c-1.15,0-2.24,0-2.24-1.46s1.09-1.46,2.24-1.46h6v-.76c0-.31-.06-.45-.5-.45h-5.29c-1.32,0-2.24,0-2.24-1.65,0-1.48,1.09-1.48,2.24-1.48h6.83A2.25,2.25,0,0,1,222,51.18v6.1c1.46,0,2.41,0,2.41,1.6s-1.12,1.46-2.24,1.46H218v2.21c.17.25.28.42.64.92.22-.14,1.34-.78,1.6-1,1.23-.78,1.51-.9,1.88-.9a1.71,1.71,0,0,1,1.57,1.68c0,.87-.25,1-3,2.69.39.39,1.82,1.79,2.74,2.66.56.53.64.78.64,1.18a1.88,1.88,0,0,1-1.71,1.74c-.7,0-1.62-.48-4.34-3.81v3.19a2.44,2.44,0,0,1-2.74,2.83c-1.48,0-4.09-.48-4.09-2.07a1.45,1.45,0,0,1,1.34-1.57c.28,0,1.68.45,2,.45s.2-.17.2-.28Z"/><path class="cls-6" d="M232.82,63.5a2.27,2.27,0,0,1-.28,1.09,3.54,3.54,0,0,0-.28,1.2c0,2.24,4.54,2.55,7.14,2.55a40.07,40.07,0,0,0,7.2-.81,4.5,4.5,0,0,1,1.18-.2,1.91,1.91,0,0,1,1.93,2.07,1.71,1.71,0,0,1-1.29,1.82c-2,.67-6.3.87-8.54.87-5.26,0-11.31-.81-11.31-6a6.72,6.72,0,0,1,1-3.56,1.63,1.63,0,0,1,1.54-.73C231.37,61.82,232.82,62.13,232.82,63.5Zm1.09-9.74c-2.13,0-3.58,0-3.58-1.93a1.61,1.61,0,0,1,1.79-1.76c.5,0,2.1.06,2.52.06,2.16,0,4.45-.06,6.58-.17.42,0,2.27-.2,2.63-.2,2,0,2.6,2.35,2.6,3.19,0,1.23-.34,1.4-2.41,2.49L242,56.61a1.92,1.92,0,0,1-.87.22,1.39,1.39,0,0,1-1.32-1.43c0-.87.81-1.34,2.88-2.3A70.67,70.67,0,0,1,233.91,53.76Zm15.18-2A1.12,1.12,0,0,1,248,52.89c-.59,0-.67-.17-1.54-1.76a16.31,16.31,0,0,1-1-1.62,1.16,1.16,0,0,1-.08-.36,1,1,0,0,1,1.09-1,1,1,0,0,1,.5.11A6.5,6.5,0,0,1,249.09,51.74Zm3-1.2a1.16,1.16,0,0,1-1.15,1.18c-.59,0-.7-.2-1.62-1.82s-1-1.71-1-2a1,1,0,0,1,1-1,1.4,1.4,0,0,1,.59.14A6.14,6.14,0,0,1,252.09,50.54Z"/><path class="cls-6" d="M260.38,51.18a2.9,2.9,0,0,1-.34-1.23,1.94,1.94,0,0,1,2.07-1.85c1.2,0,1.48.62,2.18,2,1,2.13,1.79,4.34,2.6,6.55.62-.28,5.35-2.18,7.53-2.18a1.8,1.8,0,0,1,1.85,1.85,1.91,1.91,0,0,1-1.06,1.76c-.39.2-3.42.87-4.06,1.06-5.54,1.57-10.05,3.81-10.05,6.72s5.4,2.94,6.8,2.94a37.48,37.48,0,0,0,5.88-.39c.36-.06,1.74-.34,1.93-.34a1.91,1.91,0,0,1,1.76,2.1,1.53,1.53,0,0,1-1.06,1.71,28.89,28.89,0,0,1-7.45.64c-3.16,0-12,0-12-6.66,0-4.28,4.09-6.41,6.38-7.62C261.91,54.57,261.58,53.87,260.38,51.18Z"/><path class="cls-6" d="M289.8,62.74a1.11,1.11,0,0,1,1.2,1.15c0,.62-.7,3.19-.78,3.75s-.45,3.16-.67,3.67a1.84,1.84,0,0,1-1.79,1,2.33,2.33,0,0,1-2.21-1.4c-.28-.56-1.43-3.72-1.43-9.16,0-4.59.67-10.19,1.62-11.62a1.72,1.72,0,0,1,1.37-.7,1.82,1.82,0,0,1,2,1.62c0,.34-.76,4.34-.87,5.15a54.7,54.7,0,0,0-.45,7.64,11.86,11.86,0,0,0,.14,2.32C288.4,63.58,288.65,62.74,289.8,62.74Zm6.5,3.42c.06,1.74,3.16,1.79,3.86,1.79,1.34,0,3.3-.17,4-.25a8,8,0,0,1,1.2-.14,1.73,1.73,0,0,1,1.76,1.88c0,1.23-.5,2.27-4.9,2.27-3.78,0-6.1,0-7.84-1.4a4.73,4.73,0,0,1-1.71-3.75c0-1.15,0-2.88,1.9-2.88C296.19,63.67,296.24,64.73,296.3,66.16ZM294.76,51.1c.17,0,3.42.14,4,.14a30,30,0,0,0,4.65-.48,6.45,6.45,0,0,1,1.4-.22,1.89,1.89,0,0,1,.28,3.72,54.61,54.61,0,0,1-8,.59c-2.49,0-4,0-4-2A1.78,1.78,0,0,1,294.76,51.1Z"/><path class="cls-7" d="M107.16,89.39A41.93,41.93,0,0,0,65.24,47.46h0v83.85h0A41.92,41.92,0,0,0,107.16,89.39Z"/><path class="cls-8" d="M23.32,89.39a41.92,41.92,0,0,0,41.92,41.92V47.46A41.93,41.93,0,0,0,23.32,89.39Z"/><polygon class="cls-7" points="73.12 148.81 72.06 135.48 65.24 135.48 65.24 159.47 65.24 159.47 73.12 148.81"/><polygon class="cls-8" points="58.42 135.48 57.36 148.81 65.24 159.47 65.24 135.48 58.42 135.48"/><path class="cls-7" d="M118.93,171.7c-1.87-11.21-11.38-26.71-18.19-34-1.84-2-5-1.15-6.16-.45a56.44,56.44,0,0,1-9.8,4.79L65.24,168.49h0v12.27h0a5,5,0,1,1,0,10h0v18.49h0C94,209.28,123.53,199.3,118.93,171.7Z"/><path class="cls-8" d="M60.22,185.77a5,5,0,0,1,5-5V168.49L45.7,142.08a56.46,56.46,0,0,1-9.8-4.79c-1.12-.7-4.32-1.51-6.16.45-6.81,7.26-16.32,22.75-18.19,34C7,199.3,36.44,209.28,65.24,209.28V190.79A5,5,0,0,1,60.22,185.77Z"/><path class="cls-4" d="M467.56,18.77c-12.65,3.06-15.16,5.54-18.25,18-3.1-12.5-5.61-15-18.25-18,12.65-3.06,15.16-5.54,18.25-18C452.4,13.22,454.91,15.7,467.56,18.77Z"/><path class="cls-2" d="M430.44,34.7c-8.93,2.16-10.7,3.91-12.88,12.74-2.19-8.82-4-10.57-12.88-12.74,8.93-2.16,10.7-3.91,12.88-12.74C419.74,30.79,421.51,32.54,430.44,34.7Z"/></svg>