<svg id="img" xmlns="http://www.w3.org/2000/svg" viewBox="0 0 210 52"><defs><style>.cls-1{fill:#fff;}.cls-2{fill:#066b74;}.cls-3{fill:#8cddf1;}.cls-4{fill:#ffb23d;}.cls-5{fill:#ff8266;}.cls-6{fill:#ee5659;}.cls-7{fill:#ffe55a;}</style></defs><title>logo</title><polygon class="cls-1" points="38.46 23.1 38.46 23.1 38.46 23.1 38.46 23.1"/><path class="cls-2" d="M209.15,31.06a8.84,8.84,0,0,0-2-2.72l.11-.14a8.85,8.85,0,0,0,1.21-7.53A20.66,20.66,0,0,0,198,8.08a20.32,20.32,0,0,0-9.18-2.2A20.81,20.81,0,0,0,170.9,15.94a20.62,20.62,0,0,0-8.38-7.86,20.31,20.31,0,0,0-9.18-2.2,20.81,20.81,0,0,0-17.89,10.05,20.62,20.62,0,0,0-8.38-7.86,20.31,20.31,0,0,0-9.18-2.2,21.21,21.21,0,0,0-14.71,6c-.23.23-.44.48-.66.72l-.39-4.51A8.86,8.86,0,0,0,93.31,0q-.39,0-.78,0A8.85,8.85,0,0,0,86.77,2.9c-.11.12-.21.25-.31.37a8.84,8.84,0,0,0-5.77-2.16q-.39,0-.78,0A8.86,8.86,0,0,0,71.82,10c0,.25,0,.49,0,.74a21.33,21.33,0,0,0-28.46,1.82,21.84,21.84,0,0,0-5.68,10.32A8.92,8.92,0,0,0,36,22.52a8.83,8.83,0,0,0,1.5-2h0a8.86,8.86,0,0,0-3.48-12A22.55,22.55,0,0,0,23.16,5.72,23.59,23.59,0,0,0,15.1,7.15,22.55,22.55,0,0,0,0,28.06,20.72,20.72,0,0,0,5.81,42.44,21.5,21.5,0,0,0,13,47.31a22.69,22.69,0,0,0,8.78,1.76,23.56,23.56,0,0,0,8.06-1.43,23.32,23.32,0,0,0,10.72-7.93,21.76,21.76,0,0,0,2.84,3.58,21.35,21.35,0,0,0,30.51,0c.26-.26.49-.54.73-.81l.12,1.42A8.86,8.86,0,0,0,83.57,52c.27,0,.52,0,.77,0h0a8.85,8.85,0,0,0,5.77-2.86c.11-.12.21-.25.31-.37a8.84,8.84,0,0,0,5.78,2.16c.27,0,.52,0,.77,0h0A8.83,8.83,0,0,0,104.54,45c.46.39.93.76,1.42,1.11a20.92,20.92,0,0,0,12.1,3.82,22.58,22.58,0,0,0,7.73-1.39A25.89,25.89,0,0,0,132,45.23a26.26,26.26,0,0,0,4.42-4,21,21,0,0,0,17.07,8.75,22.54,22.54,0,0,0,7.71-1.38,25.9,25.9,0,0,0,6.24-3.33,26.25,26.25,0,0,0,4.42-4A21,21,0,0,0,189,49.94a22.54,22.54,0,0,0,7.71-1.38,26.41,26.41,0,0,0,11.38-8.2,8.86,8.86,0,0,0,1.08-9.29Zm-179-15.43h0Zm93.28-.28h0Zm7.4,19.94h0Z"/><polygon class="cls-2" points="79.9 1.16 79.9 1.16 79.9 1.16 79.9 1.16"/><polygon class="cls-2" points="102.13 7.99 102.14 8.1 102.14 8.1 102.13 7.99"/><path class="cls-3" d="M36.69,27.55A4.07,4.07,0,0,1,39,32.83,18.2,18.2,0,0,1,28.2,43.14a18.85,18.85,0,0,1-6.42,1.15,17.9,17.9,0,0,1-6.94-1.4,16.13,16.13,0,0,1-9.09-9.42C2.58,24.8,7.51,15,16.73,11.65a18.2,18.2,0,0,1,15,1,4.07,4.07,0,1,1-3.93,7.13,10.09,10.09,0,0,0-8.3-.53c-5,1.83-7.74,6.94-6.12,11.4A8.1,8.1,0,0,0,18,35.39a10.43,10.43,0,0,0,13.42-5.55A4.07,4.07,0,0,1,36.69,27.55Z"/><path class="cls-4" d="M118.06,45.16A16.34,16.34,0,0,1,102.6,34.07a18.54,18.54,0,0,1,.13-13,16.21,16.21,0,0,1,9.63-9.43,15.67,15.67,0,0,1,12.55.69A15.88,15.88,0,0,1,133,22a4.07,4.07,0,0,1-2.51,5l-18.8,6.84a8.36,8.36,0,0,0,9.73,2.58,13.44,13.44,0,0,0,5.68-4.1,4.07,4.07,0,0,1,6.37,5.06,21.62,21.62,0,0,1-9.27,6.68A17.79,17.79,0,0,1,118.06,45.16Zm-.18-26.34a8,8,0,0,0-2.74.49,8.09,8.09,0,0,0-4.84,4.77,9.65,9.65,0,0,0-.5,1.76L123.14,21a7.63,7.63,0,0,0-1.9-1.36A7.42,7.42,0,0,0,117.88,18.82Z"/><path class="cls-5" d="M153.53,45.15a16.16,16.16,0,0,1-7-1.59,16.76,16.76,0,0,1-8.46-9.5,18.54,18.54,0,0,1,.13-13,16.21,16.21,0,0,1,9.63-9.43,15.67,15.67,0,0,1,12.55.69,15.88,15.88,0,0,1,8,9.66,4.07,4.07,0,0,1-2.51,5l-18.8,6.84a8.23,8.23,0,0,0,2.94,2.4,8.58,8.58,0,0,0,6.79.18,13.44,13.44,0,0,0,5.68-4.1,4.07,4.07,0,1,1,6.37,5.06,21.62,21.62,0,0,1-9.27,6.68A17.75,17.75,0,0,1,153.53,45.15Zm-.2-26.33a8,8,0,0,0-2.74.49,8.09,8.09,0,0,0-4.84,4.77,9.65,9.65,0,0,0-.5,1.76L158.6,21a7.63,7.63,0,0,0-1.9-1.36A7.42,7.42,0,0,0,153.33,18.82Z"/><path class="cls-6" d="M189,45.15a16.16,16.16,0,0,1-7-1.59,16.76,16.76,0,0,1-8.46-9.5,18.54,18.54,0,0,1,.13-13,16.21,16.21,0,0,1,9.63-9.43,15.67,15.67,0,0,1,12.55.69,15.88,15.88,0,0,1,8,9.66,4.07,4.07,0,0,1-2.51,5l-18.8,6.84a8.23,8.23,0,0,0,2.94,2.4,8.58,8.58,0,0,0,6.79.18,13.45,13.45,0,0,0,5.68-4.1,4.07,4.07,0,0,1,6.37,5.06,21.62,21.62,0,0,1-9.27,6.68A17.75,17.75,0,0,1,189,45.15Zm-.2-26.33a8,8,0,0,0-2.74.49,8.09,8.09,0,0,0-4.84,4.77,9.65,9.65,0,0,0-.5,1.76L194,21a7.63,7.63,0,0,0-1.9-1.36A7.43,7.43,0,0,0,188.79,18.82Z"/><path class="cls-1" d="M58.64,44.91a17,17,0,1,1,16.76-17A16.9,16.9,0,0,1,58.64,44.91Zm0-25.85a8.86,8.86,0,1,0,8.62,8.86A8.75,8.75,0,0,0,58.64,19.06Z"/><path class="cls-7" d="M80.32,5.92a4.07,4.07,0,0,0-3.7,4.41L79,37.46l7.91-3L84.73,9.62A4.07,4.07,0,0,0,80.32,5.92Z"/><path class="cls-4" d="M79.52,43.48a4.07,4.07,0,0,0,4,3.72l.36,0a4.07,4.07,0,0,0,3.7-4.41L86.9,34.5l-7.91,3Z"/><path class="cls-4" d="M91.32,32.84l.83,9.54a4.07,4.07,0,0,0,4,3.72l.36,0a4.07,4.07,0,0,0,3.7-4.41l-1-11.79Z"/><path class="cls-7" d="M97.37,8.52a4.07,4.07,0,1,0-8.11.71l2.07,23.61,7.91-3Z"/></svg>