<svg id="レイヤー_1" data-name="レイヤー 1" xmlns="http://www.w3.org/2000/svg" viewBox="0 0 60 60"><defs><style>.cls-1{fill:#e7e9ee;}.cls-2{fill:none;}.cls-3{fill:#89909f;}.cls-4{fill:#aeb2bd;}</style></defs><title>rank-silver</title><ellipse class="cls-1" cx="29.61" cy="16.7" rx="11.26" ry="11.39"/><path class="cls-2" d="M9.86,6.12h-6a8.11,8.11,0,0,0,0,1.45c0,.24,0,.47,0,.67,0,.45.12,8.84,8.22,12.42A34.78,34.78,0,0,1,9.85,7.37C9.85,6.92,9.86,6.5,9.86,6.12Z"/><path class="cls-2" d="M50.14,6.12c0,.38,0,.8,0,1.25a34.79,34.79,0,0,1-2.22,13.29c8.09-3.58,8.21-12,8.21-12.42,0-.21,0-.44,0-.67a8,8,0,0,0,0-1.45Z"/><path class="cls-3" d="M58.87,3.37A3.66,3.66,0,0,0,56.15,2.3H39.31L32.38,12.79a2.23,2.23,0,0,0,1.38.66l4,.2c.75,0,.88.45.3.92l-3.15,2.53a2.26,2.26,0,0,0-.7,2.16l1.06,3.89c.2.72-.16,1-.78.57l-3.38-2.21a2.26,2.26,0,0,0-2.28,0l-3.38,2.21a1.06,1.06,0,0,1-.46.19l-4.38,6.62a32.39,32.39,0,0,0,5.51,2.62c.41.15,1.32,1.3,1.32,1.3v4.3c0,.24,0,.47,0,.69H24.37v2.34h-2c-2.55,0-3.61,1.27-3.61,3.61V57.7H41.28V45.39c0-2.34-1.06-3.61-3.61-3.61h-2V39.44H32.54c0-.22,0-.45,0-.69v-4.3s.9-1.14,1.32-1.3c4.7-1.75,8.52-4.11,11.28-7.63C56.71,23.14,60,13.61,60,8.24c0-.17,0-.35,0-.55C60,6.4,60.09,4.62,58.87,3.37Zm-2.71,4.2c0,.24,0,.47,0,.67,0,.45-.12,8.84-8.21,12.42A34.79,34.79,0,0,0,50.15,7.37c0-.45,0-.87,0-1.25h6A8,8,0,0,1,56.16,7.57Z"/><path class="cls-4" d="M24.7,23.15l1.06-3.89a2.26,2.26,0,0,0-.7-2.16l-3.15-2.53c-.58-.47-.45-.88.3-.92l4-.2a2.26,2.26,0,0,0,1.84-1.34l1.43-3.77c.27-.7.7-.7,1,0l1.43,3.77a1.94,1.94,0,0,0,.46.68L39.31,2.3H3.85A3.66,3.66,0,0,0,1.13,3.37C-.09,4.62,0,6.4,0,7.7c0,.19,0,.38,0,.55,0,5.37,3.26,14.9,14.84,17.28a21,21,0,0,0,5.77,5L25,23.91C24.71,23.94,24.57,23.67,24.7,23.15ZM3.85,8.24c0-.21,0-.44,0-.67a8.11,8.11,0,0,1,0-1.45h6c0,.38,0,.8,0,1.25a34.78,34.78,0,0,0,2.22,13.29C4,17.08,3.85,8.69,3.85,8.24Z"/></svg>