<svg id="レイヤー_1" data-name="レイヤー 1" xmlns="http://www.w3.org/2000/svg" viewBox="0 0 550 280"><defs><style>.cls-1{fill:#b53338;}.cls-2{fill:#7c1a1d;}.cls-3{fill:#066b74;}.cls-4{fill:#fdf9dc;}.cls-5{fill:none;stroke:#066b74;stroke-linecap:round;stroke-linejoin:round;stroke-width:11px;}.cls-6{fill:#fff;}.cls-7{fill:#ffda37;}.cls-8{fill:#d83638;}.cls-9{fill:#a52e2c;}.cls-10{fill:#f1e08d;}.cls-11{fill:#c6b405;}</style></defs><title>title-rank</title><polygon class="cls-1" points="478.37 189.63 464.55 263.35 534.32 275.34 522.43 235.65 548.14 201.62 478.37 189.63"/><polygon class="cls-2" points="495.26 254.09 464.68 263.51 474.48 196.02 495.26 254.09"/><polygon class="cls-1" points="71.63 189.28 85.45 262.99 15.68 274.98 27.57 235.29 1.85 201.27 71.63 189.28"/><polygon class="cls-2" points="54.82 253.67 85.41 263.09 75.61 195.61 54.82 253.67"/><ellipse class="cls-3" cx="275.55" cy="140" rx="250" ry="136"/><path class="cls-4" d="M275.55,268.48c-62.43,0-121.16-13.24-165.36-37.29C65.6,206.94,41,174.55,41,140S65.6,73.06,110.19,48.81c44.2-24,102.93-37.29,165.36-37.29S396.7,24.76,440.91,48.81C485.49,73.06,510,105.45,510,140s-24.56,66.94-69.14,91.19C396.7,255.24,338,268.48,275.55,268.48Zm0-253C148.45,15.52,45,71.36,45,140s103.4,124.48,230.5,124.48S506,208.64,506,140,402.65,15.52,275.55,15.52Z"/><path class="cls-5" d="M55.55,130.7q.56,3.07-2.37,3.6t-3.5-2.52l-3.77-20.23a10.46,10.46,0,0,1-.44,3.68,1.68,1.68,0,0,1-1.65,1.1,2.91,2.91,0,0,1-2.14-1.49,4.54,4.54,0,0,1-.57-1.66,3,3,0,0,1,.27-1.58,41,41,0,0,0,2.32-9,63.27,63.27,0,0,0,.84-10.07c0-1.83,1.1-2.83,3.29-3s3.36.92,3.23,3q-.09,2-.37,4.15t-.59,3.95Zm9.83-32.12-.48-2.84q-4.68.79-9.36,1.62c-2.18.38-3.43-.34-3.76-2.19s.59-3,2.78-3.36Q59.26,91,64,90.19l-.21-1.24q-.47-2.78,2.64-3.3T70,87.91l.2,1.24q5.48-.9,11-1.75c2.23-.34,3.49.42,3.77,2.28s-.69,3-2.91,3.3q-5.46.84-10.92,1.74l.47,2.84,8.19-1.31q4.56-.71,5.22,3.62L86,106.82c.44,2.89-.84,4.56-3.84,5q-4.16.65-8.33,1.33a19.39,19.39,0,0,1-.12,4.58,11.48,11.48,0,0,1-1.2,4,15.34,15.34,0,0,0,5.43,1,49.59,49.59,0,0,0,9.27-.73c2.17-.34,3.35.4,3.54,2.19q.33,3-2.9,3.54a46,46,0,0,1-11.2.72,31.69,31.69,0,0,1-7.52-1.82,24.28,24.28,0,0,1-3.62,3.24,37.27,37.27,0,0,1-4.19,2.68c-1.94.91-3.4.63-4.41-.86a5.4,5.4,0,0,1-.44-1.38,2.38,2.38,0,0,1,1.73-2.81c1.22-.58,2.3-1.15,3.23-1.7a15.16,15.16,0,0,0,2.43-1.73,35.5,35.5,0,0,1-4.35-2.47q-2.68-1.78-.79-4.13a3.4,3.4,0,0,1,2.33-1.32,3,3,0,0,1,2.33.81,19.34,19.34,0,0,0,3.85,2.45,7.69,7.69,0,0,0,.58-2.44,16.45,16.45,0,0,0,.08-2.84l-8,1.37c-3,.53-4.74-.64-5.26-3.51l-1.24-6.91c-.52-2.87.74-4.59,3.77-5.12ZM60.22,110l6.89-1.18-.83-4.91-6.92,1.19Zm13-2.2,6.9-1.11-.78-4.92-6.93,1.11Z"/><path class="cls-5" d="M123.4,89.71c2.95-.52,4.58.56,4.89,3.23a3.29,3.29,0,0,1-.91,2.64A20.79,20.79,0,0,1,124.75,98l-4.34,3.46q-2.77,2.22-4.16,3.49a3,3,0,0,1,2.69,1.65,17.42,17.42,0,0,1,1.73,4.14,18.89,18.89,0,0,0,1.14,3.24,1.43,1.43,0,0,0,1.59.65,20.53,20.53,0,0,0,3.77-.85q2-.63,4.42-1.64,3.51-1.55,4.79,1.57t-2.07,4.46q-2.17.85-4.95,1.66a33.12,33.12,0,0,1-5.25,1.12q-4.46.55-6.39-.86a6.49,6.49,0,0,1-2.48-3.07q-.55-1.65-1-3a21.78,21.78,0,0,0-.74-2.11,3.32,3.32,0,0,0-.73-1.11,1.2,1.2,0,0,0-1-.32,4.65,4.65,0,0,0-2.15,1,20.3,20.3,0,0,0-2.55,2.43q-1.37,1.52-3.81,4.56T100,122.57q-2.33,2.64-5,.79c-2.06-1.43-2.23-3.11-.5-5A163.8,163.8,0,0,1,107,105.08a55.94,55.94,0,0,1,10.89-8.47q-3.75,1-8.56,2.17c-3.21.77-7,1.64-11.3,2.62q-3.64.77-4.32-2.59-.65-3.18,3-3.83,7.82-1.6,14.19-2.85T123.4,89.71Zm-2.33-8.3Q124.62,81,125,84c.24,2-.82,3.18-3.17,3.46q-11.31,1.38-22.59,3-3.52.5-4-2.53t3.11-3.53Q109.71,82.79,121.07,81.41Z"/><path class="cls-5" d="M145.62,82.16q-.31,4.31-.25,9.1t.71,11.06a66.74,66.74,0,0,0,1,7,34.25,34.25,0,0,0,1.43,4.92q1.37,3.24-2.1,4.56-3.18,1.06-4.45-2.18a45.31,45.31,0,0,1-1.63-5.74,68.31,68.31,0,0,1-1.23-7.59q-.63-5.73-.82-11.2T138.37,82q.1-3.69,3.91-3.55T145.62,82.16Zm19.5,8.58q-6.67.58-13.33,1.23-3.58.35-3.89-2.75c-.21-2.07.88-3.23,3.28-3.46q6.7-.66,13.4-1.24l-.46-5.26q-.3-3.41,3.2-3.71t3.78,3.12l.43,5.26,5.34-.42q3.54-.27,3.77,2.84c.15,2.08-.94,3.2-3.29,3.38l-5.31.42.94,11.48a47.66,47.66,0,0,1,4.31,2.81,30.58,30.58,0,0,1,3.91,3.4c1.72,1.76,1.75,3.36.12,4.8-1.91,1.59-3.51,1.57-4.82,0q-1.21-1.47-2-2.37a13.08,13.08,0,0,0-1.72-1.6,7.24,7.24,0,0,1-3,5.55,13.23,13.23,0,0,1-6.77,2.4q-5.5.5-9-1.62a8,8,0,0,1-4-6.42,7.66,7.66,0,0,1,2.14-6.3,10.89,10.89,0,0,1,7.18-3.1A29.66,29.66,0,0,1,162.6,99a18,18,0,0,1,3.28.37Zm-5.39,14.34a4.18,4.18,0,0,0-2.53.93,2.33,2.33,0,0,0-.7,2,2.58,2.58,0,0,0,1.55,2.14,8.66,8.66,0,0,0,4.45.43,4.7,4.7,0,0,0,3-1.29,4.24,4.24,0,0,0,.92-3.51,11,11,0,0,0-3.11-.72A19.25,19.25,0,0,0,159.73,105.08Zm11.91-26.81a2.61,2.61,0,0,1-.26-.94,2,2,0,0,1,1.41-2,4.3,4.3,0,0,1,1.3-.28,2.09,2.09,0,0,1,2,1.17q.51.92,1,1.79l1,1.91a2.46,2.46,0,0,1,.17,1.43,1.93,1.93,0,0,1-1.39,1.37,3.29,3.29,0,0,1-2,.24,2,2,0,0,1-1.36-1.37q-.31-.7-.74-1.48Zm4.62-3.5q-1.21-1.83,1.16-3a3.37,3.37,0,0,1,1.11-.32,2,2,0,0,1,2.1,1.11q.57.92,1.07,1.79t.95,1.8a3.1,3.1,0,0,1,.21,1.19,1.4,1.4,0,0,1-.3,1,2.62,2.62,0,0,1-.89.73c-1.62.68-2.72.4-3.32-.84l-1.15-2Q176.75,75.52,176.26,74.78Z"/><path class="cls-5" d="M194.71,113.65q.2,3.11-2.76,3.31t-3.18-2.91l-1.42-20.53a10.5,10.5,0,0,1-.86,3.61,1.68,1.68,0,0,1-1.76.91,2.89,2.89,0,0,1-1.94-1.72,4.53,4.53,0,0,1-.37-1.72,3,3,0,0,1,.44-1.54,41,41,0,0,0,3.32-8.69,63.12,63.12,0,0,0,2-9.91c.21-1.82,1.41-2.68,3.6-2.58s3.23,1.3,2.85,3.37q-.32,1.94-.84,4.08t-1,3.85Zm13.41-30.77L208,80q-4.73.25-9.46.53c-2.2.13-3.35-.74-3.47-2.61s.93-2.89,3.14-3q4.75-.28,9.5-.53l-.07-1.26c-.1-1.88.9-2.87,3-3s3.18.79,3.27,2.67l.06,1.26q5.53-.26,11.07-.47c2.25-.09,3.41.82,3.48,2.69s-1,2.85-3.26,2.94q-5.51.21-11,.47l.14,2.88,8.26-.36q4.6-.18,4.76,4.2l.26,7c.11,2.92-1.35,4.43-4.38,4.55l-8.4.37a19.32,19.32,0,0,1-.64,4.54,11.46,11.46,0,0,1-1.65,3.86,15.28,15.28,0,0,0,5.26,1.61,49.33,49.33,0,0,0,9.27.34q3.28-.12,3.26,2.58c0,2-1.1,3.1-3.28,3.18a45.43,45.43,0,0,1-11.18-.58,31.56,31.56,0,0,1-7.24-2.67,24.1,24.1,0,0,1-4,2.8,36.77,36.77,0,0,1-4.46,2.18c-2,.68-3.44.23-4.27-1.36a5.37,5.37,0,0,1-.27-1.43,2.38,2.38,0,0,1,2-2.59c1.27-.44,2.41-.88,3.4-1.32a15.35,15.35,0,0,0,2.6-1.44,35.27,35.27,0,0,1-4-3c-1.63-1.38-1.74-2.78-.31-4.19a3.38,3.38,0,0,1,2.46-1A3,3,0,0,1,204,101a19.24,19.24,0,0,0,3.53,2.87,7.69,7.69,0,0,0,.86-2.36,16.37,16.37,0,0,0,.41-2.82l-8,.45q-4.53.27-4.81-4.1l-.44-7c-.18-2.91,1.26-4.47,4.32-4.65ZM201.7,93.63l7-.38-.26-5-7,.38Zm13.11-.69,7-.31-.21-5-7,.31Z"/><path class="cls-5" d="M272.76,95a14.67,14.67,0,0,1-7,12.89c-4.63,3.09-12.35,4.68-23.21,4.95q-3.57.09-3.67-3.5c-.06-2,1.11-3,3.51-3.09,8.57-.21,14.55-1.16,18-3A8.77,8.77,0,0,0,265.51,95q0-3.54-2.19-5c-1.45-1-3.88-1.47-7.3-1.42a63.11,63.11,0,0,0-9.25.85q-4.86.79-9.58,2-3.8.89-4.64-2.32c-.57-2.26.37-3.66,2.84-4.17q4.62-1,10.19-1.83a89.64,89.64,0,0,1,11.35-.86c5-.06,8.91,1,11.69,3.26S272.76,90.84,272.76,95Zm-9-22.95c2.38,0,3.57,1,3.58,3.16s-1.17,3.12-3.54,3.14q-11.68.09-23.36.39c-2.41.06-3.64-.94-3.7-3s1.12-3.21,3.54-3.28Q252,72.14,263.74,72.05Z"/><path class="cls-5" d="M287.1,75.34q-.86,4.55-1.35,9.35t-.54,11.15a66.65,66.65,0,0,0,.23,7.08,34.31,34.31,0,0,0,.86,5c.66,2.25-.21,3.68-2.59,4.29q-3.28.69-4.17-2.67a45.45,45.45,0,0,1-1-5.88A68.37,68.37,0,0,1,278.2,96q0-5.76.48-11.28t1.24-10.43c.35-2.44,1.77-3.47,4.28-3.09S287.62,73,287.1,75.34Zm19.84,14.49q-6.94-.19-13.89-.3c-2.39,0-3.57-1-3.54-3s1.24-3,3.64-3q7,.11,14,.3l.12-4.44q-7-.19-14-.31Q289.61,79,289.65,76t3.67-2.95q11.89.19,23.77.61,3.63.13,3.51,3.13c-.08,2-1.32,2.95-3.72,2.87l-2.8-.1L313.93,84l3.72.13c2.36.08,3.5,1.15,3.42,3.19s-1.29,2.89-3.63,2.81l-3.7-.13-.31,9.36a41,41,0,0,1,3.24,2.84,32.17,32.17,0,0,1,2.79,3.07c1.48,1.86,1.33,3.45-.43,4.79q-3.06,2-4.66-.59c-.5-.82-.9-1.47-1.21-2s-.6-.92-.87-1.29a7.08,7.08,0,0,1-3.87,4.32,17.39,17.39,0,0,1-8,1.35c-3.68-.08-6.6-1-8.78-2.63a8,8,0,0,1-3.23-6.83,7.51,7.51,0,0,1,2.84-5.93,11,11,0,0,1,7.48-2.24,21,21,0,0,1,8.08,1.58Zm-8.43,10.42a3.91,3.91,0,0,0-2.52.64,2.36,2.36,0,0,0-.89,1.93,2.5,2.5,0,0,0,1.27,2.18,8.29,8.29,0,0,0,4.28.93,7.76,7.76,0,0,0,4.23-.8,3.39,3.39,0,0,0,1.54-2.72,11.8,11.8,0,0,0-3.39-1.5A17.36,17.36,0,0,0,298.51,100.24Z"/><path class="cls-5" d="M332.07,76.83c-.1-2.29,1.1-3.49,3.62-3.61s4,1,4,3.21q0,2.7.25,5.75t.66,5.05a51.94,51.94,0,0,1,7.52-2.78q5.3-1.63,10.11-2.62,3.93-.81,4.75,2.5c.57,2.41-.4,3.8-2.91,4.18a99,99,0,0,0-11,2.55,54.94,54.94,0,0,0-8.51,3.29,26.48,26.48,0,0,0-6.09,4A6.34,6.34,0,0,0,332,102.6a3.41,3.41,0,0,0,2.1,3.32q2.2,1.16,7.13,1.43t9.58.12q4.6-.16,8-.52,3.65-.52,4.16,2.53.64,3.78-3.17,4.22-4.17.36-9.12.41t-10.16-.25c-5.2-.29-9.15-1.41-11.86-3.39a9,9,0,0,1-3.86-8.07,10.87,10.87,0,0,1,2.81-6.87,22.91,22.91,0,0,1,6.28-5,66.28,66.28,0,0,1-1.28-6.94A58.77,58.77,0,0,1,332.07,76.83ZM352,75q-1-2.59,2.09-3.29a4.39,4.39,0,0,1,2,0q1.05.25,1.69,2c.25.66.48,1.35.71,2.06s.43,1.48.63,2.3a3.08,3.08,0,0,1-.12,1.74c-.25.63-1,1.06-2.21,1.29q-3,.58-3.55-2.1-.3-1.16-.61-2.14T352,75Zm8.32-.53q-1-2.54,2.11-3.22a4.41,4.41,0,0,1,2,0q1.05.26,1.68,2,.37,1,.69,2.07t.61,2.3a3.08,3.08,0,0,1-.13,1.73q-.38.93-2.22,1.28a3.49,3.49,0,0,1-2.48-.33,2.63,2.63,0,0,1-1.06-1.79q-.29-1.16-.6-2.15T360.28,74.51Z"/><path class="cls-5" d="M386.89,82.76q-5.06-.46-10.11-.88c-3.1-.26-4.55-1.72-4.34-4.4s1.88-3.9,5-3.64q5.09.42,10.18.89l.23-2.47c.24-2.67,1.88-3.88,4.91-3.59s4.41,1.78,4.15,4.45l-.24,2.47q6.3.62,12.59,1.31a5.11,5.11,0,0,1,3.27,1.45,3.64,3.64,0,0,1,1,3.07c-.3,2.67-2,3.83-5.1,3.49q-6.25-.68-12.51-1.3l-.65,6.63a14.3,14.3,0,0,1,2.91-.14c1.5,0,3,.11,4.41.26,6.92.72,12,2.91,15.23,6.49a15.66,15.66,0,0,1,3.89,13c-.62,5.08-2.81,8.88-6.53,11.43s-8.62,3.48-14.72,2.84q-4.42-.47-4.24-4.57c.08-2.85,1.63-4.12,4.65-3.8,3.75.39,6.56,0,8.42-1.07s3-3.24,3.34-6.37a7.46,7.46,0,0,0-2.12-6.64c-1.74-1.65-4.83-2.72-9.27-3.19a34.54,34.54,0,0,0-3.59-.17,17,17,0,0,0-3.23.26l-1.76,17.82q-.4,4-3,5.12a16,16,0,0,1-7.43.67c-4.61-.42-8.21-1.91-10.83-4.51a11.4,11.4,0,0,1-3.51-9.37,15,15,0,0,1,6.33-11,30.2,30.2,0,0,1,11.92-5.77ZM376.5,108.85a4.26,4.26,0,0,0,1.19,3.64,7.21,7.21,0,0,0,4.44,1.6,2.86,2.86,0,0,0,1.51-.14,1.1,1.1,0,0,0,.48-.93l1.19-13a17,17,0,0,0-5.46,3.21A8.07,8.07,0,0,0,376.5,108.85Zm38.27-29.46c-2-2.67-1.71-4.72,1-6.12s4.94-.81,6.45,1.61a41.64,41.64,0,0,1,3.37,5.95,48.77,48.77,0,0,1,2.48,6.32c.68,2.79-.53,4.46-3.62,5-2.7.5-4.45-.64-5.25-3.44a52.21,52.21,0,0,0-2-4.84Q416.07,81.57,414.77,79.39Z"/><path class="cls-5" d="M448.84,94a27.73,27.73,0,0,1-4.32,5.07l-3.85,27.56q-.54,3.86-4.2,3.36t-3.15-4.36l2.57-19.25a11.24,11.24,0,0,1-3,3.16,2.43,2.43,0,0,1-3-.58,4.69,4.69,0,0,1-1.08-4,2.49,2.49,0,0,1,.58-1.78,8.1,8.1,0,0,1,1.85-1.39,62.59,62.59,0,0,0,5.86-5.4,39.39,39.39,0,0,0,5-6.17,4.48,4.48,0,0,1,2.5-2.12,3.93,3.93,0,0,1,2.94.45,4.54,4.54,0,0,1,2,2.56A3.76,3.76,0,0,1,448.84,94Zm.5-13q-2.28,2.63-5.2,5.45a51.52,51.52,0,0,1-5.87,4.92c-2.43,1.74-4.33,1.47-5.71-.82s-.91-4.2,1.25-5.43a45.92,45.92,0,0,0,4.74-3.88A55.42,55.42,0,0,0,443,76.52q2.48-3,5.71-1a3.58,3.58,0,0,1,1.55,2.57A4.16,4.16,0,0,1,449.34,81Zm5.07,36.28,1.36.74a18.31,18.31,0,0,1,1.92,1.58,19.43,19.43,0,0,1,1.86,2c1.74,1.74,1.48,3.34-.74,4.82a4.09,4.09,0,0,1-5.9-.59,19.45,19.45,0,0,0-1.5-1.55c-.61-.57-1.23-1.1-1.88-1.6-2.06-1.66-2-3.29.33-4.88a4.88,4.88,0,0,1,2.43-.78l-4.24-.62q-3.86-.55-3.37-4c.31-2.23,1.77-3.16,4.35-2.79q10.88,1.57,21.75,3.34l.39-2.37q-10.54-1.72-21.1-3.25-4.12-.59-3.65-3.93.49-3.49,4.64-2.9,15.87,2.3,31.7,5c2.75.47,3.93,1.87,3.52,4.19s-1.95,3.08-4.69,2.61l-2.66-.45-.4,2.37,3.72.64c2.63.45,3.75,1.82,3.35,4.08s-1.91,3.17-4.52,2.71l-3.7-.63-1.55,9.17a5.29,5.29,0,0,1-2.53,4.06,8.07,8.07,0,0,1-5.23.58q-1.79-.29-3.11-.62l-3-.75q-3.95-1.16-2.74-4.53a3.78,3.78,0,0,1,1.85-2.52,3.64,3.64,0,0,1,3,.17l2,.66a9,9,0,0,0,1.3.32q1.05.17,1.17-.57l1.18-7.26Q462,118.45,454.4,117.31Zm31.13-18.83c-.6,3.45-2.73,4.85-6.41,4.23q-11.87-2-23.78-3.76c-3.69-.55-5.28-2.54-4.78-6l1.63-11.36c.51-3.56,2.64-5.08,6.4-4.52q12.11,1.8,24.2,3.83c3.74.63,5.31,2.73,4.69,6.28Zm-26.29-13q10.17,1.52,20.32,3.22l.32-1.92q-10.17-1.69-20.35-3.22Zm-1.17,7.79q10.11,1.51,20.19,3.2l.33-2q-10.1-1.68-20.22-3.2Z"/><path class="cls-5" d="M495.51,125.81a6.86,6.86,0,0,1,4.36,2.63,5.69,5.69,0,0,1,1.13,4.71,5.77,5.77,0,0,1-2.76,3.93,7.11,7.11,0,0,1-9.34-1.73,5.82,5.82,0,0,1-1.13-4.65,5.74,5.74,0,0,1,2.7-4A6.82,6.82,0,0,1,495.51,125.81Zm7.16-38.7c2.7.5,4.27,1.5,4.71,3a14.87,14.87,0,0,1-.16,6.59q-3.09,12-6.15,23.92-1,4.23-5.24,3.43T492.16,119q1.43-12.27,2.82-24.54a15.44,15.44,0,0,1,2.16-6.22Q498.52,86.36,502.67,87.12Z"/><path class="cls-6" d="M55.55,130.7q.56,3.07-2.37,3.6t-3.5-2.52l-3.77-20.23a10.46,10.46,0,0,1-.44,3.68,1.68,1.68,0,0,1-1.65,1.1,2.91,2.91,0,0,1-2.14-1.49,4.54,4.54,0,0,1-.57-1.66,3,3,0,0,1,.27-1.58,41,41,0,0,0,2.32-9,63.27,63.27,0,0,0,.84-10.07c0-1.83,1.1-2.83,3.29-3s3.36.92,3.23,3q-.09,2-.37,4.15t-.59,3.95Zm9.83-32.12-.48-2.84q-4.68.79-9.36,1.62c-2.18.38-3.43-.34-3.76-2.19s.59-3,2.78-3.36Q59.26,91,64,90.19l-.21-1.24q-.47-2.78,2.64-3.3T70,87.91l.2,1.24q5.48-.9,11-1.75c2.23-.34,3.49.42,3.77,2.28s-.69,3-2.91,3.3q-5.46.84-10.92,1.74l.47,2.84,8.19-1.31q4.56-.71,5.22,3.62L86,106.82c.44,2.89-.84,4.56-3.84,5q-4.16.65-8.33,1.33a19.39,19.39,0,0,1-.12,4.58,11.48,11.48,0,0,1-1.2,4,15.34,15.34,0,0,0,5.43,1,49.59,49.59,0,0,0,9.27-.73c2.17-.34,3.35.4,3.54,2.19q.33,3-2.9,3.54a46,46,0,0,1-11.2.72,31.69,31.69,0,0,1-7.52-1.82,24.28,24.28,0,0,1-3.62,3.24,37.27,37.27,0,0,1-4.19,2.68c-1.94.91-3.4.63-4.41-.86a5.4,5.4,0,0,1-.44-1.38,2.38,2.38,0,0,1,1.73-2.81c1.22-.58,2.3-1.15,3.23-1.7a15.16,15.16,0,0,0,2.43-1.73,35.5,35.5,0,0,1-4.35-2.47q-2.68-1.78-.79-4.13a3.4,3.4,0,0,1,2.33-1.32,3,3,0,0,1,2.33.81,19.34,19.34,0,0,0,3.85,2.45,7.69,7.69,0,0,0,.58-2.44,16.45,16.45,0,0,0,.08-2.84l-8,1.37c-3,.53-4.74-.64-5.26-3.51l-1.24-6.91c-.52-2.87.74-4.59,3.77-5.12ZM60.22,110l6.89-1.18-.83-4.91-6.92,1.19Zm13-2.2,6.9-1.11-.78-4.92-6.93,1.11Z"/><path class="cls-6" d="M123.4,89.71c2.95-.52,4.58.56,4.89,3.23a3.29,3.29,0,0,1-.91,2.64A20.79,20.79,0,0,1,124.75,98l-4.34,3.46q-2.77,2.22-4.16,3.49a3,3,0,0,1,2.69,1.65,17.42,17.42,0,0,1,1.73,4.14,18.89,18.89,0,0,0,1.14,3.24,1.43,1.43,0,0,0,1.59.65,20.53,20.53,0,0,0,3.77-.85q2-.63,4.42-1.64,3.51-1.55,4.79,1.57t-2.07,4.46q-2.17.85-4.95,1.66a33.12,33.12,0,0,1-5.25,1.12q-4.46.55-6.39-.86a6.49,6.49,0,0,1-2.48-3.07q-.55-1.65-1-3a21.78,21.78,0,0,0-.74-2.11,3.32,3.32,0,0,0-.73-1.11,1.2,1.2,0,0,0-1-.32,4.65,4.65,0,0,0-2.15,1,20.3,20.3,0,0,0-2.55,2.43q-1.37,1.52-3.81,4.56T100,122.57q-2.33,2.64-5,.79c-2.06-1.43-2.23-3.11-.5-5A163.8,163.8,0,0,1,107,105.08a55.94,55.94,0,0,1,10.89-8.47q-3.75,1-8.56,2.17c-3.21.77-7,1.64-11.3,2.62q-3.64.77-4.32-2.59-.65-3.18,3-3.83,7.82-1.6,14.19-2.85T123.4,89.71Zm-2.33-8.3Q124.62,81,125,84c.24,2-.82,3.18-3.17,3.46q-11.31,1.38-22.59,3-3.52.5-4-2.53t3.11-3.53Q109.71,82.79,121.07,81.41Z"/><path class="cls-6" d="M145.62,82.16q-.31,4.31-.25,9.1t.71,11.06a66.74,66.74,0,0,0,1,7,34.25,34.25,0,0,0,1.43,4.92q1.37,3.24-2.1,4.56-3.18,1.06-4.45-2.18a45.31,45.31,0,0,1-1.63-5.74,68.31,68.31,0,0,1-1.23-7.59q-.63-5.73-.82-11.2T138.37,82q.1-3.69,3.91-3.55T145.62,82.16Zm19.5,8.58q-6.67.58-13.33,1.23-3.58.35-3.89-2.75c-.21-2.07.88-3.23,3.28-3.46q6.7-.66,13.4-1.24l-.46-5.26q-.3-3.41,3.2-3.71t3.78,3.12l.43,5.26,5.34-.42q3.54-.27,3.77,2.84c.15,2.08-.94,3.2-3.29,3.38l-5.31.42.94,11.48a47.66,47.66,0,0,1,4.31,2.81,30.58,30.58,0,0,1,3.91,3.4c1.72,1.76,1.75,3.36.12,4.8-1.91,1.59-3.51,1.57-4.82,0q-1.21-1.47-2-2.37a13.08,13.08,0,0,0-1.72-1.6,7.24,7.24,0,0,1-3,5.55,13.23,13.23,0,0,1-6.77,2.4q-5.5.5-9-1.62a8,8,0,0,1-4-6.42,7.66,7.66,0,0,1,2.14-6.3,10.89,10.89,0,0,1,7.18-3.1A29.66,29.66,0,0,1,162.6,99a18,18,0,0,1,3.28.37Zm-5.39,14.34a4.18,4.18,0,0,0-2.53.93,2.33,2.33,0,0,0-.7,2,2.58,2.58,0,0,0,1.55,2.14,8.66,8.66,0,0,0,4.45.43,4.7,4.7,0,0,0,3-1.29,4.24,4.24,0,0,0,.92-3.51,11,11,0,0,0-3.11-.72A19.25,19.25,0,0,0,159.73,105.08Zm11.91-26.81a2.61,2.61,0,0,1-.26-.94,2,2,0,0,1,1.41-2,4.3,4.3,0,0,1,1.3-.28,2.09,2.09,0,0,1,2,1.17q.51.92,1,1.79l1,1.91a2.46,2.46,0,0,1,.17,1.43,1.93,1.93,0,0,1-1.39,1.37,3.29,3.29,0,0,1-2,.24,2,2,0,0,1-1.36-1.37q-.31-.7-.74-1.48Zm4.62-3.5q-1.21-1.83,1.16-3a3.37,3.37,0,0,1,1.11-.32,2,2,0,0,1,2.1,1.11q.57.92,1.07,1.79t.95,1.8a3.1,3.1,0,0,1,.21,1.19,1.4,1.4,0,0,1-.3,1,2.62,2.62,0,0,1-.89.73c-1.62.68-2.72.4-3.32-.84l-1.15-2Q176.75,75.52,176.26,74.78Z"/><path class="cls-6" d="M194.71,113.65q.2,3.11-2.76,3.31t-3.18-2.91l-1.42-20.53a10.5,10.5,0,0,1-.86,3.61,1.68,1.68,0,0,1-1.76.91,2.89,2.89,0,0,1-1.94-1.72,4.53,4.53,0,0,1-.37-1.72,3,3,0,0,1,.44-1.54,41,41,0,0,0,3.32-8.69,63.12,63.12,0,0,0,2-9.91c.21-1.82,1.41-2.68,3.6-2.58s3.23,1.3,2.85,3.37q-.32,1.94-.84,4.08t-1,3.85Zm13.41-30.77L208,80q-4.73.25-9.46.53c-2.2.13-3.35-.74-3.47-2.61s.93-2.89,3.14-3q4.75-.28,9.5-.53l-.07-1.26c-.1-1.88.9-2.87,3-3s3.18.79,3.27,2.67l.06,1.26q5.53-.26,11.07-.47c2.25-.09,3.41.82,3.48,2.69s-1,2.85-3.26,2.94q-5.51.21-11,.47l.14,2.88,8.26-.36q4.6-.18,4.76,4.2l.26,7c.11,2.92-1.35,4.43-4.38,4.55l-8.4.37a19.32,19.32,0,0,1-.64,4.54,11.46,11.46,0,0,1-1.65,3.86,15.28,15.28,0,0,0,5.26,1.61,49.33,49.33,0,0,0,9.27.34q3.28-.12,3.26,2.58c0,2-1.1,3.1-3.28,3.18a45.43,45.43,0,0,1-11.18-.58,31.56,31.56,0,0,1-7.24-2.67,24.1,24.1,0,0,1-4,2.8,36.77,36.77,0,0,1-4.46,2.18c-2,.68-3.44.23-4.27-1.36a5.37,5.37,0,0,1-.27-1.43,2.38,2.38,0,0,1,2-2.59c1.27-.44,2.41-.88,3.4-1.32a15.35,15.35,0,0,0,2.6-1.44,35.27,35.27,0,0,1-4-3c-1.63-1.38-1.74-2.78-.31-4.19a3.38,3.38,0,0,1,2.46-1A3,3,0,0,1,204,101a19.24,19.24,0,0,0,3.53,2.87,7.69,7.69,0,0,0,.86-2.36,16.37,16.37,0,0,0,.41-2.82l-8,.45q-4.53.27-4.81-4.1l-.44-7c-.18-2.91,1.26-4.47,4.32-4.65ZM201.7,93.63l7-.38-.26-5-7,.38Zm13.11-.69,7-.31-.21-5-7,.31Z"/><path class="cls-6" d="M272.76,95a14.67,14.67,0,0,1-7,12.89c-4.63,3.09-12.35,4.68-23.21,4.95q-3.57.09-3.67-3.5c-.06-2,1.11-3,3.51-3.09,8.57-.21,14.55-1.16,18-3A8.77,8.77,0,0,0,265.51,95q0-3.54-2.19-5c-1.45-1-3.88-1.47-7.3-1.42a63.11,63.11,0,0,0-9.25.85q-4.86.79-9.58,2-3.8.89-4.64-2.32c-.57-2.26.37-3.66,2.84-4.17q4.62-1,10.19-1.83a89.64,89.64,0,0,1,11.35-.86c5-.06,8.91,1,11.69,3.26S272.76,90.84,272.76,95Zm-9-22.95c2.38,0,3.57,1,3.58,3.16s-1.17,3.12-3.54,3.14q-11.68.09-23.36.39c-2.41.06-3.64-.94-3.7-3s1.12-3.21,3.54-3.28Q252,72.14,263.74,72.05Z"/><path class="cls-6" d="M287.1,75.34q-.86,4.55-1.35,9.35t-.54,11.15a66.65,66.65,0,0,0,.23,7.08,34.31,34.31,0,0,0,.86,5c.66,2.25-.21,3.68-2.59,4.29q-3.28.69-4.17-2.67a45.45,45.45,0,0,1-1-5.88A68.37,68.37,0,0,1,278.2,96q0-5.76.48-11.28t1.24-10.43c.35-2.44,1.77-3.47,4.28-3.09S287.62,73,287.1,75.34Zm19.84,14.49q-6.94-.19-13.89-.3c-2.39,0-3.57-1-3.54-3s1.24-3,3.64-3q7,.11,14,.3l.12-4.44q-7-.19-14-.31Q289.61,79,289.65,76t3.67-2.95q11.89.19,23.77.61,3.63.13,3.51,3.13c-.08,2-1.32,2.95-3.72,2.87l-2.8-.1L313.93,84l3.72.13c2.36.08,3.5,1.15,3.42,3.19s-1.29,2.89-3.63,2.81l-3.7-.13-.31,9.36a41,41,0,0,1,3.24,2.84,32.17,32.17,0,0,1,2.79,3.07c1.48,1.86,1.33,3.45-.43,4.79q-3.06,2-4.66-.59c-.5-.82-.9-1.47-1.21-2s-.6-.92-.87-1.29a7.08,7.08,0,0,1-3.87,4.32,17.39,17.39,0,0,1-8,1.35c-3.68-.08-6.6-1-8.78-2.63a8,8,0,0,1-3.23-6.83,7.51,7.51,0,0,1,2.84-5.93,11,11,0,0,1,7.48-2.24,21,21,0,0,1,8.08,1.58Zm-8.43,10.42a3.91,3.91,0,0,0-2.52.64,2.36,2.36,0,0,0-.89,1.93,2.5,2.5,0,0,0,1.27,2.18,8.29,8.29,0,0,0,4.28.93,7.76,7.76,0,0,0,4.23-.8,3.39,3.39,0,0,0,1.54-2.72,11.8,11.8,0,0,0-3.39-1.5A17.36,17.36,0,0,0,298.51,100.24Z"/><path class="cls-6" d="M332.07,76.83c-.1-2.29,1.1-3.49,3.62-3.61s4,1,4,3.21q0,2.7.25,5.75t.66,5.05a51.94,51.94,0,0,1,7.52-2.78q5.3-1.63,10.11-2.62,3.93-.81,4.75,2.5c.57,2.41-.4,3.8-2.91,4.18a99,99,0,0,0-11,2.55,54.94,54.94,0,0,0-8.51,3.29,26.48,26.48,0,0,0-6.09,4A6.34,6.34,0,0,0,332,102.6a3.41,3.41,0,0,0,2.1,3.32q2.2,1.16,7.13,1.43t9.58.12q4.6-.16,8-.52,3.65-.52,4.16,2.53.64,3.78-3.17,4.22-4.17.36-9.12.41t-10.16-.25c-5.2-.29-9.15-1.41-11.86-3.39a9,9,0,0,1-3.86-8.07,10.87,10.87,0,0,1,2.81-6.87,22.91,22.91,0,0,1,6.28-5,66.28,66.28,0,0,1-1.28-6.94A58.77,58.77,0,0,1,332.07,76.83ZM352,75q-1-2.59,2.09-3.29a4.39,4.39,0,0,1,2,0q1.05.25,1.69,2c.25.66.48,1.35.71,2.06s.43,1.48.63,2.3a3.08,3.08,0,0,1-.12,1.74c-.25.63-1,1.06-2.21,1.29q-3,.58-3.55-2.1-.3-1.16-.61-2.14T352,75Zm8.32-.53q-1-2.54,2.11-3.22a4.41,4.41,0,0,1,2,0q1.05.26,1.68,2,.37,1,.69,2.07t.61,2.3a3.08,3.08,0,0,1-.13,1.73q-.38.93-2.22,1.28a3.49,3.49,0,0,1-2.48-.33,2.63,2.63,0,0,1-1.06-1.79q-.29-1.16-.6-2.15T360.28,74.51Z"/><path class="cls-7" d="M386.89,82.76q-5.06-.46-10.11-.88c-3.1-.26-4.55-1.72-4.34-4.4s1.88-3.9,5-3.64q5.09.42,10.18.89l.23-2.47c.24-2.67,1.88-3.88,4.91-3.59s4.41,1.78,4.15,4.45l-.24,2.47q6.3.62,12.59,1.31a5.11,5.11,0,0,1,3.27,1.45,3.64,3.64,0,0,1,1,3.07c-.3,2.67-2,3.83-5.1,3.49q-6.25-.68-12.51-1.3l-.65,6.63a14.3,14.3,0,0,1,2.91-.14c1.5,0,3,.11,4.41.26,6.92.72,12,2.91,15.23,6.49a15.66,15.66,0,0,1,3.89,13c-.62,5.08-2.81,8.88-6.53,11.43s-8.62,3.48-14.72,2.84q-4.42-.47-4.24-4.57c.08-2.85,1.63-4.12,4.65-3.8,3.75.39,6.56,0,8.42-1.07s3-3.24,3.34-6.37a7.46,7.46,0,0,0-2.12-6.64c-1.74-1.65-4.83-2.72-9.27-3.19a34.54,34.54,0,0,0-3.59-.17,17,17,0,0,0-3.23.26l-1.76,17.82q-.4,4-3,5.12a16,16,0,0,1-7.43.67c-4.61-.42-8.21-1.91-10.83-4.51a11.4,11.4,0,0,1-3.51-9.37,15,15,0,0,1,6.33-11,30.2,30.2,0,0,1,11.92-5.77ZM376.5,108.85a4.26,4.26,0,0,0,1.19,3.64,7.21,7.21,0,0,0,4.44,1.6,2.86,2.86,0,0,0,1.51-.14,1.1,1.1,0,0,0,.48-.93l1.19-13a17,17,0,0,0-5.46,3.21A8.07,8.07,0,0,0,376.5,108.85Zm38.27-29.46c-2-2.67-1.71-4.72,1-6.12s4.94-.81,6.45,1.61a41.64,41.64,0,0,1,3.37,5.95,48.77,48.77,0,0,1,2.48,6.32c.68,2.79-.53,4.46-3.62,5-2.7.5-4.45-.64-5.25-3.44a52.21,52.21,0,0,0-2-4.84Q416.07,81.57,414.77,79.39Z"/><path class="cls-7" d="M448.84,94a27.73,27.73,0,0,1-4.32,5.07l-3.85,27.56q-.54,3.86-4.2,3.36t-3.15-4.36l2.57-19.25a11.24,11.24,0,0,1-3,3.16,2.43,2.43,0,0,1-3-.58,4.69,4.69,0,0,1-1.08-4,2.49,2.49,0,0,1,.58-1.78,8.1,8.1,0,0,1,1.85-1.39,62.59,62.59,0,0,0,5.86-5.4,39.39,39.39,0,0,0,5-6.17,4.48,4.48,0,0,1,2.5-2.12,3.93,3.93,0,0,1,2.94.45,4.54,4.54,0,0,1,2,2.56A3.76,3.76,0,0,1,448.84,94Zm.5-13q-2.28,2.63-5.2,5.45a51.52,51.52,0,0,1-5.87,4.92c-2.43,1.74-4.33,1.47-5.71-.82s-.91-4.2,1.25-5.43a45.92,45.92,0,0,0,4.74-3.88A55.42,55.42,0,0,0,443,76.52q2.48-3,5.71-1a3.58,3.58,0,0,1,1.55,2.57A4.16,4.16,0,0,1,449.34,81Zm5.07,36.28,1.36.74a18.31,18.31,0,0,1,1.92,1.58,19.43,19.43,0,0,1,1.86,2c1.74,1.74,1.48,3.34-.74,4.82a4.09,4.09,0,0,1-5.9-.59,19.45,19.45,0,0,0-1.5-1.55c-.61-.57-1.23-1.1-1.88-1.6-2.06-1.66-2-3.29.33-4.88a4.88,4.88,0,0,1,2.43-.78l-4.24-.62q-3.86-.55-3.37-4c.31-2.23,1.77-3.16,4.35-2.79q10.88,1.57,21.75,3.34l.39-2.37q-10.54-1.72-21.1-3.25-4.12-.59-3.65-3.93.49-3.49,4.64-2.9,15.87,2.3,31.7,5c2.75.47,3.93,1.87,3.52,4.19s-1.95,3.08-4.69,2.61l-2.66-.45-.4,2.37,3.72.64c2.63.45,3.75,1.82,3.35,4.08s-1.91,3.17-4.52,2.71l-3.7-.63-1.55,9.17a5.29,5.29,0,0,1-2.53,4.06,8.07,8.07,0,0,1-5.23.58q-1.79-.29-3.11-.62l-3-.75q-3.95-1.16-2.74-4.53a3.78,3.78,0,0,1,1.85-2.52,3.64,3.64,0,0,1,3,.17l2,.66a9,9,0,0,0,1.3.32q1.05.17,1.17-.57l1.18-7.26Q462,118.45,454.4,117.31Zm31.13-18.83c-.6,3.45-2.73,4.85-6.41,4.23q-11.87-2-23.78-3.76c-3.69-.55-5.28-2.54-4.78-6l1.63-11.36c.51-3.56,2.64-5.08,6.4-4.52q12.11,1.8,24.2,3.83c3.74.63,5.31,2.73,4.69,6.28Zm-26.29-13q10.17,1.52,20.32,3.22l.32-1.92q-10.17-1.69-20.35-3.22Zm-1.17,7.79q10.11,1.51,20.19,3.2l.33-2q-10.1-1.68-20.22-3.2Z"/><path class="cls-7" d="M495.51,125.81a6.86,6.86,0,0,1,4.36,2.63,5.69,5.69,0,0,1,1.13,4.71,5.77,5.77,0,0,1-2.76,3.93,7.11,7.11,0,0,1-9.34-1.73,5.82,5.82,0,0,1-1.13-4.65,5.74,5.74,0,0,1,2.7-4A6.82,6.82,0,0,1,495.51,125.81Zm7.16-38.7c2.7.5,4.27,1.5,4.71,3a14.87,14.87,0,0,1-.16,6.59q-3.09,12-6.15,23.92-1,4.23-5.24,3.43T492.16,119q1.43-12.27,2.82-24.54a15.44,15.44,0,0,1,2.16-6.22Q498.52,86.36,502.67,87.12Z"/><path class="cls-8" d="M489.5,254.57a1441.66,1441.66,0,0,0-427.9,0c-6.37,1-13.15-3.52-15.13-10.07L23,166.47c-2-6.54,2.3-12.79,9.58-13.88a1636.91,1636.91,0,0,1,485.86,0c7.28,1.09,11.57,7.34,9.58,13.88l-23.43,78C502.65,251,495.88,255.52,489.5,254.57Z"/><path class="cls-9" d="M96.59,176.87a12.71,12.71,0,0,1-.57,6,14.54,14.54,0,0,1-3.25,5.24,19.13,19.13,0,0,1-5.78,4,34.58,34.58,0,0,1-8.72,2.58q-2.42.41-2.88-1.74t2-2.66a33.2,33.2,0,0,0,7.19-2,13.76,13.76,0,0,0,4.24-2.8A12,12,0,0,0,91.28,182a5.81,5.81,0,0,0,.63-3.16c-.06-.42-.34-.6-.84-.53q-9.86,1.4-19.7,2.94-2.37.37-2.7-1.76t2-2.51q10.79-1.69,21.6-3.21C94.83,173.47,96.26,174.49,96.59,176.87ZM72,173.31c-1.62.25-2.53-.33-2.76-1.76s.47-2.26,2.1-2.51q9.85-1.53,19.71-2.91,2.48-.35,2.77,1.79t-2.17,2.48Q81.77,171.79,72,173.31Z"/><path class="cls-9" d="M110.36,167.95a2.14,2.14,0,0,1,1.06,3.37,2.3,2.3,0,0,1-3.49,1q-1.87-1-4.13-1.88a27.93,27.93,0,0,0-3.68-1.25q-2.39-.69-1.51-3t3.65-1.49q1.42.41,3.74,1.35T110.36,167.95Zm11.15-1c-.08-1.6.79-2.44,2.6-2.52s2.52.68,2.56,2.28a24.33,24.33,0,0,1-1.5,9.19,20.44,20.44,0,0,1-4.39,6.84,24.15,24.15,0,0,1-6.55,4.77,33.83,33.83,0,0,1-8.57,2.82c-1.74.36-2.77-.22-3.09-1.77s.3-2.5,1.94-2.8a30.34,30.34,0,0,0,7.3-2.3,18.84,18.84,0,0,0,5.21-3.67,15,15,0,0,0,3.39-5.31A20.5,20.5,0,0,0,121.51,166.91Z"/><path class="cls-9" d="M138.9,160q.56-2.31,3.21-1.9c1.88.29,2.52,1.17,1.93,2.62a4.07,4.07,0,0,1-.25.47q5.07-.51,10.14-1,3.62-.34,3.94,3.13a19.43,19.43,0,0,1-.75,6.86,22.62,22.62,0,0,1-3.49,7.2,21.65,21.65,0,0,1-6.79,6,35.53,35.53,0,0,1-11.11,3.88q-2.57.56-3.12-1.71t1.91-2.79a33.67,33.67,0,0,0,9.54-3.12,15.4,15.4,0,0,0,5.24-4.52,21,21,0,0,0,2.78-5.45,11.6,11.6,0,0,0,.79-4.37c0-.37-.26-.54-.68-.5q-5.29.5-10.57,1a19.57,19.57,0,0,1-3,4.12,19.34,19.34,0,0,1-4.49,3.64q-2.3,1.34-3.64-.85-1.18-1.84,1-3.05a14.82,14.82,0,0,0,4.63-4.15A19.37,19.37,0,0,0,138.9,160Z"/><path class="cls-9" d="M190.43,160.26a11.08,11.08,0,0,1-.56,4.61,10.65,10.65,0,0,1-2,3.4,13.76,13.76,0,0,1-2.69,2.37,22.07,22.07,0,0,1-2.84,1.61c-1.6.71-2.77.38-3.51-1a2,2,0,0,1,1.24-3.06,17,17,0,0,0,2-1.11,10.73,10.73,0,0,0,1.89-1.52,6.48,6.48,0,0,0,1.3-1.9,3.87,3.87,0,0,0,.42-1.77.63.63,0,0,0-.77-.67q-10.58.75-21.14,1.67c-1.62.14-2.5-.53-2.63-2s.62-2.22,2.25-2.37q11.36-1,22.73-1.78C188.83,156.56,190.26,157.74,190.43,160.26ZM172.7,166q-.19-2.35,2.33-2.55a2.12,2.12,0,0,1,2.62,2.16q.43,5.66.4,7.75a11.48,11.48,0,0,1-.72,3.93,9.85,9.85,0,0,1-2.46,3.54,14.65,14.65,0,0,1-4.91,2.93,2.45,2.45,0,0,1-3.44-1.27q-1-2.13,1.46-3a10,10,0,0,0,3.28-1.84,5.31,5.31,0,0,0,1.49-2.25,9,9,0,0,0,.37-2.92Q173.08,170.81,172.7,166Z"/><path class="cls-9" d="M195.2,164.08q-1.26-1.88.78-2.94,2.29-1.19,3.47.91.66,1.16,1.46,2.92t1.54,3.6a2,2,0,0,1-1.42,3,2.14,2.14,0,0,1-3-1.5,25.64,25.64,0,0,0-1.28-3Q196,165.43,195.2,164.08ZM215,161.65a2.12,2.12,0,0,1,2.33-2.47,2.08,2.08,0,0,1,2.47,2.25,28.21,28.21,0,0,1-.89,8.55,15.66,15.66,0,0,1-3.15,5.8,16,16,0,0,1-5.33,4,22.7,22.7,0,0,1-7.81,1.9q-2.52.19-2.78-2c-.17-1.43.59-2.2,2.28-2.3a18.22,18.22,0,0,0,6-1.36,11.16,11.16,0,0,0,3.94-2.91,11.5,11.5,0,0,0,2.31-4.48A25.17,25.17,0,0,0,215,161.65Zm-11.46.73q-1.34-2,.88-3.06a2.32,2.32,0,0,1,3.35,1q.8,1.52,1.57,3.3a35,35,0,0,1,1.27,3.4q.79,2.2-1.56,2.93a2.07,2.07,0,0,1-2.89-1.56q-.51-1.57-1.19-3.16A25.91,25.91,0,0,0,203.52,162.38Z"/><path class="cls-9" d="M247.09,155a1,1,0,0,1-.22-.51,5.25,5.25,0,0,1-.06-.68,3.56,3.56,0,0,1,1.1-2.73,4.23,4.23,0,0,1,5.7-.13,3.54,3.54,0,0,1,1.24,2.68,3.58,3.58,0,0,1-1.13,2.7,4,4,0,0,1-2.8,1.18h-.17a2.12,2.12,0,0,1,.36,1.23,24.92,24.92,0,0,1-1,7.58,20.65,20.65,0,0,1-3.33,6.62,18.3,18.3,0,0,1-6.1,5.09,29.43,29.43,0,0,1-9.93,2.88q-2.77.34-3.15-2.08-.34-2.15,2.36-2.45a23.27,23.27,0,0,0,8-2.16,13.45,13.45,0,0,0,4.74-3.95A16.93,16.93,0,0,0,246,159.93q0-.56-.81-.54-9.7.26-19.4.66-2.44.1-2.54-2.14t2.35-2.34q10.34-.42,20.69-.69A2.92,2.92,0,0,1,247.09,155Zm3.71-2.45a1.21,1.21,0,0,0-.86.36,1.12,1.12,0,0,0,0,1.64,1.27,1.27,0,0,0,1.73,0,1.12,1.12,0,0,0,0-1.64A1.22,1.22,0,0,0,250.8,152.53Z"/><path class="cls-9" d="M275.26,171.28a22.65,22.65,0,0,0,4.51,2.39,47.94,47.94,0,0,0,5.37,1.88,1.86,1.86,0,0,1,1.53,2.6q-.67,2-2.91,1.39a36.64,36.64,0,0,1-5.69-2.34,19.85,19.85,0,0,1-4.71-3.16q0,2.48,0,5,0,2-2.18,2T269,179q0-2.48,0-5a20.72,20.72,0,0,1-4.7,3.23,37.6,37.6,0,0,1-5.61,2.42q-2.23.68-2.93-1.35a1.87,1.87,0,0,1,1.49-2.63,49.73,49.73,0,0,0,5.3-2,23.94,23.94,0,0,0,4.51-2.46l-9,.13q-2,0-2.08-1.88c0-1.28.65-1.93,2-2q5.46-.1,10.92-.15v-.92a1.9,1.9,0,0,1,2.16-2.14c1.51,0,2.27.69,2.28,2.1q0,.46,0,.92,5.46,0,10.92,0c1.39,0,2.09.65,2.09,1.93s-.7,1.92-2.09,1.91Q279.75,171.25,275.26,171.28Zm-10.68-20.07a3.85,3.85,0,0,1,1.09-.89,3.76,3.76,0,0,1,1.52-.26,2.79,2.79,0,0,1,2.36.76c.39.52.23,1-.47,1.58q5.12,0,10.24-.06c1.81,0,2.71.77,2.71,2.32a4,4,0,0,1-1.83,3,29.8,29.8,0,0,1-4.9,3,31.83,31.83,0,0,0,3.64.93q2.37.5,5.4.94,2.39.29,2,2.29c-.26,1.28-1.16,1.79-2.73,1.55a66.46,66.46,0,0,1-6.85-1.51,32.79,32.79,0,0,1-5.65-2.09,39,39,0,0,1-6.12,2.34,57.71,57.71,0,0,1-6.37,1.49c-1.64.21-2.56-.31-2.75-1.59s.41-2.1,1.89-2.24,3-.46,4.69-.81,3.23-.74,4.57-1.16a13.3,13.3,0,0,1-2.27-1.57,16.23,16.23,0,0,1-1.77-1.78,13.14,13.14,0,0,1-1.63,1.08q-1.09.64-2.21,1.21-2.25,1.12-3.13-.74t1.09-2.66a29.12,29.12,0,0,0,4.16-2.33A18,18,0,0,0,264.58,151.21Zm6.45,7.9q1.13-.53,2.52-1.36t2.48-1.63q-4.51,0-9,.07a10.28,10.28,0,0,0,1.7,1.54A13.13,13.13,0,0,0,271,159.1Z"/><path class="cls-9" d="M298.64,153q-.44,1.31-1,2.83t-1.25,2.83l-.21,19.88a2.07,2.07,0,1,1-4.15,0q.05-6.86.11-13.72a5.06,5.06,0,0,1-.94,2.35,1.53,1.53,0,0,1-1.45.51q-.77-.16-1.27-1.37a2.43,2.43,0,0,1-.16-1.06,2,2,0,0,1,.38-1,28.75,28.75,0,0,0,3.23-5.56,44.47,44.47,0,0,0,2.46-6.72c.32-1.2,1.2-1.67,2.64-1.41S299,151.64,298.64,153Zm8.57,3.25.06-3.36a1.92,1.92,0,0,1,2.24-2.12q2.29,0,2.24,2.21l-.07,3.36,5.86.14c1.52,0,2.26.75,2.22,2.14s-.82,2.06-2.33,2l-5.85-.14-.13,5.88,7.29.18c1.51,0,2.24.76,2.2,2.14s-.81,2.06-2.31,2l-7.26-.18-.19,8.64a2,2,0,0,1-2.28,2.11,1.91,1.91,0,0,1-2.11-2.2l.16-8.64-7.64-.12q-2.25,0-2.23-2.11c0-1.39.78-2.07,2.29-2.05l7.66.12.11-5.88-4.16-.07q-.35,1-.85,2t-1,2a2.5,2.5,0,0,1-1.4,1,2.31,2.31,0,0,1-1.59-.42,2.23,2.23,0,0,1-1-1.21,2.34,2.34,0,0,1,.48-1.63,29.75,29.75,0,0,0,1.8-4.16,22.67,22.67,0,0,0,1.14-4.49,2,2,0,0,1,2.52-1.92q2.2.32,1.82,2.35a15.11,15.11,0,0,1-.5,2.27Z"/><path class="cls-9" d="M327.9,156.64l.19-.68q.48-1.9,2.62-1.37t1.44,2l-.08.19q5.33.2,10.66.44c1.32.06,2,.64,1.91,1.75s-.74,1.59-2.06,1.53q-5.86-.26-11.72-.47c-.37.79-.69,1.44-1,1.95a15,15,0,0,1-.76,1.31,5,5,0,0,1,2.13-1.26,9.91,9.91,0,0,1,3.4-.36,5.29,5.29,0,0,1,3.19,1,3.41,3.41,0,0,1,1.24,2.56,11.3,11.3,0,0,1,1.81-.51c.77-.16,1.58-.29,2.42-.38q2-.27,2.29,1.47t-1.73,1.94c-.75.08-1.58.2-2.47.38a20.79,20.79,0,0,0-2.24.55l-.15,3.41q-.07,1.75-2.07,1.67c-1.24-.05-1.84-.66-1.79-1.83l.08-2.11a12.06,12.06,0,0,0-3.1,1.54q-1.31.93-1.34,1.8t1.19,1.22a15.28,15.28,0,0,0,3.86.51,19.34,19.34,0,0,0,1.95,0q.93-.06,1.72-.17c.52-.08,1-.15,1.35-.22l1.21-.24q2-.49,2.46,1.12a1.65,1.65,0,0,1-1.46,2.21,32.35,32.35,0,0,1-3.3.47,31.64,31.64,0,0,1-4.4.11,14,14,0,0,1-6.27-1.41,3.83,3.83,0,0,1-2.11-3.68,4.2,4.2,0,0,1,.83-2.38,8.21,8.21,0,0,1,2-1.91,14.36,14.36,0,0,1,2.57-1.42,30.34,30.34,0,0,1,2.85-1,1.49,1.49,0,0,0-.3-1.12,1.66,1.66,0,0,0-1.15-.37,7.05,7.05,0,0,0-4,.89,6.66,6.66,0,0,0-2.53,2.84l-.87,1.69a1.65,1.65,0,0,1-2.6.7c-1.18-.73-1.4-1.62-.66-2.69q1-1.86,2.07-4.18c.69-1.55,1.26-2.95,1.71-4.19l-2-.07c-1.32,0-2-.6-1.93-1.69s.71-1.64,2-1.59Z"/><path class="cls-9" d="M358.23,155.54q.87-2.05,3.25-1.28,2.54.82,1.39,2.71a4,4,0,0,1-.3.4q4.76.28,9.53.6,3.4.23,3.17,3.48a18.22,18.22,0,0,1-1.71,6.24,21.21,21.21,0,0,1-4.3,6.14,20.23,20.23,0,0,1-7.17,4.53,33.21,33.21,0,0,1-10.86,1.93q-2.46.14-2.63-2t2.19-2.29a31.42,31.42,0,0,0,9.29-1.46,14.41,14.41,0,0,0,5.52-3.41,19.6,19.6,0,0,0,3.38-4.63,10.85,10.85,0,0,0,1.38-3.93c0-.35-.16-.54-.56-.56q-5-.32-9.93-.61a18.28,18.28,0,0,1-3.41,3.36,18.06,18.06,0,0,1-4.69,2.7,2.22,2.22,0,0,1-3.24-1.33q-.81-1.88,1.39-2.67a13.85,13.85,0,0,0,4.9-3.14A18.12,18.12,0,0,0,358.23,155.54Z"/><path class="cls-9" d="M380.3,158.46q.16-2.23,2.74-2t2.4,2.43l-1,13c-.12,1.52-1,2.21-2.71,2.08s-2.49-.94-2.38-2.46Zm5.17,20.32a21,21,0,0,0,6.48-.29,6.44,6.44,0,0,0,3.58-2.05,8.57,8.57,0,0,0,1.65-3.57,47.53,47.53,0,0,0,.81-6l.63-7.29c.13-1.51,1-2.2,2.68-2.06s2.59,1,2.45,2.51l-.75,8.41a40.39,40.39,0,0,1-1,6.55,11.69,11.69,0,0,1-2.47,4.7,10.52,10.52,0,0,1-5.23,3,26.31,26.31,0,0,1-9,.55c-1.77-.14-2.59-1-2.47-2.59Q382.9,178.59,385.47,178.79Z"/><path class="cls-9" d="M437.15,166.1a11.07,11.07,0,0,1-1.38,4.43,10.63,10.63,0,0,1-2.58,3,13.78,13.78,0,0,1-3.08,1.85,22.43,22.43,0,0,1-3.09,1.07q-2.55.61-3.28-1.6a2,2,0,0,1,1.77-2.79,17.38,17.38,0,0,0,2.17-.73,10.71,10.71,0,0,0,2.13-1.16,6.52,6.52,0,0,0,1.62-1.63,3.87,3.87,0,0,0,.74-1.67.63.63,0,0,0-.63-.79q-10.55-1.16-21.11-2.17-2.44-.23-2.23-2.46t2.64-1.92q11.35,1.08,22.69,2.34Q437.58,162.32,437.15,166.1Zm-18.49,2.47c.16-1.56,1.08-2.26,2.75-2.09a2.12,2.12,0,0,1,2.19,2.6q-.59,5.65-1,7.7a11.5,11.5,0,0,1-1.42,3.73,9.85,9.85,0,0,1-3.06,3,14.63,14.63,0,0,1-5.36,2,2.45,2.45,0,0,1-3.16-1.87q-.58-2.26,2-2.7a10,10,0,0,0,3.55-1.22,5.31,5.31,0,0,0,1.87-1.94,9,9,0,0,0,.89-2.8Q418.17,173.35,418.65,168.57Z"/><path class="cls-9" d="M450.3,185.69a8.77,8.77,0,0,0,5.49-1,13.94,13.94,0,0,0,4.5-4.21,2.35,2.35,0,0,1,3.55-.94q2.28,1.28,1,3.25a17.47,17.47,0,0,1-6.45,5.85,14.42,14.42,0,0,1-8.67,1.4,12,12,0,0,1-7.17-3.14q-2.6-2.57-2-7.69l1.91-16.17c.17-1.48,1.09-2.13,2.75-1.93s2.39,1,2.21,2.52l-1.94,15.88q-.37,3.06.95,4.45A6.16,6.16,0,0,0,450.3,185.69Z"/><path class="cls-9" d="M493.36,169.76q2.61.33,2.31,2.51c-.21,1.51-1.16,2.12-2.86,1.86a17.82,17.82,0,0,0-5.5-.1,16.79,16.79,0,0,0-4.71,1.5,11.94,11.94,0,0,0-3.77,2.78,8,8,0,0,0-1.86,4.28,5.31,5.31,0,0,0,1.77,5q2.2,2,7.41,3,2.43.41,2,2.65t-3,1.76c-4.66-.88-8.12-2.45-10.38-4.74a9.36,9.36,0,0,1-2.71-8.31,10.87,10.87,0,0,1,9.49-9.46q-1.78-.1-5.3-.41l-6.72-.59q-2.44-.26-2.22-2.49t2.66-2q5.85.69,12.26,1.48T493.36,169.76Z"/><path class="cls-9" d="M115.81,228.22a2.05,2.05,0,0,1-.48,1.63,1.68,1.68,0,0,1-2.52.33,14.54,14.54,0,0,0-1.53-1.09,12.32,12.32,0,0,1-1.5,2.22,20.42,20.42,0,0,1-2,2q-1.7,1.24-2.8-.31a1.81,1.81,0,0,1,.31-2.83q.91-.77,1.6-1.43a9.68,9.68,0,0,0,1.17-1.33c-.29-.1-.69-.22-1.21-.36a10.72,10.72,0,0,1-1.33-.45,2.87,2.87,0,0,1-.94-.64,2.14,2.14,0,0,1-.52-1.24A9.81,9.81,0,0,1,104,223q0-.61.13-1.88t.15-2.95q.06-1.68.11-4.07l-.53.07a1.63,1.63,0,0,1-2.07-1.57q-.27-2,1.56-2.23l1-.13q-.13-2.48-.23-3.88a1.87,1.87,0,0,1,1.86-2.19,1.68,1.68,0,0,1,2.13,1.69q.14,2,.14,3.85l1.67-.22a2.91,2.91,0,0,1,2.15.37,2.83,2.83,0,0,1,1,2,59,59,0,0,1,.57,7.79,21.53,21.53,0,0,1-.79,5.75,20.16,20.16,0,0,1,2.09,1.3A2.09,2.09,0,0,1,115.81,228.22Zm-8-4.72a11,11,0,0,1,1.57.44,18.4,18.4,0,0,0,.53-4.33,39,39,0,0,0-.37-6.23l-1.34.18q0,2.7-.09,5.4C108,220.76,107.91,222.28,107.77,223.51Zm16.17-19.87,5.87-.69q1.75-.2,1.94,1.43c.11,1-.42,1.54-1.58,1.67l-5.86.69.12,1,5.57-.65q1.67-.19,1.84,1.28T130.33,210q-7.43.86-14.85,1.79-1.66.21-1.84-1.18t1.48-1.68l5.24-.65-.13-1-6.1.76c-1.17.15-1.81-.27-1.94-1.24s.37-1.7,1.54-1.85l6.12-.76,0-.36q-.22-1.83,1.82-2.07t2.26,1.58Zm5.28,14.4a7.15,7.15,0,0,1-.13,1.34l2.58-.3q1.73-.2,1.91,1.31T132,222.11q-7.86.9-15.72,1.9-1.73.22-1.92-1.29c-.13-1,.38-1.58,1.54-1.73l3-.38c-.13-.39-.29-.81-.49-1.27l-.28,0q-2.78.35-3.11-2.23l-.22-1.75c-.22-1.72.6-2.7,2.47-2.93q5.69-.71,11.39-1.38,2.8-.32,3.09,2.26l.2,1.75q.29,2.58-2.49,2.9Zm.85,5.22q2.77-.32,3.07,2.26l.27,2.38q.3,2.58-2.46,2.9-5.61.65-11.22,1.36-2.76.35-3.08-2.23l-.3-2.38q-.33-2.58,2.44-2.93Q124.42,223.92,130.07,223.26ZM127.88,214q-4.59.54-9.18,1.11l.17,1.35q4.59-.57,9.17-1.11Zm1.44,12.24q-4.55.53-9.1,1.1l.2,1.59q4.54-.57,9.09-1.1Zm-3.86-6.43a3.82,3.82,0,0,0,.13-1.34l-3.55.43q.29.69.48,1.27Z"/><path class="cls-9" d="M148.4,223.91a8.29,8.29,0,0,0,5-2.19,13.84,13.84,0,0,0,3.31-5.1,2.26,2.26,0,0,1,3.14-1.7c1.62.49,2.18,1.47,1.7,2.94a17.35,17.35,0,0,1-4.79,7.14,13.62,13.62,0,0,1-7.86,3.29,11.36,11.36,0,0,1-7.46-1.47q-3-1.92-3.59-7.05L136,203.58q-.25-2.23,2.16-2.49t2.65,2l1.7,15.91q.33,3.06,1.88,4.12A5.85,5.85,0,0,0,148.4,223.91Z"/><path class="cls-9" d="M164.76,201.77a2.26,2.26,0,0,1,2.83-2q2.42.31,2,2.52a35.46,35.46,0,0,0-.45,4.13,33.27,33.27,0,0,0,.09,4.61,25.34,25.34,0,0,0,1.42,6.9q1.07,2.76,2.11,2.67a1.63,1.63,0,0,0,1.23-1,16.43,16.43,0,0,0,1-2.41,2,2,0,0,1,2.72-1.58c1.69.43,2.27,1.44,1.74,3a16.06,16.06,0,0,1-2.4,4.48,5.38,5.38,0,0,1-4,2.09q-3.65.3-5.87-3.83a27.26,27.26,0,0,1-2.8-10.51,36.37,36.37,0,0,1-.11-4.65A41,41,0,0,1,164.76,201.77Zm18.3,1.28q-1.51-1.57.54-3.17a2.09,2.09,0,0,1,3.23.33,23.54,23.54,0,0,1,3.8,6.61A36.35,36.35,0,0,1,192.88,218q.15,2.15-2.31,2.32t-2.53-2a34.64,34.64,0,0,0-1.85-9.91A17.35,17.35,0,0,0,183.06,203.05Z"/><path class="cls-9" d="M206.78,211.07a1.83,1.83,0,0,1,1.84-1.23q4.62-.26,9.25-.48l-.11-2.36q-5,.24-10,.52a2.32,2.32,0,0,1-1.63-.41,1.77,1.77,0,0,1-.63-1.35,1.82,1.82,0,0,1,.45-1.39,2.25,2.25,0,0,1,1.6-.61l4.85-.26-.14-2.72-4.16.22q-2.12.12-2.23-1.76t2-2l4.18-.23-.05-1q-.1-1.92,2-2t2.19,1.81l0,1,4.83-.23c1.45-.07,2.2.53,2.25,1.78s-.64,1.91-2.08,2l-4.82.23.13,2.72,6.15-.29q2.16-.1,2.24,1.78t-2.07,2l-1.1,0,.11,2.36,1.09,0q2.15-.1,2.23,1.78c.06,1.31-.63,2-2.06,2.05l-1.09,0,.33,7.35a3.24,3.24,0,0,1-.86,2.78,5.32,5.32,0,0,1-3.11.89,16.87,16.87,0,0,1-1.83,0c-.6,0-1.18-.08-1.72-.13q-2.14-.17-1.89-2.22a2.08,2.08,0,0,1,.74-1.36,2.2,2.2,0,0,1,1.6-.24l1.44.13a7.44,7.44,0,0,0,1,0q.56,0,.54-.51l-.32-6.51q-4.61.22-9.22.48a1.9,1.9,0,0,1-1.57-.45,1.64,1.64,0,0,1-.5-1,2.26,2.26,0,0,1-1,1.06l-1.37.88.53,9c.08,1.39-.49,2.11-1.72,2.19a1.81,1.81,0,0,1-2.13-2l-.44-7.15a19.67,19.67,0,0,1-2.77,1.7,1.63,1.63,0,0,1-2.58-1,1.79,1.79,0,0,1,1-2.67q1.69-.83,4-2.22l-.43-7-1.42.09a23,23,0,0,1-.42,5,1.64,1.64,0,0,1-2.27,1.43c-1.13-.33-1.54-1.14-1.22-2.45a25.87,25.87,0,0,0,.45-4.4c0-1.58,0-3.27-.13-5.08a1.61,1.61,0,0,1,1.77-1.92,1.58,1.58,0,0,1,1.83,1.69l.07,1.76,1.1-.07-.25-4a1.81,1.81,0,0,1,1.92-2.16q1.89-.11,2,1.92l.24,4,.65,0a2.12,2.12,0,0,1,1.58.43,2,2,0,0,1,.57,1.45,1.88,1.88,0,0,1-.41,1.43,2.12,2.12,0,0,1-1.52.61l-.65,0,.3,5.15.12-.09a1.41,1.41,0,0,1,1.52-.15A1.93,1.93,0,0,1,206.78,211.07Zm1.47,5.89q-1.49-1.36.17-2.73a2.53,2.53,0,0,1,1.35-.56,2.13,2.13,0,0,1,1.53.52,16.9,16.9,0,0,1,2.52,2.43,1.69,1.69,0,0,1-.47,2.71c-1.14.81-2.1.72-2.88-.25A27.67,27.67,0,0,0,208.25,217Z"/><path class="cls-9" d="M239.67,196l3.56-.11,0-1.24a2,2,0,0,1,4-.11l0,1.24,4.06-.1q3.16-.07,3.22,3l.27,13.24h.73q2.1,0,2.14,1.88t-2.06,2q-13.5.27-27,.81-2.1.08-2.18-1.83t2-2l.69,0-.53-13.23q-.12-3.08,3-3.2l4-.14,0-1.24a2,2,0,0,1,4-.13Zm-4,21.07a2.75,2.75,0,0,1,1.62-.54,2.65,2.65,0,0,1,1.5.87c.9,1.09.68,2-.64,2.74a41,41,0,0,1-3.76,1.75q-2.18.9-4.2,1.54a2.06,2.06,0,0,1-2.91-1.28q-.77-2,1.42-2.62,1.83-.52,3.64-1.14T235.65,217Zm-2.78-12.95,3.05-.11-.14-4-3.06.11Zm.31,8.43,3-.11-.16-4.6-3,.11Zm6.73-8.68,3.54-.11-.11-4-3.55.11Zm.27,8.44,3.52-.11-.13-4.6-3.53.11Zm8.45,4.36a33.77,33.77,0,0,0,3.35,1.12q1.84.52,3.75.92,2.22.48,1.58,2.53a2.06,2.06,0,0,1-2.82,1.46q-2.1-.52-4.33-1.28a37,37,0,0,1-3.82-1.52q-2-1-.8-2.7a2.5,2.5,0,0,1,1.41-1A2.91,2.91,0,0,1,248.64,216.64Zm-1.18-13,3.1-.08-.09-4-3.1.08Zm.22,8.44,3.08-.08-.11-4.6-3.09.08Z"/><path class="cls-9" d="M264.2,198l.16-.68c.25-1.28,1.08-1.78,2.48-1.49s1.81.94,1.48,1.93l-.06.2q5.17-.05,10.33-.06,1.93,0,1.93,1.65t-1.92,1.63q-5.68,0-11.37.07-.48,1.21-.84,2a15,15,0,0,1-.68,1.34,4.85,4.85,0,0,1,2-1.36,9.33,9.33,0,0,1,3.27-.52,5,5,0,0,1,3.13.86,3.43,3.43,0,0,1,1.32,2.5,10.84,10.84,0,0,1,1.73-.59,23,23,0,0,1,2.33-.49,1.7,1.7,0,0,1,2.28,1.36q.36,1.69-1.58,2-1.09.17-2.37.49a20,20,0,0,0-2.14.66q0,1.71,0,3.41t-1.93,1.76a1.57,1.57,0,0,1-1.82-1.74q0-1.06,0-2.11a11.57,11.57,0,0,0-2.93,1.68,2.6,2.6,0,0,0-1.21,1.86c0,.54.41.93,1.21,1.16a14.42,14.42,0,0,0,3.76.33,17.52,17.52,0,0,0,1.88-.11c.6-.07,1.15-.15,1.65-.25l1.29-.28,1.16-.3q1.93-.59,2.43,1a1.65,1.65,0,0,1-1.31,2.28,31.08,31.08,0,0,1-7.42.94,13.14,13.14,0,0,1-6.13-1.11,3.85,3.85,0,0,1-2.21-3.58,4.29,4.29,0,0,1,.69-2.41,8.13,8.13,0,0,1,1.84-2,14,14,0,0,1,2.42-1.54,28.59,28.59,0,0,1,2.71-1.18,1.51,1.51,0,0,0-.34-1.1,1.57,1.57,0,0,0-1.13-.32,6.24,6.24,0,0,0-6.16,4l-.77,1.73a1.57,1.57,0,0,1-2.49.82,1.7,1.7,0,0,1-.77-2.65q.92-1.9,1.81-4.27t1.46-4.26l-2,0q-1.92,0-1.95-1.59t1.9-1.69Z"/><path class="cls-9" d="M299.37,218.46a35,35,0,0,1-6.39,2.65,38.81,38.81,0,0,1-6.52,1.44,2.06,2.06,0,0,1-2.57-1.77,1.86,1.86,0,0,1,1.9-2.4q2.58-.31,5.28-.89a32.59,32.59,0,0,0,4.65-1.32,15.91,15.91,0,0,1-2.74-2.71,13.32,13.32,0,0,1-2-3.34h-.41c-1.38,0-2.06-.65-2.06-1.93s.7-1.92,2.08-1.91q8,.05,16,.21a2.24,2.24,0,0,1,2.51,2.57,6.26,6.26,0,0,1-1.73,3.51,18.67,18.67,0,0,1-4.19,3.7,22.68,22.68,0,0,0,4.07,1.47,38,38,0,0,0,4.91,1,1.86,1.86,0,0,1,1.83,2.44,2.06,2.06,0,0,1-2.61,1.7,34.4,34.4,0,0,1-6.19-1.59A29.12,29.12,0,0,1,299.37,218.46Zm9.55-21.88a4.31,4.31,0,0,1,1,.22q1.5.79.36,2.41a16.17,16.17,0,0,1-1.34,1.61l2,0q3.06.07,3,3.07l-.08,3.12a2,2,0,0,1-4-.09l0-2.28q-10.78-.23-21.57-.29v2.28a2,2,0,0,1-4,0q0-1.56,0-3.12,0-3,3.07-3h2.33a14,14,0,0,0-1.5-1.65,1.3,1.3,0,0,1-.45-1,.62.62,0,0,1,.53-.58h-1.64a1.8,1.8,0,1,1,0-3.6q6.36,0,12.6-.19t10.44-.68a1.8,1.8,0,0,1,2.27,1.49q.49,1.77-1.48,2Zm-17.12.76q.73.72,1.3,1.37a1.42,1.42,0,0,1,.32,1.14,1.08,1.08,0,0,1-.66.73l5.43.06a13.54,13.54,0,0,0-1.29-1.74,2.07,2.07,0,0,1-.46-1,.65.65,0,0,1,.44-.7Q293.69,197.35,291.81,197.34Zm7.7,17.08a22.23,22.23,0,0,0,2.66-1.92,12.12,12.12,0,0,0,2.1-2.21l-8.75-.12a7.27,7.27,0,0,0,1.61,2.32A13.17,13.17,0,0,0,299.51,214.42Zm8.06-17.71q-3.9.28-7.5.39a11.51,11.51,0,0,1,1.28,1.74,1.45,1.45,0,0,1,.29,1.1,1,1,0,0,1-.56.73l3.55.06a27.55,27.55,0,0,0,2.27-3.28A3,3,0,0,1,307.57,196.72Z"/><path class="cls-9" d="M318,196.68q.47-2.27,3-1.76t1.85,2.66a41.16,41.16,0,0,0-.81,4.32,46.84,46.84,0,0,0-.42,5,45.65,45.65,0,0,0,.13,5.89,14.85,14.85,0,0,0,.87,3.87q1,2.11-1.3,3a2.17,2.17,0,0,1-3.14-1.41,18.52,18.52,0,0,1-1.08-4.81,52.78,52.78,0,0,1-.18-6.71q.08-2.92.37-5.35T318,196.68ZM335.7,201l.16-4q.09-2.24,2.51-2.14t2.24,2.34l-.18,4,2.65.12c1.55.07,2.29.82,2.22,2.23s-.88,2.12-2.42,2l-2.64-.12q-.23,5.28-.58,7.94a14.09,14.09,0,0,1-1.38,4.68,7.56,7.56,0,0,1-3.08,3.17,13.78,13.78,0,0,1-5.27,1.52,2.31,2.31,0,0,1-2.78-2.18q-.33-2.17,2.34-2.32a8.25,8.25,0,0,0,3.24-.9,4,4,0,0,0,1.63-2,11.92,11.92,0,0,0,.74-3.31q.2-2,.4-6.85-4.68-.19-9.36-.35-2.4-.08-2.33-2.24t2.48-2Q331,200.86,335.7,201Z"/><path class="cls-9" d="M361.84,199.53a2.19,2.19,0,0,1-.87.11l-1.41,23.6q-.12,2.08-2.09,2a1.83,1.83,0,0,1-1.93-2.19l.12-2.2q-4.08.85-8.14,1.53-2.11.41-2.51-1.45a1.82,1.82,0,0,1,1.77-2.36l1-.15,1-19.42h-.25q-2-.1-2-2c.06-1.28.78-1.89,2.14-1.82q6.13.31,12.26.68a2.24,2.24,0,0,1,1.51.55,1.43,1.43,0,0,1,.44,1.13,2.3,2.3,0,0,1,1-.1q4.81.3,9.62.63,3,.21,2.78,3.08a28.2,28.2,0,0,1-.46,3.34,37.62,37.62,0,0,1-1,3.94,37.2,37.2,0,0,1-1.58,4.16,21.86,21.86,0,0,1-2.35,4,16.57,16.57,0,0,0,1.76,2.65,25.64,25.64,0,0,0,2.14,2.4,2,2,0,0,1,0,3.25,1.94,1.94,0,0,1-3-.21,24.87,24.87,0,0,1-2-2.4,16.65,16.65,0,0,1-1.67-2.74,23.51,23.51,0,0,1-2.49,2.82,14.74,14.74,0,0,1-2.38,2,2,2,0,0,1-3-.3,2.26,2.26,0,0,1-.55-1.56,1.86,1.86,0,0,1,1-1.58,24.85,24.85,0,0,0,3-2.34,29.4,29.4,0,0,0,2.23-2.22,23.2,23.2,0,0,1-2.27-6.8,36.87,36.87,0,0,1-.53-8.25,1.52,1.52,0,0,1-1.15-.57A1.4,1.4,0,0,1,361.84,199.53Zm-9.13,2.84,4,.22.18-3.19-4-.22Zm-.4,7.47,4,.22.21-3.71-4-.22Zm-.43,7.91,4-.58.19-3.35-4-.22Zm17-5a24,24,0,0,0,1.93-4.82,27.6,27.6,0,0,0,1.13-6.12l-4.45-.3a31.06,31.06,0,0,0,.23,6.25A22.2,22.2,0,0,0,368.92,212.77Z"/><path class="cls-9" d="M401.84,202.12a2.3,2.3,0,0,1-1,1.72,11,11,0,0,1-2.29,1.22l-4,1.64L391,208.2a11.74,11.74,0,0,1,3.92-.39q4.71.41,7.09,3a8.22,8.22,0,0,1,2,6.57,8.12,8.12,0,0,1-4.29,6.88c-2.55,1.38-6.07,1.86-10.55,1.49a25.36,25.36,0,0,1-4-.63,16.93,16.93,0,0,1-3.1-1.07q-2.38-1.11-1.37-3.19a2,2,0,0,1,3.07-1,24.05,24.05,0,0,0,3,1.1,15.62,15.62,0,0,0,3.21.6q4.58.38,6.92-.83a4.81,4.81,0,0,0,2.6-4.12,3.82,3.82,0,0,0-1.36-3.42c-1-.89-2.8-1.45-5.28-1.66a13.3,13.3,0,0,0-5.75.49,37.32,37.32,0,0,0-5.68,2.89q-2.3,1.43-3.49-.58t.84-3.19q2.68-1.49,6.21-3.54t4.8-2.72q1.26-.68,2.5-1.22a9.81,9.81,0,0,1,1.82-.65q-5.34-.45-10.69-.87Q381,202,381.17,200t2.53-1.89q8,.61,15.91,1.32A2.18,2.18,0,0,1,401.84,202.12Z"/><path class="cls-9" d="M433.52,218.47a9.77,9.77,0,0,1-5.58,8c-3.29,1.68-8.51,2.13-15.68,1.4a2.11,2.11,0,0,1-2.12-2.62c.13-1.32,1-1.91,2.57-1.75,5.65.57,9.66.42,12.06-.5a5.83,5.83,0,0,0,4-5.11,3.81,3.81,0,0,0-1-3.5c-.87-.77-2.43-1.28-4.67-1.52a41.81,41.81,0,0,0-6.12-.18q-3.25.13-6.43.5-2.56.27-2.84-1.92t2.21-2.52q3.1-.3,6.81-.36a59.93,59.93,0,0,1,7.48.35q4.92.53,7.38,3.08A7.79,7.79,0,0,1,433.52,218.47Zm-4.11-15.89c1.55.17,2.25,1,2.09,2.37s-1,2-2.55,1.81q-7.63-.85-15.26-1.62-2.36-.24-2.16-2.3T414.1,201Q421.76,201.73,429.41,202.58Z"/><path class="cls-9" d="M444.44,223.62a3.21,3.21,0,0,1,2.1,1.11,2.77,2.77,0,0,1-.52,4.11,3.32,3.32,0,0,1-4.42-.55,2.74,2.74,0,0,1-.65-2.16,2.71,2.71,0,0,1,1.16-2A3.17,3.17,0,0,1,444.44,223.62Zm2.3-18.38q1.87.24,2.24,1.27a7.16,7.16,0,0,1,.1,3.1q-1.1,5.71-2.19,11.42a2.11,2.11,0,0,1-4.19-.52q.35-5.8.69-11.6a7.43,7.43,0,0,1,.84-3Q444.83,205,446.74,205.24Z"/><path class="cls-6" d="M92.59,172.87a12.71,12.71,0,0,1-.57,6,14.54,14.54,0,0,1-3.25,5.24,19.13,19.13,0,0,1-5.78,4,34.58,34.58,0,0,1-8.72,2.58q-2.42.41-2.88-1.74t2-2.66a33.2,33.2,0,0,0,7.19-2,13.76,13.76,0,0,0,4.24-2.8A12,12,0,0,0,87.28,178a5.81,5.81,0,0,0,.63-3.16c-.06-.42-.34-.6-.84-.53q-9.86,1.4-19.7,2.94-2.37.37-2.7-1.76t2-2.51q10.79-1.69,21.6-3.21C90.83,169.47,92.26,170.49,92.59,172.87ZM68,169.31c-1.62.25-2.53-.33-2.76-1.76s.47-2.26,2.1-2.51q9.85-1.53,19.71-2.91,2.48-.35,2.77,1.79t-2.17,2.48Q77.77,167.79,68,169.31Z"/><path class="cls-6" d="M106.36,163.95a2.14,2.14,0,0,1,1.06,3.37,2.3,2.3,0,0,1-3.49,1q-1.87-1-4.13-1.88a27.93,27.93,0,0,0-3.68-1.25q-2.39-.69-1.51-3t3.65-1.49q1.42.41,3.74,1.35T106.36,163.95Zm11.15-1c-.08-1.6.79-2.44,2.6-2.52s2.52.68,2.56,2.28a24.33,24.33,0,0,1-1.5,9.19,20.44,20.44,0,0,1-4.39,6.84,24.15,24.15,0,0,1-6.55,4.77,33.83,33.83,0,0,1-8.57,2.82c-1.74.36-2.77-.22-3.09-1.77s.3-2.5,1.94-2.8a30.34,30.34,0,0,0,7.3-2.3,18.84,18.84,0,0,0,5.21-3.67,15,15,0,0,0,3.39-5.31A20.5,20.5,0,0,0,117.51,162.91Z"/><path class="cls-6" d="M134.9,156q.56-2.31,3.21-1.9c1.88.29,2.52,1.17,1.93,2.62a4.07,4.07,0,0,1-.25.47q5.07-.51,10.14-1,3.62-.34,3.94,3.13a19.43,19.43,0,0,1-.75,6.86,22.62,22.62,0,0,1-3.49,7.2,21.65,21.65,0,0,1-6.79,6,35.53,35.53,0,0,1-11.11,3.88q-2.57.56-3.12-1.71t1.91-2.79a33.67,33.67,0,0,0,9.54-3.12,15.4,15.4,0,0,0,5.24-4.52,21,21,0,0,0,2.78-5.45,11.6,11.6,0,0,0,.79-4.37c0-.37-.26-.54-.68-.5q-5.29.5-10.57,1a19.57,19.57,0,0,1-3,4.12,19.34,19.34,0,0,1-4.49,3.64q-2.3,1.34-3.64-.85-1.18-1.84,1-3.05a14.82,14.82,0,0,0,4.63-4.15A19.37,19.37,0,0,0,134.9,156Z"/><path class="cls-6" d="M186.43,156.26a11.08,11.08,0,0,1-.56,4.61,10.65,10.65,0,0,1-2,3.4,13.76,13.76,0,0,1-2.69,2.37,22.07,22.07,0,0,1-2.84,1.61c-1.6.71-2.77.38-3.51-1a2,2,0,0,1,1.24-3.06,17,17,0,0,0,2-1.11,10.73,10.73,0,0,0,1.89-1.52,6.48,6.48,0,0,0,1.3-1.9,3.87,3.87,0,0,0,.42-1.77.63.63,0,0,0-.77-.67q-10.58.75-21.14,1.67c-1.62.14-2.5-.53-2.63-2s.62-2.22,2.25-2.37q11.36-1,22.73-1.78C184.83,152.56,186.26,153.74,186.43,156.26ZM168.7,162q-.19-2.35,2.33-2.55a2.12,2.12,0,0,1,2.62,2.16q.43,5.66.4,7.75a11.48,11.48,0,0,1-.72,3.93,9.85,9.85,0,0,1-2.46,3.54,14.65,14.65,0,0,1-4.91,2.93,2.45,2.45,0,0,1-3.44-1.27q-1-2.13,1.46-3a10,10,0,0,0,3.28-1.84,5.31,5.31,0,0,0,1.49-2.25,9,9,0,0,0,.37-2.92Q169.08,166.81,168.7,162Z"/><path class="cls-6" d="M191.2,160.08q-1.26-1.88.78-2.94,2.29-1.19,3.47.91.66,1.16,1.46,2.92t1.54,3.6a2,2,0,0,1-1.42,3,2.14,2.14,0,0,1-3-1.5,25.64,25.64,0,0,0-1.28-3Q192,161.43,191.2,160.08ZM211,157.65a2.12,2.12,0,0,1,2.33-2.47,2.08,2.08,0,0,1,2.47,2.25,28.21,28.21,0,0,1-.89,8.55,15.66,15.66,0,0,1-3.15,5.8,16,16,0,0,1-5.33,4,22.7,22.7,0,0,1-7.81,1.9q-2.52.19-2.78-2c-.17-1.43.59-2.2,2.28-2.3a18.22,18.22,0,0,0,6-1.36,11.16,11.16,0,0,0,3.94-2.91,11.5,11.5,0,0,0,2.31-4.48A25.17,25.17,0,0,0,211,157.65Zm-11.46.73q-1.34-2,.88-3.06a2.32,2.32,0,0,1,3.35,1q.8,1.52,1.57,3.3a35,35,0,0,1,1.27,3.4q.79,2.2-1.56,2.93a2.07,2.07,0,0,1-2.89-1.56q-.51-1.57-1.19-3.16A25.91,25.91,0,0,0,199.52,158.38Z"/><path class="cls-6" d="M243.09,151a1,1,0,0,1-.22-.51,5.25,5.25,0,0,1-.06-.68,3.56,3.56,0,0,1,1.1-2.73,4.23,4.23,0,0,1,5.7-.13,3.54,3.54,0,0,1,1.24,2.68,3.58,3.58,0,0,1-1.13,2.7,4,4,0,0,1-2.8,1.18h-.17a2.12,2.12,0,0,1,.36,1.23,24.92,24.92,0,0,1-1,7.58,20.65,20.65,0,0,1-3.33,6.62,18.3,18.3,0,0,1-6.1,5.09,29.43,29.43,0,0,1-9.93,2.88q-2.77.34-3.15-2.08-.34-2.15,2.36-2.45a23.27,23.27,0,0,0,8-2.16,13.45,13.45,0,0,0,4.74-3.95A16.93,16.93,0,0,0,242,155.93q0-.56-.81-.54-9.7.26-19.4.66-2.44.1-2.54-2.14t2.35-2.34q10.34-.42,20.69-.69A2.92,2.92,0,0,1,243.09,151Zm3.71-2.45a1.21,1.21,0,0,0-.86.36,1.12,1.12,0,0,0,0,1.64,1.27,1.27,0,0,0,1.73,0,1.12,1.12,0,0,0,0-1.64A1.22,1.22,0,0,0,246.8,148.53Z"/><path class="cls-6" d="M271.26,167.28a22.65,22.65,0,0,0,4.51,2.39,47.94,47.94,0,0,0,5.37,1.88,1.86,1.86,0,0,1,1.53,2.6q-.67,2-2.91,1.39a36.64,36.64,0,0,1-5.69-2.34,19.85,19.85,0,0,1-4.71-3.16q0,2.48,0,5,0,2-2.18,2T265,175q0-2.48,0-5a20.72,20.72,0,0,1-4.7,3.23,37.6,37.6,0,0,1-5.61,2.42q-2.23.68-2.93-1.35a1.87,1.87,0,0,1,1.49-2.63,49.73,49.73,0,0,0,5.3-2,23.94,23.94,0,0,0,4.51-2.46l-9,.13q-2,0-2.08-1.88c0-1.28.65-1.93,2-2q5.46-.1,10.92-.15v-.92a1.9,1.9,0,0,1,2.16-2.14c1.51,0,2.27.69,2.28,2.1q0,.46,0,.92,5.46,0,10.92,0c1.39,0,2.09.65,2.09,1.93s-.7,1.92-2.09,1.91Q275.75,167.25,271.26,167.28Zm-10.68-20.07a3.85,3.85,0,0,1,1.09-.89,3.76,3.76,0,0,1,1.52-.26,2.79,2.79,0,0,1,2.36.76c.39.52.23,1-.47,1.58q5.12,0,10.24-.06c1.81,0,2.71.77,2.71,2.32a4,4,0,0,1-1.83,3,29.8,29.8,0,0,1-4.9,3,31.83,31.83,0,0,0,3.64.93q2.37.5,5.4.94,2.39.29,2,2.29c-.26,1.28-1.16,1.79-2.73,1.55a66.46,66.46,0,0,1-6.85-1.51,32.79,32.79,0,0,1-5.65-2.09,39,39,0,0,1-6.12,2.34,57.71,57.71,0,0,1-6.37,1.49c-1.64.21-2.56-.31-2.75-1.59s.41-2.1,1.89-2.24,3-.46,4.69-.81,3.23-.74,4.57-1.16a13.3,13.3,0,0,1-2.27-1.57,16.23,16.23,0,0,1-1.77-1.78,13.14,13.14,0,0,1-1.63,1.08q-1.09.64-2.21,1.21-2.25,1.12-3.13-.74t1.09-2.66a29.12,29.12,0,0,0,4.16-2.33A18,18,0,0,0,260.58,147.21Zm6.45,7.9q1.13-.53,2.52-1.36t2.48-1.63q-4.51,0-9,.07a10.28,10.28,0,0,0,1.7,1.54A13.13,13.13,0,0,0,267,155.1Z"/><path class="cls-6" d="M294.64,149q-.44,1.31-1,2.83t-1.25,2.83l-.21,19.88a2.07,2.07,0,1,1-4.15,0q.05-6.86.11-13.72a5.06,5.06,0,0,1-.94,2.35,1.53,1.53,0,0,1-1.45.51q-.77-.16-1.27-1.37a2.43,2.43,0,0,1-.16-1.06,2,2,0,0,1,.38-1,28.75,28.75,0,0,0,3.23-5.56,44.47,44.47,0,0,0,2.46-6.72c.32-1.2,1.2-1.67,2.64-1.41S295,147.64,294.64,149Zm8.57,3.25.06-3.36a1.92,1.92,0,0,1,2.24-2.12q2.29,0,2.24,2.21l-.07,3.36,5.86.14c1.52,0,2.26.75,2.22,2.14s-.82,2.06-2.33,2l-5.85-.14-.13,5.88,7.29.18c1.51,0,2.24.76,2.2,2.14s-.81,2.06-2.31,2l-7.26-.18-.19,8.64a2,2,0,0,1-2.28,2.11,1.91,1.91,0,0,1-2.11-2.2l.16-8.64-7.64-.12q-2.25,0-2.23-2.11c0-1.39.78-2.07,2.29-2.05l7.66.12.11-5.88-4.16-.07q-.35,1-.85,2t-1,2a2.5,2.5,0,0,1-1.4,1,2.31,2.31,0,0,1-1.59-.42,2.23,2.23,0,0,1-1-1.21,2.34,2.34,0,0,1,.48-1.63,29.75,29.75,0,0,0,1.8-4.16,22.67,22.67,0,0,0,1.14-4.49,2,2,0,0,1,2.52-1.92q2.2.32,1.82,2.35a15.11,15.11,0,0,1-.5,2.27Z"/><path class="cls-6" d="M323.9,152.64l.19-.68q.48-1.9,2.62-1.37t1.44,2l-.08.19q5.33.2,10.66.44c1.32.06,2,.64,1.91,1.75s-.74,1.59-2.06,1.53q-5.86-.26-11.72-.47c-.37.79-.69,1.44-1,1.95a15,15,0,0,1-.76,1.31,5,5,0,0,1,2.13-1.26,9.91,9.91,0,0,1,3.4-.36,5.29,5.29,0,0,1,3.19,1,3.41,3.41,0,0,1,1.24,2.56,11.3,11.3,0,0,1,1.81-.51c.77-.16,1.58-.29,2.42-.38q2-.27,2.29,1.47t-1.73,1.94c-.75.08-1.58.2-2.47.38a20.79,20.79,0,0,0-2.24.55l-.15,3.41q-.07,1.75-2.07,1.67c-1.24-.05-1.84-.66-1.79-1.83l.08-2.11a12.06,12.06,0,0,0-3.1,1.54q-1.31.93-1.34,1.8t1.19,1.22a15.28,15.28,0,0,0,3.86.51,19.34,19.34,0,0,0,1.95,0q.93-.06,1.72-.17c.52-.08,1-.15,1.35-.22l1.21-.24q2-.49,2.46,1.12a1.65,1.65,0,0,1-1.46,2.21,32.35,32.35,0,0,1-3.3.47,31.64,31.64,0,0,1-4.4.11,14,14,0,0,1-6.27-1.41,3.83,3.83,0,0,1-2.11-3.68,4.2,4.2,0,0,1,.83-2.38,8.21,8.21,0,0,1,2-1.91,14.36,14.36,0,0,1,2.57-1.42,30.34,30.34,0,0,1,2.85-1,1.49,1.49,0,0,0-.3-1.12,1.66,1.66,0,0,0-1.15-.37,7.05,7.05,0,0,0-4,.89,6.66,6.66,0,0,0-2.53,2.84l-.87,1.69a1.65,1.65,0,0,1-2.6.7c-1.18-.73-1.4-1.62-.66-2.69q1-1.86,2.07-4.18c.69-1.55,1.26-2.95,1.71-4.19l-2-.07c-1.32,0-2-.6-1.93-1.69s.71-1.64,2-1.59Z"/><path class="cls-6" d="M354.23,151.54q.87-2.05,3.25-1.28,2.54.82,1.39,2.71a4,4,0,0,1-.3.4q4.76.28,9.53.6,3.4.23,3.17,3.48a18.22,18.22,0,0,1-1.71,6.24,21.21,21.21,0,0,1-4.3,6.14,20.23,20.23,0,0,1-7.17,4.53,33.21,33.21,0,0,1-10.86,1.93q-2.46.14-2.63-2t2.19-2.29a31.42,31.42,0,0,0,9.29-1.46,14.41,14.41,0,0,0,5.52-3.41,19.6,19.6,0,0,0,3.38-4.63,10.85,10.85,0,0,0,1.38-3.93c0-.35-.16-.54-.56-.56q-5-.32-9.93-.61a18.28,18.28,0,0,1-3.41,3.36,18.06,18.06,0,0,1-4.69,2.7,2.22,2.22,0,0,1-3.24-1.33q-.81-1.88,1.39-2.67a13.85,13.85,0,0,0,4.9-3.14A18.12,18.12,0,0,0,354.23,151.54Z"/><path class="cls-6" d="M376.3,154.46q.16-2.23,2.74-2t2.4,2.43l-1,13c-.12,1.52-1,2.21-2.71,2.08s-2.49-.94-2.38-2.46Zm5.17,20.32a21,21,0,0,0,6.48-.29,6.44,6.44,0,0,0,3.58-2.05,8.57,8.57,0,0,0,1.65-3.57,47.53,47.53,0,0,0,.81-6l.63-7.29c.13-1.51,1-2.2,2.68-2.06s2.59,1,2.45,2.51l-.75,8.41a40.39,40.39,0,0,1-1,6.55,11.69,11.69,0,0,1-2.47,4.7,10.52,10.52,0,0,1-5.23,3,26.31,26.31,0,0,1-9,.55c-1.77-.14-2.59-1-2.47-2.59Q378.9,174.59,381.47,174.79Z"/><path class="cls-6" d="M433.15,162.1a11.07,11.07,0,0,1-1.38,4.43,10.63,10.63,0,0,1-2.58,3,13.78,13.78,0,0,1-3.08,1.85,22.43,22.43,0,0,1-3.09,1.07q-2.55.61-3.28-1.6a2,2,0,0,1,1.77-2.79,17.38,17.38,0,0,0,2.17-.73,10.71,10.71,0,0,0,2.13-1.16,6.52,6.52,0,0,0,1.62-1.63,3.87,3.87,0,0,0,.74-1.67.63.63,0,0,0-.63-.79q-10.55-1.16-21.11-2.17-2.44-.23-2.23-2.46t2.64-1.92q11.35,1.08,22.69,2.34Q433.58,158.32,433.15,162.1Zm-18.49,2.47c.16-1.56,1.08-2.26,2.75-2.09a2.12,2.12,0,0,1,2.19,2.6q-.59,5.65-1,7.7a11.5,11.5,0,0,1-1.42,3.73,9.85,9.85,0,0,1-3.06,3,14.63,14.63,0,0,1-5.36,2,2.45,2.45,0,0,1-3.16-1.87q-.58-2.26,2-2.7a10,10,0,0,0,3.55-1.22,5.31,5.31,0,0,0,1.87-1.94,9,9,0,0,0,.89-2.8Q414.17,169.35,414.65,164.57Z"/><path class="cls-6" d="M446.3,181.69a8.77,8.77,0,0,0,5.49-1,13.94,13.94,0,0,0,4.5-4.21,2.35,2.35,0,0,1,3.55-.94q2.28,1.28,1,3.25a17.47,17.47,0,0,1-6.45,5.85,14.42,14.42,0,0,1-8.67,1.4,12,12,0,0,1-7.17-3.14q-2.6-2.57-2-7.69l1.91-16.17c.17-1.48,1.09-2.13,2.75-1.93s2.39,1,2.21,2.52l-1.94,15.88q-.37,3.06.95,4.45A6.16,6.16,0,0,0,446.3,181.69Z"/><path class="cls-6" d="M489.36,165.76q2.61.33,2.31,2.51c-.21,1.51-1.16,2.12-2.86,1.86a17.82,17.82,0,0,0-5.5-.1,16.79,16.79,0,0,0-4.71,1.5,11.94,11.94,0,0,0-3.77,2.78,8,8,0,0,0-1.86,4.28,5.31,5.31,0,0,0,1.77,5q2.2,2,7.41,3,2.43.41,2,2.65t-3,1.76c-4.66-.88-8.12-2.45-10.38-4.74a9.36,9.36,0,0,1-2.71-8.31,10.87,10.87,0,0,1,9.49-9.46q-1.78-.1-5.3-.41l-6.72-.59q-2.44-.26-2.22-2.49t2.66-2q5.85.69,12.26,1.48T489.36,165.76Z"/><path class="cls-4" d="M111.81,224.22a2.05,2.05,0,0,1-.48,1.63,1.68,1.68,0,0,1-2.52.33,14.54,14.54,0,0,0-1.53-1.09,12.32,12.32,0,0,1-1.5,2.22,20.42,20.42,0,0,1-2,2q-1.7,1.24-2.8-.31a1.81,1.81,0,0,1,.31-2.83q.91-.77,1.6-1.43a9.68,9.68,0,0,0,1.17-1.33c-.29-.1-.69-.22-1.21-.36a10.72,10.72,0,0,1-1.33-.45,2.87,2.87,0,0,1-.94-.64,2.14,2.14,0,0,1-.52-1.24A9.81,9.81,0,0,1,100,219q0-.61.13-1.88t.15-2.95q.06-1.68.11-4.07l-.53.07a1.63,1.63,0,0,1-2.07-1.57q-.27-2,1.56-2.23l1-.13q-.13-2.48-.23-3.88a1.87,1.87,0,0,1,1.86-2.19,1.68,1.68,0,0,1,2.13,1.69q.14,2,.14,3.85l1.67-.22a2.91,2.91,0,0,1,2.15.37,2.83,2.83,0,0,1,1,2,59,59,0,0,1,.57,7.79,21.53,21.53,0,0,1-.79,5.75,20.16,20.16,0,0,1,2.09,1.3A2.09,2.09,0,0,1,111.81,224.22Zm-8-4.72a11,11,0,0,1,1.57.44,18.4,18.4,0,0,0,.53-4.33,39,39,0,0,0-.37-6.23l-1.34.18q0,2.7-.09,5.4C104,216.76,103.91,218.28,103.77,219.51Zm16.17-19.87,5.87-.69q1.75-.2,1.94,1.43c.11,1-.42,1.54-1.58,1.67l-5.86.69.12,1,5.57-.65q1.67-.19,1.84,1.28T126.33,206q-7.43.86-14.85,1.79-1.66.21-1.84-1.18t1.48-1.68l5.24-.65-.13-1-6.1.76c-1.17.15-1.81-.27-1.94-1.24s.37-1.7,1.54-1.85l6.12-.76,0-.36q-.22-1.83,1.82-2.07t2.26,1.58Zm5.28,14.4a7.15,7.15,0,0,1-.13,1.34l2.58-.3q1.73-.2,1.91,1.31T128,218.11q-7.86.9-15.72,1.9-1.73.22-1.92-1.29c-.13-1,.38-1.58,1.54-1.73l3-.38c-.13-.39-.29-.81-.49-1.27l-.28,0q-2.78.35-3.11-2.23l-.22-1.75c-.22-1.72.6-2.7,2.47-2.93q5.69-.71,11.39-1.38,2.8-.32,3.09,2.26l.2,1.75q.29,2.58-2.49,2.9Zm.85,5.22q2.77-.32,3.07,2.26l.27,2.38q.3,2.58-2.46,2.9-5.61.65-11.22,1.36-2.76.35-3.08-2.23l-.3-2.38q-.33-2.58,2.44-2.93Q120.42,219.92,126.07,219.26ZM123.88,210q-4.59.54-9.18,1.11l.17,1.35q4.59-.57,9.17-1.11Zm1.44,12.24q-4.55.53-9.1,1.1l.2,1.59q4.54-.57,9.09-1.1Zm-3.86-6.43a3.82,3.82,0,0,0,.13-1.34l-3.55.43q.29.69.48,1.27Z"/><path class="cls-4" d="M144.4,219.91a8.29,8.29,0,0,0,5-2.19,13.84,13.84,0,0,0,3.31-5.1,2.26,2.26,0,0,1,3.14-1.7c1.62.49,2.18,1.47,1.7,2.94a17.35,17.35,0,0,1-4.79,7.14,13.62,13.62,0,0,1-7.86,3.29,11.36,11.36,0,0,1-7.46-1.47q-3-1.92-3.59-7.05L132,199.58q-.25-2.23,2.16-2.49t2.65,2l1.7,15.91q.33,3.06,1.88,4.12A5.85,5.85,0,0,0,144.4,219.91Z"/><path class="cls-4" d="M160.76,197.77a2.26,2.26,0,0,1,2.83-2q2.42.31,2,2.52a35.46,35.46,0,0,0-.45,4.13,33.27,33.27,0,0,0,.09,4.61,25.34,25.34,0,0,0,1.42,6.9q1.07,2.76,2.11,2.67a1.63,1.63,0,0,0,1.23-1,16.43,16.43,0,0,0,1-2.41,2,2,0,0,1,2.72-1.58c1.69.43,2.27,1.44,1.74,3a16.06,16.06,0,0,1-2.4,4.48,5.38,5.38,0,0,1-4,2.09q-3.65.3-5.87-3.83a27.26,27.26,0,0,1-2.8-10.51,36.37,36.37,0,0,1-.11-4.65A41,41,0,0,1,160.76,197.77Zm18.3,1.28q-1.51-1.57.54-3.17a2.09,2.09,0,0,1,3.23.33,23.54,23.54,0,0,1,3.8,6.61A36.35,36.35,0,0,1,188.88,214q.15,2.15-2.31,2.32t-2.53-2a34.64,34.64,0,0,0-1.85-9.91A17.35,17.35,0,0,0,179.06,199.05Z"/><path class="cls-4" d="M202.78,207.07a1.83,1.83,0,0,1,1.84-1.23q4.62-.26,9.25-.48l-.11-2.36q-5,.24-10,.52a2.32,2.32,0,0,1-1.63-.41,1.77,1.77,0,0,1-.63-1.35,1.82,1.82,0,0,1,.45-1.39,2.25,2.25,0,0,1,1.6-.61l4.85-.26-.14-2.72-4.16.22q-2.12.12-2.23-1.76t2-2l4.18-.23-.05-1q-.1-1.92,2-2t2.19,1.81l0,1,4.83-.23c1.45-.07,2.2.53,2.25,1.78s-.64,1.91-2.08,2l-4.82.23.13,2.72,6.15-.29q2.16-.1,2.24,1.78t-2.07,2l-1.1,0,.11,2.36,1.09,0q2.15-.1,2.23,1.78c.06,1.31-.63,2-2.06,2.05l-1.09,0,.33,7.35a3.24,3.24,0,0,1-.86,2.78,5.32,5.32,0,0,1-3.11.89,16.87,16.87,0,0,1-1.83,0c-.6,0-1.18-.08-1.72-.13q-2.14-.17-1.89-2.22a2.08,2.08,0,0,1,.74-1.36,2.2,2.2,0,0,1,1.6-.24l1.44.13a7.44,7.44,0,0,0,1,0q.56,0,.54-.51l-.32-6.51q-4.61.22-9.22.48a1.9,1.9,0,0,1-1.57-.45,1.64,1.64,0,0,1-.5-1,2.26,2.26,0,0,1-1,1.06l-1.37.88.53,9c.08,1.39-.49,2.11-1.72,2.19a1.81,1.81,0,0,1-2.13-2l-.44-7.15a19.67,19.67,0,0,1-2.77,1.7,1.63,1.63,0,0,1-2.58-1,1.79,1.79,0,0,1,1-2.67q1.69-.83,4-2.22l-.43-7-1.42.09a23,23,0,0,1-.42,5,1.64,1.64,0,0,1-2.27,1.43c-1.13-.33-1.54-1.14-1.22-2.45a25.87,25.87,0,0,0,.45-4.4c0-1.58,0-3.27-.13-5.08a1.61,1.61,0,0,1,1.77-1.92,1.58,1.58,0,0,1,1.83,1.69l.07,1.76,1.1-.07-.25-4a1.81,1.81,0,0,1,1.92-2.16q1.89-.11,2,1.92l.24,4,.65,0a2.12,2.12,0,0,1,1.58.43,2,2,0,0,1,.57,1.45,1.88,1.88,0,0,1-.41,1.43,2.12,2.12,0,0,1-1.52.61l-.65,0,.3,5.15.12-.09a1.41,1.41,0,0,1,1.52-.15A1.93,1.93,0,0,1,202.78,207.07Zm1.47,5.89q-1.49-1.36.17-2.73a2.53,2.53,0,0,1,1.35-.56,2.13,2.13,0,0,1,1.53.52,16.9,16.9,0,0,1,2.52,2.43,1.69,1.69,0,0,1-.47,2.71c-1.14.81-2.1.72-2.88-.25A27.67,27.67,0,0,0,204.25,213Z"/><path class="cls-4" d="M235.67,192l3.56-.11,0-1.24a2,2,0,0,1,4-.11l0,1.24,4.06-.1q3.16-.07,3.22,3l.27,13.24h.73q2.1,0,2.14,1.88t-2.06,2q-13.5.27-27,.81-2.1.08-2.18-1.83t2-2l.69,0-.53-13.23q-.12-3.08,3-3.2l4-.14,0-1.24a2,2,0,0,1,4-.13Zm-4,21.07a2.75,2.75,0,0,1,1.62-.54,2.65,2.65,0,0,1,1.5.87c.9,1.09.68,2-.64,2.74a41,41,0,0,1-3.76,1.75q-2.18.9-4.2,1.54a2.06,2.06,0,0,1-2.91-1.28q-.77-2,1.42-2.62,1.83-.52,3.64-1.14T231.65,213Zm-2.78-12.95,3.05-.11-.14-4-3.06.11Zm.31,8.43,3-.11-.16-4.6-3,.11Zm6.73-8.68,3.54-.11-.11-4-3.55.11Zm.27,8.44,3.52-.11-.13-4.6-3.53.11Zm8.45,4.36a33.77,33.77,0,0,0,3.35,1.12q1.84.52,3.75.92,2.22.48,1.58,2.53a2.06,2.06,0,0,1-2.82,1.46q-2.1-.52-4.33-1.28a37,37,0,0,1-3.82-1.52q-2-1-.8-2.7a2.5,2.5,0,0,1,1.41-1A2.91,2.91,0,0,1,244.64,212.64Zm-1.18-13,3.1-.08-.09-4-3.1.08Zm.22,8.44,3.08-.08-.11-4.6-3.09.08Z"/><path class="cls-6" d="M260.2,194l.16-.68c.25-1.28,1.08-1.78,2.48-1.49s1.81.94,1.48,1.93l-.06.2q5.17-.05,10.33-.06,1.93,0,1.93,1.65t-1.92,1.63q-5.68,0-11.37.07-.48,1.21-.84,2a15,15,0,0,1-.68,1.34,4.85,4.85,0,0,1,2-1.36,9.33,9.33,0,0,1,3.27-.52,5,5,0,0,1,3.13.86,3.43,3.43,0,0,1,1.32,2.5,10.84,10.84,0,0,1,1.73-.59,23,23,0,0,1,2.33-.49,1.7,1.7,0,0,1,2.28,1.36q.36,1.69-1.58,2-1.09.17-2.37.49a20,20,0,0,0-2.14.66q0,1.71,0,3.41t-1.93,1.76a1.57,1.57,0,0,1-1.82-1.74q0-1.06,0-2.11a11.57,11.57,0,0,0-2.93,1.68,2.6,2.6,0,0,0-1.21,1.86c0,.54.41.93,1.21,1.16a14.42,14.42,0,0,0,3.76.33,17.52,17.52,0,0,0,1.88-.11c.6-.07,1.15-.15,1.65-.25l1.29-.28,1.16-.3q1.93-.59,2.43,1a1.65,1.65,0,0,1-1.31,2.28,31.08,31.08,0,0,1-7.42.94,13.14,13.14,0,0,1-6.13-1.11,3.85,3.85,0,0,1-2.21-3.58,4.29,4.29,0,0,1,.69-2.41,8.13,8.13,0,0,1,1.84-2,14,14,0,0,1,2.42-1.54,28.59,28.59,0,0,1,2.71-1.18,1.51,1.51,0,0,0-.34-1.1,1.57,1.57,0,0,0-1.13-.32,6.24,6.24,0,0,0-6.16,4l-.77,1.73a1.57,1.57,0,0,1-2.49.82,1.7,1.7,0,0,1-.77-2.65q.92-1.9,1.81-4.27t1.46-4.26l-2,0q-1.92,0-1.95-1.59t1.9-1.69Z"/><path class="cls-6" d="M295.37,214.46a35,35,0,0,1-6.39,2.65,38.81,38.81,0,0,1-6.52,1.44,2.06,2.06,0,0,1-2.57-1.77,1.86,1.86,0,0,1,1.9-2.4q2.58-.31,5.28-.89a32.59,32.59,0,0,0,4.65-1.32,15.91,15.91,0,0,1-2.74-2.71,13.32,13.32,0,0,1-2-3.34h-.41c-1.38,0-2.06-.65-2.06-1.93s.7-1.92,2.08-1.91q8,.05,16,.21a2.24,2.24,0,0,1,2.51,2.57,6.26,6.26,0,0,1-1.73,3.51,18.67,18.67,0,0,1-4.19,3.7,22.68,22.68,0,0,0,4.07,1.47,38,38,0,0,0,4.91,1,1.86,1.86,0,0,1,1.83,2.44,2.06,2.06,0,0,1-2.61,1.7,34.4,34.4,0,0,1-6.19-1.59A29.12,29.12,0,0,1,295.37,214.46Zm9.55-21.88a4.31,4.31,0,0,1,1,.22q1.5.79.36,2.41a16.17,16.17,0,0,1-1.34,1.61l2,0q3.06.07,3,3.07l-.08,3.12a2,2,0,0,1-4-.09l0-2.28q-10.78-.23-21.57-.29v2.28a2,2,0,0,1-4,0q0-1.56,0-3.12,0-3,3.07-3h2.33a14,14,0,0,0-1.5-1.65,1.3,1.3,0,0,1-.45-1,.62.62,0,0,1,.53-.58h-1.64a1.8,1.8,0,1,1,0-3.6q6.36,0,12.6-.19t10.44-.68a1.8,1.8,0,0,1,2.27,1.49q.49,1.77-1.48,2Zm-17.12.76q.73.72,1.3,1.37a1.42,1.42,0,0,1,.32,1.14,1.08,1.08,0,0,1-.66.73l5.43.06a13.54,13.54,0,0,0-1.29-1.74,2.07,2.07,0,0,1-.46-1,.65.65,0,0,1,.44-.7Q289.69,193.35,287.81,193.34Zm7.7,17.08a22.23,22.23,0,0,0,2.66-1.92,12.12,12.12,0,0,0,2.1-2.21l-8.75-.12a7.27,7.27,0,0,0,1.61,2.32A13.17,13.17,0,0,0,295.51,210.42Zm8.06-17.71q-3.9.28-7.5.39a11.51,11.51,0,0,1,1.28,1.74,1.45,1.45,0,0,1,.29,1.1,1,1,0,0,1-.56.73l3.55.06a27.55,27.55,0,0,0,2.27-3.28A3,3,0,0,1,303.57,192.72Z"/><path class="cls-6" d="M314,192.68q.47-2.27,3-1.76t1.85,2.66a41.16,41.16,0,0,0-.81,4.32,46.84,46.84,0,0,0-.42,5,45.65,45.65,0,0,0,.13,5.89,14.85,14.85,0,0,0,.87,3.87q1,2.11-1.3,3a2.17,2.17,0,0,1-3.14-1.41,18.52,18.52,0,0,1-1.08-4.81,52.78,52.78,0,0,1-.18-6.71q.08-2.92.37-5.35T314,192.68ZM331.7,197l.16-4q.09-2.24,2.51-2.14t2.24,2.34l-.18,4,2.65.12c1.55.07,2.29.82,2.22,2.23s-.88,2.12-2.42,2l-2.64-.12q-.23,5.28-.58,7.94a14.09,14.09,0,0,1-1.38,4.68,7.56,7.56,0,0,1-3.08,3.17,13.78,13.78,0,0,1-5.27,1.52,2.31,2.31,0,0,1-2.78-2.18q-.33-2.17,2.34-2.32a8.25,8.25,0,0,0,3.24-.9,4,4,0,0,0,1.63-2,11.92,11.92,0,0,0,.74-3.31q.2-2,.4-6.85-4.68-.19-9.36-.35-2.4-.08-2.33-2.24t2.48-2Q327,196.86,331.7,197Z"/><path class="cls-6" d="M357.84,195.53a2.19,2.19,0,0,1-.87.11l-1.41,23.6q-.12,2.08-2.09,2a1.83,1.83,0,0,1-1.93-2.19l.12-2.2q-4.08.85-8.14,1.53-2.11.41-2.51-1.45a1.82,1.82,0,0,1,1.77-2.36l1-.15,1-19.42h-.25q-2-.1-2-2c.06-1.28.78-1.89,2.14-1.82q6.13.31,12.26.68a2.24,2.24,0,0,1,1.51.55,1.43,1.43,0,0,1,.44,1.13,2.3,2.3,0,0,1,1-.1q4.81.3,9.62.63,3,.21,2.78,3.08a28.2,28.2,0,0,1-.46,3.34,37.62,37.62,0,0,1-1,3.94,37.2,37.2,0,0,1-1.58,4.16,21.86,21.86,0,0,1-2.35,4,16.57,16.57,0,0,0,1.76,2.65,25.64,25.64,0,0,0,2.14,2.4,2,2,0,0,1,0,3.25,1.94,1.94,0,0,1-3-.21,24.87,24.87,0,0,1-2-2.4,16.65,16.65,0,0,1-1.67-2.74,23.51,23.51,0,0,1-2.49,2.82,14.74,14.74,0,0,1-2.38,2,2,2,0,0,1-3-.3,2.26,2.26,0,0,1-.55-1.56,1.86,1.86,0,0,1,1-1.58,24.85,24.85,0,0,0,3-2.34,29.4,29.4,0,0,0,2.23-2.22,23.2,23.2,0,0,1-2.27-6.8,36.87,36.87,0,0,1-.53-8.25,1.52,1.52,0,0,1-1.15-.57A1.4,1.4,0,0,1,357.84,195.53Zm-9.13,2.84,4,.22.18-3.19-4-.22Zm-.4,7.47,4,.22.21-3.71-4-.22Zm-.43,7.91,4-.58.19-3.35-4-.22Zm17-5a24,24,0,0,0,1.93-4.82,27.6,27.6,0,0,0,1.13-6.12l-4.45-.3a31.06,31.06,0,0,0,.23,6.25A22.2,22.2,0,0,0,364.92,208.77Z"/><path class="cls-6" d="M397.84,198.12a2.3,2.3,0,0,1-1,1.72,11,11,0,0,1-2.29,1.22l-4,1.64L387,204.2a11.74,11.74,0,0,1,3.92-.39q4.71.41,7.09,3a8.22,8.22,0,0,1,2,6.57,8.12,8.12,0,0,1-4.29,6.88c-2.55,1.38-6.07,1.86-10.55,1.49a25.36,25.36,0,0,1-4-.63,16.93,16.93,0,0,1-3.1-1.07q-2.38-1.11-1.37-3.19a2,2,0,0,1,3.07-1,24.05,24.05,0,0,0,3,1.1,15.62,15.62,0,0,0,3.21.6q4.58.38,6.92-.83a4.81,4.81,0,0,0,2.6-4.12,3.82,3.82,0,0,0-1.36-3.42c-1-.89-2.8-1.45-5.28-1.66a13.3,13.3,0,0,0-5.75.49,37.32,37.32,0,0,0-5.68,2.89q-2.3,1.43-3.49-.58t.84-3.19q2.68-1.49,6.21-3.54t4.8-2.72q1.26-.68,2.5-1.22a9.81,9.81,0,0,1,1.82-.65q-5.34-.45-10.69-.87Q377,198,377.17,196t2.53-1.89q8,.61,15.91,1.32A2.18,2.18,0,0,1,397.84,198.12Z"/><path class="cls-6" d="M429.52,214.47a9.77,9.77,0,0,1-5.58,8c-3.29,1.68-8.51,2.13-15.68,1.4a2.11,2.11,0,0,1-2.12-2.62c.13-1.32,1-1.91,2.57-1.75,5.65.57,9.66.42,12.06-.5a5.83,5.83,0,0,0,4-5.11,3.81,3.81,0,0,0-1-3.5c-.87-.77-2.43-1.28-4.67-1.52a41.81,41.81,0,0,0-6.12-.18q-3.25.13-6.43.5-2.56.27-2.84-1.92t2.21-2.52q3.1-.3,6.81-.36a59.93,59.93,0,0,1,7.48.35q4.92.53,7.38,3.08A7.79,7.79,0,0,1,429.52,214.47Zm-4.11-15.89c1.55.17,2.25,1,2.09,2.37s-1,2-2.55,1.81q-7.63-.85-15.26-1.62-2.36-.24-2.16-2.3T410.1,197Q417.76,197.73,425.41,198.58Z"/><path class="cls-6" d="M440.44,219.62a3.21,3.21,0,0,1,2.1,1.11,2.77,2.77,0,0,1-.52,4.11,3.32,3.32,0,0,1-4.42-.55,2.74,2.74,0,0,1-.65-2.16,2.71,2.71,0,0,1,1.16-2A3.17,3.17,0,0,1,440.44,219.62Zm2.3-18.38q1.87.24,2.24,1.27a7.16,7.16,0,0,1,.1,3.1q-1.1,5.71-2.19,11.42a2.11,2.11,0,0,1-4.19-.52q.35-5.8.69-11.6a7.43,7.43,0,0,1,.84-3Q440.83,201,442.74,201.24Z"/><path class="cls-10" d="M86.33,223.69a16.83,16.83,0,0,1,4.33,3.21A24.65,24.65,0,0,1,92.58,229a9.25,9.25,0,0,1-2.46,1,8.57,8.57,0,0,1-5.59-.33,8.71,8.71,0,0,1-4-3.93,10.8,10.8,0,0,1-1-2.56,12.69,12.69,0,0,1,2.22-.28A9.74,9.74,0,0,1,86.33,223.69Z"/><path class="cls-11" d="M84.31,232.37a17.14,17.14,0,0,1,5.84-.9,20.21,20.21,0,0,1,2.79.19,11.16,11.16,0,0,1-1.35,2.62,10.66,10.66,0,0,1-5,4,12.21,12.21,0,0,1-6.88.29,12.84,12.84,0,0,1-3.07-1.11,23,23,0,0,1,2.3-2A20.53,20.53,0,0,1,84.31,232.37Z"/><path class="cls-11" d="M74.54,221.52a16.78,16.78,0,0,1,2.81,4.59,24.84,24.84,0,0,1,1,2.63,9.08,9.08,0,0,1-2.66,0,8.56,8.56,0,0,1-5.06-2.4,8.74,8.74,0,0,1-2.26-5.15,10.82,10.82,0,0,1,0-2.74,12.55,12.55,0,0,1,2.18.57A9.77,9.77,0,0,1,74.54,221.52Z"/><path class="cls-10" d="M69.42,228.81a17.13,17.13,0,0,1,5.75,1.35,20.75,20.75,0,0,1,2.52,1.22,11.16,11.16,0,0,1-2.23,1.93,10.67,10.67,0,0,1-6.19,1.86,12.23,12.23,0,0,1-6.48-2.3,13,13,0,0,1-2.43-2.17,22.9,22.9,0,0,1,2.87-1A20.38,20.38,0,0,1,69.42,228.81Z"/><path class="cls-10" d="M64.39,215.09a16.75,16.75,0,0,1,.91,5.31,24.75,24.75,0,0,1,0,2.82,9.2,9.2,0,0,1-2.48-1,8.59,8.59,0,0,1-3.81-4.1,8.72,8.72,0,0,1-.18-5.62A10.77,10.77,0,0,1,59.84,210a12.43,12.43,0,0,1,1.81,1.33A9.76,9.76,0,0,1,64.39,215.09Z"/><path class="cls-11" d="M56.93,220a17.07,17.07,0,0,1,4.84,3.39,20.68,20.68,0,0,1,1.89,2.07,11.19,11.19,0,0,1-2.79,1,10.67,10.67,0,0,1-6.44-.57,12.22,12.22,0,0,1-5.17-4.54,13,13,0,0,1-1.45-2.92,23,23,0,0,1,3,.14A20.47,20.47,0,0,1,56.93,220Z"/><path class="cls-11" d="M57.37,205.37a16.84,16.84,0,0,1-1.14,5.26,25.05,25.05,0,0,1-1.09,2.6,9.15,9.15,0,0,1-1.94-1.82,8.55,8.55,0,0,1-2-5.23,8.73,8.73,0,0,1,1.94-5.28,10.88,10.88,0,0,1,1.93-1.95,12.69,12.69,0,0,1,1.18,1.92A9.75,9.75,0,0,1,57.37,205.37Z"/><path class="cls-10" d="M48.63,207.1a17.15,17.15,0,0,1,3.22,5,20.47,20.47,0,0,1,1,2.62,11.12,11.12,0,0,1-2.95-.14,10.66,10.66,0,0,1-5.76-2.94A12.24,12.24,0,0,1,41,205.45a12.84,12.84,0,0,1-.25-3.25,22.74,22.74,0,0,1,2.77,1.26A20.43,20.43,0,0,1,48.63,207.1Z"/><path class="cls-10" d="M54.48,193.7a16.8,16.8,0,0,1-3,4.47,24.32,24.32,0,0,1-2,2,9.18,9.18,0,0,1-1.12-2.42,8.58,8.58,0,0,1,.08-5.6A8.7,8.7,0,0,1,52.2,188a10.77,10.77,0,0,1,2.51-1.09,12.67,12.67,0,0,1,.38,2.21A9.76,9.76,0,0,1,54.48,193.7Z"/><path class="cls-11" d="M45.72,192.07a17,17,0,0,1,1.15,5.8,20.43,20.43,0,0,1-.06,2.8,11.24,11.24,0,0,1-2.68-1.23,10.66,10.66,0,0,1-4.26-4.86,12.22,12.22,0,0,1-.59-6.86,13,13,0,0,1,1-3.12,23,23,0,0,1,2.1,2.21A20.5,20.5,0,0,1,45.72,192.07Z"/><path class="cls-11" d="M56.14,181.83a16.83,16.83,0,0,1-4.47,3A25,25,0,0,1,49.09,186a9.1,9.1,0,0,1-.14-2.66,8.57,8.57,0,0,1,2.17-5.16,8.74,8.74,0,0,1,5-2.48,10.85,10.85,0,0,1,2.74-.08,12.47,12.47,0,0,1-.47,2.2A9.77,9.77,0,0,1,56.14,181.83Z"/><path class="cls-10" d="M48.63,177a17.11,17.11,0,0,1-1.1,5.81,20.69,20.69,0,0,1-1.1,2.58,11.13,11.13,0,0,1-2-2.14,10.66,10.66,0,0,1-2.13-6.11,12.22,12.22,0,0,1,2-6.58,12.9,12.9,0,0,1,2.06-2.52,22.84,22.84,0,0,1,1.13,2.83A20.36,20.36,0,0,1,48.63,177Z"/><path class="cls-11" d="M463.77,223.69a16.83,16.83,0,0,0-4.33,3.21,24.65,24.65,0,0,0-1.92,2.06,9.25,9.25,0,0,0,2.46,1,8.57,8.57,0,0,0,5.59-.33,8.71,8.71,0,0,0,4-3.93,10.8,10.8,0,0,0,1-2.56,12.69,12.69,0,0,0-2.22-.28A9.74,9.74,0,0,0,463.77,223.69Z"/><path class="cls-10" d="M465.78,232.37a17.14,17.14,0,0,0-5.84-.9,20.21,20.21,0,0,0-2.79.19,11.16,11.16,0,0,0,1.35,2.62,10.66,10.66,0,0,0,5,4,12.21,12.21,0,0,0,6.88.29,12.84,12.84,0,0,0,3.07-1.11,23,23,0,0,0-2.3-2A20.53,20.53,0,0,0,465.78,232.37Z"/><path class="cls-10" d="M475.56,221.52a16.78,16.78,0,0,0-2.81,4.59,24.84,24.84,0,0,0-1,2.63,9.08,9.08,0,0,0,2.66,0,8.56,8.56,0,0,0,5.06-2.4,8.74,8.74,0,0,0,2.26-5.15,10.82,10.82,0,0,0,0-2.74,12.55,12.55,0,0,0-2.18.57A9.77,9.77,0,0,0,475.56,221.52Z"/><path class="cls-11" d="M480.67,228.81a17.13,17.13,0,0,0-5.75,1.35,20.75,20.75,0,0,0-2.52,1.22,11.16,11.16,0,0,0,2.23,1.93,10.67,10.67,0,0,0,6.19,1.86,12.23,12.23,0,0,0,6.48-2.3,13,13,0,0,0,2.43-2.17,22.9,22.9,0,0,0-2.87-1A20.38,20.38,0,0,0,480.67,228.81Z"/><path class="cls-11" d="M485.71,215.09a16.75,16.75,0,0,0-.91,5.31,24.75,24.75,0,0,0,0,2.82,9.2,9.2,0,0,0,2.48-1,8.59,8.59,0,0,0,3.81-4.1,8.72,8.72,0,0,0,.18-5.62,10.77,10.77,0,0,0-1.06-2.52,12.43,12.43,0,0,0-1.81,1.33A9.76,9.76,0,0,0,485.71,215.09Z"/><path class="cls-10" d="M493.16,220a17.07,17.07,0,0,0-4.84,3.39,20.68,20.68,0,0,0-1.89,2.07,11.19,11.19,0,0,0,2.79,1,10.67,10.67,0,0,0,6.44-.57,12.22,12.22,0,0,0,5.17-4.54,13,13,0,0,0,1.45-2.92,23,23,0,0,0-3,.14A20.47,20.47,0,0,0,493.16,220Z"/><path class="cls-10" d="M492.73,205.37a16.84,16.84,0,0,0,1.14,5.26,25.05,25.05,0,0,0,1.09,2.6,9.15,9.15,0,0,0,1.94-1.82,8.55,8.55,0,0,0,2-5.23A8.73,8.73,0,0,0,497,200.9a10.88,10.88,0,0,0-1.93-1.95,12.69,12.69,0,0,0-1.18,1.92A9.75,9.75,0,0,0,492.73,205.37Z"/><path class="cls-11" d="M501.47,207.1a17.15,17.15,0,0,0-3.22,5,20.47,20.47,0,0,0-1,2.62,11.12,11.12,0,0,0,2.95-.14A10.66,10.66,0,0,0,506,211.6a12.24,12.24,0,0,0,3.09-6.15,12.84,12.84,0,0,0,.25-3.25,22.74,22.74,0,0,0-2.77,1.26A20.43,20.43,0,0,0,501.47,207.1Z"/><path class="cls-11" d="M495.61,193.7a16.8,16.8,0,0,0,3,4.47,24.32,24.32,0,0,0,2,2,9.18,9.18,0,0,0,1.12-2.42,8.58,8.58,0,0,0-.08-5.6,8.7,8.7,0,0,0-3.75-4.18,10.77,10.77,0,0,0-2.51-1.09,12.67,12.67,0,0,0-.38,2.21A9.76,9.76,0,0,0,495.61,193.7Z"/><path class="cls-10" d="M504.37,192.07a17,17,0,0,0-1.15,5.8,20.43,20.43,0,0,0,.06,2.8,11.24,11.24,0,0,0,2.68-1.23,10.66,10.66,0,0,0,4.26-4.86,12.22,12.22,0,0,0,.59-6.86,13,13,0,0,0-1-3.12,23,23,0,0,0-2.1,2.21A20.5,20.5,0,0,0,504.37,192.07Z"/><path class="cls-10" d="M494,181.83a16.83,16.83,0,0,0,4.47,3A25,25,0,0,0,501,186a9.1,9.1,0,0,0,.14-2.66,8.57,8.57,0,0,0-2.17-5.16,8.74,8.74,0,0,0-5-2.48,10.85,10.85,0,0,0-2.74-.08,12.47,12.47,0,0,0,.47,2.2A9.77,9.77,0,0,0,494,181.83Z"/><path class="cls-11" d="M501.47,177a17.11,17.11,0,0,0,1.1,5.81,20.69,20.69,0,0,0,1.1,2.58,11.13,11.13,0,0,0,2-2.14,10.66,10.66,0,0,0,2.13-6.11,12.22,12.22,0,0,0-2-6.58,12.9,12.9,0,0,0-2.06-2.52,22.84,22.84,0,0,0-1.13,2.83A20.36,20.36,0,0,0,501.47,177Z"/><path class="cls-4" d="M277.42,31.22a4,4,0,1,0-3.74,0c-.39,3.07-1.55,7-4.68,8.42-3.52,1.56-8.06-.16-10.44-5.08a3.49,3.49,0,1,0-3,1l4,14.74H267l10.68-17.52C277.57,32.27,277.48,31.74,277.42,31.22Z"/><path class="cls-10" d="M295.05,28.64a3.49,3.49,0,0,0-2.51,5.92c-2.38,4.92-6.92,6.64-10.44,5.08-2.61-1.16-3.85-4.1-4.42-6.83L267,50.34h24.47l4-14.74a3.49,3.49,0,0,0-.45-7Z"/><path class="cls-4" d="M257.67,56.41v.22a2.6,2.6,0,0,0,2.6,2.6h1.32l3.3-5.42h-4.62A2.6,2.6,0,0,0,257.67,56.41Z"/><path class="cls-10" d="M290.83,59.23a2.6,2.6,0,0,0,2.6-2.6v-.22a2.6,2.6,0,0,0-2.6-2.6H264.89l-3.3,5.42Z"/><path class="cls-10" d="M332.38,38.06c-7.35,1.78-8.81,3.22-10.61,10.49-1.8-7.27-3.26-8.71-10.61-10.49,7.35-1.78,8.81-3.22,10.61-10.49C323.56,34.84,325,36.28,332.38,38.06Z"/><path class="cls-4" d="M314.61,51.37c-5.19,1.26-6.22,2.27-7.49,7.41-1.27-5.13-2.3-6.15-7.49-7.41,5.19-1.26,6.22-2.27,7.49-7.41C308.39,49.09,309.42,50.11,314.61,51.37Z"/><path class="cls-10" d="M218.72,38.06c7.35,1.78,8.81,3.22,10.61,10.49,1.8-7.27,3.26-8.71,10.61-10.49-7.35-1.78-8.81-3.22-10.61-10.49C227.53,34.84,226.07,36.28,218.72,38.06Z"/><path class="cls-4" d="M236.49,51.37c5.19,1.26,6.22,2.27,7.49,7.41,1.27-5.13,2.3-6.15,7.49-7.41-5.19-1.26-6.22-2.27-7.49-7.41C242.71,49.09,241.68,50.11,236.49,51.37Z"/></svg>