<svg id="レイヤー_1" data-name="レイヤー 1" xmlns="http://www.w3.org/2000/svg" xmlns:xlink="http://www.w3.org/1999/xlink" viewBox="0 0 600 146"><defs><style>.cls-1{fill:none;}.cls-2{clip-path:url(#clip-path);}.cls-3{fill:#ffffa2;}.cls-4{fill:#066b74;}.cls-5{fill:#8cddf1;}.cls-6{fill:#ffb23d;}.cls-7{fill:#ff8266;}.cls-8{fill:#ee5659;}.cls-9{fill:#fff;}.cls-10{fill:#ffe55a;}</style><clipPath id="clip-path"><rect class="cls-1" x="-450" y="310" width="1080" height="400"/></clipPath></defs><title>title_head</title><g class="cls-2"><polygon class="cls-1" points="163.19 778 630 236.18 630 50.46 146.25 778 163.19 778"/><polygon class="cls-1" points="-42.19 -302 80.3 778 86.71 778 43.76 -302 -42.19 -302"/><polygon class="cls-1" points="543.93 -302 122.95 778 132.93 778 630 -206.16 630 -302 543.93 -302"/><polygon class="cls-1" points="-450 -302 -450 778 -160.62 778 -450 680.27 -450 543.42 -53.55 778 -10.22 778 -450 406.66 -450 236.18 16.8 778 33.75 778 -450 50.46 -450 -206.16 47.07 778 57.05 778 -363.93 -302 -450 -302"/><polygon class="cls-1" points="-240.39 -302 65.86 778 73.24 778 -141.36 -302 -240.39 -302"/><polygon class="cls-1" points="321.36 -302 106.76 778 114.14 778 420.39 -302 321.36 -302"/><polygon class="cls-1" points="136.24 -302 93.29 778 99.7 778 222.19 -302 136.24 -302"/><polygon class="cls-3" points="43.76 -302 86.71 778 93.29 778 136.24 -302 43.76 -302"/><polygon class="cls-3" points="-141.36 -302 73.24 778 80.3 778 -42.19 -302 -141.36 -302"/><polygon class="cls-3" points="-363.93 -302 57.05 778 65.86 778 -240.39 -302 -363.93 -302"/><polygon class="cls-3" points="-450 50.46 33.75 778 47.07 778 -450 -206.16 -450 50.46"/><polygon class="cls-3" points="146.25 778 630 50.46 630 -206.16 132.93 778 146.25 778"/><polygon class="cls-3" points="420.39 -302 114.14 778 122.95 778 543.93 -302 420.39 -302"/><polygon class="cls-3" points="222.19 -302 99.7 778 106.76 778 321.36 -302 222.19 -302"/></g><path class="cls-4" d="M597.47,121.17a12.92,12.92,0,0,0,.75-3.5l1.55-22.56,0-1c0-7.25-5.95-12.71-13.83-12.71a14.61,14.61,0,0,0-9.38,3.2,14.56,14.56,0,0,0-9.35-3.2c-5.7,0-10.41,2.85-12.57,7.2a13.72,13.72,0,0,0-3.14-.37,12.33,12.33,0,0,0-10.8,5.79,12.69,12.69,0,0,0-5.93-5.94,33.63,33.63,0,0,0-3.32-1.36c-1.26-.44-11.05-3.81-15.32-3.81a12.48,12.48,0,0,0-12.66,12.87,13.37,13.37,0,0,0,.36,3.07H477.52c0-.49.08-1,.08-1.48A15,15,0,0,0,451,87.94a14.48,14.48,0,0,0-8.49-2.59A15.18,15.18,0,0,0,429,93.85a13,13,0,0,0-10.81-5.57,12.33,12.33,0,0,0-10.8,5.79,12.69,12.69,0,0,0-5.93-5.94,33.73,33.73,0,0,0-3.32-1.36,106.16,106.16,0,0,0-11.4-3.3,40.34,40.34,0,0,0,11.65-4.31,44.1,44.1,0,0,0,11.78-9.53,35.35,35.35,0,0,0,28.5,14.61c11.64,0,22.89-5.74,30.53-14.4a16.92,16.92,0,0,0,4.27-7.91,14.89,14.89,0,0,0-1.13-9.21,14.61,14.61,0,0,0-2.76-3.95c-.14-.14-.42-.3-.49-.48s0,0,.06-.34a5.2,5.2,0,0,1,.62-1A14.77,14.77,0,0,0,471,35.06a34.32,34.32,0,0,0-46.1-21.7,35,35,0,0,0-16.49,14.1,34.49,34.49,0,0,0-20.77-15.68,34.89,34.89,0,0,0-38.41,15.68,34.52,34.52,0,0,0-55-5.56c-.29-3.34-.24-7-1.15-10.23A14.77,14.77,0,0,0,267.5,6.33a14.77,14.77,0,0,0-24.38,12.42,35.63,35.63,0,0,0-50.07,5.94A36.73,36.73,0,0,0,186.13,39a14.88,14.88,0,0,0-2.79-.58,14.92,14.92,0,0,0,1.94-18.53c-3.64-5.59-11.12-8-17.4-9a39.52,39.52,0,0,0-34.62,11.85,36.4,36.4,0,0,0-9.39,31.8c2.77,13.64,13.67,24.18,27.13,27.27a39.49,39.49,0,0,0,36.93-11.17,38.07,38.07,0,0,0,2.95-3.49,36.18,36.18,0,0,0,20.46,15.32,35.11,35.11,0,0,0,5.3,1.07H185.9c-6.56,0-11.7,5.47-11.7,12.44a13.65,13.65,0,0,0,.32,2.91H148.19a10.66,10.66,0,0,0-5.59,1.57c-1.56-4-5.38-8.13-14.45-8.13H110.77a11.33,11.33,0,0,0-10.43,7c0-.09,0-.18,0-.27,0-7.13-5.23-12.71-11.91-12.71H57.73a11.43,11.43,0,0,0-6.39,1.94c-1.53-5.2-6.58-8.93-12.76-8.93S27.37,83,25.82,88.17c-1.73-4.89-6.64-8.32-12.58-8.32C5.82,79.85,0,85.22,0,92.08v21.86c0,5.89,4.25,10.68,10.12,12a12.48,12.48,0,0,0-1.21,5.43,14.58,14.58,0,0,0,1.38,6l0,.09a12.13,12.13,0,0,0,11.18,7,32,32,0,0,0,8.7-1.8l.13,0a36.31,36.31,0,0,0,12.72-7.28,11.55,11.55,0,0,0,9.44,4.92H93.67a11.43,11.43,0,0,0,4.76-1,11.17,11.17,0,0,0,7.76,3.11h33.6c6.47,0,11.54-5.35,11.54-12.18a12.79,12.79,0,0,0-1.24-5.53h31.27a12.39,12.39,0,0,0-1.54,6c0,7.18,5.89,13.24,12.87,13.24,7.56,0,15.54-7.14,18.8-12.23a28.31,28.31,0,0,0,2.88-6.07,14.39,14.39,0,0,0,6.33-1.94,12,12,0,0,0-1.08,5.08,13.7,13.7,0,0,0,13.3,13.4,12.72,12.72,0,0,0,7.67-2.56,31.16,31.16,0,0,0,4.38-3.84,14.39,14.39,0,0,0,12.21,6.61,16.39,16.39,0,0,0,9.5-3.13,46.78,46.78,0,0,0,10.46-9.79,11.76,11.76,0,0,0,7.39,1.91l9.86-.78.77,4.47c1,6,6.22,10.15,12.7,10.15,7.67,0,13.46-5.4,13.46-12.55a13.76,13.76,0,0,0-.17-2.07l-.36-2.13,4.91-.39a11.78,11.78,0,0,0,8.78-4.95,11.45,11.45,0,0,0,2.51.28,12.74,12.74,0,0,0,1.44-.06l2.37,12.27a11.85,11.85,0,0,0,11.93,9.61c7.35,0,13.1-5.27,13.14-12a10.72,10.72,0,0,0,5.55-2.41c.4,6.86,5.63,12.13,12.24,12.13.92,0,2.79-.21,4.11-.37a66.85,66.85,0,0,0,15-3.31,40.93,40.93,0,0,0,14.42-8.51,14.56,14.56,0,0,0,11.26,5.53,12.49,12.49,0,0,0,10.75-6,88,88,0,0,0,4.75-8,112.56,112.56,0,0,0,9.32,11.45c3.64,3.88,7.39,7.9,13.26,7.9,7.23,0,13.56-6.56,13.56-14a12.58,12.58,0,0,0-.35-2.91h26.11a13.47,13.47,0,0,0-1.08,5.26c0,7.28,5.4,13,12.28,13,.92,0,2.79-.21,4.11-.37a66.84,66.84,0,0,0,15-3.31,39.66,39.66,0,0,0,17.16-11.34,14,14,0,0,0,23.33,11.85,14,14,0,0,0,20.88-18.47ZM117.52,118H106.18a11.29,11.29,0,0,0-3.82.67,11.49,11.49,0,0,0-8.69-4H52.5c-.3,0-.58,0-.87,0,.09-1.46.15-3,.17-4.64a11.44,11.44,0,0,0,5.93,1.64H88.44a11.75,11.75,0,0,0,10.84-7.4s0,0,0,.07c0,6.91,4.94,12.12,11.48,12.12h6.91Zm99.15-2-.29-.4v-.13l.35.47Zm25-34.28a13.34,13.34,0,0,0-10.15,4.44,12.86,12.86,0,0,0-7-2.53,35.59,35.59,0,0,0,12-3.34,36,36,0,0,0,11.23-8.53,29.15,29.15,0,0,0,.62,4.77,14.88,14.88,0,0,0,2.11,4.65,13.06,13.06,0,0,0-3.13,1.72A14.06,14.06,0,0,0,241.64,81.72Zm42.73,7.76a11.71,11.71,0,0,0-9.66,6.64c-.39,0-.78-.06-1.18-.06a12.88,12.88,0,0,0-4.89.93V92.35a11.58,11.58,0,0,0-1.36-5.46,14.8,14.8,0,0,0,6.85-4.7,14.77,14.77,0,0,0,16,2.05,11.41,11.41,0,0,0-2.14,5Zm10.86-9.18A14.38,14.38,0,0,0,297.68,76,34.59,34.59,0,0,0,302,79.13l-.8,0A15.12,15.12,0,0,0,295.23,80.3Zm75,13.57c-.39,0-.79,0-1.2,0a21.25,21.25,0,0,0-3.79.34l-6.65,1.09a11.86,11.86,0,0,0-11.48-7.56c-7.25,0-13,5.07-13.08,11.58l-.57.16s0,0,0,0a12.86,12.86,0,0,0-4-9.42,11.85,11.85,0,0,0-9-3.16l-6.93.51A11.76,11.76,0,0,0,310.89,83a34.85,34.85,0,0,0,7.28,1.21,39.22,39.22,0,0,0,22.72-6A44.1,44.1,0,0,0,351,69.61a35.35,35.35,0,0,0,20.56,13.71,34.62,34.62,0,0,0,5.79.81A12.42,12.42,0,0,0,370.28,93.87Zm14,23a22.65,22.65,0,0,0-4.77.91,41.68,41.68,0,0,0,2.71-9.1,75.25,75.25,0,0,1,7.73,2.69,13.8,13.8,0,0,0,5.85,1.36,12.79,12.79,0,0,0,2-.16C394.57,114.84,390.25,116.09,384.23,116.82Zm135.58-.3a15.06,15.06,0,0,0,.79-4.87c0-.47,0-.94-.07-1.4,1,.36,2,.73,2.74,1.07a13.8,13.8,0,0,0,5.85,1.36,12.79,12.79,0,0,0,2-.16C528.35,114.55,524.7,115.76,519.81,116.52Z"/><path class="cls-1" d="M389.9,111.32a75.25,75.25,0,0,0-7.73-2.69,41.68,41.68,0,0,1-2.71,9.1,22.65,22.65,0,0,1,4.77-.91c6-.73,10.34-2,13.56-4.3a12.79,12.79,0,0,1-2,.16A13.8,13.8,0,0,1,389.9,111.32Z"/><path class="cls-1" d="M216.38,115.61l.29.4.07-.06-.35-.47Z"/><path class="cls-1" d="M523.28,111.32c-.79-.34-1.74-.7-2.74-1.07,0,.46.07.92.07,1.4a15.06,15.06,0,0,1-.79,4.87c4.89-.76,8.54-2,11.36-4a12.79,12.79,0,0,1-2,.16A13.8,13.8,0,0,1,523.28,111.32Z"/><path class="cls-1" d="M99.29,104.4s0,0,0-.07a11.75,11.75,0,0,1-10.84,7.4H57.73a11.44,11.44,0,0,1-5.93-1.64c0,1.64-.08,3.18-.17,4.64.29,0,.58,0,.87,0H93.67a11.49,11.49,0,0,1,8.69,4,11.29,11.29,0,0,1,3.82-.67h11.34l.16-1.46h-6.91C104.22,116.53,99.29,111.31,99.29,104.4Z"/><path class="cls-4" d="M293.65,14.2l0,.18Z"/><path class="cls-5" d="M188.61,52c.38,2.11-.41,4-1.34,5.86a31.24,31.24,0,0,1-27.74,17A28.8,28.8,0,0,1,135.62,62.4a27,27,0,0,1-3.3-22.49c5.05-17,25.16-26.13,41.42-19.07,2,.86,3.89,1.81,5,3.71a6.8,6.8,0,0,1-8.64,9.64A20.58,20.58,0,0,0,163.25,32a17.62,17.62,0,0,0-7.15.91,17.29,17.29,0,0,0-9.21,7.29,14,14,0,0,0-1.74,10.59,13.62,13.62,0,0,0,7.78,9,17.7,17.7,0,0,0,19.61-4.28,20.17,20.17,0,0,0,3.24-5.27A6.79,6.79,0,0,1,188.61,52Z"/><path class="cls-6" d="M320.25,76.23a27.1,27.1,0,0,1-16.89-5.88,29.18,29.18,0,0,1-10.08-16.69,30.43,30.43,0,0,1,3.5-21.88A27.25,27.25,0,0,1,312.1,19.87a26.21,26.21,0,0,1,29.24,9.94c1.78,2.52,3.62,5.77,4,8.89a6.88,6.88,0,0,1-4.42,7.21c-.51.2-1,.37-1.53.56l-9.54,3.47-12.21,4.44-4.87,1.77a23.28,23.28,0,0,0-2.85,1,3.18,3.18,0,0,1-.39.14,13.88,13.88,0,0,0,13.26,5.08,19.26,19.26,0,0,0,7.6-3.18,22.8,22.8,0,0,0,3.42-2.83,27.61,27.61,0,0,1,2.64-2.79,6.86,6.86,0,0,1,10.78,4.11c.48,2.48-.5,4.56-2.08,6.41a35.66,35.66,0,0,1-6.26,5.74A32.22,32.22,0,0,1,320.25,76.23Zm-.3-44c-6.85,0-12.27,5.18-13.49,11.72L326,36.88l2.74-1A12.62,12.62,0,0,0,320,32.28Z"/><path class="cls-7" d="M379.46,76.23a27.21,27.21,0,0,1-19.35-8.12,30.31,30.31,0,0,1-2.32-39,27.36,27.36,0,0,1,16.75-10,26.26,26.26,0,0,1,20.64,5.13,26.63,26.63,0,0,1,6.47,7.35c1.5,2.51,3.27,5.87,2.85,8.88a6.9,6.9,0,0,1-4.44,5.47c-.63.24-1.27.46-1.9.69l-9.67,3.52-11.92,4.34-4.74,1.72a15.5,15.5,0,0,0-2.75,1,2.06,2.06,0,0,1-.37.13,13.91,13.91,0,0,0,15,4.71,21.17,21.17,0,0,0,7.41-3.93A21.58,21.58,0,0,0,394,55.3a8.57,8.57,0,0,1,2.78-2.4,6.86,6.86,0,0,1,9.74,5.75c.14,2.48-1.15,4.34-2.74,6.1a36,36,0,0,1-6.27,5.51A32,32,0,0,1,379.46,76.23Zm-.33-44c-6.85,0-12.27,5.18-13.49,11.72l19.54-7.11,2.74-1A12.62,12.62,0,0,0,379.13,32.28Z"/><path class="cls-8" d="M438.64,76.23a27.21,27.21,0,0,1-19.35-8.12,30.31,30.31,0,0,1-2.32-39,27.37,27.37,0,0,1,16.75-10,26.26,26.26,0,0,1,20.64,5.13,26.63,26.63,0,0,1,6.47,7.35c1.5,2.51,3.27,5.87,2.85,8.88a6.9,6.9,0,0,1-4.44,5.47c-.63.24-1.27.46-1.9.69l-9.67,3.52-11.92,4.34L431,56.2a15.5,15.5,0,0,0-2.75,1,2.06,2.06,0,0,1-.37.13,13.91,13.91,0,0,0,15,4.71,21.17,21.17,0,0,0,7.41-3.93,21.59,21.59,0,0,0,2.92-2.82A8.58,8.58,0,0,1,456,52.9a6.86,6.86,0,0,1,9.74,5.75c.14,2.48-1.15,4.34-2.74,6.1a36,36,0,0,1-6.27,5.51A32,32,0,0,1,438.64,76.23Zm-.33-44c-6.85,0-12.27,5.18-13.49,11.72l19.54-7.11,2.74-1A12.62,12.62,0,0,0,438.31,32.28Z"/><path class="cls-9" d="M221.08,75.83A28.29,28.29,0,0,1,194.8,57.18a28.85,28.85,0,0,1,8.54-31.64,27.87,27.87,0,0,1,32.19-2.37,28.79,28.79,0,0,1,13,29.83,28.45,28.45,0,0,1-23,22.48A27.71,27.71,0,0,1,221.08,75.83Zm0-43.16a14.56,14.56,0,0,0-13.49,9.66,15.15,15.15,0,0,0,4.27,16.47,14.19,14.19,0,0,0,16.66,1.31,15.07,15.07,0,0,0,6.67-15.56A14.65,14.65,0,0,0,221.08,32.67Z"/><path class="cls-10" d="M257.26,10.75a6.85,6.85,0,0,0-6.2,6.66c0,.66.08,1.33.14,2L252,29l2.4,27.47.6,6.89,12.39-4.64c1-.36.81-.32.72-1.31l-.41-4.72L265,21c-.12-1.32-.21-2.65-.35-4A6.88,6.88,0,0,0,257.26,10.75Z"/><path class="cls-6" d="M255.92,73.44a6.79,6.79,0,0,0,13.38,1,14.51,14.51,0,0,0-.05-4.59l-.59-6.72-.41-4.67-9.84,3.68L256,63c-.17.06-.8.18-.91.34s.1,1.19.12,1.42l.28,3.21Z"/><path class="cls-6" d="M275.62,55.68l.83,9.54.47,5.41a8,8,0,0,0,1.73,4.84,6.79,6.79,0,0,0,11.89-5.1c-.22-3.1-.54-6.2-.81-9.3l-.9-10.33Z"/><path class="cls-10" d="M285.71,15.08a6.79,6.79,0,0,0-13.48-.46c-.33,2.15.21,4.62.39,6.76L275,48.17l.66,7.51,10.16-3.81,2.37-.89c.15-.06.6-.14.67-.28.21-.37-.15-1.75-.19-2.16l-2.23-25.47Z"/><path class="cls-9" d="M18,113.95c0,2.24-2,3.84-4.8,3.84s-4.8-1.6-4.8-3.84V92.08c0-2.13,2.08-3.79,4.8-3.79S18,89.9,18,92.08Zm25.33-6.29c0,11-1,15.47-4.43,19.73-2.29,2.88-6.4,5.49-11.36,7.2A25.48,25.48,0,0,1,21.51,136a3.71,3.71,0,0,1-3.57-2.19,6.1,6.1,0,0,1-.59-2.45,3.89,3.89,0,0,1,2.29-3.63,7.93,7.93,0,0,1,2.4-.85c4.75-1.33,8.16-3.47,9.65-6,1.76-3,2.08-5.12,2.08-13.12V91.55c0-2.13,2.08-3.79,4.8-3.79s4.8,1.6,4.8,3.79Z"/><path class="cls-9" d="M93.67,123.12c2,0,3.47,1.81,3.47,4.32s-1.49,4.32-3.47,4.32H52.5c-2,0-3.47-1.81-3.47-4.32s1.44-4.32,3.47-4.32ZM88.44,94.75c2,0,3.47,1.81,3.47,4.27s-1.44,4.27-3.47,4.27H57.73c-2,0-3.47-1.81-3.47-4.27s1.44-4.27,3.47-4.27Z"/><path class="cls-9" d="M139.78,126.43c1.76,0,3.09,1.55,3.09,3.68s-1.28,3.73-3.09,3.73h-33.6c-1.81,0-3.09-1.55-3.09-3.73s1.28-3.68,3.09-3.68H125c.8-6.08,1.76-15.09,1.76-16.91,0-1.12-.43-1.44-1.87-1.44H110.77c-1.81,0-3-1.49-3-3.68s1.28-3.63,3-3.63h17.39c5.17,0,7,1.49,7,5.49,0,2.19-1,11.79-2,20.16Z"/><path class="cls-9" d="M182.73,107.33c1.72,0,3,1.87,3,4.32s-1.27,4.48-3,4.48H148.19c-1.72,0-3-1.87-3-4.43s1.31-4.37,3-4.37Z"/><path class="cls-9" d="M221.85,92c3,0,3.95.27,5.23,1.49a5,5,0,0,1,1.6,3.95,18.78,18.78,0,0,1-2.08,7c-3,6.51-9.23,12.69-12.75,12.69-2.08,0-4.16-2.29-4.16-4.53a4.2,4.2,0,0,1,2.13-3.47,16.61,16.61,0,0,0,6-7,6.24,6.24,0,0,0,.53-1.6c0-.37-.27-.48-1.12-.48H185.9c-1.87,0-3.25-1.71-3.25-4s1.39-4,3.25-4Zm-13.6,16.85c0,8.16-1.28,14.13-3.89,18.24s-8.48,8.32-11.68,8.32a4.83,4.83,0,0,1-4.43-4.8,3.79,3.79,0,0,1,1.55-3.15,9.58,9.58,0,0,1,1.81-1,15.69,15.69,0,0,0,6-6.56c1-2.08,1.49-5.92,1.49-11.09V107.6c0-2.08,2-3.68,4.59-3.68s4.59,1.55,4.59,3.68Z"/><path class="cls-9" d="M246.23,100.51v1.65c-.05,11.31-.59,15.47-2.72,20.43a23.33,23.33,0,0,1-7.89,10.08,4.35,4.35,0,0,1-2.72,1,5.32,5.32,0,0,1-4.85-5c0-1.55.53-2.35,2.67-4.05,5.28-4.27,6.56-9.12,6.35-24.1V93.84c0-2.08,2-3.68,4.59-3.68s4.59,1.55,4.59,3.68Zm14,19.89c0,.91.11,1.28.37,1.28s.64-.32,1.55-1.28a41.18,41.18,0,0,0,7.73-12.91c.75-2.19,1.76-3,3.68-3a4.42,4.42,0,0,1,4.64,4.16c0,1.17-.91,3.89-2.35,6.93A41.54,41.54,0,0,1,262,132.13a8,8,0,0,1-4.8,1.71,6.09,6.09,0,0,1-6.13-6.35V92.35c0-2.08,2-3.68,4.59-3.68s4.59,1.55,4.59,3.68Z"/><path class="cls-9" d="M296.32,92a4.06,4.06,0,0,1-.05-.8c0-2.19,2-3.68,5-3.68,2.51,0,4.21,1.23,4.53,3.25l1,5.49,14.4-1.07c2.24-.16,3.95,1.65,3.95,4.16,0,2.24-1.33,3.89-3.31,4.05l-13.65,1.07,1.33,7.79,15-1.12c2.24-.16,3.95,1.65,3.95,4.21,0,2.35-1.33,4-3.36,4.16l-14.13,1.12,1.87,10.88a7.36,7.36,0,0,1,.11,1c0,2.51-2,4.11-5,4.11-2.4,0-4.05-1.17-4.37-3.09l-2.08-12.11-17.55,1.39c-2.19.16-3.89-1.71-3.89-4.37,0-2.35,1.33-4.05,3.31-4.21L300,113l-1.33-7.79-12.91,1c-2.19.16-3.89-1.65-3.89-4.16,0-2.35,1.33-4,3.25-4.16L297.18,97Z"/><path class="cls-9" d="M342.63,100.51a8.27,8.27,0,0,1-.11-1c0-1.92,2-3.36,4.64-3.36,2,0,3.41,1,3.73,2.67l1.17,6.08,14.67-2.4a12.76,12.76,0,0,1,2.35-.21c3.15,0,4.85,1.39,4.85,3.89,0,3-2.61,10.08-5.33,14.56-2.24,3.57-2.77,4.05-4.59,4.05-2.4,0-4.59-1.87-4.59-4a3.54,3.54,0,0,1,.8-2.13,29.78,29.78,0,0,0,3.68-6.51l.21-.48a3.09,3.09,0,0,0,.27-.91c0-.27-.21-.43-.64-.43a4.77,4.77,0,0,0-1.17.16l-9.12,1.6L357.3,132a3.28,3.28,0,0,1,.11,1c0,2.08-2,3.63-4.69,3.63a3.38,3.38,0,0,1-3.63-2.72l-3.95-20.42-7.41,1.28a2.83,2.83,0,0,1-.75.05c-1.87,0-3.25-1.71-3.25-4a3.21,3.21,0,0,1,2.51-3.41l7.52-1.23Z"/><path class="cls-9" d="M395.38,94.75c.8.27,2,.8,2.35,1a4.32,4.32,0,0,1,2.45,4,4.54,4.54,0,0,1-4.43,4.53,5.68,5.68,0,0,1-2.56-.69,82.07,82.07,0,0,0-11.95-3.89,3.66,3.66,0,0,1-2.67-3.84,4.09,4.09,0,0,1,4.21-4.43C384.39,91.39,390.79,93.1,395.38,94.75Zm27.3,6.19c0,2.24-2.83,10.93-4.91,14.93-3.79,7.41-9.6,12.37-17.86,15.31a58.52,58.52,0,0,1-13.12,2.88c-1.28.16-2.83.32-3.15.32-2.19,0-3.84-2-3.84-4.53a4.66,4.66,0,0,1,1.81-3.79c.75-.48.75-.48,3.68-.85,17.17-2.08,24.9-9,29-25.92.37-1.6,1.87-2.56,3.89-2.56A4.3,4.3,0,0,1,422.68,100.93Z"/><path class="cls-9" d="M442.55,104.72c-3.57,9-6.61,15.09-10.4,20.75a4.13,4.13,0,0,1-3.73,2.24c-2.83,0-5.65-2.4-5.65-4.85,0-1.17.16-1.49,1.81-3.73,3.47-4.64,8.32-13.39,11.47-20.53,1.33-3.09,3.68-4.8,6.51-4.8s4.75,1.33,6.61,4.53c4.05,7.52,13.76,19.57,21,26.18a3.61,3.61,0,0,1,1.44,3c0,2.83-2.56,5.6-5.12,5.6-1.76,0-3.2-1.07-7.09-5.23a126.08,126.08,0,0,1-16.64-23.14Zm26.61-7.31a6.53,6.53,0,1,1-6.51-6.51A6.58,6.58,0,0,1,469.16,97.41Zm-9.49,0a3,3,0,0,0,3,2.93,3,3,0,0,0,2.93-2.93,3,3,0,0,0-5.92,0Z"/><path class="cls-9" d="M509.12,107.33c1.72,0,3,1.87,3,4.32s-1.27,4.48-3,4.48H474.58c-1.72,0-3-1.87-3-4.43s1.32-4.37,3-4.37Z"/><path class="cls-9" d="M528.75,94.75c.8.27,2,.8,2.35,1a4.32,4.32,0,0,1,2.45,4,4.54,4.54,0,0,1-4.43,4.53,5.68,5.68,0,0,1-2.56-.69,82.07,82.07,0,0,0-11.95-3.89A3.66,3.66,0,0,1,512,95.82a4.09,4.09,0,0,1,4.21-4.43C517.77,91.39,524.17,93.1,528.75,94.75Zm27.3,6.19c0,2.24-2.83,10.93-4.91,14.93-3.79,7.41-9.6,12.37-17.86,15.31a58.52,58.52,0,0,1-13.12,2.88c-1.28.16-2.83.32-3.15.32-2.19,0-3.84-2-3.84-4.53a4.66,4.66,0,0,1,1.81-3.79c.75-.48.75-.48,3.68-.85,17.17-2.08,24.9-9,29-25.92.37-1.6,1.87-2.56,3.89-2.56A4.3,4.3,0,0,1,556.06,100.93Z"/><path class="cls-9" d="M572.83,129.2a5.6,5.6,0,1,1-5.6-5.6A5.67,5.67,0,0,1,572.83,129.2ZM571.07,117c-.16,2.13-1.55,3.36-3.84,3.36s-3.68-1.23-3.84-3.36l-1.55-22.5v-.69c.16-2.35,2.4-3.95,5.39-3.95,3.15,0,5.39,1.76,5.39,4.27v.37Z"/><path class="cls-9" d="M591.56,129.2a5.6,5.6,0,1,1-5.6-5.6A5.67,5.67,0,0,1,591.56,129.2ZM589.8,117c-.16,2.13-1.55,3.36-3.84,3.36s-3.68-1.23-3.84-3.36l-1.55-22.5v-.69c.16-2.35,2.4-3.95,5.39-3.95,3.15,0,5.39,1.76,5.39,4.27v.37Z"/></svg>