<svg version="1.1" id="レイヤー_1" xmlns="http://www.w3.org/2000/svg" xmlns:xlink="http://www.w3.org/1999/xlink" x="0px" y="0px" viewBox="0 0 28.107 25.232" enable-background="new 0 0 28.107 25.232" xml:space="preserve">
<path fill="#f39800" d="M25.589,2.094C22.4-0.911,17.311-0.599,14.213,2.499L1.867,14.845c-2.157,2.156-2.533,5.627-0.666,8.039c2.258,2.918,6.483,3.115,9.006,0.592l12.569-12.569c1.532-1.532,1.756-4.052,0.306-5.661c-1.547-1.716-4.191-1.768-5.804-0.155L6.671,15.698c-0.39,0.391-0.39,1.024,0,1.414c0.391,0.391,1.024,0.391,1.414,0l8.16-8.16l2.361-2.361c0.705-0.705,1.84-0.886,2.653-0.307c1.032,0.735,1.119,2.193,0.262,3.05l-2.447,2.447l-7.128,7.128l-2.995,2.995c-1.532,1.532-4.052,1.756-5.661,0.306c-1.716-1.547-1.768-4.191-0.155-5.804l3.154-3.154l5.834-5.834l3.595-3.595c2.156-2.156,5.627-2.533,8.039-0.666c2.918,2.257,3.115,6.483,0.592,9.006L13.742,22.769c-0.391,0.391-0.391,1.024,0,1.414c0.391,0.391,1.024,0.391,1.414,0l10.607-10.607C28.945,10.394,28.887,5.203,25.589,2.094z"/>
</svg>